#N canvas 224 22 923 475 12;
#X obj 83 64 k_multi_spec;
#X obj 53 -29 phasor~ 0.5;
#X obj 18 -30 *~;
#X obj 18 -64 osc~ 2000;
#X obj 145 -30 *~;
#X obj 145 -64 osc~ 300;
#X obj 180 -29 phasor~ 1;
#X obj 180 35 *~;
#X obj 215 36 phasor~ 10;
#X obj 180 -4 phasor~ 3000;
#X obj 84 298 dac~;
#X obj 220 358 gemwin;
#X msg 220 330 dimen 300 300 \, create \, 1;
#X msg 212 302 destroy;
#X obj 396 -18 gemhead;
#X obj 397 147 circle;
#X obj 542 112 line;
#X obj 133 248 s b1;
#X obj 181 267 s b2;
#X obj 246 252 s b3;
#X obj 542 54 r b1;
#X obj 396 12 colorRGB 1 0 0 0.8;
#X obj 396 47 alpha;
#X obj 448 45 loadbang;
#X obj 449 72 tgl 15 0 empty empty empty 17 7 0 10 -262144 -1 -1 1
1;
#X obj 586 -21 gemhead;
#X obj 587 144 circle;
#X obj 721 45 line;
#X obj 586 44 alpha;
#X obj 638 42 loadbang;
#X obj 639 69 tgl 15 0 empty empty empty 17 7 0 10 -262144 -1 -1 1
1;
#X obj 466 191 gemhead;
#X obj 467 356 circle;
#X obj 612 321 line;
#X obj 466 256 alpha;
#X obj 518 254 loadbang;
#X obj 519 281 tgl 15 0 empty empty empty 17 7 0 10 -262144 -1 -1 1
1;
#X obj 466 221 colorRGB 0 1 0 0.8;
#X obj 586 9 colorRGB 0 0 1 0.8;
#X obj 721 -13 r b2;
#X obj 612 263 r b3;
#X obj 467 322 translateXYZ 0 0 0;
#X obj 397 113 translateXYZ -1 0 0;
#X obj 587 110 translateXYZ 1 0 0;
#X msg 612 292 2 \, 0 200;
#X msg 542 83 2 \, 0 200;
#X msg 721 16 2 \, 0 200;
#X connect 0 0 10 0;
#X connect 0 0 10 1;
#X connect 0 1 17 0;
#X connect 0 2 18 0;
#X connect 0 3 19 0;
#X connect 1 0 2 1;
#X connect 2 0 0 0;
#X connect 3 0 2 0;
#X connect 4 0 0 0;
#X connect 5 0 4 0;
#X connect 6 0 4 1;
#X connect 7 0 0 0;
#X connect 8 0 7 1;
#X connect 9 0 7 0;
#X connect 12 0 11 0;
#X connect 13 0 11 0;
#X connect 14 0 21 0;
#X connect 16 0 15 1;
#X connect 20 0 45 0;
#X connect 21 0 22 0;
#X connect 22 0 42 0;
#X connect 23 0 24 0;
#X connect 24 0 22 1;
#X connect 25 0 38 0;
#X connect 27 0 26 1;
#X connect 28 0 43 0;
#X connect 29 0 30 0;
#X connect 30 0 28 1;
#X connect 31 0 37 0;
#X connect 33 0 32 1;
#X connect 34 0 41 0;
#X connect 35 0 36 0;
#X connect 36 0 34 1;
#X connect 37 0 34 0;
#X connect 38 0 28 0;
#X connect 39 0 46 0;
#X connect 40 0 44 0;
#X connect 41 0 32 0;
#X connect 42 0 15 0;
#X connect 43 0 26 0;
#X connect 44 0 33 0;
#X connect 45 0 16 0;
#X connect 46 0 27 0;
