#N canvas 584 135 456 408 10;
#X obj 0 77 k_spec;
#X obj 0 31 readsf~;
#X msg 0 -1 open test.wav \, 1;
#X obj 28 314 gemwin;
#X msg 3 253 destroy;
#X obj 128 101 repeat 100;
#X obj 128 133 f;
#X obj 154 133 + 1;
#X obj 183 132 % 100;
#X obj 128 165 t f f;
#X obj 127 244 tabwrite y;
#X obj 127 212 / 256;
#X obj 128 2 tgl 15 0 empty empty empty 17 7 0 10 -262144 -1 -1 1 1
;
#X obj 54 202 k_camera;
#X obj 256 79 scanline 0;
#X obj 257 108 scanline 1;
#X obj 257 139 scanline 2;
#X obj 258 169 scanline 3;
#X obj 259 199 scanline 4;
#X obj 259 229 scanline 5;
#X obj 258 259 scanline 6;
#X obj 259 288 scanline 7;
#X obj 259 319 scanline 8;
#X obj 260 349 scanline 9;
#X obj 330 81 scanline 10;
#X obj 331 110 scanline 11;
#X obj 331 141 scanline 12;
#X obj 332 171 scanline 13;
#X obj 333 201 scanline 14;
#X obj 333 231 scanline 15;
#X obj 332 261 scanline 16;
#X obj 333 290 scanline 17;
#X obj 333 321 scanline 18;
#X obj 334 351 scanline 19;
#X obj 128 75 t b b;
#X obj 197 35 f;
#X obj 226 35 + 1;
#X obj 256 34 % 20;
#X msg 197 97 set \$1-y;
#X floatatom 197 64 5 0 0 0 - - -;
#X obj 128 27 metro 50;
#X msg 28 282 dimen 500 500 \, create \, 1;
#X obj 17 57 dac~;
#X connect 0 0 11 0;
#X connect 1 0 0 0;
#X connect 1 0 42 0;
#X connect 1 0 42 1;
#X connect 1 1 2 0;
#X connect 2 0 1 0;
#X connect 4 0 3 0;
#X connect 5 0 6 0;
#X connect 6 0 7 0;
#X connect 6 0 9 0;
#X connect 7 0 8 0;
#X connect 8 0 6 1;
#X connect 9 0 0 1;
#X connect 9 1 10 1;
#X connect 11 0 10 0;
#X connect 12 0 40 0;
#X connect 13 0 3 0;
#X connect 34 0 5 0;
#X connect 34 1 35 0;
#X connect 35 0 36 0;
#X connect 35 0 39 0;
#X connect 36 0 37 0;
#X connect 37 0 35 1;
#X connect 38 0 10 0;
#X connect 39 0 38 0;
#X connect 40 0 34 0;
#X connect 41 0 3 0;
