#N canvas 165 22 678 803 10;
#X msg 16 22 buffer 1 \, create \, 1;
#X msg 25 43 0 \, destroy;
#X obj 125 79 gemmouse;
#X obj 34 179 / 500;
#X obj 136 179 / 500;
#X obj 136 201 * -1;
#X obj 136 222 + 1;
#X obj 34 201 * 8;
#X obj 136 243 * 8;
#X obj 34 513 translateXYZ;
#X obj 34 222 - 4;
#X obj 136 265 - 4;
#X obj 147 105 select 1;
#X obj 147 127 s button;
#X obj 38 65 r button;
#X obj 34 731 rectangle 0.05 0.22;
#X obj 34 534 t a b;
#X obj 63 559 int;
#X obj 91 560 + 1;
#X obj 63 580 mod 80;
#X obj 63 600 / 80;
#X obj 63 620 + 0.2;
#X text 184 77 Mouse Input;
#X text 144 23 Buffer mode 1 doesn't clear the buffer every frame;
#X text 78 458 Bang the gemhead every time the mouse moves to render
a frame;
#X obj 34 463 t b f;
#X text 125 510 Move the shape based on mouse;
#X text 173 179 scale the output (y is inverted);
#X text 108 577 make it pretty;
#X obj 20 106 gemwin 33;
#X obj 475 492 pix_film;
#X msg 496 408 open \$1;
#X obj 496 386 openpanel;
#X msg 467 462 auto 1;
#X obj 34 488 gemhead 1;
#X obj 496 367 bng 15 250 50 0 empty empty empty 0 -6 0 10 -262144
-1 -1;
#X obj 476 562 pix_texture;
#X obj 477 598 square 8;
#X obj 467 309 metro 10;
#X obj 466 286 tgl 15 0 empty empty empty 0 -6 0 10 -262144 -1 -1 1
1;
#X obj 470 531 translateXYZ 0 0 -2;
#X obj 468 340 gemhead 10;
#X obj 488 438 t b a;
#X text 595 517 translated the depth;
#X text 596 532 so movie wont draw over;
#X text 597 548 your scribbling;
#X text 519 366 open a movie;
#X text 487 284 turn on to play movie;
#X obj 136 288 t f f;
#X obj 34 244 t f f;
#X obj 162 343 int;
#X obj 162 365 -;
#X obj 163 311 t f b f;
#X obj 145 711 r diffy;
#X obj 162 407 s diffy;
#X obj 60 297 int;
#X obj 60 319 -;
#X obj 61 265 t f b f;
#X obj 60 363 s diffx;
#X obj 34 688 rotateXYZ 0 0 0;
#X obj 89 711 r diffx;
#X obj 162 386 * 0.5;
#X obj 60 340 * 0.5;
#X text 215 308 <-- messing around;
#X obj 34 664 alpha;
#X obj 34 642 colorRGB 0 0 0 0.333;
#X text 146 146 Send a Bang to clear the buffer(on a mouseclick);
#X connect 0 0 29 0;
#X connect 1 0 29 0;
#X connect 2 0 3 0;
#X connect 2 1 4 0;
#X connect 2 2 12 0;
#X connect 3 0 7 0;
#X connect 4 0 5 0;
#X connect 5 0 6 0;
#X connect 6 0 8 0;
#X connect 7 0 10 0;
#X connect 8 0 11 0;
#X connect 9 0 16 0;
#X connect 10 0 49 0;
#X connect 11 0 48 0;
#X connect 12 0 13 0;
#X connect 14 0 29 0;
#X connect 16 0 65 0;
#X connect 16 1 17 0;
#X connect 17 0 18 0;
#X connect 17 0 19 0;
#X connect 18 0 17 1;
#X connect 19 0 20 0;
#X connect 20 0 21 0;
#X connect 21 0 65 1;
#X connect 25 0 34 0;
#X connect 25 1 9 1;
#X connect 30 0 40 0;
#X connect 31 0 42 0;
#X connect 32 0 31 0;
#X connect 33 0 30 0;
#X connect 34 0 9 0;
#X connect 35 0 32 0;
#X connect 36 0 37 0;
#X connect 38 0 41 0;
#X connect 39 0 38 0;
#X connect 40 0 36 0;
#X connect 41 0 30 0;
#X connect 42 0 33 0;
#X connect 42 1 30 0;
#X connect 48 0 9 2;
#X connect 48 1 52 0;
#X connect 49 0 25 0;
#X connect 49 1 57 0;
#X connect 50 0 51 0;
#X connect 51 0 61 0;
#X connect 52 0 50 1;
#X connect 52 1 50 0;
#X connect 52 2 51 1;
#X connect 53 0 15 2;
#X connect 55 0 56 0;
#X connect 56 0 62 0;
#X connect 57 0 55 1;
#X connect 57 1 55 0;
#X connect 57 2 56 1;
#X connect 59 0 15 0;
#X connect 60 0 15 1;
#X connect 61 0 54 0;
#X connect 62 0 58 0;
#X connect 64 0 59 0;
#X connect 65 0 64 0;
