#N canvas 608 26 770 742 12;
#X obj 159 103 gemwin;
#X msg 174 63 0 \, destroy;
#X obj 242 183 gemmouse 8 8;
#X obj 222 260 - 4;
#X obj 282 260 * -1;
#X obj 283 291 + 4;
#X obj 64 405 gemhead;
#X obj 61 283 t b;
#X obj 62 350 spigot;
#X obj 253 94 sel 1;
#X obj 83 626 curve 2;
#X msg 120 455 \$1 \$2 0;
#X msg 185 459 \$1 \$2 0;
#X obj 133 390 pack f f;
#X obj 189 335 t b f;
#X obj 257 420 pack f f;
#X obj 313 365 t b f;
#X msg 247 517 width 2;
#X obj 247 483 loadbang;
#X obj 253 121 bang;
#X obj 41 529 color 1 1 1;
#X obj 296 222 sel 1;
#X obj 247 330 pipe 5;
#X obj 313 334 pipe 5;
#X obj 387 270 random 100;
#X obj 387 300 / 100;
#X obj 468 271 random 100;
#X obj 468 301 / 100;
#X obj 550 273 random 100;
#X obj 550 303 / 100;
#X obj 447 206 t b b b;
#X obj 430 342 pack f f f;
#X obj 366 445 + 100;
#X obj 322 556 osc~;
#X obj 324 670 dac~;
#X msg 538 386 \$1 50;
#X obj 537 421 line~;
#X obj 322 591 *~;
#X obj 323 632 *~ 0.1;
#X obj 366 414 * 200;
#X obj 448 511 osc~;
#X obj 367 476 sig~;
#X obj 321 523 +~;
#X obj 471 440 + 8;
#X obj 447 481 *;
#X obj 444 591 *~ 1000;
#X obj 448 549 samphold~;
#X obj 502 497 phasor~ 5000;
#X msg 159 35 buffer 1 \, dimen 600 600 \, create \, 1;
#X connect 1 0 0 0;
#X connect 2 0 3 0;
#X connect 2 0 7 0;
#X connect 2 0 39 0;
#X connect 2 1 4 0;
#X connect 2 1 7 0;
#X connect 2 1 43 0;
#X connect 2 2 8 1;
#X connect 2 2 21 0;
#X connect 2 2 35 0;
#X connect 2 4 9 0;
#X connect 3 0 13 0;
#X connect 3 0 22 0;
#X connect 4 0 5 0;
#X connect 5 0 14 0;
#X connect 5 0 23 0;
#X connect 6 0 20 0;
#X connect 7 0 8 0;
#X connect 8 0 6 0;
#X connect 9 0 19 0;
#X connect 11 0 10 1;
#X connect 12 0 10 2;
#X connect 13 0 11 0;
#X connect 14 0 13 0;
#X connect 14 1 13 1;
#X connect 15 0 12 0;
#X connect 16 0 15 0;
#X connect 16 1 15 1;
#X connect 17 0 10 0;
#X connect 18 0 17 0;
#X connect 19 0 0 0;
#X connect 20 0 10 0;
#X connect 21 0 30 0;
#X connect 22 0 15 0;
#X connect 23 0 16 0;
#X connect 24 0 25 0;
#X connect 25 0 31 0;
#X connect 26 0 27 0;
#X connect 27 0 31 1;
#X connect 28 0 29 0;
#X connect 29 0 31 2;
#X connect 30 0 24 0;
#X connect 30 1 26 0;
#X connect 30 2 28 0;
#X connect 31 0 20 1;
#X connect 32 0 41 0;
#X connect 32 0 44 0;
#X connect 33 0 37 0;
#X connect 35 0 36 0;
#X connect 36 0 37 1;
#X connect 37 0 38 0;
#X connect 38 0 34 0;
#X connect 38 0 34 1;
#X connect 39 0 32 0;
#X connect 40 0 46 0;
#X connect 41 0 42 0;
#X connect 42 0 33 0;
#X connect 43 0 44 1;
#X connect 44 0 40 0;
#X connect 45 0 42 1;
#X connect 46 0 45 0;
#X connect 47 0 46 1;
#X connect 48 0 0 0;
