#N canvas 448 28 833 483 10;
#X floatatom 27 -64 5 0 0 0 - - max_frame_num;
#X obj 27 -109 tgl 15 0 empty empty rec 17 7 0 13 -258113 -257985 -258113
0 1;
#X obj 272 -46 nbx 5 14 14 258 0 0 empty max_rcv out 0 -8 0 13 -257985
-258113 -258113 95 256;
#X obj 202 -47 nbx 5 14 0 14 0 0 empty min_rcv in 0 -8 0 13 -257985
-258113 -258113 13 256;
#X obj 175 -110 bng 15 250 50 0 empty empty send_in+out 17 7 0 13 -258113
-257985 -258113;
#N canvas 252 229 364 264 in_out 0;
#X floatatom 199 -80 5 0 0 1 last_image_recorded max_frame_num -;
#X obj 152 84 pack f f;
#X obj 199 -25 t f b f;
#X obj 27 1 + 1;
#X obj 152 3 - 1;
#X obj 15 48 - 1;
#X obj 125 -23 t f f;
#X obj 152 45 max 1;
#X msg 152 121 \; max_rcv range \$1 \$2;
#X obj 53 47 + 1;
#X obj 53 77 min;
#X obj 82 47 - 1;
#X obj 26 -23 t f f;
#X obj 53 98 max 0;
#X msg 16 122 \; min_rcv range 0 \$1;
#N canvas 364 110 270 165 message_in_out 0;
#X obj 16 105 f;
#X obj 113 104 f;
#X obj 113 133 s out;
#X obj 16 136 s in;
#X obj 16 9 inlet;
#X obj 101 9 inlet;
#X obj 58 34 t f f;
#X obj 101 34 t f f;
#X obj 58 9 inlet;
#X obj 157 133 outlet;
#X obj 202 132 outlet;
#X connect 0 0 3 0;
#X connect 1 0 2 0;
#X connect 4 0 1 0;
#X connect 4 0 0 0;
#X connect 5 0 7 0;
#X connect 6 0 9 0;
#X connect 6 1 0 1;
#X connect 7 0 10 0;
#X connect 7 1 1 1;
#X connect 8 0 6 0;
#X restore 26 -50 pd message_in_out;
#X obj 75 -81 inlet;
#X obj 125 -80 inlet;
#X obj 26 -82 inlet;
#X connect 0 0 2 0;
#X connect 1 0 8 0;
#X connect 2 0 11 0;
#X connect 2 1 1 0;
#X connect 2 2 1 1;
#X connect 3 0 1 0;
#X connect 4 0 7 0;
#X connect 5 0 14 0;
#X connect 6 0 5 0;
#X connect 6 1 4 0;
#X connect 7 0 1 0;
#X connect 9 0 10 0;
#X connect 10 0 13 0;
#X connect 11 0 10 1;
#X connect 12 0 3 0;
#X connect 12 1 9 0;
#X connect 13 0 14 0;
#X connect 15 0 12 0;
#X connect 15 1 6 0;
#X connect 16 0 15 1;
#X connect 17 0 15 2;
#X connect 18 0 15 0;
#X restore 177 -14 pd in_out;
#X obj 175 -86 t b b;
#X obj 32 126 gemwin;
#X msg 42 103 0 \, destroy;
#X msg 32 80 frame 12 \, dimen 400 300 \, create \, 1;
#X obj 390 142 pix_texture;
#X msg 415 86 open \$1;
#X obj 388 -69 gemhead 40;
#X obj 388 -40 translateXYZ 0 0 1;
#X obj 388 -109 tgl 15 0 pause empty play 18 7 0 13 -241291 -258113
-258113 1 1;
#X obj 390 165 rectangle 4 3;
#X obj 390 118 pix_film;
#X obj 474 -118 loadbang;
#X msg 474 -97 0;
#N canvas 673 342 208 225 compteur 0;
#X obj 42 9 inlet;
#X obj 41 192 outlet;
#X obj 74 125 f;
#X obj 105 125 + 1;
#X obj 111 23 r in;
#X obj 158 51 r out;
#X obj 93 87 f;
#X obj 88 56 t b f;
#X obj 148 126 sel 0;
#X connect 0 0 2 0;
#X connect 2 0 3 0;
#X connect 2 0 1 0;
#X connect 2 0 8 0;
#X connect 3 0 2 1;
#X connect 4 0 7 0;
#X connect 5 0 8 1;
#X connect 6 0 2 1;
#X connect 7 0 6 0;
#X connect 7 1 6 1;
#X connect 8 0 6 0;
#X restore 415 14 pd compteur;
#X obj 32 52 loadbang;
#X obj 388 -15 t a b;
#X text 25 -127 1//;
#X text 177 -127 2//;
#X text 369 -127 3//;
#X msg 85 -112 reset;
#X obj 415 38 makefilename /frames/frame%d-00000.jpg;
#N canvas 0 22 450 300 record 0;
#X msg 25 72 0;
#X msg 60 73 1;
#X obj 24 276 t b a;
#X obj 138 16 loadbang;
#X obj 24 181 pix_video;
#X obj 24 206 pix_texture;
#X obj 24 149 t a b;
#X obj 123 166 + 1;
#X msg 109 53 0;
#X obj 123 235 outlet;
#X obj 24 17 inlet;
#X obj 25 47 route 0 1;
#X obj 24 251 rectangle 4 3;
#X obj 25 104 gemhead 20;
#X obj 24 307 pix_write;
#X obj 92 165 f;
#X obj 232 19 inlet;
#X obj 24 125 translateXYZ 0 0 1;
#X obj 146 91 spigot;
#X msg 157 64 0;
#X obj 154 122 sel 0;
#X msg 199 62 1;
#X msg 202 249 file \$1 90;
#X obj 204 207 makefilename /frames/frame%d-;
#X msg 244 72 0;
#X connect 0 0 13 0;
#X connect 1 0 13 0;
#X connect 1 0 19 0;
#X connect 2 0 14 0;
#X connect 2 1 14 0;
#X connect 3 0 8 0;
#X connect 3 0 0 0;
#X connect 4 0 5 0;
#X connect 5 0 12 0;
#X connect 6 0 4 0;
#X connect 6 1 15 0;
#X connect 7 0 15 1;
#X connect 8 0 15 1;
#X connect 10 0 11 0;
#X connect 11 0 0 0;
#X connect 11 1 1 0;
#X connect 12 0 2 0;
#X connect 13 0 17 0;
#X connect 15 0 7 0;
#X connect 15 0 9 0;
#X connect 15 0 23 0;
#X connect 16 0 21 0;
#X connect 16 0 24 0;
#X connect 17 0 6 0;
#X connect 18 0 15 1;
#X connect 18 0 20 0;
#X connect 19 0 18 0;
#X connect 20 0 19 0;
#X connect 21 0 18 1;
#X connect 22 0 14 0;
#X connect 23 0 22 0;
#X connect 24 0 15 1;
#X connect 24 0 9 0;
#X restore 27 -87 pd record;
#X text 234 233 put at / and put a "frames" folder next to it....;
#X connect 1 0 27 0;
#X connect 2 0 5 2;
#X connect 3 0 5 1;
#X connect 4 0 6 0;
#X connect 6 0 5 0;
#X connect 6 1 2 0;
#X connect 6 1 3 0;
#X connect 8 0 7 0;
#X connect 9 0 7 0;
#X connect 10 0 15 0;
#X connect 11 0 16 0;
#X connect 12 0 13 0;
#X connect 13 0 21 0;
#X connect 14 0 12 0;
#X connect 16 0 10 0;
#X connect 17 0 18 0;
#X connect 18 0 12 0;
#X connect 19 0 26 0;
#X connect 20 0 9 0;
#X connect 21 0 16 0;
#X connect 21 1 19 0;
#X connect 25 0 27 1;
#X connect 26 0 11 0;
#X connect 27 0 0 0;
