#N canvas 642 22 787 572 10;
#X declare -path ../;
#X obj 45 463 fresh/vid.window;
#X obj 43 98 gemhead;
#X obj 43 283 pix_video;
#X obj 308 417 pix_texture;
#X obj 308 443 rectangle 5.5 4;
#X msg 520 313 print;
#X msg 490 81 vsync \$1;
#X floatatom 490 59 5 0 0 0 - - -;
#X msg 536 263 texdim0 \$1;
#X floatatom 536 240 5 0 0 0 - - -;
#X floatatom 505 105 5 0 0 0 - - -;
#X msg 505 126 resolution \$1;
#X floatatom 517 149 5 0 0 0 - - -;
#X msg 517 169 barsamount \$1;
#X floatatom 529 196 5 0 0 0 - - -;
#X msg 529 217 distortion \$1;
#X floatatom 476 16 5 0 0 0 - - -;
#X msg 476 37 hsync \$1;
#X obj 43 166 gemframebuffer;
#X obj 308 264 gemhead;
#X obj 43 357 pix_texture;
#X obj 43 381 rectangle 5.3 4;
#X obj 57 123 loadbang;
#X obj 43 213 translateXYZ 0 0 -4;
#X msg 57 143 dimen 640 480 \, rectangle 1;
#X obj 50 234 loadbang;
#X msg 50 255 dimen 640 480;
#X obj 124 189 s \$0-gfbtex-01;
#X obj 371 392 r \$0-gfbtex-01;
#X text 41 432 how does the tex0 and tex1 work?;
#X obj 44 489 declare -path ../;
#X obj 308 334 pix_shader AnalogGlitch 1;
#X msg 354 159 tex0 \$1;
#X msg 382 184 tex1 \$1;
#X obj 53 307 loadbang;
#X msg 53 329 texunit 0 \, rectangle 0;
#X msg 354 136 0;
#X obj 455 360 s \$0-default-ag;
#X obj 609 59 r \$0-default-ag;
#X msg 528 57;
#X msg 515 14;
#X msg 573 240 1;
#X msg 571 195 1;
#X msg 557 147 1;
#X msg 544 103 1;
#X connect 1 0 18 0;
#X connect 2 0 20 0;
#X connect 3 0 4 0;
#X connect 5 0 31 1;
#X connect 6 0 31 1;
#X connect 7 0 6 0;
#X connect 8 0 31 1;
#X connect 9 0 8 0;
#X connect 10 0 11 0;
#X connect 11 0 31 1;
#X connect 12 0 13 0;
#X connect 13 0 31 1;
#X connect 14 0 15 0;
#X connect 15 0 31 1;
#X connect 16 0 17 0;
#X connect 17 0 31 1;
#X connect 18 0 23 0;
#X connect 18 1 27 0;
#X connect 19 0 31 0;
#X connect 20 0 21 0;
#X connect 22 0 24 0;
#X connect 23 0 2 0;
#X connect 24 0 18 0;
#X connect 25 0 26 0;
#X connect 26 0 2 0;
#X connect 28 0 3 1;
#X connect 31 0 3 0;
#X connect 31 1 37 0;
#X connect 32 0 31 1;
#X connect 33 0 31 1;
#X connect 34 0 35 0;
#X connect 35 0 20 0;
#X connect 36 0 32 0;
#X connect 38 0 44 0;
#X connect 38 0 43 0;
#X connect 38 0 42 0;
#X connect 38 0 41 0;
#X connect 39 0 6 0;
#X connect 40 0 17 0;
#X connect 41 0 8 0;
#X connect 42 0 15 0;
#X connect 43 0 13 0;
#X connect 44 0 11 0;
