#N canvas 180 82 814 583 12;
#N canvas 0 0 450 300 paint 0;
#X restore 139 133 pd paint;
#X obj 671 108 s pd-paint;
#X msg 671 82 clear;
#X obj 600 165 pointer;
#X msg 558 172 100;
#N canvas 378 384 616 289 grob-07 0;
#X text 24 47 This defines a data structure named "grob" \, which holds
a float called "number".;
#X obj 102 222 drawnumber number;
#X text 32 163 The "number" float (it can also be called another name
of course) can be painted with: drawnumber.;
#X obj 101 117 struct grob-07 float number;
#X restore 248 133 pd grob-07;
#X obj 559 197 append grob-07 number;
#X text 53 18 What more can I do with a pointer?;
#X msg 558 47 bang;
#X obj 558 76 t b b b b;
#X obj 558 23 loadbang;
#X text 38 87 Once you have created the structure \, you can get and
set the fields through pointers \, too.;
#X msg 587 135 traverse pd-paint \, bang;
#X text 42 225 As it's the only object in our paint area \, we can
get a pointer to it by using this construction:;
#X obj 112 303 pointer;
#X msg 112 275 traverse pd-paint \, next;
#X obj 108 430 pointer;
#X obj 108 457 get grob-07 number;
#X floatatom 108 482 5 0 0 0 - - -;
#X text 636 50 Initialization;
#X msg 108 405 traverse pd-paint \, next;
#X text 41 518 Try to change the number in "pd paint" with the mouse
\, then "traverse \, next" it again.;
#X text 38 164 The pd paint area is now filled with our grob-07 object
\, which has a float field called "number".;
#X text 46 335 This goes to the HEAD \, then selects a pointer to the
next object \, which is sent to the outlet. Now the "get" object will
extract "number" from the object \, our pointer points \, to \, using
this:;
#X connect 2 0 1 0;
#X connect 3 0 6 1;
#X connect 4 0 6 0;
#X connect 8 0 9 0;
#X connect 9 0 4 0;
#X connect 9 2 12 0;
#X connect 9 3 2 0;
#X connect 10 0 8 0;
#X connect 12 0 3 0;
#X connect 15 0 14 0;
#X connect 16 0 17 0;
#X connect 17 0 18 0;
#X connect 20 0 16 0;
