#N canvas 675 35 385 567 10;
#X obj 26 305 pix_mean_color;
#X obj 107 329 unpack 0 0 0 0;
#X obj 16 152 gemhead;
#X msg 41 79 open blue.jpg;
#X obj 26 370 pix_texture;
#X obj 26 393 square 4;
#X floatatom 107 353 5 0 0 0 - - -;
#X floatatom 144 353 5 0 0 0 - - -;
#X floatatom 183 354 5 0 0 0 - - -;
#X floatatom 248 325 5 0 0 0 - - -;
#X msg 49 102 open red.jpg;
#X msg 61 125 open green.jpg;
#X obj 107 458 osc~;
#X obj 107 492 *~ 0;
#X obj 152 488 *~ 0;
#X obj 209 489 *~ 0;
#X obj 209 459 phasor~;
#X obj 152 458 square~;
#X obj 152 541 dac~;
#X obj 107 383 expr ($f1*500)+100;
#X obj 148 407 expr ($f1*500)+100;
#X obj 209 433 expr ($f1*500)+100;
#X obj 248 352 * 0.2;
#X obj 138 234 tgl 30 0 empty empty change_source 17 -10 0 10 -262144
-1 -1 0 1;
#X obj 83 152 gemhead;
#X obj 26 282 pix_buf;
#X msg 48 259 auto 1;
#X obj 48 238 loadbang;
#X obj 16 208 spigot;
#X obj 83 208 spigot;
#X obj 138 272 t f f;
#X obj 165 295 invert;
#X obj 16 180 pix_image;
#X obj 281 252 loadbang;
#X msg 281 279 \; pd dsp 1;
#X obj 83 176 pix_sig2pix;
#X obj 174 71 random 4;
#X obj 174 95 sel 0 1 2 3;
#X obj 174 11 tgl 30 0 empty empty empty 17 7 0 10 -262144 -1 -1 1
1;
#X obj 170 145 line~;
#X obj 189 188 line~;
#X obj 221 142 line~;
#X obj 252 187 line~;
#X msg 170 125 1 \, 0 500;
#X msg 221 122 1 \, 0 500;
#X msg 189 168 1 \, 0 500;
#X msg 252 167 0 \, 1 500;
#X msg 322 166 0;
#X obj 174 47 metro 1000;
#X obj 249 491 fresh/vid.window;
#X connect 0 0 4 0;
#X connect 0 1 1 0;
#X connect 1 0 6 0;
#X connect 1 1 7 0;
#X connect 1 2 8 0;
#X connect 1 3 9 0;
#X connect 2 0 32 0;
#X connect 3 0 32 0;
#X connect 4 0 5 0;
#X connect 6 0 19 0;
#X connect 7 0 20 0;
#X connect 8 0 21 0;
#X connect 9 0 22 0;
#X connect 10 0 32 0;
#X connect 11 0 32 0;
#X connect 12 0 13 0;
#X connect 13 0 18 0;
#X connect 13 0 18 1;
#X connect 14 0 18 0;
#X connect 14 0 18 1;
#X connect 15 0 18 0;
#X connect 15 0 18 1;
#X connect 16 0 15 0;
#X connect 17 0 14 0;
#X connect 19 0 12 0;
#X connect 20 0 17 0;
#X connect 21 0 16 0;
#X connect 22 0 13 1;
#X connect 22 0 14 1;
#X connect 22 0 15 1;
#X connect 23 0 30 0;
#X connect 24 0 35 0;
#X connect 25 0 0 0;
#X connect 26 0 25 0;
#X connect 27 0 26 0;
#X connect 28 0 25 0;
#X connect 29 0 25 0;
#X connect 30 0 28 1;
#X connect 30 1 31 0;
#X connect 31 0 29 1;
#X connect 32 0 28 0;
#X connect 33 0 34 0;
#X connect 35 0 29 0;
#X connect 36 0 37 0;
#X connect 37 0 43 0;
#X connect 37 1 45 0;
#X connect 37 2 44 0;
#X connect 37 3 46 0;
#X connect 38 0 48 0;
#X connect 39 0 35 0;
#X connect 40 0 35 1;
#X connect 41 0 35 2;
#X connect 42 0 35 3;
#X connect 43 0 39 0;
#X connect 44 0 41 0;
#X connect 45 0 40 0;
#X connect 46 0 42 0;
#X connect 47 0 42 0;
#X connect 48 0 36 0;
