#N canvas 532 415 748 546 10;
#X obj 77 117 gemwin;
#X msg 80 24 dimen 640 480;
#X msg 94 47 create \, 1;
#X msg 95 93 0 \, destroy;
#X msg 95 68 0 \, 1;
#X obj 69 148 tgl 15 0 empty empty empty 17 7 0 10 -262144 -1 -1 0
1;
#X obj 69 194 t a b;
#X obj 69 231 pix_video;
#X msg 139 179 mode NTSC;
#X floatatom 222 195 5 0 0 0 - - -;
#X msg 138 203 channel \$1;
#X obj 523 417 pix_write;
#X obj 536 343 bng 15 250 50 0 empty empty empty 17 7 0 10 -262144
-1 -1;
#X msg 351 20 allocate 620 480 20;
#X obj 342 139 pix_buffer depot 20;
#X obj 68 468 pix_texture;
#X obj 59 426 pix_buffer_write depot;
#X msg 196 376 0;
#X floatatom 643 302 5 0 0 0 - - -;
#X obj 519 320 pix_buffer_read depot;
#X msg 667 272 0;
#X obj 517 270 tgl 15 0 empty empty empty 17 7 0 10 -262144 -1 -1 0
1;
#X obj 518 289 gemhead;
#X obj 516 226 loadbang;
#X msg 516 247 0;
#X obj 69 502 rectangle 4 3;
#X obj 70 271 t a b;
#X obj 102 310 spigot;
#X obj 154 308 tgl 15 0 empty empty empty 17 7 0 10 -262144 -1 -1 0
1;
#X obj 146 253 bng 15 250 50 0 empty empty empty 17 7 0 10 -262144
-1 -1;
#X msg 158 285 1;
#X msg 191 285 0;
#X msg 133 330 0;
#X floatatom 175 400 5 0 0 0 - - -;
#X obj 115 354 f;
#X obj 122 377 moses 20;
#X obj 148 353 + 1;
#X obj 518 378 pix_texture;
#X obj 522 447 rectangle 4 3;
#X msg 615 390 file fan;
#X obj 69 171 gemhead;
#X msg 195 72 frame 30;
#X msg 625 224 0;
#X obj 607 248 f;
#X obj 640 247 + 1;
#X obj 601 224 bng 15 250 50 0 empty empty empty 17 7 0 10 -262144
-1 -1;
#X obj 604 269 t b f;
#X obj 294 180 tgl 15 0 empty empty empty 17 7 0 10 -262144 -1 -1 0
1;
#X obj 284 446 pix_texture;
#X obj 284 422 pix_buffer_write depot;
#X msg 421 372 0;
#X obj 284 470 rectangle 4 3;
#X obj 295 267 t a b;
#X obj 327 306 spigot;
#X obj 379 304 tgl 15 0 empty empty empty 17 7 0 10 -262144 -1 -1 0
1;
#X obj 371 249 bng 15 250 50 0 empty empty empty 17 7 0 10 -262144
-1 -1;
#X msg 383 281 1;
#X msg 416 281 0;
#X msg 358 326 0;
#X floatatom 400 396 5 0 0 0 - - -;
#X obj 340 350 f;
#X obj 347 373 moses 20;
#X obj 373 349 + 1;
#X obj 294 203 gemhead;
#X obj 294 227 pix_image;
#X msg 350 191 open black-640-480.tif;
#X msg 369 49 save fan0.tif 0;
#X obj 527 53 until;
#X obj 535 8 bng 15 250 50 0 empty empty empty 17 7 0 10 -262144 -1
-1;
#X obj 529 102 f;
#X obj 562 101 + 1;
#X obj 529 27 t b b;
#X obj 578 47 b;
#X obj 528 150 t f f;
#X obj 573 151 + 1;
#X obj 529 174 pack;
#X obj 370 97 print;
#X obj 529 125 moses 20;
#X msg 547 78 1;
#X msg 592 107 save fan\$2.tif \$1;
#X msg 177 232 dimen 640 480;
#X connect 1 0 0 0;
#X connect 2 0 0 0;
#X connect 3 0 0 0;
#X connect 4 0 0 0;
#X connect 5 0 40 0;
#X connect 6 0 7 0;
#X connect 7 0 26 0;
#X connect 8 0 7 0;
#X connect 9 0 10 0;
#X connect 10 0 7 0;
#X connect 11 0 38 0;
#X connect 12 0 11 0;
#X connect 13 0 14 0;
#X connect 15 0 25 0;
#X connect 16 0 15 0;
#X connect 17 0 33 0;
#X connect 18 0 19 1;
#X connect 19 0 37 0;
#X connect 20 0 18 0;
#X connect 21 0 22 0;
#X connect 22 0 19 0;
#X connect 23 0 24 0;
#X connect 24 0 21 0;
#X connect 26 0 16 0;
#X connect 26 1 27 0;
#X connect 27 0 34 0;
#X connect 28 0 27 1;
#X connect 29 0 30 0;
#X connect 29 0 32 0;
#X connect 30 0 28 0;
#X connect 31 0 28 0;
#X connect 32 0 34 1;
#X connect 33 0 16 1;
#X connect 34 0 36 0;
#X connect 34 0 35 0;
#X connect 35 0 33 0;
#X connect 35 1 31 0;
#X connect 36 0 34 1;
#X connect 37 0 11 0;
#X connect 39 0 11 0;
#X connect 40 0 6 0;
#X connect 41 0 0 0;
#X connect 42 0 43 1;
#X connect 43 0 44 0;
#X connect 43 0 46 0;
#X connect 44 0 43 1;
#X connect 45 0 43 0;
#X connect 46 0 12 0;
#X connect 46 1 18 0;
#X connect 47 0 63 0;
#X connect 48 0 51 0;
#X connect 49 0 48 0;
#X connect 50 0 59 0;
#X connect 52 0 49 0;
#X connect 52 1 53 0;
#X connect 53 0 60 0;
#X connect 54 0 53 1;
#X connect 55 0 56 0;
#X connect 55 0 58 0;
#X connect 56 0 54 0;
#X connect 57 0 54 0;
#X connect 58 0 60 1;
#X connect 59 0 49 1;
#X connect 60 0 62 0;
#X connect 60 0 61 0;
#X connect 61 0 59 0;
#X connect 61 1 57 0;
#X connect 62 0 60 1;
#X connect 63 0 64 0;
#X connect 64 0 52 0;
#X connect 65 0 64 0;
#X connect 66 0 76 0;
#X connect 66 0 14 0;
#X connect 67 0 69 0;
#X connect 68 0 71 0;
#X connect 69 0 70 0;
#X connect 69 0 77 0;
#X connect 70 0 69 1;
#X connect 71 0 67 0;
#X connect 71 1 78 0;
#X connect 71 1 66 0;
#X connect 72 0 67 1;
#X connect 73 0 75 0;
#X connect 73 1 74 0;
#X connect 74 0 75 1;
#X connect 75 0 79 0;
#X connect 77 0 73 0;
#X connect 77 1 72 0;
#X connect 78 0 69 1;
#X connect 79 0 76 0;
#X connect 79 0 14 0;
#X connect 80 0 7 0;
