#N canvas 677 61 455 657 10;
#X obj 30 472 pix_shader \$1;
#X obj 30 519 pix_texture;
#X obj 30 250 gemhead;
#X obj 39 209 loadbang;
#X msg 39 229 0;
#X obj 30 11 inlet;
#X obj 260 13 inlet;
#X obj 245 613 outlet;
#X obj 30 381 gemframebuffer;
#X obj 30 427 translateXYZ 0 0 -4;
#X obj 30 187 t b;
#X obj 30 158 route gem_state;
#X obj 117 183 s \$0-texunitnum;
#X obj 93 496 r \$0-texunitnum;
#X obj 116 230 s \$0-gemstate;
#X obj 254 566 r \$0-gemstate;
#X obj 329 72 s \$0-shadervars;
#X obj 105 450 r \$0-shadervars;
#X obj 111 404 s \$0-gemframenum;
#X obj 245 544 r \$0-gemframenum;
#X text 261 137 to do:;
#X obj 260 97 s \$0-bypass-bool;
#X obj 116 206 prepend gem_state;
#X obj 30 136 spigot 1;
#X obj 75 112 == 0;
#X obj 75 44 spigot;
#X obj 75 67 s \$0-bypass;
#X obj 75 90 r \$0-bypass-bool;
#X obj 261 588 r \$0-bypass;
#X obj 108 22 r \$0-bypass-bool;
#X obj 55 564 unpack f f f f;
#X obj 260 49 route bypass;
#X obj 55 542 r \$0-texunitnum;
#X obj 41 272 r \$0-texunitnum;
#X obj 41 294 unpack f f f f;
#X obj 68 316 change;
#X obj 113 316 change;
#X obj 68 337 pack f f;
#X msg 68 358 dimen \$1 \$2 \, rectangle 1;
#X obj 82 588 expr 4 * $f1 / $f2;
#X obj 30 611 rectangle 5.3333 4;
#X connect 0 0 1 0;
#X connect 1 0 40 0;
#X connect 2 0 8 0;
#X connect 3 0 4 0;
#X connect 4 0 2 0;
#X connect 5 0 23 0;
#X connect 5 0 25 0;
#X connect 6 0 31 0;
#X connect 8 0 9 0;
#X connect 8 1 18 0;
#X connect 9 0 0 0;
#X connect 10 0 2 0;
#X connect 11 0 10 0;
#X connect 11 0 22 0;
#X connect 11 1 12 0;
#X connect 13 0 1 1;
#X connect 15 0 7 0;
#X connect 17 0 0 1;
#X connect 19 0 7 0;
#X connect 22 0 14 0;
#X connect 23 0 11 0;
#X connect 24 0 23 1;
#X connect 25 0 26 0;
#X connect 27 0 24 0;
#X connect 28 0 7 0;
#X connect 29 0 25 1;
#X connect 30 1 39 0;
#X connect 30 2 39 1;
#X connect 31 0 21 0;
#X connect 31 1 16 0;
#X connect 32 0 30 0;
#X connect 33 0 34 0;
#X connect 34 1 35 0;
#X connect 34 2 36 0;
#X connect 35 0 37 0;
#X connect 36 0 37 1;
#X connect 37 0 38 0;
#X connect 38 0 8 0;
#X connect 39 0 40 1;
