#N canvas 659 60 711 745 10;
#X msg 373 293 print;
#X obj 532 51 fresh/vid.window;
#X obj 213 15 gemhead;
#X obj 215 135 pix_video;
#X obj 215 627 pix_texture;
#X obj 227 53 loadbang;
#X obj 215 494 route gem_state;
#X msg 349 229 exposure \$1;
#X floatatom 349 207 5 0 0 0 - - -;
#X msg 338 372 bypass \$1;
#X obj 338 350 tgl 15 0 empty empty empty 17 7 0 10 -262144 -1 -1 1
1;
#X msg 362 271 bypass \$1;
#X obj 362 251 tgl 15 0 empty empty empty 17 7 0 10 -262144 -1 -1 1
1;
#X obj 349 186 line;
#X obj 350 87 bng 15 250 50 0 empty empty empty 17 7 0 10 -262144 -1
-1;
#X obj 349 139 delay 100;
#X msg 349 162 0 100;
#X obj 215 651 rectangle 5.3333 4;
#X msg 338 117 0.75;
#X obj 349 541 unpack f f f f;
#X floatatom 349 621 5 0 0 0 - - -;
#X floatatom 376 602 5 0 0 0 - - -;
#X floatatom 403 582 5 0 0 0 - - -;
#X floatatom 430 562 5 0 0 0 - - -;
#X msg 227 75 dimen 640 480;
#X floatatom 301 627 5 0 0 0 - - -;
#X obj 215 319 pix_shaderwrap exposure;
#X obj 215 601 gemhead;
#X obj 226 558 loadbang;
#X msg 226 578 0;
#X obj 215 535 t b;
#X obj 215 164 pix_pix2shader;
#X obj 215 394 pix_shaderwrap invert;
#X msg 234 99 dimen 800 500;
#X connect 0 0 26 1;
#X connect 2 0 3 0;
#X connect 3 0 31 0;
#X connect 4 0 17 0;
#X connect 5 0 24 0;
#X connect 6 0 30 0;
#X connect 6 1 19 0;
#X connect 6 1 4 1;
#X connect 7 0 26 1;
#X connect 8 0 7 0;
#X connect 9 0 32 1;
#X connect 10 0 9 0;
#X connect 11 0 26 1;
#X connect 12 0 11 0;
#X connect 13 0 8 0;
#X connect 14 0 18 0;
#X connect 14 0 15 0;
#X connect 15 0 16 0;
#X connect 16 0 13 0;
#X connect 18 0 13 0;
#X connect 19 0 20 0;
#X connect 19 1 21 0;
#X connect 19 2 22 0;
#X connect 19 3 23 0;
#X connect 24 0 3 0;
#X connect 25 0 17 1;
#X connect 26 0 32 0;
#X connect 27 0 4 0;
#X connect 28 0 29 0;
#X connect 29 0 27 0;
#X connect 30 0 27 0;
#X connect 31 0 26 0;
#X connect 32 0 6 0;
#X connect 33 0 3 0;
