#N canvas 284 303 476 533 10;
#X obj 68 205 gemframebuffer;
#X obj 68 341 pix_texture;
#X obj 80 128 loadbang;
#X msg 90 175 dimen 640 480 \, rectangle 1;
#X obj 68 229 translateXYZ 0 0 -4;
#X obj 68 387 rectangle 5.3333 4;
#X msg 146 123 dimen 1024 1024;
#X floatatom 168 337 5 0 0 0 - - -;
#X obj 68 50 inlet;
#X obj 289 344 outlet;
#X obj 78 84 s \$0-gemstate;
#X obj 285 279 r \$0-gemstate;
#X text 245 45 maybe a pix_info in here?;
#X obj 297 119 pix_info . . . .;
#X floatatom 311 160 5 0 0 0 - - -;
#X floatatom 375 226 5 0 0 0 - - -;
#X obj 352 434 * 1440;
#X obj 352 457 / 900;
#X floatatom 362 488 5 0 0 0 - - -;
#X floatatom 363 385 5 0 0 0 - - -;
#X msg 80 152 dimen 800 800 \, rectangle 1;
#X msg 314 393 4;
#X connect 0 0 4 0;
#X connect 0 1 9 0;
#X connect 1 0 5 0;
#X connect 2 0 20 0;
#X connect 3 0 0 0;
#X connect 4 0 1 0;
#X connect 6 0 0 0;
#X connect 7 0 5 1;
#X connect 8 0 0 0;
#X connect 8 0 10 0;
#X connect 8 0 13 0;
#X connect 11 0 9 0;
#X connect 13 1 14 0;
#X connect 13 2 15 0;
#X connect 16 0 17 0;
#X connect 17 0 18 0;
#X connect 17 0 5 1;
#X connect 19 0 16 0;
#X connect 20 0 0 0;
#X connect 21 0 16 0;
