#N canvas 558 121 863 716 10;
#X obj 570 616 gemwin;
#X msg 570 552 reset \, dimen 640 480 \, create \, 1;
#X msg 587 575 0 \, destroy;
#X obj 24 176 pix_video;
#X msg 626 488 exposure \$1;
#X floatatom 626 414 5 0 0 0 - - -;
#X obj 626 437 / 100;
#X floatatom 653 463 5 0 0 0 - - -;
#X obj 626 511 s exposure[1].args;
#X obj 24 202 pix_texture;
#X msg 355 155 print;
#X obj 226 200 pix_texture;
#X obj 24 88 gemframebuffer;
#X obj 24 110 translateXYZ 0 0 -4;
#X obj 35 44 loadbang;
#X floatatom 116 90 5 0 0 0 - - -;
#X obj 24 22 gemhead;
#X obj 226 123 gemframebuffer;
#X obj 226 145 translateXYZ 0 0 -4;
#X floatatom 318 125 5 0 0 0 - - -;
#X msg 536 158 print;
#X obj 413 211 pix_texture;
#X obj 413 124 gemframebuffer;
#X obj 413 146 translateXYZ 0 0 -4;
#X floatatom 505 126 5 0 0 0 - - -;
#X obj 618 169 pix_texture;
#X obj 243 78 loadbang;
#X obj 430 78 loadbang;
#X floatatom 625 281 5 0 0 0 - - -;
#X floatatom 652 330 5 0 0 0 - - -;
#X obj 24 227 rectangle 5.5 4;
#X obj 618 224 rectangle 5.5 4;
#X obj 413 235 rectangle 5.5 4;
#X obj 226 222 rectangle 5.5 4;
#X obj 226 21 gemhead 5;
#X obj 413 19 gemhead 10;
#X obj 618 18 gemhead 15;
#X msg 32 153 dimen 640 480;
#X obj 32 131 loadbang;
#X msg 35 64 dimen 640 480 \, rectangle 1;
#X msg 243 98 dimen 640 480 \, rectangle 1;
#X msg 430 98 dimen 640 480 \, rectangle 1;
#X obj 87 252 unpack f f f f;
#X floatatom 87 273 5 0 0 0 - - -;
#X floatatom 121 273 5 0 0 0 - - -;
#X floatatom 157 273 5 0 0 0 - - -;
#X msg 709 56 print;
#X floatatom 237 394 5 0 0 0 - - -;
#X obj 251 417 / 100;
#X floatatom 264 443 5 0 0 0 - - -;
#X floatatom 40 398 5 0 0 0 - - -;
#X floatatom 67 447 5 0 0 0 - - -;
#X obj 668 247 unpack f f f f;
#X floatatom 668 268 5 0 0 0 - - -;
#X floatatom 702 268 5 0 0 0 - - -;
#X floatatom 738 268 5 0 0 0 - - -;
#X obj 625 378 s bloom[1].args;
#X msg 625 355 glowSize \$1;
#X floatatom 242 528 5 0 0 0 - - -;
#X obj 256 551 / 100;
#X floatatom 269 577 5 0 0 0 - - -;
#X floatatom 48 531 5 0 0 0 - - -;
#X floatatom 75 580 5 0 0 0 - - -;
#X floatatom 379 393 5 0 0 0 - - -;
#X obj 393 416 / 100;
#X floatatom 406 442 5 0 0 0 - - -;
#X floatatom 384 527 5 0 0 0 - - -;
#X obj 398 550 / 100;
#X floatatom 411 576 5 0 0 0 - - -;
#X obj 386 632 s crosshatch[1].args;
#X msg 386 601 invert \$1;
#X obj 381 498 s zoomblur[1].args;
#X msg 381 467 texdim0 \$1;
#X obj 226 177 pix_shader exposure 1;
#X obj 239 499 s ruttetra[1].args;
#X msg 239 468 amount \$1 \$2 \$3;
#X obj 296 412 pack f f f;
#X floatatom 311 358 5 0 0 0 - - -;
#X floatatom 364 361 5 0 0 0 - - -;
#X obj 413 184 pix_shader invert 1;
#X obj 43 499 s scanline[1].args;
#X msg 42 472 interlace \$1;
#X obj 51 636 s scanline[1].args;
#X msg 50 605 width \$1;
#X obj 618 89 pix_shader scanline 1;
#X obj 244 633 s scanline[1].args;
#X msg 244 602 mode \$1;
#X connect 1 0 0 0;
#X connect 2 0 0 0;
#X connect 3 0 9 0;
#X connect 4 0 8 0;
#X connect 5 0 6 0;
#X connect 6 0 7 0;
#X connect 6 0 4 0;
#X connect 9 0 30 0;
#X connect 9 1 42 0;
#X connect 10 0 73 1;
#X connect 11 0 33 0;
#X connect 12 0 13 0;
#X connect 12 1 15 0;
#X connect 12 1 11 1;
#X connect 13 0 3 0;
#X connect 14 0 39 0;
#X connect 16 0 12 0;
#X connect 17 0 18 0;
#X connect 17 1 19 0;
#X connect 17 1 21 1;
#X connect 18 0 73 0;
#X connect 20 0 79 1;
#X connect 21 0 32 0;
#X connect 22 0 23 0;
#X connect 22 1 24 0;
#X connect 22 1 25 1;
#X connect 23 0 79 0;
#X connect 25 0 31 0;
#X connect 25 1 52 0;
#X connect 26 0 40 0;
#X connect 27 0 41 0;
#X connect 28 0 57 0;
#X connect 34 0 17 0;
#X connect 35 0 22 0;
#X connect 36 0 84 0;
#X connect 37 0 3 0;
#X connect 38 0 37 0;
#X connect 39 0 12 0;
#X connect 40 0 17 0;
#X connect 41 0 22 0;
#X connect 42 0 43 0;
#X connect 42 1 44 0;
#X connect 42 2 45 0;
#X connect 46 0 84 1;
#X connect 47 0 76 0;
#X connect 48 0 49 0;
#X connect 48 0 75 0;
#X connect 50 0 81 0;
#X connect 52 0 53 0;
#X connect 52 1 54 0;
#X connect 52 2 55 0;
#X connect 57 0 56 0;
#X connect 58 0 86 0;
#X connect 59 0 60 0;
#X connect 59 0 86 0;
#X connect 61 0 83 0;
#X connect 63 0 72 0;
#X connect 64 0 65 0;
#X connect 64 0 72 0;
#X connect 66 0 70 0;
#X connect 67 0 68 0;
#X connect 67 0 70 0;
#X connect 70 0 69 0;
#X connect 72 0 71 0;
#X connect 73 0 11 0;
#X connect 75 0 74 0;
#X connect 76 0 75 0;
#X connect 77 0 76 1;
#X connect 78 0 76 2;
#X connect 79 0 21 0;
#X connect 81 0 80 0;
#X connect 83 0 82 0;
#X connect 84 0 25 0;
#X connect 86 0 85 0;
