#N canvas 766 74 629 602 10;
#X obj 19 19 inlet;
#X obj 19 415 glsl_program;
#X obj 147 321 pack 0 0;
#X obj 165 292 t b f;
#X obj 165 246 change;
#X obj 148 125 change;
#X msg 147 349 link \$1 \$2;
#X floatatom 165 270 2 0 0 1 ID - -;
#X floatatom 148 148 2 0 0 0 ID - -;
#X obj 19 207 glsl_fragment;
#X obj 19 93 glsl_vertex;
#X obj 19 544 outlet;
#X obj 240 119 inlet;
#X obj 239 54 symbol \$1;
#X text 61 19 Gemlist;
#X obj 239 26 loadbang;
#X obj 239 92 s \$0.filename;
#X obj 33 44 r \$0.filename;
#X obj 29 156 r \$0.filename;
#X obj 40 322 r \$1[\$2].args;
#X obj 240 146 s \$1[\$2].args;
#X obj 88 442 change;
#X obj 88 472 t b;
#X obj 88 499 outlet;
#X text 136 443 Shader is loaded;
#X obj 147 384 print [pix_shader];
#X text 241 209 This is a simple abstraction;
#X text 281 284 Arg 1 - filename;
#X text 312 308 This is going to look for;
#X text 314 327 /shader/filename/filename.vert;
#X text 314 344 /shader/filename/filename.frag;
#X text 279 370 Arg 2 - istance id;
#X text 311 394 Make sure to use different ID;
#X text 312 411 when using the same shader twice;
#N canvas 357 122 419 345 more 0;
#X text 16 157 /shader/bokeh/bokeh.frag <- Fragment Shader;
#X text 16 175 /shader/bokeh/bokeh.vert <- Vertex Shader;
#X text 17 204 From now on you can send parameters by using;
#X obj 20 230 s bokeh[1].args;
#X obj 17 62 s filename[istance_id].args;
#X text 13 20 After the object has been succesfully created you can
send variables to the shader:;
#X text 15 110 Let's say I create a [pix_shader bokeh 1];
#X text 15 128 this is going to look for;
#X text 19 276 A bang will be sent to the right outlet of [pix_shader]
when the shader is loaded. You can use this to load default values.
;
#X restore 300 249 pd more;
#X text 241 228 to load glsl shader in your;
#X text 241 248 PD patch;
#X text 277 446 cyrille - use framebufffer : render the image in a
framebuffer with a shader \, then draw the 1st framebuffer texture
in a 2nd framebuffer with a 2nd shader etc. it's quite easy \, and
hundred time faster than doing video computing in CPU.;
#X msg 29 178 open shaders/\$1/\$1.frag;
#X msg 33 66 open shaders/\$1/\$1.vert;
#X connect 0 0 10 0;
#X connect 1 0 11 0;
#X connect 1 1 21 0;
#X connect 2 0 6 0;
#X connect 3 0 2 0;
#X connect 3 1 2 1;
#X connect 4 0 7 0;
#X connect 5 0 8 0;
#X connect 6 0 1 0;
#X connect 6 0 25 0;
#X connect 7 0 3 0;
#X connect 8 0 2 0;
#X connect 9 0 1 0;
#X connect 9 1 4 0;
#X connect 10 0 9 0;
#X connect 10 1 5 0;
#X connect 12 0 20 0;
#X connect 13 0 16 0;
#X connect 15 0 13 0;
#X connect 17 0 39 0;
#X connect 18 0 38 0;
#X connect 19 0 1 0;
#X connect 21 0 22 0;
#X connect 22 0 23 0;
#X connect 38 0 9 0;
#X connect 39 0 10 0;
