#N canvas 475 31 1 1 10;
#X obj 58 65 inlet;
#X obj 57 356 outlet;
#X obj 241 180 bang;
#X msg 241 199 1;
#X obj 57 281 spigot;
#X msg 209 200 0;
#X text 40 469 (c) 2006 IOhannes m zmoelnig \, licensed under GnuGPL
v2.0;
#X obj 242 55 inlet reset;
#X text 48 12 [once]: better than [oneshot];
#X obj 180 233 int 1;
#X obj 57 199 trigger anything bang;
#X obj 57 307 trigger anything bang;
#X obj 180 327 f;
#X obj 210 326 + 1;
#X obj 180 348 mod \$1;
#X obj 180 388 sel \$1;
#X obj 242 83 route bang;
#X obj 180 367 + 1;
#X msg 195 306 0;
#X obj 299 106 t b b f f;
#X connect 0 0 10 0;
#X connect 2 0 3 0;
#X connect 3 0 9 1;
#X connect 4 0 11 0;
#X connect 5 0 9 1;
#X connect 7 0 16 0;
#X connect 9 0 4 1;
#X connect 10 0 4 0;
#X connect 10 1 9 0;
#X connect 11 0 1 0;
#X connect 11 1 12 0;
#X connect 12 0 13 0;
#X connect 12 0 14 0;
#X connect 13 0 12 1;
#X connect 14 0 17 0;
#X connect 15 0 5 0;
#X connect 15 0 18 0;
#X connect 16 0 2 0;
#X connect 16 1 19 0;
#X connect 17 0 15 0;
#X connect 18 0 12 1;
#X connect 19 0 2 0;
#X connect 19 1 18 0;
#X connect 19 2 14 1;
#X connect 19 3 15 1;
