#N canvas 271 22 416 729 10;
#X obj 42 558 outlet abs path;
#X obj 42 536 symbol;
#X text 39 -113 takes an abs or rel path to a filename and spits out
an absolute path;
#X obj 42 -50 zexy/list2symbol;
#X obj 230 384 f;
#X obj 269 383 + 1;
#X msg 306 355 0;
#X obj 42 396 list split;
#X obj 99 353 list length;
#X obj 99 375 -;
#X obj 42 297 t a a;
#X obj 42 440 makefilename /%s;
#X obj 203 271 t a b;
#X obj 230 361 select ..;
#X obj 42 465 pack s s;
#X obj 203 418 list split;
#X obj 203 316 t a a;
#X obj 42 203 t b a;
#X obj 230 339 list-abs/list-drip;
#X obj 42 488 iemlib/mergefilename /;
#X obj 203 294 zexy/symbol2list /;
#X obj 231 440 zexy/list2symbol /;
#X obj 42 418 zexy/list2symbol /;
#X obj 42 274 zexy/symbol2list /;
#X obj 42 251 ggee/getdir 10;
#X msg 159 154 1;
#X msg 81 155 0;
#X obj 42 -27 t a a b;
#X obj 159 13 list trim;
#X msg 252 34 symbol;
#X obj 159 35 symbol;
#X obj 159 129 sel /;
#X obj 159 81 list split 2;
#X obj 159 103 list split 1;
#X obj 252 13 loadbang;
#X obj 197 129 sel :;
#X obj 42 180 zexy/demultiplex 0 1;
#X obj 159 58 zexy/symbol2list;
#X obj 42 -75 inlet;
#X obj 159 203 s \$0-demux01;
#X obj 52 511 r \$0-demux01;
#X text 220 559 (c)2012 \, megrimm;
#X connect 1 0 0 0;
#X connect 3 0 27 0;
#X connect 4 0 5 0;
#X connect 4 0 15 1;
#X connect 4 0 9 1;
#X connect 5 0 4 1;
#X connect 6 0 4 0;
#X connect 7 0 22 0;
#X connect 8 0 9 0;
#X connect 9 0 7 1;
#X connect 10 0 7 0;
#X connect 10 1 8 0;
#X connect 11 0 14 0;
#X connect 12 0 20 0;
#X connect 12 1 6 0;
#X connect 13 0 4 0;
#X connect 14 0 19 0;
#X connect 15 1 21 0;
#X connect 16 0 15 0;
#X connect 16 1 18 0;
#X connect 17 0 24 0;
#X connect 17 1 12 0;
#X connect 18 0 13 0;
#X connect 19 0 1 0;
#X connect 20 0 16 0;
#X connect 21 0 14 1;
#X connect 22 0 11 0;
#X connect 23 0 10 0;
#X connect 24 0 23 0;
#X connect 25 0 36 1;
#X connect 26 0 36 1;
#X connect 27 0 36 0;
#X connect 27 1 28 0;
#X connect 27 2 26 0;
#X connect 28 0 30 0;
#X connect 29 0 37 1;
#X connect 30 0 37 0;
#X connect 31 0 25 0;
#X connect 32 0 33 0;
#X connect 33 0 31 0;
#X connect 33 1 35 0;
#X connect 34 0 29 0;
#X connect 35 0 25 0;
#X connect 36 0 17 0;
#X connect 36 1 39 0;
#X connect 37 0 32 0;
#X connect 38 0 3 0;
#X connect 40 0 1 0;
