#N canvas 521 488 322 281 10;
#X obj 80 217 outlet;
#X obj 80 194 soundfiler;
#X obj 17 17 inlet;
#X msg 80 172 read -resize \$1 \$2-left \$2-right;
#X obj 152 126 + 1;
#X obj 80 99 t s b;
#X obj 125 125 f;
#X obj 80 151 pack s 0;
#X msg 140 102 0;
#X obj 17 44 route reset;
#X obj 17 67 s \$0-reset;
#X obj 140 78 r \$0-reset;
#X text 20 251 to do:;
#X connect 1 0 0 0;
#X connect 2 0 9 0;
#X connect 3 0 1 0;
#X connect 4 0 6 1;
#X connect 5 0 7 0;
#X connect 5 1 6 0;
#X connect 6 0 4 0;
#X connect 6 0 7 1;
#X connect 7 0 3 0;
#X connect 8 0 6 1;
#X connect 9 0 10 0;
#X connect 9 1 5 0;
#X connect 11 0 8 0;
