#N canvas 355 22 367 788 10;
#X obj 55 22 hcs/folder_list;
#X obj 55 -395 inlet;
#X obj 54 317 outlet;
#X obj 55 275 zexy/msgfile;
#X msg 55 98 add \$1;
#X msg 92 194 goto \$1 \, this;
#X msg 93 243 print;
#X msg 81 148 clear;
#X obj 55 -78 symbol;
#X obj 55 -56 route symbol;
#X obj 221 -399 inlet;
#X obj 124 95 f 0;
#X obj 154 95 + 1;
#X obj 124 72 t b;
#X msg 151 72 0;
#X obj 231 317 outlet;
#X obj 55 -33 t a b;
#X obj 137 -322 ggee/getdir 1;
#X obj 137 -301 cyclone/sprintf %s/*;
#X obj 178 -344 s \$0-fileprint;
#X obj 93 219 r \$0-fileprint;
#X obj 221 -367 s \$0-gotothis;
#X obj 92 171 r \$0-gotothis;
#X obj 82 -9 s \$0-clearmsg;
#X obj 81 124 r \$0-clearmsg;
#X obj 151 46 r \$0-clearmsg;
#X text 226 341 (c)2012 \, megrimm;
#X text 54 -422 get and store file and folder names;
#X obj 55 -229 route bang;
#X obj 55 -146 tof/folderpanel;
#X obj 137 -280 s \$0-getdir;
#X obj 68 -102 r \$0-getdir;
#X obj 112 -177 s \$0-getdir;
#X obj 55 -364 route open add getdir;
#X obj 96 -256 s \$0-addtopath;
#X obj 229 -226 r \$0-addtopath;
#X obj 55 -123 cyclone/sprintf %s/*;
#X obj 112 -203 cyclone/sprintf %s%s;
#X connect 0 0 4 0;
#X connect 0 0 13 0;
#X connect 1 0 33 0;
#X connect 3 0 2 0;
#X connect 4 0 3 0;
#X connect 5 0 3 0;
#X connect 6 0 3 0;
#X connect 7 0 3 0;
#X connect 8 0 9 0;
#X connect 9 0 16 0;
#X connect 10 0 21 0;
#X connect 11 0 12 0;
#X connect 12 0 15 0;
#X connect 12 0 11 1;
#X connect 13 0 11 0;
#X connect 14 0 11 1;
#X connect 16 0 0 0;
#X connect 16 1 23 0;
#X connect 17 0 18 0;
#X connect 18 0 30 0;
#X connect 20 0 6 0;
#X connect 22 0 5 0;
#X connect 24 0 7 0;
#X connect 25 0 14 0;
#X connect 28 0 29 0;
#X connect 28 1 37 0;
#X connect 29 0 36 0;
#X connect 31 0 8 0;
#X connect 33 0 28 0;
#X connect 33 1 34 0;
#X connect 33 2 17 0;
#X connect 33 3 19 0;
#X connect 35 0 37 1;
#X connect 36 0 8 0;
#X connect 37 0 32 0;
