#N canvas 632 90 450 300 10;
#X obj 63 258 print;
#X msg 76 103 test.mov;
#X msg 91 128 test.aif;
#X msg 156 164 jpg;
#X obj 63 216 file.swapext wav;
#X msg 165 186 test;
#X msg 63 77 test.jpeg;
#X text 61 15 swaps a file extention with another extention;
#X text 62 40 file extention MUST be 3 charecters long... for now;
#X text 136 75 <-- DOES NOT work;
#X text 138 103 <-- works;
#X text 152 125 <-- works;
#X connect 1 0 4 0;
#X connect 2 0 4 0;
#X connect 3 0 4 1;
#X connect 4 0 0 0;
#X connect 5 0 4 1;
#X connect 6 0 4 0;
