#N canvas 227 65 312 771 10;
#X obj 149 13 inlet;
#X obj 54 735 outlet;
#X msg 176 87 read \$1;
#X obj 75 684 textfile;
#X obj 54 635 select;
#X obj 54 329 random;
#X obj 54 444 until;
#X obj 54 564 f;
#X obj 88 563 + 1;
#X obj 54 16 inlet;
#X obj 54 235 t b b;
#X msg 81 261 rewind;
#X obj 54 376 t f f b;
#X obj 69 542 0;
#X obj 87 614 - 1;
#X obj 54 473 t b b;
#X obj 54 353 + 1;
#X obj 54 706 list;
#X obj 149 65 t a a;
#X obj 149 39 symbol;
#X msg 149 203 read \$1 \, rewind \, bang;
#X obj 149 267 textfile;
#X obj 149 334 t b b;
#X obj 157 246 del 5;
#X obj 176 360 f;
#X obj 176 383 + 1;
#X obj 160 427 f;
#X obj 191 335 0;
#X obj 149 133 symbol;
#X obj 149 157 t a b;
#X obj 73 420 s \$0-1;
#X obj 87 592 r \$0-1;
#X obj 93 398 s \$0-2;
#X obj 69 521 r \$0-2;
#X obj 81 497 s \$0-3;
#X obj 176 107 s \$0-3;
#X obj 81 285 s \$0-3;
#X obj 75 662 r \$0-3;
#X obj 176 181 s \$0-4;
#X obj 191 313 r \$0-4;
#X obj 149 471 s \$0-5;
#X obj 157 224 r \$0-5;
#X obj 194 289 s \$0-6;
#X obj 160 405 r \$0-6;
#X obj 160 449 s \$0-7;
#X obj 87 308 r \$0-7;
#X text 137 736 (c)2012 \, megrimm;
#X connect 0 0 19 0;
#X connect 2 0 35 0;
#X connect 3 0 17 1;
#X connect 4 0 17 0;
#X connect 5 0 16 0;
#X connect 6 0 15 0;
#X connect 7 0 8 0;
#X connect 7 0 4 0;
#X connect 8 0 7 1;
#X connect 9 0 10 0;
#X connect 10 0 5 0;
#X connect 10 1 11 0;
#X connect 11 0 36 0;
#X connect 12 0 6 0;
#X connect 12 1 30 0;
#X connect 12 2 32 0;
#X connect 13 0 7 1;
#X connect 14 0 4 1;
#X connect 15 0 7 0;
#X connect 15 1 34 0;
#X connect 16 0 12 0;
#X connect 17 0 1 0;
#X connect 18 0 28 0;
#X connect 18 1 2 0;
#X connect 19 0 18 0;
#X connect 20 0 21 0;
#X connect 21 0 22 0;
#X connect 21 1 42 0;
#X connect 22 0 40 0;
#X connect 22 1 24 0;
#X connect 23 0 21 0;
#X connect 24 0 25 0;
#X connect 25 0 24 1;
#X connect 25 0 26 1;
#X connect 26 0 44 0;
#X connect 27 0 24 1;
#X connect 28 0 29 0;
#X connect 29 0 20 0;
#X connect 29 1 38 0;
#X connect 31 0 14 0;
#X connect 33 0 13 0;
#X connect 37 0 3 0;
#X connect 39 0 27 0;
#X connect 41 0 23 0;
#X connect 43 0 26 0;
#X connect 45 0 5 1;
