#N canvas 535 22 328 302 10;
#X obj 70 93 stripfilename -3;
#X obj 70 56 symbol;
#X msg 70 208 \$2\$3;
#X obj 70 145 t b a;
#X obj 70 26 inlet;
#X obj 70 239 outlet;
#X obj 70 179 pack 0 s s;
#X obj 202 96 symbol \$1;
#X obj 219 65 loadbang;
#X obj 202 27 inlet;
#X connect 0 0 3 0;
#X connect 1 0 0 0;
#X connect 2 0 5 0;
#X connect 3 0 6 0;
#X connect 3 1 6 1;
#X connect 4 0 1 0;
#X connect 6 0 2 0;
#X connect 7 0 6 2;
#X connect 8 0 7 0;
#X connect 9 0 7 0;
