#N canvas 520 22 580 356 10;
#X msg 71 247 set \$1;
#X msg 71 269 first\\\,;
#X obj 70 45 bng 15 250 50 0 empty empty empty 17 7 0 10 -262144 -1
-1;
#X obj 157 87 loadbang;
#X obj 70 145 file.randomline;
#X symbolatom 90 198 25 0 0 0 - - -, f 25;
#X obj 90 173 l2s;
#X text 218 264 <-- This works for filenames;
#X text 260 195 <-- This is for symbols with spaces;
#X msg 157 115 file.randomline.txt;
#X text 288 113 <-- Load a text file;
#X text 95 41 <-- Bang to output a random line;
#X text 284 211 (use "forwardslash" \, in textfile to use comma);
#X obj 31 188 print;
#X obj 24 166 list trim;
#X connect 0 0 1 0;
#X connect 2 0 4 0;
#X connect 3 0 9 0;
#X connect 4 0 0 0;
#X connect 4 0 6 0;
#X connect 4 0 14 0;
#X connect 6 0 5 0;
#X connect 9 0 4 1;
#X connect 14 0 13 0;
