#N canvas 632 90 568 387 10;
#X obj 63 310 print;
#X msg 76 103 test.mov;
#X msg 91 128 test.aif;
#X msg 63 77 test.jpeg;
#X text 61 15 swaps a file extention with another extention;
#X text 62 40 file extention MUST be 3 charecters long... for now;
#X text 136 75 <-- DOES NOT work;
#X text 138 103 <-- works;
#X text 152 125 <-- works;
#X msg 181 186 ext test;
#X msg 200 228 length \$1;
#X text 273 225 <-- length of extention to remove;
#X floatatom 200 209 5 0 0 0 - - -, f 5;
#X obj 63 268 file.extswap wav;
#X msg 172 164 ext jpg;
#X connect 1 0 13 0;
#X connect 2 0 13 0;
#X connect 3 0 13 0;
#X connect 9 0 13 1;
#X connect 10 0 13 1;
#X connect 12 0 10 0;
#X connect 13 0 0 0;
#X connect 14 0 13 1;
