#N canvas 455 89 354 293 10;
#X obj 31 235 print RELATIVE;
#X obj 94 209 print ABSOLUTE;
#X msg 97 117 lalal/dsd/gg;
#X msg 31 27 /usr/home/fdjd/dfdf.wav;
#X msg 62 60 D:/sad/fhfi.pd;
#X text 10 -8 rc-pathtype: determines absolute or relative path;
#X text 191 128 relative;
#X text 187 46 absolute;
#X text 153 243 Dan Wilcox 2009;
#X text 151 256 robotcowboy.com|danomatika.com;
#X msg 109 141 ../../kaa;
#X obj 31 180 file.pathtype;
#X connect 2 0 11 0;
#X connect 3 0 11 0;
#X connect 4 0 11 0;
#X connect 10 0 11 0;
#X connect 11 0 0 0;
#X connect 11 1 1 0;
