#N canvas 544 52 463 563 10;
#X obj 105 102 loadbang;
#X obj 36 498 dac~;
#X obj 33 44 readsf~;
#X text 203 17 <-- play;
#X msg 292 40 \; pd dsp 1 \;;
#X obj 292 19 loadbang;
#X msg 33 19 open _samples/snare.wav \, 1;
#X msg 114 182 dry \$1;
#X msg 122 221 bq \$1;
#X msg 130 260 basedur \$1;
#X msg 140 299 bpitch \$1;
#X msg 150 339 feedback \$1;
#X msg 157 377 dell \$1;
#X msg 165 418 delr \$1;
#X text 204 398 <-- delay divisor right.;
#X text 194 359 <-- delay divisor left.;
#X text 191 319 <-- delay feedback;
#X floatatom 114 165 5 0 100 0 - - -, f 5;
#X text 153 165 <-- wet (0) to dry (100);
#X floatatom 122 204 5 0 100 0 - - -, f 5;
#X floatatom 140 283 5 0 0 0 - - -, f 5;
#X text 158 203 <-- bandpass Q: resonance (0-100);
#X text 175 281 <-- bandpass pitch (0-100);
#X floatatom 150 322 5 0 100 0 - - -, f 5;
#X floatatom 130 244 5 0 0 0 - - -, f 5;
#X text 163 241 <-- base duration for delays in millisecs;
#X floatatom 157 361 5 0 0 0 - - -, f 5;
#X floatatom 165 400 5 0 0 0 - - -, f 5;
#X obj 36 456 fx.delaydub~;
#N canvas 0 23 450 300 presets 0;
#X msg 40 144 dry 20 \, bq 50 \, basedur 1500 \, bpitch 83 \, feedback
0.99 \, dell 20 \, delr 30 \,;
#X obj 40 257 outlet;
#X obj 48 39 sel 0 1 2 3 4 5;
#X obj 75 14 inlet;
#X msg 62 103 dry 20 \, bq 50 \, basedur 350 \, bpitch 30 \, feedback
90 \, dell 20 \, delr 30 \,;
#X connect 0 0 1 0;
#X connect 2 0 0 0;
#X connect 2 1 4 0;
#X connect 3 0 2 0;
#X connect 4 0 1 0;
#X restore 105 144 pd presets;
#X obj 105 124 hradio 15 1 0 8 empty empty empty 0 -8 0 10 -262144
-1 -1 1;
#X obj 72 67 del 300;
#X floatatom 111 49 5 0 0 0 - - -, f 5;
#X connect 0 0 30 0;
#X connect 2 0 28 0;
#X connect 2 0 28 1;
#X connect 2 1 31 0;
#X connect 5 0 4 0;
#X connect 6 0 2 0;
#X connect 7 0 28 2;
#X connect 8 0 28 2;
#X connect 9 0 28 2;
#X connect 10 0 28 2;
#X connect 11 0 28 2;
#X connect 12 0 28 2;
#X connect 13 0 28 2;
#X connect 17 0 7 0;
#X connect 19 0 8 0;
#X connect 20 0 10 0;
#X connect 23 0 11 0;
#X connect 24 0 9 0;
#X connect 26 0 12 0;
#X connect 27 0 13 0;
#X connect 28 0 1 0;
#X connect 28 1 1 1;
#X connect 29 0 28 2;
#X connect 30 0 29 0;
#X connect 31 0 6 0;
#X connect 32 0 31 1;
