#N canvas 110 69 382 315 10;
#X obj 138 69 inlet;
#X obj 40 247 outlet~;
#X obj 100 247 outlet~;
#X obj 40 68 inlet~;
#X text 185 65 amount to shift freq in Hz.;
#X obj 87 69 inlet~;
#X text 35 21 complex signal mixer for SDR;
#X text 61 45 signal in;
#X obj 40 199 *~;
#X obj 68 197 *~;
#X obj 100 198 *~;
#X obj 130 197 *~;
#X obj 40 222 -~;
#X obj 100 223 +~;
#X obj 138 140 cos~;
#X obj 175 140 cos~;
#X obj 138 91 phasor~;
#X obj 175 118 +~ 0.25;
#X connect 0 0 16 0;
#X connect 3 0 8 0;
#X connect 3 0 11 1;
#X connect 5 0 10 1;
#X connect 5 0 9 0;
#X connect 8 0 12 0;
#X connect 9 0 12 1;
#X connect 10 0 13 0;
#X connect 11 0 13 1;
#X connect 12 0 1 0;
#X connect 13 0 2 0;
#X connect 14 0 10 0;
#X connect 14 0 8 1;
#X connect 15 0 11 0;
#X connect 15 0 9 1;
#X connect 16 0 14 0;
#X connect 16 0 17 0;
#X connect 17 0 15 0;
