#N canvas 832 48 515 795 10;
#X obj 29 682 vcf~ 2;
#X obj 170 416 r \$0-bpm;
#X obj 233 286 int;
#X obj 233 306 change -100;
#X obj 170 488 *;
#X obj 233 396 f;
#X msg 393 356 4;
#X obj 233 266 * 5.99;
#X obj 233 326 sel 0 1 2 3 4 5;
#X obj 170 458 / 60;
#X obj 170 437 f;
#X msg 313 356 2;
#X msg 353 356 3;
#X msg 233 356 1;
#X msg 273 356 1.5;
#X obj 66 478 f;
#X obj 37 416 spigot 1;
#X obj 170 508 change -100;
#X obj 170 529 t f b;
#X msg 138 416 1;
#X msg 106 416 0;
#X obj 37 311 r \$0-tick;
#X obj 37 332 mod 8;
#X obj 37 353 / 2;
#X obj 37 374 int;
#X obj 37 396 * 0.25;
#X obj 233 416 t b b b f;
#X obj 66 499 phasor~;
#X obj 66 520 *~ 2;
#X obj 60 550 max~ 1;
#X obj 110 551 min~ 1;
#X obj 48 456 sig~ 1;
#X obj 45 573 -~;
#X obj 45 594 *~ 2;
#X obj 45 615 -~ 1;
#X obj 45 636 *~ 490;
#X obj 45 657 +~ 490;
#X obj 37 436 t b b;
#X msg 447 363 5;
#X msg 196 353 0.5;
#X msg 161 360 0.25;
#X msg 143 327 0;
#X obj 29 724 outlet~;
#X obj 234 11 inlet;
#X obj 234 35 route bpm glide tone wobble;
#X obj 165 13 inlet;
#X obj 24 17 inlet~;
#X obj 253 82 s \$0-bpm;
#X connect 0 0 42 0;
#X connect 1 0 10 0;
#X connect 2 0 3 0;
#X connect 3 0 8 0;
#X connect 4 0 17 0;
#X connect 5 0 26 0;
#X connect 6 0 5 0;
#X connect 7 0 2 0;
#X connect 8 0 13 0;
#X connect 8 1 14 0;
#X connect 8 2 11 0;
#X connect 8 3 12 0;
#X connect 8 4 6 0;
#X connect 9 0 4 0;
#X connect 10 0 9 0;
#X connect 11 0 5 0;
#X connect 12 0 5 0;
#X connect 13 0 5 0;
#X connect 14 0 5 0;
#X connect 15 0 27 0;
#X connect 16 0 37 0;
#X connect 17 0 18 0;
#X connect 18 0 15 1;
#X connect 18 1 19 0;
#X connect 19 0 16 1;
#X connect 20 0 16 1;
#X connect 21 0 22 0;
#X connect 22 0 23 0;
#X connect 23 0 24 0;
#X connect 24 0 25 0;
#X connect 25 0 16 0;
#X connect 26 2 4 0;
#X connect 26 3 4 1;
#X connect 27 0 28 0;
#X connect 28 0 29 0;
#X connect 28 0 30 0;
#X connect 29 0 32 1;
#X connect 30 0 33 0;
#X connect 31 0 32 0;
#X connect 32 0 33 0;
#X connect 33 0 34 0;
#X connect 34 0 35 0;
#X connect 35 0 36 0;
#X connect 36 0 0 1;
#X connect 37 0 20 0;
#X connect 37 1 15 0;
#X connect 38 0 5 0;
#X connect 39 0 5 0;
#X connect 40 0 5 0;
#X connect 41 0 5 0;
#X connect 43 0 44 0;
#X connect 44 0 10 0;
#X connect 44 3 7 0;
#X connect 45 0 22 0;
#X connect 46 0 0 0;
