#N canvas 0 23 450 300 10;
#X obj 217 200 unpack f f f;
#X floatatom 216 253 5 0 0 0 - - -, f 5;
#X floatatom 273 252 5 0 0 0 - - -, f 5;
#X floatatom 327 254 5 0 0 0 - - -, f 5;
#X floatatom 303 91 5 0 0 0 - - -, f 5;
#X msg 201 47 10 20 30;
#X msg 233 81 0 10 20;
#X obj 210 144 lin.triple;
#X connect 0 0 1 0;
#X connect 0 1 2 0;
#X connect 0 2 3 0;
#X connect 4 0 7 1;
#X connect 5 0 7 0;
#X connect 6 0 7 0;
#X connect 7 0 0 0;
