#N canvas 18 34 468 386 10;
#X obj 149 81 inlet;
#X obj 149 113 unpack f f f;
#X obj 149 206 line;
#X obj 209 205 line;
#X obj 268 205 line;
#X obj 173 271 pack f f f;
#X obj 149 184 pack f f;
#X obj 209 184 pack f f;
#X obj 268 184 pack f f;
#X obj 332 100 f \$1;
#X obj 349 68 loadbang;
#X obj 334 45 inlet;
#X obj 172 311 outlet;
#X connect 0 0 1 0;
#X connect 1 0 6 0;
#X connect 1 1 7 0;
#X connect 1 2 8 0;
#X connect 2 0 5 0;
#X connect 3 0 5 1;
#X connect 4 0 5 2;
#X connect 5 0 12 0;
#X connect 6 0 2 0;
#X connect 7 0 3 0;
#X connect 8 0 4 0;
#X connect 9 0 8 1;
#X connect 9 0 7 1;
#X connect 9 0 6 1;
#X connect 10 0 9 0;
#X connect 11 0 9 0;
