#N canvas 614 461 391 228 10;
#X obj 82 131 print;
#X floatatom 82 33 5 0 0 0 - - -, f 5;
#X obj 187 62 bng 15 250 50 0 empty empty empty 17 7 0 10 -262144 -1
-1;
#X text 216 63 send and reset;
#X obj 82 94 lst.collection;
#X connect 1 0 4 0;
#X connect 2 0 4 1;
#X connect 4 0 0 0;
