#N canvas 607 397 616 404 10;
#X obj 144 304 print;
#X text 106 12 find and replace a single charecter with a string;
#X msg 226 92 find t;
#X msg 268 182 replace butter;
#X msg 243 115 find <;
#X msg 256 139 find &;
#X text 244 280 right now only a single charecter can be replaced with
a multi-char or single;
#X text 312 115 <-- find symbol;
#X text 371 195 <--- replace found symbol with;
#X msg 278 205 replace $v1;
#X msg 144 44 t<<6&t<<%t;
#X obj 144 238 lst.replace;
#X connect 2 0 11 1;
#X connect 3 0 11 1;
#X connect 4 0 11 1;
#X connect 5 0 11 1;
#X connect 9 0 11 1;
#X connect 10 0 11 0;
#X connect 11 0 0 0;
