#N canvas 426 226 450 300 10;
#X floatatom 227 73 5 0 0 0 - - -, f 5;
#X obj 227 99 symbol;
#X floatatom 245 221 5 0 0 0 - - -, f 5;
#X obj 227 171 lst.s2f;
#X msg 296 55 400;
#X obj 342 155 print;
#X symbolatom 337 98 10 0 0 0 - - -, f 10;
#X connect 0 0 1 0;
#X connect 1 0 3 0;
#X connect 1 0 5 0;
#X connect 3 0 2 0;
#X connect 4 0 1 0;
#X connect 6 0 3 0;
