#N canvas 589 304 407 292 10;
#X obj 148 186 list split 1;
#X obj 148 161 list append;
#X obj 148 237 outlet;
#X obj 148 37 inlet;
#X obj 229 237 outlet;
#X obj 222 35 inlet;
#X obj 148 72 b;
#X text 265 36 list;
#X text 103 37 bang;
#X text 273 237 EOL;
#X text 89 236 element;
#X obj 229 207 b;
#X obj 222 86 route clear;
#X obj 184 127 t b b;
#X connect 0 0 2 0;
#X connect 0 1 1 1;
#X connect 0 2 11 0;
#X connect 1 0 0 0;
#X connect 3 0 6 0;
#X connect 5 0 12 0;
#X connect 6 0 1 0;
#X connect 11 0 4 0;
#X connect 12 0 13 0;
#X connect 12 1 1 1;
#X connect 13 0 1 0;
#X connect 13 1 1 1;
