#N canvas 0 23 411 285 10;
#X obj 57 38 inlet;
#X obj 57 196 outlet;
#X msg 282 90 440;
#X obj 282 68 loadbang;
#X obj 57 121 expr (pow(2 \, (($f1 - 69)/12))) * $f2;
#X obj 270 28 inlet;
#X text 60 232 megrimm 2016;
#X connect 0 0 4 0;
#X connect 2 0 4 1;
#X connect 3 0 2 0;
#X connect 4 0 1 0;
#X connect 5 0 4 1;
