#N canvas 525 74 745 398 10;
#X obj 303 148 list trim;
#X obj 303 174 route noteon noteoff;
#X obj 263 118 list split 1;
#X text 362 116 split off channel. Alternatively use [route <channelnum>]
;
#X obj 371 204 print NOTEOFF;
#X msg 322 205 \$1 0;
#X obj 303 251 outlet;
#X obj 67 101 list trim;
#X obj 67 127 route noteon noteoff;
#X obj 135 157 print NOTEOFF;
#X msg 86 158 \$1 0;
#X obj 67 36 inlet;
#X obj 67 204 outlet;
#X obj 67 65 route \$1;
#X obj 154 35 inlet;
#X connect 0 0 1 0;
#X connect 1 0 6 0;
#X connect 1 1 5 0;
#X connect 2 1 0 0;
#X connect 5 0 6 0;
#X connect 7 0 8 0;
#X connect 8 0 12 0;
#X connect 8 1 10 0;
#X connect 10 0 12 0;
#X connect 11 0 13 0;
#X connect 13 0 7 0;
#X connect 13 1 2 0;
#X connect 14 0 13 1;
