#N canvas 351 23 927 701 10;
#X obj 25 67 midirealtimein;
#X obj 25 96 select 248 250 251 252;
#X obj 25 343 bng 15 250 50 0 empty empty empty 17 7 0 10 -262144 -1
-1;
#X obj 25 239 f;
#X obj 62 239 + 1;
#X text 181 21 Outputs values : 248 - midi clock 250 - midi clock start
251 - midi clock continue 252 - midi clock stop Clock events are at
a rate of 24 ppqn (pulses per quarter note). So there is 24*4=96 messages
for a beat.;
#X text 416 450 logic recieves osc on port 7000;
#X obj 346 454 loadbang;
#X msg 346 478 disconnect \, connect localhost 7000;
#X obj 337 406 list prepend send;
#X obj 337 428 list trim;
#X msg 337 325 Record;
#X obj 337 346 symbol;
#X msg 404 327 1;
#X obj 541 297 s pd;
#X obj 541 207 loadbang;
#X msg 541 275 midi-dialog 1 0 0 0 0 0 0 0 0 2 0 0 0 0 0 0 0 0 3 3
, f 53;
#X obj 25 263 mod 24;
#X obj 25 293 sel 0;
#X obj 296 247 print;
#X obj 333 224 print;
#X obj 420 253 noteout 1;
#X obj 286 184 notein 2;
#X obj 420 174 metro 500;
#X msg 432 137 1;
#X msg 458 125 0;
#X floatatom 264 258 5 0 0 0 - - -, f 5;
#X floatatom 359 253 5 0 0 0 - - -, f 5;
#X obj 89 158 print midi-clock-start;
#X obj 121 137 print midi-clock-stop;
#X obj 57 178 print midi-clock;
#X msg 420 200 80;
#X obj 420 225 makenote 80 100;
#X floatatom 336 571 5 0 0 0 - - -, f 5;
#X obj 336 548 netsend -u -b;
#X msg 354 506 disconnect;
#X obj 229 472 print;
#X text 748 456 logic recieves osc on port 7000;
#X obj 678 460 loadbang;
#X msg 678 484 disconnect \, connect localhost 7000;
#X obj 669 411 list prepend send;
#X obj 669 434 list trim;
#X msg 669 315 Record;
#X obj 669 336 symbol;
#X msg 736 317 1;
#X floatatom 668 577 5 0 0 0 - - -, f 5;
#X msg 686 512 disconnect;
#X obj 616 496 print;
#X obj 668 554 netsend -u;
#X obj 337 379 oscformat logic transport play;
#X msg 465 316 1;
#X obj 444 597 oscparse;
#X obj 478 667 print parsed;
#X obj 669 390 list tosymbol;
#X obj 669 369 oscformat transport play 1;
#X obj 400 353 oscformat;
#X obj 78 415 netreceive 53455;
#X obj 103 510 print netreceive;
#X connect 0 0 1 0;
#X connect 1 0 3 0;
#X connect 1 1 30 0;
#X connect 1 2 28 0;
#X connect 1 3 29 0;
#X connect 3 0 4 0;
#X connect 3 0 17 0;
#X connect 4 0 3 1;
#X connect 7 0 8 0;
#X connect 8 0 34 0;
#X connect 9 0 10 0;
#X connect 10 0 34 0;
#X connect 10 0 36 0;
#X connect 11 0 12 0;
#X connect 12 0 49 0;
#X connect 13 0 49 0;
#X connect 15 0 16 0;
#X connect 16 0 14 0;
#X connect 17 0 18 0;
#X connect 18 0 2 0;
#X connect 22 0 19 0;
#X connect 22 0 26 0;
#X connect 22 1 20 0;
#X connect 22 1 27 0;
#X connect 23 0 31 0;
#X connect 24 0 23 0;
#X connect 25 0 23 0;
#X connect 31 0 32 0;
#X connect 32 0 21 0;
#X connect 32 1 21 1;
#X connect 34 0 33 0;
#X connect 35 0 34 0;
#X connect 38 0 39 0;
#X connect 39 0 48 0;
#X connect 40 0 41 0;
#X connect 41 0 47 0;
#X connect 41 0 48 0;
#X connect 42 0 43 0;
#X connect 43 0 54 0;
#X connect 44 0 54 0;
#X connect 46 0 48 0;
#X connect 48 0 45 0;
#X connect 49 0 9 0;
#X connect 49 0 51 0;
#X connect 50 0 55 0;
#X connect 51 0 52 0;
#X connect 53 0 40 0;
#X connect 54 0 53 0;
#X connect 55 0 9 0;
#X connect 56 0 57 0;
