#N canvas 385 96 810 693 10;
#X obj 367 214 r \$0-tune;
#X obj 499 147 openpanel;
#X obj 499 248 s \$0-tune;
#X msg 499 124 bang;
#X symbolatom 508 169 16 0 0 0 - - -, f 16;
#X obj 499 220 textfile;
#X msg 499 196 read \$1 \, rewind \, bang;
#X obj 130 191 notein;
#X floatatom 80 286 5 0 0 0 - - -, f 5;
#X floatatom 209 213 5 0 0 0 - - -, f 5;
#X obj 209 189 mtof;
#X floatatom 209 169 5 0 0 0 - - -, f 5;
#X text 213 145 set base frequency;
#X text 259 277 to "midi" synth;
#X floatatom 215 291 5 0 0 0 - - -, f 5;
#X obj 130 316 pack 0 100;
#X floatatom 56 131 5 0 0 0 - - -, f 5;
#X floatatom 288 215 5 0 0 2 notes_per_oct - -, f 5;
#X obj 44 514 osc~;
#X obj 89 512 vline~;
#X obj 44 538 *~;
#X obj 88 556 *~;
#X obj 87 534 *~;
#X obj 45 493 t f b;
#X obj 612 473 catch~ \$0-out;
#X obj 612 582 dac~;
#X obj 612 551 *~ 0;
#X obj 635 527 dbtorms;
#X floatatom 635 505 0 0 100 0 - - -;
#X obj 220 513 osc~;
#X obj 265 511 vline~;
#X obj 220 537 *~;
#X obj 264 555 *~;
#X obj 263 533 *~;
#X obj 221 492 t f b;
#X obj 399 511 osc~;
#X obj 444 509 vline~;
#X obj 399 535 *~;
#X obj 443 553 *~;
#X obj 442 531 *~;
#X obj 400 490 t f b;
#X obj 129 389 route 1 2 3;
#X obj 129 363 pack 0 0 0;
#X obj 399 580 throw~ \$0-out;
#X obj 220 582 throw~ \$0-out;
#X obj 44 583 throw~ \$0-out;
#X obj 215 271 ftom;
#X floatatom 656 551 5 0 0 0 - - -, f 5;
#X floatatom 133 438 5 0 0 0 - - -, f 5;
#X obj 130 342 poly 3 1;
#X obj 130 287 stripnote;
#X msg 88 492 0.6 20 \, 0 1000 20;
#X msg 264 491 0.6 20 \, 0 1000 20;
#X msg 443 489 0.6 20 \, 0 1000 20;
#X obj 56 148 makenote 100 1000;
#X text 307 19 Arguments (all are optional):;
#X text 382 44 1) base frequency;
#X text 383 63 2) notes in octave;
#X text 382 82 3) filename of tuning table;
#X obj 30 108 fresh/mid.keyboard;
#X obj 130 237 mid.tunetof 8 7 _samples/ptolemy.scl.tab;
#X connect 0 0 60 3;
#X connect 1 0 6 0;
#X connect 1 0 4 0;
#X connect 3 0 1 0;
#X connect 5 0 2 0;
#X connect 6 0 5 0;
#X connect 7 0 60 0;
#X connect 7 1 50 1;
#X connect 9 0 60 1;
#X connect 10 0 9 0;
#X connect 11 0 10 0;
#X connect 15 0 49 0;
#X connect 16 0 54 0;
#X connect 17 0 60 2;
#X connect 18 0 20 0;
#X connect 19 0 22 0;
#X connect 19 0 22 1;
#X connect 20 0 45 0;
#X connect 21 0 20 1;
#X connect 22 0 21 0;
#X connect 22 0 21 1;
#X connect 23 0 18 0;
#X connect 23 1 51 0;
#X connect 24 0 26 0;
#X connect 26 0 25 0;
#X connect 26 0 25 1;
#X connect 27 0 26 1;
#X connect 27 0 47 0;
#X connect 28 0 27 0;
#X connect 29 0 31 0;
#X connect 30 0 33 0;
#X connect 30 0 33 1;
#X connect 31 0 44 0;
#X connect 32 0 31 1;
#X connect 33 0 32 0;
#X connect 33 0 32 1;
#X connect 34 0 29 0;
#X connect 34 1 52 0;
#X connect 35 0 37 0;
#X connect 36 0 39 0;
#X connect 36 0 39 1;
#X connect 37 0 43 0;
#X connect 38 0 37 1;
#X connect 39 0 38 0;
#X connect 39 0 38 1;
#X connect 40 0 35 0;
#X connect 40 1 53 0;
#X connect 41 0 23 0;
#X connect 41 1 34 0;
#X connect 41 1 48 0;
#X connect 41 2 40 0;
#X connect 42 0 41 0;
#X connect 46 0 14 0;
#X connect 49 0 42 0;
#X connect 49 1 42 1;
#X connect 49 2 42 2;
#X connect 50 0 15 0;
#X connect 50 1 15 1;
#X connect 51 0 19 0;
#X connect 52 0 30 0;
#X connect 53 0 36 0;
#X connect 54 0 60 0;
#X connect 54 1 50 1;
#X connect 59 1 16 0;
#X connect 60 0 8 0;
#X connect 60 0 46 0;
#X connect 60 0 50 0;
