#N canvas 236 23 551 495 12;
#X obj 48 122 keyup;
#X obj 48 243 delay 50;
#X obj 48 266 print;
#X text 38 29 keyup is broken on macOS;
#X text 39 58 the [key] just endlessly "repeats" so then I have them
change System Preferences -> Keyboard -> Key Repeat = OFF .... THEN
restart Pd;
#X text 183 242 <-- just put a [delay] a little more than the time
between repeats, f 34;
#X obj 124 172 t b;
#X obj 124 195 f;
#X obj 152 195 + 1;
#X obj 183 195 % 2;
#X obj 124 218 sel 0 1;
#X obj 124 243 timer;
#X floatatom 124 266 5 0 0 0 - - -;
#X text 57 307 exec defaults write $::pd_guiprefs::domain KeyRepeat
0;
#X obj 275 122 keyup;
#X obj 275 151 print;
#X text 51 380 $ defaults write org.puredata.pd.pd-gui KeyRepeat -int
120;
#X text 58 328 at line 150 in pd_guiprefs.tclyou would think would
work but does not.;
#X text 60 400 this does not work either;
#X connect 0 0 1 0;
#X connect 0 0 6 0;
#X connect 1 0 2 0;
#X connect 6 0 7 0;
#X connect 7 0 8 0;
#X connect 7 0 10 0;
#X connect 8 0 9 0;
#X connect 9 0 7 1;
#X connect 10 0 11 0;
#X connect 10 1 11 1;
#X connect 11 0 12 0;
#X connect 14 0 15 0;
