#N canvas 0 22 253 260 10;
#X obj 39 156 *~ 0;
#X obj 99 157 *~ 1;
#X obj 120 63 / 100;
#X obj 120 88 - 1;
#X obj 120 109 swap;
#X obj 120 132 -;
#X obj 39 181 outlet~;
#X obj 99 182 outlet~;
#X obj 39 27 inlet~;
#X obj 99 27 inlet~;
#X obj 155 27 inlet;
#X text 38 4 mix between two audio signals;
#X text 38 216 2015 megrimm;
#X connect 0 0 6 0;
#X connect 1 0 7 0;
#X connect 2 0 3 0;
#X connect 2 0 0 1;
#X connect 3 0 4 0;
#X connect 4 0 5 0;
#X connect 4 1 5 1;
#X connect 5 0 1 1;
#X connect 8 0 0 0;
#X connect 9 0 1 0;
#X connect 10 0 2 0;
