#N canvas 424 44 802 345 10;
#X floatatom 100 183 5 0 0 0 - - -, f 5;
#X obj 37 49 osc~ 350;
#X obj 330 36 tgl 15 0 empty empty record 17 7 0 8 -262144 -1 -1 0
1;
#X text 612 77 <-- save file to location;
#X obj 37 225 dac~;
#X msg 399 191 \; pd dsp 1 \;;
#X obj 399 166 loadbang;
#X msg 399 229 \; pd dsp 0 \;;
#X msg 375 78 dir /Users/megrimm/Desktop;
#X obj 100 149 mix.recorder~;
#X obj 37 198 *~ 0.2;
#X connect 1 0 9 0;
#X connect 1 0 9 1;
#X connect 1 0 10 0;
#X connect 2 0 9 2;
#X connect 6 0 5 0;
#X connect 8 0 9 2;
#X connect 9 0 0 0;
#X connect 10 0 4 0;
#X connect 10 0 4 1;
