#N canvas 43 198 577 444 10;
#X obj 60 126 readsf~;
#X msg 60 72 open _samples/amen.wav \, 1;
#X msg 76 96 0;
#X obj 99 148 s \$0-playloop-1;
#X obj 60 48 r \$0-playloop-1;
#X obj 114 366 dac~;
#X obj 156 210 bng 15 250 50 0 empty empty empty 17 7 0 10 -262144
-1 -1;
#X obj 156 185 r \$0-playloop-1;
#X text 180 208 <-- bang to randomize paning;
#X msg 174 236 speed \$1;
#X text 235 235 <-- set speed range;
#X text 356 235 (not working yet);
#X obj 63 269 mix.autopan~;
#X connect 0 0 12 0;
#X connect 0 1 3 0;
#X connect 1 0 0 0;
#X connect 2 0 0 0;
#X connect 4 0 1 0;
#X connect 6 0 12 1;
#X connect 7 0 6 0;
#X connect 9 0 12 1;
#X connect 12 0 5 0;
#X connect 12 1 5 1;
