#N canvas 400 23 450 300 10;
#X obj 243 124 hsl 100 15 0 1 0 0 empty empty empty -2 -8 0 10 -163060
-1 -1 3500 1;
#X text 273 122 gain;
#X obj 177 86 osc~;
#X floatatom 177 51 5 0 0 0 - - -, f 5;
#X obj 177 147 mix.output~;
#X connect 0 0 4 2;
#X connect 2 0 4 0;
#X connect 2 0 4 1;
#X connect 3 0 2 0;
