#N canvas 681 35 287 498 12;
#X obj 36 302 *~;
#X obj 153 302 *~;
#X obj 171 267 sin~;
#X obj 54 266 cos~;
#X obj 84 343 +~;
#X obj 171 224 /~ 4;
#X obj 87 430 outlet~;
#X obj 133 72 inlet~;
#X obj 15 104 inlet~;
#X obj 205 71 inlet;
#X obj 172 198 sig~;
#X connect 0 0 4 0;
#X connect 1 0 4 1;
#X connect 2 0 1 1;
#X connect 3 0 0 1;
#X connect 4 0 6 0;
#X connect 5 0 2 0;
#X connect 5 0 3 0;
#X connect 7 0 1 0;
#X connect 8 0 0 0;
#X connect 9 0 10 0;
#X connect 10 0 5 0;
