#N canvas 738 392 370 329 12;
#X obj 182 256 text define tuning;
#X obj 49 53 text get tuning;
#X obj 182 27 inlet;
#X obj 182 53 route read;
#X obj 49 28 inlet;
#X obj 48 254 outlet;
#X obj 182 204 list prepend read;
#X obj 182 228 list trim;
#X obj 204 77 loadbang;
#X obj 204 127 list trim;
#X obj 204 102 symbol \$1;
#X obj 204 152 route \$1;
#X obj 204 175 symbol \$1;
#X text 43 283 (c)2020 \, megrimm;
#X connect 1 0 5 0;
#X connect 2 0 3 0;
#X connect 3 0 6 0;
#X connect 4 0 1 0;
#X connect 6 0 7 0;
#X connect 7 0 0 0;
#X connect 8 0 10 0;
#X connect 9 0 11 0;
#X connect 10 0 9 0;
#X connect 11 0 12 0;
#X connect 12 0 6 0;
