#N canvas 444 461 291 332 10;
#X obj 127 147 cyclone/capture 10 x;
#X msg 128 116 dump;
#X obj 127 192 list-abs/list-unique;
#X obj 127 170 list-abs/last-x 10;
#X obj 128 91 t b a;
#N canvas 90 226 422 524 pass 0;
#X obj 114 437 outlet;
#X obj 114 43 inlet;
#X obj 188 42 inlet;
#X obj 114 190 t a b;
#X obj 114 401 spigot;
#X obj 153 228 random 10000;
#X obj 255 206 * 100;
#X obj 270 142 loadbang;
#X obj 255 171 f \$1;
#X obj 153 331 <;
#X obj 188 81 list trim;
#X obj 188 103 route seed;
#X msg 188 127 seed \$1;
#X obj 167 401 spigot 1;
#X obj 212 379 == 0;
#X obj 114 368 t a b;
#X obj 203 434 outlet;
#X connect 1 0 3 0;
#X connect 2 0 10 0;
#X connect 3 0 15 0;
#X connect 3 1 5 0;
#X connect 4 0 0 0;
#X connect 5 0 9 0;
#X connect 6 0 9 1;
#X connect 7 0 8 0;
#X connect 8 0 6 0;
#X connect 9 0 4 1;
#X connect 9 0 14 0;
#X connect 10 0 11 0;
#X connect 11 0 12 0;
#X connect 11 1 8 0;
#X connect 12 0 5 0;
#X connect 13 0 16 0;
#X connect 14 0 13 1;
#X connect 15 0 4 0;
#X connect 15 1 13 0;
#X restore 36 167 pd pass;
#N canvas 803 224 243 276 series 0;
#X obj 45 223 outlet;
#X obj 45 30 inlet;
#X obj 89 217 outlet;
#X obj 82 60 inlet;
#X obj 137 217 outlet;
#X obj 45 138 t a a;
#N canvas 769 522 450 300 nth 0;
#X obj 113 129 list;
#X obj 113 101 t b a;
#X obj 113 80 inlet;
#X obj 157 79 inlet;
#X obj 113 178 outlet;
#X obj 113 155 list-abs/list-idx;
#X connect 0 0 5 0;
#X connect 1 0 0 0;
#X connect 1 1 5 1;
#X connect 2 0 1 0;
#X connect 3 0 0 1;
#X connect 5 0 4 0;
#X restore 45 184 pd nth;
#X obj 89 86 list-abs/list-len;
#X obj 45 118 rtc/xrandom;
#X connect 1 0 8 0;
#X connect 3 0 6 1;
#X connect 3 0 7 0;
#X connect 5 0 6 0;
#X connect 5 1 4 0;
#X connect 6 0 0 0;
#X connect 7 0 8 1;
#X connect 8 0 5 0;
#X connect 8 1 2 0;
#X restore 76 215 pd series;
#X obj 34 279 outlet;
#X obj 36 16 inlet;
#X obj 128 15 inlet;
#X text 155 249 mutator v0.2;
#X connect 0 0 3 0;
#X connect 1 0 0 0;
#X connect 2 0 6 1;
#X connect 3 0 2 0;
#X connect 4 0 1 0;
#X connect 4 1 0 0;
#X connect 5 0 7 0;
#X connect 5 1 6 0;
#X connect 6 0 7 0;
#X connect 8 0 4 0;
#X connect 8 0 5 0;
#X connect 9 0 5 1;
