#N canvas 88 79 257 290 12;
#X obj 55 39 inlet;
#X obj 106 39 inlet;
#X obj 156 40 inlet;
#X obj 55 231 outlet;
#X obj 156 71 t b b f;
#X obj 55 106 f;
#X obj 106 105 t b f;
#X obj 55 162 ==;
#X obj 55 198 &&;
#X obj 138 161 ==;
#X obj 138 136 f;
#X connect 0 0 5 0;
#X connect 1 0 6 0;
#X connect 2 0 4 0;
#X connect 4 0 5 0;
#X connect 4 1 10 0;
#X connect 4 2 9 1;
#X connect 5 0 7 0;
#X connect 6 0 5 0;
#X connect 6 1 7 1;
#X connect 6 1 10 0;
#X connect 7 0 8 0;
#X connect 8 0 3 0;
#X connect 9 0 8 1;
#X connect 10 0 9 0;
