#N canvas 0 23 450 300 10;
#X obj 114 114 inlet;
#X obj 126 231 outlet;
#X obj 164 174 expr fmod($f1 \, $f2);
#X obj 349 86 inlet;
#X obj 244 135 f \$1;
#X obj 242 87 loadbang;
#X connect 0 0 2 0;
#X connect 2 0 1 0;
#X connect 3 0 2 1;
#X connect 4 0 2 1;
#X connect 5 0 4 0;
