#N canvas 792 196 265 544 10;
#X obj 18 294 +;
#X obj 48 294 +;
#X obj 18 494 outlet;
#X obj 18 321 * 1;
#X obj 27 448 s \$0-stepnum;
#X obj 63 266 r \$0-stepnum;
#X obj 18 40 inlet;
#X obj 18 386 max \$1;
#X obj 18 426 min \$2;
#X text 17 14 step up or step down by one;
#X text 65 491 (c)2012 \, megrimm;
#X obj 18 64 route down up min max jump;
#X obj 140 109 s \$0-stepjump;
#X obj 32 344 r \$0-stepjump;
#X obj 18 470 change;
#X obj 51 406 r \$0-min;
#X obj 51 365 r \$0-max;
#X obj 79 242 s \$0-max;
#X obj 109 221 s \$0-min;
#X obj 172 132 loadbang;
#X obj 172 155 s \$0-bng;
#X obj 148 87 r \$0-bng;
#X obj 116 176 sel 0;
#X obj 116 132 r \$0-bng;
#X obj 116 153 f \$1;
#X msg 116 198 100;
#X obj 18 242 f -1;
#X obj 48 242 f 1;
#X connect 0 0 3 0;
#X connect 1 0 3 0;
#X connect 3 0 7 0;
#X connect 5 0 1 1;
#X connect 5 0 0 1;
#X connect 6 0 11 0;
#X connect 7 0 8 0;
#X connect 8 0 4 0;
#X connect 8 0 14 0;
#X connect 11 0 26 0;
#X connect 11 1 27 0;
#X connect 11 2 17 0;
#X connect 11 3 18 0;
#X connect 11 4 12 0;
#X connect 13 0 7 0;
#X connect 14 0 2 0;
#X connect 15 0 8 1;
#X connect 16 0 7 1;
#X connect 19 0 20 0;
#X connect 21 0 12 0;
#X connect 22 0 25 0;
#X connect 23 0 24 0;
#X connect 24 0 22 0;
#X connect 25 0 18 0;
#X connect 26 0 0 0;
#X connect 27 0 1 0;
