#N canvas 0 23 292 257 10;
#X obj 54 23 inlet;
#X obj 54 139 f;
#X obj 84 138 + 1;
#X obj 126 23 inlet;
#X msg 69 106 0;
#X obj 54 168 mod \$1;
#X obj 54 194 outlet;
#X obj 126 49 route bang float;
#X connect 0 0 1 0;
#X connect 1 0 2 0;
#X connect 1 0 5 0;
#X connect 2 0 1 1;
#X connect 3 0 7 0;
#X connect 4 0 1 1;
#X connect 5 0 6 0;
#X connect 7 0 4 0;
#X connect 7 1 5 1;
