#N canvas 685 92 295 351 10;
#X obj 92 53 inlet;
#X obj 91 247 outlet;
#X obj 151 249 outlet;
#X obj 92 78 t f f;
#X obj 91 155 ==;
#X obj 93 107 t f f;
#X obj 91 223 f;
#X obj 91 178 sel 0;
#X obj 151 225 t b;
#X connect 0 0 3 0;
#X connect 3 0 5 0;
#X connect 3 1 4 0;
#X connect 4 0 7 0;
#X connect 5 0 4 1;
#X connect 5 1 6 1;
#X connect 6 0 1 0;
#X connect 7 0 6 0;
#X connect 7 1 8 0;
#X connect 8 0 2 0;
