#N canvas 505 98 466 367 10;
#X text 246 304 http://yvanvolochine.com;
#X text 30 21 Repeat anything a given number of times;
#X obj 244 265 print;
#X msg 244 85 foo 666 bar;
#X msg 198 110 1 2 3;
#X msg 144 156 0;
#X obj 181 135 bng 15 250 50 0 empty empty empty 17 7 0 10 -262144
-1 -1;
#X floatatom 348 170 5 1 20 1 times - -, f 5;
#X obj 244 203 num.repeat 6;
#X connect 3 0 8 0;
#X connect 4 0 8 0;
#X connect 5 0 8 0;
#X connect 6 0 8 0;
#X connect 7 0 8 1;
#X connect 8 0 2 0;
