#N canvas 242 172 335 496 10;
#X obj 137 285 cyclone/capture 10 x;
#X msg 138 254 dump;
#X obj 137 330 list-abs/list-unique;
#X obj 137 308 list-abs/last-x 10;
#X obj 138 229 t b a;
#N canvas 803 224 243 276 series 0;
#X obj 45 223 outlet;
#X obj 45 30 inlet;
#X obj 89 217 outlet;
#X obj 82 60 inlet;
#X obj 137 217 outlet;
#X obj 45 138 t a a;
#N canvas 769 522 450 300 nth 0;
#X obj 113 129 list;
#X obj 113 101 t b a;
#X obj 113 80 inlet;
#X obj 157 79 inlet;
#X obj 113 178 outlet;
#X obj 113 155 list-abs/list-idx;
#X connect 0 0 5 0;
#X connect 1 0 0 0;
#X connect 1 1 5 1;
#X connect 2 0 1 0;
#X connect 3 0 0 1;
#X connect 5 0 4 0;
#X restore 45 184 pd nth;
#X obj 89 86 list-abs/list-len;
#X obj 45 118 rtc/xrandom;
#X connect 1 0 8 0;
#X connect 3 0 6 1;
#X connect 3 0 7 0;
#X connect 5 0 6 0;
#X connect 5 1 4 0;
#X connect 6 0 0 0;
#X connect 7 0 8 1;
#X connect 8 0 5 0;
#X connect 8 1 2 0;
#X restore 86 353 pd series;
#X obj 36 444 outlet;
#X obj 36 16 inlet;
#X obj 223 10 inlet;
#X text 168 434 mutator v0.2;
#X obj 36 62 t a b;
#X obj 36 177 spigot;
#X obj 131 91 random 10000;
#X obj 223 89 * 100;
#X obj 131 127 <;
#X obj 86 177 spigot 1;
#X obj 131 155 == 0;
#X obj 36 144 t a b;
#X obj 48 41 s \$0-numin;
#X obj 138 204 r \$0-numin;
#X connect 0 0 3 0;
#X connect 1 0 0 0;
#X connect 2 0 5 1;
#X connect 3 0 2 0;
#X connect 4 0 1 0;
#X connect 4 1 0 0;
#X connect 5 0 6 0;
#X connect 7 0 10 0;
#X connect 7 0 18 0;
#X connect 8 0 13 0;
#X connect 10 0 17 0;
#X connect 10 1 12 0;
#X connect 11 0 6 0;
#X connect 12 0 14 0;
#X connect 13 0 14 1;
#X connect 14 0 11 1;
#X connect 14 0 16 0;
#X connect 15 0 5 0;
#X connect 16 0 15 1;
#X connect 17 0 11 0;
#X connect 17 1 15 0;
#X connect 19 0 4 0;
