#N canvas 520 121 476 598 10;
#X obj 229 524 tabread \$0-urn;
#X obj 165 434 tabwrite \$0-urn;
#X obj 230 380 t a a;
#X obj 165 307 - 1;
#X obj 31 246 select 0;
#X obj 165 406 tabread \$0-urn;
#X obj 351 552 outlet;
#X obj 229 552 outlet;
#X obj 229 60 inlet;
#X obj 31 17 inlet;
#X obj 229 114 f \$1;
#X obj 240 84 loadbang;
#X obj 203 84 b;
#X obj 230 357 random;
#X msg 230 263 seed \$1;
#X obj 230 240 f;
#X obj 337 473 table \$0-urn \$1;
#X obj 165 279 t a b;
#X obj 31 40 route bang seed clear;
#X obj 229 134 t b a a a;
#X obj 31 270 t b b;
#X msg 229 184 0;
#X msg 58 293 1;
#X obj 337 419 t a a;
#X obj 337 448 tabwrite \$0-urn;
#X obj 367 298 s \$0-urn;
#X msg 367 273 resize \$1;
#X obj 337 207 t a a;
#X obj 367 253 change;
#X obj 367 230 int;
#X obj 373 395 + 1;
#X obj 337 360 until;
#X obj 337 396 f;
#X msg 382 359 0;
#X obj 337 322 t a b;
#X obj 31 181 bang;
#X obj 57 225 - 1;
#X obj 31 224 f;
#X obj 31 131 f 0;
#X obj 31 157 select 0 1;
#X obj 31 87 b;
#X obj 58 315 s \$0-chgfl1;
#X obj 46 109 r \$0-chgfl1;
#X obj 229 206 s \$0-chgfl1;
#X obj 246 161 s \$0-chgfl2;
#X obj 46 202 r \$0-chgfl2;
#X obj 31 339 s \$0-chgfl3;
#X obj 360 523 r \$0-chgfl3;
#X obj 351 501 r \$0-chgfl4;
#X obj 63 181 s \$0-chgfl4;
#X connect 0 0 7 0;
#X connect 2 0 0 0;
#X connect 2 1 1 1;
#X connect 3 0 5 0;
#X connect 3 0 13 1;
#X connect 4 0 20 0;
#X connect 4 1 17 0;
#X connect 5 0 1 0;
#X connect 8 0 10 0;
#X connect 9 0 18 0;
#X connect 10 0 19 0;
#X connect 11 0 10 0;
#X connect 12 0 10 0;
#X connect 13 0 2 0;
#X connect 14 0 13 0;
#X connect 15 0 14 0;
#X connect 17 0 3 0;
#X connect 17 1 13 0;
#X connect 18 0 40 0;
#X connect 18 1 15 0;
#X connect 18 2 12 0;
#X connect 19 0 21 0;
#X connect 19 1 44 0;
#X connect 19 2 13 1;
#X connect 19 3 27 0;
#X connect 20 0 46 0;
#X connect 20 1 22 0;
#X connect 21 0 43 0;
#X connect 22 0 41 0;
#X connect 23 0 24 0;
#X connect 23 1 24 1;
#X connect 26 0 25 0;
#X connect 27 0 34 0;
#X connect 27 1 29 0;
#X connect 28 0 26 0;
#X connect 29 0 28 0;
#X connect 30 0 32 1;
#X connect 31 0 32 0;
#X connect 32 0 30 0;
#X connect 32 0 23 0;
#X connect 33 0 32 1;
#X connect 34 0 31 0;
#X connect 34 1 33 0;
#X connect 35 0 37 0;
#X connect 36 0 37 1;
#X connect 37 0 36 0;
#X connect 37 0 4 0;
#X connect 38 0 39 0;
#X connect 39 0 35 0;
#X connect 39 1 49 0;
#X connect 40 0 38 0;
#X connect 42 0 38 1;
#X connect 45 0 37 1;
#X connect 47 0 6 0;
#X connect 48 0 6 0;
