#N canvas 728 99 509 323 10;
#X obj 48 45 inlet;
#X obj 332 43 loadbang;
#X obj 48 159 outlet;
#X obj 128 43 inlet;
#X text 48 273 (c)2020 \, megrimm;
#X text 47 190 generates 'euclidean rhythms' | first argument is the
length of the bar | second argument is the number of hits per bar |
third argument is the offset/rotation of the hits relative to the begining
of the bar | (see cgm.cs.mcgill.ca/~godfried/publications/banff.pdf).
;
#X obj 128 64 route length hits offset random;
#X obj 332 63 list append \$1 \$2 \$3 \$4;
#X obj 332 82 unpack f f f f;
#X obj 48 128 expr (random(1 \, 200)>$f5)==(((($f1+$f4)*$f3)%$f2)<$f3)
;
#X connect 0 0 9 0;
#X connect 1 0 7 0;
#X connect 3 0 6 0;
#X connect 6 0 9 1;
#X connect 6 1 9 2;
#X connect 6 2 9 3;
#X connect 6 3 9 4;
#X connect 7 0 8 0;
#X connect 8 0 9 1;
#X connect 8 1 9 2;
#X connect 8 2 9 3;
#X connect 8 3 9 4;
#X connect 9 0 2 0;
