#N canvas 36 346 262 314 10;
#X obj 32 181 spigot;
#X obj 84 181 spigot 1;
#X obj 129 159 == 0;
#X obj 78 40 inlet;
#X obj 131 41 inlet;
#X obj 149 250 outlet;
#X obj 86 250 outlet;
#X connect 0 0 5 0;
#X connect 1 0 6 0;
#X connect 2 0 1 1;
#X connect 3 0 0 0;
#X connect 3 0 1 0;
#X connect 4 0 2 0;
#X connect 4 0 0 1;
