#N canvas 531 205 384 300 10;
#X obj 27 47 bng 15 250 50 0 empty empty empty 17 7 0 10 -262144 -1
-1;
#X floatatom 27 127 5 0 0 0 - - -, f 5;
#X obj 139 37 bng 15 250 50 0 empty empty empty 17 7 0 10 -262144 -1
-1;
#X text 28 13 a simple number counter;
#X text 151 94 <-- modulation is create argument;
#X floatatom 152 61 5 0 0 0 - - -, f 5;
#X text 164 36 <-- reset counter;
#X text 193 58 <-- modulation number;
#X text 29 162 2015 megrimm;
#X obj 27 94 fresh/num.count 3;
#X obj 170 137 - 3;
#X obj 170 196 abs;
#X floatatom 170 218 5 0 0 0 - - -, f 5;
#X obj 170 159 + 1;
#X connect 0 0 9 0;
#X connect 2 0 9 1;
#X connect 5 0 9 1;
#X connect 9 0 1 0;
#X connect 9 0 10 0;
#X connect 10 0 13 0;
#X connect 11 0 12 0;
#X connect 13 0 11 0;
