#N canvas 874 300 484 530 10;
#X text 29 412 (c)2012 \, megrimm;
#X text 32 36 a simple tap tempo;
#X obj 33 68 inlet;
#X obj 33 115 timer;
#X obj 33 377 outlet;
#X obj 33 182 mavg 3;
#X obj 33 349 expr 60000/$f1;
#X obj 33 90 t b b;
#X text 116 250 <-- something in here to only output number after 3rd
bang;
#X obj 102 204 change;
#X obj 78 301 == 0;
#X obj 33 147 t f f;
#X obj 101 183 > 800;
#X obj 33 325 spigot 1;
#X connect 2 0 7 0;
#X connect 3 0 11 0;
#X connect 5 0 13 0;
#X connect 6 0 4 0;
#X connect 7 0 3 0;
#X connect 7 1 3 1;
#X connect 9 0 10 0;
#X connect 10 0 13 1;
#X connect 11 0 5 0;
#X connect 11 1 12 0;
#X connect 12 0 9 0;
#X connect 13 0 6 0;
