#N canvas 521 201 450 300 10;
#X floatatom 129 129 1 0 0 0 - - -;
#X text 146 128 controls: open and close the gates.;
#X obj 32 181 spigot;
#X obj 84 181 spigot 1;
#X obj 129 159 == 0;
#X obj 78 40 inlet;
#X obj 192 29 inlet;
#X obj 149 250 outlet;
#X obj 86 250 outlet;
#X connect 0 0 2 1;
#X connect 0 0 4 0;
#X connect 2 0 7 0;
#X connect 3 0 8 0;
#X connect 4 0 3 1;
#X connect 5 0 2 0;
#X connect 5 0 3 0;
#X connect 6 0 4 0;
#X connect 6 0 2 1;
