#N canvas 792 196 317 588 10;
#X msg 60 217 -1;
#X msg 90 217 1;
#X obj 60 302 +;
#X obj 90 302 +;
#X obj 60 534 outlet;
#X obj 60 333 * 1;
#X obj 72 488 s \$0-stepnum;
#X obj 105 260 r \$0-stepnum;
#X obj 60 67 inlet;
#X obj 60 407 max \$1;
#X obj 60 461 min \$2;
#X text 57 27 step up or step down by one;
#X text 107 531 (c)2012 \, megrimm;
#X obj 60 91 route down up min max jump;
#X obj 182 148 s \$0-stepjump;
#X obj 85 360 r \$0-stepjump;
#X obj 191 121 loadbang;
#X obj 121 193 s \$0-maximum;
#X obj 93 384 r \$0-maximum;
#X obj 151 171 s \$0-minimum;
#X obj 93 438 r \$0-minimum;
#X obj 60 510 change;
#X connect 0 0 2 0;
#X connect 1 0 3 0;
#X connect 2 0 5 0;
#X connect 3 0 5 0;
#X connect 5 0 9 0;
#X connect 7 0 3 1;
#X connect 7 0 2 1;
#X connect 8 0 13 0;
#X connect 9 0 10 0;
#X connect 10 0 6 0;
#X connect 10 0 21 0;
#X connect 13 0 0 0;
#X connect 13 1 1 0;
#X connect 13 2 17 0;
#X connect 13 3 19 0;
#X connect 13 4 14 0;
#X connect 15 0 9 0;
#X connect 16 0 14 0;
#X connect 18 0 9 1;
#X connect 20 0 10 1;
#X connect 21 0 4 0;
