#N canvas 552 23 473 394 10;
#X obj 158 44 inlet;
#X obj 158 272 outlet;
#X obj 227 42 inlet;
#X obj 158 166 list prepend;
#X obj 158 190 route 1 2 3 4 5 6 7 8 9 10;
#X obj 173 250 outlet;
#X obj 188 228 outlet;
#X obj 203 271 outlet;
#X obj 219 249 outlet;
#X obj 234 228 outlet;
#X obj 249 272 outlet;
#X obj 265 250 outlet;
#X obj 280 229 outlet;
#X obj 295 272 outlet;
#X obj 342 165 f;
#X obj 342 273 outlet;
#X obj 227 75 route float;
#X connect 0 0 3 0;
#X connect 2 0 16 0;
#X connect 3 0 4 0;
#X connect 4 0 1 0;
#X connect 4 1 5 0;
#X connect 4 2 6 0;
#X connect 4 3 7 0;
#X connect 4 4 8 0;
#X connect 4 5 9 0;
#X connect 4 6 10 0;
#X connect 4 7 11 0;
#X connect 4 8 12 0;
#X connect 4 9 13 0;
#X connect 14 0 15 0;
#X connect 16 0 14 1;
#X connect 16 0 3 1;
#X connect 16 1 14 0;
