#N canvas 136 121 495 687 10;
#X obj 57 589 line;
#X msg 57 424 \$1 \, \$2 \$3;
#X obj 57 400 pack f f f;
#X msg 222 227 0;
#X obj 57 307 f;
#X msg 56 182 bang;
#X msg 100 182 stop;
#X obj 71 613 s \$0-lineout;
#X obj 72 284 r \$0-lineout;
#X obj 68 535 s \$0-timeleft;
#X obj 129 229 r \$0-timeleft;
#X obj 114 258 f;
#X text 240 484 <-- amount of time remaining;
#X obj 68 462 r \$0-lineout;
#X obj 56 204 t b b;
#X obj 68 486 expr $f3-($f1*($f3 / $f2));
#X obj 221 462 r \$0-milliseconds;
#X obj 67 561 r \$0-linectl;
#X obj 100 203 s \$0-linectl;
#X obj 222 201 t b b b;
#X obj 57 641 outlet;
#X obj 55 25 inlet;
#X obj 254 228 f;
#X obj 285 228 f;
#X obj 266 27 inlet;
#X obj 311 27 inlet;
#X obj 285 278 s \$0-milliseconds;
#X obj 56 151 sel 0 1;
#X obj 285 254 * 1;
#X obj 375 207 t b b f;
#X obj 56 93 route pause start speed;
#X obj 146 117 s \$0-speed;
#X obj 375 186 r \$0-speed;
#X obj 123 373 r \$0-milliseconds;
#X obj 254 300 s \$0-endtime;
#X obj 85 353 r \$0-endtime;
#X obj 222 322 s \$0-starttime;
#X obj 68 330 r \$0-starttime;
#X connect 0 0 7 0;
#X connect 0 0 20 0;
#X connect 1 0 0 0;
#X connect 1 0 15 1;
#X connect 2 0 1 0;
#X connect 3 0 36 0;
#X connect 4 0 2 0;
#X connect 5 0 14 0;
#X connect 6 0 18 0;
#X connect 8 0 4 1;
#X connect 10 0 11 1;
#X connect 11 0 2 2;
#X connect 13 0 15 0;
#X connect 14 0 4 0;
#X connect 14 1 11 0;
#X connect 15 0 9 0;
#X connect 16 0 15 2;
#X connect 17 0 0 0;
#X connect 19 0 3 0;
#X connect 19 1 22 0;
#X connect 19 2 23 0;
#X connect 21 0 30 0;
#X connect 22 0 34 0;
#X connect 23 0 28 0;
#X connect 24 0 22 1;
#X connect 25 0 23 1;
#X connect 27 0 5 0;
#X connect 27 1 6 0;
#X connect 28 0 26 0;
#X connect 29 2 28 1;
#X connect 30 0 27 0;
#X connect 30 1 19 0;
#X connect 30 2 31 0;
#X connect 32 0 29 0;
#X connect 33 0 2 2;
#X connect 35 0 2 1;
#X connect 37 0 2 0;
