#N canvas 1 53 563 324 10;
#X obj 51 42 inlet;
#X obj 51 233 outlet;
#X obj 51 171 expr $f1 * ($f3 - $f2) + $f2;
#X obj 189 61 loadbang;
#X text 10 10 input range: 0 to 1;
#X text 110 233 output range: MIDI note #s;
#X obj 133 42 inlet;
#X obj 304 42 inlet;
#X text 172 42 0-127;
#X text 343 41 0-127;
#X obj 189 84 trigger bang bang;
#X text 25 290 (C) Copyright 2007 Free Software Foundation;
#X text 289 290 released under the GNU GPLv3 or later;
#X obj 51 201 clip 0 127;
#X obj 133 113 utl.floatarg \$1 0;
#X obj 288 112 utl.floatarg \$2 127;
#X connect 0 0 2 0;
#X connect 2 0 13 0;
#X connect 3 0 10 0;
#X connect 6 0 14 0;
#X connect 7 0 15 0;
#X connect 10 0 14 0;
#X connect 10 1 15 0;
#X connect 13 0 1 0;
#X connect 14 0 2 1;
#X connect 15 0 2 2;
