#N canvas 436 185 393 207 10;
#X obj 32 25 inlet;
#X obj 159 23 inlet;
#X obj 287 20 inlet;
#X obj 32 159 outlet;
#X obj 32 96 expr if(($f1 >= $f2) && ($f1 <= $f3) \, 1 \, 0);
#X obj 172 45 loadbang;
#X obj 299 43 loadbang;
#X obj 172 68 f \$1;
#X obj 299 66 f \$2;
#X text 114 158 (c)2014 \, megrimm;
#X connect 0 0 4 0;
#X connect 1 0 4 1;
#X connect 2 0 4 2;
#X connect 4 0 3 0;
#X connect 5 0 7 0;
#X connect 6 0 8 0;
#X connect 7 0 4 1;
#X connect 8 0 4 2;
