#N canvas 263 58 432 353 10;
#X floatatom 59 227 5 0 0 0 - - -;
#X msg 76 85 up;
#X msg 59 60 down;
#X msg 99 119 min 4;
#X msg 110 143 max 10;
#X text 57 275 (c)2012 \, megrimm;
#X text 57 30 step up or step down by one;
#X obj 59 180 num.prevnext 7 15;
#X text 98 58 <-- down one number (previous);
#X text 108 84 <-- up one number (next);
#X text 142 116 <-- set lowest value;
#X text 158 141 <-- set highest value;
#X text 175 178 <-- also takes min/max creation arg;
#X connect 1 0 7 0;
#X connect 2 0 7 0;
#X connect 3 0 7 0;
#X connect 4 0 7 0;
#X connect 7 0 0 0;
