#N canvas 567 170 450 300 10;
#X text 154 34 chang with bang if same;
#X floatatom 166 203 5 0 0 0 - - -;
#X obj 166 237 print NUM;
#X obj 263 208 print BNG;
#X obj 165 72 bng 15 250 50 0 empty empty empty 17 7 0 10 -262144 -1
-1;
#X obj 166 115 random 4;
#X obj 166 154 num.changebng;
#X text 163 52 (this does not actaully work right);
#X connect 1 0 2 0;
#X connect 4 0 5 0;
#X connect 5 0 6 0;
#X connect 6 0 1 0;
#X connect 6 1 3 0;
