#N canvas 511 146 608 432 10;
#X obj 223 171 print;
#X obj 4 -57 cnv 15 600 66 empty empty init 18 30 0 48 -1 -260097 0
;
#N canvas 483 222 450 300 LICENSE 0;
#X text 18 8 This program is free software: you can redistribute it
and/or modify it under the terms of the GNU General Public License
as published by the Free Software Foundation \, either version 3 of
the License \, or (at your option) any later version. This program
is distributed in the hope that it will be useful \, but WITHOUT ANY
WARRANTY \; without even the implied warranty of MERCHANTABILITY or
FITNESS FOR A PARTICULAR PURPOSE. See the GNU General Public License
for more details. You should have received a copy of the GNU General
Public License along with this program. If not \, see <http://www.gnu.org/licenses/>.
;
#X restore 522 344 pd LICENSE;
#X text 14 347 http://yvanvolochine.com;
#X obj 223 113 init 666;
#X text 25 29 Send an integer via [loadbang] (watch your post window)
;
#X connect 4 0 0 0;
