#N canvas 406 181 761 405 10;
#X obj 64 212 print;
#X msg 62 89 bang;
#X text 164 34 creation arguments with default values;
#X obj 243 214 print;
#X msg 241 91 bang;
#X obj 243 143 num.defaults;
#X obj 64 141 num.defaults 640 480;
#X connect 1 0 6 0;
#X connect 4 0 5 0;
#X connect 5 0 3 0;
#X connect 6 0 0 0;
