#N canvas 737 127 453 510 10;
#X msg 180 70 0 2 4 5 7 9 11;
#X obj 168 95 t l l;
#X obj 195 117 list length;
#X msg 195 164 resize \$1;
#X obj 45 382 tabread \$0-scale;
#X obj 45 28 inlet;
#X obj 45 456 outlet;
#X obj 93 27 inlet;
#X obj 180 47 loadbang;
#X obj 168 214 array set \$0-scale;
#X obj 195 188 array define -yrange 0 12 \$0-scale;
#X obj 45 432 +;
#X obj 60 411 r \$0-offset;
#X obj 93 69 s \$0-offset;
#X obj 45 356 mod;
#X text 276 70 <-- major (ionian);
#X obj 77 331 r \$0-length;
#X obj 206 140 s \$0-length;
#X obj 93 48 route offset, f 13;
#X obj 45 309 expr $f1*($f2/$f3);
#X obj 45 331 int;
#X obj 150 283 f 12;
#X obj 150 261 loadbang;
#X text 184 283 <-- tones per octave;
#X obj 97 241 r \$0-length;
#X connect 0 0 1 0;
#X connect 1 0 9 0;
#X connect 1 1 2 0;
#X connect 2 0 3 0;
#X connect 2 0 17 0;
#X connect 3 0 10 0;
#X connect 4 0 11 0;
#X connect 5 0 19 0;
#X connect 7 0 18 0;
#X connect 8 0 0 0;
#X connect 11 0 6 0;
#X connect 12 0 11 1;
#X connect 14 0 4 0;
#X connect 16 0 14 1;
#X connect 18 0 13 0;
#X connect 18 1 1 0;
#X connect 19 0 20 0;
#X connect 20 0 14 0;
#X connect 21 0 19 2;
#X connect 22 0 21 0;
#X connect 24 0 19 1;
