#N canvas 579 189 167 474 10;
#X text 16 422 (c)2012 \, megrimm;
#X obj 22 10 inlet;
#X obj 22 57 timer;
#X obj 22 399 outlet;
#X obj 22 272 mavg 3;
#X obj 22 372 expr 60000/$f1;
#X obj 22 32 t b b;
#X obj 41 187 f;
#X obj 69 187 + 1;
#X obj 41 208 sel 3;
#X obj 22 81 t f b f;
#X obj 22 313 spigot;
#X msg 41 228 1;
#X msg 61 142 0;
#X obj 61 122 sel 1;
#X obj 70 165 s \$0-reset;
#X obj 55 292 r \$0-reset;
#X obj 41 249 s \$0-reset;
#X obj 61 102 > 1000;
#X obj 86 398 outlet;
#X connect 1 0 6 0;
#X connect 2 0 10 0;
#X connect 4 0 11 0;
#X connect 5 0 3 0;
#X connect 6 0 2 0;
#X connect 6 1 2 1;
#X connect 7 0 8 0;
#X connect 7 0 9 0;
#X connect 8 0 7 1;
#X connect 9 0 12 0;
#X connect 10 0 4 0;
#X connect 10 1 7 0;
#X connect 10 2 18 0;
#X connect 11 0 5 0;
#X connect 11 0 19 0;
#X connect 12 0 17 0;
#X connect 13 0 7 1;
#X connect 13 0 15 0;
#X connect 14 0 13 0;
#X connect 16 0 11 1;
#X connect 18 0 14 0;
