#N canvas 0 22 447 251 10;
#X obj 28 165 outlet;
#X obj 28 36 inlet;
#X obj 132 36 inlet;
#X obj 177 36 inlet;
#X obj 28 93 spigot 1;
#X obj 132 95 spigot 0;
#X obj 73 72 == 0;
#X obj 255 170 outlet;
#X obj 336 97 spigot 1;
#X obj 259 96 spigot 0;
#X obj 381 76 == 0;
#X connect 1 0 4 0;
#X connect 1 0 9 0;
#X connect 2 0 5 0;
#X connect 2 0 8 0;
#X connect 3 0 5 1;
#X connect 3 0 6 0;
#X connect 3 0 9 1;
#X connect 3 0 10 0;
#X connect 4 0 0 0;
#X connect 5 0 0 0;
#X connect 6 0 4 1;
#X connect 8 0 7 0;
#X connect 9 0 7 0;
#X connect 10 0 8 1;
