#N canvas 54 349 380 415 10;
#X floatatom 69 301 5 0 0 3 - - -, f 5;
#X floatatom 109 229 5 0 0 3 - - -, f 5;
#X floatatom 150 205 5 0 0 3 - - -, f 5;
#X msg 69 75 0;
#X msg 98 104 1;
#X obj 69 180 num.treetrav;
#X text 62 8 tree traversal system;
#X text 61 24 choose your own adventure style navigation;
#X text 144 228 Choice A;
#X text 186 205 Choice B;
#X text 108 300 Choice Made;
#X text 99 75 Choice A;
#X text 130 104 Choice B;
#X msg 150 151 reset;
#X connect 3 0 5 0;
#X connect 4 0 5 0;
#X connect 5 0 0 0;
#X connect 5 1 1 0;
#X connect 5 2 2 0;
#X connect 13 0 5 1;
