#N canvas 0 23 450 300 10;
#X obj 170 142 num.fmod;
#X floatatom 176 56 5 0 0 0 - - -, f 5;
#X floatatom 185 250 5 0 0 0 - - -, f 5;
#X floatatom 255 90 5 0 0 0 - - -, f 5;
#X obj 249 112 / 10;
#X floatatom 279 142 5 0 0 0 - - -, f 5;
#X connect 0 0 2 0;
#X connect 1 0 0 0;
#X connect 3 0 4 0;
#X connect 4 0 0 1;
#X connect 4 0 5 0;
