#N struct 1007-point float x0 float y0 float size float fg float in float grid;
#N canvas 849 38 567 772 12;
#X obj 175 144 pan.eight;
#X floatatom 174 70 5 0 0 0 - - - 0;
#X obj 186 172 print;
#X obj 179 356 else/circle 127 -1 1 -1 1 1 255 255 255 255 255 255 0 0 0 1 0 0 0.739631 0.673013 empty empty 1;
#X obj 179 548 else/f2s~;
#X obj 201 572 else/f2s~;
#X obj 179 493 unpack;
#X floatatom 179 520 5 0 0 0 - - - 0;
#X floatatom 227 519 5 0 0 0 - - - 0;
#X obj 98 394 noise~;
#X text 222 69 <-- panning with a number;
#X floatatom 105 252 5 0 0 0 - - - 0;
#X msg 105 275 \$1 \$1;
#X obj 133 657 env~;
#X obj 172 657 env~;
#X obj 211 657 env~;
#X obj 250 657 env~;
#X obj 250 681 nbx 3 14 -1e+37 1e+37 0 0 empty empty empty 0 -8 0 10 #dcdcdc #000000 #000000 0 256;
#X obj 211 681 nbx 3 14 -1e+37 1e+37 0 0 empty empty empty 0 -8 0 10 #dcdcdc #000000 #000000 0 256;
#X obj 172 681 nbx 3 14 -1e+37 1e+37 0 0 empty empty empty 0 -8 0 10 #dcdcdc #000000 #000000 0 256;
#X obj 133 681 nbx 3 14 -1e+37 1e+37 0 0 empty empty empty 0 -8 0 10 #dcdcdc #000000 #000000 0 256;
#X obj 289 657 env~;
#X obj 328 657 env~;
#X obj 367 657 env~;
#X obj 406 657 env~;
#X obj 406 681 nbx 3 14 -1e+37 1e+37 0 0 empty empty empty 0 -8 0 10 #dcdcdc #000000 #000000 0 256;
#X obj 367 681 nbx 3 14 -1e+37 1e+37 0 0 empty empty empty 0 -8 0 10 #dcdcdc #000000 #000000 0 256;
#X obj 328 681 nbx 3 14 -1e+37 1e+37 0 0 empty empty empty 0 -8 0 10 #dcdcdc #000000 #000000 0 256;
#X obj 289 681 nbx 3 14 -1e+37 1e+37 0 0 empty empty empty 0 -8 0 10 #dcdcdc #000000 #000000 0 256;
#X text 140 696 1;
#X text 181 696 2;
#X text 219 696 3;
#X text 260 696 4;
#X text 297 696 5;
#X text 338 696 6;
#X text 377 696 7;
#X text 419 696 8;
#X floatatom 302 571 8 -1 1 0 - - - 0;
#X obj 305 550 hsl 128 15 -1 1 0 0 empty empty empty -2 -8 0 10 #dcdcdc #000000 #000000 0 1;
#X text 344 549 spread;
#X obj 157 600 else/pan8~ -mode 1;
#N canvas 0 96 948 560 crosspan 0;
#X obj 255 503 outlet;
#X obj 359 63 select 1 2 3 4 5 6 7 8;
#X text 330 500 prob a better way to do this;
#X obj 359 17 inlet;
#X floatatom 753 53 5 0 0 0 - - - 0;
#X obj 27 324 line;
#X msg 27 299 \$1 \, \$2 \$3;
#X obj 27 275 pack f f f;
#X obj 24 169 t b b;
#X obj 24 216 s \$0-1;
#X obj 79 216 s \$0-2;
#X obj 26 247 r \$0-1;
#X obj 78 247 r \$0-2;
#X obj 130 247 r \$0-del;
#X obj 739 79 s \$0-del;
#X obj 137 170 t b b;
#X obj 137 217 s \$0-1;
#X obj 192 217 s \$0-2;
#X msg 192 193 -1;
#X msg 137 194 1;
#X obj 252 169 t b b;
#X obj 365 170 t b b;
#X msg 252 193 -0.7;
#X msg 307 192 0.7;
#X msg 365 194 0.7;
#X msg 420 193 -0.7;
#X msg 27 348 0 \$1;
#X obj 256 323 line;
#X msg 256 298 \$1 \, \$2 \$3;
#X obj 256 274 pack f f f;
#X obj 359 246 r \$0-del;
#X obj 252 216 s \$0-3;
#X obj 307 216 s \$0-4;
#X obj 365 217 s \$0-3;
#X obj 420 217 s \$0-4;
#X obj 255 246 r \$0-3;
#X obj 307 246 r \$0-4;
#X msg 256 347 \$1 \$1;
#X obj 477 322 line;
#X msg 477 297 \$1 \, \$2 \$3;
#X obj 477 273 pack f f f;
#X obj 474 167 t b b;
#X obj 580 245 r \$0-del;
#X obj 587 168 t b b;
#X msg 642 191 -1;
#X msg 587 192 1;
#X obj 702 167 t b b;
#X obj 815 168 t b b;
#X obj 705 318 line;
#X msg 705 293 \$1 \, \$2 \$3;
#X obj 705 269 pack f f f;
#X obj 809 244 r \$0-del;
#X obj 474 214 s \$0-5;
#X obj 529 214 s \$0-6;
#X obj 587 215 s \$0-5;
#X obj 642 215 s \$0-6;
#X obj 476 245 r \$0-5;
#X obj 528 245 r \$0-6;
#X obj 702 214 s \$0-7;
#X obj 757 214 s \$0-8;
#X obj 815 215 s \$0-7;
#X obj 870 215 s \$0-8;
#X obj 705 244 r \$0-7;
#X obj 757 244 r \$0-8;
#X msg 477 346 \$1 0;
#X msg 705 413 \$1 \$2;
#X obj 705 366 * -1;
#X obj 705 390 pack f f;
#X obj 705 342 t f f;
#X obj 739 22 inlet;
#X msg 24 193 -1;
#X msg 79 192 1;
#X msg 474 191 -1;
#X msg 529 190 1;
#X msg 702 191 0.7;
#X msg 757 190 -0.7;
#X msg 815 192 -0.7;
#X msg 870 191 0.7;
#X text 187 168 1;
#X text 415 168 2;
#X text 637 166 3;
#X text 865 166 4;
#X text 72 167 5;
#X text 300 167 6;
#X text 522 165 7;
#X text 750 165 8;
#X connect 1 0 15 0;
#X connect 1 1 21 0;
#X connect 1 2 43 0;
#X connect 1 3 47 0;
#X connect 1 4 8 0;
#X connect 1 5 20 0;
#X connect 1 6 41 0;
#X connect 1 7 46 0;
#X connect 3 0 1 0;
#X connect 4 0 14 0;
#X connect 5 0 26 0;
#X connect 6 0 5 0;
#X connect 7 0 6 0;
#X connect 8 0 70 0;
#X connect 8 1 71 0;
#X connect 11 0 7 0;
#X connect 12 0 7 1;
#X connect 13 0 7 2;
#X connect 15 0 19 0;
#X connect 15 1 18 0;
#X connect 18 0 17 0;
#X connect 19 0 16 0;
#X connect 20 0 22 0;
#X connect 20 1 23 0;
#X connect 21 0 24 0;
#X connect 21 1 25 0;
#X connect 22 0 31 0;
#X connect 23 0 32 0;
#X connect 24 0 33 0;
#X connect 25 0 34 0;
#X connect 26 0 0 0;
#X connect 27 0 37 0;
#X connect 28 0 27 0;
#X connect 29 0 28 0;
#X connect 30 0 29 2;
#X connect 35 0 29 0;
#X connect 36 0 29 1;
#X connect 37 0 0 0;
#X connect 38 0 64 0;
#X connect 39 0 38 0;
#X connect 40 0 39 0;
#X connect 41 0 72 0;
#X connect 41 1 73 0;
#X connect 42 0 40 2;
#X connect 43 0 45 0;
#X connect 43 1 44 0;
#X connect 44 0 55 0;
#X connect 45 0 54 0;
#X connect 46 0 74 0;
#X connect 46 1 75 0;
#X connect 47 0 76 0;
#X connect 47 1 77 0;
#X connect 48 0 68 0;
#X connect 49 0 48 0;
#X connect 50 0 49 0;
#X connect 51 0 50 2;
#X connect 56 0 40 0;
#X connect 57 0 40 1;
#X connect 62 0 50 0;
#X connect 63 0 50 1;
#X connect 64 0 0 0;
#X connect 65 0 0 0;
#X connect 66 0 67 0;
#X connect 67 0 65 0;
#X connect 68 0 66 0;
#X connect 68 1 67 1;
#X connect 69 0 14 0;
#X connect 70 0 9 0;
#X connect 71 0 10 0;
#X connect 72 0 52 0;
#X connect 73 0 53 0;
#X connect 74 0 58 0;
#X connect 75 0 59 0;
#X connect 76 0 60 0;
#X connect 77 0 61 0;
#X restore 280 315 pd crosspan;
#X floatatom 316 290 5 0 0 0 - - - 0;
#X obj 278 233 bng 19 250 50 0 empty empty empty 0 -10 0 12 #fcfcfc #000000 #000000;
#X floatatom 362 290 5 0 0 0 - - - 0;
#X text 405 289 <--delay;
#X text 308 233 <-- random back & forth;
#X floatatom 240 106 5 0 0 0 - - - 0;
#X text 287 107 <-- offset;
#N canvas 92 130 545 441 rnd 0;
#X obj 138 133 random 4;
#X obj 211 158 + 4;
#X obj 138 188 + 1;
#X obj 138 79 == 0;
#X obj 181 78 f;
#X obj 138 103 sel 0 1;
#X obj 211 133 random 4;
#X obj 138 49 inlet;
#X obj 138 308 outlet;
#X connect 0 0 2 0;
#X connect 1 0 2 0;
#X connect 2 0 8 0;
#X connect 3 0 4 0;
#X connect 3 0 5 0;
#X connect 4 0 3 1;
#X connect 5 0 0 0;
#X connect 5 1 6 0;
#X connect 6 0 1 0;
#X connect 7 0 3 0;
#X restore 278 262 pd rnd;
#X connect 0 0 2 0;
#X connect 0 0 3 0;
#X connect 1 0 0 0;
#X connect 3 0 6 0;
#X connect 4 0 40 1;
#X connect 5 0 40 2;
#X connect 6 0 7 0;
#X connect 6 1 8 0;
#X connect 7 0 4 0;
#X connect 8 0 5 0;
#X connect 9 0 40 0;
#X connect 11 0 12 0;
#X connect 12 0 3 0;
#X connect 13 0 20 0;
#X connect 14 0 19 0;
#X connect 15 0 18 0;
#X connect 16 0 17 0;
#X connect 21 0 28 0;
#X connect 22 0 27 0;
#X connect 23 0 26 0;
#X connect 24 0 25 0;
#X connect 37 0 40 3;
#X connect 38 0 37 0;
#X connect 40 0 13 0;
#X connect 40 1 14 0;
#X connect 40 2 15 0;
#X connect 40 3 16 0;
#X connect 40 4 21 0;
#X connect 40 5 22 0;
#X connect 40 6 23 0;
#X connect 40 7 24 0;
#X connect 41 0 3 0;
#X connect 42 0 41 0;
#X connect 43 0 49 0;
#X connect 44 0 41 1;
#X connect 47 0 0 1;
#X connect 49 0 41 0;
