#N canvas 282 96 363 361 12;
#X obj 102 238 pack;
#X msg 102 183 1 \$1;
#X obj 103 154 expr ($f1/8) * twopi;
#X obj 103 73 * -1;
#X obj 102 209 else/pol2car;
#X obj 102 314 outlet;
#X obj 228 221 v twopi;
#X obj 103 124 else/wrap2 0 8;
#X obj 103 99 + 5.5;
#X obj 125 266 else/initmess 0 0;
#X obj 228 194 else/pi 2;
#X obj 103 42 inlet;
#X connect 0 0 5 0;
#X connect 1 0 4 0;
#X connect 2 0 1 0;
#X connect 3 0 8 0;
#X connect 4 0 0 0;
#X connect 4 1 0 1;
#X connect 7 0 2 0;
#X connect 8 0 7 0;
#X connect 9 0 5 0;
#X connect 10 0 6 0;
#X connect 11 0 3 0;
