#N canvas 710 172 474 650 10;
#X obj 48 26 gemkeyboard;
#X obj 50 588 outlet;
#X obj 232 23 key;
#X msg 257 271 symbol a;
#X text 313 39 w a s d f g;
#X msg 232 318 symbol w;
#X msg 283 225 symbol s;
#X msg 308 179 symbol d;
#X msg 334 134 symbol f;
#X msg 359 89 symbol g;
#X text 90 49 w a s d f g;
#X obj 257 294 s \$0-symbol-a;
#X obj 232 340 s \$0-symbol-w;
#X obj 308 202 s \$0-symbol-d;
#X obj 334 156 s \$0-symbol-f;
#X obj 359 111 s \$0-symbol-g;
#X obj 283 248 s \$0-symbol-s;
#X msg 63 283 symbol a;
#X msg 48 329 symbol w;
#X msg 79 237 symbol s;
#X msg 94 192 symbol d;
#X msg 110 147 symbol f;
#X msg 125 104 symbol g;
#X obj 63 306 s \$0-symbol-a;
#X obj 48 351 s \$0-symbol-w;
#X obj 94 215 s \$0-symbol-d;
#X obj 110 169 s \$0-symbol-f;
#X obj 125 126 s \$0-symbol-g;
#X obj 79 260 s \$0-symbol-s;
#X obj 48 71 sel 13 0 1 2 3 5;
#X obj 53 413 r \$0-symbol-w;
#X obj 64 436 r \$0-symbol-a;
#X obj 74 459 r \$0-symbol-s;
#X obj 82 481 r \$0-symbol-d;
#X obj 90 503 r \$0-symbol-f;
#X obj 96 525 r \$0-symbol-g;
#X obj 232 64 sel 119 97 115 100 102 103;
#X connect 0 0 29 0;
#X connect 2 0 36 0;
#X connect 3 0 11 0;
#X connect 5 0 12 0;
#X connect 6 0 16 0;
#X connect 7 0 13 0;
#X connect 8 0 14 0;
#X connect 9 0 15 0;
#X connect 17 0 23 0;
#X connect 18 0 24 0;
#X connect 19 0 28 0;
#X connect 20 0 25 0;
#X connect 21 0 26 0;
#X connect 22 0 27 0;
#X connect 29 0 18 0;
#X connect 29 1 17 0;
#X connect 29 2 19 0;
#X connect 29 3 20 0;
#X connect 29 4 21 0;
#X connect 29 5 22 0;
#X connect 30 0 1 0;
#X connect 31 0 1 0;
#X connect 32 0 1 0;
#X connect 33 0 1 0;
#X connect 34 0 1 0;
#X connect 35 0 1 0;
#X connect 36 0 5 0;
#X connect 36 1 3 0;
#X connect 36 2 6 0;
#X connect 36 3 7 0;
#X connect 36 4 8 0;
#X connect 36 5 9 0;
