#N canvas 299 27 976 769 10;
#X obj 269 392 gemkeyboard;
#X obj 42 677 outlet;
#X obj 268 45 key;
#X msg 293 293 symbol a;
#X text 311 62 w a s d f g;
#X msg 268 340 symbol w;
#X msg 319 247 symbol s;
#X msg 344 201 symbol d;
#X msg 370 156 symbol f;
#X msg 395 111 symbol g;
#X text 311 415 w a s d f g;
#X obj 293 316 s \$0-symbol-a;
#X obj 268 362 s \$0-symbol-w;
#X obj 344 224 s \$0-symbol-d;
#X obj 370 178 s \$0-symbol-f;
#X obj 395 133 s \$0-symbol-g;
#X obj 319 270 s \$0-symbol-s;
#X msg 284 649 symbol a;
#X msg 269 695 symbol w;
#X msg 300 603 symbol s;
#X msg 315 558 symbol d;
#X msg 331 513 symbol f;
#X msg 346 470 symbol g;
#X obj 284 672 s \$0-symbol-a;
#X obj 269 717 s \$0-symbol-w;
#X obj 315 581 s \$0-symbol-d;
#X obj 331 535 s \$0-symbol-f;
#X obj 346 492 s \$0-symbol-g;
#X obj 300 626 s \$0-symbol-s;
#X obj 269 437 sel 13 0 1 2 3 5;
#X obj 23 53 r \$0-symbol-w;
#X obj 33 75 r \$0-symbol-a;
#X obj 43 98 r \$0-symbol-s;
#X obj 51 120 r \$0-symbol-d;
#X obj 59 142 r \$0-symbol-f;
#X obj 65 164 r \$0-symbol-g;
#X obj 268 86 sel 119 97 115 100 102 103;
#X obj 494 43 key;
#X obj 736 43 key;
#X text 534 60 q h e r t y;
#X text 776 59 z x c v b n;
#X text 44 717 (c)2014 \, megrimm;
#X obj 492 387 gemkeyboard;
#X obj 736 384 gemkeyboard;
#X text 759 406 z x c v b n;
#X text 520 410 q h e r t y;
#X obj 494 354 s \$0-symbol-q;
#X obj 520 309 s \$0-symbol-h;
#X obj 547 263 s \$0-symbol-e;
#X obj 573 216 s \$0-symbol-r;
#X obj 600 171 s \$0-symbol-t;
#X obj 626 127 s \$0-symbol-y;
#X obj 736 360 s \$0-symbol-z;
#X obj 760 314 s \$0-symbol-x;
#X obj 785 268 s \$0-symbol-c;
#X obj 809 222 s \$0-symbol-v;
#X obj 835 176 s \$0-symbol-b;
#X obj 858 131 s \$0-symbol-n;
#X obj 492 712 s \$0-symbol-q;
#X obj 507 667 s \$0-symbol-h;
#X obj 523 621 s \$0-symbol-e;
#X obj 538 576 s \$0-symbol-r;
#X obj 554 530 s \$0-symbol-t;
#X obj 569 487 s \$0-symbol-y;
#X obj 736 709 s \$0-symbol-z;
#X msg 736 687 symbol z;
#X obj 751 664 s \$0-symbol-x;
#X msg 750 641 symbol x;
#X obj 767 618 s \$0-symbol-c;
#X msg 767 595 symbol c;
#X obj 782 573 s \$0-symbol-v;
#X msg 782 550 symbol v;
#X obj 798 527 s \$0-symbol-b;
#X msg 798 505 symbol b;
#X obj 813 484 s \$0-symbol-n;
#X msg 813 462 symbol n;
#X msg 492 690 symbol q;
#X msg 507 644 symbol h;
#X msg 523 598 symbol e;
#X msg 538 553 symbol r;
#X msg 554 508 symbol t;
#X msg 569 465 symbol y;
#X msg 494 332 symbol q;
#X msg 520 286 symbol h;
#X msg 547 240 symbol e;
#X msg 573 193 symbol r;
#X msg 600 149 symbol t;
#X msg 626 105 symbol y;
#X msg 736 338 symbol z;
#X msg 760 291 symbol x;
#X msg 785 245 symbol c;
#X msg 809 199 symbol v;
#X msg 834 154 symbol b;
#X msg 858 109 symbol n;
#X obj 73 186 r \$0-symbol-q;
#X obj 81 208 r \$0-symbol-h;
#X obj 89 230 r \$0-symbol-e;
#X obj 98 252 r \$0-symbol-r;
#X obj 105 276 r \$0-symbol-t;
#X obj 113 298 r \$0-symbol-y;
#X obj 119 320 r \$0-symbol-z;
#X obj 127 343 r \$0-symbol-x;
#X obj 136 365 r \$0-symbol-c;
#X obj 143 388 r \$0-symbol-v;
#X obj 150 411 r \$0-symbol-b;
#X obj 156 434 r \$0-symbol-n;
#X obj 494 84 sel 113 104 101 114 116 121;
#X obj 736 84 sel 122 120 99 118 98 110;
#X obj 492 432 sel 12 4 14 15 17 16;
#X obj 736 429 sel 6 7 8 9 11 45;
#X connect 0 0 29 0;
#X connect 2 0 36 0;
#X connect 3 0 11 0;
#X connect 5 0 12 0;
#X connect 6 0 16 0;
#X connect 7 0 13 0;
#X connect 8 0 14 0;
#X connect 9 0 15 0;
#X connect 17 0 23 0;
#X connect 18 0 24 0;
#X connect 19 0 28 0;
#X connect 20 0 25 0;
#X connect 21 0 26 0;
#X connect 22 0 27 0;
#X connect 29 0 18 0;
#X connect 29 1 17 0;
#X connect 29 2 19 0;
#X connect 29 3 20 0;
#X connect 29 4 21 0;
#X connect 29 5 22 0;
#X connect 30 0 1 0;
#X connect 31 0 1 0;
#X connect 32 0 1 0;
#X connect 33 0 1 0;
#X connect 34 0 1 0;
#X connect 35 0 1 0;
#X connect 36 0 5 0;
#X connect 36 1 3 0;
#X connect 36 2 6 0;
#X connect 36 3 7 0;
#X connect 36 4 8 0;
#X connect 36 5 9 0;
#X connect 37 0 106 0;
#X connect 38 0 107 0;
#X connect 42 0 108 0;
#X connect 43 0 109 0;
#X connect 65 0 64 0;
#X connect 67 0 66 0;
#X connect 69 0 68 0;
#X connect 71 0 70 0;
#X connect 73 0 72 0;
#X connect 75 0 74 0;
#X connect 76 0 58 0;
#X connect 77 0 59 0;
#X connect 78 0 60 0;
#X connect 79 0 61 0;
#X connect 80 0 62 0;
#X connect 81 0 63 0;
#X connect 82 0 46 0;
#X connect 83 0 47 0;
#X connect 84 0 48 0;
#X connect 85 0 49 0;
#X connect 86 0 50 0;
#X connect 87 0 51 0;
#X connect 88 0 52 0;
#X connect 89 0 53 0;
#X connect 90 0 54 0;
#X connect 91 0 55 0;
#X connect 92 0 56 0;
#X connect 93 0 57 0;
#X connect 94 0 1 0;
#X connect 95 0 1 0;
#X connect 96 0 1 0;
#X connect 97 0 1 0;
#X connect 98 0 1 0;
#X connect 99 0 1 0;
#X connect 100 0 1 0;
#X connect 101 0 1 0;
#X connect 102 0 1 0;
#X connect 103 0 1 0;
#X connect 104 0 1 0;
#X connect 105 0 1 0;
#X connect 106 0 82 0;
#X connect 106 1 83 0;
#X connect 106 2 84 0;
#X connect 106 3 85 0;
#X connect 106 4 86 0;
#X connect 106 5 87 0;
#X connect 107 0 88 0;
#X connect 107 1 89 0;
#X connect 107 2 90 0;
#X connect 107 3 91 0;
#X connect 107 4 92 0;
#X connect 107 5 93 0;
#X connect 108 0 76 0;
#X connect 108 1 77 0;
#X connect 108 2 78 0;
#X connect 108 3 79 0;
#X connect 108 4 80 0;
#X connect 108 5 81 0;
#X connect 109 0 65 0;
#X connect 109 1 67 0;
#X connect 109 2 69 0;
#X connect 109 3 71 0;
#X connect 109 4 73 0;
#X connect 109 5 75 0;
