#N canvas 306 23 374 527 10;
#X obj 43 403 dac~ 1 2;
#X obj 114 381 snapshot~;
#X obj 114 402 nbx 5 14 -1e+37 1e+37 0 0 empty empty empty 0 -8 0 10
-262144 -1 -1 0 256;
#X obj 114 360 metro 100;
#X obj 114 340 tgl 15 0 empty empty empty 17 7 0 10 -262144 -1 -1 0
1;
#X obj 53 278 r \$0-tambura;
#X msg 43 254 print;
#X msg 72 149 1;
#X obj 169 194 s \$0-tambura;
#X text 284 166 <-- 0-0.5;
#X text 288 102 <-- 0-1;
#X msg 65 108 1;
#X msg 54 87 pluck1 \$1;
#X msg 54 68 1;
#X msg 44 25 1;
#X msg 65 127 pluck2 \$1;
#X msg 72 170 pluck3 \$1;
#X obj 43 197 s \$0-tambura;
#X msg 44 47 pluck0 \$1;
#X obj 44 430 loadbang;
#X msg 44 452 \; pd dsp 1;
#X obj 178 143 / 200;
#X floatatom 178 122 5 0 0 0 - - -;
#X msg 178 166 autopluckrate \$1;
#X msg 167 103 enableautopluck \$1;
#X obj 166 77 tgl 15 0 empty empty empty 17 7 0 10 -262144 -1 -1 0
1;
#N canvas 709 23 895 866 control 1;
#X msg 110 65 sa \$1;
#X msg 121 146 high_freq_loss \$1;
#X msg 129 228 harmonic_motion \$1;
#X msg 138 307 sympathetic_coupling \$1;
#X msg 144 391 jawari \$1;
#X msg 152 472 string_spread \$1;
#X msg 158 557 tune_scale \$1;
#X msg 405 71 material \$1;
#X msg 417 134 attack_time \$1;
#X msg 429 178 decay_time \$1;
#X msg 445 304 bend_depth \$1;
#X msg 451 370 bend_time \$1;
#X msg 455 431 volume \$1;
#X obj 114 700 s \$0-tambura;
#X floatatom 121 106 5 0 0 0 - - -;
#X floatatom 446 262 5 0 0 0 - - -;
#X floatatom 451 331 5 0 0 0 - - -;
#X obj 406 467 s \$0-tambura;
#X floatatom 405 28 5 0 0 0 - - -;
#X floatatom 417 92 5 0 0 0 - - -;
#X floatatom 429 156 5 0 0 0 - - -;
#X text 151 65 <-- 24-72;
#X text 236 146 <-- 0-1;
#X text 247 226 <-- 0-1;
#X text 288 307 <-- 0-1;
#X text 209 390 <-- 0-1;
#X text 261 472 <-- 0-1;
#X text 250 558 <-- 0.9-1.1;
#X msg 164 644 decay_scale \$1;
#X text 260 644 <-- 0.1-1;
#X text 482 68 <-- 0-1;
#X text 521 134 <-- 0-0.5;
#X text 531 173 <-- 1-100;
#X msg 438 240 position \$1;
#X floatatom 438 200 5 0 0 0 - - -;
#X text 524 238 <-- 0.01-0.5;
#X text 538 302 <-- 0-12;
#X text 535 366 <-- 1-200;
#X text 524 429 <-- -36-4;
#X floatatom 110 23 5 0 0 0 - - -;
#X obj 110 44 expr ($f1-0)*(24-72)/(0-100)+24;
#X obj 121 125 / 100;
#X floatatom 130 189 5 0 0 0 - - -;
#X obj 130 208 / 100;
#X floatatom 138 268 5 0 0 0 - - -;
#X obj 138 287 / 100;
#X floatatom 145 351 5 0 0 0 - - -;
#X obj 145 370 / 100;
#X floatatom 152 433 5 0 0 0 - - -;
#X obj 152 452 / 100;
#X obj 158 536 expr ($f1-0)*(0.9-1.1)/(0-100)+0.9;
#X floatatom 159 516 5 0 0 0 - - -;
#X floatatom 164 602 5 0 0 0 - - -;
#X obj 164 622 expr ($f1-0)*(0.1-1)/(0-100)+0.1;
#X obj 405 49 / 100;
#X obj 417 112 / 200;
#X obj 438 220 / 200;
#X obj 446 282 / 8.333;
#X obj 451 351 * 2;
#X obj 456 412 expr ($f1-0)*(-34-4)/(0-100)+-34;
#X floatatom 456 393 5 0 0 0 - - -;
#X obj 654 493 f \$0;
#X obj 653 473 bng 15 250 50 0 empty empty empty 17 7 0 10 -262144
-1 -1;
#X msg 654 515 \; \$1-sa 50;
#X obj 110 4 r \$0-sa;
#X obj 121 86 r \$0-high_freq_loss;
#X obj 130 168 r \$0-harmonic_motion;
#X obj 137 249 r \$0-symathetic_coupling;
#X obj 145 331 r \$0-jawari;
#X obj 152 413 r \$0-starting_spread;
#X obj 159 496 r \$0-tune_scale;
#X obj 163 582 r \$0-decay_scale;
#X connect 0 0 13 0;
#X connect 1 0 13 0;
#X connect 2 0 13 0;
#X connect 3 0 13 0;
#X connect 4 0 13 0;
#X connect 5 0 13 0;
#X connect 6 0 13 0;
#X connect 7 0 17 0;
#X connect 8 0 17 0;
#X connect 9 0 17 0;
#X connect 10 0 17 0;
#X connect 11 0 17 0;
#X connect 12 0 17 0;
#X connect 14 0 41 0;
#X connect 15 0 57 0;
#X connect 16 0 58 0;
#X connect 18 0 54 0;
#X connect 19 0 55 0;
#X connect 20 0 9 0;
#X connect 28 0 13 0;
#X connect 33 0 17 0;
#X connect 34 0 56 0;
#X connect 39 0 40 0;
#X connect 40 0 0 0;
#X connect 41 0 1 0;
#X connect 42 0 43 0;
#X connect 43 0 2 0;
#X connect 44 0 45 0;
#X connect 45 0 3 0;
#X connect 46 0 47 0;
#X connect 47 0 4 0;
#X connect 48 0 49 0;
#X connect 49 0 5 0;
#X connect 50 0 6 0;
#X connect 51 0 50 0;
#X connect 52 0 53 0;
#X connect 53 0 28 0;
#X connect 54 0 7 0;
#X connect 55 0 8 0;
#X connect 56 0 33 0;
#X connect 57 0 10 0;
#X connect 58 0 11 0;
#X connect 59 0 12 0;
#X connect 60 0 59 0;
#X connect 61 0 63 0;
#X connect 62 0 61 0;
#X connect 64 0 39 0;
#X connect 65 0 14 0;
#X connect 66 0 42 0;
#X connect 67 0 44 0;
#X connect 68 0 46 0;
#X connect 69 0 48 0;
#X connect 70 0 51 0;
#X connect 71 0 52 0;
#X restore 42 227 pd control;
#X obj 43 301 faustgen~/faustgen~ pm.tambura, f 19;
#X connect 1 0 2 0;
#X connect 3 0 1 0;
#X connect 4 0 3 0;
#X connect 5 0 27 0;
#X connect 6 0 27 0;
#X connect 7 0 16 0;
#X connect 11 0 15 0;
#X connect 12 0 17 0;
#X connect 13 0 12 0;
#X connect 14 0 18 0;
#X connect 15 0 17 0;
#X connect 16 0 17 0;
#X connect 18 0 17 0;
#X connect 19 0 20 0;
#X connect 21 0 23 0;
#X connect 22 0 21 0;
#X connect 23 0 8 0;
#X connect 24 0 8 0;
#X connect 25 0 24 0;
#X connect 27 0 0 0;
#X connect 27 0 0 1;
#X connect 27 0 1 0;
