#N canvas 132 38 863 769 12;
#X obj 153 577 dac~;
#X obj 154 523 osc~;
#X msg 106 35 8000;
#X obj 154 472 r \$0-pitches;
#X obj 106 136 s \$0-pitches;
#X msg 115 60 12000;
#X text 159 59 <-- hard for anyone over 50;
#X text 146 34 <-- easily heard by everyone with normal hearing;
#X msg 123 85 15000;
#X text 167 84 <-- difficult for anyone over 40;
#X msg 131 109 17400;
#X text 174 108 <-- difficult for over age of 18;
#X msg 265 500 \; pd dsp 1 \;;
#X obj 265 471 loadbang;
#X msg 114 471 0;
#X msg 110 185 432;
#X text 149 185 <-- Verdi pitch standard of A4 = 432 Hz = 2(pow 4) × 3(pow 3), f 62;
#X text 148 244 <-- Schumann resonance of earth (fundemental);
#X msg 110 246 7.83;
#X obj 110 213 s \$0-pitches;
#X obj 110 273 s \$0-pitches;
#X text 154 307 <-- brown note myth 5->9hz;
#X floatatom 110 308 5 5 9 0 - - - 0;
#X obj 110 332 s \$0-pitches;
#X connect 1 0 0 0;
#X connect 1 0 0 1;
#X connect 2 0 4 0;
#X connect 3 0 1 0;
#X connect 5 0 4 0;
#X connect 8 0 4 0;
#X connect 10 0 4 0;
#X connect 13 0 12 0;
#X connect 14 0 1 0;
#X connect 15 0 19 0;
#X connect 18 0 20 0;
#X connect 22 0 23 0;
