#N canvas 133 417 450 300 10;
#X obj 186 62 metro 500;
#X obj 187 168 timer;
#X obj 187 140 t b b;
#X obj 187 199 print;
#X msg 186 29 1;
#X msg 222 29 0;
#X obj 284 197 print;
#X floatatom 284 81 5 0 0 0 - - -, f 5;
#X obj 284 127 mtof;
#X obj 187 102 rnd.humanize;
#X obj 284 100 rnd.humanize;
#X connect 0 0 9 0;
#X connect 1 0 3 0;
#X connect 2 0 1 0;
#X connect 2 1 1 1;
#X connect 4 0 0 0;
#X connect 5 0 0 0;
#X connect 7 0 10 0;
#X connect 8 0 6 0;
#X connect 9 0 2 0;
#X connect 10 0 8 0;
