#N canvas 0 23 230 282 10;
#X obj 29 115 clip~ -0.9 0.9;
#X obj 29 135 hip~ 25;
#X obj 29 92 hip~ 25;
#X obj 29 46 bp~ 30 5;
#X obj 29 71 *~ 100;
#X obj 29 159 *~ 0.6;
#X obj 29 244 outlet~;
#X obj 29 18 inlet~;
#X obj 29 218 *~ 1;
#X obj 50 199 / 100;
#X obj 120 19 inlet;
#X obj 120 40 route vol;
#X obj 120 61 s \$0-lapvol;
#X obj 50 179 r \$0-lapvol;
#X connect 0 0 1 0;
#X connect 1 0 5 0;
#X connect 2 0 0 0;
#X connect 3 0 4 0;
#X connect 4 0 2 0;
#X connect 5 0 8 0;
#X connect 7 0 3 0;
#X connect 8 0 6 0;
#X connect 9 0 8 1;
#X connect 10 0 11 0;
#X connect 11 0 12 0;
#X connect 13 0 9 0;
