#N canvas 161 154 220 233 10;
#X obj 21 84 +~;
#X obj 21 22 inlet~;
#X obj 23 174 outlet~;
#X obj 23 128 delread~ \$0-a \$1;
#X obj 31 153 s~ \$0-fba;
#X obj 37 43 r~ \$0-fba;
#X obj 22 105 delwrite~ \$0-a 100;
#X obj 37 63 *~ \$2;
#X obj 166 29 inlet;
#X obj 121 27 inlet;
#X connect 0 0 6 0;
#X connect 1 0 0 0;
#X connect 3 0 2 0;
#X connect 3 0 4 0;
#X connect 5 0 7 0;
#X connect 7 0 0 1;
#X connect 8 0 7 1;
#X connect 9 0 3 0;
