#N canvas 0 23 246 405 10;
#X obj 51 304 sd.fire.hissing~;
#X obj 51 364 dac~;
#X msg 144 237 vol \$1;
#X floatatom 144 216 5 0 0 0 - - -, f 5;
#X obj 51 35 noise~;
#X obj 113 34 fresh/nz.pink~;
#X obj 51 177 *~;
#X obj 134 152 == 0;
#X msg 149 98 0;
#X msg 149 122 1;
#X obj 113 176 *~ 0;
#X text 182 96 pink;
#X text 182 119 noise;
#X obj 157 258 bng 15 250 50 0 empty empty empty 17 7 0 10 -262144
-1 -1;
#X connect 0 0 1 0;
#X connect 0 0 1 1;
#X connect 2 0 0 1;
#X connect 3 0 2 0;
#X connect 4 0 6 0;
#X connect 5 0 10 0;
#X connect 6 0 0 0;
#X connect 7 0 10 1;
#X connect 8 0 7 0;
#X connect 8 0 6 1;
#X connect 9 0 7 0;
#X connect 9 0 6 1;
#X connect 10 0 0 0;
#X connect 13 0 0 1;
