#N canvas 325 86 736 577 10;
#X obj 420 38 noise~;
#X obj 26 510 outlet~;
#X obj 230 260 sd.fire.hissing~;
#X obj 420 233 sd.fire.lapping~;
#X obj 26 18 inlet;
#X obj 26 155 s \$0-crackvol;
#X obj 83 136 s \$0-hissvol;
#X obj 141 117 s \$0-lapvol;
#X obj 513 195 r \$0-lapvol;
#X obj 330 219 r \$0-hissvol;
#X obj 132 249 r \$0-crackvol;
#X obj 420 57 s~ \$0-comnoise;
#X obj 26 178 r~ \$0-comnoise;
#X obj 229 177 r~ \$0-comnoise;
#X obj 420 177 r~ \$0-comnoise;
#X obj 420 272 *~ 1;
#X obj 47 354 random 100;
#X obj 47 373 / 100;
#X obj 47 411 line;
#X obj 230 300 *~ 1;
#X obj 26 430 *~ 1;
#X msg 132 268 vol \$1;
#X msg 330 238 vol \$1;
#X msg 513 214 vol \$1;
#X msg 47 392 \$1 50;
#X obj 125 309 s \$0-crackbng;
#X obj 47 335 r \$0-crackbng;
#X obj 323 199 r \$0-crackbng;
#X obj 420 253 *~ 0.8;
#X obj 26 310 *~ 0.05;
#X obj 230 280 *~ 0.15;
#X obj 198 98 s \$0-creakvol;
#X obj 604 194 r \$0-creakvol;
#X msg 604 213 vol \$1;
#X obj 596 273 *~ 1;
#X obj 596 254 *~ 0.8;
#X obj 596 174 r \$0-creakbng;
#X obj 420 154 s \$0-creakbng;
#X obj 420 135 t b b;
#X obj 497 134 + 10000;
#X msg 420 95 1;
#X msg 453 95 0;
#X obj 230 510 outlet~;
#X obj 421 508 outlet~;
#X obj 596 506 outlet~;
#X obj 26 488 bp~ \$1 \$2;
#X obj 230 359 bp~ \$1 \$2;
#X obj 420 329 bp~ \$1 \$2;
#X obj 596 331 bp~ \$1 \$2;
#X obj 256 79 s \$0-bandpass;
#X obj 51 468 unpack f f;
#X obj 51 450 r \$0-bandpass;
#X obj 255 338 unpack f f;
#X obj 255 319 r \$0-bandpass;
#X obj 445 310 unpack f f;
#X obj 445 291 r \$0-bandpass;
#X obj 621 311 unpack f f;
#X obj 621 292 r \$0-bandpass;
#X obj 420 76 loadbang;
#X obj 420 116 metro 20000;
#X obj 497 115 random 20000;
#X obj 26 290 sd.fire.crackles~;
#X msg 125 230 amt \$1;
#X obj 125 211 r \$0-crackamt;
#X obj 26 40 route crackle hissing lapping creaking bandpass crackleamt
;
#X obj 313 60 s \$0-crackamt;
#X obj 596 234 sd.fire.creaking~;
#X connect 0 0 11 0;
#X connect 2 0 30 0;
#X connect 3 0 28 0;
#X connect 4 0 64 0;
#X connect 8 0 23 0;
#X connect 9 0 22 0;
#X connect 10 0 21 0;
#X connect 12 0 61 0;
#X connect 13 0 2 0;
#X connect 14 0 3 0;
#X connect 15 0 47 0;
#X connect 16 0 17 0;
#X connect 17 0 24 0;
#X connect 18 0 20 1;
#X connect 19 0 46 0;
#X connect 20 0 45 0;
#X connect 21 0 61 1;
#X connect 22 0 2 1;
#X connect 23 0 3 1;
#X connect 24 0 18 0;
#X connect 26 0 16 0;
#X connect 27 0 2 1;
#X connect 28 0 15 0;
#X connect 29 0 20 0;
#X connect 30 0 19 0;
#X connect 32 0 33 0;
#X connect 33 0 66 0;
#X connect 34 0 48 0;
#X connect 35 0 34 0;
#X connect 36 0 66 0;
#X connect 38 0 37 0;
#X connect 38 1 60 0;
#X connect 39 0 59 1;
#X connect 40 0 59 0;
#X connect 41 0 59 0;
#X connect 45 0 1 0;
#X connect 46 0 42 0;
#X connect 47 0 43 0;
#X connect 48 0 44 0;
#X connect 50 0 45 1;
#X connect 50 1 45 2;
#X connect 51 0 50 0;
#X connect 52 0 46 1;
#X connect 52 1 46 2;
#X connect 53 0 52 0;
#X connect 54 0 47 1;
#X connect 54 1 47 2;
#X connect 55 0 54 0;
#X connect 56 0 48 1;
#X connect 56 1 48 2;
#X connect 57 0 56 0;
#X connect 58 0 40 0;
#X connect 59 0 38 0;
#X connect 60 0 39 0;
#X connect 61 0 29 0;
#X connect 61 1 25 0;
#X connect 62 0 61 1;
#X connect 63 0 62 0;
#X connect 64 0 5 0;
#X connect 64 1 6 0;
#X connect 64 2 7 0;
#X connect 64 3 31 0;
#X connect 64 4 49 0;
#X connect 64 5 65 0;
#X connect 66 0 35 0;
