#N canvas 0 23 343 446 10;
#X msg 114 46 freq \$1;
#X msg 127 88 que \$1;
#X msg 135 128 lop1 \$1;
#X msg 142 170 lop2 \$1;
#X msg 150 214 amp \$1;
#X floatatom 114 28 5 0 0 0 - - -, f 5;
#X floatatom 127 69 5 0 0 0 - - -, f 5;
#X floatatom 135 110 5 0 0 0 - - -, f 5;
#X floatatom 142 150 5 0 0 0 - - -, f 5;
#X floatatom 150 194 5 0 0 0 - - -, f 5;
#X msg 156 256 vol \$1;
#X floatatom 156 239 5 0 0 0 - - -, f 5;
#X obj 111 356 dac~;
#X obj 111 310 sd.nat.rumble~;
#X connect 0 0 13 0;
#X connect 1 0 13 0;
#X connect 2 0 13 0;
#X connect 3 0 13 0;
#X connect 4 0 13 0;
#X connect 5 0 0 0;
#X connect 6 0 1 0;
#X connect 7 0 2 0;
#X connect 8 0 3 0;
#X connect 9 0 4 0;
#X connect 10 0 13 0;
#X connect 11 0 10 0;
#X connect 13 0 12 0;
#X connect 13 0 12 1;
