#N canvas 521 368 238 243 10;
#X obj 37 49 f;
#X obj 67 49 + 1;
#X obj 37 23 inlet;
#X obj 37 73 % 8;
#X obj 38 154 outlet;
#X obj 37 118 t b;
#X obj 73 119 sel 2 6;
#X obj 92 154 outlet;
#X obj 127 119 sel 2 6;
#X obj 166 153 outlet;
#X text 41 186 megrimm 2017;
#X connect 0 0 1 0;
#X connect 0 0 3 0;
#X connect 1 0 0 1;
#X connect 2 0 0 0;
#X connect 3 0 5 0;
#X connect 3 0 6 0;
#X connect 3 0 8 0;
#X connect 5 0 4 0;
#X connect 6 0 7 0;
#X connect 6 1 7 0;
#X connect 8 2 9 0;
