#N canvas 525 23 450 300 10;
#X text 194 66 onset (first index to write to);
#X obj 98 128 array set dynarray;
#X msg 98 42 0 1 2 3 4 5 6 7;
#X obj 98 201 array size dynarray;
#X msg 98 175 8;
#X obj 97 237 array define dynarray;
#X obj 242 199 array get dynarray;
#X floatatom 245 170 5 0 0 0 - - -, f 5;
#X obj 256 145 bng 15 250 50 0 empty empty empty 17 7 0 10 -262144
-1 -1;
#X obj 242 238 print;
#X msg 242 218 \$1;
#X connect 2 0 1 0;
#X connect 4 0 3 0;
#X connect 6 0 10 0;
#X connect 7 0 6 0;
#X connect 8 0 6 0;
#X connect 10 0 9 0;
