#N canvas 554 258 501 376 10;
#N canvas 93 451 429 328 \$0-guts 0;
#X restore 33 102 pd \$0-guts;
#X text 190 21 to dynamically create a select based sequencer;
#X text 188 63 need [initbang] if to retain outlets;
#N canvas 932 286 1 1 \$0-selgut 0;
#X msg 191 364 0 1;
#X msg 260 373 obj 10 150 sel;
#X obj 191 415 list trim;
#X obj 191 394 list prepend;
#X obj 187 324 print;
#X obj 119 93 until;
#X msg 137 40 3;
#X obj 119 149 f;
#X obj 146 149 + 1;
#X obj 119 68 t f f, f 13;
#X msg 202 437 clear;
#X msg 176 39 8;
#X obj 181 192 sel;
#X msg 134 126 0;
#X obj 196 171 - 1;
#X obj 146 249 list prepend;
#X obj 146 274 t a a;
#X obj 125 298 list;
#X obj 188 226 t b b;
#X obj 146 226 - 1;
#X obj 125 328 t l b b;
#X obj 119 15 inlet;
#X obj 191 459 s pd-\$0-guts;
#X connect 0 0 3 0;
#X connect 1 0 3 1;
#X connect 2 0 22 0;
#X connect 3 0 2 0;
#X connect 5 0 7 0;
#X connect 6 0 9 0;
#X connect 7 0 8 0;
#X connect 7 0 12 0;
#X connect 8 0 7 1;
#X connect 8 0 19 0;
#X connect 9 0 5 0;
#X connect 9 1 13 0;
#X connect 9 1 14 0;
#X connect 10 0 22 0;
#X connect 11 0 9 0;
#X connect 12 0 5 1;
#X connect 12 0 18 0;
#X connect 13 0 7 1;
#X connect 14 0 12 1;
#X connect 15 0 16 0;
#X connect 16 0 17 1;
#X connect 16 1 15 1;
#X connect 17 0 4 0;
#X connect 17 0 20 0;
#X connect 18 0 17 0;
#X connect 18 1 15 1;
#X connect 19 0 15 0;
#X connect 20 0 3 0;
#X connect 20 1 1 0;
#X connect 20 2 10 0;
#X connect 21 0 9 0;
#X restore 32 59 pd \$0-selgut;
#X obj 32 33 inlet;
#X connect 4 0 3 0;
