#N canvas 532 54 344 462 10;
#X obj 54 82 metro 500;
#X msg 63 54 0;
#X msg 54 32 1;
#X obj 54 305 syn.snare.min~;
#X obj 189 303 syn.kick.min~;
#X obj 54 386 dac~;
#X floatatom 105 59 5 0 0 0 - - -, f 5;
#X obj 54 111 f;
#X obj 84 111 + 1;
#X obj 54 133 mod 2;
#X obj 54 156 sel 0 1;
#X obj 150 255 seq.min;
#X obj 54 256 seq.min;
#X floatatom 189 233 5 0 0 0 - - -, f 5;
#X floatatom 93 236 5 0 0 0 - - -, f 5;
#X connect 0 0 7 0;
#X connect 1 0 0 0;
#X connect 2 0 0 0;
#X connect 3 0 5 0;
#X connect 3 0 5 1;
#X connect 4 0 5 1;
#X connect 4 0 5 0;
#X connect 6 0 0 1;
#X connect 7 0 8 0;
#X connect 7 0 9 0;
#X connect 8 0 7 1;
#X connect 9 0 10 0;
#X connect 10 0 12 0;
#X connect 10 1 11 0;
#X connect 11 1 4 0;
#X connect 12 1 3 0;
#X connect 13 0 11 1;
#X connect 14 0 12 1;
