#N canvas 198 238 743 583 10;
#X obj 234 464 random 16;
#X obj 93 185 f;
#X obj 122 185 + 1;
#X obj 391 449 sel 0;
#X obj 413 337 sel 5 13;
#X obj 391 469 random 7;
#X obj 391 428 random 2;
#X obj 94 273 mod 16;
#X obj 93 209 / 2;
#X obj 93 231 int;
#X obj 94 252 change;
#X obj 92 148 del 100;
#X obj 131 108 / 2;
#N canvas 0 22 729 266 rupto 0;
#X obj 106 124 f;
#X obj 135 124 + 1;
#X obj 146 176 sel 1;
#X msg 148 199 0;
#X obj 164 25 inlet;
#X floatatom 204 155 5 0 0 0 - - -, f 5;
#X floatatom 89 162 5 0 0 0 - - -, f 5;
#X msg 191 50 bang;
#X obj 145 153 >=;
#X obj 96 96 spigot;
#X msg 160 73 1;
#X obj 54 161 t b;
#X obj 98 24 inlet;
#X obj 59 207 outlet;
#X text 83 7 metro;
#X text 162 8 trigbang;
#X text 286 129 send out random bangs at metro freq when triggered
;
#X obj 193 101 random 6;
#X obj 290 20 inlet;
#X connect 0 0 1 0;
#X connect 0 0 6 0;
#X connect 0 0 8 0;
#X connect 0 0 11 0;
#X connect 1 0 0 1;
#X connect 2 0 3 0;
#X connect 3 0 0 1;
#X connect 3 0 9 1;
#X connect 4 0 7 0;
#X connect 4 0 10 0;
#X connect 7 0 17 0;
#X connect 8 0 2 0;
#X connect 9 0 0 0;
#X connect 10 0 9 1;
#X connect 11 0 13 0;
#X connect 12 0 9 0;
#X connect 17 0 5 0;
#X connect 17 0 8 1;
#X connect 18 0 17 1;
#X restore 391 407 pd rupto;
#X obj 256 373 sel 0 8;
#N canvas 0 22 729 266 rupto 0;
#X obj 106 124 f;
#X obj 135 124 + 1;
#X obj 146 176 sel 1;
#X msg 148 199 0;
#X obj 164 25 inlet;
#X floatatom 204 155 5 0 0 0 - - -, f 5;
#X floatatom 89 162 5 0 0 0 - - -, f 5;
#X msg 191 50 bang;
#X obj 145 153 >=;
#X obj 96 96 spigot;
#X msg 160 73 1;
#X obj 54 161 t b;
#X obj 98 24 inlet;
#X obj 59 207 outlet;
#X text 83 7 metro;
#X text 162 8 trigbang;
#X text 286 129 send out random bangs at metro freq when triggered
;
#X obj 193 101 random 6;
#X obj 290 20 inlet;
#X connect 0 0 1 0;
#X connect 0 0 6 0;
#X connect 0 0 8 0;
#X connect 0 0 11 0;
#X connect 1 0 0 1;
#X connect 2 0 3 0;
#X connect 3 0 0 1;
#X connect 3 0 9 1;
#X connect 4 0 7 0;
#X connect 4 0 10 0;
#X connect 7 0 17 0;
#X connect 8 0 2 0;
#X connect 9 0 0 0;
#X connect 10 0 9 1;
#X connect 11 0 13 0;
#X connect 12 0 9 0;
#X connect 17 0 5 0;
#X connect 17 0 8 1;
#X connect 18 0 17 1;
#X restore 234 443 pd rupto;
#X obj 128 457 mod 7;
#X obj 127 419 int;
#X floatatom 127 440 5 0 0 0 - - -, f 5;
#X obj 275 90 t;
#X obj 131 87 f;
#X obj 39 115 metro 300;
#X obj 131 128 * 0.6;
#X msg 172 58 300;
#X obj 172 37 loadbang;
#X obj 436 385 int;
#X obj 279 422 int;
#X obj 275 53 r \$0-busy;
#X obj 251 32 r \$0-swing;
#X obj 131 11 r \$0-speed;
#X obj 127 394 r \$0-hhsteps;
#X obj 279 401 r \$0-kicksteps;
#X obj 436 364 r \$0-snaresteps;
#X obj 25 56 inlet;
#X obj 467 169 s \$0-busy;
#X obj 515 147 s \$0-swing;
#X obj 420 194 s \$0-speed;
#X obj 657 81 s \$0-hhsteps;
#X obj 562 126 s \$0-kicksteps;
#X obj 610 103 s \$0-snaresteps;
#X obj 420 33 inlet;
#X obj 128 482 outlet;
#X obj 234 488 outlet;
#X obj 391 491 outlet;
#X obj 420 56 route speed busy swing kicksteps snsteps hhsteps;
#X connect 0 0 42 0;
#X connect 1 0 2 0;
#X connect 1 0 8 0;
#X connect 2 0 1 1;
#X connect 3 0 5 0;
#X connect 4 0 13 1;
#X connect 4 1 13 1;
#X connect 5 0 43 0;
#X connect 6 0 3 0;
#X connect 7 0 4 0;
#X connect 7 0 14 0;
#X connect 7 0 16 0;
#X connect 8 0 9 0;
#X connect 9 0 10 0;
#X connect 10 0 7 0;
#X connect 11 0 1 0;
#X connect 11 0 13 0;
#X connect 11 0 15 0;
#X connect 12 0 22 0;
#X connect 13 0 6 0;
#X connect 14 0 15 1;
#X connect 14 1 15 1;
#X connect 15 0 0 0;
#X connect 16 0 41 0;
#X connect 17 0 18 0;
#X connect 17 0 16 1;
#X connect 19 0 20 0;
#X connect 20 0 12 0;
#X connect 20 0 21 1;
#X connect 21 0 11 0;
#X connect 21 0 1 0;
#X connect 21 0 15 0;
#X connect 21 0 13 0;
#X connect 22 0 11 1;
#X connect 23 0 20 0;
#X connect 24 0 23 0;
#X connect 25 0 13 2;
#X connect 26 0 15 2;
#X connect 27 0 8 1;
#X connect 27 0 19 0;
#X connect 28 0 19 0;
#X connect 28 0 22 1;
#X connect 29 0 20 0;
#X connect 30 0 17 0;
#X connect 31 0 26 0;
#X connect 32 0 25 0;
#X connect 33 0 21 0;
#X connect 40 0 44 0;
#X connect 44 0 36 0;
#X connect 44 1 34 0;
#X connect 44 2 35 0;
#X connect 44 3 38 0;
#X connect 44 4 39 0;
#X connect 44 5 37 0;
