#N canvas 599 52 522 267 10;
#X obj 134 107 dac~;
#X msg 259 -28 4410;
#X obj 99 91 *~;
#X obj 76 39 tgl 15 0 empty empty empty 0 -6 0 8 -262144 -1 -1 0 3
;
#X obj 96 38 == 0;
#X obj 131 -12 +~;
#X obj 130 -36 adc~;
#X obj 75 -2 keyup;
#X obj 75 19 sel 32;
#N canvas 424 22 323 170 select 0;
#X obj 105 114 outlet;
#X obj 148 115 outlet;
#X obj 61 113 outlet;
#X obj 121 62 sel 0 1 2 3 4 5;
#X obj 121 40 random 6;
#X obj 235 116 outlet;
#X obj 278 116 outlet;
#X obj 191 116 outlet;
#X obj 61 95 bng 15 250 50 0 empty empty empty 17 7 0 10 -262144 -1
-1;
#X obj 106 95 bng 15 250 50 0 empty empty empty 17 7 0 10 -262144 -1
-1;
#X obj 148 98 bng 15 250 50 0 empty empty empty 17 7 0 10 -262144 -1
-1;
#X obj 191 98 bng 15 250 50 0 empty empty empty 17 7 0 10 -262144 -1
-1;
#X obj 235 99 bng 15 250 50 0 empty empty empty 17 7 0 10 -262144 -1
-1;
#X obj 277 98 bng 15 250 50 0 empty empty empty 17 7 0 10 -262144 -1
-1;
#N canvas 758 22 400 300 control 0;
#X obj 139 126 realtime;
#X obj 139 104 sel 0 1;
#X obj 139 85 tgl 15 0 empty empty empty 17 7 0 10 -262144 -1 -1 1
1;
#X obj 139 43 keyup;
#X obj 291 134 random 600;
#X obj 291 112 metro 200;
#X obj 291 155 spigot;
#X obj 360 154 tgl 15 0 empty empty empty 17 7 0 10 -262144 -1 -1 0
575;
#X obj 291 177 outlet;
#X obj 206 -7 loadbang;
#X obj 206 15 outlet;
#X obj 139 174 outlet;
#X obj 139 149 spigot;
#X obj 199 149 tgl 15 0 empty empty empty 17 7 0 10 -262144 -1 -1 552.781
552.781;
#X obj 199 85 bng 15 250 50 0 empty empty empty 17 7 0 10 -262144 -1
-1;
#X obj 139 64 sel 103;
#X obj 190 63 sel 104;
#X obj 291 38 keyup;
#X obj 291 61 sel 104;
#X obj 343 61 sel 103;
#X obj 360 87 bng 15 250 50 0 empty empty empty 17 7 0 10 -262144 -1
-1;
#X obj 291 86 tgl 15 0 empty empty empty 17 7 0 10 -262144 -1 -1 0
1;
#X obj 95 63 sel 98;
#X text 31 213 H to Random G for Tap Tempo B to adjust Tap Tempo;
#X connect 0 0 12 0;
#X connect 1 0 0 0;
#X connect 1 1 0 1;
#X connect 2 0 1 0;
#X connect 3 0 15 0;
#X connect 3 0 22 0;
#X connect 4 0 6 0;
#X connect 5 0 4 0;
#X connect 6 0 7 0;
#X connect 6 0 8 0;
#X connect 7 0 6 1;
#X connect 9 0 10 0;
#X connect 9 0 2 0;
#X connect 9 0 13 0;
#X connect 12 0 11 0;
#X connect 12 0 13 0;
#X connect 13 0 12 1;
#X connect 14 0 13 0;
#X connect 14 0 2 0;
#X connect 15 0 2 0;
#X connect 15 0 10 0;
#X connect 15 0 13 0;
#X connect 15 1 16 0;
#X connect 16 0 14 0;
#X connect 17 0 18 0;
#X connect 18 0 21 0;
#X connect 18 0 7 0;
#X connect 18 0 10 0;
#X connect 18 1 19 0;
#X connect 19 0 20 0;
#X connect 20 0 7 0;
#X connect 20 0 21 0;
#X connect 21 0 5 0;
#X connect 22 0 2 0;
#X restore 121 -22 pd control;
#X obj 121 19 metro;
#X floatatom 180 -4 5 0 0 0 - - -;
#X floatatom 162 16 5 0 0 0 - - -;
#X obj 64 -22 keyup;
#X obj 64 -3 sel 32;
#X obj 64 17 tgl 15 0 empty empty empty 17 7 0 10 -262144 -1 -1 1 1
;
#X obj 9 -21 loadbang;
#X connect 3 0 8 0;
#X connect 3 1 9 0;
#X connect 3 2 10 0;
#X connect 3 3 11 0;
#X connect 3 4 12 0;
#X connect 3 5 13 0;
#X connect 4 0 3 0;
#X connect 8 0 2 0;
#X connect 9 0 0 0;
#X connect 10 0 1 0;
#X connect 11 0 7 0;
#X connect 12 0 5 0;
#X connect 13 0 6 0;
#X connect 14 0 15 1;
#X connect 14 0 17 0;
#X connect 14 1 15 0;
#X connect 14 2 15 1;
#X connect 14 2 16 0;
#X connect 15 0 4 0;
#X connect 18 0 19 0;
#X connect 19 0 20 0;
#X connect 20 0 15 0;
#X connect 21 0 20 0;
#X restore 244 -53 pd select;
#X msg 331 -27 8820;
#X msg 295 -27 6615;
#X msg 369 -27 11025;
#X obj 132 36 *~;
#X obj 193 32 knob 32 32 0 1 0 0 empty empty empty 0 -8 0 8 -262144
-1 -1 0 1;
#X msg 176 -28 5000;
#X msg 213 -28 7000;
#X obj 133 59 lop~ 850;
#X obj 133 82 hip~ 80;
#X obj 131 15 snd.fx.stutter~;
#X connect 1 0 19 1;
#X connect 2 0 0 0;
#X connect 2 0 0 1;
#X connect 3 0 2 1;
#X connect 3 0 4 0;
#X connect 4 0 13 1;
#X connect 5 0 2 0;
#X connect 5 0 19 0;
#X connect 6 0 5 0;
#X connect 6 1 5 0;
#X connect 7 0 8 0;
#X connect 8 0 3 0;
#X connect 9 0 15 0;
#X connect 9 1 16 0;
#X connect 9 2 1 0;
#X connect 9 3 11 0;
#X connect 9 4 10 0;
#X connect 9 5 12 0;
#X connect 10 0 19 1;
#X connect 11 0 19 1;
#X connect 12 0 19 1;
#X connect 13 0 17 0;
#X connect 14 0 13 1;
#X connect 15 0 19 1;
#X connect 16 0 19 1;
#X connect 17 0 18 0;
#X connect 18 0 0 0;
#X connect 18 0 0 1;
#X connect 19 0 13 0;
