#N canvas 459 58 267 251 10;
#X obj 77 77 phasor~;
#X obj 78 180 print;
#X floatatom 76 31 0 0 0 0 - - -;
#X obj 90 147 bng 15 250 50 0 empty empty empty 17 7 0 10 -262144 -1
-1;
#X obj 76 55 sig~ 1;
#X obj 77 100 snd.phasorbang~;
#X connect 0 0 5 0;
#X connect 2 0 4 0;
#X connect 4 0 0 0;
#X connect 5 0 3 0;
#X connect 5 0 1 0;
