#N canvas 814 145 454 426 10;
#X obj 64 82 fiddle~;
#X obj 176 125 - 100;
#X obj 64 149 mtof;
#X obj 193 191 mavg 200;
#X obj 177 214 -;
#X obj 177 234 / 100;
#X obj 64 50 inlet~;
#X obj 64 290 pack f f;
#X obj 64 330 outlet;
#X obj 180 330 outlet;
#X obj 78 126 s \$0-attackbng;
#X obj 180 300 r \$0-attackbng;
#X text 167 47 to do;
#X text 165 62 volume output should reflect volume input;
#X obj 64 172 t f b;
#X msg 91 194 1;
#X obj 64 220 pack;
#X obj 64 252 line;
#X connect 0 0 2 0;
#X connect 0 1 10 0;
#X connect 0 3 1 0;
#X connect 1 0 3 0;
#X connect 1 0 4 0;
#X connect 2 0 14 0;
#X connect 3 0 4 1;
#X connect 4 0 5 0;
#X connect 5 0 7 1;
#X connect 6 0 0 0;
#X connect 7 0 8 0;
#X connect 11 0 9 0;
#X connect 14 0 16 0;
#X connect 14 1 15 0;
#X connect 15 0 16 1;
#X connect 16 0 17 0;
#X connect 17 0 7 0;
