#N canvas 781 229 673 602 10;
#N canvas 823 137 687 768 pitchshift 0;
#X obj 111 303 phasor~;
#X obj 95 344 *~ -1;
#X obj 95 369 +~ 1;
#X obj 188 504 sig~ 1;
#X obj 253 503 cos~;
#X obj 189 528 -~;
#X obj 190 553 *~ 0.5;
#X obj 112 572 *~;
#X obj 154 416 samphold~;
#X obj 112 437 *~;
#X obj 155 388 sig~;
#X floatatom 206 289 5 0 0 0 - - -;
#X floatatom 142 210 10 0 0 0 - - -;
#X floatatom 115 266 5 0 0 0 - - -;
#X floatatom 270 183 5 0 0 0 - - -;
#X obj 270 204 t b f;
#X obj 193 257 / 44.1;
#X obj 346 329 *~ -1;
#X obj 347 354 +~ 1;
#X obj 416 504 sig~ 1;
#X obj 480 504 cos~;
#X obj 417 528 -~;
#X obj 418 553 *~ 0.5;
#X obj 347 573 *~;
#X obj 381 411 samphold~;
#X obj 347 438 *~;
#X obj 382 383 sig~;
#X obj 343 281 +~ 0.5;
#X obj 343 303 wrap~;
#X obj 232 151 t b f;
#X obj 142 237 expr (pow(2 \, ($f2/12)) - 1) * (44100/$f1);
#X obj 168 13 inlet~;
#X obj 111 650 outlet~;
#X obj 167 44 delwrite~ \$0-b1 5000;
#X obj 112 482 vd~ \$0-b1;
#X obj 346 483 vd~ \$0-b1;
#X obj 313 75 inlet;
#X obj 430 25 loadbang;
#X obj 436 93 \$1;
#X obj 346 105 route 0;
#X msg 164 134 8192;
#X obj 161 106 bng 15 250 50 0 empty empty empty 0 -6 0 8 -262144 -1
-1;
#X obj 503 97 f 1;
#X obj 436 49 t b b;
#X connect 0 0 1 0;
#X connect 0 0 4 0;
#X connect 0 0 8 1;
#X connect 0 0 27 0;
#X connect 1 0 2 0;
#X connect 2 0 9 0;
#X connect 3 0 5 0;
#X connect 4 0 5 1;
#X connect 5 0 6 0;
#X connect 6 0 7 1;
#X connect 7 0 32 0;
#X connect 8 0 9 1;
#X connect 9 0 34 0;
#X connect 10 0 8 0;
#X connect 11 0 26 0;
#X connect 11 0 10 0;
#X connect 12 0 16 0;
#X connect 12 0 30 0;
#X connect 13 0 0 0;
#X connect 14 0 15 0;
#X connect 15 0 12 0;
#X connect 15 1 30 1;
#X connect 16 0 11 0;
#X connect 17 0 18 0;
#X connect 18 0 25 0;
#X connect 19 0 21 0;
#X connect 20 0 21 1;
#X connect 21 0 22 0;
#X connect 22 0 23 1;
#X connect 23 0 32 0;
#X connect 24 0 25 1;
#X connect 25 0 35 0;
#X connect 26 0 24 0;
#X connect 27 0 28 0;
#X connect 28 0 17 0;
#X connect 28 0 24 1;
#X connect 28 0 20 0;
#X connect 29 0 14 0;
#X connect 29 1 12 0;
#X connect 30 0 13 0;
#X connect 31 0 33 0;
#X connect 34 0 7 0;
#X connect 35 0 23 0;
#X connect 36 0 14 0;
#X connect 37 0 43 0;
#X connect 38 0 39 0;
#X connect 39 0 41 0;
#X connect 39 1 29 0;
#X connect 40 0 29 0;
#X connect 41 0 40 0;
#X connect 42 0 14 0;
#X connect 43 0 42 0;
#X connect 43 1 38 0;
#X restore 44 111 pd pitchshift;
#X obj 43 72 inlet~;
#X obj 87 72 inlet;
#X obj 44 138 outlet~;
#X text 253 37 pitchshift - granular transposition;
#X obj 390 194 osc~ 440;
#X text 473 229 chromatic transposition;
#X obj 390 353 *~;
#X obj 418 334 tgl 15 0 empty empty empty 0 -6 0 8 -262144 -1 -1 0
1;
#X obj 389 386 dac~;
#X msg 489 263 0;
#X msg 460 250 -2;
#X msg 432 239 3;
#X text 443 332 switch on / off;
#X text 275 456 honk abstractions -- kreidler 2007;
#X text 319 488 www.kreidler-net.de;
#X text 256 122 right inlet / second argument: transposition in semitones
;
#X text 254 99 first argument: window size in samples \, by default
8192;
#X text 256 78 left inlet: audio input;
#X text 254 148 outlet: audio output;
#N canvas 0 0 683 764 pitchshift~ 0;
#X obj 111 303 phasor~;
#X obj 95 344 *~ -1;
#X obj 95 369 +~ 1;
#X obj 188 504 sig~ 1;
#X obj 253 503 cos~;
#X obj 189 528 -~;
#X obj 190 553 *~ 0.5;
#X obj 112 572 *~;
#X obj 154 416 samphold~;
#X obj 112 437 *~;
#X obj 155 388 sig~;
#X floatatom 206 289 5 0 0 0 - - -;
#X floatatom 144 208 10 0 0 0 - - -;
#X floatatom 115 266 5 0 0 0 - - -;
#X floatatom 270 183 5 0 0 0 - - -;
#X obj 270 204 t b f;
#X obj 193 257 / 44.1;
#X obj 346 329 *~ -1;
#X obj 347 354 +~ 1;
#X obj 416 504 sig~ 1;
#X obj 480 504 cos~;
#X obj 417 528 -~;
#X obj 418 553 *~ 0.5;
#X obj 347 573 *~;
#X obj 381 411 samphold~;
#X obj 347 438 *~;
#X obj 382 383 sig~;
#X obj 343 281 +~ 0.5;
#X obj 343 303 wrap~;
#X obj 146 173 t b f;
#X obj 142 234 expr (pow(2 \, ($f2/12)) - 1) * (44100/$f1);
#X obj 168 13 inlet~;
#X obj 111 650 outlet~;
#X obj 313 75 inlet;
#X obj 366 23 loadbang;
#X msg 372 74 8192;
#X obj 167 44 delwrite~ \$0-b2 5000;
#X obj 112 482 vd~ \$0-b2;
#X obj 346 483 vd~ \$0-b2;
#X obj 442 85 f 1;
#X obj 497 33 t b b;
#X connect 0 0 1 0;
#X connect 0 0 4 0;
#X connect 0 0 8 1;
#X connect 0 0 27 0;
#X connect 1 0 2 0;
#X connect 2 0 9 0;
#X connect 3 0 5 0;
#X connect 4 0 5 1;
#X connect 5 0 6 0;
#X connect 6 0 7 1;
#X connect 7 0 32 0;
#X connect 8 0 9 1;
#X connect 9 0 37 0;
#X connect 10 0 8 0;
#X connect 11 0 26 0;
#X connect 11 0 10 0;
#X connect 12 0 16 0;
#X connect 12 0 30 0;
#X connect 13 0 0 0;
#X connect 14 0 15 0;
#X connect 15 0 12 0;
#X connect 15 1 30 1;
#X connect 16 0 11 0;
#X connect 17 0 18 0;
#X connect 18 0 25 0;
#X connect 19 0 21 0;
#X connect 20 0 21 1;
#X connect 21 0 22 0;
#X connect 22 0 23 1;
#X connect 23 0 32 0;
#X connect 24 0 25 1;
#X connect 25 0 38 0;
#X connect 26 0 24 0;
#X connect 27 0 28 0;
#X connect 28 0 17 0;
#X connect 28 0 24 1;
#X connect 28 0 20 0;
#X connect 29 0 14 0;
#X connect 29 1 12 0;
#X connect 30 0 13 0;
#X connect 31 0 36 0;
#X connect 33 0 14 0;
#X connect 34 0 40 0;
#X connect 35 0 29 0;
#X connect 37 0 7 0;
#X connect 38 0 23 0;
#X connect 39 0 14 0;
#X connect 40 0 39 0;
#X connect 40 1 35 0;
#X restore 391 303 pd pitchshift~;
#X connect 0 0 3 0;
#X connect 1 0 0 0;
#X connect 2 0 0 1;
#X connect 5 0 20 0;
#X connect 7 0 9 0;
#X connect 7 0 9 1;
#X connect 8 0 7 1;
#X connect 10 0 20 1;
#X connect 11 0 20 1;
#X connect 12 0 20 1;
#X connect 20 0 7 0;
#X coords 0 0 1 1 140 73 0;
