#N canvas 1104 49 804 672 10;
#X obj 119 443 vline~;
#X obj 326 390 snapshot~;
#X msg 119 251 \$1 \, \$2 \$3;
#X obj 119 210 pack f f f;
#X msg 330 303 stop;
#X obj 119 563 outlet~;
#X obj 330 258 t b b;
#X obj 125 417 r \$0-stop;
#X obj 187 362 delay;
#X obj 126 293 r \$0-stop;
#X obj 126 273 unpack 0 0;
#X obj 330 326 s \$0-stop;
#X obj 147 167 r \$0-samps;
#X obj 176 188 r \$0-millisecs;
#X obj 311 521 pack 0 0 0;
#X obj 339 456 r \$0-samps;
#X obj 368 499 expr $f3 - ($f3 / ($f2 / $f1));
#X obj 456 478 r \$0-samps;
#X obj 326 410 t f f;
#X obj 311 457 f;
#X obj 311 235 sel 1 0;
#X obj 188 74 s \$0-millisecs;
#X obj 545 456 r \$0-millisecs;
#X obj 153 93 s \$0-samps;
#X obj 326 347 r \$0-snap;
#X obj 353 432 s \$0-shot;
#X obj 368 478 r \$0-shot;
#X obj 357 281 s \$0-snap;
#X obj 311 186 s \$0-pause;
#X obj 311 214 r \$0-pause;
#X obj 311 544 s \$0-update;
#X obj 125 230 r \$0-update;
#X msg 311 164 0;
#X obj 351 165 s \$0-pause;
#X msg 351 144 1;
#X obj 311 31 inlet;
#X obj 119 32 inlet;
#X obj 119 145 r \$0-startnum;
#X obj 187 405 s \$0-startnum;
#X obj 119 115 s \$0-startnum;
#X obj 391 145 s \$0-loop;
#X obj 187 383 spigot 0;
#X obj 232 362 r \$0-loop;
#X obj 431 122 s \$0-stop;
#X obj 130 467 s~ \$0-vline;
#X obj 337 369 r~ \$0-vline;
#X obj 442 256 snapshot~;
#X obj 442 385 pack 0 0 0;
#X obj 470 320 r \$0-samps;
#X obj 499 363 expr $f3 - ($f3 / ($f2 / $f1));
#X obj 587 342 r \$0-samps;
#X obj 442 276 t f f;
#X obj 676 265 r \$0-millisecs;
#X obj 442 213 r \$0-snap;
#X obj 469 300 s \$0-shot;
#X obj 499 342 r \$0-shot;
#X obj 557 277 s \$0-snap;
#X obj 442 408 s \$0-update;
#X obj 453 235 r~ \$0-vline;
#X obj 557 234 r \$0-speed;
#X obj 584 299 expr $f2 / $f1;
#X obj 311 57 route pause resume loop stop speed;
#X obj 471 79 s \$0-speed;
#X obj 187 293 t b f;
#X obj 557 255 t b f;
#X obj 584 320 s \$0-millinew;
#X obj 187 209 r \$0-millinew;
#X obj 685 340 r \$0-millinew;
#X obj 553 478 r \$0-millinew;
#X obj 119 54 unpack f f f;
#X text 122 625 megrimm 2016;
#X obj 126 312 t b;
#X msg 126 331 stop;
#X msg 431 100 stop \, 0;
#X connect 0 0 5 0;
#X connect 0 0 44 0;
#X connect 1 0 18 0;
#X connect 2 0 0 0;
#X connect 2 0 10 0;
#X connect 3 0 2 0;
#X connect 4 0 11 0;
#X connect 6 0 4 0;
#X connect 6 1 27 0;
#X connect 7 0 0 0;
#X connect 8 0 41 0;
#X connect 9 0 71 0;
#X connect 10 1 63 0;
#X connect 12 0 3 1;
#X connect 13 0 3 2;
#X connect 14 0 30 0;
#X connect 15 0 14 1;
#X connect 16 0 14 2;
#X connect 17 0 16 1;
#X connect 18 0 19 1;
#X connect 18 1 25 0;
#X connect 19 0 14 0;
#X connect 20 0 19 0;
#X connect 20 1 6 0;
#X connect 22 0 16 2;
#X connect 24 0 1 0;
#X connect 26 0 16 0;
#X connect 29 0 20 0;
#X connect 31 0 2 0;
#X connect 32 0 28 0;
#X connect 34 0 33 0;
#X connect 35 0 61 0;
#X connect 36 0 69 0;
#X connect 37 0 3 0;
#X connect 41 0 38 0;
#X connect 42 0 41 1;
#X connect 45 0 1 0;
#X connect 46 0 51 0;
#X connect 47 0 57 0;
#X connect 48 0 47 1;
#X connect 49 0 47 2;
#X connect 50 0 49 1;
#X connect 51 0 47 0;
#X connect 51 1 54 0;
#X connect 52 0 49 2;
#X connect 52 0 60 1;
#X connect 53 0 46 0;
#X connect 55 0 49 0;
#X connect 58 0 46 0;
#X connect 59 0 64 0;
#X connect 60 0 65 0;
#X connect 61 0 32 0;
#X connect 61 1 34 0;
#X connect 61 2 40 0;
#X connect 61 3 73 0;
#X connect 61 4 62 0;
#X connect 63 0 8 0;
#X connect 63 1 8 1;
#X connect 64 0 56 0;
#X connect 64 1 60 0;
#X connect 66 0 3 2;
#X connect 67 0 49 2;
#X connect 68 0 16 2;
#X connect 69 0 39 0;
#X connect 69 1 23 0;
#X connect 69 2 21 0;
#X connect 71 0 72 0;
#X connect 72 0 8 0;
#X connect 73 0 43 0;
