#N canvas 330 308 168 380 10;
#X obj 10 13 loadbang;
#X obj 10 35 f \$1;
#X obj 44 35 inlet;
#X obj 10 87 t b f;
#X obj 10 109 samplerate~;
#X obj 10 131 /, f 5;
#X obj 10 193 phasor~, f 10;
#X obj 10 215 *~ \$1;
#X obj 25 242 wrap~;
#X obj 10 264 -~;
#X obj 55 264 /~;
#X obj 70 242 abs~;
#X obj 10 330 -~, f 8;
#X obj 10 352 outlet~;
#X obj 55 286 -~ 1;
#X obj 55 308 max~ -1;
#X obj 67 87 f 0;
#X obj 10 173 abs;
#X obj 44 57 route float reset;
#X obj 10 153 t f f;
#X connect 0 0 1 0;
#X connect 1 0 3 0;
#X connect 2 0 18 0;
#X connect 3 0 4 0;
#X connect 3 1 5 1;
#X connect 3 1 7 1;
#X connect 4 0 5 0;
#X connect 5 0 19 0;
#X connect 6 0 7 0;
#X connect 7 0 9 0;
#X connect 7 0 8 0;
#X connect 7 0 10 0;
#X connect 7 0 11 0;
#X connect 8 0 9 1;
#X connect 9 0 12 0;
#X connect 10 0 14 0;
#X connect 11 0 10 1;
#X connect 12 0 13 0;
#X connect 14 0 15 0;
#X connect 15 0 12 1;
#X connect 16 0 6 1;
#X connect 17 0 6 0;
#X connect 18 0 3 0;
#X connect 18 1 16 0;
#X connect 19 0 17 0;
