#N canvas 991 73 450 300 12;
#X obj 162 120 snd.detect~;
#X obj 168 52 adc~;
#X floatatom 162 161 5 0 0 0 - - - 0;
#X floatatom 239 157 5 0 0 0 - - - 0;
#X floatatom 241 56 5 0 0 0 - - - 0;
#X connect 0 0 2 0;
#X connect 0 1 3 0;
#X connect 1 0 0 0;
#X connect 4 0 0 1;
