#N canvas 452 77 953 685 10;
#X obj 296 375 vline~;
#X obj 296 420 tabread4~ \$0-soundfile;
#X obj 296 611 outlet~;
#X obj 10 9 inlet;
#X obj 125 173 s \$0-scratching;
#X obj 314 351 r \$0-scratching;
#X obj 125 127 *;
#X obj 140 102 r \$0-samples;
#X obj 48 217 s \$0-stop;
#X obj 308 328 r \$0-stop;
#X obj 87 194 s \$0-loop;
#X obj 744 163 soundfiler;
#X obj 744 61 openpanel;
#X obj 744 186 t f f;
#X obj 771 209 s \$0-samples;
#X obj 744 321 s \$0-miliseconds;
#X obj 744 343 table \$0-soundfile;
#X obj 744 37 route bang;
#X obj 202 59 s \$0-openfile;
#X obj 744 11 r \$0-openfile;
#X obj 518 536 r \$0-miliseconds;
#X obj 563 565 r \$0-samples;
#X obj 518 617 outlet;
#X obj 518 592 pack f f;
#X obj 392 609 outlet~;
#X obj 308 398 s~ \$0-vline;
#X obj 392 578 r~ \$0-vline;
#X obj 744 295 / 44.1;
#X obj 777 253 samplerate~;
#X obj 777 273 / 1000;
#X obj 777 232 loadbang;
#X text 517 642 (c)2012 \, megrimm;
#X obj 311 561 vline~;
#X obj 296 585 *~;
#X obj 373 304 delay;
#X obj 593 617 outlet;
#X obj 373 327 s \$0-vlineend;
#X obj 593 590 r \$0-vlineend;
#X obj 310 55 r \$0-vlineend;
#X obj 310 120 spigot;
#X obj 343 75 r \$0-loop;
#X obj 312 280 r \$0-stop;
#X obj 412 303 s \$0-vlinetrig;
#X obj 311 443 r \$0-vlinetrig;
#X obj 344 514 delay;
#X obj 371 464 r \$0-miliseconds;
#X obj 405 484 r \$0-stop;
#X msg 344 536 0 2;
#X msg 311 536 1 2;
#X obj 371 485 - 2;
#X obj 104 469 snapshot~;
#X msg 744 140 read -resize \$1 \$2-soundfile;
#X obj 744 116 pack s \$0;
#X obj 814 54 loadbang;
#X obj 801 81 symbol \$1;
#X obj 119 491 r \$0-miliseconds;
#X obj 104 516 *;
#X obj 77 355 bng 15 250 50 0 empty empty empty 17 7 0 10 -262144 -1
-1;
#X obj 104 539 /;
#X obj 130 516 r \$0-samples;
#X msg 125 150 \$1 50;
#X obj 102 353 r \$0-scratching;
#X obj 129 539 r \$0-miliseconds;
#X obj 104 562 -;
#X floatatom 104 611 10 0 0 0 - - -;
#X obj 104 584 * -1;
#X obj 102 374 unpack f f;
#X obj 77 403 t a b;
#X floatatom 56 443 10 0 0 0 - - -;
#X obj 353 161 r \$0-miliseconds;
#X obj 324 142 r \$0-samples;
#X obj 296 183 pack f f f;
#X msg 294 34 1;
#X msg 296 230 \$1 \, \$2 \$3;
#X msg 48 195 stop;
#X obj 10 238 s \$0-play;
#X obj 294 9 r \$0-play;
#X obj 532 182 / 16;
#X obj 517 224 *;
#X obj 517 269 + 1;
#X obj 532 203 t f f;
#X obj 545 269 +;
#X obj 517 245 t f f;
#X obj 517 140 random 16;
#X obj 532 161 r \$0-samples;
#X msg 540 105 16;
#X obj 631 229 / 16;
#X obj 631 206 r \$0-miliseconds;
#X obj 618 275 f;
#X obj 631 250 t b f;
#X obj 618 161 t b f;
#X obj 618 297 / 1;
#X obj 645 186 s \$0-speedfl;
#X obj 646 274 r \$0-speedfl;
#X text 647 296 <-- optimize;
#X msg 632 137 1;
#X obj 517 10 r \$0-vlineend;
#X obj 316 257 unpack f f;
#X obj 373 280 t b f b;
#X obj 517 53 spigot;
#X obj 517 331 pack f f f;
#X obj 517 354 s \$0-slicedata;
#X obj 304 206 r \$0-slicedata;
#X obj 405 54 sel 1 0;
#X msg 405 75 0;
#X msg 437 75 1;
#X obj 10 36 route play stop loop scratch slice open;
#X obj 164 80 s \$0-slice;
#X obj 550 31 r \$0-slice;
#X obj 405 31 r \$0-slice;
#X obj 568 72 r \$0-slicenums;
#X obj 618 96 r \$0-slicespeed;
#X connect 0 0 1 0;
#X connect 0 0 25 0;
#X connect 0 0 50 0;
#X connect 1 0 33 0;
#X connect 3 0 106 0;
#X connect 5 0 0 0;
#X connect 6 0 60 0;
#X connect 7 0 6 1;
#X connect 9 0 0 0;
#X connect 11 0 13 0;
#X connect 12 0 52 0;
#X connect 13 0 27 0;
#X connect 13 1 14 0;
#X connect 17 0 12 0;
#X connect 17 1 54 0;
#X connect 19 0 17 0;
#X connect 20 0 23 0;
#X connect 21 0 23 1;
#X connect 23 0 22 0;
#X connect 26 0 24 0;
#X connect 27 0 15 0;
#X connect 28 0 29 0;
#X connect 29 0 27 1;
#X connect 30 0 28 0;
#X connect 32 0 33 1;
#X connect 33 0 2 0;
#X connect 34 0 36 0;
#X connect 37 0 35 0;
#X connect 38 0 39 0;
#X connect 39 0 71 0;
#X connect 40 0 39 1;
#X connect 41 0 34 0;
#X connect 43 0 48 0;
#X connect 43 0 44 0;
#X connect 44 0 47 0;
#X connect 45 0 49 0;
#X connect 46 0 44 0;
#X connect 47 0 32 0;
#X connect 48 0 32 0;
#X connect 49 0 44 1;
#X connect 50 0 56 0;
#X connect 51 0 11 0;
#X connect 52 0 51 0;
#X connect 53 0 54 0;
#X connect 54 0 52 0;
#X connect 55 0 56 1;
#X connect 56 0 58 0;
#X connect 57 0 67 0;
#X connect 58 0 63 0;
#X connect 59 0 58 1;
#X connect 60 0 4 0;
#X connect 61 0 66 0;
#X connect 62 0 63 1;
#X connect 63 0 65 0;
#X connect 65 0 64 0;
#X connect 66 0 67 0;
#X connect 67 0 68 0;
#X connect 67 1 50 0;
#X connect 69 0 71 2;
#X connect 70 0 71 1;
#X connect 71 0 73 0;
#X connect 72 0 71 0;
#X connect 73 0 0 0;
#X connect 73 0 97 0;
#X connect 74 0 8 0;
#X connect 76 0 72 0;
#X connect 77 0 80 0;
#X connect 78 0 82 0;
#X connect 79 0 100 0;
#X connect 80 0 78 1;
#X connect 80 1 81 1;
#X connect 81 0 100 1;
#X connect 82 0 79 0;
#X connect 82 1 81 0;
#X connect 83 0 78 0;
#X connect 84 0 77 0;
#X connect 85 0 83 1;
#X connect 86 0 89 0;
#X connect 87 0 86 0;
#X connect 88 0 91 0;
#X connect 89 0 88 0;
#X connect 89 1 88 1;
#X connect 90 0 88 0;
#X connect 90 1 92 0;
#X connect 91 0 100 2;
#X connect 93 0 91 1;
#X connect 95 0 90 0;
#X connect 96 0 99 0;
#X connect 97 1 98 0;
#X connect 98 0 34 0;
#X connect 98 1 34 1;
#X connect 98 2 42 0;
#X connect 99 0 83 0;
#X connect 99 0 85 0;
#X connect 99 0 95 0;
#X connect 100 0 101 0;
#X connect 102 0 73 0;
#X connect 103 0 104 0;
#X connect 103 1 105 0;
#X connect 104 0 39 1;
#X connect 105 0 39 1;
#X connect 106 0 75 0;
#X connect 106 1 74 0;
#X connect 106 2 10 0;
#X connect 106 3 6 0;
#X connect 106 4 107 0;
#X connect 106 5 18 0;
#X connect 108 0 99 1;
#X connect 109 0 103 0;
#X connect 110 0 83 1;
#X connect 111 0 90 0;
