#N canvas 671 273 669 598 10;
#X text 253 37 pitchshift - granular transposition;
#X obj 264 197 osc~ 440;
#X text 347 232 chromatic transposition;
#X obj 264 356 *~;
#X obj 292 337 tgl 15 0 empty empty empty 0 -6 0 8 -262144 -1 -1 0
1;
#X obj 263 389 dac~;
#X msg 363 266 0;
#X msg 334 253 -2;
#X msg 306 242 3;
#X text 317 335 switch on / off;
#X text 275 456 honk abstractions -- kreidler 2007;
#X text 319 488 www.kreidler-net.de;
#X text 256 122 right inlet / second argument: transposition in semitones
;
#X text 254 99 first argument: window size in samples \, by default
8192;
#X text 256 78 left inlet: audio input;
#X text 254 148 outlet: audio output;
#X obj 265 306 snd.fx.pitchshift~ 1024;
#X connect 1 0 16 0;
#X connect 3 0 5 0;
#X connect 3 0 5 1;
#X connect 4 0 3 1;
#X connect 6 0 16 1;
#X connect 7 0 16 1;
#X connect 8 0 16 1;
#X connect 16 0 3 0;
#X coords 0 0 1 1 140 73 0;
