#N canvas 347 22 751 825 10;
#X obj 352 244 soundfiler;
#X obj 352 127 openpanel;
#X msg 352 376 0 \, \$1 \$2;
#X obj 352 356 pack f f;
#X obj 352 312 t f f;
#X obj 504 53 samplerate~;
#X obj 504 73 / 1000;
#X obj 504 32 loadbang;
#X obj 367 439 bonk~;
#X obj 394 459 unpack f f f;
#X obj 463 479 t b;
#X obj 352 512 snapshot~;
#X obj 352 534 t a b;
#X obj 451 577 int 0;
#X msg 451 532 0;
#X obj 488 554 + 1;
#X obj 352 268 t a b;
#X obj 167 384 / 44.1;
#X obj 27 432 pack f f f;
#X msg 27 583 170112 \, 174080 89.9773 \;;
#X obj 27 188 t f f;
#X obj 139 211 + 1;
#X obj 27 260 t f f;
#X obj 139 258 t f f;
#X obj 167 363 -;
#X obj 27 210 pipe;
#X obj 166 343 swap;
#X text 401 748 #of slices;
#X text 399 400 Play sample once;
#X obj 27 167 random;
#X obj 354 748 outlet;
#X obj 27 789 outlet~;
#X obj 27 612 vline~;
#X obj 352 105 route bang;
#X obj 413 128 symbol;
#X obj 352 153 t a b;
#X obj 352 201 pack s s;
#X obj 397 180 symbol \$0-soundfile;
#X msg 352 222 read -resize \$1 \$2;
#X obj 420 244 table \$0-soundfile;
#X obj 255 477 r \$0-stop;
#X obj 367 419 tabread4~ \$0-soundfile;
#X obj 27 634 tabread4~ \$0-soundfile;
#X obj 352 623 tabwrite \$0-index;
#X obj 27 231 tabread \$0-index;
#X obj 139 232 tabread \$0-index;
#X obj 352 397 vline~;
#X obj 352 648 table \$0-index;
#X msg 46 499 addcomma;
#X msg 66 522 set \$1;
#X obj 27 454 t l b f;
#X msg 27 477 add \$2 \$3;
#X obj 459 600 s \$0-slices;
#X obj 60 73 r \$0-slices;
#X obj 155 11 inlet;
#X obj 60 144 -;
#X obj 71 116 t b f;
#X obj 167 407 s \$0-miliseconds;
#X obj 54 283 s \$0-swap1;
#X obj 166 279 s \$0-swap2;
#X obj 166 300 r \$0-swap1;
#X obj 187 319 r \$0-swap2;
#X text 409 438 <-- adjust bonk with templates \, thresholds;
#X text 462 621 <-- bonk writes to table and advances counter;
#X text 393 265 <-- uses sample length to initiate Processing;
#X obj 234 135 s \$0-stop;
#X obj 194 157 s \$0-play;
#X obj 197 459 r \$0-play;
#X obj 482 748 outlet;
#X obj 27 765 *~;
#X obj 27 50 r \$0-metro1;
#X obj 482 722 r \$0-metro1;
#X obj 504 95 s \$0-smplrt;
#X obj 200 363 r \$0-smplrt;
#X obj 273 109 s \$0-smplrt;
#X obj 273 86 * 44.1;
#X obj 27 363 +;
#X obj 55 363 +;
#X obj 155 33 route slices play stop speed offset open;
#X obj 313 59 s \$0-offset;
#X obj 42 308 r \$0-offset;
#X obj 220 619 r \$0-miliseconds;
#X obj 179 640 delay;
#X obj 179 661 t b b;
#X obj 179 702 s \$0-metro2;
#X obj 206 682 s \$0-metro1;
#X obj 42 743 vline~;
#X obj 167 433 r \$0-metro2;
#X obj 167 539 spigot;
#X msg 225 501 1;
#X msg 255 500 0;
#X obj 198 479 t b b;
#X obj 379 290 s \$0-smplth;
#X obj 451 511 r \$0-smplth;
#X obj 488 533 r \$0-slices;
#X obj 179 617 t b;
#X obj 43 657 r \$0-metro2;
#X obj 42 678 t b b;
#X msg 42 721 0 2;
#X msg 71 721 1 2;
#X obj 71 699 delay 3;
#X text 350 794 (c)2012 \, megrimm;
#X obj 412 313 r \$0-smplrt;
#X obj 397 335 /;
#X obj 354 724 r \$0-slices;
#X connect 0 0 16 0;
#X connect 1 0 35 0;
#X connect 2 0 46 0;
#X connect 3 0 2 0;
#X connect 4 0 3 0;
#X connect 4 1 103 0;
#X connect 5 0 6 0;
#X connect 6 0 72 0;
#X connect 7 0 5 0;
#X connect 8 1 9 0;
#X connect 9 2 10 0;
#X connect 10 0 11 0;
#X connect 11 0 12 0;
#X connect 12 0 43 0;
#X connect 12 1 13 0;
#X connect 13 0 43 1;
#X connect 13 0 52 0;
#X connect 14 0 13 0;
#X connect 15 0 13 1;
#X connect 16 0 4 0;
#X connect 16 1 92 0;
#X connect 17 0 18 2;
#X connect 17 0 57 0;
#X connect 18 0 50 0;
#X connect 19 0 32 0;
#X connect 19 0 95 0;
#X connect 20 0 25 0;
#X connect 20 1 21 0;
#X connect 21 0 45 0;
#X connect 22 0 76 0;
#X connect 22 1 58 0;
#X connect 23 0 77 0;
#X connect 23 1 59 0;
#X connect 24 0 17 0;
#X connect 25 0 44 0;
#X connect 26 0 24 0;
#X connect 26 1 24 1;
#X connect 29 0 20 0;
#X connect 32 0 42 0;
#X connect 33 0 1 0;
#X connect 33 1 34 0;
#X connect 34 0 35 0;
#X connect 35 0 36 0;
#X connect 35 1 37 0;
#X connect 36 0 38 0;
#X connect 37 0 36 1;
#X connect 38 0 0 0;
#X connect 40 0 90 0;
#X connect 41 0 8 0;
#X connect 42 0 69 0;
#X connect 44 0 22 0;
#X connect 45 0 23 0;
#X connect 46 0 11 0;
#X connect 46 0 41 0;
#X connect 48 0 19 0;
#X connect 49 0 19 0;
#X connect 50 0 51 0;
#X connect 50 1 48 0;
#X connect 50 2 49 0;
#X connect 51 0 19 0;
#X connect 53 0 55 0;
#X connect 54 0 78 0;
#X connect 55 0 29 1;
#X connect 56 0 55 0;
#X connect 56 1 55 1;
#X connect 60 0 26 0;
#X connect 61 0 26 1;
#X connect 67 0 91 0;
#X connect 69 0 31 0;
#X connect 70 0 29 0;
#X connect 71 0 68 0;
#X connect 73 0 17 1;
#X connect 75 0 74 0;
#X connect 76 0 18 0;
#X connect 77 0 18 1;
#X connect 78 0 21 1;
#X connect 78 0 56 0;
#X connect 78 1 66 0;
#X connect 78 2 65 0;
#X connect 78 3 75 0;
#X connect 78 4 79 0;
#X connect 78 5 33 0;
#X connect 80 0 76 1;
#X connect 80 0 77 1;
#X connect 81 0 82 1;
#X connect 82 0 83 0;
#X connect 83 0 84 0;
#X connect 83 1 85 0;
#X connect 86 0 69 1;
#X connect 87 0 88 0;
#X connect 88 0 19 0;
#X connect 89 0 88 1;
#X connect 90 0 88 1;
#X connect 91 0 19 0;
#X connect 91 1 89 0;
#X connect 93 0 14 0;
#X connect 94 0 15 0;
#X connect 95 0 82 0;
#X connect 96 0 97 0;
#X connect 97 0 98 0;
#X connect 97 1 100 0;
#X connect 98 0 86 0;
#X connect 99 0 86 0;
#X connect 100 0 99 0;
#X connect 102 0 103 1;
#X connect 103 0 3 1;
#X connect 104 0 30 0;
