#N canvas 192 163 420 396 10;
#X obj 48 -297 bonk~;
#X obj 75 -270 unpack f f f;
#X obj 48 -574 inlet~;
#X obj 75 -237 outlet;
#X obj 131 -235 outlet;
#X text 80 -220 attack;
#X text 127 -220 amplitude db;
#X obj 99 -574 inlet;
#X obj 138 -501 t b f;
#X obj 138 -476 pack \$1 \$2;
#X msg 138 -453 thresh \$1 \$2;
#X msg 227 -455 minvel \$1;
#X text 181 -391 to do;
#X text 182 -371 how to make this all auto-adaptive?;
#X obj 99 -526 route min max minvol;
#X obj 227 -497 loadbang;
#X msg 227 -477 50;
#X connect 0 1 1 0;
#X connect 1 0 3 0;
#X connect 1 1 4 0;
#X connect 2 0 0 0;
#X connect 7 0 14 0;
#X connect 8 0 9 0;
#X connect 8 1 9 1;
#X connect 9 0 10 0;
#X connect 10 0 0 0;
#X connect 11 0 0 0;
#X connect 14 0 9 0;
#X connect 14 1 8 0;
#X connect 14 2 11 0;
#X connect 15 0 16 0;
#X connect 16 0 11 0;
