#N canvas 165 121 528 657 10;
#X obj 39 573 dac~;
#X msg 32 29 open;
#X msg 65 100 play;
#X msg 71 123 stop;
#X msg 98 281 scratch \$1;
#X floatatom 98 236 5 0 100 0 - - -;
#X text 102 97 <-- play the file through once;
#X text 105 121 <-- stop the file/loop from playing;
#X text 71 27 <-- open a file from openpanel;
#X text 188 48 <-- open a file from local filename;
#X text 255 73 <-- open a file and play immediately;
#X text 137 234 <-- scratch the file;
#X floatatom 155 458 10 0 0 0 - - -;
#X floatatom 212 427 10 0 0 0 - - -;
#X text 279 425 <-- number of samples;
#X text 223 457 <-- length of sample in milliseconds;
#X obj 155 398 unpack 0 0;
#X obj 96 507 snapshot~;
#X floatatom 96 530 10 0 0 0 - - -;
#X msg 116 483 bang;
#X msg 54 75 open _samples/organ-01.wav \, play;
#X obj 214 368 bng 15 250 50 0 empty empty empty 17 7 0 10 -262144
-1 -1;
#X text 236 366 <-- bang when sample ends;
#X msg 80 167 loop \$1;
#X obj 80 147 tgl 15 0 empty empty empty 17 7 0 10 -262144 -1 -1 1
1;
#X obj 328 253 loadbang;
#X msg 328 275 \; pd dsp 1 \;;
#X obj 98 258 / 100;
#X obj 37 340 snd.sample~ _samples/dummy.wav;
#X msg 43 51 open _samples/amen.wav;
#X msg 89 210 slice \$1;
#X obj 89 190 tgl 15 0 empty empty empty 17 7 0 10 -262144 -1 -1 1
1;
#X text 130 165 <-- loop the file indefinitely;
#X text 152 207 <-- random loop slicer;
#X connect 1 0 28 0;
#X connect 2 0 28 0;
#X connect 3 0 28 0;
#X connect 4 0 28 0;
#X connect 5 0 27 0;
#X connect 16 0 12 0;
#X connect 16 1 13 0;
#X connect 17 0 18 0;
#X connect 19 0 17 0;
#X connect 20 0 28 0;
#X connect 23 0 28 0;
#X connect 24 0 23 0;
#X connect 25 0 26 0;
#X connect 27 0 4 0;
#X connect 28 0 0 0;
#X connect 28 0 0 1;
#X connect 28 1 17 0;
#X connect 28 2 16 0;
#X connect 28 3 21 0;
#X connect 29 0 28 0;
#X connect 30 0 28 0;
#X connect 31 0 30 0;
