#N canvas 470 183 883 629 10;
#X obj 434 173 vline~;
#X obj 434 562 outlet~;
#X obj 15 10 inlet;
#X obj 223 273 *;
#X obj 86 471 s \$0-stop;
#X obj 181 315 s \$0-loop;
#X obj 644 206 soundfiler;
#X obj 644 79 openpanel;
#X obj 644 345 t f f;
#X obj 644 58 route bang;
#X obj 306 79 s \$0-openfile;
#X obj 644 37 r \$0-openfile;
#X obj 645 562 outlet;
#X obj 645 537 pack f f;
#X obj 528 563 outlet~;
#X obj 434 195 s~ \$0-vline;
#X obj 528 537 r~ \$0-vline;
#X obj 644 427 / 44.1;
#X obj 683 406 / 1000;
#X text 636 587 (c)2012 \, megrimm;
#X obj 517 103 delay;
#X obj 720 562 outlet;
#X obj 517 124 s \$0-vlineend;
#X obj 720 535 r \$0-vlineend;
#X obj 530 79 r \$0-stop;
#X obj 723 57 loadbang;
#X obj 43 537 s \$0-play;
#X obj 325 121 s \$0-slice;
#X obj 676 365 s \$0-samps;
#X obj 698 508 r \$0-samps;
#X obj 241 251 r \$0-samps;
#X obj 644 448 s \$0-millsecs;
#X obj 645 481 r \$0-millsecs;
#X obj 450 79 unpack 0 0;
#X obj 265 99 route n s;
#X obj 295 164 s \$0-slicespeed;
#X obj 265 187 s \$0-slicenums;
#X obj 644 110 pack s \$0;
#X obj 723 80 symbol \$1;
#X obj 730 206 array define \$0-soundfile;
#X f 13;
#X obj 348 59 s \$0-array;
#X obj 652 282 r \$0-array;
#X obj 442 242 r \$0-array;
#X obj 442 262 list prepend set;
#X obj 442 281 list trim;
#X obj 652 302 t b a;
#X obj 719 302 symbol;
#X obj 652 323 array size;
#X obj 650 150 s \$0-array;
#X msg 650 130 \$2-soundfile;
#X obj 434 303 tabread4~;
#X msg 644 171 read -resize -maxsize 4.3e+07 \$1 \$2-soundfile, f
23;
#X obj 223 208 route perc samp;
#X obj 223 294 s \$0-jmpperc;
#X obj 274 230 s \$0-jmpsamp;
#X obj 15 37 route play stop pause speed loop jump slice open array
;
#X obj 140 336 s \$0-speed;
#N canvas 538 23 817 664 \$0-manipulators 1;
#X obj 326 197 r \$0-millsecs;
#X obj 87 175 r \$0-samps;
#X obj 119 218 expr $f3 - ($f3 / ($f2 / $f1));
#X obj 222 197 r \$0-samps;
#X obj 23 23 r \$0-jmpsamp;
#X obj 87 43 r \$0-samps;
#X obj 118 85 expr $f3 - (($f3 * $f1)/$f2);
#X obj 311 63 r \$0-millsecs;
#X obj 214 63 r \$0-samps;
#X obj 119 64 r \$0-jmpsamp;
#X obj 24 153 r \$0-jmpperc;
#X obj 119 197 r \$0-jmpperc;
#X text 129 239 jump to percentage of sample;
#X text 136 105 jump to sample number;
#X obj 24 260 s \$0-playdata;
#X obj 23 130 s \$0-playdata;
#X obj 23 107 pack 0 0 0 0, f 14;
#X obj 24 239 pack 0 0 0 0, f 14;
#X obj 24 216 t b f;
#X obj 23 84 t b f;
#X obj 327 263 r \$0-millsecs;
#X obj 87 327 r \$0-samps;
#X obj 119 370 expr $f3 - ($f3 / ($f2 / $f1));
#X obj 222 349 r \$0-samps;
#X obj 24 414 s \$0-playdata;
#X obj 24 391 pack 0 0 0 0, f 14;
#X obj 119 349 r \$0-play;
#X obj 55 305 r \$0-play;
#X obj 24 283 r \$0-update;
#X text 129 391 play / pause sample;
#X obj 25 604 s \$0-playdata;
#X obj 326 349 * 1;
#X obj 342 285 r \$0-speed;
#X obj 326 327 f;
#X obj 342 305 t b f;
#X obj 105 463 r \$0-samps;
#X obj 186 462 r \$0-millsecs;
#X obj 25 579 pack 0 0 0 0, f 18;
#X obj 25 556 t b f;
#X obj 267 421 r \$0-slicenums;
#X obj 267 553 v rand;
#X obj 25 492 expr rand * ($f2 / $f4) \; (rand * ($f2 / $f4)) + ($f2
/ $f4) \; $f3 / $f4 \; (random(0 \, $f4)) \;;
#X text 173 580 slicer;
#X obj 288 448 loadbang;
#X msg 288 469 16;
#X obj 25 439 r \$0-sliceup;
#X obj 465 43 tgl 15 0 empty empty empty 17 7 0 10 -262144 -1 -1 1
1;
#X obj 555 43 tgl 15 0 empty empty empty 17 7 0 10 -262144 -1 -1 1
1;
#X obj 555 62 t b f;
#X obj 464 107 expr if($f1 && $f2 == 1 \, 2 \, if($f1 == 0 \, 0 \,
1)), f 18;
#X obj 465 21 r \$0-loop;
#X obj 464 270 spigot;
#X obj 503 222 sel 2;
#X msg 503 245 0;
#X obj 464 178 r \$0-vlineend;
#X obj 464 356 s \$0-update;
#X obj 496 335 s \$0-play;
#X msg 496 314 1;
#X obj 464 293 t b b;
#X obj 580 289 s \$0-sliceup;
#X obj 579 177 r \$0-vlineend;
#X msg 633 240 1;
#X obj 580 268 spigot 0;
#X msg 665 240 0;
#X obj 555 21 r \$0-slice;
#X obj 464 154 s \$0-lors;
#X obj 503 202 r \$0-lors;
#X obj 633 219 sel 2;
#X obj 633 198 r \$0-lors;
#X text 601 113 handles if loop and slice both on/off, f 19;
#X connect 0 0 2 2;
#X connect 1 0 17 2;
#X connect 2 0 17 3;
#X connect 3 0 2 1;
#X connect 4 0 19 0;
#X connect 5 0 16 2;
#X connect 6 0 16 3;
#X connect 7 0 6 2;
#X connect 8 0 6 1;
#X connect 9 0 6 0;
#X connect 10 0 18 0;
#X connect 11 0 2 0;
#X connect 16 0 15 0;
#X connect 17 0 14 0;
#X connect 18 0 17 0;
#X connect 18 1 17 1;
#X connect 19 0 16 0;
#X connect 19 1 16 1;
#X connect 20 0 33 0;
#X connect 21 0 25 2;
#X connect 22 0 25 3;
#X connect 23 0 22 1;
#X connect 25 0 24 0;
#X connect 26 0 22 0;
#X connect 27 0 25 1;
#X connect 28 0 25 0;
#X connect 31 0 22 2;
#X connect 32 0 34 0;
#X connect 33 0 31 0;
#X connect 34 0 33 0;
#X connect 34 1 31 1;
#X connect 35 0 41 1;
#X connect 36 0 41 2;
#X connect 37 0 30 0;
#X connect 38 0 37 0;
#X connect 38 1 37 1;
#X connect 39 0 41 3;
#X connect 41 0 38 0;
#X connect 41 1 37 2;
#X connect 41 2 37 3;
#X connect 41 3 40 0;
#X connect 43 0 44 0;
#X connect 44 0 41 3;
#X connect 45 0 41 0;
#X connect 46 0 49 0;
#X connect 47 0 48 0;
#X connect 48 0 49 0;
#X connect 48 1 49 1;
#X connect 49 0 65 0;
#X connect 50 0 46 0;
#X connect 51 0 58 0;
#X connect 52 0 53 0;
#X connect 52 1 51 1;
#X connect 53 0 51 1;
#X connect 54 0 51 0;
#X connect 57 0 56 0;
#X connect 58 0 55 0;
#X connect 58 1 57 0;
#X connect 60 0 62 0;
#X connect 61 0 62 1;
#X connect 62 0 59 0;
#X connect 63 0 62 1;
#X connect 64 0 47 0;
#X connect 66 0 52 0;
#X connect 67 0 61 0;
#X connect 67 1 63 0;
#X connect 68 0 67 0;
#X restore 180 538 pd \$0-manipulators;
#N canvas 0 23 695 613 \$0-slicer 0;
#X obj 307 239 / 16;
#X obj 289 282 *;
#X obj 289 327 + 1;
#X obj 307 260 t f f;
#X obj 343 348 +;
#X obj 289 303 t f f;
#X obj 289 85 random 16;
#X obj 443 252 / 16;
#X obj 433 296 f;
#X obj 443 272 t b f;
#X obj 430 125 t b f;
#X obj 461 145 s \$0-speedfl;
#X text 462 318 <-- optimize;
#X obj 289 22 r \$0-vlineend;
#X obj 289 65 spigot;
#X obj 328 43 r \$0-slice;
#X obj 349 64 r \$0-slicenums;
#X obj 296 108 r \$0-samps;
#X obj 443 168 r \$0-millsecs;
#X obj 307 192 f;
#X obj 308 149 t b f;
#X obj 451 189 r \$0-slicenums;
#X obj 451 229 f;
#X obj 451 209 t b f;
#X obj 308 129 r \$0-slicenums;
#X obj 325 171 r \$0-samps;
#X obj 289 396 s \$0-playdata;
#X obj 289 373 pack 0 0 0 0;
#X obj 289 349 t b f;
#X obj 63 46 r \$0-vlineend;
#X obj 63 112 spigot;
#X obj 102 67 r \$0-loop;
#X obj 176 43 sel 1 0;
#X msg 176 64 0;
#X msg 208 63 1;
#X obj 176 20 r \$0-slice;
#X obj 63 205 s \$0-update;
#X obj 95 181 s \$0-play;
#X msg 95 160 1;
#X obj 63 137 t b b;
#X obj 433 319 * 1;
#X obj 458 296 r \$0-speedfl;
#X obj 430 104 r \$0-speed;
#X connect 0 0 3 0;
#X connect 1 0 5 0;
#X connect 2 0 28 0;
#X connect 3 0 1 1;
#X connect 3 1 4 1;
#X connect 4 0 27 2;
#X connect 5 0 2 0;
#X connect 5 1 4 0;
#X connect 6 0 1 0;
#X connect 7 0 9 0;
#X connect 8 0 40 0;
#X connect 9 0 8 0;
#X connect 9 1 8 1;
#X connect 10 0 8 0;
#X connect 10 1 11 0;
#X connect 14 0 6 0;
#X connect 15 0 14 1;
#X connect 16 0 6 1;
#X connect 17 0 0 0;
#X connect 18 0 7 0;
#X connect 18 0 22 1;
#X connect 19 0 0 0;
#X connect 20 0 19 0;
#X connect 20 1 0 1;
#X connect 21 0 23 0;
#X connect 22 0 7 0;
#X connect 23 0 22 0;
#X connect 23 1 7 1;
#X connect 24 0 20 0;
#X connect 25 0 19 1;
#X connect 27 0 26 0;
#X connect 28 0 27 0;
#X connect 28 1 27 1;
#X connect 30 0 39 0;
#X connect 31 0 30 1;
#X connect 32 0 33 0;
#X connect 32 1 34 0;
#X connect 33 0 30 1;
#X connect 34 0 30 1;
#X connect 35 0 32 0;
#X connect 38 0 37 0;
#X connect 39 0 36 0;
#X connect 39 1 38 0;
#X connect 40 0 27 3;
#X connect 41 0 40 1;
#X connect 42 0 10 0;
#X restore 181 562 pd \$0-slicer;
#X obj 435 37 r \$0-playdata;
#X msg 435 58 \$2 \, \$3 \$4;
#X obj 11 494 t b b;
#X msg 43 516 1;
#X obj 11 559 s \$0-update;
#X obj 223 230 / 100;
#X obj 295 142 / 100;
#X obj 520 194 snapshot~;
#X obj 434 218 r~ \$0-vline;
#X obj 520 149 r~ \$0-vline;
#X obj 520 216 s \$0-play;
#X obj 98 381 t a b;
#X obj 130 359 s \$0-update;
#X msg 98 403 stop;
#X obj 98 337 sel 1;
#X obj 444 149 r \$0-stop;
#X msg 86 449 stop;
#X obj 54 493 s \$0-play;
#X msg 54 472 1;
#X obj 54 428 t b b;
#X obj 141 404 s \$0-snapshot;
#X obj 530 171 r \$0-snapshot;
#X obj 140 315 / 100;
#X obj 98 426 s \$0-stop;
#X obj 711 240 unpack 0;
#X obj 711 261 s \$0-samplerate;
#X obj 683 385 r \$0-samplerate;
#X connect 0 0 15 0;
#X connect 2 0 55 0;
#X connect 3 0 53 0;
#X connect 6 0 8 0;
#X connect 6 1 83 0;
#X connect 7 0 37 0;
#X connect 8 0 17 0;
#X connect 8 1 28 0;
#X connect 9 0 7 0;
#X connect 9 1 38 0;
#X connect 11 0 9 0;
#X connect 13 0 12 0;
#X connect 16 0 14 0;
#X connect 17 0 31 0;
#X connect 18 0 17 1;
#X connect 20 0 22 0;
#X connect 23 0 21 0;
#X connect 24 0 20 0;
#X connect 25 0 38 0;
#X connect 29 0 13 1;
#X connect 30 0 3 1;
#X connect 32 0 13 0;
#X connect 33 1 20 0;
#X connect 34 0 36 0;
#X connect 34 1 65 0;
#X connect 34 2 27 0;
#X connect 37 0 51 0;
#X connect 37 0 49 0;
#X connect 38 0 37 0;
#X connect 41 0 45 0;
#X connect 42 0 43 0;
#X connect 43 0 44 0;
#X connect 44 0 50 0;
#X connect 45 0 47 0;
#X connect 45 1 46 0;
#X connect 46 0 47 1;
#X connect 47 0 8 0;
#X connect 49 0 48 0;
#X connect 50 0 1 0;
#X connect 51 0 6 0;
#X connect 52 0 64 0;
#X connect 52 1 54 0;
#X connect 55 0 61 0;
#X connect 55 1 78 0;
#X connect 55 2 73 0;
#X connect 55 3 81 0;
#X connect 55 4 5 0;
#X connect 55 5 52 0;
#X connect 55 6 34 0;
#X connect 55 7 10 0;
#X connect 55 8 40 0;
#X connect 59 0 60 0;
#X connect 60 0 0 0;
#X connect 60 0 33 0;
#X connect 61 0 63 0;
#X connect 61 1 62 0;
#X connect 62 0 26 0;
#X connect 64 0 3 0;
#X connect 65 0 35 0;
#X connect 66 0 69 0;
#X connect 67 0 50 0;
#X connect 68 0 66 0;
#X connect 70 0 72 0;
#X connect 70 1 79 0;
#X connect 72 0 82 0;
#X connect 73 0 70 0;
#X connect 73 1 71 0;
#X connect 74 0 0 0;
#X connect 75 0 4 0;
#X connect 77 0 76 0;
#X connect 78 0 77 0;
#X connect 78 1 75 0;
#X connect 80 0 66 0;
#X connect 81 0 56 0;
#X connect 83 0 84 0;
#X connect 85 0 18 0;
