#N canvas 585 54 510 599 10;
#X obj 48 472 dac~;
#X floatatom 88 436 5 0 0 0 - - -;
#X floatatom 98 295 5 0 0 0 - - -;
#X text 85 23 <--load sample;
#X text 294 394 to do;
#X text 295 414 bonk threshold;
#X text 294 430 smooth transitions;
#X text 295 460 weighted random / urn?;
#X msg 98 315 slices \$1;
#X msg 69 77 play;
#X msg 77 103 stop;
#X text 132 293 <-- no of slices to play at once;
#X msg 51 26 open;
#X text 207 50 <-- open a file from local filename;
#X text 294 473 message box needed?;
#X text 294 487 control video;
#X obj 128 379 bng 15 250 50 0 empty empty empty 17 7 0 10 -262144
-1 -1;
#X text 148 377 <--bang on next slice;
#X text 125 436 <-- number of slices;
#X obj 128 399 s \$0-nextslice;
#X obj 348 233 r \$0-nextslice;
#X obj 348 255 random 16;
#X obj 348 296 spigot;
#X obj 381 277 tgl 15 0 empty empty empty 17 7 0 10 -262144 -1 -1 1
1;
#X obj 348 317 s \$0-rndslice;
#X obj 98 273 r \$0-rndslice;
#X obj 348 275 + 1;
#X msg 87 198 speed \$1;
#X msg 87 130 1;
#X text 113 128 <-- normal speed;
#X text 122 150 <-- slower;
#X text 136 174 <-- faster;
#X text 294 446 control speed w/o pitch change;
#X msg 94 248 offset \$1;
#X floatatom 94 225 5 0 0 0 - - -;
#X msg 97 153 0.9;
#X msg 108 175 1.1;
#X text 296 504 non-bonk switch / even slices;
#X obj 47 352 snd.slicebonk~;
#X msg 60 52 open _samples/amen.wav;
#X connect 2 0 8 0;
#X connect 8 0 38 0;
#X connect 9 0 38 0;
#X connect 10 0 38 0;
#X connect 12 0 38 0;
#X connect 16 0 19 0;
#X connect 20 0 21 0;
#X connect 21 0 26 0;
#X connect 22 0 24 0;
#X connect 23 0 22 1;
#X connect 25 0 2 0;
#X connect 26 0 22 0;
#X connect 27 0 38 0;
#X connect 28 0 27 0;
#X connect 33 0 38 0;
#X connect 34 0 33 0;
#X connect 35 0 27 0;
#X connect 36 0 27 0;
#X connect 38 0 0 0;
#X connect 38 0 0 1;
#X connect 38 1 1 0;
#X connect 38 2 16 0;
#X connect 39 0 38 0;
