#N canvas 26 106 522 700 10;
#X obj -31 542 vline~;
#X obj -31 587 tabread4~ \$0-soundfile;
#X obj -14 312 pack f f;
#X msg 25 403 set 1;
#X msg 5 380 addcomma;
#X msg -14 358 add \$2 \$1;
#X obj -14 262 r \$0-miliseconds;
#X obj 31 287 r \$0-samples;
#X obj -31 613 outlet~;
#X obj -31 15 inlet;
#X obj -14 335 t l b b;
#X obj 85 405 metro;
#X obj 112 380 r \$0-miliseconds;
#X msg 85 336 1;
#X msg 8 213 0;
#X obj 86 187 s \$0-scratching;
#X obj -5 507 r \$0-scratching;
#X obj 86 141 *;
#X msg 86 164 \$1 50;
#X obj 101 116 r \$0-samples;
#X obj 8 235 s \$0-stop;
#X obj -18 484 r \$0-stop;
#X obj 100 358 r \$0-stop;
#X obj 47 210 s \$0-loop;
#X obj 85 314 r \$0-loop;
#X obj -31 53 route play stop loop scratch open;
#X obj 256 319 soundfiler;
#X obj 256 183 openpanel;
#X obj 256 342 t f f;
#X obj 256 232 t a b;
#X obj 256 273 pack s s;
#X obj 301 252 symbol \$0-soundfile;
#X obj 283 365 s \$0-samples;
#X obj 256 494 s \$0-miliseconds;
#X obj 256 521 table \$0-soundfile;
#X msg 256 296 read -resize \$1 \$2;
#X obj 256 159 route bang;
#X obj 313 203 symbol;
#X obj 125 83 s \$0-openfile;
#X obj 256 133 r \$0-openfile;
#X obj 256 556 r \$0-miliseconds;
#X obj 301 585 r \$0-samples;
#X obj 256 637 outlet;
#X obj 256 612 pack f f;
#X obj 147 615 outlet~;
#X obj -19 565 s~ \$0-vline;
#X obj 147 584 r~ \$0-vline;
#X msg -31 454;
#X obj 256 468 / 44.1;
#X obj 289 409 samplerate~;
#X obj 289 429 / 1000;
#X obj 289 388 loadbang;
#X text 253 664 (c)2012 \, megrimm;
#X connect 0 0 1 0;
#X connect 0 0 45 0;
#X connect 1 0 8 0;
#X connect 2 0 10 0;
#X connect 3 0 47 0;
#X connect 4 0 47 0;
#X connect 5 0 47 0;
#X connect 6 0 2 0;
#X connect 7 0 2 1;
#X connect 9 0 25 0;
#X connect 10 0 5 0;
#X connect 10 1 4 0;
#X connect 10 2 3 0;
#X connect 11 0 47 0;
#X connect 12 0 11 1;
#X connect 13 0 11 0;
#X connect 14 0 20 0;
#X connect 16 0 0 0;
#X connect 17 0 18 0;
#X connect 18 0 15 0;
#X connect 19 0 17 1;
#X connect 21 0 0 0;
#X connect 22 0 11 0;
#X connect 24 0 13 0;
#X connect 25 0 47 0;
#X connect 25 1 14 0;
#X connect 25 2 23 0;
#X connect 25 3 17 0;
#X connect 25 4 38 0;
#X connect 26 0 28 0;
#X connect 27 0 29 0;
#X connect 28 0 48 0;
#X connect 28 1 32 0;
#X connect 29 0 30 0;
#X connect 29 1 31 0;
#X connect 30 0 35 0;
#X connect 31 0 30 1;
#X connect 35 0 26 0;
#X connect 36 0 27 0;
#X connect 36 1 37 0;
#X connect 37 0 29 0;
#X connect 39 0 36 0;
#X connect 40 0 43 0;
#X connect 41 0 43 1;
#X connect 43 0 42 0;
#X connect 46 0 44 0;
#X connect 47 0 0 0;
#X connect 48 0 33 0;
#X connect 49 0 50 0;
#X connect 50 0 48 1;
#X connect 51 0 49 0;
