#N canvas 159 106 708 474 12;
#X text 56 372 in a terminal we do something like this which generated
a *.txt file of every *.wav on the computer.;
#X text 58 414 $ find /Users/megrimm -name "*.wav" -print 2>&1 | tee
/Users/megrimm/Desktop/wavs.txt, f 85;
#X text 377 204 <-- read a file;
#X obj 209 230 text define hd-wavs;
#X obj 209 289 text size hd-wavs;
#X obj 209 267 bng 15 250 50 0 empty empty empty 17 7 0 10 -262144
-1 -1;
#X obj 209 332 print;
#X obj 59 209 text get hd-wavs;
#X floatatom 65 187 5 0 0 0 - - -;
#X obj 59 162 random;
#X obj 216 312 s \$0-size;
#X obj 98 139 r \$0-size;
#X obj 59 139 bng 15 250 50 0 empty empty empty 17 7 0 10 -262144 -1
-1;
#X obj 59 232 s \$0-location;
#X floatatom 105 186 5 0 0 0 - - -;
#X obj 60 303 readsf~;
#X obj 60 255 r \$0-location;
#X msg 60 279 open \$1 \, 1;
#X obj 60 336 dac~;
#X obj 59 69 metro 250;
#X floatatom 119 45 5 0 0 0 - - -;
#X msg 59 24 1;
#X msg 76 44 0;
#X obj 59 93 random 2;
#X obj 59 117 sel 0;
#X text 215 95 once a list is generated of every *.wav on your hardrive
\, this patch will read the *.txt file and randomly read a *.wav from
its location;
#X msg 209 205 read -c snd.readhd.txt;
#X text 229 266 <-- read number of lines;
#X connect 4 0 6 0;
#X connect 4 0 10 0;
#X connect 5 0 4 0;
#X connect 7 0 13 0;
#X connect 8 0 7 0;
#X connect 9 0 7 0;
#X connect 9 0 14 0;
#X connect 11 0 9 1;
#X connect 12 0 9 0;
#X connect 15 0 18 0;
#X connect 15 0 18 1;
#X connect 16 0 17 0;
#X connect 17 0 15 0;
#X connect 19 0 23 0;
#X connect 20 0 19 1;
#X connect 21 0 19 0;
#X connect 22 0 19 0;
#X connect 23 0 24 0;
#X connect 24 0 12 0;
#X connect 26 0 3 0;
