#N canvas 460 354 370 227 10;
#N canvas 0 22 450 300 header 0;
#X text 80 12 by Pierre Guillot - 2016;
#X obj 11 11 cnv 15 65 18 empty empty count~ 2 8 0 14 -262144 -66577
0;
#X coords 0 -1 1 1 222 20 2 10 10;
#X restore 9 7 pd header;
#X obj 9 199 print~;
#X obj 18 177 bng 15 250 50 0 empty empty empty 17 7 0 10 -262144 -1
-1;
#X obj 9 97 nbx 5 14 -1e+37 1e+37 0 0 empty empty empty 0 -8 0 10 -262144
-1 -1 0 256;
#X msg 36 136 reset;
#X obj 9 116 t f b;
#X text 7 32 The abstraction counts from zero to a limit value by increasing
or decreasing at each sample the result value. When the counter reaches
the limit \, it returns to zero so the abstraction never outputs the
limit value.;
#X text 78 135 <- reset the count;
#X obj 9 157 snd.count~ 22;
#X connect 2 0 1 0;
#X connect 3 0 5 0;
#X connect 4 0 8 0;
#X connect 5 0 8 0;
#X connect 5 1 4 0;
#X connect 8 0 1 0;
