#N canvas 657 52 263 240 10;
#X obj 32 192 dac~;
#X msg 162 140 \; pd dsp 1;
#X msg 162 179 \; pd dsp 0;
#X symbolatom 32 39 30 0 0 0 - - -;
#X obj 162 108 loadbang;
#X obj 32 142 snd.flite;
#X obj 52 102 l2s;
#X msg 52 69 this is a message to symbol;
#X obj 32 19 bng 15 250 50 0 empty empty empty 17 7 0 10 -262144 -1
-1;
#X connect 3 0 5 0;
#X connect 4 0 1 0;
#X connect 5 0 0 0;
#X connect 6 0 5 0;
#X connect 7 0 6 0;
#X connect 8 0 3 0;
