#N canvas 460 436 882 367 10;
#X obj 13 94 rpole~ 1;
#X obj 13 58 sig~ 0.781405;
#X obj 13 15 inlet;
#N canvas 561 127 383 106 \$0-dexpr-sub 0;
#X obj 20 20 inlet~;
#X obj 20 40 expr~ ($v1>>7|$v1|$v1>>6)*10+4*($v1&$v1>>13|$v1>>6);
#X obj 20 60 outlet~;
#X connect 0 0 1 0;
#X connect 1 0 2 0;
#X restore 13 120 pd \$0-dexpr-sub;
#X obj 13 226 outlet~;
#X obj 13 198 *~ 0.5;
#X obj 13 172 lop~ 4000;
#X obj 13 147 expr~ ((($v1&0xff)^0x80)-128)/128;
#X text 224 145 <-- putchar \, conversion 2 unsigend char;
#X text 78 172 <-- filter frequencies above 4 khz;
#X obj 485 16 inlet;
#X obj 485 39 symbol;
#X obj 495 104 list append \$1;
#X text 482 281 (c)2012 \, megrimm;
#X obj 495 81 loadbang;
#X obj 571 255 namecanvas \$0-dexpr;
#X obj 512 184 s pd-\$0-dexpr-sub;
#X msg 485 126 clear \, obj 20 20 inlet~ \, obj 20 40 expr~ \$1 \,
obj 20 60 outlet~ \, connect 0 0 1 0 \, connect 1 0 2 0;
#X obj 486 256 s \$0-dexpr;
#X obj 485 162 t b a;
#X obj 485 207 delay 1;
#X msg 486 232 connect 0 0 3 0 \, connect 3 0 7 0;
#X obj 13 37 / 78.1405;
#X text 32 271 todo: change samp rate;
#X msg 121 59 clear;
#X obj 104 227 outlet;
#X obj 105 203 r \$0-loadedexpr;
#X obj 493 60 s \$0-loadedexpr;
#X connect 0 0 3 0;
#X connect 1 0 0 0;
#X connect 2 0 22 0;
#X connect 3 0 7 0;
#X connect 5 0 4 0;
#X connect 6 0 5 0;
#X connect 7 0 6 0;
#X connect 10 0 11 0;
#X connect 11 0 17 0;
#X connect 11 0 27 0;
#X connect 12 0 17 0;
#X connect 14 0 12 0;
#X connect 17 0 19 0;
#X connect 19 0 20 0;
#X connect 19 1 16 0;
#X connect 20 0 21 0;
#X connect 21 0 18 0;
#X connect 22 0 1 0;
#X connect 24 0 0 0;
#X connect 26 0 25 0;
