#N canvas 562 239 450 300 10;
#X obj 119 66 inlet~;
#X obj 104 227 *~;
#X obj 334 69 inlet;
#X text 375 69 punch power;
#X obj 103 252 outlet~;
#X text 56 37 NEEDS ZEXY;
#X text 45 19 PUNCH BOOSTS THE AMPLITUDE NEVER EXCEEDING 1 or -1;
#X obj 48 161 limiter~;
#X obj 120 202 z~ 1;
#X obj 239 66 inlet~;
#X obj 224 227 *~;
#X obj 223 252 outlet~;
#X obj 168 161 limiter~;
#X obj 240 202 z~ 1;
#X obj 119 133 *~ 2;
#X obj 239 133 *~ 2;
#X connect 0 0 14 0;
#X connect 1 0 4 0;
#X connect 2 0 14 1;
#X connect 2 0 15 1;
#X connect 7 0 1 0;
#X connect 8 0 1 1;
#X connect 9 0 15 0;
#X connect 10 0 11 0;
#X connect 12 0 10 0;
#X connect 13 0 10 1;
#X connect 14 0 7 0;
#X connect 14 0 8 0;
#X connect 15 0 12 0;
#X connect 15 0 13 0;
