#N canvas 75 26 1345 818 10;
#X obj 109 531 outlet~;
#X obj 1202 396 switch~;
#X obj 77 -111 inlet~;
#X obj 326 -4 * -1;
#X obj 396 -66 * 0.99;
#X obj 396 -38 + 0.01;
#X obj 585 270 t f f;
#X obj 585 293 *;
#X obj 585 317 * 20000;
#X obj 100 62 -~;
#X obj 692 8 * 10;
#X obj 156 147 clip~ -1 1;
#X obj 141 184 -~;
#X obj 429 159 * 4;
#X obj 110 -62 * 8;
#X obj 76 331 -~;
#X obj 844 499 != 1;
#X obj 109 488 lop~ 16000;
#X obj 77 -38 *~ 3.2;
#X obj 116 -7 clip~ -0.307 0.307;
#X obj 99 93 *~ 1;
#X obj 158 355 *~ 0;
#X obj 110 365 *~ 1;
#X obj 110 297 *~ 1;
#X obj 77 286 *~ 1;
#X obj 784 63 tgl 15 0 \$2-bon-distort-difference \$2-bon-distort-differencer
d 4 8 0 8 -228992 -62784 -62784 0 1;
#X msg 1202 372 1;
#X obj 1202 349 loadbang;
#X obj 952 399 s \$0-pregain;
#X obj 999 368 s \$0-clip;
#X obj 1048 330 s \$0-postgain;
#X obj 1097 284 s \$0-lopass;
#X obj 1145 253 s \$0-fuzz;
#X obj 1195 225 s \$0-difference;
#X obj 951 191 route pregain clip postgain lopass fuzz difference;
#X obj 111 -83 r \$0-pregain;
#X obj 396 -114 r \$0-clip;
#X obj 474 -115 r \$0-postgain;
#X obj 585 -54 r \$0-lopass;
#X obj 692 -43 r \$0-fuzz;
#X obj 814 -22 r \$0-difference;
#X obj 942 -109 inlet;
#X obj 952 374 / 100;
#X obj 1001 339 / 100;
#X obj 1045 301 / 100;
#X obj 1086 255 / 100;
#X obj 1147 231 / 100;
#X connect 2 0 18 0;
#X connect 3 0 11 1;
#X connect 3 0 19 1;
#X connect 4 0 5 0;
#X connect 5 0 3 0;
#X connect 5 0 11 2;
#X connect 5 0 19 2;
#X connect 6 0 7 0;
#X connect 6 1 7 1;
#X connect 7 0 8 0;
#X connect 8 0 17 1;
#X connect 9 0 20 0;
#X connect 10 0 20 1;
#X connect 11 0 12 1;
#X connect 12 0 23 0;
#X connect 13 0 23 1;
#X connect 13 0 24 1;
#X connect 14 0 18 1;
#X connect 15 0 21 0;
#X connect 16 0 22 1;
#X connect 17 0 0 0;
#X connect 18 0 9 0;
#X connect 18 0 19 0;
#X connect 18 0 24 0;
#X connect 19 0 9 1;
#X connect 19 0 12 0;
#X connect 20 0 11 0;
#X connect 21 0 17 0;
#X connect 22 0 17 0;
#X connect 23 0 15 1;
#X connect 23 0 22 0;
#X connect 24 0 15 0;
#X connect 25 0 21 1;
#X connect 25 0 16 0;
#X connect 26 0 1 0;
#X connect 27 0 26 0;
#X connect 34 0 42 0;
#X connect 34 1 43 0;
#X connect 34 2 44 0;
#X connect 34 3 45 0;
#X connect 34 4 46 0;
#X connect 34 5 33 0;
#X connect 35 0 14 0;
#X connect 36 0 4 0;
#X connect 37 0 13 0;
#X connect 38 0 6 0;
#X connect 39 0 10 0;
#X connect 40 0 16 0;
#X connect 40 0 21 1;
#X connect 41 0 34 0;
#X connect 42 0 28 0;
#X connect 43 0 29 0;
#X connect 44 0 30 0;
#X connect 45 0 31 0;
#X connect 46 0 32 0;
