#N canvas 522 22 397 344 10;
#N canvas 0 22 450 300 (subpatch) 0;
#X array \$0-words 71216 float 0;
#X coords 0 1 71215 -1 100 70 1 0 0;
#X restore 231 45 graph;
#X obj 81 165 print flite-synth-done;
#X msg 34 73 list \$1;
#X obj 34 105 t b a;
#X obj 34 42 inlet;
#X obj 34 264 outlet~;
#X obj 34 203 tabplay~ \$0-words;
#X obj 81 136 moocow/flite \$0-words;
#X connect 2 0 3 0;
#X connect 3 0 6 0;
#X connect 3 1 7 0;
#X connect 4 0 2 0;
#X connect 6 0 5 0;
#X connect 7 0 1 0;
