#N canvas 249 337 420 405 10;
#X obj 53 -24 pix_rgb2hsv;
#X obj 53 -2 pix_rgba;
#X obj 53 -48 pix_rgba;
#X obj 80 -156 expr sqrt($f1);
#X obj 53 -72 pix_resize;
#X obj 80 -131 int;
#X msg 80 -104 dimen \$1 \$1;
#X obj 197 -179 expr $f1*$f1;
#X obj 80 -179 r \$0-blocksize;
#N canvas 221 419 505 390 pix2sig-sub 0;
#X obj 336 -84 inlet;
#X obj 335 -38 block~ 4096;
#X obj 222 -41 pix_pix2sig~;
#X obj 189 -126 inlet;
#X obj 239 -10 outlet~;
#X obj 256 13 outlet~;
#X obj 273 35 outlet~;
#X obj 291 58 outlet~;
#X msg 335 -63 set \$1;
#X connect 0 0 8 0;
#X connect 2 1 4 0;
#X connect 2 2 5 0;
#X connect 2 3 6 0;
#X connect 2 4 7 0;
#X connect 3 0 2 0;
#X connect 8 0 1 0;
#X restore 53 23 pd pix2sig-sub;
#X obj 134 -15 r \$0-blocksize;
#X text 148 21 <-- block has to be in a subpatch;
#X obj 53 67 outlet~;
#X obj 107 68 outlet~;
#X obj 53 -222 inlet;
#X floatatom 197 -152 5 0 0 0 - - -;
#X obj 197 -125 s \$0-blocksize;
#X obj 197 -221 inlet;
#X obj 10 89 outlet;
#X connect 0 0 1 0;
#X connect 1 0 9 0;
#X connect 1 0 18 0;
#X connect 2 0 0 0;
#X connect 3 0 5 0;
#X connect 4 0 2 0;
#X connect 5 0 6 0;
#X connect 6 0 4 0;
#X connect 7 0 15 0;
#X connect 8 0 3 0;
#X connect 9 0 12 0;
#X connect 9 2 13 0;
#X connect 10 0 9 1;
#X connect 14 0 4 0;
#X connect 15 0 16 0;
#X connect 17 0 7 0;
