#N canvas 161 78 625 726 10;
#X obj 23 -59 inlet~;
#X obj 147 604 writesf~ 2;
#X obj 74 -58 inlet~;
#X obj 266 208 + 1;
#X msg 182 208 start;
#X msg 147 202 stop;
#X obj 233 602 outlet number written;
#X obj 149 -61 inlet toggle;
#X obj 182 167 t b b;
#X obj 386 77 loadbang;
#X obj 329 241 mergefilename /;
#X obj 386 174 pack s s;
#X obj 386 102 t b b;
#X obj 386 142 symbol \$1;
#X msg 386 197 \$2 \$1;
#X obj 296 266 symbol;
#X obj 233 233 t f f b;
#X obj 252 465 mergefilename /;
#X obj 252 423 pack s s;
#X msg 252 444 \$2 \$1;
#X obj 296 287 makefilename %s;
#N canvas 1114 179 450 300 timestamp 0;
#X obj 186 71 time;
#X obj 186 118 mergefilename .;
#X obj 186 96 pack f f f;
#X obj 63 121 mergefilename .;
#X obj 63 99 pack f f f;
#X obj 63 74 date;
#X obj 63 159 pack s s;
#X obj 63 181 mergefilename _;
#X obj 63 207 outlet;
#X obj 63 19 inlet;
#X obj 63 45 t b b;
#X connect 0 0 2 0;
#X connect 0 1 2 1;
#X connect 0 2 2 2;
#X connect 1 0 6 1;
#X connect 2 0 1 0;
#X connect 3 0 6 0;
#X connect 4 0 3 0;
#X connect 5 0 4 0;
#X connect 5 1 4 1;
#X connect 5 2 4 2;
#X connect 6 0 7 0;
#X connect 7 0 8 0;
#X connect 9 0 10 0;
#X connect 10 0 5 0;
#X connect 10 1 0 0;
#X restore 297 335 pd timestamp;
#X obj 252 285 t f b;
#X obj 252 360 pack s s;
#X obj 252 313 makefilename %d;
#X obj 252 381 mergefilename _;
#X obj 252 402 makefilename take_%s.wav;
#X obj 233 207 f 1;
#X obj 454 117 loadbang;
#X obj 454 141 getdir 2;
#X msg 252 486 stop \, open -bytes 4 \$1;
#X obj 329 199 symbol;
#X obj 255 50 s pd;
#X msg 255 18 audio-dialog 0 0 0 0 2 0 0 0 0 0 0 0 2 0 0 0 \$1 20 0
64;
#X obj 149 -32 route 0 1;
#X obj 200 -6 route save samprate;
#X connect 0 0 1 0;
#X connect 2 0 1 1;
#X connect 3 0 27 1;
#X connect 4 0 1 0;
#X connect 5 0 1 0;
#X connect 7 0 34 0;
#X connect 8 0 4 0;
#X connect 8 1 27 0;
#X connect 9 0 12 0;
#X connect 10 0 15 1;
#X connect 11 0 14 0;
#X connect 12 0 13 0;
#X connect 12 1 29 0;
#X connect 13 0 11 0;
#X connect 14 0 10 0;
#X connect 15 0 20 0;
#X connect 16 0 6 0;
#X connect 16 1 22 0;
#X connect 16 2 15 0;
#X connect 17 0 30 0;
#X connect 18 0 19 0;
#X connect 19 0 17 0;
#X connect 20 0 18 1;
#X connect 21 0 23 1;
#X connect 22 0 24 0;
#X connect 22 1 21 0;
#X connect 23 0 25 0;
#X connect 24 0 23 0;
#X connect 25 0 26 0;
#X connect 26 0 18 0;
#X connect 27 0 3 0;
#X connect 27 0 16 0;
#X connect 28 0 29 0;
#X connect 29 0 11 1;
#X connect 30 0 1 0;
#X connect 31 0 10 0;
#X connect 33 0 32 0;
#X connect 34 0 5 0;
#X connect 34 1 8 0;
#X connect 34 2 35 0;
#X connect 35 0 31 0;
#X connect 35 1 33 0;
