#N canvas 477 107 444 629 10;
#X obj 56 155 *~;
#X obj 71 109 30000;
#X obj 56 35 loadbang;
#X obj 71 405 line~;
#X obj 56 455 *~;
#X obj 71 427 dbtorms~;
#X obj 56 59 19572;
#X obj 56 503 hip~;
#X obj 56 548 hip~;
#X obj 71 360 pack;
#X obj 71 246 *;
#X obj 71 266 / 16129;
#X obj 71 223 t f f;
#X obj 71 286 rmstodb;
#X msg 71 383 \$1 \, 0 \$2;
#X obj 71 200 * 130;
#X obj 215 332 loadbang;
#X obj 56 577 outlet~;
#X obj 215 354 \$0;
#X obj 216 100 route vol dec crh;
#X obj 216 298 s \$0-hihat-vol;
#X obj 248 246 s \$0-hihat-dec;
#X obj 282 173 s \$0-hihat-crh;
#X obj 71 178 r \$0-hihat-vol;
#X obj 92 338 r \$0-hihat-dec;
#X obj 77 481 r \$0-hihat-crh;
#X obj 87 313 inlet;
#X obj 216 33 inlet;
#X obj 77 526 r \$0-hihat-crh;
#X obj 216 275 / 100;
#X obj 249 224 + 50;
#X obj 249 200 * 49.5;
#X obj 282 151 + 220;
#X obj 282 126 * 117.8;
#X msg 215 377 \; \$1-table24 sinesum 256 1 1 1 1 0 0 0 0 1 0 0 0 0
0 0 1 0 0 0 0 0 0 1 0 0 0 0 0 0 1 0 0 0 0 1 0 0 0 0 0 1 0 0 0 0 1 \,
normalize 1, f 22;
#X obj 215 474 table \$0-table24 259;
#X obj 56 84 tabosc4~ \$0-table24;
#X obj 71 131 tabosc4~ \$0-table24;
#X obj 224 54 loadbang;
#X msg 224 75 vol 60 \, dec 13 \, crh 10;
#X connect 0 0 4 0;
#X connect 1 0 37 0;
#X connect 2 0 6 0;
#X connect 2 0 1 0;
#X connect 3 0 5 0;
#X connect 4 0 7 0;
#X connect 5 0 4 1;
#X connect 6 0 36 0;
#X connect 7 0 8 0;
#X connect 8 0 17 0;
#X connect 9 0 14 0;
#X connect 10 0 11 0;
#X connect 11 0 13 0;
#X connect 12 0 10 0;
#X connect 12 1 10 1;
#X connect 13 0 9 0;
#X connect 14 0 3 0;
#X connect 15 0 12 0;
#X connect 16 0 18 0;
#X connect 18 0 34 0;
#X connect 19 0 29 0;
#X connect 19 1 31 0;
#X connect 19 2 33 0;
#X connect 23 0 15 0;
#X connect 24 0 9 1;
#X connect 25 0 7 1;
#X connect 26 0 9 0;
#X connect 27 0 19 0;
#X connect 28 0 8 1;
#X connect 29 0 20 0;
#X connect 30 0 21 0;
#X connect 31 0 30 0;
#X connect 32 0 22 0;
#X connect 33 0 32 0;
#X connect 36 0 0 0;
#X connect 37 0 0 1;
#X connect 38 0 39 0;
#X connect 39 0 19 0;
