#N canvas 0 1 1022 680 10;
#X obj 169 128 phasor~;
#X obj 169 106 mtof;
#X obj 169 60 f 60;
#X obj 169 37 metro 500;
#X obj 169 17 tgl 15 0 empty empty empty 17 7 0 10 -262144 -1 -1 0
1;
#X obj 169 83 t f b;
#X obj 196 178 vline~;
#X obj 169 203 *~;
#X obj 159 502 dac~;
#X obj 158 477 catch~ oL;
#X obj 237 481 catch~ oR;
#X obj 168 414 throw~ oL;
#X obj 230 413 throw~ oR;
#X obj 231 68 hsl 128 15 0 127 0 0 empty empty empty -2 -8 0 10 -262144
-1 -1 2600 1;
#X obj 169 285 bp~ 800 25;
#X obj 335 286 bp~ 1200 25;
#X obj 476 286 bp~ 2500 25;
#X text 658 60 a;
#X obj 263 184 r vowel;
#X obj 430 196 s vowel;
#X obj 197 253 line;
#X obj 237 253 line;
#X obj 357 253 line;
#X obj 397 256 line;
#X obj 507 253 line;
#X obj 548 255 line;
#X text 663 83 i;
#X msg 197 230 \$1 500;
#X msg 237 230 \$1 500;
#X msg 357 230 \$1 500;
#X msg 397 230 \$1 500;
#X msg 507 230 \$1 500;
#X msg 546 230 \$1 500;
#X msg 460 111 220 25 1 600 25 1 2500 60 0.2;
#X text 658 110 0o;
#X msg 430 62 800 30 1 1200 25 0.7 2500 25 0.5;
#X msg 446 86 220 25 1 2200 25 0.4 3000 20 0.4;
#X obj 476 319 *~;
#X msg 595 233 \$1 500;
#X obj 597 258 line~;
#X obj 263 203 unpack f f f f f f f f f;
#X obj 336 319 *~;
#X msg 445 233 \$1 500;
#X obj 447 258 line~;
#X obj 169 309 *~;
#X msg 295 233 \$1 500;
#X obj 297 258 line~;
#X text 666 134 -a-;
#X msg 473 162 500 25 1 2300 25 1 2500 60 0;
#X msg 466 135 1000 25 1 1400 25 1 2500 60 0;
#X text 663 164 e;
#X obj 68 12 notein 1;
#X obj 113 91 sel 0 1;
#X msg 226 153 0 50;
#X msg 197 153 1 2;
#X obj 113 61 > 10;
#X obj 430 16 random 5;
#X obj 430 37 sel 0 1 2 3 4;
#X text 367 393 vowel filters proof of concept;
#X text 365 409 www.timvets.net;
#X obj 168 379 lop~ 10000;
#X obj 290 550 writesf~ 2;
#X obj 366 487 savepanel;
#X msg 366 510 open \$1 \, start;
#X msg 462 511 stop;
#X obj 367 467 bng 15 250 50 0 empty empty empty 17 7 0 10 -262144
-1 -1;
#X obj 226 127 del 450;
#X connect 0 0 7 0;
#X connect 1 0 0 0;
#X connect 2 0 5 0;
#X connect 3 0 2 0;
#X connect 4 0 3 0;
#X connect 5 0 1 0;
#X connect 5 1 56 0;
#X connect 5 1 54 0;
#X connect 5 1 66 0;
#X connect 6 0 7 1;
#X connect 7 0 14 0;
#X connect 7 0 15 0;
#X connect 7 0 16 0;
#X connect 9 0 8 0;
#X connect 9 0 61 0;
#X connect 10 0 8 1;
#X connect 10 0 61 1;
#X connect 13 0 2 1;
#X connect 14 0 44 0;
#X connect 15 0 41 0;
#X connect 16 0 37 0;
#X connect 18 0 40 0;
#X connect 20 0 14 1;
#X connect 21 0 14 2;
#X connect 22 0 15 1;
#X connect 23 0 15 2;
#X connect 24 0 16 1;
#X connect 25 0 16 2;
#X connect 27 0 20 0;
#X connect 28 0 21 0;
#X connect 29 0 22 0;
#X connect 30 0 23 0;
#X connect 31 0 24 0;
#X connect 32 0 25 0;
#X connect 33 0 19 0;
#X connect 35 0 19 0;
#X connect 36 0 19 0;
#X connect 37 0 60 0;
#X connect 38 0 39 0;
#X connect 39 0 37 1;
#X connect 40 0 27 0;
#X connect 40 1 28 0;
#X connect 40 2 45 0;
#X connect 40 3 29 0;
#X connect 40 4 30 0;
#X connect 40 5 42 0;
#X connect 40 6 31 0;
#X connect 40 7 32 0;
#X connect 40 8 38 0;
#X connect 41 0 60 0;
#X connect 42 0 43 0;
#X connect 43 0 41 1;
#X connect 44 0 60 0;
#X connect 45 0 46 0;
#X connect 46 0 44 1;
#X connect 48 0 19 0;
#X connect 49 0 19 0;
#X connect 51 0 2 0;
#X connect 51 1 55 0;
#X connect 52 0 53 0;
#X connect 52 1 54 0;
#X connect 53 0 6 0;
#X connect 54 0 6 0;
#X connect 55 0 52 0;
#X connect 56 0 57 0;
#X connect 57 0 35 0;
#X connect 57 1 36 0;
#X connect 57 2 33 0;
#X connect 57 3 49 0;
#X connect 57 4 48 0;
#X connect 60 0 11 0;
#X connect 60 0 12 0;
#X connect 62 0 63 0;
#X connect 63 0 61 0;
#X connect 64 0 61 0;
#X connect 65 0 62 0;
#X connect 66 0 53 0;
