#N canvas 0 22 668 769 10;
#X obj 41 266 line~;
#X obj 41 289 dbtorms~;
#X obj 28 319 *~;
#X obj 225 95 bng 25 250 50 0 empty empty empty 0 -6 0 8 -262144 -1
-1;
#X msg 41 244 \$2 \, 0 \$1;
#X obj 225 157 noise~;
#X obj 238 311 line~;
#X obj 238 334 dbtorms~;
#X obj 225 359 *~;
#X msg 238 289 \$2 \, 0 \$1;
#X obj 336 370 line~;
#X obj 336 393 dbtorms~;
#X obj 310 417 *~;
#X msg 336 348 \$2 \, 0 \$1;
#X obj 128 298 line~;
#X obj 128 321 dbtorms~;
#X obj 115 351 *~;
#X msg 128 276 \$2 \, 0 \$1;
#X obj 128 256 pack 0 100;
#X obj 115 158 * 0.560606;
#X obj 142 212 * 0.5;
#X obj 41 223 pack 0 80;
#X obj 337 328 pack 0 94;
#X obj 350 285 * 0.4;
#X obj 281 206 * 0.2;
#X obj 239 269 pack 0 94;
#X obj 41 158 f;
#X obj 28 188 osc~;
#X obj 115 192 osc~;
#X obj 128 236 f;
#X obj 225 180 lop~;
#X obj 225 201 lop~;
#X obj 238 243 f;
#X obj 310 257 hip~;
#X obj 310 279 hip~;
#X obj 337 307 f;
#X obj 382 115 exp;
#X obj 382 93 min 10;
#X obj 425 93 max 10;
#X obj 425 114 - 9;
#X obj 425 137 * 4;
#X obj 425 159 exp;
#X obj 382 69 + 6;
#X obj 253 390 * 2;
#X msg 199 414 2;
#X obj 199 436 -;
#X obj 199 458 min 1;
#X obj 253 440 min 1;
#X obj 74 161 0.25;
#X text 28 16 220-3000 log;
#X text 117 16 100-1000 lin;
#X text 209 18 0-1 lin;
#X text 401 17 0-5.5 lin;
#X text 298 18 0-1 lin;
#X obj 28 56 t b f;
#X obj 207 56 * 0.5;
#X obj 231 528 * 2;
#X obj 227 587 min 1;
#X obj 266 588 min 1;
#X text 500 16 0-1 lin;
#X obj 214 655 throw~ \$0-suml;
#X obj 253 635 throw~ \$0-sumr;
#X obj 443 468 switch~;
#N canvas 690 568 212 160 snare.switch 0;
#X obj 15 56 del;
#X obj 15 35 t b f b;
#X obj 52 73 1;
#X obj 15 76 0;
#X obj 15 97 f;
#X obj 15 11 inlet;
#X obj 15 128 outlet;
#X obj 83 127 s \$0-snare.switch;
#X connect 0 0 3 0;
#X connect 1 0 0 0;
#X connect 1 1 0 1;
#X connect 1 2 2 0;
#X connect 2 0 4 0;
#X connect 3 0 4 0;
#X connect 4 0 6 0;
#X connect 4 0 7 0;
#X connect 5 0 1 0;
#X restore 443 427 pd snare.switch;
#X msg 266 543 2;
#X obj 266 565 -;
#X obj 266 523 t f f;
#X obj 28 34 r \$1-snare-tun;
#X obj 117 34 r \$1-snare-dec;
#X obj 207 34 r \$1-snare-vol;
#X obj 298 34 r \$1-snare-mix;
#X obj 395 32 r \$1-snare-nos;
#X obj 489 33 r \$1-snare-pan;
#X obj 186 480 *~ 0;
#X obj 239 481 *~ 0;
#X obj 214 511 *~ 0;
#X obj 214 609 *~ 0;
#X obj 253 610 *~ 0;
#X connect 0 0 1 0;
#X connect 1 0 2 1;
#X connect 2 0 73 0;
#X connect 3 0 26 0;
#X connect 3 0 29 0;
#X connect 3 0 32 0;
#X connect 3 0 35 0;
#X connect 3 0 48 0;
#X connect 4 0 0 0;
#X connect 5 0 30 0;
#X connect 6 0 7 0;
#X connect 7 0 8 1;
#X connect 8 0 74 0;
#X connect 9 0 6 0;
#X connect 10 0 11 0;
#X connect 11 0 12 1;
#X connect 12 0 74 0;
#X connect 13 0 10 0;
#X connect 14 0 15 0;
#X connect 15 0 16 1;
#X connect 16 0 73 0;
#X connect 17 0 14 0;
#X connect 18 0 17 0;
#X connect 19 0 28 0;
#X connect 20 0 29 1;
#X connect 21 0 4 0;
#X connect 22 0 13 0;
#X connect 23 0 35 1;
#X connect 24 0 32 1;
#X connect 25 0 9 0;
#X connect 26 0 21 0;
#X connect 27 0 2 0;
#X connect 28 0 16 0;
#X connect 29 0 18 0;
#X connect 30 0 31 0;
#X connect 31 0 8 0;
#X connect 31 0 33 0;
#X connect 32 0 25 0;
#X connect 33 0 34 0;
#X connect 34 0 12 0;
#X connect 35 0 22 0;
#X connect 36 0 31 1;
#X connect 36 0 30 1;
#X connect 37 0 36 0;
#X connect 38 0 39 0;
#X connect 39 0 40 0;
#X connect 40 0 41 0;
#X connect 41 0 33 1;
#X connect 41 0 34 1;
#X connect 42 0 37 0;
#X connect 42 0 38 0;
#X connect 43 0 45 1;
#X connect 43 0 44 0;
#X connect 43 0 47 0;
#X connect 44 0 45 0;
#X connect 45 0 46 0;
#X connect 46 0 73 1;
#X connect 47 0 74 1;
#X connect 48 0 27 1;
#X connect 48 0 28 1;
#X connect 54 0 3 0;
#X connect 54 1 27 0;
#X connect 54 1 19 0;
#X connect 55 0 75 1;
#X connect 56 0 57 0;
#X connect 56 0 66 0;
#X connect 57 0 76 1;
#X connect 58 0 77 1;
#X connect 63 0 62 0;
#X connect 64 0 65 0;
#X connect 65 0 58 0;
#X connect 66 0 64 0;
#X connect 66 1 65 1;
#X connect 67 0 54 0;
#X connect 68 0 26 1;
#X connect 68 0 20 0;
#X connect 68 0 24 0;
#X connect 68 0 23 0;
#X connect 68 0 63 0;
#X connect 69 0 55 0;
#X connect 70 0 43 0;
#X connect 71 0 42 0;
#X connect 72 0 56 0;
#X connect 73 0 75 0;
#X connect 74 0 75 0;
#X connect 75 0 76 0;
#X connect 75 0 77 0;
#X connect 76 0 60 0;
#X connect 77 0 61 0;
