#N canvas 73 49 861 733 10;
#X obj 445 584 syn.bd~;
#X obj 444 667 dac~;
#X obj 217 368 bng 15 250 50 0 empty empty empty 17 7 0 10 -262144
-1 -1;
#X msg 594 125 afq \$1;
#X msg 595 171 efq \$1;
#X floatatom 595 150 5 0 100 0 - - -;
#X floatatom 594 101 5 0 100 0 - - -;
#X floatatom 596 241 5 0 100 0 - - -;
#X msg 596 263 att \$1;
#X floatatom 596 196 5 0 100 0 - - -;
#X msg 596 218 tim \$1;
#X floatatom 596 290 5 0 100 0 - - -;
#X msg 596 312 dec \$1;
#X floatatom 596 340 5 0 100 0 - - -;
#X msg 596 362 cur \$1;
#X floatatom 596 387 5 0 100 0 - - -;
#X msg 596 409 dis \$1;
#X floatatom 597 435 5 0 100 0 - - -;
#X msg 597 457 lop \$1;
#X floatatom 599 481 5 0 100 0 - - -;
#X msg 599 503 vol \$1;
#X obj 81 265 loadbang;
#X msg 81 287 \; pd dsp 1 \;;
#X msg 231 245 1;
#X msg 236 222 0;
#N canvas 939 57 485 387 \$0-presets 1;
#X obj 39 328 outlet;
#X obj 40 72 sel 0 1 2 3;
#X obj 40 33 inlet;
#X msg 40 127 afq 3 \, efq 22 \, tim 1 \, att 1 \, dec 1 \, cur 18
\, dis 4 \, lop 18 \, vol 80;
#X msg 66 169 afq 3 \, efq 16 \, tim 0 \, att 1 \, dec 70 \, cur 18
\, dis 0 \, lop 18 \, vol 70;
#X msg 82 207 afq 10 \, efq 10 \, tim 0 \, att 86 \, dec 100 \, cur
100 \, dis 0 \, lop 8 \, vol 70;
#X connect 1 0 3 0;
#X connect 1 1 4 0;
#X connect 1 2 5 0;
#X connect 2 0 1 0;
#X connect 3 0 0 0;
#X connect 4 0 0 0;
#X connect 5 0 0 0;
#X restore 590 71 pd \$0-presets;
#X obj 590 48 hradio 15 1 0 8 empty empty empty 0 -8 0 10 -262144 -1
-1 1;
#X text 652 503 <-- volume;
#X text 641 405 <-- distortion;
#X text 646 454 <-- lowpass;
#X text 646 359 <-- log line;
#X text 643 311 <-- decay;
#X text 644 260 <-- attack;
#X text 644 214 <-- time;
#X text 642 168 <-- end freq;
#X text 643 122 <-- attack freq;
#X obj 221 269 metro 1000;
#X connect 0 0 1 0;
#X connect 0 0 1 1;
#X connect 2 0 0 0;
#X connect 3 0 0 1;
#X connect 4 0 0 1;
#X connect 5 0 4 0;
#X connect 6 0 3 0;
#X connect 7 0 8 0;
#X connect 8 0 0 1;
#X connect 9 0 10 0;
#X connect 10 0 0 1;
#X connect 11 0 12 0;
#X connect 12 0 0 1;
#X connect 13 0 14 0;
#X connect 14 0 0 1;
#X connect 15 0 16 0;
#X connect 16 0 0 1;
#X connect 17 0 18 0;
#X connect 18 0 0 1;
#X connect 19 0 20 0;
#X connect 20 0 0 1;
#X connect 21 0 22 0;
#X connect 23 0 36 0;
#X connect 24 0 36 0;
#X connect 25 0 0 1;
#X connect 26 0 25 0;
#X connect 36 0 2 0;
