#N canvas 0 22 647 634 10;
#X obj 52 136 *~;
#X obj 160 72 30000;
#X obj 28 38 loadbang;
#X obj 142 257 line~;
#X obj 52 305 *~;
#X obj 142 279 dbtorms~;
#X obj 28 70 19572;
#X obj 52 331 hip~;
#X obj 52 354 hip~;
#X obj 142 212 pack;
#X obj 93 213 *;
#X obj 93 233 / 16129;
#X obj 93 194 t f f;
#X obj 93 253 rmstodb;
#X msg 142 235 \$1 \, 0 \$2;
#X obj 135 401 * 2;
#X msg 135 448 2;
#X obj 135 470 -;
#X obj 65 497 min 1;
#X obj 135 492 min 1;
#X obj 93 175 * 130;
#X obj 377 263 switch~;
#N canvas 690 540 212 160 hihat.switch 0;
#X obj 15 56 del;
#X obj 15 35 t b f b;
#X obj 52 73 1;
#X obj 15 76 0;
#X obj 15 97 f;
#X obj 15 11 inlet;
#X obj 15 128 outlet;
#X obj 82 127 s \$0-hihat.switch;
#X connect 0 0 3 0;
#X connect 1 0 0 0;
#X connect 1 1 0 1;
#X connect 1 2 2 0;
#X connect 2 0 4 0;
#X connect 3 0 4 0;
#X connect 4 0 6 0;
#X connect 4 0 7 0;
#X connect 5 0 1 0;
#X restore 377 222 pd hihat.switch;
#X obj 135 426 t f f;
#X obj 93 147 r \$1-hihat-vol;
#X obj 184 147 r \$1-hihat-dec;
#X obj 274 147 r \$1-hihat-crh;
#X obj 373 148 r \$1-hihat-pan;
#X obj 228 248 loadbang;
#X obj 228 276 \$1;
#X msg 228 306 \; \$1-table24 sinesum 256 1 1 1 1 0 0 0 0 1 0 0 0 0
0 0 1 0 0 0 0 0 0 1 0 0 0 0 0 0 1 0 0 0 0 1 0 0 0 0 0 1 0 0 0 0 1 \,
normalize 1;
#X obj 160 94 tabosc4~ \$1-table24;
#X obj 28 95 tabosc4~ \$1-table24;
#X obj 227 372 table \$1-table24 259;
#X obj 52 518 *~ 0;
#X obj 114 515 *~ 0;
#X obj 114 546 outlet~;
#X obj 52 546 outlet~;
#X connect 0 0 4 0;
#X connect 1 0 31 0;
#X connect 2 0 6 0;
#X connect 2 0 1 0;
#X connect 3 0 5 0;
#X connect 4 0 7 0;
#X connect 5 0 4 1;
#X connect 6 0 32 0;
#X connect 7 0 8 0;
#X connect 8 0 34 0;
#X connect 8 0 35 0;
#X connect 9 0 14 0;
#X connect 10 0 11 0;
#X connect 11 0 13 0;
#X connect 12 0 10 0;
#X connect 12 1 10 1;
#X connect 13 0 9 0;
#X connect 14 0 3 0;
#X connect 15 0 18 0;
#X connect 15 0 23 0;
#X connect 16 0 17 0;
#X connect 17 0 19 0;
#X connect 18 0 34 1;
#X connect 19 0 35 1;
#X connect 20 0 12 0;
#X connect 22 0 21 0;
#X connect 23 0 16 0;
#X connect 23 1 17 1;
#X connect 24 0 20 0;
#X connect 25 0 9 1;
#X connect 25 0 22 0;
#X connect 26 0 7 1;
#X connect 26 0 8 1;
#X connect 27 0 15 0;
#X connect 28 0 29 0;
#X connect 29 0 30 0;
#X connect 31 0 0 1;
#X connect 32 0 0 0;
#X connect 34 0 37 0;
#X connect 35 0 36 0;
