#N canvas 234 697 458 412 10;
#X obj 123 256 cos~;
#X obj 123 228 +~;
#X obj 123 372 outlet~;
#X obj 167 196 *~;
#X obj 62 200 phasor~;
#X obj 364 150 line~;
#X msg 364 124 \$1 10;
#X obj 62 48 inlet;
#X obj 313 31 inlet;
#X obj 132 286 delwrite~ \$0-pm-fb3 1;
#X obj 167 110 delread~ \$0-pm-fb3 0;
#X obj 167 136 biquad~ 0 0 0.5 0.5 0;
#X obj 211 260 block~ 1;
#X text 208 238 block size;
#X text 78 125 filter medium;
#X obj 313 74 route vol;
#X obj 123 339 *~ 1;
#X obj 313 97 s \$0-volume;
#X obj 144 316 r \$0-volume;
#X connect 0 0 9 0;
#X connect 0 0 16 0;
#X connect 1 0 0 0;
#X connect 3 0 1 1;
#X connect 4 0 1 0;
#X connect 5 0 3 1;
#X connect 6 0 5 0;
#X connect 7 0 4 0;
#X connect 8 0 15 0;
#X connect 10 0 11 0;
#X connect 11 0 3 0;
#X connect 15 0 17 0;
#X connect 15 1 6 0;
#X connect 16 0 2 0;
#X connect 18 0 16 1;
