#N canvas 522 22 260 353 10;
#X obj 61 146 print flite-synth-done;
#X msg 34 73 list \$1;
#X obj 34 98 t b a;
#X obj 34 42 inlet;
#X obj 34 257 outlet~;
#X obj 34 196 tabplay~ \$0-words;
#X obj 61 122 moocow/flite \$0-words;
#X text 28 291 (c)2012 \, megrimm;
#X obj 61 169 table \$0-words;
#X connect 1 0 2 0;
#X connect 2 0 5 0;
#X connect 2 1 6 0;
#X connect 3 0 1 0;
#X connect 5 0 4 0;
#X connect 6 0 0 0;
