#N canvas 778 23 363 683 10;
#X obj 49 628 dac~;
#X msg 148 199 afq \$1;
#X msg 154 236 efq \$1;
#X floatatom 154 219 5 0 100 0 - - -, f 5;
#X floatatom 148 181 5 0 100 0 - - -, f 5;
#X floatatom 163 296 5 0 100 0 - - -, f 5;
#X msg 163 313 att \$1;
#X floatatom 159 257 5 0 100 0 - - -, f 5;
#X msg 159 275 tim \$1;
#X floatatom 169 334 5 0 100 0 - - -, f 5;
#X msg 169 352 dec \$1;
#X floatatom 175 374 5 0 100 0 - - -, f 5;
#X msg 175 392 cur \$1;
#X floatatom 180 413 5 0 100 0 - - -, f 5;
#X msg 180 430 dis \$1;
#X floatatom 185 451 5 0 100 0 - - -, f 5;
#X msg 185 469 lop \$1;
#X floatatom 190 490 5 0 100 0 - - -, f 5;
#X msg 190 508 vol \$1;
#X obj 181 594 loadbang;
#X msg 181 616 \; pd dsp 1 \;;
#X msg 50 22 1;
#X msg 60 45 0;
#N canvas 273 23 506 499 \$0-presets 0;
#X obj 19 450 outlet;
#X obj 20 14 inlet;
#X msg 20 85 afq 3 \, efq 22 \, tim 1 \, att 1 \, dec 1 \, cur 18 \,
dis 4 \, lop 18 \, vol 80;
#X msg 33 122 afq 3 \, efq 16 \, tim 0 \, att 1 \, dec 70 \, cur 18
\, dis 0 \, lop 18 \, vol 70;
#X obj 20 53 sel 0 1 2 3 4 5 6 7;
#X msg 75 238 afq 3 \, efq 16 \, tim 0 \, att 1 \, dec 70 \, cur 18
\, dis 0 \, lop 18 \, vol 70;
#X msg 89 278 afq 10 \, efq 10 \, tim 0 \, att 86 \, dec 100 \, cur
100 \, dis 0 \, lop 8 \, vol 70;
#X msg 103 317 afq 3 \, efq 16 \, tim 0 \, att 1 \, dec 70 \, cur 18
\, dis 0 \, lop 18 \, vol 70;
#X msg 117 361 afq 10 \, efq 10 \, tim 0 \, att 86 \, dec 100 \, cur
100 \, dis 0 \, lop 8 \, vol 70;
#X msg 47 162 afq 60 \, efq 20 \, tim 50 \, att 60 \, dec 80 \, cur
100 \, dis 0 \, lop 30 \, vol 80;
#X msg 61 201 afq 10 \, efq 10 \, tim 0 \, att 86 \, dec 100 \, cur
100 \, dis 0 \, lop 8 \, vol 70;
#X connect 1 0 4 0;
#X connect 2 0 0 0;
#X connect 3 0 0 0;
#X connect 4 0 2 0;
#X connect 4 1 3 0;
#X connect 4 2 9 0;
#X connect 4 3 10 0;
#X connect 4 4 5 0;
#X connect 4 5 6 0;
#X connect 4 6 7 0;
#X connect 4 7 8 0;
#X connect 5 0 0 0;
#X connect 6 0 0 0;
#X connect 7 0 0 0;
#X connect 8 0 0 0;
#X connect 9 0 0 0;
#X connect 10 0 0 0;
#X restore 144 151 pd \$0-presets;
#X obj 144 128 hradio 15 1 0 8 empty empty empty 0 -8 0 10 -262144
-1 -1 0;
#X text 243 508 <-- volume;
#X text 225 426 <-- distortion;
#X text 234 466 <-- lowpass;
#X text 225 389 <-- log line;
#X text 216 351 <-- decay;
#X text 211 310 <-- attack;
#X text 207 271 <-- time;
#X text 201 233 <-- end freq;
#X text 197 196 <-- attack freq;
#X obj 50 72 metro 1000;
#X obj 50 545 syn.bassdrum~;
#X obj 50 97 bng 50 250 50 0 empty empty empty 17 7 0 10 -258113 -1
-1;
#X connect 1 0 35 1;
#X connect 2 0 35 1;
#X connect 3 0 2 0;
#X connect 4 0 1 0;
#X connect 5 0 6 0;
#X connect 6 0 35 1;
#X connect 7 0 8 0;
#X connect 8 0 35 1;
#X connect 9 0 10 0;
#X connect 10 0 35 1;
#X connect 11 0 12 0;
#X connect 12 0 35 1;
#X connect 13 0 14 0;
#X connect 14 0 35 1;
#X connect 15 0 16 0;
#X connect 16 0 35 1;
#X connect 17 0 18 0;
#X connect 18 0 35 1;
#X connect 19 0 20 0;
#X connect 21 0 34 0;
#X connect 22 0 34 0;
#X connect 23 0 35 1;
#X connect 24 0 23 0;
#X connect 34 0 36 0;
#X connect 35 0 0 0;
#X connect 35 0 0 1;
#X connect 36 0 35 0;
