#N canvas 403 27 429 567 10;
#X obj 50 502 dac~;
#X obj 50 476 *~ 0.2;
#X floatatom 149 298 5 0 0 0 - - -, f 5;
#X obj 164 336 loadbang;
#X floatatom 164 374 5 0 0 0 - - -, f 5;
#X msg 164 355 5;
#X obj 149 259 loadbang;
#X floatatom 59 254 5 0 0 0 - - -, f 5;
#X obj 50 421 fresh/syn.acbass~;
#X msg 149 279 98.9;
#X obj 50 232 seq.walking;
#X obj 54 31 hsl 128 15 0 100 0 1 empty empty walkarpeggiochance 8
-6 0 10 -1 -262144 -1 0 1;
#X msg 83 204 onoff \$1;
#X obj 83 187 tgl 15 0 empty empty empty 17 7 0 10 -262144 -1 -1 1
1;
#X obj 77 149 tgl 15 0 empty empty empty 17 7 0 10 -262144 -1 -1 0
1;
#X msg 77 167 busy \$1;
#X obj 68 109 tgl 15 0 empty empty empty 17 7 0 10 -262144 -1 -1 0
1;
#X msg 68 127 beat \$1;
#X msg 60 88 speed \$1;
#X floatatom 60 71 5 0 0 0 - - -, f 5;
#X msg 51 50 chance \$1;
#X floatatom 83 457 5 0 0 0 - - -, f 5;
#X text 183 297 <-- mute strings (1-100);
#X text 226 389 1/nth up string from bridge;
#X text 201 373 <-- pick location (1-50);
#X msg 149 316 mute \$1;
#X msg 164 392 pick \$1;
#X connect 1 0 0 0;
#X connect 1 0 0 1;
#X connect 2 0 25 0;
#X connect 3 0 5 0;
#X connect 4 0 26 0;
#X connect 5 0 4 0;
#X connect 6 0 9 0;
#X connect 8 0 1 0;
#X connect 9 0 2 0;
#X connect 10 0 7 0;
#X connect 10 0 8 0;
#X connect 11 0 20 0;
#X connect 12 0 10 0;
#X connect 13 0 12 0;
#X connect 14 0 15 0;
#X connect 15 0 10 0;
#X connect 16 0 17 0;
#X connect 17 0 10 0;
#X connect 18 0 10 0;
#X connect 19 0 18 0;
#X connect 20 0 10 0;
#X connect 21 0 1 1;
#X connect 25 0 8 1;
#X connect 26 0 8 1;
