#N canvas 776 23 237 206 10;
#X obj 31 150 dac~;
#X obj 39 123 *~ 0;
#X obj 72 109 hsl 128 15 0 1 0 0 empty empty Volume_0-1 -2 -6 0 8 -262144
-1 -1 0 1;
#X obj 38 15 bng 15 250 50 0 empty empty empty 17 7 0 10 -262144 -1
-1;
#X obj 39 58 syn.snare.min~;
#X connect 1 0 0 0;
#X connect 1 0 0 1;
#X connect 2 0 1 1;
#X connect 3 0 4 0;
#X connect 4 0 1 0;
