#N canvas 0 22 1024 592 10;
#X obj 431 61 bng 15 250 50 0 empty empty empty 17 7 0 10 -262144 -1
-1;
#X obj 698 101 delay 5737;
#X obj 788 103 delay 6037;
#X obj 431 413 dac~;
#X obj 496 366 threshold~;
#X obj 496 343 osc~ 15;
#N canvas 0 22 450 278 (subpatch) 0;
#X array outputArray 2000 float 4;
#X coords 0 1 1999 -1 200 140 1 0 0;
#X restore 431 449 graph;
#X obj 431 310 *~ 1;
#X obj 64 104 delay 200;
#X obj 153 102 delay 1000;
#X obj 251 102 delay 1420;
#X obj 341 104 delay 1900;
#X obj 788 253 *~ 0.5;
#X obj 520 103 delay 2565;
#X obj 609 102 delay 2910;
#X obj 520 125 bng 15 250 50 0 empty empty empty 17 7 0 10 -262144
-1 -1;
#X obj 609 126 bng 15 250 50 0 empty empty empty 17 7 0 10 -262144
-1 -1;
#X obj 431 127 bng 15 250 50 0 empty empty empty 17 7 0 10 -262144
-1 -1;
#X obj 735 405 soundfiler;
#N canvas 0 22 450 278 (subpatch) 0;
#X array saveArray 280000 float 2;
#X coords 0 1 280000 -1 200 140 1 0 0;
#X restore 735 449 graph;
#X obj 431 33 t b b;
#X obj 431 3 bng 25 250 50 0 empty empty Play! 30 13 0 10 -4034 -1
-1;
#X obj 431 104 delay 2087;
#N canvas 34 61 562 432 compress 0;
#X obj 242 163 vline~;
#X msg 242 127 \$1 10;
#X obj 242 55 inlet;
#X obj 242 199 outlet~;
#X obj 242 91 expr (((100-$f1)/100)*1) + 0;
#X text 288 72 lower volume when note playing;
#X connect 0 0 3 0;
#X connect 1 0 0 0;
#X connect 2 0 4 0;
#X connect 4 0 1 0;
#X coords 0 432 1 431 100 15 0;
#X restore 572 258 pd compress;
#X obj 64 125 bng 15 250 50 0 empty empty empty 17 7 0 10 -262144 -1
-1;
#X obj 153 125 bng 15 250 50 0 empty empty empty 17 7 0 10 -262144
-1 -1;
#X obj 251 126 bng 15 250 50 0 empty empty empty 17 7 0 10 -262144
-1 -1;
#X obj 341 126 bng 15 250 50 0 empty empty empty 17 7 0 10 -262144
-1 -1;
#X obj 698 124 bng 15 250 50 0 empty empty empty 17 7 0 10 -262144
-1 -1;
#X obj 788 124 bng 15 250 50 0 empty empty empty 17 7 0 10 -262144
-1 -1;
#X obj 735 356 bng 15 250 50 0 empty empty Record_to_WAV 20 7 0 10
-258113 -1 -1;
#X obj 489 50 s start;
#X obj 736 299 r start;
#X obj 736 327 tabwrite~ saveArray;
#X obj 496 390 tabwrite~ outputArray;
#X obj 69 190 cnv 15 50 35 empty empty empty 20 12 0 14 -261234 -66577
0;
#N canvas 21 22 729 439 noise_hit 0;
#X obj -202 213 noise~;
#X obj -202 270 samphold~;
#X obj -111 -10 inlet;
#X obj -202 305 *~;
#X obj -202 346 outlet~;
#X obj 104 297 threshold~;
#X obj 104 322 tabwrite~ a1;
#N canvas 0 22 450 278 (subpatch) 0;
#X array a1 2000 float 4;
#X coords 0 1 1999 -1 50 35 1 0 0;
#X restore 105 144 graph;
#X obj -111 17 bng 15 250 50 0 empty empty empty 17 7 0 10 -262144
-1 -1;
#X text -356 209 low sampling rate noise;
#X text -393 127 sampling rate ramps down from 300Hz to 200Hz;
#X obj -111 45 trigger bang bang;
#X obj 104 274 osc~ 15;
#X obj -111 176 vline~;
#X obj -12 258 vline~;
#X msg -111 129 300 0 \, 200 800;
#X msg -12 211 1 0 \, 0 800;
#X obj -111 213 phasor~;
#X connect 0 0 1 0;
#X connect 1 0 3 0;
#X connect 2 0 8 0;
#X connect 3 0 4 0;
#X connect 3 0 6 0;
#X connect 5 0 6 0;
#X connect 8 0 11 0;
#X connect 11 0 15 0;
#X connect 11 1 16 0;
#X connect 12 0 5 0;
#X connect 13 0 17 0;
#X connect 14 0 3 1;
#X connect 15 0 13 0;
#X connect 16 0 14 0;
#X connect 17 0 1 1;
#X coords 0 -1 1 1 85 85 1 100 100;
#X restore 64 146 pd noise_hit;
#X obj 158 190 cnv 15 50 35 empty empty empty 20 12 0 14 -261682 -66577
0;
#X obj 258 191 cnv 15 50 35 empty empty empty 20 12 0 14 -262130 -66577
0;
#X obj 348 191 cnv 15 50 35 empty empty empty 20 12 0 14 -204786 -66577
0;
#X obj 437 192 cnv 15 50 35 empty empty empty 20 12 0 14 -204800 -66577
0;
#X obj 525 191 cnv 15 50 35 empty empty empty 20 12 0 14 -203904 -66577
0;
#X obj 615 191 cnv 15 50 35 empty empty empty 20 12 0 14 -232576 -66577
0;
#N canvas 0 22 544 407 noise_wobble 0;
#X obj -103 199 noise~;
#X obj -103 228 samphold~;
#X obj 29 6 inlet;
#X obj 29 33 bng 15 250 50 0 empty empty empty 17 7 0 10 -262144 -1
-1;
#X obj 14 289 *~;
#X obj 14 317 outlet~;
#X obj -52 158 +~ 2000;
#X obj -52 108 *~ 100;
#X obj 152 281 threshold~;
#N canvas 0 22 450 278 (subpatch) 0;
#X array a2 2000 float 4;
#X coords 0 1 1999 -1 50 35 1 0 0;
#X restore 105 144 graph;
#X obj 152 306 tabwrite~ a2;
#X text -255 197 low sampling rate noise;
#X text -220 160 Range from 1900 to 2200Hz;
#X text -157 54 LFO at 1/6 sec;
#X obj 152 258 osc~ 15;
#X obj -52 199 phasor~;
#X msg 29 57 1 0 \, 0 500;
#X obj 29 83 vline~;
#X obj -52 54 osc~ 6;
#X connect 0 0 1 0;
#X connect 1 0 4 0;
#X connect 2 0 3 0;
#X connect 3 0 16 0;
#X connect 4 0 5 0;
#X connect 4 0 10 0;
#X connect 6 0 15 0;
#X connect 7 0 6 0;
#X connect 8 0 10 0;
#X connect 14 0 8 0;
#X connect 15 0 1 1;
#X connect 16 0 17 0;
#X connect 17 0 4 1;
#X connect 18 0 7 0;
#X coords 0 -1 1 1 85 85 1 100 100;
#X restore 153 146 pd noise_wobble;
#N canvas 0 22 544 503 noise_low 0;
#X obj -20 11 noise~;
#X obj -20 39 samphold~;
#X obj 148 -65 inlet;
#X obj 148 -41 bng 15 250 50 0 empty empty empty 17 7 0 10 -262144
-1 -1;
#X obj -20 183 *~;
#X obj -20 226 outlet~;
#X obj 31 11 phasor~ 760;
#X obj 224 175 threshold~;
#X obj 224 152 osc~ 15;
#N canvas 0 22 450 278 (subpatch) 0;
#X array a3 2000 float 4;
#X coords 0 1 1999 -1 50 35 1 0 0;
#X restore 107 144 graph;
#X obj 224 200 tabwrite~ a3;
#X text -197 37 noise at 760Hz sampling rate;
#X obj 148 20 vline~;
#X msg 148 -17 1 0 \, 0 480;
#X connect 0 0 1 0;
#X connect 1 0 4 0;
#X connect 2 0 3 0;
#X connect 3 0 13 0;
#X connect 4 0 5 0;
#X connect 4 0 10 0;
#X connect 6 0 1 1;
#X connect 7 0 10 0;
#X connect 8 0 7 0;
#X connect 12 0 4 1;
#X connect 13 0 12 0;
#X coords 0 -1 1 1 85 85 1 100 100;
#X restore 251 147 pd noise_low;
#N canvas 0 22 726 474 noise_mid 0;
#X obj -65 124 noise~;
#X obj -65 149 samphold~;
#X obj 63 -26 inlet;
#X obj 63 -2 bng 15 250 50 0 empty empty empty 17 7 0 10 -262144 -1
-1;
#X obj 47 187 *~;
#X obj 47 220 outlet~;
#X obj -14 97 phasor~ 900;
#X obj 63 58 vline~;
#X obj 224 179 threshold~;
#X obj 224 156 osc~ 15;
#N canvas 0 22 450 278 (subpatch) 0;
#X array a4 2000 float 4;
#X coords 0 1 1999 -1 50 35 1 0 0;
#X restore 107 144 graph;
#X obj 224 204 tabwrite~ a4;
#X text -238 97 noise at 900Hz sampling rate;
#X msg 63 22 1 0 \, 0 500 0;
#X connect 0 0 1 0;
#X connect 1 0 4 0;
#X connect 2 0 3 0;
#X connect 3 0 13 0;
#X connect 4 0 5 0;
#X connect 4 0 11 0;
#X connect 6 0 1 1;
#X connect 7 0 4 1;
#X connect 8 0 11 0;
#X connect 9 0 8 0;
#X connect 13 0 7 0;
#X coords 0 -1 1 1 85 85 1 100 100;
#X restore 341 147 pd noise_mid;
#N canvas 0 22 636 570 bink_lo 0;
#X obj -35 -72 inlet;
#X obj -35 -51 bng 15 250 50 0 empty empty empty 17 7 0 10 -262144
-1 -1;
#X obj -50 193 outlet~;
#X obj -50 149 *~;
#X obj -132 102 clip~ -1 1;
#X obj -132 74 *~ 10000;
#X obj -132 46 osc~;
#X obj -132 -2 *~ 100;
#X obj -132 21 +~ 620;
#X obj 14 168 threshold~;
#X obj 14 145 osc~ 15;
#N canvas 0 22 450 278 (subpatch) 0;
#X array a6 2000 float 4;
#X coords 0 1 1999 -1 50 35 1 0 0;
#X restore 105 144 graph;
#X obj 14 193 tabwrite~ a6;
#X text -212 101 square wave;
#X text -232 -33 LFO = 1/16 sec;
#X text -219 18 520 to 720Hz;
#X text -224 -4 -100 to 100Hz;
#X obj -35 99 vline~;
#X msg -35 72 1 0 \, 0 250 0;
#X obj -132 -30 osc~ 16;
#X connect 0 0 1 0;
#X connect 1 0 18 0;
#X connect 3 0 2 0;
#X connect 3 0 12 0;
#X connect 4 0 3 0;
#X connect 5 0 4 0;
#X connect 6 0 5 0;
#X connect 7 0 8 0;
#X connect 8 0 6 0;
#X connect 9 0 12 0;
#X connect 10 0 9 0;
#X connect 17 0 3 1;
#X connect 18 0 17 0;
#X connect 19 0 7 0;
#X coords 0 -1 1 1 85 85 1 100 100;
#X restore 520 147 pd bink_lo;
#X obj 704 191 cnv 15 50 35 empty empty empty 20 12 0 14 -228856 -66577
0;
#X obj 795 191 cnv 15 50 35 empty empty empty 20 12 0 14 -191407 -66577
0;
#N canvas 0 22 593 485 bwoop 0;
#X obj -115 193 osc~;
#X obj -115 8 mtof;
#X msg 57 -42 0;
#X obj -115 217 *~;
#X obj 45 55 mtof;
#X obj 134 -134 inlet;
#X obj 134 -109 bng 15 250 50 0 empty empty empty 17 7 0 10 -262144
-1 -1;
#X obj -115 241 outlet~;
#X obj 23 209 threshold~;
#X obj 23 186 osc~ 15;
#N canvas 0 22 450 278 (subpatch) 0;
#X array a8 2000 float 4;
#X coords 0 1 1999 -1 50 35 1 0 0;
#X restore 106 144 graph;
#X obj 23 234 tabwrite~ a8;
#X msg 45 33 100;
#X obj 6 72 *~;
#X msg -115 -94 56;
#X obj -115 111 +~;
#X text -99 -44 filtered sawtooth LFO;
#X text -218 193 sine at note #56;
#X text -94 92 low pass filter;
#X obj 6 -16 phasor~ 4;
#X obj 134 38 vline~;
#X msg 134 12 1 0 \, 0 250;
#X obj 6 94 lop~ 50;
#X connect 0 0 3 0;
#X connect 1 0 15 0;
#X connect 2 0 19 1;
#X connect 3 0 7 0;
#X connect 3 0 11 0;
#X connect 4 0 13 1;
#X connect 5 0 6 0;
#X connect 6 0 21 0;
#X connect 6 0 2 0;
#X connect 6 0 12 0;
#X connect 6 0 14 0;
#X connect 8 0 11 0;
#X connect 9 0 8 0;
#X connect 12 0 4 0;
#X connect 13 0 22 0;
#X connect 14 0 1 0;
#X connect 15 0 0 0;
#X connect 19 0 13 0;
#X connect 20 0 3 1;
#X connect 21 0 20 0;
#X connect 22 0 15 1;
#X coords 0 -1 1 1 85 85 1 100 100;
#X restore 698 147 pd bwoop;
#N canvas 38 25 545 307 coin_hit 0;
#X obj -17 169 clip~ -1 1;
#X obj -17 84 mtof;
#X obj -17 141 *~ 10000;
#X obj -17 112 osc~;
#X obj 53 26 delay 100;
#X msg -17 26 86;
#X msg 53 55 98;
#X obj 53 -17 bng 15 250 50 0 empty empty empty 17 7 0 10 -262144 -1
-1;
#X obj 53 -39 inlet;
#X obj -17 221 outlet~;
#X obj 266 187 threshold~;
#X obj 266 164 osc~ 15;
#N canvas 0 22 450 278 (subpatch) 0;
#X array a9 2000 float 4;
#X coords 0 1 1999 -1 50 35 1 0 0;
#X restore 107 144 graph;
#X obj 266 212 tabwrite~ a9;
#X text -92 169 Square wave;
#X text -170 -5 Note 86 then 98 (1 octave jump);
#X msg 196 26 1 0 \, 0 250 0;
#X obj 196 178 vline~;
#X obj -17 195 *~;
#X connect 0 0 18 0;
#X connect 1 0 3 0;
#X connect 2 0 0 0;
#X connect 3 0 2 0;
#X connect 4 0 6 0;
#X connect 5 0 1 0;
#X connect 6 0 1 0;
#X connect 7 0 16 0;
#X connect 7 0 4 0;
#X connect 7 0 5 0;
#X connect 8 0 7 0;
#X connect 10 0 13 0;
#X connect 11 0 10 0;
#X connect 16 0 17 0;
#X connect 17 0 18 1;
#X connect 18 0 9 0;
#X connect 18 0 13 0;
#X coords 0 -1 1 1 85 85 1 100 100;
#X restore 788 147 pd coin_hit;
#X obj 491 192 cnv 15 20 35 empty empty empty 20 12 0 14 -4032 -66577
0;
#N canvas 124 22 537 516 beep_theme 0;
#X obj -187 371 outlet~;
#X obj -187 -121 r note;
#X obj -187 57 mtof;
#X obj -76 201 / 100;
#X obj -187 312 *~;
#X floatatom -153 -3 5 0 0 0 - - -;
#X obj -187 258 clip~ -1 1;
#X obj -187 190 *~ 10000;
#X msg -76 230 \$1 10;
#X obj 27 172 outlet;
#X obj -187 -82 unpack 1 2 3;
#N canvas 0 22 450 278 (subpatch) 0;
#X array a5 2000 float 4;
#X coords 0 1 1999 -1 50 35 1 0 0;
#X restore 106 145 graph;
#X obj 32 359 tabwrite~ a5;
#X obj 32 335 threshold~;
#X obj 32 312 osc~ 15;
#X obj -187 342 *~ 0.5;
#X obj -125 -104 print note;
#X text -39 -125 qlist holds notes for Beep logo music;
#X text -263 257 square wave;
#X obj -187 121 osc~;
#X obj 160 147 vsl 20 30 36 50 0 0 empty empty empty 0 -9 0 10 -225280
-225280 -225280 0 1;
#X floatatom -187 -3 5 0 0 0 - - -;
#X obj -76 258 vline~;
#X obj 160 36 bng 15 250 50 0 empty empty empty 17 7 0 10 -262144 -1
-1;
#X obj 199 36 bng 15 250 50 0 empty empty empty 17 7 0 10 -262144 -1
-1;
#X obj 160 13 moses 1;
#X msg 160 77 color 7 \$1 \$1;
#X msg 160 55 7;
#X msg 200 56 2;
#X obj -40 -103 cnv 15 300 100 empty empty empty 20 12 0 14 -233017
-66577 0;
#X obj 11 -100 inlet;
#X obj 59 -24 qlist;
#X obj 11 -72 bng 15 250 50 0 empty empty empty 17 7 0 10 -262144 -1
-1;
#X msg 59 -73 tempo 2;
#X obj 59 -100 loadbang;
#X msg 113 -41 print;
#N canvas 511 61 450 257 add 0;
#X obj 41 31 loadbang;
#X obj 41 213 outlet;
#X msg 41 63 add 0 note 38 100 0 \, add 240 note 38 0 0 \, add 480
note 38 100 0 \, add 240 note 38 0 0 \, add 480 note 48 100 0 \, add
240 note 48 0 0 \, add 240 note 47 100 0 \, add 240 note 47 0 0 \,
add 240 note 46 100 0 \, add 240 note 46 0 0 \, add 240 note 45 100
0 \, add 240 note 45 0 0 \, add 0 note 38 100 0 \, add 240 note 38
0 0 \, add 480 note 38 100 0 \, add 240 note 38 0 0 \, add 480 note
38 100 0 \, add 480 note 38 0 0 \, add 240 note 48 100 0 \, add 480
note 48 0 0 \, add 0 note 47 100 0 \, add 240 note 47 0 0 \, add 240
note 46 100 0 \, add 240 note 46 0 0 \, add 240 note 45 100 0 \, add
240 note 45 0 0 \,;
#X connect 0 0 2 0;
#X connect 2 0 1 0;
#X restore 166 -41 pd add notes;
#X text 165 -60 holds notes;
#X text -140 -61 ignore channel;
#X connect 1 0 10 0;
#X connect 1 0 16 0;
#X connect 2 0 19 0;
#X connect 3 0 8 0;
#X connect 4 0 15 0;
#X connect 5 0 9 0;
#X connect 5 0 3 0;
#X connect 5 0 25 0;
#X connect 6 0 4 0;
#X connect 7 0 6 0;
#X connect 8 0 22 0;
#X connect 10 0 20 0;
#X connect 10 0 21 0;
#X connect 10 1 5 0;
#X connect 13 0 12 0;
#X connect 14 0 13 0;
#X connect 15 0 0 0;
#X connect 15 0 12 0;
#X connect 19 0 7 0;
#X connect 21 0 2 0;
#X connect 22 0 4 1;
#X connect 23 0 27 0;
#X connect 24 0 28 0;
#X connect 25 0 23 0;
#X connect 25 1 24 0;
#X connect 26 0 20 0;
#X connect 27 0 26 0;
#X connect 28 0 26 0;
#X connect 30 0 32 0;
#X connect 32 0 31 0;
#X connect 33 0 31 0;
#X connect 34 0 33 0;
#X connect 35 0 31 0;
#X connect 36 0 31 0;
#X coords 0 -1 1 1 85 85 1 100 100;
#X restore 431 147 pd beep_theme;
#X obj 520 275 *~;
#X obj 121 363 cnv 15 200 60 empty empty Beep_Logo_Audio 20 25 0 14
-233017 -66577 0;
#X obj 121 426 cnv 15 200 60 empty empty by:Leonard_J_Paul 20 25 0
14 -233017 -66577 0;
#X obj 121 489 cnv 15 200 60 empty empty http://SoVGA.com 20 25 0 14
-233017 -66577 0;
#N canvas 709 140 450 300 video 0;
#X obj 71 115 line;
#X obj 71 137 int;
#N canvas 0 22 450 300 gemwin 0;
#X obj 132 136 gemwin;
#X obj 67 89 outlet;
#X obj 67 10 inlet;
#X msg 67 70 set destroy;
#X msg 132 112 create \, 1;
#X msg 198 112 destroy;
#X msg 156 71 set create;
#X obj 67 41 route create;
#X connect 2 0 7 0;
#X connect 3 0 1 0;
#X connect 4 0 0 0;
#X connect 5 0 0 0;
#X connect 6 0 1 0;
#X connect 7 0 3 0;
#X connect 7 0 4 0;
#X connect 7 1 6 0;
#X connect 7 1 5 0;
#X restore 249 173 pd gemwin;
#X msg 249 154 create;
#X text 260 134 Create window:;
#X obj -29 92 gemhead;
#X obj 71 73 inlet;
#X obj 26 244 rectangle 4 3;
#X msg 71 95 0 0 \, 240 8000;
#X obj 26 185 pix_texture;
#X obj 26 160 pix_film;
#X obj 26 -33 loadbang;
#X obj 26 13 delay 1000;
#X msg 26 36 open beepident_1.mov;
#X text -73 159 play logo video;
#X obj 167 103 tgl 15 0 empty empty empty 17 7 0 10 -262144 -1 -1 1
1;
#X obj 249 118 bng 15 250 50 0 empty empty empty 17 7 0 10 -262144
-1 -1;
#X msg 213 -16 \; pd dsp 1;
#X msg 167 30 1;
#X connect 0 0 1 0;
#X connect 1 0 10 1;
#X connect 2 0 3 0;
#X connect 3 0 2 0;
#X connect 5 0 10 0;
#X connect 6 0 8 0;
#X connect 8 0 0 0;
#X connect 9 0 7 0;
#X connect 10 0 9 0;
#X connect 11 0 12 0;
#X connect 11 0 18 0;
#X connect 11 0 17 0;
#X connect 12 0 13 0;
#X connect 13 0 10 0;
#X connect 15 0 16 0;
#X connect 16 0 3 0;
#X connect 18 0 15 0;
#X coords 0 -1 1 1 85 20 1 100 100;
#X restore 595 50 pd video;
#N canvas 67 22 734 578 bink_high 0;
#X obj -183 -114 inlet;
#X obj -183 -89 bng 15 250 50 0 empty empty empty 17 7 0 10 -262144
-1 -1;
#X obj -266 160 outlet~;
#X obj -266 108 *~;
#X obj -266 80 clip~ -1 1;
#X obj -266 52 *~ 10000;
#X obj -266 24 osc~;
#X obj -266 -24 *~ 100;
#X obj -266 -52 osc~ 16;
#X obj -266 -1 +~ 750;
#X obj -86 100 threshold~;
#X obj -86 77 osc~ 15;
#N canvas 0 22 450 278 (subpatch) 0;
#X array a7 2000 float 4;
#X coords 0 1 1999 -1 50 35 1 0 0;
#X restore 106 144 graph;
#X obj -86 125 tabwrite~ a7;
#X text -344 79 square wave;
#X text -362 -53 LFO = 1/16 sec;
#X text -356 -24 -100 to 100Hz;
#X text -350 -2 650 to 850Hz;
#X msg -183 65 1 0 \, 0 250 0;
#X obj -183 91 vline~;
#X connect 0 0 1 0;
#X connect 1 0 18 0;
#X connect 3 0 2 0;
#X connect 3 0 13 0;
#X connect 4 0 3 0;
#X connect 5 0 4 0;
#X connect 6 0 5 0;
#X connect 7 0 9 0;
#X connect 8 0 7 0;
#X connect 9 0 6 0;
#X connect 10 0 13 0;
#X connect 11 0 10 0;
#X connect 18 0 19 0;
#X connect 19 0 3 1;
#X coords 0 -1 1 1 85 85 1 100 100;
#X restore 609 147 pd bink_high;
#X msg 735 380 write -wave BeepLogoAudio.wav saveArray;
#X text 140 560 Download: http://SoVGA.com/BeepLogoAudio.pd;
#X obj 431 379 *~ 1;
#X obj 121 300 cnv 15 200 60 empty empty BeepMovie.com 20 25 0 14 -233017
-66577 0;
#X text 140 574 YouTube Video: https://youtu.be/LI5hKnOQAOk;
#X connect 0 0 1 0;
#X connect 0 0 2 0;
#X connect 0 0 8 0;
#X connect 0 0 9 0;
#X connect 0 0 10 0;
#X connect 0 0 11 0;
#X connect 0 0 13 0;
#X connect 0 0 14 0;
#X connect 0 0 22 0;
#X connect 1 0 28 0;
#X connect 2 0 29 0;
#X connect 4 0 34 0;
#X connect 5 0 4 0;
#X connect 7 0 34 0;
#X connect 7 0 33 0;
#X connect 7 0 61 0;
#X connect 8 0 24 0;
#X connect 9 0 25 0;
#X connect 10 0 26 0;
#X connect 11 0 27 0;
#X connect 12 0 7 0;
#X connect 13 0 15 0;
#X connect 14 0 16 0;
#X connect 15 0 46 0;
#X connect 16 0 58 0;
#X connect 17 0 52 0;
#X connect 20 0 0 0;
#X connect 20 1 31 0;
#X connect 20 1 57 0;
#X connect 21 0 20 0;
#X connect 22 0 17 0;
#X connect 23 0 53 1;
#X connect 24 0 36 0;
#X connect 25 0 43 0;
#X connect 26 0 44 0;
#X connect 27 0 45 0;
#X connect 28 0 49 0;
#X connect 28 0 50 0;
#X connect 29 0 50 0;
#X connect 29 0 49 0;
#X connect 30 0 59 0;
#X connect 32 0 33 0;
#X connect 36 0 7 0;
#X connect 43 0 7 0;
#X connect 44 0 7 0;
#X connect 45 0 7 0;
#X connect 46 0 53 0;
#X connect 49 0 12 0;
#X connect 50 0 12 0;
#X connect 52 0 7 0;
#X connect 52 1 23 0;
#X connect 53 0 7 0;
#X connect 58 0 53 0;
#X connect 59 0 18 0;
#X connect 61 0 3 0;
#X connect 61 0 3 1;
