#N canvas 533 23 187 216 10;
#X obj 23 57 noise~;
#X obj 80 56 line~;
#X obj 23 104 *~;
#X obj 23 165 outlet~;
#X obj 80 9 inlet;
#X obj 23 134 lop~ 400;
#X msg 80 33 1 \, 0 45;
#X connect 0 0 2 0;
#X connect 1 0 2 1;
#X connect 2 0 5 0;
#X connect 4 0 6 0;
#X connect 5 0 3 0;
#X connect 6 0 1 0;
