#N canvas 581 471 414 295 12;
#X obj 53 157 syn.hihat.min~;
#X floatatom 100 86 5 0 0 0 - - -;
#X floatatom 148 132 5 0 0 0 - - -;
#X obj 54 28 bng 15 250 50 0 empty empty empty 17 7 0 10 -262144 -1
-1;
#X obj 53 198 dac~;
#X text 52 243 megrimm 2020;
#X text 146 84 <-- frequency;
#X text 188 131 <-- q;
#X obj 267 126 unpack f f;
#X msg 267 103 11000 5;
#X obj 267 151 s \$0-freq;
#X obj 100 63 r \$0-freq;
#X obj 148 110 r \$0-q;
#X obj 338 151 s \$0-q;
#X obj 267 79 loadbang;
#X connect 0 0 4 0;
#X connect 0 0 4 1;
#X connect 1 0 0 1;
#X connect 2 0 0 2;
#X connect 3 0 0 0;
#X connect 8 0 10 0;
#X connect 8 1 13 0;
#X connect 9 0 8 0;
#X connect 11 0 1 0;
#X connect 12 0 2 0;
#X connect 14 0 9 0;
