#N canvas 550 47 489 301 10;
#X obj 44 70 bng 15 250 50 0 empty empty empty 17 7 0 10 -262144 -1
-1;
#X symbolatom 53 189 25 0 0 0 - - -;
#X obj 55 167 print TIMESTAMP;
#X msg 119 54 4;
#X obj 44 144 utl.timestamp;
#X text 44 16 format a ISO 8601 timestamp;
#X text 215 73 <--offset time to get needed timezone;
#X msg 150 54 0;
#X msg 119 74 offset hour \$1;
#X msg 169 99 0;
#X msg 138 119 offset minute \$1;
#X msg 138 99 -15;
#X msg 44 211 \$1.wav;
#X obj 44 233 print MESSAGE;
#X connect 0 0 4 0;
#X connect 3 0 8 0;
#X connect 4 0 1 0;
#X connect 4 0 2 0;
#X connect 4 0 12 0;
#X connect 7 0 8 0;
#X connect 8 0 4 1;
#X connect 9 0 10 0;
#X connect 10 0 4 1;
#X connect 11 0 10 0;
#X connect 12 0 13 0;
