#N canvas 413 23 450 300 10;
#X obj 91 123 metro;
#X obj 194 94 r pd;
#X obj 158 220 print;
#X obj 248 149 bng 15 250 50 0 empty empty empty 17 7 0 10 -262144
-1 -1;
#X obj 310 149 list;
#X obj 127 160 spigot;
#X obj 185 140 tgl 15 0 empty empty empty 17 7 0 10 -262144 -1 -1 0
1;
#X connect 1 0 4 1;
#X connect 1 0 5 0;
#X connect 3 0 4 0;
#X connect 4 0 2 0;
#X connect 5 0 2 0;
#X connect 6 0 5 1;
