#N canvas 115 88 715 722 10;
#X obj 22 19 inlet;
#X obj 318 653 outlet;
#X obj 318 480 pix_film;
#X obj 351 587 unpack 0 0 0;
#X obj 351 609 s \$0-frames;
#X msg 117 274 open \$1;
#X obj 117 229 symbol;
#X obj 63 169 s \$0-play;
#X obj 117 298 s \$0-openfilm;
#X obj 146 120 s \$0-speed;
#X obj 229 73 s \$0-gemlist;
#X obj 329 54 r \$0-openfilm;
#X obj 363 566 s \$0-endreached;
#X obj 441 587 r \$0-endreached;
#X obj 441 654 outlet;
#X text 310 684 (c)2012 \, megrimm;
#X obj 457 296 r \$0-frames;
#X obj 483 338 / 29.97;
#X text 538 390 fps;
#X obj 483 361 * 1000;
#X obj 363 431 int;
#X obj 376 122 r \$0-endreached;
#X obj 365 76 r \$0-play;
#X msg 365 147 start;
#X msg 392 238 pause \$1;
#X obj 392 218 tgl 15 0 empty empty empty 17 7 0 10 -262144 -1 -1 0
1;
#X obj 104 145 s \$0-pause;
#X obj 406 192 r \$0-pause;
#X obj 365 99 t b b;
#X msg 392 170 0;
#X obj 22 200 route bang;
#X obj 22 226 openpanel;
#X msg 22 272 open \$1;
#X obj 22 297 s \$0-openfilm;
#X obj 399 265 r \$0-speed;
#X msg 399 285 speed \$1;
#X obj 340 631 outlet;
#X obj 491 654 outlet;
#X obj 491 609 r \$0-pathfilm;
#X obj 130 252 s \$0-pathfilm;
#X obj 29 249 s \$0-pathfilm;
#X obj 498 385 s \$0-length;
#X obj 538 631 r \$0-length;
#X obj 538 653 outlet;
#X obj 389 431 s \$0-line;
#X obj 616 631 r \$0-line;
#X obj 616 653 outlet;
#X obj 497 180 *;
#X obj 497 94 snapshot~;
#X obj 497 138 /;
#X obj 497 202 int;
#X obj 497 224 change;
#X obj 512 158 r \$0-frames;
#X obj 512 115 r \$0-samples;
#X obj 497 16 inlet~;
#X obj 318 30 r \$0-gemlist;
#X obj 363 537 spigot;
#X obj 396 494 r \$0-play;
#X msg 396 515 1;
#X obj 429 515 r \$0-pause;
#X msg 429 538 0;
#X obj 22 51 route open play pause speed samples;
#X obj 187 96 s \$0-samples;
#X obj 438 386 pack 0 0;
#X obj 456 318 t f f;
#X obj 509 46 r \$0-gemlist;
#X obj 509 67 t b;
#X obj 497 245 s \$0-sndctl;
#X obj 372 454 r \$0-sndctl;
#X obj 363 408 num.linex;
#X connect 0 0 61 0;
#X connect 2 0 1 0;
#X connect 2 1 3 0;
#X connect 2 1 36 0;
#X connect 2 2 56 0;
#X connect 3 0 4 0;
#X connect 5 0 8 0;
#X connect 6 0 5 0;
#X connect 6 0 39 0;
#X connect 11 0 2 0;
#X connect 13 0 14 0;
#X connect 16 0 64 0;
#X connect 17 0 19 0;
#X connect 19 0 41 0;
#X connect 19 0 63 1;
#X connect 20 0 2 1;
#X connect 21 0 23 0;
#X connect 22 0 28 0;
#X connect 23 0 69 0;
#X connect 24 0 69 0;
#X connect 25 0 24 0;
#X connect 27 0 25 0;
#X connect 28 0 23 0;
#X connect 28 1 29 0;
#X connect 29 0 25 0;
#X connect 30 0 31 0;
#X connect 30 1 6 0;
#X connect 31 0 32 0;
#X connect 31 0 40 0;
#X connect 32 0 33 0;
#X connect 34 0 35 0;
#X connect 35 0 69 0;
#X connect 38 0 37 0;
#X connect 42 0 43 0;
#X connect 45 0 46 0;
#X connect 47 0 50 0;
#X connect 48 0 49 0;
#X connect 49 0 47 0;
#X connect 50 0 51 0;
#X connect 51 0 67 0;
#X connect 52 0 47 1;
#X connect 53 0 49 1;
#X connect 54 0 48 0;
#X connect 55 0 2 0;
#X connect 56 0 12 0;
#X connect 57 0 58 0;
#X connect 58 0 56 1;
#X connect 59 0 60 0;
#X connect 60 0 56 1;
#X connect 61 0 30 0;
#X connect 61 1 7 0;
#X connect 61 2 26 0;
#X connect 61 3 9 0;
#X connect 61 4 62 0;
#X connect 61 5 10 0;
#X connect 63 0 69 1;
#X connect 64 0 63 0;
#X connect 64 1 17 0;
#X connect 65 0 66 0;
#X connect 66 0 48 0;
#X connect 68 0 2 1;
#X connect 69 0 20 0;
#X connect 69 0 44 0;
