#N canvas 409 23 365 267 10;
#X obj 54 167 vid.data;
#X obj 54 35 gemhead;
#X obj 54 202 print GRAY;
#X obj 99 70 bng 15 250 50 0 empty empty empty 17 7 0 10 -262144 -1
-1;
#X obj 252 91 gemwin;
#X msg 252 38 create \, 1;
#X msg 262 59 0 \, destroy;
#X msg 120 139 reset;
#X msg 108 94 open ../images/1.jpg;
#X msg 202 164 width 80;
#X connect 0 0 2 0;
#X connect 1 0 0 0;
#X connect 3 0 0 1;
#X connect 5 0 4 0;
#X connect 6 0 4 0;
#X connect 7 0 0 1;
#X connect 8 0 0 1;
#X connect 9 0 0 1;
