#N canvas 71 379 627 404 10;
#X obj 199 82 part_head;
#X obj 199 136 part_color;
#X obj 199 319 part_draw;
#X text 330 37 set the color range;
#X msg 220 285 draw line;
#X msg 299 285 draw point;
#X obj 199 253 part_killold 45;
#X obj 361 61 loadbang;
#X msg 129 88 speed \$1;
#X floatatom 129 40 5 0 0 0 - - -, f 5;
#X obj 129 58 / 100;
#X obj 199 230 part_orbitpoint 0 0 8 0.005;
#X obj 199 181 part_velocity sphere 0 0 0 0.2;
#X obj 199 160 part_size 0.4;
#X obj 200 26 inlet;
#X obj 497 35 inlet;
#X obj 497 60 route speed;
#X obj 495 98 s \$0-sparkspeed;
#X obj 71 17 r \$0-sparkspeed;
#X msg 259 53 speed 0.06;
#X msg 337 97 0.4 0 0;
#X msg 397 98 0.4 0.4 0;
#X obj 199 206 part_source 10;
#X connect 0 0 1 0;
#X connect 1 0 13 0;
#X connect 4 0 2 0;
#X connect 5 0 2 0;
#X connect 6 0 2 0;
#X connect 7 0 21 0;
#X connect 7 0 20 0;
#X connect 7 0 19 0;
#X connect 8 0 0 0;
#X connect 9 0 10 0;
#X connect 10 0 8 0;
#X connect 11 0 6 0;
#X connect 12 0 22 0;
#X connect 13 0 12 0;
#X connect 14 0 0 0;
#X connect 15 0 16 0;
#X connect 16 0 17 0;
#X connect 18 0 10 0;
#X connect 19 0 0 0;
#X connect 20 0 1 1;
#X connect 21 0 1 2;
#X connect 22 0 11 0;
