#N canvas 623 31 735 656 10;
#X obj 48 81 gemhead;
#X obj 48 549 pix_texture;
#X obj 48 602 rectangle 5.5 4;
#X msg 85 225 play;
#X msg 103 306 speed \$1;
#X floatatom 103 284 5 0 0 0 - - -, f 5;
#X obj 335 78 tgl 15 0 empty empty empty 17 7 0 10 -262144 -1 -1 0
1;
#X text 148 547 <-- writes video to a texture;
#X text 151 600 <-- write texture to a rectangle;
#X text 464 102 <-- hit "esc" to open/resize window;
#X text 461 72 <-- toggle for second monitor in fullscreen;
#X text 102 79 <-- begins the rendering chain;
#X text 126 223 <-- play / loop the file;
#X text 136 252 <-- stop the file/loop from playing;
#X text 144 280 <-- changes the speed of playback;
#X msg 56 139 open;
#X text 44 28 A [line] based pix_film player.;
#X msg 93 254 pause;
#X floatatom 129 409 5 0 0 0 - - -, f 5;
#X msg 65 165 open _samples/anim.mov;
#X msg 73 191 open _samples/anim.mov \, play;
#X floatatom 91 575 5 0 0 0 - - -, f 5;
#X floatatom 141 572 5 0 0 0 - - -, f 5;
#X obj 335 105 vid.window 854 480;
#X obj 48 366 vid.play.img;
#X text 280 191 <-- open image folder and play immediately;
#X text 231 166 <-- open starting image in image folder;
#X text 97 138 <-- open starting image in image folder;
#X text 176 408 <-- image number;
#X connect 0 0 24 0;
#X connect 1 0 2 0;
#X connect 3 0 24 0;
#X connect 4 0 24 0;
#X connect 5 0 4 0;
#X connect 6 0 23 0;
#X connect 15 0 24 0;
#X connect 17 0 24 0;
#X connect 19 0 24 0;
#X connect 20 0 24 0;
#X connect 21 0 2 1;
#X connect 22 0 2 2;
#X connect 24 0 1 0;
#X connect 24 1 18 0;
