#N canvas 33 75 649 635 10;
#X obj 60 29 inlet;
#X obj 318 541 outlet;
#X obj 318 395 pix_film;
#X obj 340 492 unpack 0 0 0;
#X obj 340 517 s \$0-frames;
#X obj 363 321 f;
#X obj 392 321 + 1;
#X obj 378 344 r \$0-frames;
#X msg 60 208 open \$1;
#X obj 60 184 symbol;
#X obj 98 160 s \$0-play;
#X obj 136 135 s \$0-stop;
#X obj 60 232 s \$0-openfilm;
#X obj 174 110 s \$0-speed;
#X obj 213 87 s \$0-gemlist;
#X obj 318 48 r \$0-gemlist;
#X obj 345 124 r \$0-openfilm;
#X obj 363 467 s \$0-endreached;
#X obj 378 275 r \$0-endreached;
#X obj 378 297 f 0;
#X obj 363 369 %;
#X obj 318 71 t a b;
#X obj 345 94 s \$0-gembang;
#X obj 363 154 r \$0-gembang;
#X obj 363 252 spigot;
#X msg 396 225 1;
#X msg 428 225 0;
#X obj 428 201 r \$0-stop;
#X obj 396 178 r \$0-play;
#X obj 495 318 *;
#X obj 495 232 snapshot~;
#X obj 495 276 /;
#X obj 495 340 int;
#X obj 495 362 change;
#X obj 510 296 r \$0-frames;
#X obj 510 253 r \$0-samples;
#X obj 518 180 r \$0-gembang;
#X obj 60 61 route open play stop speed;
#X obj 495 60 inlet~;
#X obj 495 89 route~;
#X obj 528 117 s \$0-samples;
#X obj 481 467 r \$0-endreached;
#X obj 481 497 outlet;
#X text 310 585 (c)2012 \, megrimm;
#X obj 506 152 vline~;
#X connect 0 0 37 0;
#X connect 2 0 1 0;
#X connect 2 1 3 0;
#X connect 2 2 17 0;
#X connect 3 0 4 0;
#X connect 5 0 6 0;
#X connect 5 0 20 0;
#X connect 6 0 5 1;
#X connect 7 0 20 1;
#X connect 8 0 12 0;
#X connect 9 0 8 0;
#X connect 15 0 21 0;
#X connect 16 0 2 0;
#X connect 18 0 19 0;
#X connect 19 0 5 1;
#X connect 20 0 2 1;
#X connect 21 0 2 0;
#X connect 21 1 22 0;
#X connect 23 0 24 0;
#X connect 24 0 5 0;
#X connect 25 0 24 1;
#X connect 26 0 24 1;
#X connect 27 0 26 0;
#X connect 28 0 25 0;
#X connect 29 0 32 0;
#X connect 30 0 31 0;
#X connect 31 0 29 0;
#X connect 32 0 33 0;
#X connect 33 0 2 1;
#X connect 34 0 29 1;
#X connect 35 0 31 1;
#X connect 36 0 30 0;
#X connect 37 0 9 0;
#X connect 37 1 10 0;
#X connect 37 2 11 0;
#X connect 37 3 13 0;
#X connect 37 4 14 0;
#X connect 38 0 39 0;
#X connect 39 0 30 0;
#X connect 39 1 40 0;
#X connect 41 0 42 0;
