#N canvas 233 207 893 632 10;
#X obj 69 135 spigot;
#X obj 41 0 gemkeyboard;
#X obj 41 29 sel 53;
#X obj 41 291 gemwin;
#X obj 122 0 key;
#X obj 122 31 sel 27;
#X obj 194 6 inlet;
#X obj 165 111 == 0;
#X obj 120 135 spigot 1;
#X obj 77 63 == 0;
#X obj 41 63 f 1;
#X msg 69 194 0 \, destroy \, reset \, cursor 0 \, border 0 \, fullscreen
2 \, create \, 1;
#X msg 41 170 0 \, destroy \, reset \, dimen 640 480 \, create \, 1
;
#X msg 127 297 0 \, destroy \, reset \, border 0 \, dimen 1440 900
\, offset 0 -51 \, create \, 1;
#X text 262 4 (c)2012 \, megrimm;
#X obj 41 94 select 1 0;
#X msg 120 231 0 \, destroy \, reset \, border 0 \, menubar 0 \, cursor
0 \, fullscreen 1 \, create \, 1;
#N canvas 704 324 450 300 window-record 0;
#X msg 65 365 record \$1;
#X obj 261 189 pack f f;
#X obj 279 159 t b f;
#X obj 144 243 pix_texture;
#X obj 144 215 pix_snap 0 0 800 600;
#X msg 248 391 auto 1;
#X obj 248 372 loadbang;
#X obj 144 75 loadbang;
#X msg 144 99 0;
#X obj 144 127 tgl 15 0 empty empty empty 17 7 0 10 -262144 -1 -1 0
1;
#X obj 65 110 t f f;
#X obj 183 323 t b a;
#X obj 144 178 t a b;
#X obj 261 109 r \$0-width;
#X obj 279 136 r \$0-height;
#X msg 183 303 set file \$1.mov;
#X obj 144 408 pix_record;
#X obj 65 82 tgl 15 0 empty empty empty 17 7 0 10 -262144 -1 -1 0 1
;
#X msg 277 213 set \$1 \$2;
#X msg 277 234 320 240;
#X obj 144 150 gemhead -1000;
#X floatatom 172 436 5 0 0 0 - - -;
#X obj 183 281 r REC-FILE;
#X obj 65 51 r REC-VIDEO;
#X msg 183 347 file ../data/record.mov;
#X connect 0 0 16 0;
#X connect 1 0 4 2;
#X connect 1 0 18 0;
#X connect 2 0 1 0;
#X connect 2 1 1 1;
#X connect 3 0 16 0;
#X connect 4 0 3 0;
#X connect 5 0 16 0;
#X connect 6 0 5 0;
#X connect 7 0 8 0;
#X connect 8 0 9 0;
#X connect 9 0 20 0;
#X connect 10 0 0 0;
#X connect 10 1 9 0;
#X connect 11 0 24 0;
#X connect 11 1 24 0;
#X connect 12 0 4 0;
#X connect 12 1 4 0;
#X connect 13 0 1 0;
#X connect 14 0 2 0;
#X connect 15 0 11 0;
#X connect 16 1 21 0;
#X connect 17 0 10 0;
#X connect 18 0 19 0;
#X connect 20 0 12 0;
#X connect 22 0 15 0;
#X connect 23 0 17 0;
#X connect 24 0 16 0;
#X restore 537 460 pd window-record;
#X connect 0 0 11 0;
#X connect 1 0 2 0;
#X connect 2 0 10 0;
#X connect 4 0 5 0;
#X connect 5 0 10 0;
#X connect 6 0 7 0;
#X connect 6 0 0 1;
#X connect 7 0 8 1;
#X connect 8 0 16 0;
#X connect 9 0 10 1;
#X connect 10 0 9 0;
#X connect 10 0 15 0;
#X connect 11 0 3 0;
#X connect 12 0 3 0;
#X connect 13 0 3 0;
#X connect 15 0 12 0;
#X connect 15 1 0 0;
#X connect 15 1 8 0;
#X connect 16 0 3 0;
