#N canvas 550 178 794 652 10;
#X floatatom 282 575 5 0 100 1 size - -, f 5;
#X msg 279 456 font \$1;
#X msg 272 552 justify left base;
#X obj 80 178 translateXYZ;
#X obj 61 133 inlet;
#X obj 113 277 rotateXYZ;
#X obj 332 164 inlet;
#X obj 340 367 s \$0-txtsize;
#X obj 298 593 r \$0-txtsize;
#X obj 390 347 s \$0-txtrotx;
#X obj 130 214 r \$0-txtrotx;
#X obj 147 234 r \$0-txtroty;
#X obj 164 255 r \$0-txtrotz;
#X obj 440 321 s \$0-txtroty;
#X obj 490 299 s \$0-txtrotz;
#X obj 525 276 s \$0-txttext;
#X obj 494 376 r \$0-txttext;
#X obj 549 243 s \$0-txtfont;
#X obj 281 407 r \$0-txtfont;
#X obj 280 431 symbol;
#X msg 472 521 text \$1;
#X msg 508 455 hello world;
#X msg 487 574 text hello world;
#X obj 245 596 text3d;
#X obj 344 209 route size rotatex rotatey rotatez text font transx
transy transz, f 67;
#X obj 656 275 s \$0-txttransx;
#X obj 667 302 s \$0-txttransy;
#X obj 683 331 s \$0-txttransz;
#X obj 123 47 r \$0-txttransx;
#X obj 134 74 r \$0-txttransy;
#X obj 150 103 r \$0-txttransz;
#X obj 285 83 inlet;
#X connect 0 0 23 1;
#X connect 1 0 23 0;
#X connect 2 0 23 0;
#X connect 3 0 5 0;
#X connect 4 0 3 0;
#X connect 5 0 23 0;
#X connect 6 0 24 0;
#X connect 8 0 23 1;
#X connect 10 0 5 1;
#X connect 11 0 5 2;
#X connect 12 0 5 3;
#X connect 16 0 20 0;
#X connect 18 0 19 0;
#X connect 19 0 1 0;
#X connect 20 0 23 0;
#X connect 21 0 20 0;
#X connect 22 0 23 0;
#X connect 24 0 7 0;
#X connect 24 1 9 0;
#X connect 24 2 13 0;
#X connect 24 3 14 0;
#X connect 24 4 15 0;
#X connect 24 5 17 0;
#X connect 24 6 25 0;
#X connect 24 7 26 0;
#X connect 24 8 27 0;
#X connect 28 0 3 1;
#X connect 29 0 3 2;
#X connect 30 0 3 3;
#X connect 31 0 23 0;
