#N canvas 541 52 586 331 10;
#X declare -path ../fonts/;
#X obj 200 73 gemhead 10;
#X obj 56 137 vid.window 640 480;
#X msg 283 75 size \$1;
#X floatatom 282 50 5 0 0 0 - - -, f 5;
#X msg 316 142 font ../fonts/Optima-Regular.ttf, f 34;
#X msg 308 109 text hello world;
#X obj 433 115 loadbang;
#X msg 331 171 rotatez 90;
#X obj 197 227 vid.text;
#X obj 382 52 declare -path ../fonts/;
#X connect 0 0 8 0;
#X connect 2 0 8 1;
#X connect 3 0 2 0;
#X connect 4 0 8 1;
#X connect 5 0 8 1;
#X connect 6 0 4 0;
#X connect 6 0 7 0;
#X connect 7 0 8 1;
