#N canvas 406 139 691 672 10;
#X obj 164 151 spigot;
#X obj 87 2 gemkeyboard;
#X obj 87 22 sel 53;
#X obj 69 499 gemwin;
#X obj 42 1 key;
#X obj 42 23 sel 27;
#X obj 170 3 inlet;
#X obj 335 130 == 0;
#X obj 290 153 spigot 1;
#X obj 69 50 == 0;
#X obj 42 51 f 1;
#X text 263 4 (c)2012 \, megrimm;
#X obj 69 108 select 1 0;
#X obj 69 161 f \$1;
#X obj 112 159 f \$2;
#X obj 69 139 t b b;
#X obj 112 180 sel 0;
#X obj 69 210 pack 640 480;
#X obj 69 181 sel 0;
#X msg 69 331 0 \, destroy \, reset \, dimen \$1 \$2 \, create \, 1;
#X obj 290 197 f \$1;
#X obj 333 195 f \$2;
#X obj 290 175 t b b;
#X obj 333 216 sel 0;
#X obj 290 246 pack 640 480;
#X obj 290 217 sel 0;
#X msg 290 391 0 \, destroy \, reset \, dimen \$1 \$2 \, border 0 \, menubar 0 \, cursor 0 \, fullscreen 1 \, create \, 1;
#X obj 164 195 f \$1;
#X obj 207 193 f \$2;
#X obj 164 173 t b b;
#X obj 207 214 sel 0;
#X obj 164 244 pack 640 480;
#X obj 164 215 sel 0;
#X msg 164 354 0 \, destroy \, reset \, dimen \$1 \$2 \, cursor 0 \, border 0 \, fullscreen 2 \, create \, 1;
#X obj 224 57 sel 1 2 3;
#X msg 321 439 color \$1 \$1 \$1;
#X obj 170 36 route fullscreen create destroy color;
#X obj 42 85 t b f;
#X obj 42 580 outlet;
#X msg 398 112 0 \, destroy;
#X connect 0 0 29 0;
#X connect 1 0 2 0;
#X connect 2 0 10 0;
#X connect 4 0 5 0;
#X connect 5 0 10 0;
#X connect 6 0 36 0;
#X connect 7 0 8 1;
#X connect 8 0 22 0;
#X connect 9 0 10 1;
#X connect 10 0 9 0;
#X connect 10 0 37 0;
#X connect 12 0 15 0;
#X connect 12 1 0 0;
#X connect 12 1 8 0;
#X connect 13 0 18 0;
#X connect 14 0 16 0;
#X connect 15 0 13 0;
#X connect 15 1 14 0;
#X connect 16 1 17 1;
#X connect 17 0 19 0;
#X connect 18 0 17 0;
#X connect 18 1 17 0;
#X connect 19 0 3 0;
#X connect 20 0 25 0;
#X connect 21 0 23 0;
#X connect 22 0 20 0;
#X connect 22 1 21 0;
#X connect 23 1 24 1;
#X connect 24 0 26 0;
#X connect 25 0 24 0;
#X connect 25 1 24 0;
#X connect 26 0 3 0;
#X connect 27 0 32 0;
#X connect 28 0 30 0;
#X connect 29 0 27 0;
#X connect 29 1 28 0;
#X connect 30 1 31 1;
#X connect 31 0 33 0;
#X connect 32 0 31 0;
#X connect 32 1 31 0;
#X connect 33 0 3 0;
#X connect 34 0 15 0;
#X connect 34 1 0 0;
#X connect 34 2 8 0;
#X connect 35 0 3 0;
#X connect 36 0 7 0;
#X connect 36 0 0 1;
#X connect 36 1 34 0;
#X connect 36 2 39 0;
#X connect 36 3 35 0;
#X connect 37 0 38 0;
#X connect 37 1 12 0;
#X connect 39 0 3 0;
