#N canvas 473 183 868 525 10;
#X obj 101 18 gemhead;
#X text 98 394 switch to;
#X text 94 403 white plane;
#X text 83 412 for better editing;
#X text 708 468 comment;
#X text 658 470 x;
#X text 690 470 y;
#X text 731 471 x;
#X text 763 471 y;
#X text 802 471 x;
#X text 834 471 y;
#X text 875 473 x;
#X text 907 473 y;
#X text 459 394 50 settings;
#X text 452 405 can be stored;
#X text 465 415 globally;
#X text 579 436 some pix texture;
#X text 568 458 should go here;
#X text 606 446 objcts;
#X text 157 452 created by Malte Steiner 2011 during his artist-in-residency
;
#X text 157 462 at Open City \, Chile;
#N canvas 0 22 454 304 gemwin 0;
#X obj 132 136 gemwin;
#X obj 67 89 outlet;
#X obj 67 10 inlet;
#X obj 67 41 route create;
#X msg 67 70 set destroy;
#X msg 182 68 set create;
#X msg 132 112 create \, 1;
#X msg 238 112 destroy;
#N canvas 87 154 247 179 Gem.init 0;
#X obj 32 42 loadbang;
#X msg 32 77 reset;
#X obj 32 109 outlet;
#X msg 189 76 lighting 0;
#X msg 76 81 dimen 800 600;
#X connect 0 0 1 0;
#X connect 0 0 4 0;
#X connect 0 0 3 0;
#X connect 1 0 2 0;
#X connect 3 0 2 0;
#X connect 4 0 2 0;
#X restore 289 80 pd Gem.init;
#X connect 2 0 3 0;
#X connect 3 0 4 0;
#X connect 3 0 6 0;
#X connect 3 1 5 0;
#X connect 3 1 7 0;
#X connect 4 0 1 0;
#X connect 5 0 1 0;
#X connect 6 0 0 0;
#X connect 7 0 0 0;
#X connect 8 0 0 0;
#X restore 338 45 pd gemwin;
#X msg 338 21 destroy;
#X obj 101 360 vid.mapper;
#X obj 101 98 pix_texture;
#X obj 101 73 pix_film;
#X msg 161 73 0;
#X msg 124 41 auto 1 \, open _samples/anim.mov;
#X msg 331 164 blx \$1;
#X msg 337 200 bly \$1;
#X msg 343 236 brx \$1;
#X msg 348 271 bry \$1;
#X msg 164 165 trx \$1;
#X msg 171 201 try \$1;
#X msg 177 237 tlx \$1;
#X msg 181 274 tly \$1;
#X obj 331 299 s \$0-mapper;
#X obj 158 341 r \$0-mapper;
#X obj 164 297 s \$0-mapper;
#X floatatom 164 149 5 0 0 0 - - -, f 5;
#X floatatom 171 185 5 0 0 0 - - -, f 5;
#X floatatom 177 221 5 0 0 0 - - -, f 5;
#X floatatom 181 258 5 0 0 0 - - -, f 5;
#X floatatom 331 148 5 0 0 0 - - -, f 5;
#X floatatom 337 184 5 0 0 0 - - -, f 5;
#X floatatom 343 220 5 0 0 0 - - -, f 5;
#X floatatom 348 255 5 0 0 0 - - -, f 5;
#X text 369 145 <-- bottom left X;
#X text 371 183 <-- bottom left Y;
#X text 378 219 <-- bottom right X;
#X text 383 254 <-- bottom left Y;
#X text 200 146 <-- top right X;
#X text 207 182 <-- top right Y;
#X text 212 218 <-- top left X;
#X text 215 254 <-- top left Y;
#X obj 544 302 s \$0-mapper;
#X msg 544 240 lb \$1;
#X msg 555 278 fl \$1;
#X obj 544 222 tgl 15 0 empty empty empty 17 7 0 10 -262144 -1 -1 0
1;
#X obj 555 260 tgl 15 0 empty empty empty 17 7 0 10 -262144 -1 -1 0
1;
#X text 564 219 <-- plane;
#X text 574 259 <-- fill;
#X obj 542 195 s \$0-mapper;
#X msg 542 133 movex \$1;
#X msg 551 171 movey \$1;
#X floatatom 542 117 5 0 0 0 - - -, f 5;
#X floatatom 551 155 5 0 0 0 - - -, f 5;
#X text 578 113 <-- move X;
#X text 587 153 <-- move Y;
#X obj 666 302 s \$0-mapper;
#X msg 685 237 load \$1;
#X msg 696 275 write \$1;
#X msg 666 197 prog \$1;
#X floatatom 666 179 5 0 0 0 - - -, f 5;
#X obj 696 257 bng 15 250 50 0 empty empty empty 17 7 0 10 -258113
-262144 -1;
#X obj 685 219 bng 15 250 50 0 empty empty empty 17 7 0 10 -4034 -1
-1;
#X text 705 216 <-- load;
#X text 715 256 <-- write;
#X connect 0 0 25 0;
#X connect 21 0 22 0;
#X connect 22 0 21 0;
#X connect 24 0 23 0;
#X connect 25 0 24 0;
#X connect 25 2 26 0;
#X connect 26 0 25 1;
#X connect 27 0 25 0;
#X connect 28 0 36 0;
#X connect 29 0 36 0;
#X connect 30 0 36 0;
#X connect 31 0 36 0;
#X connect 32 0 38 0;
#X connect 33 0 38 0;
#X connect 34 0 38 0;
#X connect 35 0 38 0;
#X connect 37 0 23 1;
#X connect 39 0 32 0;
#X connect 40 0 33 0;
#X connect 41 0 34 0;
#X connect 42 0 35 0;
#X connect 43 0 28 0;
#X connect 44 0 29 0;
#X connect 45 0 30 0;
#X connect 46 0 31 0;
#X connect 56 0 55 0;
#X connect 57 0 55 0;
#X connect 58 0 56 0;
#X connect 59 0 57 0;
#X connect 63 0 62 0;
#X connect 64 0 62 0;
#X connect 65 0 63 0;
#X connect 66 0 64 0;
#X connect 70 0 69 0;
#X connect 71 0 69 0;
#X connect 72 0 69 0;
#X connect 73 0 72 0;
#X connect 74 0 71 0;
#X connect 75 0 70 0;
