#N canvas 234 281 495 312 10;
#X obj 178 199 vid.switch;
#X obj 251 152 tgl 15 0 empty empty empty 17 7 0 10 -262144 -1 -1 0
1;
#X obj 185 86 pix_video;
#X obj 281 85 pix_film;
#X text 266 194 switch between two video sources;
#X connect 1 0 0 2;
#X connect 2 0 0 0;
#X connect 3 0 0 1;
