#N canvas 474 131 738 591 10;
#X msg 135 375 record \$1;
#X obj 214 242 pix_texture;
#X msg 251 415 auto 1;
#X obj 251 396 loadbang;
#X obj 214 85 loadbang;
#X msg 214 109 0;
#X obj 214 137 tgl 15 0 empty empty empty 17 7 0 10 -262144 -1 -1 0
1;
#X obj 135 101 t f f;
#X obj 253 333 t b a;
#X obj 214 199 t a b;
#X obj 214 439 pix_record;
#X obj 214 160 gemhead -1000;
#X msg 253 357 file /Users/megrimm/Desktop/0.mov;
#X obj 135 29 inlet;
#X obj 330 29 inlet;
#X obj 242 463 outlet;
#X obj 43 148 sel 1;
#X obj 43 169 f;
#X obj 74 169 + 1;
#X obj 253 291 r \$0-recfile;
#X obj 43 191 s \$0-recfile;
#X obj 135 53 route seq;
#X obj 214 220 pix_snap 0 0 640 480;
#X msg 253 313 set file /Users/megrimm/Desktop/\$1.mov;
#X obj 340 270 loadbang;
#X msg 340 291 0;
#X obj 92 78 t f f;
#X obj 593 230 symbol \$1;
#X obj 548 170 loadbang;
#X obj 548 210 select 0;
#X obj 548 190 list append \$1;
#X obj 538 149 symbol \$1;
#X obj 538 356 makefilename;
#X msg 538 277 set \$1;
#X obj 538 305 t b a;
#X obj 538 253 makefilename %s/%%s;
#X msg 538 379 file \$1;
#X msg 538 328 symbol test.mov;
#X obj 330 52 route dimen dir;
#X obj 330 79 s \$0-dimen;
#X obj 330 199 r \$0-dimen;
#X connect 0 0 10 0;
#X connect 1 0 10 0;
#X connect 2 0 10 0;
#X connect 3 0 2 0;
#X connect 4 0 5 0;
#X connect 5 0 6 0;
#X connect 6 0 11 0;
#X connect 7 0 0 0;
#X connect 7 1 6 0;
#X connect 8 0 12 0;
#X connect 8 1 12 0;
#X connect 9 0 22 0;
#X connect 9 1 22 0;
#X connect 10 1 15 0;
#X connect 11 0 9 0;
#X connect 12 0 10 0;
#X connect 13 0 21 0;
#X connect 14 0 38 0;
#X connect 16 0 17 0;
#X connect 17 0 18 0;
#X connect 17 0 20 0;
#X connect 18 0 17 1;
#X connect 19 0 23 0;
#X connect 21 0 26 0;
#X connect 21 1 7 0;
#X connect 22 0 1 0;
#X connect 23 0 8 0;
#X connect 24 0 25 0;
#X connect 25 0 23 0;
#X connect 26 0 7 0;
#X connect 26 1 16 0;
#X connect 27 0 35 0;
#X connect 28 0 30 0;
#X connect 29 1 27 0;
#X connect 30 0 29 0;
#X connect 31 0 35 0;
#X connect 32 0 36 0;
#X connect 33 0 34 0;
#X connect 34 0 37 0;
#X connect 34 1 32 0;
#X connect 35 0 33 0;
#X connect 36 0 10 0;
#X connect 37 0 32 0;
#X connect 38 0 39 0;
#X connect 38 1 31 0;
#X connect 40 0 22 2;
