#N canvas 647 36 640 556 10;
#X obj 39 106 gemhead;
#X msg 156 132 reset;
#X obj 168 226 hsl 100 15 0 1 0 0 empty empty empty -2 -8 0 10 -262144
-1 -1 1980 1;
#X obj 164 165 loadbang;
#X msg 164 186 0.2;
#X msg 165 246 refframe \$1;
#X floatatom 39 452 5 0 0 0 - - -;
#X floatatom 97 415 5 0 0 0 - - -;
#X msg 177 303 onoff \$1;
#X msg 177 276 1;
#X msg 213 277 0;
#X text 242 302 <-- view the tracking;
#X text 170 206 <-- set reference frame;
#X text 200 131 <-- reset the background;
#X floatatom 156 364 5 0 0 0 - - -;
#X text 194 363 <-- blob size;
#X text 136 414 <-- Y axis;
#X text 79 452 <-- X axis;
#X obj 35 23 tgl 15 0 empty empty empty 17 7 0 10 -262144 -1 -1 0 1
;
#X text 116 47 <-- ESC key puts window in/out of Fullscreen;
#X obj 156 386 s \$0-blobchange;
#X obj 431 295 r \$0-blobchange;
#X obj 431 330 change;
#X obj 431 366 sel 1;
#X obj 431 422 readsf~;
#X obj 431 458 dac~;
#X obj 432 186 loadbang;
#X msg 432 210 \; pd dsp 1 \;;
#X text 62 22 <-- fullscreen 1/2;
#X obj 39 340 vid.track.background;
#X obj 35 48 vid.window;
#X msg 431 393 open _samples/dummy.wav \, 1;
#X connect 0 0 29 0;
#X connect 1 0 29 1;
#X connect 2 0 5 0;
#X connect 3 0 4 0;
#X connect 4 0 2 0;
#X connect 5 0 29 1;
#X connect 8 0 29 1;
#X connect 9 0 8 0;
#X connect 10 0 8 0;
#X connect 14 0 20 0;
#X connect 18 0 30 0;
#X connect 21 0 22 0;
#X connect 22 0 23 0;
#X connect 23 0 31 0;
#X connect 24 0 25 0;
#X connect 24 0 25 1;
#X connect 26 0 27 0;
#X connect 29 0 6 0;
#X connect 29 1 7 0;
#X connect 29 2 14 0;
#X connect 31 0 24 0;
