#N canvas 0 23 450 300 10;
#X obj 20 147 vid.window;
#X obj 20 39 tgl 15 0 empty empty empty 17 7 0 10 -262144 -1 -1 0 1
;
#X obj 20 17 loadbang;
#X obj 165 36 gemhead;
#X obj 160 69 vid.syn.sparks;
#X msg 244 37 speed \$1;
#X floatatom 244 15 5 0 0 0 - - -, f 5;
#X msg 20 60 fullscreen \$1;
#X msg 29 123 create \$1;
#X obj 29 81 loadbang;
#X msg 29 102 2;
#X connect 1 0 7 0;
#X connect 2 0 1 0;
#X connect 3 0 4 0;
#X connect 5 0 4 1;
#X connect 6 0 5 0;
#X connect 7 0 0 0;
#X connect 8 0 0 0;
#X connect 9 0 10 0;
#X connect 10 0 8 0;
