#N canvas 206 137 1223 686 10;
#X floatatom 396 380 5 0 0 0 - - -, f 5;
#X floatatom 432 380 5 0 0 0 - - -, f 5;
#X obj 434 520 pack;
#X floatatom 547 381 5 0 0 0 - - -, f 5;
#X floatatom 582 381 5 0 0 0 - - -, f 5;
#X obj 658 520 pack;
#X obj 58 23 inlet;
#X obj 471 368 cnv 15 70 30 empty empty empty 20 12 0 14 -261234 -66577
0;
#X floatatom 473 380 5 0 0 0 - - -, f 5;
#X floatatom 508 380 5 0 0 0 - - -, f 5;
#X obj 544 521 pack;
#X obj 621 369 cnv 15 70 30 empty empty empty 20 12 0 14 -261234 -66577
0;
#X floatatom 622 382 5 0 0 0 - - -, f 5;
#X floatatom 658 382 5 0 0 0 - - -, f 5;
#X obj 765 523 pack;
#X text 399 366 bottom left;
#X text 470 366 bottom right;
#X text 543 365 top right;
#X text 624 366 top left;
#X obj 697 369 cnv 15 85 30 empty empty empty 20 12 0 14 -204786 -66577
0;
#X floatatom 704 376 2 0 49 2 - - -, f 2;
#X text 695 363 program;
#X obj 760 377 bng 15 250 50 0 empty empty empty 17 7 0 10 -258113
-262144 -1;
#X text 753 389 write;
#X obj 738 377 bng 15 250 50 0 empty empty empty 17 7 0 10 -4034 -1
-1;
#X text 732 363 load;
#X obj 122 424 gemhead;
#X obj 58 453 spigot;
#X obj 122 451 spigot;
#X obj 346 382 tgl 15 0 empty empty empty 17 7 0 10 -262144 -1 -1 0
1;
#X text 345 366 plane;
#X msg 917 494 draw fill;
#X obj 58 529 curve3d;
#X msg 986 473 grid 40 40;
#X msg 434 540 set 1 0 \$1 \$2 0;
#X msg 544 540 set 0 0 \$1 \$2 0;
#X msg 658 540 set 0 1 \$1 \$2 0;
#X msg 765 543 set 1 1 \$1 \$2 0;
#X msg 346 343 0;
#X obj 369 382 tgl 15 0 empty empty empty 17 7 0 10 -262144 -1 -1 0
1;
#X msg 898 515 draw line;
#X obj 898 452 sel 0 1;
#X obj 132 23 inlet;
#X obj 296 55 route movex movey;
#X obj 296 95 s \$0-movex;
#X obj 345 76 s \$0-movey;
#X obj 681 126 r \$0-movex;
#X obj 662 191 - 8;
#X obj 831 184 - 8;
#X obj 573 87 r \$0-movey;
#X obj 520 145 - 6;
#X obj 549 147 - 6;
#X obj 396 321 r \$0-blx;
#X obj 432 343 r \$0-bly;
#X obj 473 320 r \$0-brx;
#X obj 508 340 r \$0-bry;
#X obj 547 319 r \$0-trx;
#X obj 582 341 r \$0-try;
#X obj 622 320 r \$0-tlx;
#X obj 658 339 r \$0-tly;
#X obj 662 216 s \$0-blx;
#X obj 519 201 s \$0-bly;
#X obj 682 242 s \$0-brx;
#X obj 549 178 s \$0-bry;
#X obj 726 220 s \$0-trx;
#X obj 586 150 s \$0-try;
#X obj 846 249 s \$0-tlx;
#X obj 590 121 s \$0-tly;
#X obj 396 410 s \$0-blx-r;
#X obj 473 411 s \$0-brx-r;
#X obj 432 431 s \$0-bly-r;
#X obj 508 432 s \$0-bry-r;
#X obj 547 411 s \$0-trx-r;
#X obj 582 432 s \$0-try-r;
#X obj 622 411 s \$0-tlx-r;
#X obj 658 433 s \$0-tly-r;
#X obj 775 477 r \$0-tly-r;
#X obj 765 457 r \$0-tlx-r;
#X obj 775 497 t b f;
#X obj 668 497 t b f;
#X obj 658 457 r \$0-trx-r;
#X obj 668 477 r \$0-try-r;
#X obj 554 500 t b f;
#X obj 544 460 r \$0-brx-r;
#X obj 554 480 r \$0-bry-r;
#X obj 444 499 t b f;
#X obj 434 459 r \$0-blx-r;
#X obj 444 479 r \$0-bly-r;
#X obj 757 60 r \$0-brx-r;
#X obj 757 144 -;
#X obj 772 101 r \$0-blx-r;
#X obj 772 121 + 100;
#X obj 757 81 + 100;
#X obj 855 146 -;
#X obj 870 123 + 100;
#X obj 855 83 + 100;
#X obj 855 62 r \$0-trx-r;
#X obj 870 103 r \$0-tlx-r;
#X obj 787 411 s \$0-write;
#X obj 704 410 s \$0-program;
#X obj 738 432 s \$0-load;
#N canvas 0 23 443 318 \$0-presets 0;
#X text 291 250 storing 50 settings;
#N canvas 0 23 365 367 reader 0;
#X obj 153 214 tabread \$0-settings;
#X obj 107 -11 inlet;
#X obj 107 11 * 8;
#X msg 107 68 0;
#X text 141 -14 get the index of setting 0 - 49;
#X obj 107 99 f;
#X obj 107 37 t b f;
#X obj 153 181 +;
#X obj 107 134 moses 8;
#X obj 59 70 + 1;
#X obj 126 244 pack;
#X obj 126 279 route 0 1 2 3 4 5 6 7;
#X obj 12 321 outlet;
#X obj 56 321 outlet;
#X obj 100 321 outlet;
#X obj 143 321 outlet;
#X obj 187 321 outlet;
#X obj 231 321 outlet;
#X obj 275 321 outlet;
#X obj 318 321 outlet;
#X obj 107 159 t f f f;
#X connect 0 0 10 1;
#X connect 1 0 2 0;
#X connect 2 0 6 0;
#X connect 3 0 5 0;
#X connect 5 0 8 0;
#X connect 6 0 3 0;
#X connect 6 1 7 1;
#X connect 7 0 0 0;
#X connect 8 0 20 0;
#X connect 9 0 5 0;
#X connect 10 0 11 0;
#X connect 11 0 12 0;
#X connect 11 1 13 0;
#X connect 11 2 14 0;
#X connect 11 3 15 0;
#X connect 11 4 16 0;
#X connect 11 5 17 0;
#X connect 11 6 18 0;
#X connect 11 7 19 0;
#X connect 20 0 9 0;
#X connect 20 1 10 0;
#X connect 20 2 7 0;
#X restore 47 85 pd reader --------;
#N canvas 72 99 661 330 writer 0;
#X obj 17 9 inlet;
#X obj 64 9 inlet;
#X obj 106 9 inlet;
#X obj 143 9 inlet;
#X obj 184 9 inlet;
#X obj 231 9 inlet;
#X obj 273 8 inlet;
#X obj 310 8 inlet;
#X msg 44 92 0;
#X obj 17 68 t f b;
#X obj 181 241 +;
#X obj 442 23 inlet;
#X obj 64 70 t f b;
#X msg 91 94 1;
#X obj 106 69 t f b;
#X obj 143 69 t f b;
#X obj 184 67 t f b;
#X obj 231 69 t f b;
#X obj 273 68 t f b;
#X obj 310 68 t f b;
#X msg 133 94 2;
#X msg 170 93 3;
#X msg 211 91 4;
#X msg 258 93 5;
#X msg 300 92 6;
#X msg 337 92 7;
#X obj 64 269 tabwrite \$0-settings;
#X obj 16 40 f;
#X obj 64 40 f;
#X obj 106 40 f;
#X obj 150 40 f;
#X obj 184 40 f;
#X obj 231 40 f;
#X obj 273 40 f;
#X obj 310 40 f;
#X obj 336 171 * 8;
#X obj 486 22 inlet;
#X obj 486 50 t b b;
#X msg 382 142 \; pd-b4plane.pd menusave;
#X text 384 173 store the abstaction with;
#X text 384 185 the data on harddisk;
#X connect 0 0 27 1;
#X connect 1 0 28 1;
#X connect 2 0 29 1;
#X connect 3 0 30 1;
#X connect 4 0 31 1;
#X connect 5 0 32 1;
#X connect 6 0 33 1;
#X connect 7 0 34 1;
#X connect 8 0 10 0;
#X connect 9 0 26 0;
#X connect 9 1 8 0;
#X connect 10 0 26 1;
#X connect 11 0 35 0;
#X connect 12 0 26 0;
#X connect 12 1 13 0;
#X connect 13 0 10 0;
#X connect 14 0 26 0;
#X connect 14 1 20 0;
#X connect 15 0 26 0;
#X connect 15 1 21 0;
#X connect 16 0 26 0;
#X connect 16 1 22 0;
#X connect 17 0 26 0;
#X connect 17 1 23 0;
#X connect 18 0 26 0;
#X connect 18 1 24 0;
#X connect 19 0 26 0;
#X connect 19 1 25 0;
#X connect 20 0 10 0;
#X connect 21 0 10 0;
#X connect 22 0 10 0;
#X connect 23 0 10 0;
#X connect 24 0 10 0;
#X connect 25 0 10 0;
#X connect 27 0 9 0;
#X connect 28 0 12 0;
#X connect 29 0 14 0;
#X connect 30 0 15 0;
#X connect 31 0 16 0;
#X connect 32 0 17 0;
#X connect 33 0 18 0;
#X connect 34 0 19 0;
#X connect 35 0 10 1;
#X connect 36 0 37 0;
#X connect 37 0 38 0;
#X connect 37 1 34 0;
#X connect 37 1 33 0;
#X connect 37 1 32 0;
#X connect 37 1 31 0;
#X connect 37 1 30 0;
#X connect 37 1 29 0;
#X connect 37 1 28 0;
#X connect 37 1 27 0;
#X restore 220 229 pd writer ------;
#N canvas 469 73 450 208 storage 0;
#N canvas 0 22 450 300 (subpatch) 0;
#X array \$0-settings 400 float 3;
#A 0 -4 -3 4 -3 4 3 -4 3 -5.21 -3 -0.16 -4 0 3.93 -5.18 3 -5.21 -3
-0.16 -4 0 3.93 -5.18 3 0 0 0 0 0 0 0 0 0 0 0 0 0 0 0 0 0 0 0 0 0 0
0 0 0 0 0 0 0 0 0 0 -0.62 -3.5 3.65 -0.85 -36.31 9.09 -14.09 2.92 4.52
-0.59 24.37 -22.68 -1.6 7.38 0.4 2.68 5.52 1.64 10.37 -22.68 11.4 7.38
6.4 2.68 0 0 0 0 0 0 0 0 0 0 0 0 0 0 0 0 0 0 0 0 0 0 0 0 0 0 0 0 0
0 0 0 0 0 0 0 0 0 0 0 0 0 0 0 0 0 0 0 0 0 0 0 0 0 0 0 -3 -3 4 -3 4
3 -4 3 0 0 0 0 0 0 0 0 0 0 0 0 0 0 0 0 0 0 0 0 0 0 0 0 0 0 0 0 0 0
0 0 0 0 0 0 0 0 0 0 0 0 0 0 0 0 0 0 0 0 0 0 0 0 0 0 0 0 0 0 0 0 0 0
0 0 0 0 0 0 0 0 0 0 0 0 0 0 0 0 0 0 0 0 0 0 0 0 0 0 0 0 0 0 0 0 0 0
0 0 0 0 0 0 0 0 0 0 0 0 0 0 0 0 0 0 0 0 0 0 0 0 0 0 0 0 0 0 0 0 0 0
0 0 0 0 0 0 0 0 0 0 0 0 0 0 0 0 0 0 0 0 0 0 0 0 0 0 0 0 0 0 0 0 0 0
0 0 0 0 0 0 0 0 0 0 0 0 0 0 0 0 0 0 0 0 0 0 0 0 0 0 0 0 0 0 0 0 0 0
0 0 0 0 0 0 0 0 0 0 0 0 0 0 0 0 0 0 0 0 0 0 0 0 0 0 0 0 0 0 0 0 0 0
0 0 0 0 0 0 0 0 0 0 0 0 0 0 0 0 0 0 0 0 0 0;
#X coords 0 10 400 -10 400 140 1;
#X restore 24 29 graph;
#X restore 220 250 pd storage;
#X obj 47 65 f;
#X obj 47 246 s \$0-blx;
#X obj 62 225 s \$0-bly;
#X obj 77 204 s \$0-brx;
#X obj 92 183 s \$0-bry;
#X obj 107 162 s \$0-trx;
#X obj 122 143 s \$0-try;
#X obj 137 124 s \$0-tlx;
#X obj 152 105 s \$0-tly;
#X obj 220 36 r \$0-blx-r;
#X obj 240 74 r \$0-brx-r;
#X obj 230 55 r \$0-bly-r;
#X obj 251 93 r \$0-bry-r;
#X obj 261 112 r \$0-trx-r;
#X obj 282 150 r \$0-tlx-r;
#X obj 271 130 r \$0-try-r;
#X obj 292 170 r \$0-tly-r;
#X obj 313 208 r \$0-write;
#X obj 302 189 r \$0-program;
#X obj 62 46 r \$0-program;
#X obj 47 27 r \$0-load;
#X connect 1 0 5 0;
#X connect 1 1 6 0;
#X connect 1 2 7 0;
#X connect 1 3 8 0;
#X connect 1 4 9 0;
#X connect 1 5 10 0;
#X connect 1 6 11 0;
#X connect 1 7 12 0;
#X connect 4 0 1 0;
#X connect 13 0 2 0;
#X connect 14 0 2 2;
#X connect 15 0 2 1;
#X connect 16 0 2 3;
#X connect 17 0 2 4;
#X connect 18 0 2 6;
#X connect 19 0 2 5;
#X connect 20 0 2 7;
#X connect 21 0 2 9;
#X connect 22 0 2 8;
#X connect 23 0 4 1;
#X connect 24 0 4 0;
#X restore 804 432 pd \$0-presets;
#X obj 91 433 == 0;
#X obj 346 447 s \$0-plane;
#X obj 91 405 r \$0-plane;
#X obj 369 428 s \$0-fill;
#X obj 898 431 r \$0-fill;
#X obj 898 541 s \$0-curve3d;
#X obj 58 506 r \$0-curve3d;
#X obj 986 494 s \$0-curve3d;
#X obj 494 78 s \$0-lb;
#X obj 494 56 loadbang;
#X obj 986 452 r \$0-lb;
#X obj 924 473 r \$0-lb;
#X obj 346 321 r \$0-lb;
#X obj 765 564 s \$0-curve3d;
#X obj 658 561 s \$0-curve3d;
#X obj 544 560 s \$0-curve3d;
#X obj 434 560 s \$0-curve3d;
#X obj 58 482 s \$0-curve3d;
#X obj 183 345 s \$0-blx-r;
#X obj 234 304 s \$0-brx-r;
#X obj 208 325 s \$0-bly-r;
#X obj 259 286 s \$0-bry-r;
#X obj 285 268 s \$0-trx-r;
#X obj 310 249 s \$0-try-r;
#X obj 336 231 s \$0-tlx-r;
#X obj 361 212 s \$0-tly-r;
#X obj 132 382 s \$0-plane;
#X obj 157 363 s \$0-fill;
#X obj 132 137 route lb fl blx bly brx bry trx try tlx tly;
#X obj 141 55 route prog load write;
#X obj 223 76 s \$0-write;
#X obj 141 113 s \$0-program;
#X obj 182 94 s \$0-load;
#X connect 0 0 68 0;
#X connect 1 0 70 0;
#X connect 2 0 34 0;
#X connect 3 0 72 0;
#X connect 4 0 73 0;
#X connect 5 0 36 0;
#X connect 6 0 27 0;
#X connect 8 0 69 0;
#X connect 9 0 71 0;
#X connect 10 0 35 0;
#X connect 12 0 74 0;
#X connect 13 0 75 0;
#X connect 14 0 37 0;
#X connect 20 0 99 0;
#X connect 22 0 98 0;
#X connect 24 0 100 0;
#X connect 26 0 28 0;
#X connect 27 0 119 0;
#X connect 28 0 119 0;
#X connect 29 0 103 0;
#X connect 31 0 107 0;
#X connect 33 0 109 0;
#X connect 34 0 118 0;
#X connect 35 0 117 0;
#X connect 36 0 116 0;
#X connect 37 0 115 0;
#X connect 38 0 29 0;
#X connect 39 0 105 0;
#X connect 40 0 107 0;
#X connect 41 0 40 0;
#X connect 41 1 31 0;
#X connect 42 0 43 0;
#X connect 42 0 130 0;
#X connect 42 0 131 0;
#X connect 43 0 44 0;
#X connect 43 1 45 0;
#X connect 46 0 47 0;
#X connect 46 0 48 0;
#X connect 46 0 62 0;
#X connect 46 0 64 0;
#X connect 47 0 60 0;
#X connect 48 0 66 0;
#X connect 49 0 50 0;
#X connect 49 0 51 0;
#X connect 49 0 65 0;
#X connect 49 0 67 0;
#X connect 50 0 61 0;
#X connect 51 0 63 0;
#X connect 52 0 0 0;
#X connect 53 0 1 0;
#X connect 54 0 8 0;
#X connect 55 0 9 0;
#X connect 56 0 3 0;
#X connect 57 0 4 0;
#X connect 58 0 12 0;
#X connect 59 0 13 0;
#X connect 76 0 78 0;
#X connect 77 0 14 0;
#X connect 78 0 14 0;
#X connect 78 1 14 1;
#X connect 79 0 5 0;
#X connect 79 1 5 1;
#X connect 80 0 5 0;
#X connect 81 0 79 0;
#X connect 82 0 10 0;
#X connect 82 1 10 1;
#X connect 83 0 10 0;
#X connect 84 0 82 0;
#X connect 85 0 2 0;
#X connect 85 1 2 1;
#X connect 86 0 2 0;
#X connect 87 0 85 0;
#X connect 88 0 92 0;
#X connect 89 0 47 1;
#X connect 90 0 91 0;
#X connect 91 0 89 1;
#X connect 92 0 89 0;
#X connect 93 0 48 1;
#X connect 94 0 93 1;
#X connect 95 0 93 0;
#X connect 96 0 95 0;
#X connect 97 0 94 0;
#X connect 102 0 27 1;
#X connect 104 0 28 1;
#X connect 104 0 102 0;
#X connect 106 0 41 0;
#X connect 108 0 32 0;
#X connect 111 0 110 0;
#X connect 112 0 33 0;
#X connect 113 0 31 0;
#X connect 114 0 38 0;
#X connect 130 0 128 0;
#X connect 130 1 129 0;
#X connect 130 2 120 0;
#X connect 130 3 122 0;
#X connect 130 4 121 0;
#X connect 130 5 123 0;
#X connect 130 6 124 0;
#X connect 130 7 125 0;
#X connect 130 8 126 0;
#X connect 130 9 127 0;
#X connect 131 0 133 0;
#X connect 131 1 134 0;
#X connect 131 2 132 0;
#X coords 0 686 1 685 450 40 0;
