#N canvas 696 56 537 636 10;
#X msg 49 89 play;
#X msg 59 111 stop;
#X obj 130 510 hsl 128 15 0 1 0 0 empty empty empty -2 -8 0 10 -257985
-1 -1 0 1;
#X floatatom 66 594 5 0 0 3 - - -;
#X floatatom 85 573 5 0 0 3 - - -;
#X floatatom 106 531 8 0 0 0 - - -;
#X obj 106 552 s \$0-tFrameNum;
#X floatatom 73 172 5 0 0 0 - - -;
#X msg 66 151 pause \$1;
#X obj 66 133 tgl 15 0 empty empty empty 17 7 0 10 -262144 -1 -1 0
1;
#X obj 38 47 random 10;
#X obj 38 27 bng 15 250 50 0 empty empty empty 17 7 0 10 -262144 -1
-1;
#X msg 38 67 open chokeslam/chokeslam-\$1.mp4;
#X msg 73 191 frame \$1;
#X obj 93 401 bng 15 250 50 0 empty empty empty 17 7 0 10 -262144 -1
-1;
#X text 112 404 <-- bang at end (not working yet);
#X obj 169 449 print;
#X obj 64 423 unpack f f f f f f;
#X floatatom 127 489 5 0 0 0 - - -;
#X floatatom 148 469 5 0 0 0 - - -;
#X text 119 573 <-- height;
#X text 103 594 <-- width;
#X text 160 529 <-- num of frames;
#X text 166 491 <-- possition;
#X text 184 469 <-- current frame;
#X obj 258 147 ofWindowResized 50;
#X obj 258 168 unpack f f;
#X floatatom 81 237 5 0 0 0 - - -;
#X floatatom 150 236 5 0 0 0 - - -;
#X obj 260 114 ofWindow;
#X msg 260 68 setPosition 0 0 \, setSize 640 480 \, create;
#X msg 271 90 destroy;
#X msg 81 256 width \$1;
#X msg 150 257 height \$1;
#X obj 258 208 s \$0-width;
#X obj 314 188 s \$0-height;
#X obj 81 217 r \$0-width;
#X obj 150 217 r \$0-height;
#N canvas 0 23 303 326 \$0-ctl-example 0;
#X obj 48 82 metro 40;
#X obj 48 104 f;
#X obj 48 62 tgl 15 0 empty empty empty 17 7 0 10 -262144 -1 -1 0 1
;
#X msg 48 223 setPosition \$1;
#X obj 51 203 hsl 128 15 0 1 0 0 empty empty setPosition -2 -8 0 10
-257985 -1 -1 0 1;
#X obj 48 167 /;
#X obj 105 42 hsl 128 15 -1000 1000 0 1 empty empty speed -2 -8 0 10
-257985 -1 -1 5800 1;
#X obj 75 104 + 100;
#X obj 48 125 / 100;
#X obj 129 83 * 100;
#X obj 114 104 mod;
#X obj 63 146 r \$0-tFrameNum;
#X obj 129 62 r \$0-tFrameNum;
#X obj 48 249 outlet;
#X connect 0 0 1 0;
#X connect 1 0 7 0;
#X connect 1 0 8 0;
#X connect 2 0 0 0;
#X connect 3 0 13 0;
#X connect 4 0 3 0;
#X connect 5 0 4 0;
#X connect 6 0 7 1;
#X connect 7 0 10 0;
#X connect 8 0 5 0;
#X connect 9 0 10 1;
#X connect 10 0 1 1;
#X connect 11 0 5 1;
#X connect 12 0 9 0;
#X restore 258 240 pd \$0-ctl-example;
#X text 378 145 <-- resized window w/h;
#X obj 258 265 s \$0-vid.offilm;
#X obj 96 353 r \$0-vid.offilm;
#X msg 150 302 loop \$1;
#X obj 150 281 hradio 15 1 0 3 empty empty empty 0 -8 0 10 -262144
-1 -1 1;
#X obj 36 379 vid.ofFilm;
#X connect 0 0 44 0;
#X connect 1 0 44 0;
#X connect 5 0 6 0;
#X connect 7 0 13 0;
#X connect 8 0 44 0;
#X connect 9 0 8 0;
#X connect 10 0 12 0;
#X connect 11 0 10 0;
#X connect 12 0 44 0;
#X connect 13 0 44 0;
#X connect 17 0 3 0;
#X connect 17 1 4 0;
#X connect 17 2 5 0;
#X connect 17 3 18 0;
#X connect 17 4 19 0;
#X connect 18 0 2 0;
#X connect 25 0 26 0;
#X connect 26 0 34 0;
#X connect 26 1 35 0;
#X connect 27 0 32 0;
#X connect 28 0 33 0;
#X connect 30 0 29 0;
#X connect 31 0 29 0;
#X connect 32 0 44 0;
#X connect 33 0 44 0;
#X connect 36 0 27 0;
#X connect 37 0 28 0;
#X connect 38 0 40 0;
#X connect 41 0 44 0;
#X connect 42 0 44 0;
#X connect 43 0 42 0;
#X connect 44 1 17 0;
#X connect 44 2 14 0;
