#N canvas 1024 564 500 430 10;
#X msg 38 178 1;
#X msg 44 138 erase 0;
#X obj 44 118 sel 3;
#X obj 36 335 outlet;
#X obj 38 16 inlet;
#X obj 38 37 route open;
#X obj 38 60 symbol;
#X msg 38 80 add \$1;
#X obj 95 58 s \$0-ofHead;
#X obj 58 208 r \$0-ofHead;
#X obj 131 177 s \$0-elements;
#X obj 44 99 r \$0-elements;
#X obj 86 264 ofGetWidth;
#X obj 133 283 ofGetHeight;
#X obj 87 241 bng 15 250 50 0 empty empty empty 17 7 0 10 -262144 -1
-1;
#X floatatom 193 352 5 0 0 0 - - -, f 5;
#X floatatom 243 344 5 0 0 0 - - -, f 5;
#X obj 302 320 loadbang;
#X msg 140 350 574;
#X msg 300 349 364;
#X obj 36 315 ofDrawImage @img;
#X obj 239 87 inlet;
#X obj 273 282 int;
#X obj 214 254 int;
#X obj 196 316 max 574;
#X obj 325 288 max 346;
#X obj 38 157 ofLoadImage @img;
#X connect 0 0 20 0;
#X connect 1 0 26 0;
#X connect 2 0 1 0;
#X connect 4 0 5 0;
#X connect 5 0 6 0;
#X connect 5 1 8 0;
#X connect 6 0 7 0;
#X connect 7 0 26 0;
#X connect 9 0 20 0;
#X connect 11 0 2 0;
#X connect 12 0 20 1;
#X connect 13 0 20 2;
#X connect 14 0 12 0;
#X connect 14 0 13 0;
#X connect 15 0 20 1;
#X connect 16 0 20 2;
#X connect 17 0 19 0;
#X connect 17 0 18 0;
#X connect 18 0 20 1;
#X connect 19 0 20 2;
#X connect 20 0 3 0;
#X connect 21 0 22 0;
#X connect 21 0 23 0;
#X connect 22 0 25 0;
#X connect 23 0 24 0;
#X connect 24 0 15 0;
#X connect 25 0 16 0;
#X connect 26 0 0 0;
#X connect 26 1 10 0;
