#N canvas 305 129 758 662 10;
#X obj 60 29 inlet;
#X obj 318 581 outlet;
#X obj 318 470 pix_film;
#X obj 340 532 unpack 0 0 0;
#X obj 340 557 s \$0-frames;
#X msg 60 208 open \$1;
#X obj 60 184 symbol;
#X obj 98 160 s \$0-play;
#X obj 136 135 s \$0-stop;
#X obj 60 232 s \$0-openfilm;
#X obj 174 110 s \$0-speed;
#X obj 213 87 s \$0-gemlist;
#X obj 318 48 r \$0-gemlist;
#X obj 342 88 r \$0-openfilm;
#X obj 363 507 s \$0-endreached;
#X obj 60 61 route open play stop speed;
#X obj 481 507 r \$0-endreached;
#X obj 481 537 outlet;
#X text 310 625 (c)2012 \, megrimm;
#X obj 382 420 line;
#X obj 439 213 r \$0-frames;
#X obj 439 234 / 29.97;
#X text 494 234 fps;
#X obj 439 257 * 1000;
#X msg 382 304 \$1 \, \$2 \$3;
#X obj 382 443 int;
#X obj 382 281 pack f f f;
#X obj 410 185 r \$0-frames;
#X msg 382 157 0;
#X obj 393 132 r \$0-endreached;
#X obj 382 109 r \$0-play;
#X obj 457 285 r \$0-stop;
#X msg 457 307 stop;
#X obj 476 415 unpack f f;
#X floatatom 480 459 5 0 0 0 - - -;
#X floatatom 541 456 5 0 0 0 - - -;
#X text 562 414 for pause / resume line;
#X connect 0 0 15 0;
#X connect 2 0 1 0;
#X connect 2 1 3 0;
#X connect 2 2 14 0;
#X connect 3 0 4 0;
#X connect 5 0 9 0;
#X connect 6 0 5 0;
#X connect 12 0 2 0;
#X connect 13 0 2 0;
#X connect 15 0 6 0;
#X connect 15 1 7 0;
#X connect 15 2 8 0;
#X connect 15 3 10 0;
#X connect 15 4 11 0;
#X connect 16 0 17 0;
#X connect 19 0 25 0;
#X connect 20 0 21 0;
#X connect 21 0 23 0;
#X connect 23 0 26 2;
#X connect 24 0 19 0;
#X connect 24 0 33 0;
#X connect 25 0 2 1;
#X connect 26 0 24 0;
#X connect 27 0 26 1;
#X connect 28 0 26 0;
#X connect 29 0 28 0;
#X connect 30 0 28 0;
#X connect 31 0 32 0;
#X connect 32 0 19 0;
#X connect 33 0 34 0;
#X connect 33 1 35 0;
