#N canvas 61 291 559 563 10;
#X obj 60 201 pix_texture;
#X obj 59 222 rectangle 4 4;
#X obj 60 178 pix_hsv2rgb;
#X obj 89 110 sig~;
#N canvas 158 366 450 300 sig2pix-sub 0;
#X obj 336 -50 inlet;
#X obj 341 100 block~ 4096;
#X obj 139 30 pix_sig2pix~;
#X obj 113 -70 inlet~;
#X obj 164 -68 inlet~;
#X obj 214 -68 inlet~;
#X obj 258 -68 inlet~;
#X obj 146 71 outlet;
#X obj 58 -52 inlet;
#X msg 337 68 set \$1;
#X connect 0 0 9 0;
#X connect 2 0 7 0;
#X connect 3 0 2 0;
#X connect 4 0 2 1;
#X connect 5 0 2 2;
#X connect 6 0 2 3;
#X connect 8 0 2 0;
#X connect 9 0 1 0;
#X restore 61 158 pd sig2pix-sub;
#X obj 163 132 r \$0-blocksize;
#X obj 59 -84 gemhead;
#X floatatom 316 -49 5 0 0 0 - - -;
#X obj 316 -76 expr $f1*$f1;
#X obj 316 -22 s \$0-blocksize;
#X obj 316 -104 inlet;
#X obj 83 -112 inlet~;
#X obj 160 -100 inlet~;
#X obj 238 3 inlet;
#X connect 0 0 1 0;
#X connect 2 0 0 0;
#X connect 3 0 4 2;
#X connect 4 0 2 0;
#X connect 5 0 4 5;
#X connect 6 0 4 0;
#X connect 7 0 9 0;
#X connect 8 0 7 0;
#X connect 10 0 8 0;
#X connect 11 0 4 1;
#X connect 12 0 4 3;
#X connect 13 0 3 0;
