#N canvas 602 310 507 383 10;
#X obj 69 135 spigot;
#X obj 41 0 gemkeyboard;
#X obj 41 29 sel 53;
#X obj 41 291 gemwin;
#X obj 122 0 key;
#X obj 122 31 sel 27;
#X obj 194 6 inlet;
#X obj 165 111 == 0;
#X obj 120 135 spigot 1;
#X obj 77 63 == 0;
#X obj 41 63 f 1;
#X msg 69 194 0 \, destroy \, reset \, cursor 0 \, border 0 \, fullscreen
2 \, create \, 1;
#X msg 41 170 0 \, destroy \, reset \, dimen 640 480 \, create \, 1
;
#X msg 127 297 0 \, destroy \, reset \, border 0 \, dimen 1440 900
\, offset 0 -51 \, create \, 1;
#X text 262 4 (c)2012 \, megrimm;
#X obj 41 94 select 1 0;
#X msg 120 231 0 \, destroy \, reset \, border 0 \, menubar 0 \, cursor
0 \, fullscreen 1 \, create \, 1;
#X connect 0 0 11 0;
#X connect 1 0 2 0;
#X connect 2 0 10 0;
#X connect 4 0 5 0;
#X connect 5 0 10 0;
#X connect 6 0 7 0;
#X connect 6 0 0 1;
#X connect 7 0 8 1;
#X connect 8 0 16 0;
#X connect 9 0 10 1;
#X connect 10 0 9 0;
#X connect 10 0 15 0;
#X connect 11 0 3 0;
#X connect 12 0 3 0;
#X connect 13 0 3 0;
#X connect 15 0 12 0;
#X connect 15 1 0 0;
#X connect 15 1 8 0;
#X connect 16 0 3 0;
