#N canvas 538 82 545 668 10;
#X obj 366 515 unpack 0 0;
#X obj 65 22 inlet;
#X obj 61 614 outlet;
#X obj 326 561 outlet~;
#X obj 326 389 route stop;
#X obj 64 298 list prepend gem_state;
#X obj 64 317 list trim;
#X msg 326 409 stop;
#X obj 175 201 s \$0-open;
#X obj 352 126 s \$0-ctl;
#X obj 326 369 r \$0-ctl;
#X obj 82 339 r \$0-open;
#X obj 119 227 s \$0-load;
#X obj 64 251 s \$0-gemlst;
#X obj 64 279 r \$0-gemlst;
#X obj 441 559 s \$0-samples;
#X obj 92 464 r \$0-samples;
#X obj 346 536 s~ \$0-vline~;
#X obj 142 516 r~ \$0-vline~;
#X obj 326 494 snd.play~;
#X obj 61 539 vid.play.img;
#X obj 387 423 r \$0-open;
#X obj 175 178 openpanel;
#X msg 387 465 open \$1;
#X msg 82 390 open \$1;
#X obj 230 112 s \$0-frames;
#X obj 89 413 r \$0-frames;
#X msg 230 90 frames \$1;
#X text 51 645 (c)2017 \, megrimm;
#X obj 175 134 route bang;
#X obj 242 156 s \$0-open;
#X obj 326 320 textfile;
#X obj 326 253 r \$0-open;
#X msg 326 298 read \$1 \, rewind \, bang;
#X obj 326 343 s \$0-frames;
#N canvas 0 23 451 413 file.extswap 0;
#X obj 22 34 symbol;
#X obj 22 11 inlet;
#X obj 22 334 outlet;
#X obj 168 104 loadbang;
#X text 144 360 (c)2012 \, megrimm;
#X msg 168 178 set \$1;
#X obj 22 255 makefilename;
#X obj 22 56 list fromsymbol;
#X obj 23 188 list tosymbol;
#X obj 79 104 list length;
#X obj 22 77 t a a;
#X obj 23 167 list split;
#X text 118 253 TODO: dynamic file extention swap based on the period?
charecter 46, f 34;
#X obj 168 153 makefilename %%s%s;
#X obj 80 147 - 4;
#X obj 168 129 symbol /_info.txt;
#X connect 0 0 7 0;
#X connect 1 0 0 0;
#X connect 3 0 15 0;
#X connect 5 0 6 0;
#X connect 6 0 2 0;
#X connect 7 0 10 0;
#X connect 8 0 6 0;
#X connect 9 0 14 0;
#X connect 10 0 11 0;
#X connect 10 1 9 0;
#X connect 11 0 8 0;
#X connect 13 0 5 0;
#X connect 14 0 11 1;
#X connect 15 0 13 0;
#X restore 326 276 pd file.extswap;
#N canvas 0 23 451 413 file.extswap 0;
#X obj 22 34 symbol;
#X obj 22 11 inlet;
#X obj 22 334 outlet;
#X obj 168 104 loadbang;
#X text 144 360 (c)2012 \, megrimm;
#X msg 168 178 set \$1;
#X obj 22 255 makefilename;
#X obj 22 56 list fromsymbol;
#X obj 23 188 list tosymbol;
#X obj 79 104 list length;
#X obj 22 77 t a a;
#X obj 23 167 list split;
#X text 118 253 TODO: dynamic file extention swap based on the period?
charecter 46, f 34;
#X obj 168 153 makefilename %%s%s;
#X obj 80 147 - 4;
#X obj 168 129 symbol /1.jpg;
#X connect 0 0 7 0;
#X connect 1 0 0 0;
#X connect 3 0 15 0;
#X connect 5 0 6 0;
#X connect 6 0 2 0;
#X connect 7 0 10 0;
#X connect 8 0 6 0;
#X connect 9 0 14 0;
#X connect 10 0 11 0;
#X connect 10 1 9 0;
#X connect 11 0 8 0;
#X connect 13 0 5 0;
#X connect 14 0 11 1;
#X connect 15 0 13 0;
#X restore 82 365 pd file.extswap;
#X obj 387 444 symbol;
#X obj 142 610 outlet;
#X obj 209 558 r \$0-samples;
#X msg 92 486 samples \$1;
#X obj 142 588 pack 0 0 0;
#X obj 175 537 r \$0-frames;
#X msg 89 433 frames \$1;
#X obj 65 49 route gem_state load open frames pause;
#X obj 385 78 s \$0-ctl;
#X msg 378 50 pause 1;
#X connect 0 1 15 0;
#X connect 1 0 44 0;
#X connect 4 0 7 0;
#X connect 4 1 19 0;
#X connect 5 0 6 0;
#X connect 6 0 20 0;
#X connect 7 0 19 0;
#X connect 10 0 4 0;
#X connect 11 0 36 0;
#X connect 14 0 5 0;
#X connect 16 0 40 0;
#X connect 18 0 20 1;
#X connect 19 0 3 0;
#X connect 19 1 17 0;
#X connect 19 2 0 0;
#X connect 20 0 2 0;
#X connect 20 1 41 0;
#X connect 21 0 37 0;
#X connect 22 0 8 0;
#X connect 23 0 19 0;
#X connect 24 0 20 0;
#X connect 26 0 43 0;
#X connect 27 0 25 0;
#X connect 29 0 22 0;
#X connect 29 1 30 0;
#X connect 31 0 34 0;
#X connect 32 0 35 0;
#X connect 33 0 31 0;
#X connect 35 0 33 0;
#X connect 36 0 24 0;
#X connect 37 0 23 0;
#X connect 39 0 41 2;
#X connect 40 0 20 0;
#X connect 41 0 38 0;
#X connect 42 0 41 1;
#X connect 43 0 20 0;
#X connect 44 0 13 0;
#X connect 44 1 12 0;
#X connect 44 2 29 0;
#X connect 44 3 27 0;
#X connect 44 4 46 0;
#X connect 44 5 9 0;
#X connect 46 0 45 0;
