#N canvas 375 56 493 432 12;
#X obj -81 347 gemwin;
#X obj 27 -17 gemhead;
#X obj 27 211 pix_texture;
#X msg -81 298 dimen 640 480 \, create \, 1;
#X msg -128 268 destroy;
#X obj 27 267 rectangle 5.33 4;
#X floatatom 79 45 5 0 0 0 - - -;
#X obj 53 117 unpack f f f;
#X floatatom 53 147 5 0 0 0 - - -;
#X obj 79 18 f;
#X obj 123 18 + 1;
#X obj 172 17 % 0;
#X obj 27 16 t a b;
#X obj 213 -6 adc~;
#X obj 213 29 env~;
#X floatatom 213 59 5 0 0 0 - - -;
#X obj 213 92 expr ($f1-40)/60;
#X floatatom 213 165 5 0 0 0 - - -;
#X floatatom 213 253 5 0 0 0 - - -;
#X obj 213 130 * 64;
#X obj -55 214 loadbang;
#X msg -55 248 \; pd dsp 1;
#X obj 213 227 int;
#X obj 213 196 abs;
#X msg -82 125 open five.mov;
#X obj -82 95 loadbang;
#X obj 27 84 pix_film;
#X connect 1 0 12 0;
#X connect 2 0 5 0;
#X connect 3 0 0 0;
#X connect 4 0 0 0;
#X connect 7 0 8 0;
#X connect 8 0 11 1;
#X connect 8 0 19 1;
#X connect 9 0 10 0;
#X connect 9 0 6 0;
#X connect 10 0 11 0;
#X connect 11 0 9 1;
#X connect 12 0 26 0;
#X connect 12 1 9 0;
#X connect 13 0 14 0;
#X connect 14 0 15 0;
#X connect 15 0 16 0;
#X connect 16 0 19 0;
#X connect 17 0 23 0;
#X connect 18 0 26 1;
#X connect 19 0 17 0;
#X connect 20 0 21 0;
#X connect 22 0 18 0;
#X connect 23 0 22 0;
#X connect 24 0 26 0;
#X connect 25 0 24 0;
#X connect 26 0 2 0;
#X connect 26 1 7 0;
