#N canvas 511 227 272 194 10;
#X obj -123 43 gemwin;
#X msg -151 -22 destroy;
#N canvas 256 130 675 436 vj 1;
#X obj 201 131 image button.gif;
#X msg 98 7 open button.gif;
#X text 95 53 [image];
#X obj -66 -6 gemhead;
#X obj -73 281 pix_texture;
#X obj -73 305 rectangle 5.33 4;
#X obj 312 0 gemhead;
#X obj 350 159 unpack f f f;
#X floatatom 350 190 5 0 0 0 - - -;
#X obj 312 122 pix_film;
#X obj 312 39 t a b;
#X obj 339 66 f;
#X obj 385 65 + 1;
#X obj 430 64 % 0;
#X floatatom 339 96 5 0 0 0 - - -;
#X obj 312 274 pix_texture;
#X obj 312 300 rectangle 5.33 4;
#X obj -73 225 colorRGB;
#X obj -73 254 alpha;
#X obj 312 227 colorRGB;
#X obj 312 248 alpha;
#X obj 135 125 hsl 128 15 0 1 0 0 empty empty empty -2 -8 0 10 -33289
-117628 -1 0 1;
#X obj 133 167 t f f;
#X floatatom -28 196 5 0 0 0 - - -;
#X obj 133 198 expr 1-$f1;
#X floatatom 404 228 5 0 0 0 - - -;
#X obj -28 143 unpack f f f;
#X floatatom -28 174 5 0 0 0 - - -;
#X obj -66 106 pix_film;
#X obj -66 23 t a b;
#X obj -23 24 f;
#X obj 23 23 + 1;
#X obj 68 22 % 0;
#X floatatom -23 64 5 0 0 0 - - -;
#X obj 111 125 bng 15 250 50 0 empty empty empty 17 7 0 10 -258113
-1 -1;
#X obj -123 155 openpanel;
#X msg -123 183 open \$1;
#X obj 369 -15 openpanel;
#X msg 369 22 open \$1;
#X obj 270 125 bng 15 250 50 0 empty empty empty 17 7 0 10 -258113
-1 -1;
#X obj 98 -25 loadbang;
#X connect 1 0 0 0;
#X connect 3 0 29 0;
#X connect 4 0 5 0;
#X connect 6 0 10 0;
#X connect 7 0 8 0;
#X connect 8 0 13 1;
#X connect 9 0 19 0;
#X connect 9 1 7 0;
#X connect 10 0 9 0;
#X connect 10 1 11 0;
#X connect 11 0 12 0;
#X connect 11 0 14 0;
#X connect 12 0 13 0;
#X connect 13 0 11 1;
#X connect 14 0 9 1;
#X connect 15 0 16 0;
#X connect 17 0 18 0;
#X connect 18 0 4 0;
#X connect 19 0 20 0;
#X connect 20 0 15 0;
#X connect 21 0 22 0;
#X connect 22 0 24 0;
#X connect 22 1 25 0;
#X connect 23 0 17 4;
#X connect 24 0 23 0;
#X connect 25 0 19 4;
#X connect 26 0 27 0;
#X connect 27 0 32 1;
#X connect 28 0 17 0;
#X connect 28 1 26 0;
#X connect 29 0 28 0;
#X connect 29 1 30 0;
#X connect 30 0 31 0;
#X connect 30 0 33 0;
#X connect 31 0 32 0;
#X connect 32 0 30 1;
#X connect 33 0 28 1;
#X connect 34 0 35 0;
#X connect 35 0 36 0;
#X connect 36 0 28 0;
#X connect 37 0 38 0;
#X connect 38 0 9 0;
#X connect 39 0 37 0;
#X connect 40 0 1 0;
#X coords 0 -1 1 1 200 60 1 100 100;
#X restore -123 65 pd vj;
#X msg -123 11 reset \, dimen 500 500 \, create \, 1;
#X connect 1 0 0 0;
#X connect 3 0 0 0;
