#N canvas 501 199 775 458 10;
#X obj 36 373 gemwin;
#X msg 36 323 dimen 640 480 \, create \, 1;
#X msg 44 348 0 \, destroy;
#X obj 212 22 gemhead;
#X obj 213 393 pix_texture;
#X obj 212 262 pix_film;
#X obj 213 415 rectangle 5.33 4;
#X msg 225 70 open clips/\$1.mov;
#X obj 414 343 table soundfile;
#X obj 389 295 vline~;
#X obj 389 318 tabread4~ soundfile;
#X obj 447 202 soundfiler;
#X msg 447 179 read -resize clips/\$1.wav soundfile;
#X obj 390 248 pack 0 0 0;
#X msg 390 273 \$1 \, \$2 \$3;
#X obj 392 380 dac~;
#X obj 447 225 / 44.1;
#X obj 460 248 s time;
#X obj 234 307 unpack 0 0 0;
#X obj 257 215 line;
#X obj 257 167 pack 0 0 0;
#X obj 314 143 r time;
#X obj 234 329 s frames;
#X obj 285 120 r frames;
#X msg 257 190 \$1 \, \$2 \$3;
#X obj 257 237 int;
#X obj 257 285 s endfilm;
#X obj 64 163 r endfilm;
#X obj 62 212 random 15;
#X obj 62 234 + 1;
#X obj 35 191 t b b;
#X obj 35 28 bng 50 250 50 0 empty empty empty 17 7 0 10 -258113 -1
-1;
#X obj 62 255 s clipnum;
#X obj 225 48 r clipnum;
#X obj 447 157 r clipnum;
#X obj 35 278 s trigger;
#X obj 257 95 r trigger;
#X obj 389 133 r trigger;
#X obj 65 141 metro 500;
#X floatatom 116 121 5 0 0 0 - - -, f 5;
#X msg 81 116 0;
#X msg 65 94 1;
#X obj 622 314 pix_motionblur;
#X floatatom 703 293 5 0 0 0 - - -, f 5;
#X obj 622 359 pix_gain;
#X floatatom 685 339 5 0 0 0 - - -, f 5;
#X floatatom 644 338 5 0 0 0 - - -, f 5;
#X obj 212 350 s seffects;
#X obj 213 370 r reffects;
#X obj 622 382 s reffects;
#X obj 622 289 r seffects;
#X connect 1 0 0 0;
#X connect 2 0 0 0;
#X connect 3 0 5 0;
#X connect 4 0 6 0;
#X connect 5 0 47 0;
#X connect 5 1 18 0;
#X connect 5 2 26 0;
#X connect 7 0 5 0;
#X connect 9 0 10 0;
#X connect 10 0 15 0;
#X connect 10 0 15 1;
#X connect 11 0 13 1;
#X connect 11 0 16 0;
#X connect 12 0 11 0;
#X connect 13 0 14 0;
#X connect 14 0 9 0;
#X connect 16 0 13 2;
#X connect 16 0 17 0;
#X connect 18 0 22 0;
#X connect 19 0 25 0;
#X connect 20 0 24 0;
#X connect 21 0 20 2;
#X connect 23 0 20 1;
#X connect 24 0 19 0;
#X connect 25 0 5 1;
#X connect 27 0 30 0;
#X connect 28 0 29 0;
#X connect 29 0 32 0;
#X connect 30 0 35 0;
#X connect 30 1 28 0;
#X connect 31 0 30 0;
#X connect 33 0 7 0;
#X connect 34 0 12 0;
#X connect 36 0 20 0;
#X connect 37 0 13 0;
#X connect 38 0 30 0;
#X connect 39 0 38 1;
#X connect 40 0 38 0;
#X connect 41 0 38 0;
#X connect 42 0 44 0;
#X connect 43 0 42 1;
#X connect 44 0 49 0;
#X connect 45 0 44 2;
#X connect 46 0 44 1;
#X connect 48 0 4 0;
#X connect 50 0 42 0;
