#N canvas 616 80 638 583 10;
#X obj 47 348 gemhead;
#X obj 48 384 pix_video;
#X obj 49 452 pix_texture;
#X obj 49 486 rectangle 5.33333 4;
#X obj 85 139 gems.win @dimen 320 240;
#X obj 93 113 tgl 15 0 empty empty empty 17 7 0 10 -262144 -1 -1 1
1;
#X msg 186 376 print;
#X msg 441 213 clamp \$1 \$2;
#X obj 440 192 list.pak.2 f f;
#X floatatom 521 172 5 0 0 0 - - -;
#X floatatom 441 172 5 0 0 0 - - -;
#X obj 448 371 list.pak.2 f f;
#X floatatom 529 351 5 0 0 0 - - -;
#X floatatom 449 351 5 0 0 0 - - -;
#X msg 449 392 width \$1 \$2;
#X obj 444 278 list.pak.2 f f;
#X floatatom 525 258 5 0 0 0 - - -;
#X floatatom 445 258 5 0 0 0 - - -;
#X msg 445 299 origin \$1 \$2;
#X msg 351 120 clamp 1 1 \, origin 0 0 \, width 0 0;
#X obj 49 412 gems.glsl.shader @vertex shaders/clamp.vert @fragment
shaders/clamp.frag;
#X connect 0 0 1 0;
#X connect 1 0 20 0;
#X connect 2 0 3 0;
#X connect 5 0 4 0;
#X connect 6 0 20 1;
#X connect 7 0 20 2;
#X connect 8 0 7 0;
#X connect 9 0 8 1;
#X connect 10 0 8 0;
#X connect 11 0 14 0;
#X connect 12 0 11 1;
#X connect 13 0 11 0;
#X connect 14 0 20 2;
#X connect 15 0 18 0;
#X connect 16 0 15 1;
#X connect 17 0 15 0;
#X connect 18 0 20 2;
#X connect 19 0 20 2;
#X connect 20 0 2 0;
