#N canvas 815 316 528 366 10;
#X declare -path abs;
#X obj 174 37 tgl 15 0 empty empty empty 17 7 0 10 -262144 -1 -1 1
1;
#X msg 233 126 print;
#X msg 287 124 reload;
#X obj 301 14 gemwin;
#X obj 80 11 gemhead 555;
#X msg 196 41 reset;
#X obj 71 206 colorRGB 1 1 1 1;
#X obj 65 36 pix_video;
#X obj 69 66 pix_texture;
#X obj 71 259 rectangle 4 3;
#X floatatom 372 112 5 0 0 0 - - -;
#X floatatom 408 159 5 0 0 0 - - -;
#X msg 406 177 tolerance \$1;
#X obj 129 329 declare -path abs;
#X obj 64 165 pdmtl/gems.glsl.shader @vertex shaders/x_led.vert @fragment
shaders/x_led.frag;
#X obj 174 62 pdmtl/gems.win @dimen 640 640 @frame 60 @fsaa 6;
#X msg 370 131 pixelRadius \$1;
#X connect 0 0 15 0;
#X connect 1 0 14 1;
#X connect 2 0 14 1;
#X connect 4 0 7 0;
#X connect 5 0 15 0;
#X connect 6 0 9 0;
#X connect 7 0 8 0;
#X connect 8 0 14 0;
#X connect 10 0 16 0;
#X connect 11 0 12 0;
#X connect 12 0 14 2;
#X connect 14 0 6 0;
#X connect 16 0 14 2;
