#N canvas 665 22 770 321 10;
#X obj 49 46 gemhead;
#X obj 65 204 pix_texture;
#X obj 174 63 gems.win @dimen 320 240;
#X obj 174 37 tgl 15 0 empty empty empty 17 7 0 10 -262144 -1 -1 0
1;
#X msg 233 126 print;
#X obj 362 101 pack 0 0;
#X floatatom 360 55 5 0 0 0 - - -;
#X obj 393 78 t b f;
#X floatatom 394 55 5 0 0 0 - - -;
#X obj 471 101 pack 0 0;
#X floatatom 469 55 5 0 0 0 - - -;
#X obj 502 78 t b f;
#X floatatom 503 55 5 0 0 0 - - -;
#X obj 572 101 pack 0 0;
#X floatatom 570 55 5 0 0 0 - - -;
#X obj 603 78 t b f;
#X floatatom 604 55 5 0 0 0 - - -;
#X msg 361 123 blueoffset \$1 \$2;
#X msg 470 123 redoffset \$1 \$2;
#X msg 571 123 greenoffset \$1 \$2;
#X obj 49 85 pix_video;
#X obj 65 240 rectangle 4 3;
#X obj 64 165 gems.glsl.shader @vertex shaders/default.vert @fragment
shaders/colorseparator.frag;
#X connect 0 0 20 0;
#X connect 1 0 21 0;
#X connect 3 0 2 0;
#X connect 4 0 22 1;
#X connect 5 0 17 0;
#X connect 6 0 5 0;
#X connect 7 0 5 0;
#X connect 7 1 5 1;
#X connect 8 0 7 0;
#X connect 9 0 18 0;
#X connect 10 0 9 0;
#X connect 11 0 9 0;
#X connect 11 1 9 1;
#X connect 12 0 11 0;
#X connect 13 0 19 0;
#X connect 14 0 13 0;
#X connect 15 0 13 0;
#X connect 15 1 13 1;
#X connect 16 0 15 0;
#X connect 17 0 22 2;
#X connect 18 0 22 2;
#X connect 19 0 22 2;
#X connect 20 0 22 0;
#X connect 22 0 1 0;
