#N canvas 780 22 524 362 10;
#X obj 49 46 gemhead;
#X obj 174 37 tgl 15 0 empty empty empty 17 7 0 10 -262144 -1 -1 1
1;
#X msg 233 126 print;
#X obj 71 259 teapot;
#X obj 60 139 rotateXYZ 0 0 0;
#X obj 56 88 t a b;
#X floatatom 316 232 5 0 0 0 - - -;
#X msg 287 124 reload;
#X obj 64 165 pdmtl/gems.glsl.shader @vertex shaders/xyz_color.vert
@fragment shaders/xyz_color.frag;
#X obj 174 63 pdmtl/gems.win @dimen 640 640 @frame 60 @fsaa 6;
#X obj 82 110 pdmtl/count.iter;
#X connect 0 0 5 0;
#X connect 1 0 9 0;
#X connect 2 0 8 1;
#X connect 4 0 8 0;
#X connect 5 0 4 0;
#X connect 5 1 10 0;
#X connect 6 0 3 1;
#X connect 7 0 8 1;
#X connect 8 0 3 0;
#X connect 10 0 4 1;
#X connect 10 0 4 2;
#X connect 10 0 4 3;
