#N canvas 658 22 782 333 10;
#X declare -path abs;
#X obj 49 46 gemhead;
#X obj 64 210 pix_texture;
#X obj 174 37 tgl 15 0 empty empty empty 17 7 0 10 -262144 -1 -1 1
1;
#X msg 213 139 print;
#X obj 65 240 rectangle 4 3;
#X obj 495 94 metro 20;
#X obj 498 74 tgl 15 0 empty empty empty 17 7 0 10 -262144 -1 -1 0
1;
#X floatatom 495 135 5 0 0 0 - - -;
#X msg 494 153 time \$1;
#X obj 495 114 count.iter 0 1;
#X obj 189 238 declare -path abs;
#X obj 38 100 pix_video;
#X obj 64 165 pdmtl/gems.glsl.shader @vertex shaders/simplexnoise.vert
@fragment shaders/simplexnoise.frag;
#X obj 174 63 pdmtl/gems.win @dimen 640 640;
#X connect 0 0 11 0;
#X connect 1 0 4 0;
#X connect 2 0 13 0;
#X connect 3 0 12 1;
#X connect 5 0 9 0;
#X connect 6 0 5 0;
#X connect 7 0 8 0;
#X connect 8 0 12 2;
#X connect 9 0 7 0;
#X connect 11 0 12 0;
#X connect 12 0 1 0;
