#N canvas 780 58 615 445 10;
#X obj 36 91 gemhead;
#X obj 37 127 pix_video;
#X obj 38 195 pix_texture;
#X obj 50 14 tgl 15 0 empty empty empty 17 7 0 10 -262144 -1 -1 0 1
;
#X msg 175 119 print;
#X obj 431 199 list.pak.3 f f f;
#X msg 430 220 W00 \$1 \, W01 \$2 \, W02 \$3;
#X floatatom 430 177 5 0 0 0 - - -;
#X floatatom 478 177 5 0 0 0 - - -;
#X floatatom 526 178 5 0 0 0 - - -;
#X obj 434 265 list.pak.3 f f f;
#X floatatom 433 243 5 0 0 0 - - -;
#X floatatom 481 243 5 0 0 0 - - -;
#X floatatom 529 244 5 0 0 0 - - -;
#X obj 434 332 list.pak.3 f f f;
#X floatatom 433 310 5 0 0 0 - - -;
#X floatatom 481 310 5 0 0 0 - - -;
#X floatatom 529 311 5 0 0 0 - - -;
#X msg 433 286 W10 \$1 \, W11 \$2 \, W12 \$3;
#X msg 434 353 W20 \$1 \, W21 \$2 \, W22 \$3;
#X floatatom 431 88 5 0 0 0 - - -;
#X floatatom 431 45 5 0 0 0 - - -;
#X msg 430 23 sum \$1;
#X floatatom 431 3 5 0 0 0 - - -;
#X msg 430 65 width \$1;
#X msg 430 108 height \$1;
#X text 424 146 The convolution kernel:;
#X obj 38 153 gems.glsl.shader @vertex shaders/default.vert @fragment
shaders/convolve.frag;
#X floatatom 506 56 5 0 0 0 - - -;
#X obj 42 40 gems.win @dimen 480 480;
#X obj 38 229 rectangle 4 3;
#X text 157 231 Sharpen: -1 -1 -1;
#X text 214 247 -1 16 -1;
#X text 212 261 -1 -1 -1;
#X text 163 282 Edge detect: 1 1 1;
#X text 241 310 1 1 1;
#X text 243 296 1 -8 1;
#X connect 0 0 1 0;
#X connect 1 0 27 0;
#X connect 2 0 30 0;
#X connect 3 0 29 0;
#X connect 4 0 27 1;
#X connect 5 0 6 0;
#X connect 6 0 27 2;
#X connect 7 0 5 0;
#X connect 8 0 5 1;
#X connect 9 0 5 2;
#X connect 10 0 18 0;
#X connect 11 0 10 0;
#X connect 12 0 10 1;
#X connect 13 0 10 2;
#X connect 14 0 19 0;
#X connect 15 0 14 0;
#X connect 16 0 14 1;
#X connect 17 0 14 2;
#X connect 18 0 27 2;
#X connect 19 0 27 2;
#X connect 20 0 25 0;
#X connect 21 0 24 0;
#X connect 22 0 27 2;
#X connect 23 0 22 0;
#X connect 24 0 27 2;
#X connect 25 0 27 2;
#X connect 27 0 2 0;
#X connect 28 0 21 0;
#X connect 28 0 20 0;
