#N canvas 765 27 453 308 10;
#X obj 49 46 gemhead;
#X obj 65 204 pix_texture;
#X obj 174 37 tgl 15 0 empty empty empty 17 7 0 10 -262144 -1 -1 1
1;
#X msg 177 135 print;
#X obj 49 85 pix_video;
#X obj 65 240 rectangle 4 3;
#X obj 174 63 gems.win @dimen 640 640;
#X obj 64 165 gems.glsl.shader @vertex shaders/default.vert @fragment
shaders/monochrome.frag;
#X connect 0 0 4 0;
#X connect 1 0 5 0;
#X connect 2 0 6 0;
#X connect 3 0 7 1;
#X connect 4 0 7 0;
#X connect 7 0 1 0;
