#N canvas 267 84 576 298 10;
#X declare -path abs;
#X obj 49 46 gemhead;
#X obj 64 208 rectangle 5.33333 4;
#X obj 174 63 gems.win @dimen 320 240;
#X obj 174 37 tgl 15 0 empty empty empty 17 7 0 10 -262144 -1 -1 0
1;
#X msg 269 104 print;
#X obj 57 128 pix_texture;
#X msg 271 126 reload;
#X obj 65 107 pix_video;
#X obj 64 164 gems.glsl.shader @vertex shaders/default.vert @fragment
shaders/test_texcoord.frag;
#X msg 428 100 coeff \$1;
#X floatatom 435 74 5 0 0 0 - - -;
#X obj 196 216 declare -path abs;
#X connect 0 0 7 0;
#X connect 3 0 2 0;
#X connect 4 0 8 1;
#X connect 5 0 8 0;
#X connect 6 0 8 1;
#X connect 7 0 5 0;
#X connect 8 0 1 0;
#X connect 9 0 8 2;
#X connect 10 0 9 0;
