#N canvas 662 22 782 333 10;
#X obj 49 46 gemhead;
#X obj 65 204 pix_texture;
#X obj 174 37 tgl 15 0 empty empty empty 17 7 0 10 -262144 -1 -1 1
1;
#X msg 233 126 print;
#X obj 65 240 rectangle 4 3;
#X obj 174 63 gems.win @dimen 640 640;
#X obj 49 85 pix_video;
#X floatatom 424 243 5 0 0 0 - - -;
#X msg 424 266 time \$1;
#X obj 435 189 t b;
#X obj 441 216 random.f 0 1;
#X obj 64 165 gems.glsl.shader @vertex shaders/default.vert @fragment
shaders/modulo_noise.frag;
#X connect 0 0 6 0;
#X connect 1 0 4 0;
#X connect 2 0 5 0;
#X connect 3 0 11 1;
#X connect 6 0 9 0;
#X connect 6 0 11 0;
#X connect 7 0 8 0;
#X connect 8 0 11 2;
#X connect 9 0 10 0;
#X connect 10 0 7 0;
#X connect 11 0 1 0;
