#N canvas 651 304 766 317 10;
#X declare -path abs;
#X obj 49 46 gemhead;
#X obj 49 85 pix_video;
#X obj 63 134 pix_texture;
#X obj 64 240 rectangle 5.33333 4;
#X obj 174 63 gems.win @dimen 320 240;
#X obj 174 37 tgl 15 0 empty empty empty 17 7 0 10 -262144 -1 -1 0
1;
#X msg 201 130 print;
#X msg 383 123 origin \$1 \$2;
#X floatatom 472 102 5 0 0 0 - - -;
#X obj 64 164 gems.glsl.shader @vertex shaders/default.vert @fragment
shaders/kaleidoscope.frag;
#X msg 470 123 div \$1;
#X obj 384 101 pack 0 0;
#X floatatom 382 55 5 0 0 0 - - -;
#X obj 415 78 t b f;
#X floatatom 416 55 5 0 0 0 - - -;
#X obj 520 100 pack 0 0;
#X floatatom 518 54 5 0 0 0 - - -;
#X obj 551 77 t b f;
#X floatatom 552 54 5 0 0 0 - - -;
#X msg 519 122 scale \$1 \$2;
#X obj 606 99 pack 0 0;
#X floatatom 604 53 5 0 0 0 - - -;
#X obj 637 76 t b f;
#X floatatom 638 53 5 0 0 0 - - -;
#X msg 605 121 offset \$1 \$2;
#X obj 230 236 declare -path abs;
#X connect 0 0 1 0;
#X connect 1 0 2 0;
#X connect 2 0 9 0;
#X connect 5 0 4 0;
#X connect 6 0 9 1;
#X connect 7 0 9 2;
#X connect 8 0 10 0;
#X connect 9 0 3 0;
#X connect 10 0 9 2;
#X connect 11 0 7 0;
#X connect 12 0 11 0;
#X connect 13 0 11 0;
#X connect 13 1 11 1;
#X connect 14 0 13 0;
#X connect 15 0 19 0;
#X connect 16 0 15 0;
#X connect 17 0 15 0;
#X connect 17 1 15 1;
#X connect 18 0 17 0;
#X connect 19 0 9 2;
#X connect 20 0 24 0;
#X connect 21 0 20 0;
#X connect 22 0 20 0;
#X connect 22 1 20 1;
#X connect 23 0 22 0;
#X connect 24 0 9 2;
