#N canvas 662 22 778 329 10;
#X declare -path abs;
#X obj 49 46 gemhead;
#X obj 65 204 pix_texture;
#X obj 174 37 tgl 15 0 empty empty empty 17 7 0 10 -262144 -1 -1 1
1;
#X msg 233 126 print;
#X floatatom 329 88 5 0 0 0 - - -;
#X obj 49 85 pix_video;
#X obj 65 240 rectangle 4 3;
#X floatatom 414 93 5 0 0 0 - - -;
#X floatatom 500 103 5 0 0 0 - - -;
#X msg 500 126 offset \$1;
#X obj 527 76 line;
#X obj 487 19 metro 10000;
#X msg 505 50 -1 \, 1 10000;
#X obj 482 -2 tgl 15 0 empty empty empty 17 7 0 10 -262144 -1 -1 0
1;
#X obj 411 68 line;
#X obj 329 69 line;
#X msg 329 117 amplitude \$1;
#X msg 414 116 frequency \$1;
#X obj 325 24 random.f 0 20;
#X msg 328 47 \$1 10000;
#X msg 414 42 \$1 10000;
#X obj 411 19 random.f 0 1;
#X obj 563 171 count.iter 0 0.01;
#X obj 580 144 metro 20;
#X obj 583 124 tgl 15 0 empty empty empty 17 7 0 10 -262144 -1 -1 0
1;
#X floatatom 573 204 5 0 0 0 - - -;
#X obj 191 246 declare -path abs;
#X obj 64 165 pdmtl/gems.glsl.shader @vertex shaders/default.vert @fragment
shaders/sinehorizon.frag;
#X obj 174 63 pdmtl/gems.win @dimen 640 640;
#X connect 0 0 5 0;
#X connect 1 0 6 0;
#X connect 2 0 28 0;
#X connect 3 0 27 1;
#X connect 4 0 16 0;
#X connect 5 0 27 0;
#X connect 7 0 17 0;
#X connect 8 0 9 0;
#X connect 9 0 27 2;
#X connect 10 0 8 0;
#X connect 11 0 18 0;
#X connect 11 0 21 0;
#X connect 12 0 10 0;
#X connect 13 0 11 0;
#X connect 14 0 7 0;
#X connect 15 0 4 0;
#X connect 16 0 27 2;
#X connect 17 0 27 2;
#X connect 18 0 19 0;
#X connect 19 0 15 0;
#X connect 20 0 14 0;
#X connect 21 0 20 0;
#X connect 22 0 9 0;
#X connect 22 0 25 0;
#X connect 23 0 22 0;
#X connect 24 0 23 0;
#X connect 27 0 1 0;
