#N canvas 565 209 689 572 10;
#X declare -path abs;
#X obj 65 204 gemhead;
#X obj 66 240 pix_video;
#X obj 67 308 pix_texture;
#X obj 67 342 rectangle 5.33333 4;
#X obj 53 19 tgl 15 0 empty empty empty 17 7 0 10 -262144 -1 -1 0 1
;
#X msg 204 232 print;
#X obj 67 266 gems.glsl.shader @vertex shaders/pinch.vert @fragment
shaders/pinch.frag;
#X obj 460 312 list.pak.3 f f f;
#X msg 459 333 W00 \$1 \, W01 \$2 \, W02 \$3;
#X floatatom 459 290 5 0 0 0 - - -;
#X floatatom 507 290 5 0 0 0 - - -;
#X floatatom 555 291 5 0 0 0 - - -;
#X obj 463 378 list.pak.3 f f f;
#X floatatom 462 356 5 0 0 0 - - -;
#X floatatom 510 356 5 0 0 0 - - -;
#X floatatom 558 357 5 0 0 0 - - -;
#X obj 463 445 list.pak.3 f f f;
#X floatatom 462 423 5 0 0 0 - - -;
#X floatatom 510 423 5 0 0 0 - - -;
#X floatatom 558 424 5 0 0 0 - - -;
#X msg 462 399 W10 \$1 \, W11 \$2 \, W12 \$3;
#X msg 463 466 W20 \$1 \, W21 \$2 \, W22 \$3;
#X floatatom 460 201 5 0 0 0 - - -;
#X floatatom 460 158 5 0 0 0 - - -;
#X msg 459 136 sum \$1;
#X floatatom 460 116 5 0 0 0 - - -;
#X msg 459 178 width \$1;
#X msg 459 221 height \$1;
#X text 453 259 The convolution kernel:;
#X obj 45 45 gems.win @dimen 320 320;
#X obj 136 154 declare -path abs;
#X connect 0 0 1 0;
#X connect 1 0 6 0;
#X connect 2 0 3 0;
#X connect 4 0 29 0;
#X connect 5 0 6 1;
#X connect 6 0 2 0;
#X connect 7 0 8 0;
#X connect 8 0 6 2;
#X connect 9 0 7 0;
#X connect 10 0 7 1;
#X connect 11 0 7 2;
#X connect 12 0 20 0;
#X connect 13 0 12 0;
#X connect 14 0 12 1;
#X connect 15 0 12 2;
#X connect 16 0 21 0;
#X connect 17 0 16 0;
#X connect 18 0 16 1;
#X connect 19 0 16 2;
#X connect 20 0 6 2;
#X connect 21 0 6 2;
#X connect 22 0 27 0;
#X connect 23 0 26 0;
#X connect 24 0 6 2;
#X connect 25 0 24 0;
#X connect 26 0 6 2;
#X connect 27 0 6 2;
