#N canvas 575 276 753 574 10;
#X declare -path abs;
#X obj 47 348 gemhead;
#X obj 48 384 pix_video;
#X obj 49 452 pix_texture;
#X obj 49 486 rectangle 5.33333 4;
#X obj 93 113 tgl 15 0 empty empty empty 17 7 0 10 -262144 -1 -1 1
1;
#X msg 186 376 print;
#X obj 369 347 pack 0 0;
#X floatatom 361 314 5 0 0 0 - - -;
#X obj 400 324 t b f;
#X floatatom 401 301 5 0 0 0 - - -;
#X msg 368 369 origin \$1 \$2;
#X floatatom 457 348 5 0 0 0 - - -;
#X msg 455 369 size \$1;
#X msg 566 470 kernelSize 9;
#X msg 553 416 scaleFactor \$1 \$2 \$3 \$4;
#X floatatom 547 347 5 0 0 0 - - -;
#X obj 585 371 t b f;
#X floatatom 586 348 5 0 0 0 - - -;
#X obj 554 394 pack 0 0 0 0;
#X floatatom 625 353 5 0 0 0 - - -;
#X floatatom 664 352 5 0 0 0 - - -;
#X floatatom 341 126 5 0 0 0 - - -;
#X obj 379 150 t b f;
#X floatatom 380 127 5 0 0 0 - - -;
#X obj 348 173 pack 0 0 0 0;
#X floatatom 419 132 5 0 0 0 - - -;
#X floatatom 458 131 5 0 0 0 - - -;
#X obj 137 197 declare -path abs;
#X obj 49 410 pdmtl/gems.glsl.shader @vertex shaders/default.vert @fragment
shaders/unsharp.frag;
#X obj 85 139 pdmtl/gems.win @dimen 320 240;
#X msg 347 195 kernelValue[0] \$1 \$2 \$3 \$4;
#X connect 0 0 1 0;
#X connect 1 0 28 0;
#X connect 2 0 3 0;
#X connect 4 0 29 0;
#X connect 5 0 28 1;
#X connect 6 0 10 0;
#X connect 7 0 6 0;
#X connect 8 0 6 0;
#X connect 8 1 6 1;
#X connect 9 0 8 0;
#X connect 10 0 28 2;
#X connect 11 0 12 0;
#X connect 12 0 28 2;
#X connect 13 0 28 2;
#X connect 14 0 28 2;
#X connect 15 0 18 0;
#X connect 16 0 18 0;
#X connect 16 1 18 1;
#X connect 17 0 16 0;
#X connect 18 0 14 0;
#X connect 19 0 18 2;
#X connect 20 0 18 3;
#X connect 21 0 24 0;
#X connect 22 0 24 0;
#X connect 22 1 24 1;
#X connect 23 0 22 0;
#X connect 24 0 30 0;
#X connect 25 0 24 2;
#X connect 26 0 24 3;
#X connect 28 0 2 0;
#X connect 30 0 28 2;
