#N canvas 651 304 770 321 10;
#X obj 49 46 gemhead;
#X obj 64 240 rectangle 5.33333 4;
#X obj 174 63 gems.win @dimen 320 240;
#X obj 174 37 tgl 15 0 empty empty empty 17 7 0 10 -262144 -1 -1 1
1;
#X msg 233 121 print;
#X msg 383 123 origin \$1 \$2;
#X floatatom 472 102 5 0 0 0 - - -;
#X msg 470 123 div \$1;
#X obj 384 101 pack 0 0;
#X floatatom 382 55 5 0 0 0 - - -;
#X obj 415 78 t b f;
#X floatatom 416 55 5 0 0 0 - - -;
#X obj 520 100 pack 0 0;
#X floatatom 518 54 5 0 0 0 - - -;
#X obj 551 77 t b f;
#X floatatom 552 54 5 0 0 0 - - -;
#X msg 519 122 scale \$1 \$2;
#X obj 606 99 pack 0 0;
#X floatatom 604 53 5 0 0 0 - - -;
#X obj 637 76 t b f;
#X floatatom 638 53 5 0 0 0 - - -;
#X msg 605 121 offset \$1 \$2;
#X obj 64 198 pix_texture;
#X obj 64 164 gems.glsl.shader @vertex shaders/default.vert @fragment
shaders/noisy.frag;
#X connect 0 0 23 0;
#X connect 3 0 2 0;
#X connect 4 0 23 1;
#X connect 5 0 23 2;
#X connect 6 0 7 0;
#X connect 7 0 23 2;
#X connect 8 0 5 0;
#X connect 9 0 8 0;
#X connect 10 0 8 0;
#X connect 10 1 8 1;
#X connect 11 0 10 0;
#X connect 12 0 16 0;
#X connect 13 0 12 0;
#X connect 14 0 12 0;
#X connect 14 1 12 1;
#X connect 15 0 14 0;
#X connect 16 0 23 2;
#X connect 17 0 21 0;
#X connect 18 0 17 0;
#X connect 19 0 17 0;
#X connect 19 1 17 1;
#X connect 20 0 19 0;
#X connect 21 0 23 2;
#X connect 22 0 1 0;
#X connect 23 0 22 0;
