#N canvas 846 427 755 572 10;
#X text 303 274 y[n] = x[n] + bmx[n − m] where m is the delay amount
in samples and bm the amplitude of the echo.;
#X obj 192 481 dac~;
#X obj 184 135 osc~;
#X msg 234 97 0;
#X msg 189 28 500;
#X obj 234 57 t b;
#X floatatom 267 194 5 0 0 0 - - -, f 5;
#X floatatom 348 196 5 0 0 0 - - -, f 5;
#X obj 234 77 del 1000;
#X obj 494 90 v m;
#X floatatom 488 50 15 0 0 0 - - -, f 15;
#X obj 425 125 hsl 128 15 0 0.999 0 0 empty empty empty -2 -8 0 10
-228856 -1 -1 8800 1;
#X floatatom 422 146 0 0 0.999 0 - - -;
#X text 458 166 coeficiente;
#X obj 422 167 v am;
#X obj 171 255 fexpr~ $x[0] + (am * $y[- m]);
#X connect 2 0 15 0;
#X connect 3 0 2 0;
#X connect 4 0 2 0;
#X connect 4 0 5 0;
#X connect 5 0 8 0;
#X connect 8 0 3 0;
#X connect 10 0 9 0;
#X connect 11 0 12 0;
#X connect 12 0 14 0;
#X connect 15 0 1 0;
#X connect 15 0 1 1;
