#N canvas 468 38 689 601 10;
#X declare -path .;
#X msg 26 25 play;
#X msg 146 24 play;
#X msg 253 25 play;
#X text 298 413 When playing multiple files simultaneously it is fairly
easy to CLIP the souldcard. There are many ways to stop this from happening.
One way is to simply decreas the volue of the sample being played.
this could simply be a [*~ 0.2] after every outlet.;
#X msg 41 74 sr 44100;
#X msg 161 177 sr 44100;
#X msg 267 259 sr 44100;
#X obj 267 238 loadbang;
#X obj 161 155 loadbang;
#X obj 41 52 loadbang;
#X text 325 260 You must set the sample rate.;
#X text 225 176 You must set the sample rate.;
#X text 107 75 You must set the sample rate.;
#X obj 26 499 dac~;
#X obj 26 103 fresh/snd.player~ _samples/organ-01.wav;
#X obj 146 202 fresh/snd.player~ _samples/organ-02.wav;
#X obj 253 286 fresh/snd.player~ _samples/organ-03.wav;
#X obj 26 469 *~ 0.2;
#X obj 109 471 *~ 0.2;
#X obj 299 526 declare -path .;
#X text 298 494 Generally you should also use a declaration like this
in the parent *.pd to be able to use relative directory names:;
#X connect 0 0 14 0;
#X connect 1 0 15 0;
#X connect 2 0 16 0;
#X connect 4 0 14 0;
#X connect 5 0 15 0;
#X connect 6 0 16 0;
#X connect 7 0 6 0;
#X connect 8 0 5 0;
#X connect 9 0 4 0;
#X connect 14 0 17 0;
#X connect 14 1 18 0;
#X connect 15 0 17 0;
#X connect 15 1 18 0;
#X connect 16 0 17 0;
#X connect 16 1 18 0;
#X connect 17 0 13 0;
#X connect 18 0 13 1;
