#N canvas 463 150 628 555 10;
#X obj 37 179 metro;
#X msg 36 121 1;
#X msg 47 145 0;
#X obj 80 143 line;
#X floatatom 87 169 5 0 0 0 - - -, f 5;
#X obj 36 94 t b b;
#X obj 217 175 metro;
#X msg 216 117 1;
#X msg 227 141 0;
#X obj 260 139 line;
#X floatatom 261 175 5 0 0 0 - - -, f 5;
#X obj 216 90 t b b;
#X obj 379 177 metro;
#X msg 378 119 1;
#X msg 389 143 0;
#X obj 422 141 line;
#X floatatom 423 177 5 0 0 0 - - -, f 5;
#X obj 378 92 t b b;
#X obj 36 12 bng 50 250 50 0 empty empty empty 17 7 0 10 -258113 -1
-1;
#X msg 147 364 afq 3 \, efq 16 \, tim 0 \, att 1 \, dec 70 \, cur 18
\, dis 0 \, lop 18 \, vol 70;
#X obj 36 503 dac~;
#X msg 310 285 vol 80 \, dec 20 \, mix 50 \, nak 40 \, tun 10;
#X msg 472 209 vol 80 \, dec 13 \, crh 10;
#X msg 260 114 233 \, 1000 100000;
#X msg 80 118 367 \, 1000 100000;
#X msg 422 116 100 \, 1000 100000;
#X obj 36 401 fresh/syn.bassdrum~;
#X obj 217 309 fresh/syn.snare~;
#X obj 379 236 fresh/syn.hihat~;
#X obj 472 187 loadbang;
#X obj 310 263 loadbang;
#X obj 147 341 loadbang;
#X obj 36 472 catch~ \$0-sig;
#X obj 36 425 throw~ \$0-sig;
#X obj 217 334 throw~ \$0-sig;
#X obj 379 260 throw~ \$0-sig;
#X connect 0 0 26 0;
#X connect 1 0 0 0;
#X connect 2 0 0 0;
#X connect 3 0 0 1;
#X connect 3 0 4 0;
#X connect 5 0 1 0;
#X connect 5 1 24 0;
#X connect 6 0 27 0;
#X connect 7 0 6 0;
#X connect 8 0 6 0;
#X connect 9 0 6 1;
#X connect 9 0 10 0;
#X connect 11 0 7 0;
#X connect 11 1 23 0;
#X connect 12 0 28 0;
#X connect 13 0 12 0;
#X connect 14 0 12 0;
#X connect 15 0 12 1;
#X connect 15 0 16 0;
#X connect 17 0 13 0;
#X connect 17 1 25 0;
#X connect 18 0 5 0;
#X connect 18 0 11 0;
#X connect 18 0 17 0;
#X connect 19 0 26 1;
#X connect 21 0 27 1;
#X connect 22 0 28 1;
#X connect 23 0 9 0;
#X connect 24 0 3 0;
#X connect 25 0 15 0;
#X connect 26 0 33 0;
#X connect 27 0 34 0;
#X connect 28 0 35 0;
#X connect 29 0 22 0;
#X connect 30 0 21 0;
#X connect 31 0 19 0;
#X connect 32 0 20 0;
#X connect 32 0 20 1;
