#N canvas 98 58 722 578 10;
#X obj 202 163 pix_texture;
#X floatatom 233 188 5 0 0 0 - - -;
#X msg 218 139 quality 0;
#X obj 202 273 scaleXYZ 3 3 1;
#X floatatom 290 297 5 0 0 0 - - -;
#X floatatom 229 253 5 0 0 0 - - -;
#X floatatom 266 252 5 0 0 0 - - -;
#X floatatom 304 252 5 0 0 0 - - -;
#X obj 203 318 mesh_square 200;
#X msg 115 228 draw line;
#X msg 121 247 draw point;
#X msg 104 201 draw default;
#X msg 35 185 grid \$1;
#X floatatom 35 167 5 0 0 0 - - -;
#X floatatom 44 209 5 0 0 0 - - -;
#X msg 44 227 gridX \$1;
#X floatatom 48 252 5 0 0 0 - - -;
#X msg 48 270 gridY \$1;
#X obj 37 301 t a;
#X obj 115 268 t a;
#N canvas 0 22 350 502 \$0-texfetch 0;
#X obj 3 353 pack 0 0;
#X obj 24 333 t b f;
#X msg 3 376 link \$1 \$2;
#X floatatom 24 314 2 0 0 0 ID - -;
#X floatatom 3 213 2 0 0 0 ID - -;
#X obj 21 397 print linking;
#X obj -33 125 bng 15 250 50 0 empty empty empty 17 7 0 10 -262144
-1 -1;
#X obj -69 268 glsl_fragment;
#X obj -69 171 glsl_vertex;
#X obj 3 190 change;
#X obj 24 288 change;
#X obj -69 426 glsl_program;
#N canvas 703 231 450 300 load_glsl 0;
#X obj 51 22 gemhead;
#X obj 51 98 outlet;
#X obj 51 50 route gem_state;
#X obj 51 74 route 1;
#X connect 0 0 2 0;
#X connect 2 0 3 0;
#X connect 3 0 1 0;
#X restore -33 100 pd load_glsl;
#X obj -70 32 inlet;
#X obj -68 461 outlet;
#X msg -55 149 open shaders/fetching.vert;
#X msg -59 238 open shaders/fetching.frag;
#X connect 0 0 2 0;
#X connect 1 0 0 0;
#X connect 1 1 0 1;
#X connect 2 0 5 0;
#X connect 2 0 11 0;
#X connect 3 0 1 0;
#X connect 4 0 0 0;
#X connect 6 0 15 0;
#X connect 6 0 16 0;
#X connect 7 0 11 0;
#X connect 7 1 10 0;
#X connect 8 0 7 0;
#X connect 8 1 9 0;
#X connect 9 0 4 0;
#X connect 10 0 3 0;
#X connect 11 0 14 0;
#X connect 12 0 6 0;
#X connect 13 0 8 0;
#X connect 15 0 8 0;
#X connect 16 0 7 0;
#X restore 202 111 pd \$0-texfetch;
#X obj 205 46 gemhead 5;
#N canvas 226 70 229 207 \$0-spigot 0;
#X obj 112 110 spigot;
#X obj 143 89 expr 1-$f1;
#X obj 48 110 spigot;
#X obj 54 38 inlet;
#X obj 48 161 outlet;
#X obj 116 158 outlet;
#X obj 113 38 inlet;
#X connect 0 0 5 0;
#X connect 1 0 0 1;
#X connect 2 0 4 0;
#X connect 3 0 2 0;
#X connect 3 0 0 0;
#X connect 6 0 1 0;
#X connect 6 0 2 1;
#X restore 205 69 pd \$0-spigot;
#X obj 274 47 tgl 15 0 empty empty empty 17 7 0 10 -262144 -1 -1 0
1;
#X obj 274 24 r \$0-loadbang;
#X obj 286 139 r \$0-texfetch-fb;
#X obj 307 231 hsl 128 15 -3 3 0 0 empty empty empty -2 -8 0 10 -262144
-1 -1 0 1;
#X msg 418 164 0 1000;
#X msg 420 184 3 1000;
#X obj 409 206 line;
#X msg 415 143 -3 2000;
#X obj 202 208 rotateXYZ -3 0 0;
#X obj 363 46 sel 0 1;
#X msg 363 68 1;
#X msg 395 68 0;
#X obj 363 24 r \$0-texfetch-switch;
#X obj 103 142 sel 0 1 2;
#X obj 75 92 r \$0-texfetch-radio;
#X obj 370 106 r \$0-texfetch-slide;
#X obj 376 334 r \$0-texfetch-rotate;
#X obj 416 385 line;
#X msg 416 364 \$1 2000;
#X obj 155 356 r \$0-texfetch-scale;
#X obj 173 402 line;
#X msg 173 381 \$1 1500;
#X msg 376 296 \$1 250;
#X connect 0 0 31 0;
#X connect 1 0 31 1;
#X connect 2 0 0 0;
#X connect 3 0 8 0;
#X connect 4 0 8 1;
#X connect 5 0 3 1;
#X connect 6 0 3 2;
#X connect 7 0 3 3;
#X connect 9 0 19 0;
#X connect 10 0 19 0;
#X connect 11 0 19 0;
#X connect 12 0 18 0;
#X connect 13 0 12 0;
#X connect 14 0 15 0;
#X connect 15 0 18 0;
#X connect 16 0 17 0;
#X connect 17 0 18 0;
#X connect 18 0 8 0;
#X connect 19 0 8 0;
#X connect 20 0 0 0;
#X connect 21 0 22 0;
#X connect 22 1 20 0;
#X connect 23 0 22 1;
#X connect 24 0 23 0;
#X connect 25 0 0 1;
#X connect 26 0 7 0;
#X connect 27 0 29 0;
#X connect 28 0 29 0;
#X connect 29 0 26 0;
#X connect 30 0 29 0;
#X connect 31 0 3 0;
#X connect 32 0 33 0;
#X connect 32 1 34 0;
#X connect 33 0 23 0;
#X connect 34 0 23 0;
#X connect 35 0 32 0;
#X connect 36 0 11 0;
#X connect 36 1 9 0;
#X connect 36 2 10 0;
#X connect 37 0 36 0;
#X connect 38 0 45 0;
#X connect 39 0 41 0;
#X connect 40 0 1 0;
#X connect 41 0 40 0;
#X connect 42 0 44 0;
#X connect 43 0 8 1;
#X connect 44 0 43 0;
#X connect 45 0 29 0;
