#N canvas 364 98 893 647 10;
#X obj 160 162 translateXYZ 0 0 -4;
#N canvas 700 22 407 295 init 0;
#X obj 106 175 outlet;
#X obj 106 68 loadbang;
#X msg 106 118 type FLOAT \, dimen 1024 1024 \, rectangle 1;
#X connect 1 0 2 0;
#X connect 2 0 0 0;
#X restore 180 121 pd init;
#X obj 160 142 gemframebuffer;
#X obj 160 274 scaleXYZ 4 4 1;
#X obj 160 295 mesh_square 10 10;
#X obj 174 208 loadbang;
#X obj 160 254 pix_texture;
#X obj 173 80 loadbang;
#X obj 160 58 gemhead;
#X floatatom 316 170 5 0 0 0 - - -;
#X msg 173 101 texunit 3;
#X obj 362 178 translateXYZ 0 0 -4;
#N canvas 700 22 407 295 init 0;
#X obj 106 175 outlet;
#X obj 106 68 loadbang;
#X msg 105 118 type FLOAT \, dimen 1024 1024 \, rectangle 1;
#X connect 1 0 2 0;
#X connect 2 0 0 0;
#X restore 382 137 pd init;
#X obj 362 158 gemframebuffer;
#X obj 362 290 scaleXYZ 4 4 1;
#X obj 362 311 mesh_square 10 10;
#X obj 376 224 loadbang;
#X msg 376 246 rectangle 0;
#X obj 362 270 pix_texture;
#X obj 375 96 loadbang;
#X obj 362 74 gemhead;
#X floatatom 518 186 5 0 0 0 - - -;
#X msg 375 117 texunit 4;
#X msg 174 230 rectangle 1;
#N canvas 851 62 589 635 shader3 1;
#X obj 94 500 glsl_program;
#X obj 94 340 glsl_fragment;
#X obj 94 160 glsl_vertex;
#X obj 172 400 pack 0 0;
#X obj 162 200 change;
#X obj 182 375 change;
#X msg 172 420 link \$1 \$2;
#X obj 162 220 t b f;
#X obj 176 444 print linking;
#X obj 94 66 inlet;
#X obj 94 530 outlet;
#X obj 464 245 inlet;
#X floatatom 182 179 0 0 0 0 - - -;
#X floatatom 234 377 0 0 0 0 - - -;
#X msg 56 472 print;
#X obj 246 86 change -1;
#X msg 246 65 1;
#X obj 246 106 t b;
#X obj 246 46 gemhead 1;
#X obj 175 524 change;
#X obj 175 548 t b;
#X obj 175 571 outlet;
#X msg 336 451 MyTex1 4;
#X msg 324 429 MyTex 3;
#X msg 291 160 open ../_shader/fetching.frag;
#X msg 246 135 open ../_shader/fetching.vert;
#X connect 0 0 10 0;
#X connect 0 1 19 0;
#X connect 1 0 0 0;
#X connect 1 1 5 0;
#X connect 1 1 13 0;
#X connect 2 0 1 0;
#X connect 2 1 4 0;
#X connect 2 1 12 0;
#X connect 3 0 6 0;
#X connect 4 0 7 0;
#X connect 5 0 3 0;
#X connect 6 0 0 0;
#X connect 6 0 8 0;
#X connect 7 0 3 0;
#X connect 7 1 3 1;
#X connect 9 0 2 0;
#X connect 11 0 0 0;
#X connect 14 0 0 0;
#X connect 15 0 17 0;
#X connect 16 0 15 0;
#X connect 17 0 25 0;
#X connect 17 0 24 0;
#X connect 18 0 16 0;
#X connect 19 0 20 0;
#X connect 20 0 21 0;
#X connect 20 0 23 0;
#X connect 20 0 22 0;
#X connect 22 0 0 0;
#X connect 23 0 0 0;
#X connect 24 0 1 0;
#X connect 25 0 2 0;
#X restore 602 134 pd shader3;
#X obj 602 79 gemhead;
#X obj 602 386 pix_texture;
#X obj 602 492 rotateXYZ;
#X floatatom 620 452 5 0 0 0 - - -;
#X obj 694 406 tgl 15 0 empty empty empty 17 7 0 10 -262144 -1 -1 0
1;
#X floatatom 636 464 5 0 0 0 - - -;
#X obj 694 430 metro 29;
#X obj 602 417 translateXYZ;
#X floatatom 671 364 5 0 0 0 - - -;
#X msg 632 288 quality \$1;
#X obj 632 269 tgl 15 0 empty empty empty 0 -6 0 8 -262144 -1 -1 0
1;
#X obj 632 228 tgl 15 0 empty empty empty 0 -6 0 8 -262144 -1 -1 0
1;
#X msg 632 247 rectangle \$1;
#X obj 633 186 tgl 15 0 empty empty empty 0 -6 0 8 -262144 -1 -1 0
1;
#X msg 633 207 repeat \$1;
#X msg 463 425 draw default;
#X obj 602 552 mesh_square 10;
#X msg 463 448 draw line;
#X msg 395 501 grid \$1;
#X floatatom 395 479 5 0 0 0 - - -;
#X floatatom 747 372 5 0 0 0 - - -;
#X obj 694 457 f;
#X obj 602 524 scaleXYZ 5 5 1;
#X obj 727 457 + 0.1;
#X floatatom 747 484 5 0 0 0 - - -;
#X floatatom 768 421 5 0 0 0 - - -;
#N canvas 20 100 362 426 mousemove 0;
#X obj 129 8 gemmouse;
#X obj 136 88 pack;
#X obj 136 110 spigot;
#X obj 136 131 unpack;
#X obj 136 196 t f f;
#X obj 36 16 gemkeyname;
#X obj 36 39 pack 0 s;
#X obj 36 62 route 1;
#X obj 36 84 route space;
#X msg 36 107 0;
#X msg 136 365 view \$2 \$3 \$1 0 0 0 0 1 0;
#X obj 136 173 +;
#X obj 136 221 * -1;
#X obj 201 237 t f f;
#X obj 201 174 +;
#X obj 201 262 * -1;
#X obj 36 129 t f f f;
#X obj 136 388 s view_mess;
#X text 61 106 reset;
#N canvas 292 198 304 356 coordinates 0;
#X obj 89 52 inlet;
#X obj 94 331 outlet;
#X obj 193 62 atan;
#X msg 193 41 1;
#X obj 193 84 / 45;
#X obj 193 20 loadbang;
#X text 94 29 r phi theta;
#X obj 89 78 unpack 0 0 0;
#X obj 128 123 *;
#X obj 168 123 *;
#X obj 120 197 cos;
#X obj 150 198 sin;
#X obj 120 166 t f f;
#X obj 183 198 cos;
#X obj 213 199 sin;
#X obj 183 167 t f f;
#X obj 120 230 *;
#X obj 150 231 *;
#X obj 85 275 *;
#X obj 125 275 *;
#X obj 174 277 *;
#X obj 66 242 t f f f;
#X obj 91 308 pack 0 0 0;
#X connect 0 0 7 0;
#X connect 2 0 4 0;
#X connect 3 0 2 0;
#X connect 4 0 9 1;
#X connect 4 0 8 1;
#X connect 5 0 3 0;
#X connect 7 0 21 0;
#X connect 7 1 8 0;
#X connect 7 2 9 0;
#X connect 8 0 12 0;
#X connect 9 0 15 0;
#X connect 10 0 16 0;
#X connect 11 0 17 0;
#X connect 12 0 10 0;
#X connect 12 1 11 0;
#X connect 13 0 16 1;
#X connect 13 0 17 1;
#X connect 14 0 20 1;
#X connect 15 0 13 0;
#X connect 15 1 14 0;
#X connect 16 0 18 1;
#X connect 17 0 19 1;
#X connect 18 0 22 0;
#X connect 19 0 22 1;
#X connect 20 0 22 2;
#X connect 21 0 18 0;
#X connect 21 1 19 0;
#X connect 21 2 20 0;
#X connect 22 0 1 0;
#X restore 136 310 pd coordinates;
#X obj 136 249 t b f;
#X obj 136 289 pack 4 0 0;
#X obj 177 46 t f f;
#X obj 177 67 -;
#X obj 136 45 t f f;
#X obj 136 66 -;
#X obj 278 57 s stay_cube;
#X obj 278 35 select 1;
#X obj 201 151 * 0.5;
#X obj 136 153 * 0.5;
#X obj 201 209 clip -90 90;
#X connect 0 0 24 0;
#X connect 0 1 22 0;
#X connect 0 2 2 1;
#X connect 0 4 27 0;
#X connect 1 0 2 0;
#X connect 2 0 3 0;
#X connect 3 0 29 0;
#X connect 3 1 28 0;
#X connect 4 0 12 0;
#X connect 4 1 11 1;
#X connect 5 0 6 0;
#X connect 5 1 6 1;
#X connect 6 0 7 0;
#X connect 7 0 8 0;
#X connect 8 0 9 0;
#X connect 9 0 16 0;
#X connect 10 0 17 0;
#X connect 11 0 4 0;
#X connect 12 0 20 0;
#X connect 13 0 15 0;
#X connect 13 1 14 1;
#X connect 14 0 30 0;
#X connect 15 0 21 2;
#X connect 16 0 11 0;
#X connect 16 1 11 1;
#X connect 16 1 14 0;
#X connect 16 2 14 1;
#X connect 19 0 10 0;
#X connect 20 0 21 0;
#X connect 20 1 21 1;
#X connect 21 0 19 0;
#X connect 22 0 23 1;
#X connect 22 1 23 0;
#X connect 23 0 1 1;
#X connect 24 0 25 1;
#X connect 24 1 25 0;
#X connect 25 0 1 0;
#X connect 27 0 26 0;
#X connect 28 0 14 0;
#X connect 29 0 11 0;
#X connect 30 0 13 0;
#X restore 718 44 pd mousemove;
#X floatatom 659 60 5 0 0 0 - - -;
#X msg 659 92 myMultiply \$1;
#X msg 659 6 loadbang;
#X msg 659 31 2;
#X msg 395 431 loadbang;
#X msg 395 456 120;
#X msg 448 389 draw point;
#X obj 160 185 pix_image ../_samples/terrain_tex.jpg;
#X obj 362 201 pix_image ../_samples/terrain_map.jpg;
#X obj 119 459 fresh/vid.window;
#X connect 0 0 59 0;
#X connect 1 0 2 0;
#X connect 2 0 0 0;
#X connect 2 1 9 0;
#X connect 3 0 4 0;
#X connect 5 0 23 0;
#X connect 6 0 3 0;
#X connect 7 0 10 0;
#X connect 8 0 2 0;
#X connect 10 0 2 0;
#X connect 11 0 60 0;
#X connect 12 0 13 0;
#X connect 13 0 11 0;
#X connect 13 1 21 0;
#X connect 13 1 26 1;
#X connect 14 0 15 0;
#X connect 16 0 17 0;
#X connect 17 0 18 0;
#X connect 18 0 14 0;
#X connect 19 0 22 0;
#X connect 20 0 13 0;
#X connect 22 0 13 0;
#X connect 23 0 6 0;
#X connect 24 0 26 0;
#X connect 25 0 24 0;
#X connect 26 0 32 0;
#X connect 27 0 47 0;
#X connect 28 0 27 1;
#X connect 29 0 31 0;
#X connect 30 0 27 2;
#X connect 31 0 46 0;
#X connect 32 0 27 0;
#X connect 33 0 32 3;
#X connect 34 0 26 0;
#X connect 35 0 34 0;
#X connect 36 0 37 0;
#X connect 37 0 26 0;
#X connect 38 0 39 0;
#X connect 39 0 26 0;
#X connect 40 0 41 0;
#X connect 42 0 41 0;
#X connect 43 0 41 0;
#X connect 44 0 43 0;
#X connect 45 0 31 1;
#X connect 46 0 27 3;
#X connect 46 0 48 0;
#X connect 47 0 41 0;
#X connect 48 0 46 1;
#X connect 49 0 47 1;
#X connect 49 0 47 2;
#X connect 50 0 48 1;
#X connect 52 0 53 0;
#X connect 53 0 24 1;
#X connect 54 0 55 0;
#X connect 55 0 52 0;
#X connect 56 0 57 0;
#X connect 57 0 44 0;
#X connect 58 0 41 0;
#X connect 59 0 6 0;
#X connect 60 0 18 0;
