#N canvas 725 177 376 262 10;
#X declare -lib moocow;
#X declare -lib list-abs;
#X declare -lib mrpeach;
#X obj 38 83 print got;
#X msg 27 21 get http://megrimm.net/lab/weather/syracuse/index.php
;
#X obj 27 54 fresh/net.httpget;
#X floatatom 27 221 5 0 0 0 - - -;
#X obj 27 107 symbol;
#X obj 27 129 s2l _;
#X floatatom 61 194 5 0 0 0 - - -;
#X obj 27 151 unpack f f s;
#X symbolatom 106 180 10 0 0 0 - - -;
#X connect 1 0 2 0;
#X connect 2 0 0 0;
#X connect 2 0 4 0;
#X connect 4 0 5 0;
#X connect 5 0 7 0;
#X connect 7 0 3 0;
#X connect 7 1 6 0;
#X connect 7 2 8 0;
