#N canvas 710 23 428 416 10;
#X obj 41 238 print got;
#X obj 30 209 fresh/net.httpget;
#X obj 30 281 list split 2;
#X obj 112 280 t l;
#X obj 30 303 list trim;
#X floatatom 30 347 5 0 0 0 - - -, f 5;
#X floatatom 80 346 5 0 0 0 - - -, f 5;
#X obj 30 324 route temp humid windspeed winddeg;
#X floatatom 130 347 5 0 0 0 - - -, f 5;
#X floatatom 180 346 5 0 0 0 - - -, f 5;
#X msg 30 14 get http://megrimm.net/lab/weather/test.php;
#X msg 42 34 get http://megrimm.net/lab/weather/amador.php;
#X msg 57 54 get http://megrimm.net/lab/weather/fresno.php;
#X msg 69 74 get http://megrimm.net/lab/weather/humboldt.php;
#X msg 81 97 get http://megrimm.net/lab/weather/lake.php;
#X msg 93 117 get http://megrimm.net/lab/weather/shasta.php;
#X msg 104 138 get http://megrimm.net/lab/weather/trinity.php;
#X connect 1 0 0 0;
#X connect 1 0 2 0;
#X connect 2 0 4 0;
#X connect 2 1 3 0;
#X connect 3 0 2 0;
#X connect 4 0 7 0;
#X connect 7 0 5 0;
#X connect 7 1 6 0;
#X connect 7 2 8 0;
#X connect 7 3 9 0;
#X connect 10 0 1 0;
#X connect 11 0 1 0;
#X connect 12 0 1 0;
#X connect 13 0 1 0;
#X connect 14 0 1 0;
#X connect 15 0 1 0;
#X connect 16 0 1 0;
