#N canvas 384 22 633 623 10;
#X obj 28 8 gemhead;
#X obj 28 387 translateXYZ;
#X obj 28 136 t a b;
#X obj 137 234 tabread posZ;
#X obj 188 341 tabwrite posZ;
#X obj 174 517 table posZ 10;
#X obj 28 420 rotateXYZ;
#X obj 137 311 t f f f f;
#X obj 305 223 loadbang;
#X obj 305 258 bng 15 250 50 0 empty empty empty 17 7 0 10 -262144
-1 -1;
#X obj 305 285 repeat 10;
#X obj 305 316 f 0;
#X obj 345 316 + 1;
#X obj 385 316 % 10;
#X obj 305 350 t f f;
#X obj 305 418 tabwrite posZ;
#X obj 305 384 / 10;
#X obj 28 349 separator;
#X obj 75 191 f 0;
#X obj 115 191 + 1;
#X obj 173 492 table r 10;
#X obj 421 226 loadbang;
#X obj 421 261 bng 15 250 50 0 empty empty empty 17 7 0 10 -262144
-1 -1;
#X obj 421 288 repeat 10;
#X obj 421 319 f 0;
#X obj 461 319 + 1;
#X obj 501 319 % 10;
#X obj 421 353 t b f;
#X obj 421 419 tabwrite r;
#X obj 421 384 randomF 1;
#X obj 40 293 tabread r;
#X obj 40 323 * 360;
#X obj 75 221 t f f f f;
#X obj 28 74 pix_texture;
#X obj 137 256 + 0.01;
#X obj 28 488 colorRGB 1 1 1 0.5;
#X obj 28 105 repeat 10;
#X obj 157 190 % 10;
#X obj 28 457 alpha;
#X obj 67 459 tgl 15 0 empty empty empty 17 7 0 10 -262144 -1 -1 1
1;
#X msg -33 389 auto 1;
#X obj 137 289 expr if($f1<1 \, $f1 \, 0);
#X obj 153 418 expr 1-(2*abs($f1-0.5));
#X obj 137 371 expr ($f1*8)-5;
#X obj 153 456 * 0.5;
#X obj -33 354 loadbang;
#X obj 28 519 square 8;
#X obj 28 40 pix_image a4.jpg;
#X obj 350 56 adc~;
#X obj 350 79 env~;
#X floatatom 350 120 5 0 0 0 - - -;
#X obj 350 151 expr ($f1-30)/60;
#X obj 234 62 sel 1;
#X obj 134 121 random 5;
#X msg 134 151 open a\$1.jpg;
#X obj 350 189 / 20;
#X obj 94 458 loadbang;
#X obj 234 36 change;
#X obj 234 89 spigot;
#X obj 234 113 t b b b;
#X obj 234 140 del 200;
#X msg 234 160 1;
#X msg 287 142 0;
#X obj 293 84 loadbang;
#X msg 293 109 1;
#X obj 234 8 > 90;
#X obj 321 505 fresh/vid.window;
#X connect 0 0 47 0;
#X connect 1 0 6 0;
#X connect 2 0 17 0;
#X connect 2 1 18 0;
#X connect 3 0 34 0;
#X connect 6 0 38 0;
#X connect 7 0 43 0;
#X connect 7 2 42 0;
#X connect 7 3 4 0;
#X connect 8 0 9 0;
#X connect 9 0 10 0;
#X connect 10 0 11 0;
#X connect 11 0 12 0;
#X connect 11 0 14 0;
#X connect 12 0 13 0;
#X connect 13 0 11 1;
#X connect 14 0 16 0;
#X connect 14 1 15 1;
#X connect 16 0 15 0;
#X connect 17 0 1 0;
#X connect 18 0 19 0;
#X connect 18 0 32 0;
#X connect 19 0 37 0;
#X connect 21 0 22 0;
#X connect 22 0 23 0;
#X connect 23 0 24 0;
#X connect 24 0 25 0;
#X connect 24 0 27 0;
#X connect 25 0 26 0;
#X connect 26 0 24 1;
#X connect 27 0 29 0;
#X connect 27 1 28 1;
#X connect 29 0 28 0;
#X connect 30 0 31 0;
#X connect 31 0 6 3;
#X connect 32 0 30 0;
#X connect 32 1 3 0;
#X connect 32 2 4 1;
#X connect 33 0 36 0;
#X connect 34 0 41 0;
#X connect 35 0 46 0;
#X connect 36 0 2 0;
#X connect 37 0 18 1;
#X connect 38 0 35 0;
#X connect 39 0 38 1;
#X connect 40 0 38 0;
#X connect 41 0 7 0;
#X connect 42 0 44 0;
#X connect 43 0 1 3;
#X connect 44 0 35 4;
#X connect 45 0 40 0;
#X connect 47 0 33 0;
#X connect 48 0 49 0;
#X connect 49 0 50 0;
#X connect 49 0 65 0;
#X connect 50 0 51 0;
#X connect 51 0 55 0;
#X connect 52 0 58 0;
#X connect 53 0 54 0;
#X connect 54 0 47 0;
#X connect 55 0 34 1;
#X connect 56 0 39 0;
#X connect 57 0 52 0;
#X connect 58 0 59 0;
#X connect 59 0 60 0;
#X connect 59 1 53 0;
#X connect 59 2 62 0;
#X connect 60 0 61 0;
#X connect 61 0 58 1;
#X connect 62 0 58 1;
#X connect 63 0 64 0;
#X connect 64 0 58 1;
#X connect 65 0 57 0;
