#N canvas 503 393 450 300 10;
#X obj 20 20 hradio 20 1 0 4 \$0.radio \$0.radio.r empty 0 -8 0 10
-225271 -225271 -262144 3;
#X text 22 22 15;
#X text 42 22 25;
#X text 82 22 60;
#X obj 100 20 nbx 3 20 0 200 0 0 \$0.number \$0.number.r empty 0 -8
0 14 -204786 -1 -1 50 256;
#X text 62 22 30;
#X obj 173 16 r \$0.radio;
#X obj 315 23 r \$0.number;
#X msg 315 127 set \$1;
#X obj 315 153 s \$0.number.r;
#X obj 173 43 sel 0 1 2 3;
#X msg 173 64 15;
#X msg 188 64 25;
#X msg 204 64 30;
#X msg 220 64 60;
#X obj 173 142 sel 15 25 30 60;
#X msg 173 164 0;
#X msg 194 164 1;
#X msg 216 164 2;
#X msg 238 164 3;
#X obj 173 255 s \$0.radio.r;
#X msg 231 232 color 6 \$1 0;
#X msg 231 211 13;
#X msg 260 212 6;
#X obj 173 110 t a a;
#X msg 173 225 set \$1;
#X obj 318 57 loadbang;
#X obj 318 79 \$1;
#X msg 55 140 1000 \$1;
#X obj 55 162 /;
#X obj 28 187 metro;
#X obj 28 100 inlet;
#X obj 28 220 outlet;
#X connect 6 0 10 0;
#X connect 7 0 24 0;
#X connect 8 0 9 0;
#X connect 10 0 11 0;
#X connect 10 1 12 0;
#X connect 10 2 13 0;
#X connect 10 3 14 0;
#X connect 11 0 24 0;
#X connect 12 0 24 0;
#X connect 13 0 24 0;
#X connect 14 0 24 0;
#X connect 15 0 16 0;
#X connect 15 0 22 0;
#X connect 15 1 17 0;
#X connect 15 1 22 0;
#X connect 15 2 18 0;
#X connect 15 2 22 0;
#X connect 15 3 19 0;
#X connect 15 3 22 0;
#X connect 15 4 23 0;
#X connect 16 0 25 0;
#X connect 17 0 25 0;
#X connect 18 0 25 0;
#X connect 19 0 25 0;
#X connect 21 0 20 0;
#X connect 22 0 21 0;
#X connect 23 0 21 0;
#X connect 24 0 8 0;
#X connect 24 0 15 0;
#X connect 24 0 28 0;
#X connect 25 0 20 0;
#X connect 26 0 27 0;
#X connect 27 0 24 0;
#X connect 28 0 29 0;
#X connect 29 0 30 1;
#X connect 30 0 32 0;
#X connect 31 0 30 0;
#X coords 0 -1 1 1 130 20 2 20 20;
