#N canvas 476 91 788 508 10;
#X obj 17 61 inlet~;
#X obj 85 61 inlet~;
#X obj 166 60 inlet~;
#X obj 244 60 inlet~;
#X obj 330 61 inlet~;
#X obj 417 61 inlet~;
#X obj 486 62 inlet~;
#X obj 574 62 inlet~;
#X text 22 423 http://www.blueripplesound.com/decoding;
#X obj 21 371 outlet~;
#X obj 118 370 outlet~;
#X obj 232 370 outlet~;
#X obj 334 370 outlet~;
#X obj 424 372 outlet~;
#X obj 507 370 outlet~;
#X obj 582 369 outlet~;
#X obj 665 368 outlet~;
#X text 25 29 W X Y (Z);
#X text 92 29 U V P Q;
#X obj 17 94 *~ 0.1768;
#X obj 106 91 *~ 0.1732;
#X obj 82 112 *~ 0.0718;
#X obj 80 144 *~ -0.0718;
#X obj 93 167 *~ -0.1732;
#X text 240 84 ^ ignore (z);
#X text 197 24 3rd order - octagon (no height);
#X obj 178 85 *~ 0.0718;
#X obj 189 111 *~ 0.1732;
#X obj 187 134 *~ -0.0718;
#X obj 191 159 *~ -0.1732;
#X obj 331 96 *~ 0.053;
#X obj 334 122 *~ -0.053;
#X text 24 436 3rd order - anti-clockwise;
#X text 350 427 The speakers here are assumed to be set out anticlockwise
\, with the first speaker roughly at 11 o'clock and the last one roughly
at 1 o'clock. This is an "in-phase" decoder.;
#X obj 420 82 *~ 0.053;
#X obj 420 106 *~ -0.053;
#X obj 491 91 *~ 0.0048;
#X obj 472 115 *~ -0.0115;
#X obj 478 138 *~ -0.0048;
#X obj 493 161 *~ 0.0115;
#X obj 596 157 *~ 0.0048;
#X obj 603 130 *~ -0.0115;
#X obj 623 105 *~ -0.0048;
#X obj 644 79 *~ 0.0115;
#X text 688 391 FR;
#X text 22 395 FL (NNW);
#X text 334 392 RL (SSW);
#X text 424 394 RR (SSE);
#X obj 178 187 *~ 0.0718;
#X connect 0 0 19 0;
#X connect 1 0 20 0;
#X connect 1 0 21 0;
#X connect 1 0 22 0;
#X connect 1 0 23 0;
#X connect 2 0 26 0;
#X connect 2 0 27 0;
#X connect 2 0 28 0;
#X connect 2 0 29 0;
#X connect 2 0 48 0;
#X connect 4 0 30 0;
#X connect 4 0 31 0;
#X connect 5 0 34 0;
#X connect 5 0 35 0;
#X connect 6 0 36 0;
#X connect 6 0 37 0;
#X connect 6 0 38 0;
#X connect 6 0 39 0;
#X connect 7 0 40 0;
#X connect 7 0 41 0;
#X connect 7 0 42 0;
#X connect 7 0 43 0;
#X connect 19 0 9 0;
#X connect 19 0 10 0;
#X connect 19 0 11 0;
#X connect 19 0 12 0;
#X connect 19 0 13 0;
#X connect 19 0 14 0;
#X connect 19 0 15 0;
#X connect 19 0 16 0;
#X connect 20 0 9 0;
#X connect 20 0 16 0;
#X connect 21 0 10 0;
#X connect 21 0 15 0;
#X connect 22 0 11 0;
#X connect 22 0 14 0;
#X connect 23 0 13 0;
#X connect 23 0 12 0;
#X connect 26 0 9 0;
#X connect 26 0 12 0;
#X connect 27 0 10 0;
#X connect 27 0 11 0;
#X connect 28 0 13 0;
#X connect 28 0 16 0;
#X connect 29 0 14 0;
#X connect 29 0 15 0;
#X connect 30 0 9 0;
#X connect 30 0 12 0;
#X connect 30 0 13 0;
#X connect 30 0 16 0;
#X connect 31 0 10 0;
#X connect 31 0 11 0;
#X connect 31 0 14 0;
#X connect 31 0 15 0;
#X connect 34 0 9 0;
#X connect 34 0 10 0;
#X connect 34 0 13 0;
#X connect 34 0 14 0;
#X connect 35 0 11 0;
#X connect 35 0 12 0;
#X connect 35 0 15 0;
#X connect 35 0 16 0;
#X connect 36 0 9 0;
#X connect 36 0 11 0;
#X connect 37 0 10 0;
#X connect 37 0 12 0;
#X connect 38 0 13 0;
#X connect 38 0 15 0;
#X connect 39 0 14 0;
#X connect 39 0 16 0;
#X connect 40 0 12 0;
#X connect 40 0 14 0;
#X connect 41 0 11 0;
#X connect 41 0 13 0;
#X connect 42 0 10 0;
#X connect 42 0 16 0;
#X connect 43 0 9 0;
#X connect 43 0 15 0;
#X connect 48 0 12 0;
