#N canvas 579 141 686 444 10;
#X obj 237 162 * 180;
#X obj 181 145 cartopol;
#X obj 181 97 t b f;
#X floatatom 237 267 5 0 0 0 - - -;
#X obj 181 63 inlet;
#X obj 181 80 unpack 0 0;
#X obj 237 205 moses 1;
#X obj 237 185 / 3.14159;
#X obj 104 162 / 1.41421;
#X obj 504 204 outlet;
#X obj 237 230 + 360;
#X text 281 230 < deals with negative values;
#X obj 504 162 + 3.1415;
#X floatatom 504 184 5 0 0 0 - - -;
#X obj 307 350 outlet~;
#X obj 307 328 expr~ $v1 * (2 * 3.14159);
#X obj 307 283 /~ 360;
#X obj 104 295 outlet~;
#X obj 104 267 vline~;
#X text 553 205 radians;
#X msg 104 244 \$1 15;
#X obj 181 123 f;
#X text 234 300 16384 16384;
#X obj 104 182 reverse;
#X obj 307 301 rampsmooth~ 16384 16384;
#X text 546 399 rg '15;
#X floatatom 158 199 5 0 0 0 - - -;
#X msg 31 271 0;
#X obj -31 288 spigot;
#X msg 58 271 1;
#X obj 31 246 sel 1;
#X obj -31 207 spigot;
#X obj 2 158 >= 0;
#X obj -31 141 line;
#X msg -31 121 \$1 50;
#X obj 31 325 line;
#X msg 31 305 \$1 150;
#X obj -31 99 average 10;
#X floatatom 31 346 5 0 0 0 - - -;
#X obj 31 224 < 0;
#X floatatom 181 168 5 0 0 0 - - -;
#X connect 0 0 7 0;
#X connect 1 0 8 0;
#X connect 1 0 40 0;
#X connect 1 1 0 0;
#X connect 1 1 12 0;
#X connect 2 0 21 0;
#X connect 2 1 1 1;
#X connect 3 0 16 0;
#X connect 4 0 5 0;
#X connect 5 0 2 0;
#X connect 5 1 21 1;
#X connect 6 0 10 0;
#X connect 6 1 3 0;
#X connect 7 0 6 0;
#X connect 8 0 23 0;
#X connect 10 0 3 0;
#X connect 12 0 13 0;
#X connect 13 0 9 0;
#X connect 15 0 14 0;
#X connect 16 0 24 0;
#X connect 18 0 17 0;
#X connect 20 0 18 0;
#X connect 21 0 1 0;
#X connect 23 0 26 0;
#X connect 23 0 37 0;
#X connect 24 0 15 0;
#X connect 27 0 28 1;
#X connect 27 0 36 0;
#X connect 28 0 36 0;
#X connect 29 0 28 1;
#X connect 30 0 27 0;
#X connect 30 1 29 0;
#X connect 31 0 28 0;
#X connect 31 0 39 0;
#X connect 32 0 31 1;
#X connect 33 0 31 0;
#X connect 33 0 32 0;
#X connect 34 0 33 0;
#X connect 35 0 38 0;
#X connect 36 0 35 0;
#X connect 37 0 34 0;
#X connect 38 0 20 0;
#X connect 39 0 30 0;
