#N canvas 805 23 788 508 10;
#X obj 17 61 inlet~;
#X obj 85 61 inlet~;
#X obj 166 60 inlet~;
#X obj 318 65 inlet~;
#X obj 389 66 inlet~;
#X obj 123 426 outlet~;
#X obj 220 425 outlet~;
#X obj 334 425 outlet~;
#X obj 436 425 outlet~;
#X obj 526 427 outlet~;
#X obj 609 425 outlet~;
#X text 124 450 FL (NNW);
#X obj 17 167 *~ 0.2357;
#X text 217 447 Left;
#X text 527 449 Right;
#X text 609 446 FR;
#X text 333 449 BL;
#X text 436 447 RR;
#X obj 101 117 *~ 0;
#X obj 86 86 *~ 0.1987;
#X obj 85 149 *~ -0.1987;
#X obj 167 94 *~ 0.1147;
#X obj 181 123 *~ 0.2294;
#X obj 181 149 *~ -0.1147;
#X obj 176 177 *~ -0.2294;
#X obj 278 97 *~ 0.0321;
#X obj 315 126 *~ -0.0643;
#X obj 404 128 *~ 0;
#X obj 414 95 *~ 0.0556;
#X obj 445 130 *~ -0.0556;
#X text 197 23 hex~ - W X Y (ignore z channel from encoder) U V;
#X text 14 35 W;
#X text 83 40 X;
#X text 169 43 Y;
#X text 316 47 U;
#X text 392 44 V;
#X connect 0 0 12 0;
#X connect 1 0 19 0;
#X connect 1 0 18 0;
#X connect 1 0 20 0;
#X connect 2 0 21 0;
#X connect 2 0 22 0;
#X connect 2 0 23 0;
#X connect 2 0 24 0;
#X connect 3 0 25 0;
#X connect 3 0 26 0;
#X connect 4 0 27 0;
#X connect 4 0 28 0;
#X connect 4 0 29 0;
#X connect 12 0 5 0;
#X connect 12 0 6 0;
#X connect 12 0 7 0;
#X connect 12 0 8 0;
#X connect 12 0 9 0;
#X connect 12 0 10 0;
#X connect 18 0 6 0;
#X connect 18 0 9 0;
#X connect 19 0 5 0;
#X connect 19 0 10 0;
#X connect 20 0 7 0;
#X connect 20 0 8 0;
#X connect 21 0 5 0;
#X connect 21 0 7 0;
#X connect 22 0 6 0;
#X connect 23 0 8 0;
#X connect 23 0 10 0;
#X connect 24 0 9 0;
#X connect 25 0 5 0;
#X connect 25 0 7 0;
#X connect 25 0 8 0;
#X connect 25 0 10 0;
#X connect 26 0 6 0;
#X connect 26 0 9 0;
#X connect 27 0 6 0;
#X connect 27 0 9 0;
#X connect 28 0 5 0;
#X connect 28 0 8 0;
#X connect 29 0 7 0;
#X connect 29 0 10 0;
