#N canvas 447 298 975 515 10;
#X text 33 486 http://www.york.ac.uk/inst/mustech/3d_audio/ambis2.htm
;
#X obj 31 99 inlet~;
#X obj 150 99 inlet~;
#X obj 284 99 inlet~;
#X obj 434 99 inlet~;
#X obj 31 440 outlet~;
#X obj 150 438 outlet~;
#X obj 284 435 outlet~;
#X obj 434 433 outlet~;
#X obj 584 99 inlet~;
#X text 73 98 w;
#X text 194 98 x;
#X text 331 97 y;
#X text 481 98 z;
#X text 630 99 < angle of elevation (B \; not A: angle of rotation)
;
#X obj 150 207 expr~ $v1 * cos($v2) - $v3 * sin($v2);
#X obj 434 268 expr~ $v1 * sin($v2) + $v3 * cos($v2);
#X text 509 341 TUMBLE \; x' = x * cos B - z * sin B \; w' = w \; y'
= y \; z' = x * sin B + z * cos B \;;
#X text 910 485 rg '15;
#X text 509 417 This is the same as 'tilt' rotated 90 degrees about
the z-axis.;
#X text 29 49 Rotation about the y-axis! (anti-clockwise movement in
the vertical front-back plane).;
#X connect 1 0 5 0;
#X connect 2 0 15 0;
#X connect 2 0 16 0;
#X connect 3 0 7 0;
#X connect 4 0 15 2;
#X connect 4 0 16 2;
#X connect 9 0 15 1;
#X connect 9 0 16 1;
#X connect 15 0 6 0;
#X connect 16 0 8 0;
