#N canvas 0 22 685 271 10;
#X obj 99 54 inlet~;
#X obj 160 55 inlet~;
#X obj 219 54 inlet~;
#X obj 280 55 inlet~;
#X obj 166 127 outlet~;
#X obj 225 127 outlet~;
#X text 98 30 W;
#X text 161 30 X;
#X text 221 30 Y;
#X text 282 33 Z;
#X text 95 164 Pn = w + X cos Theta n + Y sin Theta n;
#X text 93 182 Theta n = direction of loudspeaker under consideration
;
#X text 93 203 http://www.blueripplesound.com/decoding;
#X obj 226 110 *~ 0.7071;
#X obj 99 110 *~ 0.7071;
#X obj 166 111 *~ 0.5;
#X obj 288 110 *~ -0.5;
#X text 353 108 Stereo Decoder;
#X text 474 70 0 & 0.5 = North;
#X text 474 88 0.1 - 0.3 = Left Front;
#X text 474 107 0.6 - 0.8 = Right Front;
#X connect 0 0 14 0;
#X connect 0 0 13 0;
#X connect 2 0 15 0;
#X connect 2 0 16 0;
#X connect 13 0 5 0;
#X connect 14 0 4 0;
#X connect 15 0 4 0;
#X connect 16 0 5 0;
