#N canvas 447 298 953 508 10;
#X text 33 486 http://www.york.ac.uk/inst/mustech/3d_audio/ambis2.htm
;
#X obj 31 99 inlet~;
#X obj 150 99 inlet~;
#X obj 284 99 inlet~;
#X obj 434 99 inlet~;
#X obj 31 440 outlet~;
#X obj 150 438 outlet~;
#X obj 284 435 outlet~;
#X obj 434 433 outlet~;
#X obj 584 99 inlet~;
#X text 73 98 w;
#X text 194 98 x;
#X text 331 97 y;
#X text 481 98 z;
#X obj 284 207 expr~ $v1 * cos($v2) - $v3 * sin($v2);
#X obj 434 268 expr~ $v1 * sin($v2) + $v3 * cos($v2);
#X text 770 221 TILT \; x' = x \; w' = w \; y' = y * cos B - z * sin
B \; z' = y * sin B + z * cos B;
#X text 630 99 < angle of elevation (B \; not A: angle of rotation)
;
#X text 30 24 Rotation about the x-axis! (anti-clockwise movement in
the vertical left-right plane).;
#X text 758 474 rg '15;
#X connect 1 0 5 0;
#X connect 2 0 6 0;
#X connect 3 0 14 0;
#X connect 3 0 15 0;
#X connect 4 0 14 2;
#X connect 4 0 15 2;
#X connect 9 0 14 1;
#X connect 9 0 15 1;
#X connect 14 0 7 0;
#X connect 15 0 8 0;
