#N canvas -51 26 1239 515 10;
#X obj 113 260 outlet~;
#X obj 113 -9 inlet~;
#X obj 188 277 outlet~;
#X obj 270 290 outlet~;
#X obj 357 306 outlet~;
#X obj 188 250 *~;
#X obj 270 263 *~;
#X obj 357 282 *~;
#X obj 388 -11 inlet;
#X obj 388 29 vline~;
#X text 428 -11 < elevation;
#X obj 113 233 *~ 0.707;
#X obj 285 110 expr~ sin($v1) * cos($v2);
#X obj 241 67 expr~ cos($v1) * cos($v2);
#X obj 559 46 expr~ sin($v1);
#X text 448 108 Left-Right (Y);
#X text 423 66 Front-Back (X);
#X text 23 233 Even distro >;
#X msg 388 9 \$1 5;
#X obj 488 319 outlet~;
#X obj 570 332 outlet~;
#X obj 488 292 *~;
#X obj 570 305 *~;
#X text 590 71 Z;
#X text 523 292 R;
#X text 598 305 S;
#X obj 648 331 outlet~;
#X obj 730 344 outlet~;
#X obj 648 304 *~;
#X obj 730 317 *~;
#X text 683 304 T;
#X text 758 317 U;
#X obj 607 101 expr~ 0.5 * (3 *sin($v1)) * (sin($v1) - 1);
#X obj 762 158 expr~ cos($v1) * sin(2 * $v2);
#X obj 871 208 expr~ cos($v1) * sin(2 * $v2);
#X obj 858 283 expr~ cos(2 * $v1) * cos($v2) * cos($v2);
#X text 732 46 2nd order;
#X obj 851 397 outlet~;
#X obj 851 370 *~;
#X text 879 370 V;
#X obj 875 344 expr~ sin(2 * $v1) * cos($v2) * cos($v2);
#X obj 241 9 inlet~;
#X connect 1 0 11 0;
#X connect 1 0 5 0;
#X connect 1 0 6 0;
#X connect 1 0 7 0;
#X connect 1 0 21 0;
#X connect 1 0 28 0;
#X connect 1 0 22 0;
#X connect 1 0 29 0;
#X connect 1 0 38 0;
#X connect 5 0 2 0;
#X connect 6 0 3 0;
#X connect 7 0 4 0;
#X connect 8 0 18 0;
#X connect 9 0 13 1;
#X connect 9 0 12 1;
#X connect 9 0 14 0;
#X connect 9 0 32 0;
#X connect 9 0 33 1;
#X connect 9 0 34 1;
#X connect 9 0 35 1;
#X connect 9 0 40 1;
#X connect 11 0 0 0;
#X connect 12 0 6 1;
#X connect 13 0 5 1;
#X connect 14 0 7 1;
#X connect 18 0 9 0;
#X connect 21 0 19 0;
#X connect 22 0 20 0;
#X connect 28 0 26 0;
#X connect 29 0 27 0;
#X connect 32 0 21 1;
#X connect 33 0 22 1;
#X connect 34 0 28 1;
#X connect 35 0 29 1;
#X connect 38 0 37 0;
#X connect 40 0 38 1;
#X connect 41 0 13 0;
#X connect 41 0 12 0;
#X connect 41 0 33 0;
#X connect 41 0 34 0;
#X connect 41 0 35 0;
#X connect 41 0 40 0;
