#N canvas 359 45 752 769 10;
#X obj 34 726 dac~ 1 2 3 4 5 6 7 8;
#X text 559 742 http://rickygraham.com (2015);
#X text 158 137 inlets;
#X text 160 148 mono input \, audio-rate angle \, message-rate elevation
;
#X text 143 138 <;
#X text 240 109 <;
#X text 32 20 rg.ambi~ - basic ambisonics panners and decoders based
on "FuMa";
#X obj 77 113 expr~ $v1 * (2 * 3.14159);
#X obj 77 93 sig~;
#X obj 80 74 hsl 128 15 0 1 0 0 empty empty empty -2 -8 0 10 -262144
-1 -1 0 1;
#X text 257 106 the angle (radians) is measured anticlockwise and elevation
upwards;
#X obj 77 294 expr~ $v1 * (2 * 3.14159);
#X obj 77 274 sig~;
#X obj 80 255 hsl 128 15 0 1 0 0 empty empty empty -2 -8 0 10 -262144
-1 -1 6000 1;
#X text 161 73 0 - 360;
#X text 171 525 http://www.blueripplesound.com/decoding;
#X text 148 317 http://www.blueripplesound.com/b-format;
#X obj 91 474 expr~ $v1 * (2 * 3.14159);
#X obj 91 454 sig~;
#X obj 94 435 hsl 128 15 0 1 0 0 empty empty empty -2 -8 0 10 -262144
-1 -1 0 1;
#X obj 92 647 expr~ $v1 * (2 * 3.14159);
#X obj 92 627 sig~;
#X obj 95 608 hsl 128 15 0 1 0 0 empty empty empty -2 -8 0 10 -262144
-1 -1 0 1;
#X text 171 509 FL \, C \, FR \, BR \, BL;
#X text 161 348 FL FR BR BL;
#X text 167 695 FL at 11 o'clock \; FR at 1 o'clock;
#X text 157 169 This is a simple decode equivalent to a M+S microphone
array at the listening point. This works better than a front-facing
arrangement for many (but not all) purposes.;
#X obj 31 202 dac~ 1 2;
#X obj 31 380 dac~ 1 2 3 4;
#X obj 33 563 dac~ 1 2 3 4 5;
#X text 520 607 Soundfield Manipulations (B-Format);
#X obj 31 51 cyclone/pink~;
#X obj 31 232 cyclone/pink~;
#X obj 33 412 cyclone/pink~;
#X obj 34 587 cyclone/pink~;
#X obj 31 140 amb.enc-1o~ *;
#X obj 31 171 amb.dec-2~ *;
#X obj 31 316 amb.enc-1o~ *;
#X obj 31 348 amb.dec-4~ ***;
#X obj 33 494 amb.enc-2o~ *****;
#X obj 33 528 amb.dec-5~ ****;
#X obj 34 669 amb.enc-3o~ *****;
#X obj 34 695 amb.dec-8~ ****;
#X obj 632 637 amb.tilt~;
#X obj 632 665 amb.rotilt~;
#X obj 633 691 amb.tumble~;
#X obj 634 717 amb.rotate~;
#X connect 7 0 35 1;
#X connect 8 0 7 0;
#X connect 9 0 8 0;
#X connect 11 0 37 1;
#X connect 12 0 11 0;
#X connect 13 0 12 0;
#X connect 17 0 39 1;
#X connect 18 0 17 0;
#X connect 19 0 18 0;
#X connect 20 0 41 1;
#X connect 21 0 20 0;
#X connect 22 0 21 0;
#X connect 31 0 35 0;
#X connect 32 0 37 0;
#X connect 33 0 39 0;
#X connect 34 0 41 0;
#X connect 35 0 36 0;
#X connect 35 1 36 1;
#X connect 35 2 36 2;
#X connect 35 3 36 3;
#X connect 36 0 27 0;
#X connect 36 1 27 1;
#X connect 37 0 38 0;
#X connect 37 1 38 1;
#X connect 37 2 38 2;
#X connect 37 3 38 3;
#X connect 38 0 28 0;
#X connect 38 1 28 1;
#X connect 38 2 28 2;
#X connect 38 3 28 3;
#X connect 39 0 40 0;
#X connect 39 1 40 1;
#X connect 39 2 40 2;
#X connect 39 3 40 3;
#X connect 39 4 40 4;
#X connect 39 5 40 5;
#X connect 39 6 40 6;
#X connect 39 7 40 7;
#X connect 39 8 40 8;
#X connect 40 0 29 0;
#X connect 40 1 29 1;
#X connect 40 2 29 2;
#X connect 40 3 29 3;
#X connect 40 4 29 4;
#X connect 41 0 42 0;
#X connect 41 1 42 1;
#X connect 41 2 42 2;
#X connect 41 3 42 3;
#X connect 41 4 42 4;
#X connect 41 5 42 5;
#X connect 41 6 42 6;
#X connect 41 7 42 7;
#X connect 42 0 0 0;
#X connect 42 1 0 1;
#X connect 42 2 0 2;
#X connect 42 3 0 3;
#X connect 42 4 0 4;
#X connect 42 5 0 5;
#X connect 42 6 0 6;
#X connect 42 7 0 7;
