#N canvas 0 23 1198 522 10;
#X text 91 448 http://www.blueripplesound.com/b-format;
#X obj 113 260 outlet~;
#X obj 113 -9 inlet~;
#X obj 188 277 outlet~;
#X obj 270 290 outlet~;
#X obj 357 306 outlet~;
#X obj 188 250 *~;
#X obj 270 263 *~;
#X obj 357 282 *~;
#X obj 388 -11 inlet;
#X obj 388 29 vline~;
#X text 428 -11 < elevation;
#X obj 113 233 *~ 0.707;
#X obj 285 110 expr~ sin($v1) * cos($v2);
#X obj 241 67 expr~ cos($v1) * cos($v2);
#X obj 559 46 expr~ sin($v1);
#X text 448 108 Left-Right (Y);
#X text 423 66 Front-Back (X);
#X text 23 233 Even distro >;
#X msg 388 9 \$1 5;
#X obj 488 319 outlet~;
#X obj 570 332 outlet~;
#X obj 488 292 *~;
#X obj 570 305 *~;
#X obj 648 331 outlet~;
#X obj 730 344 outlet~;
#X obj 648 304 *~;
#X obj 730 317 *~;
#X text 590 71 Z;
#X text 99 375 W X Y (Z) U V P Q;
#X text 92 425 3rd order (mixed order - 1st order height);
#X text 804 144 U;
#X text 601 302 V;
#X text 683 304 P;
#X text 758 317 Q;
#X obj 545 148 expr~ cos(2 * $v1) * cos($v2) * cos($v2);
#X obj 613 222 expr~ sin(2 * $v1) * cos($v2) * cos($v2);
#X obj 661 260 expr~ cos(3 * $v1) * cos($v2) * cos($v2) * cos($v2)
;
#X obj 754 291 expr~ sin(3 * $v1) * cos($v2) * cos($v2) * cos($v2)
;
#X text 669 445 The speakers here are assumed to be set out anticlockwise
\, with the first speaker roughly at 11 o'clock and the last one roughly
at 1 o'clock. This is an "in-phase" decoder.;
#X text 352 332 ^ ignore;
#X obj 242 15 inlet~;
#X connect 2 0 12 0;
#X connect 2 0 6 0;
#X connect 2 0 7 0;
#X connect 2 0 8 0;
#X connect 2 0 22 0;
#X connect 2 0 26 0;
#X connect 2 0 23 0;
#X connect 2 0 27 0;
#X connect 6 0 3 0;
#X connect 7 0 4 0;
#X connect 8 0 5 0;
#X connect 9 0 19 0;
#X connect 10 0 14 1;
#X connect 10 0 13 1;
#X connect 10 0 15 0;
#X connect 10 0 35 0;
#X connect 10 0 35 1;
#X connect 10 0 36 1;
#X connect 10 0 37 1;
#X connect 10 0 38 1;
#X connect 12 0 1 0;
#X connect 13 0 7 1;
#X connect 14 0 6 1;
#X connect 15 0 8 1;
#X connect 19 0 10 0;
#X connect 22 0 20 0;
#X connect 23 0 21 0;
#X connect 26 0 24 0;
#X connect 27 0 25 0;
#X connect 35 0 22 1;
#X connect 36 0 23 1;
#X connect 37 0 26 1;
#X connect 38 0 27 1;
#X connect 41 0 14 0;
#X connect 41 0 13 0;
#X connect 41 0 36 0;
#X connect 41 0 37 0;
#X connect 41 0 38 0;
