#N canvas 361 245 1064 516 10;
#X text 23 476 http://www.york.ac.uk/inst/mustech/3d_audio/ambis2.htm
;
#X obj 21 89 inlet~;
#X obj 140 89 inlet~;
#X obj 274 89 inlet~;
#X obj 424 89 inlet~;
#X obj 21 430 outlet~;
#X obj 140 428 outlet~;
#X obj 274 425 outlet~;
#X obj 424 423 outlet~;
#X obj 574 89 inlet~;
#X text 63 88 w;
#X text 184 88 x;
#X text 321 87 y;
#X text 471 88 z;
#X text 624 89 A = positive angle of rotation;
#X text 978 474 rg ' 15;
#X text 20 41 Rotation about the z-axis! (anti-clockwise movement in
the horizontal plane).;
#X text 563 384 ROTATE-TILT \; x' = x * cos A - y * sin A \; w' = w
\; y' = x * sin A * cos B + y * cos A * cos B - z * sin B \; z' = x
* sin A * sin B + y * cos A * sin B + z * cos B;
#X obj 823 88 inlet~;
#X text 873 88 B = positive angle of elevation;
#X obj 140 206 expr~ $v1 * cos($v2) - $v3 * sin($v2);
#X obj 274 245 expr~ $v1 * sin($v2) * cos($v3) + $v4 * cos($v2) * cos($v3)
- $v5 * sin($v3);
#X obj 424 332 expr~ $v1 * sin($v2) * sin($v3) + $v4 * cos($v2) * sin($v3)
+ $v5 * cos($v3);
#X connect 1 0 5 0;
#X connect 2 0 20 0;
#X connect 2 0 21 0;
#X connect 2 0 22 0;
#X connect 3 0 20 2;
#X connect 3 0 21 3;
#X connect 3 0 22 3;
#X connect 4 0 21 4;
#X connect 4 0 22 4;
#X connect 9 0 20 1;
#X connect 9 0 21 1;
#X connect 9 0 22 1;
#X connect 18 0 21 2;
#X connect 18 0 22 2;
#X connect 20 0 6 0;
#X connect 21 0 7 0;
#X connect 22 0 8 0;
