#N canvas 0 22 570 427 10;
#X obj 17 61 inlet~;
#X obj 83 61 inlet~;
#X obj 245 61 inlet~;
#X obj 295 61 inlet~;
#X obj 345 62 inlet~;
#X obj 395 62 inlet~;
#X obj 455 61 inlet~;
#X obj 29 87 *~ 0.405;
#X obj 17 132 *~ 0.635;
#X obj 100 83 *~ 0.32;
#X obj 94 104 *~ 0.04;
#X obj 86 128 *~ -0.335;
#X text 25 29 W X Y Z;
#X text 87 30 R S T U V;
#X obj 160 89 *~ 0.31;
#X obj 202 108 *~ -0.31;
#X obj 159 131 *~ 0;
#X obj 204 139 *~ 0.28;
#X obj 160 168 *~ -0.28;
#X obj 395 84 *~ 0.085;
#X obj 395 106 *~ 0.045;
#X obj 395 129 *~ -0.08;
#X obj 463 177 *~ -0.08;
#X obj 471 149 *~ 0.08;
#X obj 475 81 *~ 0.125;
#X obj 465 104 *~ -0.125;
#X obj 465 126 *~ 0;
#X text 254 24 2nd order - 5;
#X text 22 383 http://www.blueripplesound.com/decoding;
#X obj 18 331 outlet~;
#X obj 78 330 outlet~;
#X obj 138 330 outlet~;
#X obj 198 329 outlet~;
#X obj 258 328 outlet~;
#X text 20 355 FL;
#X text 79 353 C;
#X text 137 352 FR;
#X text 197 353 BR;
#X text 257 351 BL;
#X text 21 396 second order - anti-clockwise;
#X obj 21 108 *~ 0.085;
#X obj 146 60 inlet~;
#X obj 196 60 inlet~;
#X connect 0 0 7 0;
#X connect 0 0 8 0;
#X connect 0 0 40 0;
#X connect 1 0 9 0;
#X connect 1 0 10 0;
#X connect 1 0 11 0;
#X connect 5 0 19 0;
#X connect 5 0 20 0;
#X connect 5 0 21 0;
#X connect 6 0 24 0;
#X connect 6 0 25 0;
#X connect 6 0 26 0;
#X connect 6 0 23 0;
#X connect 6 0 22 0;
#X connect 7 0 29 0;
#X connect 7 0 31 0;
#X connect 8 0 33 0;
#X connect 8 0 32 0;
#X connect 9 0 29 0;
#X connect 9 0 31 0;
#X connect 10 0 30 0;
#X connect 11 0 33 0;
#X connect 11 0 32 0;
#X connect 14 0 29 0;
#X connect 15 0 31 0;
#X connect 16 0 30 0;
#X connect 17 0 33 0;
#X connect 18 0 32 0;
#X connect 19 0 29 0;
#X connect 19 0 31 0;
#X connect 20 0 30 0;
#X connect 21 0 33 0;
#X connect 21 0 32 0;
#X connect 22 0 32 0;
#X connect 23 0 33 0;
#X connect 24 0 29 0;
#X connect 25 0 31 0;
#X connect 26 0 30 0;
#X connect 40 0 30 0;
#X connect 41 0 14 0;
#X connect 41 0 15 0;
#X connect 41 0 16 0;
#X connect 41 0 17 0;
#X connect 41 0 18 0;
