#N canvas 0 22 758 479 10;
#X obj 89 44 inlet~;
#X obj 150 45 inlet~;
#X obj 209 44 inlet~;
#X obj 270 45 inlet~;
#X text 88 20 W;
#X text 151 20 X;
#X text 211 20 Y;
#X text 272 23 Z;
#X text 88 390 Pn = w + X cos Theta n + Y sin Theta n;
#X text 86 408 Theta n = direction of loudspeaker under consideration
;
#X obj 34 195 *~ 0.3536;
#X obj 114 196 *~ 0.1768;
#X obj 185 196 *~ -0.1768;
#X obj 278 196 *~ 0.1768;
#X obj 361 195 *~ -0.1768;
#X text 87 441 http://www.blueripplesound.com/decoding;
#X text 358 79 Using Wiggins' Coefficients: 'in-phase';
#X obj 89 319 outlet~;
#X obj 150 320 outlet~;
#X obj 215 319 outlet~;
#X obj 276 320 outlet~;
#X obj 276 297 *~ 1;
#X obj 215 298 *~ 1;
#X obj 150 297 *~ 1;
#X obj 89 298 *~ 1;
#X text 87 341 FL;
#X text 149 342 FR;
#X text 219 340 BR;
#X text 276 340 BL (1 2 3 4 in clockwise direction);
#X text 357 97 in-phase - anti-clockwise;
#X connect 0 0 10 0;
#X connect 1 0 11 0;
#X connect 1 0 12 0;
#X connect 2 0 13 0;
#X connect 2 0 14 0;
#X connect 10 0 24 0;
#X connect 10 0 21 0;
#X connect 10 0 22 0;
#X connect 10 0 23 0;
#X connect 11 0 24 0;
#X connect 11 0 23 0;
#X connect 12 0 21 0;
#X connect 12 0 22 0;
#X connect 13 0 24 0;
#X connect 13 0 21 0;
#X connect 14 0 22 0;
#X connect 14 0 23 0;
#X connect 21 0 20 0;
#X connect 22 0 19 0;
#X connect 23 0 18 0;
#X connect 24 0 17 0;
