#N canvas 296 23 325 317 10;
#X floatatom 117 174 5 0 0 0 - - -;
#X msg 69 107 2 3;
#X msg 77 127 5 5;
#X floatatom 60 88 5 0 0 0 - - -;
#X floatatom 88 192 5 0 0 0 - - -;
#X floatatom 60 212 5 0 0 0 - - -;
#X text 161 174 <-- pair occurances;
#X text 129 193 <-- current;
#X text 101 212 <-- previous;
#X msg 117 107 size \$1;
#X msg 126 128 reset;
#X floatatom 117 89 5 0 0 0 - - -;
#X obj 60 152 arr.anal 6;
#X text 59 243 almost a clone of cyclone/anal;
#X text 56 262 (c)2020 \, megrimm;
#X obj 60 59 random 6;
#X obj 60 38 bng 15 250 50 0 empty empty empty 17 7 0 10 -262144 -1
-1;
#X connect 1 0 12 0;
#X connect 2 0 12 0;
#X connect 3 0 12 0;
#X connect 9 0 12 1;
#X connect 10 0 12 1;
#X connect 11 0 9 0;
#X connect 12 0 5 0;
#X connect 12 1 4 0;
#X connect 12 2 0 0;
#X connect 15 0 3 0;
#X connect 16 0 15 0;
