#N canvas 360 38 460 619 10;
#X obj 329 62 t f b;
#X obj 254 96 list;
#X obj 329 18 inlet;
#X obj 254 21 inlet;
#X obj 254 543 outlet;
#X obj 254 118 list split \$1;
#X obj 329 40 f \$1;
#X obj 269 290 route float;
#X obj 254 377 f;
#X obj 254 411 /;
#X obj 269 311 t a b;
#X obj 254 146 t b a b b;
#X obj 329 336 b;
#X obj 360 359 + 1;
#X msg 361 336 1;
#X obj 329 358 f 1;
#X obj 284 333 0;
#X obj 269 356 +;
#X obj 302 357 f;
#X obj 57 203 t a a;
#X obj 54 319 spigot;
#X obj 84 245 bang;
#X obj 84 264 1;
#X obj 164 257 route bang;
#X obj 153 279 bang;
#X obj 153 298 0;
#X obj 84 226 list split 2;
#X obj 117 422 list split;
#X obj 174 377 list length;
#X obj 174 399 >> 1;
#X obj 54 338 t a a a a;
#X obj 54 489 list split;
#X obj 111 447 list length;
#X obj 111 467 >> 1;
#X connect 0 0 5 1;
#X connect 0 1 1 1;
#X connect 1 0 5 0;
#X connect 2 0 6 0;
#X connect 3 0 1 0;
#X connect 5 0 1 1;
#X connect 5 0 11 0;
#X connect 5 2 1 1;
#X connect 6 0 0 0;
#X connect 7 0 10 0;
#X connect 8 0 9 0;
#X connect 9 0 4 0;
#X connect 10 0 17 0;
#X connect 10 1 12 0;
#X connect 11 0 8 0;
#X connect 11 1 19 0;
#X connect 11 2 16 0;
#X connect 11 3 14 0;
#X connect 12 0 15 0;
#X connect 13 0 15 1;
#X connect 14 0 15 1;
#X connect 15 0 13 0;
#X connect 15 0 9 1;
#X connect 16 0 17 1;
#X connect 17 0 18 0;
#X connect 17 0 8 1;
#X connect 18 0 17 1;
#X connect 19 0 20 0;
#X connect 19 1 26 0;
#X connect 20 0 30 0;
#X connect 21 0 22 0;
#X connect 22 0 20 1;
#X connect 23 1 7 0;
#X connect 24 0 25 0;
#X connect 25 0 20 1;
#X connect 26 0 21 0;
#X connect 26 2 23 0;
#X connect 26 2 24 0;
#X connect 27 0 19 0;
#X connect 28 0 29 0;
#X connect 29 0 27 1;
#X connect 30 0 31 0;
#X connect 30 1 32 0;
#X connect 30 2 27 0;
#X connect 30 3 28 0;
#X connect 31 1 19 0;
#X connect 32 0 33 0;
#X connect 33 0 31 1;
