#N canvas 74 23 408 286 10;
#X floatatom 117 99 5 0 0 0 - - -, f 5;
#X floatatom 48 59 5 0 0 0 - - -, f 5;
#X floatatom 48 180 5 0 0 0 - - -, f 5;
#X text 157 95 <-- number of last floats to calculate;
#X text 89 56 <-- float stream;
#X text 150 117 <-- takes creation argument;
#X text 49 232 megrimm 2016;
#X text 46 21 linear moving average a stream of floats;
#X text 86 177 <-- linear moving average;
#X obj 48 120 num.lmavg 10;
#X connect 0 0 9 1;
#X connect 1 0 9 0;
#X connect 9 0 2 0;
