#N canvas 613 76 461 581 10;
#X obj 58 65 inlet;
#X obj 58 464 outlet;
#X obj 242 171 bang;
#X msg 242 190 1;
#X obj 58 272 spigot;
#X msg 210 191 0;
#X text 23 508 (c) 2006 IOhannes m zmoelnig \, licensed under GnuGPL
v2.0;
#X obj 242 67 inlet reset;
#X text 48 12 [once]: better than [oneshot];
#X obj 181 224 int 1;
#X obj 58 190 trigger anything bang;
#X obj 58 298 trigger anything bang;
#X connect 0 0 10 0;
#X connect 2 0 3 0;
#X connect 3 0 9 1;
#X connect 4 0 11 0;
#X connect 5 0 9 1;
#X connect 7 0 2 0;
#X connect 9 0 4 1;
#X connect 10 0 4 0;
#X connect 10 1 9 0;
#X connect 11 0 1 0;
#X connect 11 1 5 0;
