#N canvas 0 22 1 1 10;
#X obj 174 93 bng 15 250 50 0 empty empty empty 17 7 0 10 -262144 -1
-1;
#X obj 185 193 bng 15 250 50 0 empty empty empty 17 7 0 10 -262144
-1 -1;
#X obj 238 79 bng 15 250 50 0 empty empty empty 17 7 0 10 -262144 -1
-1;
#X msg 276 87 5;
#X msg 331 93 3;
#X obj 170 131 bng.nth 2;
#X text 133 43 lets nth bangs though before needing a reset;
#X connect 0 0 5 0;
#X connect 2 0 5 1;
#X connect 3 0 5 1;
#X connect 4 0 5 1;
#X connect 5 0 1 0;
