#N canvas 0 22 450 300 10;
#X obj 139 169 print;
#X floatatom 191 57 5 0 0 0 - - -, f 5;
#X obj 142 61 bng 15 250 50 0 empty empty empty 17 7 0 10 -262144 -1
-1;
#X text 246 138 let nth bang pass;
#X obj 139 95 fresh/bng.pass 3;
#X connect 1 0 4 1;
#X connect 2 0 4 0;
#X connect 4 0 0 0;
