#N canvas 923 563 450 300 10;
#X obj 160 117 list append;
#X obj 183 92 list split 3;
#X obj 183 143 t b l;
#X obj 43 233 list;
#X obj 265 258 list;
#X obj 61 117 list length;
#X obj 43 167 i;
#X obj 386 257 unpack f f f;
#X obj 386 286 expr $i3 % 64 \; (($i2 % 16) * 4) + ($i3 >> 6) \; (($i1
% 4) * 16) + ($i2 >> 4) \; $i1 >> 2;
#X obj 61 142 % 3;
#X obj 282 377 moses 26;
#X obj 335 404 moses 52;
#X obj 282 404 + 65;
#X obj 335 430 + 71;
#X obj 475 456 - 4;
#X obj 388 456 43;
#X obj 417 456 47;
#X obj 43 258 unpack f f;
#X obj 388 430 select 62 63 64;
#X obj 265 286 expr 64 \; 64 \; ($i1 % 4) * 16 \; $i1 >> 2;
#X obj 43 286 expr 64 \; ($i2 % 16) * 4 \; (($i1 % 4) * 16) + ($i2
>> 4) \; $i1 >> 2;
#X obj 446 456 61;
#X obj 388 493 list prepend;
#X obj 388 519 t l l;
#X obj 25 56 t b b l l b;
#X obj 25 575 list;
#X obj 25 619 outlet;
#X obj 25 14 inlet;
#X text 83 13 encodes any list of bytes in base64;
#X text 344 376 A -> Z;
#X text 399 402 a -> z;
#X text 491 430 + / = and 0 -> 9;
#X text 276 92 convert 3 bytes to 4 x 6 bits;
#X text 479 255 4 x 6 bits;
#X text 301 250 2 x 6 bits \; add ==;
#X text 125 250 3 x 6 bits \; add =;
#X text 122 196 remaining bytes (< 3);
#X obj 43 196 select 2 1;
#N canvas 0 617 174 65 reminder 0;
#X obj 156 26 loadbang;
#X obj 23 141 print;
#X obj 23 69 list tosymbol;
#X obj 23 99 list trim;
#X msg 155 67 13 10 13 10 87 101 98 115 111 99 107 101 116 32 83 101
114 118 101 114 32 105 110 32 97 32 80 97 116 99 104 32 40 99 41 32
50 48 49 54 32 98 121 32 78 105 99 111 108 97 115 32 76 104 111 109
109 101 116 32 40 110 108 104 111 109 109 101 116 64 103 109 97 105
108 46 99 111 109 41 13 10 84 104 105 115 32 112 114 111 103 114 97
109 32 105 115 32 114 101 108 101 97 115 101 100 32 117 110 100 101
114 32 116 104 101 32 67 114 101 97 116 105 118 101 32 67 111 109 109
111 110 115 32 65 116 116 114 105 98 117 116 105 111 110 45 78 111
110 67 111 109 109 101 114 99 105 97 108 45 83 104 97 114 101 65 108
105 107 101 32 52 46 48 32 73 110 116 101 114 110 97 116 105 111 110
97 108 32 40 67 67 32 66 89 45 78 67 45 83 65 32 52 46 48 41 32 108
105 99 101 110 115 101 46 32 89 111 117 32 109 97 121 32 110 111 116
32 117 115 101 32 116 104 101 32 109 97 116 101 114 105 97 108 32 102
111 114 32 99 111 109 109 101 114 99 105 97 108 32 112 117 114 112
111 115 101 115 44 32 105 110 116 101 110 100 101 100 32 102 111 114
32 97 110 121 32 99 111 109 109 101 114 99 105 97 108 32 97 100 118
97 110 116 97 103 101 32 111 114 32 109 111 110 101 116 97 114 121
32 99 111 109 112 101 110 115 97 116 105 111 110 44 32 105 110 99 108
117 100 105 110 103 32 112 117 98 108 105 99 108 121 32 102 117 110
100 101 100 32 97 114 116 105 115 116 105 99 97 108 44 32 101 100 117
99 97 116 105 111 110 97 108 32 111 114 32 112 114 111 109 111 116
105 111 110 97 108 32 97 99 116 105 118 105 116 105 101 115 46 13 10
;
#X connect 0 0 4 0;
#X connect 2 0 3 0;
#X connect 3 0 1 0;
#X connect 4 0 2 0;
#X restore 520 619 pd reminder;
#X connect 0 0 1 0;
#X connect 1 0 2 0;
#X connect 1 1 0 1;
#X connect 1 1 3 1;
#X connect 1 1 4 1;
#X connect 2 0 0 0;
#X connect 2 1 7 0;
#X connect 3 0 17 0;
#X connect 4 0 19 0;
#X connect 5 0 9 0;
#X connect 6 0 37 0;
#X connect 7 0 8 0;
#X connect 7 1 8 1;
#X connect 7 2 8 2;
#X connect 8 0 10 0;
#X connect 8 1 10 0;
#X connect 8 2 10 0;
#X connect 8 3 10 0;
#X connect 9 0 6 1;
#X connect 10 0 12 0;
#X connect 10 1 11 0;
#X connect 11 0 13 0;
#X connect 11 1 18 0;
#X connect 12 0 22 0;
#X connect 13 0 22 0;
#X connect 14 0 22 0;
#X connect 15 0 22 0;
#X connect 16 0 22 0;
#X connect 17 0 20 0;
#X connect 17 1 20 1;
#X connect 18 0 15 0;
#X connect 18 1 16 0;
#X connect 18 2 21 0;
#X connect 18 3 14 0;
#X connect 19 0 10 0;
#X connect 19 1 10 0;
#X connect 19 2 10 0;
#X connect 19 3 10 0;
#X connect 20 0 10 0;
#X connect 20 1 10 0;
#X connect 20 2 10 0;
#X connect 20 3 10 0;
#X connect 21 0 22 0;
#X connect 22 0 23 0;
#X connect 23 0 25 1;
#X connect 23 1 22 1;
#X connect 24 0 25 0;
#X connect 24 1 6 0;
#X connect 24 2 1 0;
#X connect 24 3 5 0;
#X connect 24 4 22 1;
#X connect 25 0 26 0;
#X connect 27 0 24 0;
#X connect 37 0 3 0;
#X connect 37 1 4 0;
