#N canvas 923 563 706 681 10;
#X obj 160 117 list append;
#X obj 183 92 list split 3;
#X obj 183 143 t b l;
#X obj 43 233 list;
#X obj 265 258 list;
#X obj 61 117 list length;
#X obj 43 167 i;
#X obj 386 257 unpack f f f;
#X obj 386 286 expr $i3 % 64 \; (($i2 % 16) * 4) + ($i3 >> 6) \; (($i1
% 4) * 16) + ($i2 >> 4) \; $i1 >> 2;
#X obj 61 142 % 3;
#X obj 282 377 moses 26;
#X obj 335 404 moses 52;
#X obj 282 404 + 65;
#X obj 335 430 + 71;
#X obj 475 456 - 4;
#X obj 388 456 43;
#X obj 417 456 47;
#X obj 43 258 unpack f f;
#X obj 388 430 select 62 63 64;
#X obj 265 286 expr 64 \; 64 \; ($i1 % 4) * 16 \; $i1 >> 2;
#X obj 43 286 expr 64 \; ($i2 % 16) * 4 \; (($i1 % 4) * 16) + ($i2
>> 4) \; $i1 >> 2;
#X obj 446 456 61;
#X obj 388 493 list prepend;
#X obj 388 519 t l l;
#X obj 25 56 t b b l l b;
#X obj 25 575 list;
#X obj 25 619 outlet;
#X obj 25 14 inlet;
#X text 83 13 encodes any list of bytes in base64;
#X text 344 376 A -> Z;
#X text 399 402 a -> z;
#X text 491 430 + / = and 0 -> 9;
#X text 276 92 convert 3 bytes to 4 x 6 bits;
#X text 479 255 4 x 6 bits;
#X text 301 250 2 x 6 bits \; add ==;
#X text 125 250 3 x 6 bits \; add =;
#X text 122 196 remaining bytes (< 3);
#X obj 43 196 select 2 1;
#X connect 0 0 1 0;
#X connect 1 0 2 0;
#X connect 1 1 0 1;
#X connect 1 1 3 1;
#X connect 1 1 4 1;
#X connect 2 0 0 0;
#X connect 2 1 7 0;
#X connect 3 0 17 0;
#X connect 4 0 19 0;
#X connect 5 0 9 0;
#X connect 6 0 37 0;
#X connect 7 0 8 0;
#X connect 7 1 8 1;
#X connect 7 2 8 2;
#X connect 8 0 10 0;
#X connect 8 1 10 0;
#X connect 8 2 10 0;
#X connect 8 3 10 0;
#X connect 9 0 6 1;
#X connect 10 0 12 0;
#X connect 10 1 11 0;
#X connect 11 0 13 0;
#X connect 11 1 18 0;
#X connect 12 0 22 0;
#X connect 13 0 22 0;
#X connect 14 0 22 0;
#X connect 15 0 22 0;
#X connect 16 0 22 0;
#X connect 17 0 20 0;
#X connect 17 1 20 1;
#X connect 18 0 15 0;
#X connect 18 1 16 0;
#X connect 18 2 21 0;
#X connect 18 3 14 0;
#X connect 19 0 10 0;
#X connect 19 1 10 0;
#X connect 19 2 10 0;
#X connect 19 3 10 0;
#X connect 20 0 10 0;
#X connect 20 1 10 0;
#X connect 20 2 10 0;
#X connect 20 3 10 0;
#X connect 21 0 22 0;
#X connect 22 0 23 0;
#X connect 23 0 25 1;
#X connect 23 1 22 1;
#X connect 24 0 25 0;
#X connect 24 1 6 0;
#X connect 24 2 1 0;
#X connect 24 3 5 0;
#X connect 24 4 22 1;
#X connect 25 0 26 0;
#X connect 27 0 24 0;
#X connect 37 0 3 0;
#X connect 37 1 4 0;
