#N canvas 632 432 378 399 10;
#X obj 22 34 symbol;
#X obj 22 11 inlet;
#X obj 22 334 outlet;
#X obj 168 90 symbol \$1;
#X obj 177 64 loadbang;
#X obj 168 10 inlet;
#X text 144 360 (c)2012 \, megrimm;
#X obj 168 114 makefilename %%s.%s;
#X msg 168 139 set \$1;
#X obj 22 255 makefilename;
#X obj 22 56 list fromsymbol;
#X obj 22 179 list tosymbol;
#X obj 79 115 list length;
#X obj 22 77 t a a;
#X obj 22 158 list split;
#X obj 79 138 - 4;
#X text 118 253 TODO: dynamic file extention swap based on the period?
charecter 46, f 34;
#X connect 0 0 10 0;
#X connect 1 0 0 0;
#X connect 3 0 7 0;
#X connect 4 0 3 0;
#X connect 5 0 3 0;
#X connect 7 0 8 0;
#X connect 8 0 9 0;
#X connect 9 0 2 0;
#X connect 10 0 13 0;
#X connect 11 0 9 0;
#X connect 12 0 15 0;
#X connect 13 0 14 0;
#X connect 13 1 12 0;
#X connect 14 0 11 0;
#X connect 15 0 14 1;
