#N canvas 189 222 355 268 10;
#X msg 54 61 50;
#X obj 54 217 print;
#X msg 76 113 bang;
#X obj 54 159 file.autoarrays;
#X msg 66 87 clear;
#X text 107 87 <-- this clears the arrays;
#X text 86 58 <-- number of arrays you need;
#X text 111 112 <-- this is just a passthrough;
#X text 52 7 automatically creates X number of arrays;
#X text 133 217 (c)2015 \, megrimm;
#X connect 0 0 3 0;
#X connect 2 0 3 0;
#X connect 3 0 1 0;
#X connect 4 0 3 0;
