#N canvas 228 23 396 759 10;
#X obj 36 38 inlet;
#X obj 36 677 outlet;
#X msg 36 471 add \$1;
#X msg 73 567 goto \$1 \, this;
#X msg 74 616 print;
#X msg 62 521 clear;
#X obj 36 320 symbol;
#X obj 202 34 inlet;
#X obj 105 468 f 0;
#X obj 135 468 + 1;
#X obj 105 445 t b;
#X msg 132 445 0;
#X obj 212 690 outlet;
#X obj 36 344 t a b;
#X obj 117 96 s \$0-fileprint;
#X obj 74 592 r \$0-fileprint;
#X obj 202 66 s \$0-gotothis;
#X obj 73 544 r \$0-gotothis;
#X obj 63 368 s \$0-clearmsg;
#X obj 62 497 r \$0-clearmsg;
#X obj 132 419 r \$0-clearmsg;
#X text 207 714 (c)2012 \, megrimm;
#X text 35 11 get and store file and folder names;
#X obj 36 138 route bang;
#X obj 76 117 s \$0-addtopath;
#X obj 36 288 makefilename %s/*;
#X obj 36 395 fresh/_extra/folder_list;
#X obj 36 266 fresh/_extra/folderpanel;
#X obj 36 648 fresh/_extra/msgfile;
#X text 183 648 <-- replace with text object?;
#X obj 93 198 fresh/_extra/getdir 1;
#X obj 93 158 t b a;
#X obj 93 220 pack s s;
#X obj 137 178 symbol;
#X msg 93 241 \$1/\$2;
#X obj 36 69 route open add;
#X connect 0 0 35 0;
#X connect 2 0 28 0;
#X connect 3 0 28 0;
#X connect 4 0 28 0;
#X connect 5 0 28 0;
#X connect 6 0 13 0;
#X connect 7 0 16 0;
#X connect 8 0 9 0;
#X connect 9 0 12 0;
#X connect 9 0 8 1;
#X connect 10 0 8 0;
#X connect 11 0 8 1;
#X connect 13 0 26 0;
#X connect 13 1 18 0;
#X connect 15 0 4 0;
#X connect 17 0 3 0;
#X connect 19 0 5 0;
#X connect 20 0 11 0;
#X connect 23 0 27 0;
#X connect 23 1 31 0;
#X connect 25 0 6 0;
#X connect 26 0 2 0;
#X connect 26 0 10 0;
#X connect 27 0 25 0;
#X connect 28 0 1 0;
#X connect 30 0 32 0;
#X connect 31 0 30 0;
#X connect 31 1 33 0;
#X connect 32 0 34 0;
#X connect 33 0 32 1;
#X connect 34 0 6 0;
#X connect 35 0 23 0;
#X connect 35 1 24 0;
#X connect 35 2 14 0;
