#N canvas 359 44 330 376 10;
#X obj 33 39 symbol;
#X obj 33 225 t b a;
#X obj 33 16 inlet;
#X obj 33 316 outlet;
#X obj 33 259 pack 0 s s;
#X obj 209 83 symbol \$1;
#X obj 226 52 loadbang;
#X obj 209 14 inlet;
#X obj 90 122 list length;
#X obj 33 91 t l l;
#X obj 33 174 list split;
#X obj 90 147 - 1;
#X msg 33 288 \$2.\$3;
#X obj 33 200 zexy/list2symbol .;
#X obj 33 62 zexy/symbol2list .;
#X text 149 317 (c)2012 \, megrimm;
#X connect 0 0 14 0;
#X connect 1 0 4 0;
#X connect 1 1 4 1;
#X connect 2 0 0 0;
#X connect 4 0 12 0;
#X connect 5 0 4 2;
#X connect 6 0 5 0;
#X connect 7 0 5 0;
#X connect 8 0 11 0;
#X connect 9 0 10 0;
#X connect 9 1 8 0;
#X connect 10 0 13 0;
#X connect 11 0 10 1;
#X connect 12 0 3 0;
#X connect 13 0 1 0;
#X connect 14 0 9 0;
