#N canvas 362 23 874 834 10;
#X obj 36 38 inlet;
#X obj 35 768 outlet;
#X msg 36 549 add \$1;
#X msg 73 645 goto \$1 \, this;
#X msg 74 694 print;
#X msg 62 599 clear;
#X obj 36 377 symbol;
#X obj 36 399 route symbol;
#X obj 202 34 inlet;
#X obj 105 546 f 0;
#X obj 135 546 + 1;
#X obj 105 523 t b;
#X msg 132 523 0;
#X obj 212 768 outlet;
#X obj 36 422 t a b;
#X obj 159 89 s \$0-fileprint;
#X obj 74 670 r \$0-fileprint;
#X obj 202 66 s \$0-gotothis;
#X obj 73 622 r \$0-gotothis;
#X obj 63 446 s \$0-clearmsg;
#X obj 62 575 r \$0-clearmsg;
#X obj 132 497 r \$0-clearmsg;
#X text 207 792 (c)2012 \, megrimm;
#X text 35 11 get and store file and folder names;
#X obj 36 204 route bang;
#X obj 118 154 s \$0-getdir;
#X obj 49 353 r \$0-getdir;
#X obj 312 347 s \$0-getdir;
#X obj 36 69 route open add getdir;
#X obj 77 177 s \$0-addtopath;
#X obj 393 201 r \$0-addtopath;
#X obj 118 133 makefilename %s/*;
#X obj 36 331 makefilename %s/*;
#X obj 118 111 fresh/_extra/getdir 1;
#X obj 36 473 fresh/_extra/folder_list;
#X obj 36 309 fresh/_extra/folderpanel;
#X obj 36 726 fresh/_extra/msgfile;
#X obj 393 223 symbol;
#X obj 393 244 pack s;
#X msg 393 264 \$1\$2;
#X text 453 223 <-- fix this WITHOUT sprintf? list opbjects?;
#X text 183 726 <-- replace with text object?;
#X text 251 109 <-- relative to parent patch?;
#X obj 486 265 makefilename %s;
#X text 492 311 strip / remove space from list?;
#X obj 93 264 fresh/_extra/getdir 1;
#X obj 93 224 t b a;
#X obj 316 278 print out;
#X obj 93 286 pack s s;
#X obj 137 244 symbol;
#X msg 276 441 \$1/\$2;
#X connect 0 0 28 0;
#X connect 2 0 36 0;
#X connect 3 0 36 0;
#X connect 4 0 36 0;
#X connect 5 0 36 0;
#X connect 6 0 7 0;
#X connect 7 0 14 0;
#X connect 8 0 17 0;
#X connect 9 0 10 0;
#X connect 10 0 13 0;
#X connect 10 0 9 1;
#X connect 11 0 9 0;
#X connect 12 0 9 1;
#X connect 14 0 34 0;
#X connect 14 1 19 0;
#X connect 16 0 4 0;
#X connect 18 0 3 0;
#X connect 20 0 5 0;
#X connect 21 0 12 0;
#X connect 24 0 35 0;
#X connect 24 1 46 0;
#X connect 26 0 6 0;
#X connect 28 0 24 0;
#X connect 28 1 29 0;
#X connect 28 2 33 0;
#X connect 28 3 15 0;
#X connect 30 0 37 0;
#X connect 31 0 25 0;
#X connect 32 0 6 0;
#X connect 33 0 31 0;
#X connect 34 0 2 0;
#X connect 34 0 11 0;
#X connect 35 0 32 0;
#X connect 36 0 1 0;
#X connect 37 0 38 0;
#X connect 38 0 39 0;
#X connect 45 0 48 0;
#X connect 46 0 45 0;
#X connect 46 1 49 0;
#X connect 48 0 50 0;
#X connect 49 0 48 1;
#X connect 50 0 47 0;
