#N canvas 457 246 378 399 10;
#X obj 22 34 symbol;
#X obj 22 11 inlet;
#X obj 22 334 outlet;
#X obj 227 13 inlet;
#X obj 70 247 makefilename;
#X obj 22 56 list fromsymbol;
#X obj 23 188 list tosymbol;
#X obj 90 103 list length;
#X obj 22 77 t a a;
#X obj 23 167 list split;
#X obj 227 67 s \$0-len;
#X obj 115 123 r \$0-len;
#X obj 90 146 - \$1;
#X obj 227 38 route length;
#X text 144 360 (c)2017 \, megrimm;
#X connect 0 0 5 0;
#X connect 1 0 0 0;
#X connect 3 0 13 0;
#X connect 4 0 2 0;
#X connect 5 0 8 0;
#X connect 6 0 2 0;
#X connect 7 0 12 0;
#X connect 8 0 9 0;
#X connect 8 1 7 0;
#X connect 9 0 6 0;
#X connect 11 0 12 1;
#X connect 12 0 9 1;
#X connect 13 0 10 0;
