#N canvas 612 67 243 479 10;
#X obj 27 204 f;
#X obj 58 204 + 1;
#X obj 27 178 until;
#X obj 27 279 pack f f;
#X obj 72 258 * 20;
#X obj 27 226 t f f;
#X obj 27 300 t a a;
#X msg 67 178 0;
#X msg 66 101 clear;
#X obj 27 80 t f b b;
#N canvas 908 191 450 300 audiotables 1;
#X obj 120 0 table 0-right;
#X obj 10 0 table 0-left;
#X obj 120 20 table 1-right;
#X obj 10 20 table 1-left;
#X obj 120 40 table 2-right;
#X obj 10 40 table 2-left;
#X obj 120 60 table 3-right;
#X obj 10 60 table 3-left;
#X obj 120 80 table 4-right;
#X obj 10 80 table 4-left;
#X obj 120 100 table 5-right;
#X obj 10 100 table 5-left;
#X restore 78 143 pd audiotables;
#X obj 27 13 inlet;
#X obj 66 122 s pd-audiotables;
#X obj 27 427 outlet;
#X obj 27 373 s pd-audiotables;
#X msg 27 324 obj 10 \$2 table \$1-left;
#X msg 54 346 obj 120 \$2 table \$1-right;
#X obj 27 36 route float;
#X obj 90 61 s \$0-passthrough;
#X obj 27 401 r \$0-passthrough;
#X connect 0 0 1 0;
#X connect 0 0 5 0;
#X connect 1 0 0 1;
#X connect 2 0 0 0;
#X connect 3 0 6 0;
#X connect 4 0 3 1;
#X connect 5 0 3 0;
#X connect 5 1 4 0;
#X connect 6 0 15 0;
#X connect 6 1 16 0;
#X connect 7 0 0 1;
#X connect 8 0 12 0;
#X connect 9 0 2 0;
#X connect 9 1 7 0;
#X connect 9 2 8 0;
#X connect 11 0 17 0;
#X connect 15 0 14 0;
#X connect 16 0 14 0;
#X connect 17 0 9 0;
#X connect 17 1 18 0;
#X connect 19 0 13 0;
