#N canvas 384 336 408 380 10;
#X msg 76 -24 ../blaaah;
#X msg 92 1 /path/to/file;
#X msg 109 25 ../../../dd;
#X msg 57 -47 filelalaa;
#X obj 37 -94 bng 15 250 50 0 empty empty empty 17 7 0 10 -262144 -1
-1;
#X obj 37 -69 openpanel;
#X obj 37 184 print;
#X msg 128 81 D:/My Documents;
#X msg 127 56 C:/Windows;
#X text 160 -87 comment;
#X text 36 -137 file.filename: takes filenames with absolute or relative
paths and spits out absolute paths;
#X msg 135 111 $HOME/Desktop;
#X text 226 109 <-- how do i get home dir?;
#X obj 37 154 file.filepath;
#X connect 0 0 13 0;
#X connect 1 0 13 0;
#X connect 2 0 13 0;
#X connect 3 0 13 0;
#X connect 4 0 5 0;
#X connect 5 0 13 0;
#X connect 7 0 13 0;
#X connect 8 0 13 0;
#X connect 11 0 13 0;
#X connect 13 0 6 0;
