#N canvas 612 67 241 403 10;
#X obj 30 170 f;
#X obj 61 170 + 1;
#X obj 30 144 until;
#X obj 30 245 pack f f;
#X obj 75 224 * 20;
#X obj 30 192 t f f;
#X obj 30 266 t a a;
#X msg 70 144 0;
#X msg 69 67 clear;
#X obj 30 46 t f b b;
#N canvas 908 191 450 300 audiotables 0;
#X obj 100 0 table 0-Right;
#X obj 10 0 table 0-Left;
#X obj 100 20 table 1-Right;
#X obj 10 20 table 1-Left;
#X obj 100 40 table 2-Right;
#X obj 10 40 table 2-Left;
#X obj 100 60 table 3-Right;
#X obj 10 60 table 3-Left;
#X obj 100 80 table 4-Right;
#X obj 10 80 table 4-Left;
#X obj 100 100 table 5-Right;
#X obj 10 100 table 5-Left;
#X obj 100 120 table 6-Right;
#X obj 10 120 table 6-Left;
#X obj 100 140 table 7-Right;
#X obj 10 140 table 7-Left;
#X obj 100 160 table 8-Right;
#X obj 10 160 table 8-Left;
#X obj 100 180 table 9-Right;
#X obj 10 180 table 9-Left;
#X obj 100 200 table 10-Right;
#X obj 10 200 table 10-Left;
#X obj 100 220 table 11-Right;
#X obj 10 220 table 11-Left;
#X obj 100 240 table 12-Right;
#X obj 10 240 table 12-Left;
#X obj 100 260 table 13-Right;
#X obj 10 260 table 13-Left;
#X obj 100 280 table 14-Right;
#X obj 10 280 table 14-Left;
#X obj 100 300 table 15-Right;
#X obj 10 300 table 15-Left;
#X obj 100 320 table 16-Right;
#X obj 10 320 table 16-Left;
#X obj 100 340 table 17-Right;
#X obj 10 340 table 17-Left;
#X obj 100 360 table 18-Right;
#X obj 10 360 table 18-Left;
#X obj 100 380 table 19-Right;
#X obj 10 380 table 19-Left;
#X obj 100 400 table 20-Right;
#X obj 10 400 table 20-Left;
#X obj 100 420 table 21-Right;
#X obj 10 420 table 21-Left;
#X obj 100 440 table 22-Right;
#X obj 10 440 table 22-Left;
#X obj 100 460 table 23-Right;
#X obj 10 460 table 23-Left;
#X obj 100 480 table 24-Right;
#X obj 10 480 table 24-Left;
#X obj 100 500 table 25-Right;
#X obj 10 500 table 25-Left;
#X obj 100 520 table 26-Right;
#X obj 10 520 table 26-Left;
#X obj 100 540 table 27-Right;
#X obj 10 540 table 27-Left;
#X obj 100 560 table 28-Right;
#X obj 10 560 table 28-Left;
#X obj 100 580 table 29-Right;
#X obj 10 580 table 29-Left;
#X obj 100 600 table 30-Right;
#X obj 10 600 table 30-Left;
#X obj 100 620 table 31-Right;
#X obj 10 620 table 31-Left;
#X obj 100 640 table 32-Right;
#X obj 10 640 table 32-Left;
#X obj 100 660 table 33-Right;
#X obj 10 660 table 33-Left;
#X obj 100 680 table 34-Right;
#X obj 10 680 table 34-Left;
#X obj 100 700 table 35-Right;
#X obj 10 700 table 35-Left;
#X obj 100 720 table 36-Right;
#X obj 10 720 table 36-Left;
#X obj 100 740 table 37-Right;
#X obj 10 740 table 37-Left;
#X obj 100 760 table 38-Right;
#X obj 10 760 table 38-Left;
#X obj 100 780 table 39-Right;
#X obj 10 780 table 39-Left;
#X obj 100 800 table 40-Right;
#X obj 10 800 table 40-Left;
#X obj 100 820 table 41-Right;
#X obj 10 820 table 41-Left;
#X obj 100 840 table 42-Right;
#X obj 10 840 table 42-Left;
#X obj 100 860 table 43-Right;
#X obj 10 860 table 43-Left;
#X obj 100 880 table 44-Right;
#X obj 10 880 table 44-Left;
#X obj 100 900 table 45-Right;
#X obj 10 900 table 45-Left;
#X obj 100 920 table 46-Right;
#X obj 10 920 table 46-Left;
#X obj 100 940 table 47-Right;
#X obj 10 940 table 47-Left;
#X obj 100 960 table 48-Right;
#X obj 10 960 table 48-Left;
#X obj 100 980 table 49-Right;
#X obj 10 980 table 49-Left;
#X restore 81 109 pd audiotables;
#X obj 30 20 inlet;
#X obj 69 88 s pd-audiotables;
#X obj 30 376 outlet;
#X obj 76 376 s pd-audiotables;
#X msg 30 290 obj 10 \$2 table \$1-left;
#X msg 57 312 obj 100 \$2 table \$1-right;
#X connect 0 0 1 0;
#X connect 0 0 5 0;
#X connect 1 0 0 1;
#X connect 2 0 0 0;
#X connect 3 0 6 0;
#X connect 4 0 3 1;
#X connect 5 0 3 0;
#X connect 5 1 4 0;
#X connect 6 0 15 0;
#X connect 6 1 16 0;
#X connect 7 0 0 1;
#X connect 8 0 12 0;
#X connect 9 0 2 0;
#X connect 9 1 7 0;
#X connect 9 2 8 0;
#X connect 11 0 9 0;
#X connect 15 0 13 0;
#X connect 15 0 14 0;
#X connect 16 0 13 0;
#X connect 16 0 14 0;
