#N canvas 597 75 320 273 10;
#X obj 137 148 hsl 128 15 1 0 0 0 \$1-\$2/bit \$1-\$2/bit bitcrush
-2 -6 1 9 -262144 -1 -1 11100 0;
#X obj 65 80 readsf~;
#X msg 65 53 open _samples/amen.wav \, 1;
#X obj 65 218 dac~;
#X obj 65 172 fx.bitcrush~;
#X connect 0 0 4 2;
#X connect 1 0 4 0;
#X connect 1 0 4 1;
#X connect 1 1 2 0;
#X connect 2 0 1 0;
#X connect 4 0 3 0;
#X connect 4 1 3 1;
