#N canvas 570 379 349 245 10;
#X obj 159 107 wrap~;
#X obj 144 148 -~;
#X obj 159 87 +~ 0.1;
#X obj 159 128 -~ 0.1;
#X obj 46 107 wrap~;
#X obj 31 148 -~;
#X obj 46 87 +~ 0.1;
#X obj 46 128 -~ 0.1;
#X obj 31 67 *~ 127;
#X obj 144 67 *~ 127;
#X obj 144 167 /~ 127;
#X obj 31 168 /~ 127;
#X obj 261 45 t f f;
#X obj 261 65 *;
#X obj 261 105 + 1;
#X obj 261 85 * 127;
#X obj 31 26 inlet~;
#X obj 144 26 inlet~;
#X obj 31 189 outlet~;
#X obj 144 188 outlet~;
#X obj 261 25 inlet;
#X obj 261 126 s \$0-bcrush;
#X obj 177 147 r \$0-bcrush;
#X obj 64 148 r \$0-bcrush;
#X obj 64 47 r \$0-bcrush;
#X obj 177 47 r \$0-bcrush;
#X connect 0 0 3 0;
#X connect 1 0 10 0;
#X connect 2 0 0 0;
#X connect 3 0 1 1;
#X connect 4 0 7 0;
#X connect 5 0 11 0;
#X connect 6 0 4 0;
#X connect 7 0 5 1;
#X connect 8 0 6 0;
#X connect 8 0 5 0;
#X connect 9 0 2 0;
#X connect 9 0 1 0;
#X connect 10 0 19 0;
#X connect 11 0 18 0;
#X connect 12 0 13 0;
#X connect 12 1 13 1;
#X connect 13 0 15 0;
#X connect 14 0 21 0;
#X connect 15 0 14 0;
#X connect 16 0 8 0;
#X connect 17 0 9 0;
#X connect 20 0 12 0;
#X connect 22 0 10 1;
#X connect 23 0 11 1;
#X connect 24 0 8 1;
#X connect 25 0 9 1;
