#N canvas 889 123 370 366 10;
#X obj 46 308 dac~;
#X obj 46 284 *~ 0.1;
#X obj 127 185 line~;
#X msg 127 165 \$1 100;
#X obj 127 217 hradio 15 1 0 4 empty empty empty 0 -8 0 10 -262144
-1 -1 0;
#X obj 46 71 readsf~;
#X msg 46 50 open _samples/amen.wav \, 1;
#X obj 85 92 s \$0-playloop;
#X obj 46 30 r \$0-playloop;
#X obj 127 142 / 100;
#X floatatom 127 123 5 0 0 0 - - -, f 5;
#X obj 249 31 loadbang;
#X msg 249 55 \; pd dsp 1 \;;
#X obj 46 238 fx.distortion~;
#X text 164 121 <-- distortion %;
#X text 192 216 <-- disto mode;
#X floatatom 79 267 5 0 0 0 - - -, f 5;
#X connect 1 0 0 1;
#X connect 1 0 0 0;
#X connect 2 0 13 1;
#X connect 3 0 2 0;
#X connect 4 0 13 2;
#X connect 5 0 13 0;
#X connect 5 1 7 0;
#X connect 6 0 5 0;
#X connect 8 0 6 0;
#X connect 9 0 3 0;
#X connect 10 0 9 0;
#X connect 11 0 12 0;
#X connect 13 0 1 0;
#X connect 16 0 1 1;
