#N canvas 256 336 942 406 10;
#X obj 29 122 +~ 5000;
#X obj 29 23 inlet~;
#X obj 29 141 tabread4~ \$0-disto;
#X obj 151 23 inlet~;
#X obj 29 102 *~;
#X obj 151 43 *~ 5000;
#X obj 151 122 +~ 5000;
#X obj 151 141 tabread4~ \$0-disto;
#X obj 28 209 outlet~;
#X obj 153 167 table \$0-disto 10000;
#X obj 29 188 /~;
#X obj 151 65 +~ 100;
#X obj 764 24 inlet;
#X obj 764 76 sel 0 1 2 3;
#X msg 803 46 0;
#X obj 803 24 loadbang;
#X obj 290 44 t b b;
#X obj 290 133 f;
#X obj 318 132 + 1;
#X msg 317 110 0;
#X obj 290 87 until;
#X obj 290 198 - 0.5;
#X obj 290 274 - 0.5;
#X obj 290 296 * 2;
#X obj 290 317 tabwrite \$0-disto;
#X msg 290 66 10000;
#X obj 290 177 / 9999;
#X obj 290 219 * 30;
#X obj 290 156 t f f;
#X obj 290 240 expr ( exp($f1)) / ( 1 + exp($f1)), f 18;
#X obj 419 43 t b b;
#X obj 419 139 f;
#X obj 445 138 + 1;
#X msg 446 116 0;
#X obj 419 84 until;
#X obj 419 199 - 0.5;
#X obj 419 239 t f f f;
#X obj 438 260 *;
#X obj 438 280 + 1;
#X obj 438 300 sqrt;
#X obj 419 320 /;
#X obj 419 219 * 20;
#X obj 419 179 / 9999;
#X msg 419 63 10000;
#X obj 419 159 t f f;
#X obj 419 340 tabwrite \$0-disto;
#X obj 538 44 t b b;
#X obj 538 127 f;
#X obj 565 125 + 1;
#X msg 565 104 0;
#X obj 538 82 until;
#X obj 538 301 /;
#X obj 565 255 abs;
#X obj 565 234 * 2;
#X obj 538 194 - 0.5;
#X obj 565 276 + 0.1;
#X msg 538 63 10000;
#X obj 538 175 / 9999;
#X obj 538 345 tabwrite \$0-disto;
#X obj 538 323 * 2;
#X obj 538 214 t f f;
#X obj 538 153 t f f;
#X obj 641 43 t b b;
#X obj 641 128 f;
#X obj 668 127 + 1;
#X msg 668 105 0;
#X obj 641 86 until;
#X obj 641 197 - 0.5;
#X obj 641 240 expr exp(-$f1*$f1)*($f1+pow($f1 \, 3)*2/3 + pow($f1
\, 5)*4/15), f 19;
#X obj 641 296 tabwrite \$0-disto;
#X obj 641 176 / 9999;
#X msg 641 64 10000;
#X obj 641 153 t f f;
#X obj 641 219 * 2;
#X obj 764 153 s \$0-distro-01;
#X obj 779 134 s \$0-distro-02;
#X obj 795 115 s \$0-distro-03;
#X obj 811 97 s \$0-distro-04;
#X obj 290 24 r \$0-distro-01;
#X obj 419 23 r \$0-distro-02;
#X obj 538 23 r \$0-distro-03;
#X obj 641 22 r \$0-distro-04;
#X connect 0 0 2 0;
#X connect 1 0 4 0;
#X connect 2 0 10 0;
#X connect 3 0 5 0;
#X connect 4 0 0 0;
#X connect 5 0 11 0;
#X connect 6 0 7 0;
#X connect 7 0 10 1;
#X connect 10 0 8 0;
#X connect 11 0 4 1;
#X connect 11 0 6 0;
#X connect 12 0 13 0;
#X connect 13 0 74 0;
#X connect 13 1 75 0;
#X connect 13 2 76 0;
#X connect 13 3 77 0;
#X connect 14 0 13 0;
#X connect 15 0 14 0;
#X connect 16 0 25 0;
#X connect 16 1 19 0;
#X connect 17 0 18 0;
#X connect 17 0 28 0;
#X connect 18 0 17 1;
#X connect 19 0 17 1;
#X connect 20 0 17 0;
#X connect 21 0 27 0;
#X connect 22 0 23 0;
#X connect 23 0 24 0;
#X connect 25 0 20 0;
#X connect 26 0 21 0;
#X connect 27 0 29 0;
#X connect 28 0 26 0;
#X connect 28 1 24 1;
#X connect 29 0 22 0;
#X connect 30 0 43 0;
#X connect 30 1 33 0;
#X connect 31 0 32 0;
#X connect 31 0 44 0;
#X connect 32 0 31 1;
#X connect 33 0 31 1;
#X connect 34 0 31 0;
#X connect 35 0 41 0;
#X connect 36 0 40 0;
#X connect 36 1 37 0;
#X connect 36 2 37 1;
#X connect 37 0 38 0;
#X connect 38 0 39 0;
#X connect 39 0 40 1;
#X connect 40 0 45 0;
#X connect 41 0 36 0;
#X connect 42 0 35 0;
#X connect 43 0 34 0;
#X connect 44 0 42 0;
#X connect 44 1 45 1;
#X connect 46 0 56 0;
#X connect 46 1 49 0;
#X connect 47 0 48 0;
#X connect 47 0 61 0;
#X connect 48 0 47 1;
#X connect 49 0 47 1;
#X connect 50 0 47 0;
#X connect 51 0 59 0;
#X connect 52 0 55 0;
#X connect 53 0 52 0;
#X connect 54 0 60 0;
#X connect 55 0 51 1;
#X connect 56 0 50 0;
#X connect 57 0 54 0;
#X connect 59 0 58 0;
#X connect 60 0 51 0;
#X connect 60 1 53 0;
#X connect 61 0 57 0;
#X connect 61 1 58 1;
#X connect 62 0 71 0;
#X connect 62 1 65 0;
#X connect 63 0 64 0;
#X connect 63 0 72 0;
#X connect 64 0 63 1;
#X connect 65 0 63 1;
#X connect 66 0 63 0;
#X connect 67 0 73 0;
#X connect 68 0 69 0;
#X connect 70 0 67 0;
#X connect 71 0 66 0;
#X connect 72 0 70 0;
#X connect 72 1 69 1;
#X connect 73 0 68 0;
#X connect 78 0 16 0;
#X connect 79 0 30 0;
#X connect 80 0 46 0;
#X connect 81 0 62 0;
