#N canvas 290 157 1014 661 10;
#X obj 101 118 cnv 15 510 150 empty empty value 100 13 2 17 -249659
-83269 0;
#X obj 172 143 hsl 100 12 0 1 0 0 \$0-pitch \$0-pitch-r pitch -45 7
0 13 -13330 -262144 -4160 0 1;
#X obj 280 143 hsl 100 12 0 1 0 0 \$0-pitch-rnd \$0-pitch-rnd-r random/jitter
-4 -12 2 17 -13330 -262144 -86853 0 1;
#X obj 171 158 hsl 100 12 0 1 0 0 \$0-duration \$0-duration-r duration
-70 7 0 13 -13330 -262144 -4160 0 1;
#X obj 280 158 hsl 100 12 0 1 0 0 \$0-duration-rnd \$0-duration-rnd-r
empty -2 -6 0 10 -13330 -262144 -1 0 1;
#X obj 171 173 hsl 100 12 0 1 0 0 \$0-delay \$0-delay-r delay -45 7
0 13 -13330 -262144 -4160 0 1;
#X obj 280 173 hsl 100 12 0 1 0 0 \$0-delay-rnd \$0-delay-rnd-r empty
-2 -6 0 10 -13330 -262144 -1 0 1;
#X obj 171 189 hsl 100 12 0 1 0 0 \$0-metro \$0-metro-r metro -45 7
0 13 -13330 -262144 -4160 0 1;
#X obj 280 189 hsl 100 12 0 1 0 0 \$0-metro-rnd \$0-metro-rnd-r empty
-2 -6 0 10 -13330 -262144 -1 0 1;
#X obj 500 143 hsl 100 12 0 1 0 0 \$0-envelope \$0-envelope-r empty
-2 -6 0 10 -13330 -262144 -1 0 1;
#X text 529 168 envelope;
#X obj 500 158 hsl 100 12 0 1 0 0 \$0-envelope-exp \$0-envelope-exp-r
empty -2 -6 0 10 -13330 -262144 -1 0 1;
#X obj 446 202 hradio 15 1 0 10 \$0-load \$0-load-r preset -45 7 0
12 -175484 -262144 -1 5;
#X obj 506 183 bng 15 250 50 0 \$0-store rwiuytiuwytriu store 18 8
0 10 -262144 -1 -1;
#X obj 557 183 bng 15 250 50 0 \$0-save troiuyiurtyiutwr save 18 8
0 10 -262144 -1 -1;
#X obj 468 121 cnv 15 140 17 empty empty grannie_basher 0 8 0 16 -258108
-262144 0;
#X text 127 32 delay line granulizer;
#X text 136 48 hard.off@gmail.com;
#X obj 171 204 hsl 100 12 0 1 0 0 \$0-vcf \$0-vcf-r filter -52 7 0
13 -13330 -262144 -4160 0 1;
#X obj 171 234 hsl 100 12 0 1 0 0 \$0-feedback \$0-feedback-r feedback
-68 7 0 13 -13330 -262144 -4160 0 1;
#X obj 388 234 hsl 100 12 0 1 0 0 \$0-feedback-time \$0-feedback-time-r
empty -2 -6 0 10 -13330 -262144 -1 0 1;
#X obj 280 234 hsl 100 12 0 1 0 0 \$0-feedback-rnd \$0-feedback-rnd-r
empty -2 -6 0 10 -13330 -262144 -1 0 1;
#X text 385 218 feedback time;
#X obj 280 203 hsl 100 12 0 1 0 0 \$0-vcf-rnd \$0-vcf-rnd-r empty -2
-6 0 10 -13330 -262144 -1 0 1;
#X obj 496 234 hsl 100 12 0 1 0 0 \$0-feedback-return \$0-feedback-return-r
empty -2 -6 0 10 -13330 -262144 -1 0 1;
#X text 493 218 feedback return;
#X obj 171 219 hsl 100 12 0 1 0 0 \$0-autopan \$0-autopan-r autopan
-60 7 0 13 -13330 -262144 -4160 0 1;
#X obj 280 219 hsl 100 12 0 1 0 0 \$0-autopan-rnd \$0-autopan-rnd-r
empty -2 -6 0 10 -13330 -262144 -1 0 1;
#X obj 171 249 hsl 100 12 0 1 0 0 \$0-feedback-lfo \$0-feedback-lfo-r
fb-lfo -52 7 0 13 -13330 -262144 -4160 0 1;
#X obj 280 249 hsl 100 12 0 1 0 0 \$0-feedback-lfo-rnd \$0-feedback-lfo-rnd-r
empty -2 -6 0 10 -13330 -262144 -1 0 1;
#X obj 388 249 hsl 100 12 0 1 0 0 \$0-feedback-lfo-depth \$0-feedback-lfo-depth-r
empty -2 -6 0 10 -13330 -262144 -1 0 1;
#N canvas 0 22 450 300 (subpatch) 0;
#X array \$0-env 100 float 0;
#X coords 0 1 99 0 100 40 1;
#X restore 393 143 graph;
#X text 490 248 <--depth;
#X obj 62 287 inlet~;
#X obj 73 587 outlet~;
#X obj 126 586 outlet~;
#X obj 124 334 delwrite~ \$0-L-delayline 10000;
#X obj 247 291 inlet~;
#X obj 313 333 delwrite~ \$0-R-delayline 10000;
#N canvas 107 67 1252 771 code 0;
#X msg 28 144 100;
#X obj 55 275 moses 50;
#X obj 55 344 / 50;
#X obj 28 246 t f f;
#X obj 28 608 pack 0 0;
#X obj 100 343 - 100;
#X obj 101 364 abs;
#X obj 101 385 / 50;
#X obj 137 343 - 100;
#X obj 138 364 abs;
#X obj 28 77 t b f;
#X obj 102 417 expr (0.5 * $f1) + 0.5;
#X obj 101 461 cos;
#X obj 101 442 * 6.28318;
#X obj 101 482 * 0.5;
#X obj 101 502 + 0.5;
#X obj 28 631 s \$0-env;
#X obj 28 16 r \$0-envelope;
#X obj 28 36 * 90;
#X obj 28 56 + 5;
#X msg 288 390 \; \$1-go bang;
#X obj 288 349 f;
#X obj 316 349 + 1;
#X obj 316 369 mod 16;
#X obj 360 262 * 10000;
#X obj 277 39 r \$0-metro;
#X obj 404 212 r \$0-metro-rnd;
#X obj 278 100 * 1000;
#X obj 278 78 clip 0.01 1;
#X obj 403 230 pow 3;
#X obj 277 59 pow 3;
#X obj 278 194 delay;
#X obj 269 15 loadbang;
#X msg 290 169 stop;
#X obj 269 259 t b b b;
#X obj 269 239 metro 1000;
#X obj 315 284 random 0;
#X obj 145 485 t b f;
#X obj 101 581 pow 1;
#X obj 172 528 + 1;
#X obj 145 462 r \$0-envelope-exp;
#X obj 172 549 pow 4;
#X obj 507 15 r \$0-load;
#X obj 507 38 t b f;
#X obj 553 190 tabread \$0-allpreset;
#X obj 507 147 t f f;
#X obj 508 211 pack 0 0;
#X obj 508 382 s \$0-pitch-r;
#X obj 523 360 s \$0-pitch-rnd-r;
#X obj 539 339 s \$0-duration-r;
#X obj 555 316 s \$0-duration-rnd-r;
#X obj 570 290 s \$0-delay-r;
#X obj 586 268 s \$0-delay-rnd-r;
#X obj 602 425 s \$0-metro-r;
#X obj 617 402 s \$0-metro-rnd-r;
#X obj 633 380 s \$0-envelope-r;
#X obj 649 358 s \$0-envelope-exp-r;
#X obj 534 167 +;
#X obj 267 642 t f f;
#X obj 268 525 r \$0-store;
#X obj 312 665 tabread \$0-preset;
#X obj 267 689 pack 0 0;
#X obj 267 709 s \$0-storehouse;
#X obj 288 328 delay;
#X obj 315 305 / 10;
#X obj 360 229 t b f;
#X obj 268 454 table \$0-preset 22;
#X obj 268 499 table \$0-storehouse 22;
#X msg 507 60 22;
#X obj 549 59 * 22;
#X msg 268 545 22;
#X obj 508 231 route 0 1 2 3 4 5 6 7 8 9 10 11 12 13 14 15 16 17 18
19 20 21;
#X obj 664 339 s \$0-vcf-r;
#X obj 680 316 s \$0-vcf-rnd-r;
#X obj 696 294 s \$0-autopan-r;
#X obj 711 271 s \$0-autopan-rnd-r;
#X obj 727 425 s \$0-feedback-r;
#X obj 743 401 s \$0-feedback-rnd-r;
#X obj 758 379 s \$0-feedback-time-r;
#X obj 774 357 s \$0-feedback-return-r;
#X obj 790 335 s \$0-feedback-lfo-r;
#X obj 805 313 s \$0-feedback-lfo-rnd-r;
#X obj 821 292 s \$0-feedback-lfo-depth-r;
#X obj 837 270 s \$0-mix-r;
#N canvas 0 22 454 304 untils 0;
#X obj 261 160 f;
#X obj 288 162 + 1;
#X obj 261 138 until;
#X msg 299 132 0;
#X obj 261 107 t f b;
#X obj 261 78 inlet;
#X obj 261 190 outlet;
#X connect 0 0 1 0;
#X connect 0 0 6 0;
#X connect 1 0 0 1;
#X connect 2 0 0 0;
#X connect 3 0 0 1;
#X connect 4 0 2 0;
#X connect 4 1 3 0;
#X connect 5 0 4 0;
#X restore 541 565 pd untils;
#X obj 541 586 t f f;
#X obj 541 628 pack 0 0;
#X obj 541 607 +;
#X obj 586 606 tabread \$0-storehouse;
#X obj 541 649 s \$0-allpreset;
#X obj 507 453 r \$0-save;
#X obj 507 718 s \$0-allpreset;
#X obj 507 518 t b b b f;
#X obj 524 672 s \$0-load-r;
#X obj 507 497 f;
#X obj 522 476 r \$0-load;
#X msg 541 544 22;
#X obj 570 544 * 22;
#X obj 634 514 s \$0-allpreset;
#X obj 607 454 loadbang;
#X obj 607 474 t b b;
#X obj 607 534 s \$0-load-r;
#X obj 268 476 table \$0-allpreset 220;
#X obj 269 424 s \$0-metro-stop;
#X obj 290 146 r \$0-metro-stop;
#X obj 288 124 s \$0-metro-clip;
#X obj 326 169 r \$0-metro-clip;
#X obj 360 192 r \$0-metro-clip;
#X obj 55 97 s \$0-envelope-flt;
#X obj 137 322 r \$0-envelope-flt;
#X obj 100 254 r \$0-envelope-flt;
#X obj 76 302 r \$0-envelope-flt;
#X obj 145 507 s \$0-envelope-bng;
#X obj 42 120 r \$0-envelope-bng;
#X msg 507 697 write snd.fx.grainbash~.txt;
#X msg 634 494 read snd.fx.grainbash~.txt;
#X obj 28 220 f;
#X obj 55 220 + 1;
#X obj 28 198 until;
#X msg 66 192 0;
#X obj 28 167 t f b;
#X obj 268 622 f;
#X obj 295 621 + 1;
#X obj 268 597 until;
#X msg 306 591 0;
#X obj 268 566 t f b;
#X obj 507 125 f;
#X obj 534 127 + 1;
#X obj 507 103 until;
#X msg 545 103 0;
#X obj 507 81 t f b;
#X obj 888 411 r \$0-pitch;
#X msg 888 432 0 \$1;
#X obj 888 454 s \$0-preset;
#X obj 957 411 r \$0-pitch-rnd;
#X obj 962 453 s \$0-preset;
#X msg 962 431 1 \$1;
#X obj 889 518 s \$0-preset;
#X obj 981 519 s \$0-preset;
#X obj 889 475 r \$0-duration;
#X obj 976 477 r \$0-duration-rnd;
#X msg 888 495 2 \$1;
#X msg 981 497 3 \$1;
#X obj 888 583 s \$0-preset;
#X obj 962 582 s \$0-preset;
#X obj 889 647 s \$0-preset;
#X obj 981 648 s \$0-preset;
#X obj 888 540 r \$0-delay;
#X obj 956 540 r \$0-delay-rnd;
#X msg 887 561 4 \$1;
#X msg 961 559 5 \$1;
#X obj 889 604 r \$0-metro;
#X obj 976 606 r \$0-metro-rnd;
#X msg 887 623 6 \$1;
#X msg 982 626 7 \$1;
#X obj 887 713 s \$0-preset;
#X obj 979 714 s \$0-preset;
#X obj 887 670 r \$0-envelope;
#X msg 888 691 8 \$1;
#X obj 974 671 r \$0-envelope-exp;
#X msg 980 691 9 \$1;
#X obj 696 36 r \$0-vcf;
#X obj 705 83 r \$0-vcf-rnd;
#X obj 715 131 r \$0-autopan;
#X obj 756 35 r \$0-autopan-rnd;
#X obj 954 130 r \$0-feedback-lfo;
#X obj 1073 36 r \$0-feedback-lfo-rnd;
#X obj 1074 83 r \$0-feedback-lfo-depth;
#X obj 788 83 r \$0-feedback;
#X obj 801 133 r \$0-feedback-rnd;
#X obj 934 38 r \$0-feedback-time;
#X obj 943 82 r \$0-feedback-return;
#X msg 696 60 10 \$1;
#X msg 705 107 11 \$1;
#X msg 715 154 12 \$1;
#X msg 756 62 13 \$1;
#X msg 788 107 14 \$1;
#X msg 802 155 15 \$1;
#X msg 933 61 16 \$1;
#X msg 943 107 17 \$1;
#X msg 954 153 18 \$1;
#X msg 1073 61 19 \$1;
#X msg 1074 107 20 \$1;
#X msg 1070 156 21 \$1;
#X obj 1070 132 r \$0-mix;
#X obj 696 190 s \$0-preset;
#X obj 932 192 s \$0-preset;
#X connect 0 0 120 0;
#X connect 1 0 2 0;
#X connect 1 1 5 0;
#X connect 2 0 11 0;
#X connect 3 0 4 0;
#X connect 3 1 1 0;
#X connect 4 0 16 0;
#X connect 5 0 6 0;
#X connect 6 0 7 0;
#X connect 7 0 11 0;
#X connect 8 0 9 0;
#X connect 9 0 7 1;
#X connect 10 0 0 0;
#X connect 10 1 108 0;
#X connect 11 0 13 0;
#X connect 12 0 14 0;
#X connect 13 0 12 0;
#X connect 14 0 15 0;
#X connect 15 0 38 0;
#X connect 17 0 18 0;
#X connect 18 0 19 0;
#X connect 19 0 10 0;
#X connect 21 0 22 0;
#X connect 21 0 20 0;
#X connect 22 0 23 0;
#X connect 23 0 21 1;
#X connect 24 0 36 1;
#X connect 25 0 30 0;
#X connect 26 0 29 0;
#X connect 27 0 31 0;
#X connect 27 0 105 0;
#X connect 28 0 27 0;
#X connect 29 0 24 0;
#X connect 30 0 28 0;
#X connect 31 0 35 0;
#X connect 32 0 35 0;
#X connect 33 0 31 0;
#X connect 34 0 103 0;
#X connect 34 1 63 0;
#X connect 34 2 36 0;
#X connect 35 0 34 0;
#X connect 36 0 64 0;
#X connect 37 0 112 0;
#X connect 37 1 39 0;
#X connect 38 0 4 1;
#X connect 39 0 41 0;
#X connect 40 0 37 0;
#X connect 41 0 38 1;
#X connect 42 0 43 0;
#X connect 43 0 68 0;
#X connect 43 1 69 0;
#X connect 44 0 46 1;
#X connect 45 0 46 0;
#X connect 45 1 57 0;
#X connect 46 0 71 0;
#X connect 57 0 44 0;
#X connect 58 0 61 0;
#X connect 58 1 60 0;
#X connect 59 0 70 0;
#X connect 60 0 61 1;
#X connect 61 0 62 0;
#X connect 63 0 21 0;
#X connect 64 0 63 1;
#X connect 65 0 24 0;
#X connect 65 1 24 1;
#X connect 68 0 130 0;
#X connect 69 0 57 1;
#X connect 70 0 125 0;
#X connect 71 0 47 0;
#X connect 71 1 48 0;
#X connect 71 2 49 0;
#X connect 71 3 50 0;
#X connect 71 4 51 0;
#X connect 71 5 52 0;
#X connect 71 6 53 0;
#X connect 71 7 54 0;
#X connect 71 8 55 0;
#X connect 71 9 56 0;
#X connect 71 10 72 0;
#X connect 71 11 73 0;
#X connect 71 12 74 0;
#X connect 71 13 75 0;
#X connect 71 14 76 0;
#X connect 71 15 77 0;
#X connect 71 16 78 0;
#X connect 71 17 79 0;
#X connect 71 18 80 0;
#X connect 71 19 81 0;
#X connect 71 20 82 0;
#X connect 71 21 83 0;
#X connect 84 0 85 0;
#X connect 85 0 87 0;
#X connect 85 1 88 0;
#X connect 86 0 89 0;
#X connect 87 0 86 0;
#X connect 88 0 86 1;
#X connect 90 0 94 0;
#X connect 92 0 114 0;
#X connect 92 1 93 0;
#X connect 92 2 96 0;
#X connect 92 3 97 0;
#X connect 94 0 92 0;
#X connect 95 0 94 1;
#X connect 96 0 84 0;
#X connect 97 0 87 1;
#X connect 99 0 100 0;
#X connect 100 0 101 0;
#X connect 100 1 115 0;
#X connect 104 0 33 0;
#X connect 106 0 35 1;
#X connect 107 0 65 0;
#X connect 109 0 8 0;
#X connect 110 0 1 1;
#X connect 111 0 2 1;
#X connect 113 0 0 0;
#X connect 114 0 91 0;
#X connect 115 0 98 0;
#X connect 116 0 117 0;
#X connect 116 0 3 0;
#X connect 117 0 116 1;
#X connect 118 0 116 0;
#X connect 119 0 116 1;
#X connect 120 0 118 0;
#X connect 120 1 119 0;
#X connect 121 0 122 0;
#X connect 121 0 58 0;
#X connect 122 0 121 1;
#X connect 123 0 121 0;
#X connect 124 0 121 1;
#X connect 125 0 123 0;
#X connect 125 1 124 0;
#X connect 126 0 127 0;
#X connect 126 0 45 0;
#X connect 127 0 126 1;
#X connect 128 0 126 0;
#X connect 129 0 126 1;
#X connect 130 0 128 0;
#X connect 130 1 129 0;
#X connect 131 0 132 0;
#X connect 132 0 133 0;
#X connect 134 0 136 0;
#X connect 136 0 135 0;
#X connect 139 0 141 0;
#X connect 140 0 142 0;
#X connect 141 0 137 0;
#X connect 142 0 138 0;
#X connect 147 0 149 0;
#X connect 148 0 150 0;
#X connect 149 0 143 0;
#X connect 150 0 144 0;
#X connect 151 0 153 0;
#X connect 152 0 154 0;
#X connect 153 0 145 0;
#X connect 154 0 146 0;
#X connect 157 0 158 0;
#X connect 158 0 155 0;
#X connect 159 0 160 0;
#X connect 160 0 156 0;
#X connect 161 0 172 0;
#X connect 162 0 173 0;
#X connect 163 0 174 0;
#X connect 164 0 175 0;
#X connect 165 0 180 0;
#X connect 166 0 181 0;
#X connect 167 0 182 0;
#X connect 168 0 176 0;
#X connect 169 0 177 0;
#X connect 170 0 178 0;
#X connect 171 0 179 0;
#X connect 172 0 185 0;
#X connect 173 0 185 0;
#X connect 174 0 185 0;
#X connect 175 0 185 0;
#X connect 176 0 185 0;
#X connect 177 0 185 0;
#X connect 178 0 186 0;
#X connect 179 0 186 0;
#X connect 180 0 186 0;
#X connect 181 0 186 0;
#X connect 182 0 186 0;
#X connect 183 0 186 0;
#X connect 184 0 183 0;
#X restore 437 394 pd code;
#X obj 549 258 hsl 60 10 0 1 0 0 \$0-mix \$0-mix-r mix 17 -6 0 12 -16662
-262144 -4160 0 1;
#X obj 67 452 *~;
#X obj 94 452 *~;
#X obj 227 363 r \$0-mix;
#X obj 180 526 *~;
#X obj 275 524 *~;
#X obj 276 503 catch~ \$0-Right;
#X obj 180 503 catch~ \$0-Left;
#X obj 229 406 line~;
#X msg 227 385 \$1 20;
#X obj 160 409 -~ 1;
#X obj 160 429 *~ -1;
#X obj 160 448 *~ 2;
#X obj 162 469 min~ 1;
#X obj 242 440 *~ 2;
#X obj 241 461 min~ 1;
#X obj 687 100 inlet;
#X obj 688 200 s \$0-mix-r;
#X obj 688 177 / 100;
#X obj 729 178 s \$0-load-r;
#X text 603 312 to do - rrandomize all slidrs to metro wiht variable
line - no gui option;
#N canvas 146 45 1097 720 \$0-randomizer 0;
#X obj 47 24 inlet;
#X obj 46 238 s \$0-pitch-r;
#X obj 46 193 line;
#X obj 46 215 / 100;
#X obj 91 129 random 100;
#X obj 46 151 pack 0 0;
#X msg 46 172 \$2 \$1;
#X obj 46 107 t f b;
#X obj 47 54 s \$0-rndlength;
#X obj 46 85 r \$0-rndlength;
#X obj 289 236 s \$0-duration-r;
#X obj 409 236 s \$0-duration-rnd-r;
#X obj 541 236 s \$0-delay-r;
#X obj 664 234 s \$0-delay-rnd-r;
#X obj 794 233 s \$0-metro-r;
#X obj 921 233 s \$0-metro-rnd-r;
#X obj 407 607 s \$0-envelope-r;
#X obj 539 604 s \$0-envelope-exp-r;
#X obj 43 421 s \$0-vcf-r;
#X obj 165 416 s \$0-vcf-rnd-r;
#X obj 286 418 s \$0-autopan-r;
#X obj 406 422 s \$0-autopan-rnd-r;
#X obj 537 419 s \$0-feedback-r;
#X obj 662 419 s \$0-feedback-rnd-r;
#X obj 794 418 s \$0-feedback-time-r;
#X obj 930 416 s \$0-feedback-return-r;
#X obj 44 681 s \$0-feedback-lfo-r;
#X obj 165 657 s \$0-feedback-lfo-rnd-r;
#X obj 287 635 s \$0-feedback-lfo-depth-r;
#X obj 167 192 line;
#X obj 167 214 / 100;
#X obj 212 128 random 100;
#X obj 167 150 pack 0 0;
#X msg 167 171 \$2 \$1;
#X obj 167 106 t f b;
#X obj 167 84 r \$0-rndlength;
#X obj 167 237 s \$0-pitch-rnd-r;
#X obj 289 190 line;
#X obj 289 212 / 100;
#X obj 334 126 random 100;
#X obj 289 148 pack 0 0;
#X msg 289 169 \$2 \$1;
#X obj 289 104 t f b;
#X obj 289 82 r \$0-rndlength;
#X obj 409 190 line;
#X obj 409 212 / 100;
#X obj 454 126 random 100;
#X obj 409 148 pack 0 0;
#X msg 409 169 \$2 \$1;
#X obj 409 104 t f b;
#X obj 409 82 r \$0-rndlength;
#X msg 123 24 1000;
#X obj 541 189 line;
#X obj 541 211 / 100;
#X obj 586 125 random 100;
#X obj 541 147 pack 0 0;
#X msg 541 168 \$2 \$1;
#X obj 541 103 t f b;
#X obj 541 81 r \$0-rndlength;
#X obj 664 188 line;
#X obj 664 210 / 100;
#X obj 709 124 random 100;
#X obj 664 146 pack 0 0;
#X msg 664 167 \$2 \$1;
#X obj 664 102 t f b;
#X obj 664 80 r \$0-rndlength;
#X obj 797 186 line;
#X obj 797 208 / 100;
#X obj 842 122 random 100;
#X obj 797 144 pack 0 0;
#X msg 797 165 \$2 \$1;
#X obj 797 100 t f b;
#X obj 797 78 r \$0-rndlength;
#X obj 920 185 line;
#X obj 920 207 / 100;
#X obj 965 121 random 100;
#X obj 920 143 pack 0 0;
#X msg 920 164 \$2 \$1;
#X obj 920 99 t f b;
#X obj 920 77 r \$0-rndlength;
#X obj 44 374 line;
#X obj 44 396 / 100;
#X obj 89 310 random 100;
#X obj 44 332 pack 0 0;
#X msg 44 353 \$2 \$1;
#X obj 44 288 t f b;
#X obj 44 266 r \$0-rndlength;
#X obj 165 373 line;
#X obj 165 395 / 100;
#X obj 210 309 random 100;
#X obj 165 331 pack 0 0;
#X msg 165 352 \$2 \$1;
#X obj 165 287 t f b;
#X obj 165 265 r \$0-rndlength;
#X obj 287 371 line;
#X obj 287 393 / 100;
#X obj 332 307 random 100;
#X obj 287 329 pack 0 0;
#X msg 287 350 \$2 \$1;
#X obj 287 285 t f b;
#X obj 287 263 r \$0-rndlength;
#X obj 407 371 line;
#X obj 407 393 / 100;
#X obj 452 307 random 100;
#X obj 407 329 pack 0 0;
#X msg 407 350 \$2 \$1;
#X obj 407 285 t f b;
#X obj 407 263 r \$0-rndlength;
#X obj 539 370 line;
#X obj 539 392 / 100;
#X obj 584 306 random 100;
#X obj 539 328 pack 0 0;
#X msg 539 349 \$2 \$1;
#X obj 539 284 t f b;
#X obj 539 262 r \$0-rndlength;
#X obj 662 369 line;
#X obj 662 391 / 100;
#X obj 707 305 random 100;
#X obj 662 327 pack 0 0;
#X msg 662 348 \$2 \$1;
#X obj 662 283 t f b;
#X obj 662 261 r \$0-rndlength;
#X obj 795 367 line;
#X obj 795 389 / 100;
#X obj 840 303 random 100;
#X obj 795 325 pack 0 0;
#X msg 795 346 \$2 \$1;
#X obj 795 281 t f b;
#X obj 795 259 r \$0-rndlength;
#X obj 918 366 line;
#X obj 918 388 / 100;
#X obj 963 302 random 100;
#X obj 918 324 pack 0 0;
#X msg 918 345 \$2 \$1;
#X obj 918 280 t f b;
#X obj 918 258 r \$0-rndlength;
#X obj 44 564 line;
#X obj 44 586 / 100;
#X obj 89 500 random 100;
#X obj 44 522 pack 0 0;
#X msg 44 543 \$2 \$1;
#X obj 44 478 t f b;
#X obj 44 456 r \$0-rndlength;
#X obj 165 563 line;
#X obj 165 585 / 100;
#X obj 210 499 random 100;
#X obj 165 521 pack 0 0;
#X msg 165 542 \$2 \$1;
#X obj 165 477 t f b;
#X obj 165 455 r \$0-rndlength;
#X obj 287 561 line;
#X obj 287 583 / 100;
#X obj 332 497 random 100;
#X obj 287 519 pack 0 0;
#X msg 287 540 \$2 \$1;
#X obj 287 475 t f b;
#X obj 287 453 r \$0-rndlength;
#X obj 407 561 line;
#X obj 407 583 / 100;
#X obj 452 497 random 100;
#X obj 407 519 pack 0 0;
#X msg 407 540 \$2 \$1;
#X obj 407 475 t f b;
#X obj 407 453 r \$0-rndlength;
#X obj 539 560 line;
#X obj 539 582 / 100;
#X obj 584 496 random 100;
#X obj 539 518 pack 0 0;
#X msg 539 539 \$2 \$1;
#X obj 539 474 t f b;
#X obj 539 452 r \$0-rndlength;
#X connect 0 0 8 0;
#X connect 2 0 3 0;
#X connect 3 0 1 0;
#X connect 4 0 5 1;
#X connect 5 0 6 0;
#X connect 6 0 2 0;
#X connect 7 0 5 0;
#X connect 7 1 4 0;
#X connect 9 0 7 0;
#X connect 29 0 30 0;
#X connect 30 0 36 0;
#X connect 31 0 32 1;
#X connect 32 0 33 0;
#X connect 33 0 29 0;
#X connect 34 0 32 0;
#X connect 34 1 31 0;
#X connect 35 0 34 0;
#X connect 37 0 38 0;
#X connect 38 0 10 0;
#X connect 39 0 40 1;
#X connect 40 0 41 0;
#X connect 41 0 37 0;
#X connect 42 0 40 0;
#X connect 42 1 39 0;
#X connect 43 0 42 0;
#X connect 44 0 45 0;
#X connect 45 0 11 0;
#X connect 46 0 47 1;
#X connect 47 0 48 0;
#X connect 48 0 44 0;
#X connect 49 0 47 0;
#X connect 49 1 46 0;
#X connect 50 0 49 0;
#X connect 51 0 8 0;
#X connect 52 0 53 0;
#X connect 53 0 12 0;
#X connect 54 0 55 1;
#X connect 55 0 56 0;
#X connect 56 0 52 0;
#X connect 57 0 55 0;
#X connect 57 1 54 0;
#X connect 58 0 57 0;
#X connect 59 0 60 0;
#X connect 60 0 13 0;
#X connect 61 0 62 1;
#X connect 62 0 63 0;
#X connect 63 0 59 0;
#X connect 64 0 62 0;
#X connect 64 1 61 0;
#X connect 65 0 64 0;
#X connect 66 0 67 0;
#X connect 67 0 14 0;
#X connect 68 0 69 1;
#X connect 69 0 70 0;
#X connect 70 0 66 0;
#X connect 71 0 69 0;
#X connect 71 1 68 0;
#X connect 72 0 71 0;
#X connect 73 0 74 0;
#X connect 74 0 15 0;
#X connect 75 0 76 1;
#X connect 76 0 77 0;
#X connect 77 0 73 0;
#X connect 78 0 76 0;
#X connect 78 1 75 0;
#X connect 79 0 78 0;
#X connect 80 0 81 0;
#X connect 81 0 18 0;
#X connect 82 0 83 1;
#X connect 83 0 84 0;
#X connect 84 0 80 0;
#X connect 85 0 83 0;
#X connect 85 1 82 0;
#X connect 86 0 85 0;
#X connect 87 0 88 0;
#X connect 88 0 19 0;
#X connect 89 0 90 1;
#X connect 90 0 91 0;
#X connect 91 0 87 0;
#X connect 92 0 90 0;
#X connect 92 1 89 0;
#X connect 93 0 92 0;
#X connect 94 0 95 0;
#X connect 95 0 20 0;
#X connect 96 0 97 1;
#X connect 97 0 98 0;
#X connect 98 0 94 0;
#X connect 99 0 97 0;
#X connect 99 1 96 0;
#X connect 100 0 99 0;
#X connect 101 0 102 0;
#X connect 102 0 21 0;
#X connect 103 0 104 1;
#X connect 104 0 105 0;
#X connect 105 0 101 0;
#X connect 106 0 104 0;
#X connect 106 1 103 0;
#X connect 107 0 106 0;
#X connect 108 0 109 0;
#X connect 109 0 22 0;
#X connect 110 0 111 1;
#X connect 111 0 112 0;
#X connect 112 0 108 0;
#X connect 113 0 111 0;
#X connect 113 1 110 0;
#X connect 114 0 113 0;
#X connect 115 0 116 0;
#X connect 116 0 23 0;
#X connect 117 0 118 1;
#X connect 118 0 119 0;
#X connect 119 0 115 0;
#X connect 120 0 118 0;
#X connect 120 1 117 0;
#X connect 121 0 120 0;
#X connect 122 0 123 0;
#X connect 123 0 24 0;
#X connect 124 0 125 1;
#X connect 125 0 126 0;
#X connect 126 0 122 0;
#X connect 127 0 125 0;
#X connect 127 1 124 0;
#X connect 128 0 127 0;
#X connect 129 0 130 0;
#X connect 130 0 25 0;
#X connect 131 0 132 1;
#X connect 132 0 133 0;
#X connect 133 0 129 0;
#X connect 134 0 132 0;
#X connect 134 1 131 0;
#X connect 135 0 134 0;
#X connect 136 0 137 0;
#X connect 137 0 26 0;
#X connect 138 0 139 1;
#X connect 139 0 140 0;
#X connect 140 0 136 0;
#X connect 141 0 139 0;
#X connect 141 1 138 0;
#X connect 142 0 141 0;
#X connect 143 0 144 0;
#X connect 144 0 27 0;
#X connect 145 0 146 1;
#X connect 146 0 147 0;
#X connect 147 0 143 0;
#X connect 148 0 146 0;
#X connect 148 1 145 0;
#X connect 149 0 148 0;
#X connect 150 0 151 0;
#X connect 151 0 28 0;
#X connect 152 0 153 1;
#X connect 153 0 154 0;
#X connect 154 0 150 0;
#X connect 155 0 153 0;
#X connect 155 1 152 0;
#X connect 156 0 155 0;
#X connect 157 0 158 0;
#X connect 158 0 16 0;
#X connect 159 0 160 1;
#X connect 160 0 161 0;
#X connect 161 0 157 0;
#X connect 162 0 160 0;
#X connect 162 1 159 0;
#X connect 163 0 162 0;
#X connect 164 0 165 0;
#X connect 165 0 17 0;
#X connect 166 0 167 1;
#X connect 167 0 168 0;
#X connect 168 0 164 0;
#X connect 169 0 167 0;
#X connect 169 1 166 0;
#X connect 170 0 169 0;
#X restore 770 154 pd \$0-randomizer;
#X obj 688 130 route mix load random;
#X obj 398 432 fx.grainbash~-ab 0 \$0 \$0-L;
#X obj 417 452 fx.grainbash~-ab 2 \$0 \$0-L;
#X obj 430 473 fx.grainbash~-ab 4 \$0 \$0-L;
#X obj 446 494 fx.grainbash~-ab 6 \$0 \$0-L;
#X obj 458 515 fx.grainbash~-ab 8 \$0 \$0-L;
#X obj 476 535 fx.grainbash~-ab 10 \$0 \$0-L;
#X obj 489 555 fx.grainbash~-ab 12 \$0 \$0-L;
#X obj 505 576 fx.grainbash~-ab 14 \$0 \$0-L;
#X obj 639 444 fx.grainbash~-ab 1 \$0 \$0-R;
#X obj 648 467 fx.grainbash~-ab 3 \$0 \$0-R;
#X obj 660 489 fx.grainbash~-ab 5 \$0 \$0-R;
#X obj 677 508 fx.grainbash~-ab 7 \$0 \$0-R;
#X obj 689 529 fx.grainbash~-ab 9 \$0 \$0-R;
#X obj 706 549 fx.grainbash~-ab 11 \$0 \$0-R;
#X obj 720 572 fx.grainbash~-ab 13 \$0 \$0-R;
#X obj 735 591 fx.grainbash~-ab 15 \$0 \$0-R;
#X connect 33 0 36 0;
#X connect 33 0 41 0;
#X connect 37 0 38 0;
#X connect 37 0 42 0;
#X connect 41 0 34 0;
#X connect 42 0 35 0;
#X connect 43 0 49 0;
#X connect 44 0 34 0;
#X connect 45 0 35 0;
#X connect 46 0 45 0;
#X connect 47 0 44 0;
#X connect 48 0 50 0;
#X connect 48 0 54 0;
#X connect 49 0 48 0;
#X connect 50 0 51 0;
#X connect 51 0 52 0;
#X connect 52 0 53 0;
#X connect 53 0 42 1;
#X connect 53 0 41 1;
#X connect 54 0 55 0;
#X connect 55 0 44 1;
#X connect 55 0 45 1;
#X connect 56 0 62 0;
#X connect 58 0 57 0;
#X connect 62 0 58 0;
#X connect 62 1 59 0;
#X connect 62 2 61 0;
#X coords 0 -1 1 1 512 172 1 100 100;
