#N canvas 568 138 776 535 10;
#X obj 283 425 dac~;
#X msg 551 183 random \$1;
#X msg 566 129 1000;
#X msg 562 104 0;
#X msg 568 154 5000;
#X obj 298 110 readsf~;
#X msg 314 80 0;
#X obj 337 132 s \$0-playloop;
#X obj 298 33 r \$0-playloop;
#X msg 298 57 open _samples/satie.wav \, 1;
#X msg 678 282 mix \$1;
#X floatatom 671 253 5 0 100 0 - - -, f 5;
#X msg 675 191 load \$1;
#X floatatom 675 166 5 0 0 0 - - -, f 5;
#X obj 46 214 fx.grainbash~;
#X connect 1 0 14 2;
#X connect 2 0 1 0;
#X connect 3 0 1 0;
#X connect 4 0 1 0;
#X connect 5 0 14 0;
#X connect 5 0 14 1;
#X connect 5 1 7 0;
#X connect 6 0 5 0;
#X connect 8 0 9 0;
#X connect 9 0 5 0;
#X connect 10 0 14 2;
#X connect 11 0 10 0;
#X connect 12 0 14 2;
#X connect 13 0 12 0;
#X connect 14 0 0 0;
#X connect 14 1 0 1;
#X coords 0 0 1 1 400 140 0;
