#N canvas 123 41 648 555 12;
#X obj 74 368 outlet~;
#X obj 47 21 inlet~;
#X obj 382 36 vsl 15 128 1 127 0 0 empty karplus-strong-base-freq empty
0 -8 0 8 -262144 -1 -1 0 1;
#X obj 24 197 +~;
#X obj 56 247 +~;
#X obj 205 15 hsl 128 15 0.9 0.999 0 0 empty karplus-strong-feedback
empty -2 -6 0 8 -262144 -1 -1 0 1;
#X floatatom 202 32 5 0 0 3 feedback - -, f 5;
#X obj 378 172 int;
#X floatatom 377 198 5 0 0 3 midi - -, f 5;
#X obj 75 305 clip~ -1 1;
#X obj 47 45 *~ 0.2;
#N canvas 114 100 482 393 note 0;
#X obj 78 44 inlet;
#X floatatom 80 71 5 0 0 0 - - -, f 5;
#X floatatom 173 121 5 0 0 0 - - -, f 5;
#X floatatom 293 120 5 0 0 0 - - -, f 5;
#X floatatom 157 168 5 0 0 0 - - -, f 5;
#X floatatom 255 170 5 0 0 0 - - -, f 5;
#X obj 189 16 loadbang;
#X obj 64 217 mtof;
#X obj 64 288 outlet;
#X text 23 -2 converte midi in Hz;
#X obj 150 97 bng 15 250 50 0 empty empty empty 0 -6 0 8 -262144 -1
-1;
#X obj 261 101 bng 15 250 50 0 empty empty empty 0 -6 0 8 -262144 -1
-1;
#X msg 64 241 \$1 1000;
#X obj 64 265 line;
#X obj 155 215 mtof;
#X obj 155 286 outlet;
#X msg 155 239 \$1 1000;
#X obj 155 263 line;
#X obj 246 217 mtof;
#X obj 246 288 outlet;
#X msg 246 241 \$1 1000;
#X obj 246 265 line;
#X obj 152 145 +;
#X obj 247 147 +;
#X text 293 43 defaults;
#X msg 186 44 12;
#X msg 252 45 24;
#X obj 300 70 r karplus-strong-diff1;
#X obj 352 91 r karplus-strong-diff2;
#X connect 0 0 1 0;
#X connect 1 0 7 0;
#X connect 1 0 22 0;
#X connect 1 0 23 0;
#X connect 2 0 22 1;
#X connect 3 0 23 1;
#X connect 6 0 25 0;
#X connect 6 0 26 0;
#X connect 7 0 12 0;
#X connect 10 0 22 0;
#X connect 11 0 23 0;
#X connect 12 0 13 0;
#X connect 13 0 8 0;
#X connect 14 0 16 0;
#X connect 16 0 17 0;
#X connect 17 0 15 0;
#X connect 18 0 20 0;
#X connect 20 0 21 0;
#X connect 21 0 19 0;
#X connect 22 0 4 0;
#X connect 22 0 14 0;
#X connect 23 0 5 0;
#X connect 23 0 18 0;
#X connect 25 0 2 0;
#X connect 26 0 3 0;
#X connect 27 0 2 0;
#X connect 27 0 10 0;
#X connect 28 0 3 0;
#X connect 28 0 11 0;
#X restore 206 93 pd note;
#X text 198 75 modifica qui;
#N canvas 126 40 586 482 presets 0;
#X msg 33 215 \; karplus-strong-diff1 10 \; karplus-strong-diff2 15
\;;
#X msg 35 134 \; karplus-strong-diff1 11 \; karplus-strong-diff2 16
\;;
#X msg 31 301 \; karplus-strong-diff1 5 \; karplus-strong-diff2 8 \;
;
#X msg 257 48 \; karplus-strong-diff1 1 \; karplus-strong-diff2 2 \;
;
#X text 261 27 cluster;
#X msg 255 129 \; karplus-strong-diff1 2 \; karplus-strong-diff2 3
\;;
#X text 260 108 2M 3m;
#X msg 257 214 \; karplus-strong-diff1 -1 \; karplus-strong-diff2 3
\;;
#X text 36 113 7M 3M;
#X text 37 195 7m 3m;
#X text 34 280 4 6m;
#X text 262 193 -2m 3m;
#X msg 257 303 \; karplus-strong-diff1 3 \; karplus-strong-diff2 4
\;;
#X text 262 282 3M 4G;
#X msg 255 383 \; karplus-strong-diff1 6 \; karplus-strong-diff2 12
\;;
#X text 260 363 4aug 8;
#X msg 38 385 \; karplus-strong-diff1 7 \; karplus-strong-diff2 18
\;;
#X text 43 365 5 4aug;
#X msg 38 48 \; karplus-strong-diff1 12 \; karplus-strong-diff2 19
\;;
#X text 40 27 8 5;
#X restore 320 302 pd presets;
#X obj 111 216 fx.karplusres~;
#X obj 85 174 fx.karplusres~;
#X obj 29 138 fx.karplusres~;
#X connect 1 0 10 0;
#X connect 2 0 7 0;
#X connect 3 0 4 0;
#X connect 4 0 9 0;
#X connect 5 0 6 0;
#X connect 5 0 14 1;
#X connect 5 0 15 1;
#X connect 5 0 16 1;
#X connect 7 0 8 0;
#X connect 7 0 11 0;
#X connect 9 0 0 0;
#X connect 10 0 14 0;
#X connect 10 0 15 0;
#X connect 10 0 16 0;
#X connect 11 0 16 2;
#X connect 11 1 15 2;
#X connect 11 2 14 2;
#X connect 14 0 4 1;
#X connect 15 0 3 1;
#X connect 16 0 3 0;
