#N canvas 267 131 520 673 10;
#X obj 202 17 inlet;
#X obj 202 42 route pitch size delay;
#X obj 250 426 *~;
#X obj 265 342 line~;
#X obj 265 321 pack 0 200;
#X obj 202 197 exp;
#X obj 203 277 /;
#X obj 237 222 * 0.001;
#X obj 390 350 line~;
#X obj 390 328 pack 0 200;
#X obj 250 447 +~;
#X obj 202 468 cos~;
#X obj 202 501 *~;
#X obj 202 590 +~;
#X obj 326 445 wrap~;
#X obj 375 476 *~;
#X obj 375 498 +~;
#X obj 326 519 cos~;
#X obj 326 544 *~;
#X obj 261 85 loadbang;
#X obj 238 243 t b f;
#X obj 326 424 +~ 0.5;
#X obj 202 427 -~ 0.5;
#X obj 202 448 *~ 0.5;
#X obj 326 477 -~ 0.5;
#X obj 326 499 *~ 0.5;
#X obj 202 224 - 1;
#X obj 202 172 * 0.05776;
#X obj 203 244 * -1;
#X obj 202 341 phasor~;
#X obj 390 307 max 1.5;
#X obj 252 129 max 1;
#X obj 25 53 delwrite~ \$0-del 5000;
#X obj 250 467 vd~ \$0-del;
#X obj 375 519 vd~ \$0-del;
#X obj 202 614 outlet~;
#X obj 25 22 inlet~;
#X msg 261 106 100;
#X msg 400 281 1.5;
#X obj 202 320 line~;
#X msg 203 301 \$1 30;
#X obj 400 260 loadbang;
#X obj 252 150 s \$0-size;
#X obj 237 200 r \$0-size;
#X obj 265 299 r \$0-size;
#X obj 302 63 s \$0-delay;
#X obj 389 238 r \$0-delay;
#X connect 0 0 1 0;
#X connect 1 0 27 0;
#X connect 1 1 31 0;
#X connect 1 2 45 0;
#X connect 2 0 10 0;
#X connect 3 0 2 1;
#X connect 3 0 15 1;
#X connect 4 0 3 0;
#X connect 5 0 26 0;
#X connect 6 0 40 0;
#X connect 7 0 20 0;
#X connect 8 0 10 1;
#X connect 8 0 16 1;
#X connect 9 0 8 0;
#X connect 10 0 33 0;
#X connect 11 0 12 0;
#X connect 12 0 13 0;
#X connect 13 0 35 0;
#X connect 14 0 15 0;
#X connect 14 0 24 0;
#X connect 15 0 16 0;
#X connect 16 0 34 0;
#X connect 17 0 18 0;
#X connect 18 0 13 1;
#X connect 19 0 37 0;
#X connect 20 0 6 0;
#X connect 20 1 6 1;
#X connect 21 0 14 0;
#X connect 22 0 23 0;
#X connect 23 0 11 0;
#X connect 24 0 25 0;
#X connect 25 0 17 0;
#X connect 26 0 28 0;
#X connect 27 0 5 0;
#X connect 28 0 6 0;
#X connect 29 0 2 0;
#X connect 29 0 22 0;
#X connect 29 0 21 0;
#X connect 30 0 9 0;
#X connect 31 0 42 0;
#X connect 33 0 12 1;
#X connect 34 0 18 1;
#X connect 36 0 32 0;
#X connect 37 0 31 0;
#X connect 38 0 30 0;
#X connect 39 0 29 0;
#X connect 40 0 39 0;
#X connect 41 0 38 0;
#X connect 43 0 7 0;
#X connect 44 0 4 0;
#X connect 46 0 30 0;
