#N canvas 118 95 626 736 10;
#X floatatom 39 25 5 0 0 0 - - -, f 5;
#X text 68 115 midi-in;
#X obj 375 562 dac~;
#X msg 495 489 wobble \$1;
#X msg 496 330 bpm \$1;
#X floatatom 495 464 5 0 0 0 - - -, f 5;
#X floatatom 496 307 5 0 0 0 - - -, f 5;
#X obj 395 223 loadbang;
#X obj 395 265 f;
#X obj 424 265 + 1;
#X obj 395 244 metro 53.57;
#X floatatom 408 293 5 0 0 0 - - -, f 5;
#X obj 39 300 osc~;
#X obj 71 246 *~;
#X obj 89 226 lop~ 1;
#X obj 39 272 +~;
#X obj 39 48 mtof;
#X obj 39 129 / 2;
#X obj 39 109 t f f;
#X obj 39 88 line;
#X obj 39 68 pack f 100;
#X obj 106 48 * 1000;
#N canvas 0 22 568 311 fm-osc 0;
#X obj 20 114 * 0.5;
#X obj 20 144 osc~;
#X obj 70 144 osc~;
#X obj 140 144 osc~;
#X obj 180 144 osc~;
#X obj 140 114 * 1;
#X obj 180 114 * 2;
#X obj 220 144 osc~;
#X obj 290 144 osc~;
#X obj 340 144 osc~;
#X obj 410 144 osc~;
#X obj 480 144 osc~;
#X obj 290 114 * 4;
#X obj 480 114 * 8;
#X obj 70 114 * 1.4983;
#X obj 410 114 * 5.9932;
#X obj 340 114 * 5.0397;
#X obj 220 114 * 2.9966;
#X obj 155 32 inlet;
#X obj 220 267 outlet~;
#X obj 340 174 *~ 1;
#X obj 290 174 *~ 1;
#X obj 140 174 *~ 1;
#X obj 180 174 *~ 1;
#X obj 70 174 *~ 2;
#X obj 20 174 *~ 2;
#X obj 220 174 *~ 1;
#X obj 155 53 t f f f f f f f f f;
#X obj 220 224 *~ 0.1;
#X obj 480 174 *~ 0.2;
#X obj 410 174 *~ 0.2;
#X connect 0 0 1 0;
#X connect 1 0 25 0;
#X connect 2 0 24 0;
#X connect 3 0 22 0;
#X connect 4 0 23 0;
#X connect 5 0 3 0;
#X connect 6 0 4 0;
#X connect 7 0 26 0;
#X connect 8 0 21 0;
#X connect 9 0 20 0;
#X connect 10 0 30 0;
#X connect 11 0 29 0;
#X connect 12 0 8 0;
#X connect 13 0 11 0;
#X connect 14 0 2 0;
#X connect 15 0 10 0;
#X connect 16 0 9 0;
#X connect 17 0 7 0;
#X connect 18 0 27 0;
#X connect 20 0 28 0;
#X connect 21 0 28 0;
#X connect 22 0 28 0;
#X connect 23 0 28 0;
#X connect 24 0 28 0;
#X connect 25 0 28 0;
#X connect 26 0 28 0;
#X connect 27 0 0 0;
#X connect 27 1 14 0;
#X connect 27 2 5 0;
#X connect 27 3 6 0;
#X connect 27 4 17 0;
#X connect 27 5 12 0;
#X connect 27 6 16 0;
#X connect 27 7 15 0;
#X connect 27 8 13 0;
#X connect 28 0 19 0;
#X connect 29 0 28 0;
#X connect 30 0 28 0;
#X restore 71 129 pd fm-osc;
#X obj 89 185 * 10000;
#X obj 89 206 + 100;
#X msg 209 72 glide \$1;
#X msg 209 126 tone \$1;
#X floatatom 210 46 5 0 0 0 - - -, f 5;
#X floatatom 209 101 5 0 0 0 - - -, f 5;
#X obj 376 506 fx.wobble~;
#X connect 0 0 16 0;
#X connect 3 0 29 2;
#X connect 4 0 29 2;
#X connect 5 0 3 0;
#X connect 6 0 4 0;
#X connect 7 0 10 0;
#X connect 8 0 9 0;
#X connect 8 0 11 0;
#X connect 8 0 29 1;
#X connect 9 0 8 1;
#X connect 10 0 8 0;
#X connect 12 0 29 0;
#X connect 13 0 15 1;
#X connect 14 0 13 1;
#X connect 15 0 12 0;
#X connect 16 0 20 0;
#X connect 17 0 15 0;
#X connect 18 0 17 0;
#X connect 18 1 22 0;
#X connect 19 0 18 0;
#X connect 20 0 19 0;
#X connect 21 0 20 1;
#X connect 22 0 13 0;
#X connect 23 0 24 0;
#X connect 24 0 14 0;
#X connect 27 0 25 0;
#X connect 27 0 21 0;
#X connect 28 0 23 0;
#X connect 28 0 26 0;
#X connect 29 0 2 0;
#X connect 29 0 2 1;
