#N canvas 0 48 676 306 10;
#X floatatom 157 108 5 0 0 1 smooth_interval_(ms) - -, f 5;
#X floatatom 50 158 5 0 0 1 smooth_output - -, f 5;
#X text 23 51 Interpolates smoothly between successive input values.
;
#X text 23 19 smooth-line;
#X msg 269 21 Envelopes;
#X floatatom 50 97 5 0 0 0 - - -, f 5;
#X msg 94 97 stop;
#X text 33 197 1999 by Karlheinz Essl;
#X text 34 217 Pd: 2006 Frank Barknecht;
#X obj 50 131 lin.smooth 1000;
#X connect 0 0 9 1;
#X connect 5 0 9 0;
#X connect 6 0 9 0;
#X connect 9 0 1 0;
