#N canvas 78 23 285 374 10;
#X obj 59 36 inlet;
#X obj 59 324 outlet;
#X obj 80 131 list split 1;
#X obj 114 152 t b a;
#X obj 80 174 list fromsymbol;
#X obj 59 297 list tosymbol;
#X obj 80 236 t b a;
#X obj 59 277 list;
#X obj 80 216 list append;
#X obj 80 257 list;
#X obj 80 109 list;
#X obj 101 83 t b b b;
#X obj 59 59 t b a b;
#X obj 80 195 list prepend 47;
#X obj 220 34 inlet;
#X connect 0 0 12 0;
#X connect 2 0 4 0;
#X connect 2 1 3 0;
#X connect 3 0 10 0;
#X connect 3 1 10 1;
#X connect 4 0 13 0;
#X connect 5 0 1 0;
#X connect 6 0 9 0;
#X connect 6 1 9 1;
#X connect 7 0 5 0;
#X connect 8 0 6 0;
#X connect 9 0 7 1;
#X connect 9 0 8 1;
#X connect 10 0 2 0;
#X connect 11 0 10 1;
#X connect 11 1 8 1;
#X connect 11 2 9 1;
#X connect 12 0 7 0;
#X connect 12 1 10 0;
#X connect 12 2 11 0;
#X connect 13 0 8 0;
#X connect 14 0 13 1;
