#N canvas 757 296 450 300 10;
#X floatatom 111 60 5 0 0 0 - - -, f 5;
#X msg 109 145;
#X obj 214 64 bng 15 250 50 0 empty empty empty 17 7 0 10 -262144 -1
-1;
#X obj 112 102 fresh/lst.collect;
#X connect 0 0 3 0;
#X connect 2 0 3 1;
#X connect 3 0 1 0;
