#N canvas 325 328 450 300 10;
#X obj 172 107 list;
#X obj 174 41 inlet;
#X obj 188 239 outlet;
#X obj 269 41 inlet;
#X obj 291 114 f \$1;
#X obj 297 76 loadbang;
#X obj 183 165 list split;
#X connect 0 0 6 0;
#X connect 1 0 0 0;
#X connect 3 0 6 1;
#X connect 4 0 6 1;
#X connect 5 0 4 0;
#X connect 6 0 0 1;
#X connect 6 0 2 0;
#X connect 6 2 0 1;
