#N canvas 528 51 360 372 10;
#X msg 148 122 symbol -;
#X msg 95 94 symbol hey-this-is-a$%££%"-easy;
#X obj 74 279 unpack s s s;
#X obj 74 341 print 1;
#X obj 108 320 print 2;
#X obj 143 300 print 3;
#X msg 82 70 symbol hey_this_is_a$%££%"_easy;
#X msg 64 45 symbol hey+this+is+a$%££%"+easy;
#X msg 170 146 symbol +;
#X obj 73 174 lst.delimit _;
#X obj 185 210 bng 15 250 50 0 empty empty empty 17 7 0 10 -262144
-1 -1;
#X obj 74 258 lst.collection;
#X obj 84 199 print;
#X obj 155 233 del 100;
#X obj 154 212 t b;
#X connect 0 0 9 1;
#X connect 1 0 9 0;
#X connect 2 0 3 0;
#X connect 2 1 4 0;
#X connect 2 2 5 0;
#X connect 6 0 9 0;
#X connect 7 0 9 0;
#X connect 8 0 9 1;
#X connect 9 0 11 0;
#X connect 9 0 12 0;
#X connect 9 0 14 0;
#X connect 10 0 11 1;
#X connect 11 0 2 0;
#X connect 13 0 11 1;
#X connect 14 0 13 0;
