#N canvas 607 99 450 300 10;
#X obj 151 47 inlet;
#X obj 128 201 outlet;
#X obj 151 112 list prepend;
#X obj 151 137 t a a;
#X obj 201 45 inlet;
#X obj 130 173 list;
#X obj 201 77 t b b;
#X connect 0 0 2 0;
#X connect 2 0 3 0;
#X connect 3 0 5 1;
#X connect 3 1 2 1;
#X connect 4 0 6 0;
#X connect 5 0 1 0;
#X connect 6 0 5 0;
#X connect 6 1 2 1;
