#N canvas 511 430 343 305 10;
#X obj 222 58 inlet;
#X obj 94 57 inlet;
#X obj 94 199 outlet;
#N canvas 380 394 317 356 compare-elements 0;
#X obj 83 157 t a b;
#X obj 264 48 inlet;
#X obj 65 36 inlet;
#X obj 241 111 list;
#X obj 83 112 until;
#X obj 83 256 select 0;
#X obj 83 288 t b b;
#X msg 83 317 0;
#X obj 65 379 outlet;
#X obj 65 356 f 1;
#X obj 65 59 t b b a b b;
#X msg 125 319 1;
#N canvas 0 23 514 518 compare-any 0;
#X obj 118 28 inlet;
#X obj 118 451 outlet;
#X obj 118 336 ==;
#X obj 118 358 select 1;
#N canvas 272 259 450 300 demux 0;
#X obj 76 87 inlet;
#X obj 169 86 inlet;
#X obj 76 145 list prepend 0;
#X obj 76 186 route 0 1;
#X obj 76 242 outlet;
#X obj 105 213 outlet;
#X connect 0 0 2 0;
#X connect 1 0 2 1;
#X connect 2 0 3 0;
#X connect 3 0 4 0;
#X connect 3 1 5 0;
#X restore 118 230 pd demux;
#X msg 169 207 0;
#X msg 200 206 1;
#X obj 118 295 route float;
#X obj 219 293 route symbol;
#X obj 359 199 print HUH?;
#X obj 219 272 list;
#X obj 238 164 route float symbol;
#X obj 238 136 list;
#X msg 118 423 1;
#X msg 190 418 0;
#X obj 238 28 inlet;
#X obj 219 356 select [DUMMY-SYMBOL];
#X connect 0 0 4 0;
#X connect 2 0 3 0;
#X connect 3 0 13 0;
#X connect 3 1 14 0;
#X connect 4 0 7 0;
#X connect 4 1 10 0;
#X connect 5 0 4 1;
#X connect 6 0 4 1;
#X connect 7 0 2 0;
#X connect 7 1 14 0;
#X connect 8 0 16 0;
#X connect 8 1 14 0;
#X connect 10 0 8 0;
#X connect 11 0 2 1;
#X connect 11 0 5 0;
#X connect 11 1 6 0;
#X connect 11 1 16 1;
#X connect 11 2 9 0;
#X connect 12 0 11 0;
#X connect 13 0 1 0;
#X connect 14 0 1 0;
#X connect 15 0 12 0;
#X connect 16 0 13 0;
#X connect 16 1 14 0;
#X restore 83 233 pd compare-any;
#N canvas 0 22 1 1 list-dripslow 0;
#X obj 148 186 list split 1;
#X obj 148 161 list append;
#X obj 148 237 outlet;
#X obj 148 37 inlet;
#X obj 229 237 outlet;
#X obj 222 35 inlet;
#X obj 148 72 b;
#X text 265 36 list;
#X text 103 37 bang;
#X text 273 237 EOL;
#X text 89 236 element;
#X obj 229 207 b;
#X connect 0 0 2 0;
#X connect 0 1 1 1;
#X connect 0 2 11 0;
#X connect 1 0 0 0;
#X connect 3 0 6 0;
#X connect 5 0 1 1;
#X connect 6 0 1 0;
#X connect 11 0 4 0;
#X restore 164 210 pd list-dripslow;
#N canvas 0 22 1 1 list-dripslow 0;
#X obj 148 186 list split 1;
#X obj 148 161 list append;
#X obj 148 237 outlet;
#X obj 148 37 inlet;
#X obj 229 237 outlet;
#X obj 222 35 inlet;
#X obj 148 72 b;
#X text 265 36 list;
#X text 103 37 bang;
#X text 273 237 EOL;
#X text 89 236 element;
#X obj 229 207 b;
#X connect 0 0 2 0;
#X connect 0 1 1 1;
#X connect 0 2 11 0;
#X connect 1 0 0 0;
#X connect 3 0 6 0;
#X connect 5 0 1 1;
#X connect 6 0 1 0;
#X connect 11 0 4 0;
#X restore 83 134 pd list-dripslow;
#X connect 0 0 12 0;
#X connect 0 1 13 0;
#X connect 1 0 3 1;
#X connect 2 0 10 0;
#X connect 3 0 13 1;
#X connect 4 0 14 0;
#X connect 5 0 6 0;
#X connect 6 0 7 0;
#X connect 6 1 4 1;
#X connect 7 0 9 1;
#X connect 9 0 8 0;
#X connect 10 0 9 0;
#X connect 10 1 4 0;
#X connect 10 2 14 1;
#X connect 10 3 3 0;
#X connect 10 4 11 0;
#X connect 11 0 9 1;
#X connect 12 0 5 0;
#X connect 13 0 12 1;
#X connect 14 0 0 0;
#X connect 14 1 4 1;
#X restore 94 136 pd compare-elements;
#X msg 216 167 0;
#N canvas 551 418 1 1 compare-lengths 0;
#X obj 45 121 ==;
#X obj 45 142 select 1 0;
#X obj 142 20 inlet;
#X obj 45 20 inlet;
#X obj 45 222 outlet;
#X obj 77 201 outlet;
#X obj 45 45 t a a;
#X obj 45 173 list;
#X text 39 256 if equal \, send list out to first outlet \, else bang
second outlet;
#X obj 142 61 list length;
#X obj 142 41 list;
#X obj 45 90 list length;
#X obj 45 66 list;
#X connect 0 0 1 0;
#X connect 1 0 7 0;
#X connect 1 1 5 0;
#X connect 2 0 10 0;
#X connect 3 0 6 0;
#X connect 6 0 12 0;
#X connect 6 1 7 1;
#X connect 7 0 4 0;
#X connect 9 0 0 1;
#X connect 10 0 9 0;
#X connect 11 0 0 0;
#X connect 12 0 11 0;
#X restore 94 93 pd compare-lengths;
#X connect 0 0 5 1;
#X connect 0 0 3 1;
#X connect 1 0 5 0;
#X connect 3 0 2 0;
#X connect 4 0 2 0;
#X connect 5 0 3 0;
#X connect 5 1 4 0;
