#N canvas 0 23 450 300 10;
#X obj 170 136 mid.keyboard;
#X floatatom 182 172 5 0 0 0 - - -, f 5;
#X floatatom 237 175 5 0 0 0 - - -, f 5;
#X symbolatom 289 177 10 0 0 0 - - -, f 10;
#X floatatom 379 178 5 0 0 0 - - -, f 5;
#X connect 0 0 1 0;
#X connect 0 1 2 0;
#X connect 0 2 3 0;
#X connect 0 3 4 0;
