#N canvas 305 216 531 328 10;
#X obj 60 126 readsf~;
#X msg 60 72 open _samples/amen.wav \, 1;
#X msg 76 96 0;
#X obj 99 148 s \$0-playloop-1;
#X obj 60 48 r \$0-playloop-1;
#X obj 245 123 readsf~;
#X msg 261 93 0;
#X obj 245 47 r \$0-playloop-2;
#X obj 59 280 dac~;
#X msg 245 71 open _samples/satie.wav \, 1;
#X obj 284 145 s \$0-playloop-2;
#X text 63 10 mix between two audio signals;
#X floatatom 170 199 5 0 100 0 - - -, f 5;
#X text 213 198 <-- mix (0-100);
#X obj 59 229 mix.between~;
#X connect 0 0 14 0;
#X connect 0 1 3 0;
#X connect 1 0 0 0;
#X connect 2 0 0 0;
#X connect 4 0 1 0;
#X connect 5 0 14 1;
#X connect 5 1 10 0;
#X connect 6 0 5 0;
#X connect 7 0 9 0;
#X connect 9 0 5 0;
#X connect 12 0 14 2;
#X connect 14 0 8 0;
#X connect 14 0 8 1;
#X connect 14 1 8 1;
#X connect 14 1 8 0;
