#N canvas 545 30 297 410 10;
#X obj 51 9 inlet~;
#X obj 53 329 *~;
#X obj 130 330 *~;
#X obj 145 201 *~ 0.5;
#X obj 145 223 +~ 0.5;
#X obj 69 285 -~ 1;
#X obj 68 306 *~ -1;
#X obj 53 354 outlet~;
#X obj 145 179 osc~ 0.1;
#X obj 130 355 outlet~;
#X obj 147 7 inlet;
#X obj 145 111 random 1000;
#X obj 145 133 / 1000;
#X obj 145 85 route bang speed reset;
#X connect 0 0 1 0;
#X connect 0 0 2 0;
#X connect 1 0 7 0;
#X connect 2 0 9 0;
#X connect 3 0 4 0;
#X connect 4 0 5 0;
#X connect 4 0 2 1;
#X connect 5 0 6 0;
#X connect 6 0 1 1;
#X connect 8 0 3 0;
#X connect 10 0 13 0;
#X connect 11 0 12 0;
#X connect 12 0 8 0;
#X connect 13 0 11 0;
#X connect 13 1 8 1;
