#N canvas 348 23 415 625 10;
#X obj 57 24 inlet;
#X obj 57 86 f;
#X obj 87 85 + 1;
#X obj 194 24 inlet;
#X msg 72 66 0;
#X obj 57 124 mod \$1;
#X obj 57 562 outlet;
#X obj 102 228 f;
#X obj 132 227 + 1;
#X obj 102 167 sel 0;
#X obj 57 144 t f f;
#X obj 57 342 pack f f;
#X obj 102 266 mod \$2;
#X msg 117 206 0;
#X obj 194 136 s \$0-reset;
#X obj 72 47 r \$0-reset;
#X obj 117 186 r \$0-reset;
#X obj 194 50 route bang dimen;
#X obj 240 117 s \$0-width;
#X obj 297 97 s \$0-height;
#X obj 240 77 unpack f f;
#X obj 135 247 r \$0-height;
#X obj 90 104 r \$0-width;
#X msg 111 307 0;
#X obj 111 287 r \$0-reset;
#X obj 88 391 unpack f f;
#X obj 114 446 - \$1;
#X obj 191 451 - \$2;
#X obj 192 393 r \$0-width;
#X obj 221 421 r \$0-height;
#X obj 114 471 + 1;
#X obj 191 472 + 1;
#X obj 114 492 abs;
#X obj 192 492 abs;
#X obj 114 515 pack f f;
#X obj 114 562 outlet;
#X connect 0 0 1 0;
#X connect 1 0 2 0;
#X connect 1 0 5 0;
#X connect 2 0 1 1;
#X connect 3 0 17 0;
#X connect 4 0 1 1;
#X connect 5 0 10 0;
#X connect 7 0 8 0;
#X connect 7 0 12 0;
#X connect 8 0 7 1;
#X connect 9 0 7 0;
#X connect 10 0 11 0;
#X connect 10 1 9 0;
#X connect 11 0 6 0;
#X connect 11 0 25 0;
#X connect 12 0 11 1;
#X connect 13 0 7 1;
#X connect 15 0 4 0;
#X connect 16 0 13 0;
#X connect 17 0 14 0;
#X connect 17 1 20 0;
#X connect 20 0 18 0;
#X connect 20 1 19 0;
#X connect 21 0 12 1;
#X connect 22 0 5 1;
#X connect 23 0 11 1;
#X connect 24 0 23 0;
#X connect 25 0 26 0;
#X connect 25 1 27 0;
#X connect 26 0 30 0;
#X connect 27 0 31 0;
#X connect 28 0 26 1;
#X connect 29 0 27 1;
#X connect 30 0 32 0;
#X connect 31 0 33 0;
#X connect 32 0 34 0;
#X connect 33 0 34 1;
#X connect 34 0 35 0;
