#N canvas 202 157 434 274 12;
#X obj 45 178 expr sin($f1);
#X obj 45 150 expr ($f1/2) * 3.14;
#X obj 45 124 expr (min(max($f1 \, -1+$f2) \, 1+$f2))-($f2-1);
#X obj 45 208 outlet;
#X obj 46 52 inlet;
#X obj 343 46 inlet;
#X obj 355 71 loadbang;
#X obj 355 96 f \$1;
#X text 317 246 megrimm 2022;
#X connect 0 0 3 0;
#X connect 1 0 0 0;
#X connect 2 0 1 0;
#X connect 4 0 2 0;
#X connect 5 0 2 1;
#X connect 6 0 7 0;
#X connect 7 0 2 1;
