#N canvas 786 181 575 399 10;
#X floatatom 207 33 5 0 0 0 - - -, f 5;
#X floatatom 36 59 5 0 0 0 - - -, f 5;
#X floatatom 36 282 5 0 0 0 - - -, f 5;
#X floatatom 53 263 5 0 0 0 - - -, f 5;
#X floatatom 70 245 5 0 0 0 - - -, f 5;
#X floatatom 87 227 5 0 0 0 - - -, f 5;
#X floatatom 104 208 5 0 0 0 - - -, f 5;
#X floatatom 121 190 5 0 0 0 - - -, f 5;
#X floatatom 138 173 5 0 0 0 - - -, f 5;
#X floatatom 155 155 5 0 0 0 - - -, f 5;
#X floatatom 172 136 5 0 0 0 - - -, f 5;
#X floatatom 189 118 5 0 0 0 - - -, f 5;
#X floatatom 250 158 5 0 0 0 - - -, f 5;
#X msg 232 62 bang;
#X text 283 157 <-- last outlet is active gate number, f 38;
#X text 244 31 <-- choose outlet number;
#X text 268 61 <-- bang to output active gate number;
#X obj 36 92 num.gate, f 29;
#X connect 0 0 17 1;
#X connect 1 0 17 0;
#X connect 13 0 17 1;
#X connect 17 0 2 0;
#X connect 17 1 3 0;
#X connect 17 2 4 0;
#X connect 17 3 5 0;
#X connect 17 4 6 0;
#X connect 17 5 7 0;
#X connect 17 6 8 0;
#X connect 17 7 9 0;
#X connect 17 8 10 0;
#X connect 17 9 11 0;
#X connect 17 10 12 0;
