#N canvas 0 23 254 345 10;
#X obj 28 244 pack f f f f;
#X msg 28 263 color \$1 \$2 \$3 \$4;
#X obj 28 10 inlet;
#X obj 28 32 route red blue green alpha;
#X obj 28 113 / 100;
#X obj 66 92 / 100;
#X obj 104 72 / 100;
#X obj 142 52 / 100;
#X obj 28 287 outlet;
#X obj 142 72 s \$0-a;
#X obj 104 92 s \$0-g;
#X obj 66 113 s \$0-b;
#X obj 28 135 s \$0-r;
#X obj 97 224 r \$0-a;
#X obj 74 204 r \$0-b;
#X obj 51 184 r \$0-g;
#X obj 28 164 r \$0-r;
#X obj 181 52 s \$0-r;
#X connect 0 0 1 0;
#X connect 1 0 8 0;
#X connect 2 0 3 0;
#X connect 3 0 4 0;
#X connect 3 1 5 0;
#X connect 3 2 6 0;
#X connect 3 3 7 0;
#X connect 3 4 17 0;
#X connect 4 0 12 0;
#X connect 5 0 11 0;
#X connect 6 0 10 0;
#X connect 7 0 9 0;
#X connect 13 0 0 3;
#X connect 14 0 0 2;
#X connect 15 0 0 1;
#X connect 16 0 0 0;
