#N canvas 604 153 272 414 10;
#X obj 40 224 f;
#X obj 67 224 + 1;
#X obj 40 246 makefilename %02d;
#X obj 40 335 pack s s;
#X obj 61 291 makefilename %02d;
#X obj 61 313 t b a;
#X obj 41 115 % 60;
#X obj 41 160 sel 0;
#X msg 58 202 0;
#X obj 41 93 f;
#X obj 68 93 + 1;
#X msg 59 71 0;
#X obj 41 24 inlet;
#X obj 40 361 outlet;
#X obj 149 22 inlet;
#X obj 149 44 route reset;
#X obj 149 67 s \$0-reset;
#X obj 59 49 r \$0-reset;
#X obj 58 181 r \$0-reset;
#X obj 50 137 s \$0-minute;
#X obj 61 270 r \$0-minute;
#X text 142 360 megrimm 2017;
#X connect 0 0 1 0;
#X connect 0 0 2 0;
#X connect 1 0 0 1;
#X connect 2 0 3 0;
#X connect 3 0 13 0;
#X connect 4 0 5 0;
#X connect 5 0 3 0;
#X connect 5 1 3 1;
#X connect 6 0 7 0;
#X connect 6 0 19 0;
#X connect 7 0 0 0;
#X connect 8 0 0 1;
#X connect 9 0 10 0;
#X connect 9 0 6 0;
#X connect 10 0 9 1;
#X connect 11 0 9 1;
#X connect 12 0 9 0;
#X connect 14 0 15 0;
#X connect 15 0 16 0;
#X connect 17 0 11 0;
#X connect 18 0 8 0;
#X connect 20 0 4 0;
