#N canvas 597 49 775 677 10;
#X obj 377 15 inlet;
#X obj 378 634 outlet;
#X obj 144 229 s \$0-pause;
#X obj 25 19 inlet;
#X msg 389 358 stop;
#X obj 389 318 r \$0-pause;
#X obj 377 98 s \$0-length;
#X obj 463 97 s \$0-time;
#X obj 392 457 s \$0-position;
#X obj 378 390 line 0 10;
#X obj 405 147 r \$0-position;
#X obj 459 190 r \$0-position;
#X obj 562 189 r \$0-length;
#X obj 666 189 r \$0-time;
#X obj 432 168 r \$0-length;
#X obj 378 275 pack 0 0 0 0;
#X msg 378 297 \$2 \, \$3 \$4;
#X obj 389 338 sel 1;
#X obj 188 166 s \$0-speed;
#X obj 477 233 r \$0-speed;
#X obj 392 431 moses;
#X obj 424 411 r \$0-length;
#X obj 435 634 outlet;
#X obj 459 254 / 1;
#X obj 459 211 expr $f3 - ($f3 / ($f2 / $f1));
#X text 17 461 to do;
#X text 18 490 reverse line;
#X obj 156 142 t b f;
#X obj 156 208 s \$0-update;
#X obj 378 125 r \$0-update;
#X obj 56 354 s \$0-position;
#X msg 56 334 0;
#X obj 25 375 s \$0-update;
#X obj 25 314 t b b;
#X obj 112 208 sel 0;
#X obj 112 250 s \$0-update;
#X obj 156 187 del 10;
#X obj 456 31 loadbang;
#X obj 377 55 unpack 0 0;
#X msg 432 358 0;
#X obj 68 273 s \$0-stop;
#X obj 432 338 r \$0-stop;
#X obj 467 524 s \$0-end;
#X obj 467 503 spigot;
#X obj 435 482 t b b;
#X obj 35 293 r \$0-end;
#X obj 506 481 r \$0-loop;
#X obj 200 142 s \$0-loop;
#X obj 448 611 s \$0-stop;
#X obj 276 100 s \$0-position;
#X obj 244 121 s \$0-update;
#X obj 244 79 t b f;
#X obj 25 55 route start stop pause speed loop jump;
#X obj 501 545 r \$0-loop;
#X obj 501 566 == 0;
#X obj 456 55 f \$1;
#X obj 494 54 f \$2;
#X obj 448 587 spigot 1;
#X text 73 636 (c)2014 \, megrimm;
#X connect 0 0 38 0;
#X connect 3 0 52 0;
#X connect 4 0 9 0;
#X connect 5 0 17 0;
#X connect 9 0 1 0;
#X connect 9 0 20 0;
#X connect 10 0 15 1;
#X connect 11 0 24 0;
#X connect 12 0 24 1;
#X connect 13 0 24 2;
#X connect 14 0 15 2;
#X connect 15 0 16 0;
#X connect 16 0 9 0;
#X connect 17 0 4 0;
#X connect 19 0 23 1;
#X connect 20 0 8 0;
#X connect 20 1 44 0;
#X connect 21 0 20 1;
#X connect 23 0 15 3;
#X connect 24 0 23 0;
#X connect 27 0 36 0;
#X connect 27 1 18 0;
#X connect 29 0 15 0;
#X connect 31 0 30 0;
#X connect 33 0 32 0;
#X connect 33 1 31 0;
#X connect 34 0 35 0;
#X connect 34 1 2 0;
#X connect 36 0 28 0;
#X connect 37 0 55 0;
#X connect 37 0 56 0;
#X connect 38 0 6 0;
#X connect 38 1 7 0;
#X connect 39 0 9 0;
#X connect 41 0 39 0;
#X connect 43 0 42 0;
#X connect 44 0 22 0;
#X connect 44 0 57 0;
#X connect 44 1 43 0;
#X connect 45 0 33 0;
#X connect 46 0 43 1;
#X connect 51 0 50 0;
#X connect 51 1 49 0;
#X connect 52 0 33 0;
#X connect 52 1 40 0;
#X connect 52 2 34 0;
#X connect 52 3 27 0;
#X connect 52 4 47 0;
#X connect 52 5 51 0;
#X connect 53 0 54 0;
#X connect 54 0 57 1;
#X connect 55 0 6 0;
#X connect 56 0 7 0;
#X connect 57 0 48 0;
