#N canvas 0 23 1 1 10;
#X symbolatom 420 188 10 0 0 0 - - -, f 10;
#X obj 317 372 sel -2 -1 0 1 2;
#X obj 386 436 bng 15 1500 250 0 empty empty empty 17 7 0 10 -262144
-13381 -1;
#X obj 317 436 bng 15 1500 250 0 empty empty empty 17 7 0 10 -262144
-258113 -1;
#X obj 351 475 bng 15 1500 250 0 empty empty empty 17 7 0 10 -262144
-1 -1;
#X text 344 491 even;
#X text 248 434 left wins;
#X text 409 436 right wins;
#N canvas 0 23 591 558 rps 0;
#X obj 354 180 sel 0 1 2;
#X msg 371 257 set paper;
#X msg 354 234 set rock;
#X msg 388 282 set scissors;
#X obj 266 137 inlet;
#X obj 413 349 outlet;
#X connect 0 0 2 0;
#X connect 0 1 1 0;
#X connect 0 2 3 0;
#X connect 1 0 5 0;
#X connect 2 0 5 0;
#X connect 3 0 5 0;
#X connect 4 0 0 0;
#X restore 420 167 pd rps;
#X symbolatom 41 258 10 0 0 0 - - -, f 10;
#N canvas 0 23 591 558 rps 0;
#X obj 354 180 sel 0 1 2;
#X msg 371 257 set paper;
#X msg 354 234 set rock;
#X msg 388 282 set scissors;
#X obj 266 137 inlet;
#X obj 413 349 outlet;
#X connect 0 0 2 0;
#X connect 0 1 1 0;
#X connect 0 2 3 0;
#X connect 1 0 5 0;
#X connect 2 0 5 0;
#X connect 3 0 5 0;
#X connect 4 0 0 0;
#X restore 41 237 pd rps;
#X obj 317 242 f;
#X obj 344 242 + 1;
#X obj 317 261 mod 2;
#X obj 317 223 t b;
#X obj 317 280 sel 1;
#X obj 317 325 f;
#X obj 344 324 f;
#X obj 317 348 -;
#X obj 317 300 t b b;
#X obj 342 176 t b f;
#X obj 256 186 t b f;
#X obj 316 538 outlet;
#X obj 377 538 outlet;
#X obj 428 538 outlet;
#X obj 565 551 outlet;
#X obj 625 549 outlet;
#X obj 206 84 inlet;
#X obj 321 81 inlet;
#X obj 441 60 inlet;
#X msg 433 111 0;
#X connect 1 0 3 0;
#X connect 1 1 2 0;
#X connect 1 2 4 0;
#X connect 1 3 3 0;
#X connect 1 4 2 0;
#X connect 2 0 24 0;
#X connect 3 0 22 0;
#X connect 4 0 23 0;
#X connect 8 0 0 0;
#X connect 8 0 26 0;
#X connect 10 0 9 0;
#X connect 10 0 25 0;
#X connect 11 0 12 0;
#X connect 11 0 13 0;
#X connect 12 0 11 1;
#X connect 13 0 15 0;
#X connect 14 0 11 0;
#X connect 15 0 19 0;
#X connect 16 0 18 0;
#X connect 17 0 18 1;
#X connect 18 0 1 0;
#X connect 19 0 16 0;
#X connect 19 1 17 0;
#X connect 20 0 14 0;
#X connect 20 1 17 1;
#X connect 21 0 14 0;
#X connect 21 1 16 1;
#X connect 27 0 10 0;
#X connect 27 0 21 0;
#X connect 28 0 8 0;
#X connect 28 0 20 0;
#X connect 29 0 30 0;
#X connect 30 0 11 1;
