#N canvas 560 60 522 519 12;
#X obj 46 307 num.scalemap;
#X msg 174 34 0 2 4 5 7 9 11;
#X msg 208 61 0 2 3 5 7 8 10;
#X msg 260 115 0 2 4 6 7 9 11;
#X msg 235 88 0 1 3 5 7 8 10;
#X text 288 33 Major (Ionian);
#X text 324 61 Minor (Aeolian);
#X text 371 114 Lydian;
#X msg 300 144 0 2 4 6 8 10;
#X text 347 87 Phrygian;
#X text 398 144 Whole Tone;
#X floatatom 46 25 5 0 0 0 - - -;
#X text 94 24 <-- note;
#X floatatom 31 398 5 0 0 0 - - -;
#X text 394 233 Major (Ionian);
#X msg 220 235 0 0 2 2 4 4 5 5 7 9 11;
#X msg 246 312 offset \$1;
#X floatatom 246 287 5 0 0 0 - - -;
#X connect 0 0 13 0;
#X connect 1 0 0 1;
#X connect 2 0 0 1;
#X connect 3 0 0 1;
#X connect 4 0 0 1;
#X connect 8 0 0 1;
#X connect 11 0 0 0;
#X connect 15 0 0 1;
#X connect 16 0 0 1;
#X connect 17 0 16 0;
