#N canvas 801 173 513 589 10;
#X obj 200 242 moses;
#X obj 232 504 unpack 0 0;
#X obj 63 113 list;
#X obj 296 360 loadbang;
#X msg 200 179 0;
#X obj 209 151 loadbang;
#X obj 200 219 f;
#X obj 63 61 t b a;
#X obj 63 30 inlet;
#X obj 103 530 outlet;
#X obj 232 527 outlet;
#X obj 299 527 outlet;
#X obj 200 28 inlet;
#X obj 63 144 list split 1;
#X obj 103 166 list split 1;
#X msg 296 406 read num.treetrav.txt cr;
#X obj 257 435 textfile;
#X msg 278 334 rewind;
#X obj 257 311 until;
#X obj 232 458 list;
#X obj 232 288 t b a b;
#X obj 232 264 + 1;
#X obj 241 482 s \$0-txtlist;
#X obj 88 91 r \$0-txtlist;
#X obj 200 58 route reset;
#X obj 306 382 r \$0-reset;
#X obj 211 85 s \$0-reset;
#X connect 0 1 21 0;
#X connect 1 0 10 0;
#X connect 1 1 11 0;
#X connect 2 0 13 0;
#X connect 3 0 15 0;
#X connect 4 0 6 0;
#X connect 4 0 9 0;
#X connect 5 0 4 0;
#X connect 6 0 0 0;
#X connect 7 0 2 0;
#X connect 7 1 13 1;
#X connect 8 0 7 0;
#X connect 12 0 24 0;
#X connect 13 1 14 0;
#X connect 14 0 9 0;
#X connect 14 0 6 0;
#X connect 15 0 16 0;
#X connect 16 0 19 1;
#X connect 17 0 16 0;
#X connect 18 0 16 0;
#X connect 19 0 1 0;
#X connect 19 0 22 0;
#X connect 20 0 19 0;
#X connect 20 1 18 0;
#X connect 20 2 17 0;
#X connect 21 0 20 0;
#X connect 23 0 2 1;
#X connect 24 0 4 0;
#X connect 24 0 26 0;
#X connect 25 0 15 0;
