#N canvas 644 196 450 300 10;
#X obj 182 111 loadbang;
#X obj 182 135 f \$1;
#X obj 182 159 outlet;
#X text 166 33 pd-extended's [init];
#X text 24 261 http://yvanvolochine.com;
#N canvas 483 222 450 300 LICENSE 0;
#X text 18 8 This program is free software: you can redistribute it
and/or modify it under the terms of the GNU General Public License
as published by the Free Software Foundation \, either version 3 of
the License \, or (at your option) any later version. This program
is distributed in the hope that it will be useful \, but WITHOUT ANY
WARRANTY \; without even the implied warranty of MERCHANTABILITY or
FITNESS FOR A PARTICULAR PURPOSE. See the GNU General Public License
for more details. You should have received a copy of the GNU General
Public License along with this program. If not \, see <http://www.gnu.org/licenses/>.
;
#X restore 350 263 pd LICENSE;
#X connect 0 0 1 0;
#X connect 1 0 2 0;
