#N canvas 155 290 676 490 10;
#X obj 491 66 loadbang;
#X obj 491 112 f \$1;
#X obj 242 130 spigot 0;
#X obj 523 228 s \$0-safetyLock;
#X obj 295 109 r \$0-safetyLock;
#X obj 523 158 > 0;
#X obj 491 182 spigot 0;
#X obj 491 136 t f f;
#X obj 491 206 t f 1;
#X text 203 25 pd-extended's [repeat];
#X text 19 466 http://yvanvolochine.com;
#X obj 126 250 f;
#X obj 178 260 + 1;
#X obj 178 287 mod 666;
#X obj 178 309 t f f;
#X obj 178 330 route 0;
#X obj 217 355 t b;
#X obj 217 380 s \$0-retrigger;
#X obj 126 101 r \$0-retrigger;
#X obj 158 215 outlet OUT;
#N canvas 536 339 440 325 store_anything 0;
#X obj 146 131 list prepend;
#X obj 259 154 t l;
#X obj 146 84 t a b;
#X obj 146 181 list append;
#X obj 146 203 t l;
#X obj 146 271 outlet;
#X obj 92 23 inlet trigger;
#X obj 146 56 inlet store;
#X obj 146 233 route list symbol;
#X connect 0 0 1 0;
#X connect 0 0 3 0;
#X connect 1 0 0 1;
#X connect 2 0 0 0;
#X connect 2 1 0 1;
#X connect 3 0 4 0;
#X connect 4 0 8 0;
#X connect 6 0 0 0;
#X connect 7 0 2 0;
#X connect 8 0 5 0;
#X connect 8 1 5 0;
#X connect 8 2 5 0;
#X restore 126 159 pd store_anything;
#X obj 126 187 t b a;
#X obj 242 70 inlet value;
#X obj 500 88 inlet argument;
#N canvas 483 222 450 300 LICENSE 0;
#X text 18 8 This program is free software: you can redistribute it
and/or modify it under the terms of the GNU General Public License
as published by the Free Software Foundation \, either version 3 of
the License \, or (at your option) any later version. This program
is distributed in the hope that it will be useful \, but WITHOUT ANY
WARRANTY \; without even the implied warranty of MERCHANTABILITY or
FITNESS FOR A PARTICULAR PURPOSE. See the GNU General Public License
for more details. You should have received a copy of the GNU General
Public License along with this program. If not \, see <http://www.gnu.org/licenses/>.
;
#X restore 573 455 pd LICENSE;
#X connect 0 0 1 0;
#X connect 1 0 7 0;
#X connect 2 0 20 1;
#X connect 4 0 2 1;
#X connect 5 0 6 1;
#X connect 6 0 8 0;
#X connect 7 0 6 0;
#X connect 7 1 5 0;
#X connect 8 0 13 1;
#X connect 8 1 3 0;
#X connect 11 0 12 0;
#X connect 12 0 13 0;
#X connect 13 0 14 0;
#X connect 14 0 15 0;
#X connect 14 1 11 1;
#X connect 15 1 16 0;
#X connect 16 0 17 0;
#X connect 18 0 20 0;
#X connect 20 0 21 0;
#X connect 21 0 11 0;
#X connect 21 1 19 0;
#X connect 22 0 2 0;
#X connect 23 0 1 0;
