#N canvas 578 53 337 396 10;
#X obj 92 127 metro 200;
#X msg 92 71 1;
#X msg 106 95 0;
#X floatatom 152 108 5 0 0 0 - - -, f 5;
#X obj 92 233 print;
#X msg 92 203 text \$1 : \$2;
#X obj 92 173 num.timecode;
#X msg 173 151 reset;
#X text 89 33 for creating timecode display;
#X text 99 288 megrimm 2017;
#X connect 0 0 6 0;
#X connect 1 0 0 0;
#X connect 2 0 0 0;
#X connect 3 0 0 1;
#X connect 5 0 4 0;
#X connect 6 0 5 0;
#X connect 7 0 6 1;
