#N canvas 71 233 591 653 10;
#X obj 159 149 f;
#X obj 202 149 + 1;
#X msg 160 60 1;
#X msg 171 84 0;
#X floatatom 167 176 5 0 0 0 - - -;
#X text 382 256 <-- rhythm offset/rotation;
#X obj 60 373 noise~;
#X obj 61 535 dac~;
#X obj 61 504 *~;
#X floatatom 219 101 5 0 0 0 - - -;
#X floatatom 169 366 5 0 0 0 - - -;
#X msg 282 158 length \$1;
#X msg 295 207 hits \$1;
#X msg 303 255 offset \$1;
#X floatatom 282 134 5 0 0 0 - - -;
#X floatatom 295 184 5 0 0 0 - - -;
#X floatatom 303 232 5 0 0 0 - - -;
#X text 360 207 <-- hits per bar;
#X text 360 157 <-- length of bar;
#X obj 159 125 metro 200;
#X msg 226 396 \; pd dsp 1 \;;
#X obj 226 369 loadbang;
#X text 55 576 (c)2020 \, megrimm;
#X msg 311 306 random \$1;
#X floatatom 312 283 5 0 0 0 - - -;
#X obj 112 447 del 50;
#X obj 80 423 t f b;
#X msg 112 470 0;
#X obj 159 341 num.euclid 16 10 0;
#X connect 0 0 1 0;
#X connect 0 0 4 0;
#X connect 0 0 28 0;
#X connect 1 0 0 1;
#X connect 2 0 19 0;
#X connect 3 0 19 0;
#X connect 6 0 8 0;
#X connect 8 0 7 0;
#X connect 8 0 7 1;
#X connect 9 0 19 1;
#X connect 11 0 28 1;
#X connect 12 0 28 1;
#X connect 13 0 28 1;
#X connect 14 0 11 0;
#X connect 15 0 12 0;
#X connect 16 0 13 0;
#X connect 19 0 0 0;
#X connect 21 0 20 0;
#X connect 23 0 28 1;
#X connect 24 0 23 0;
#X connect 25 0 27 0;
#X connect 26 0 8 1;
#X connect 26 1 25 0;
#X connect 27 0 8 1;
#X connect 28 0 10 0;
#X connect 28 0 26 0;
