#N canvas 358 225 450 300 10;
#X obj 171 216 num.rgba;
#X msg 174 45 red \$1;
#X msg 184 82 blue \$1;
#X msg 195 119 green \$1;
#X msg 202 156 alpha \$1;
#X floatatom 174 28 5 0 0 0 - - -, f 5;
#X floatatom 184 65 5 0 0 0 - - -, f 5;
#X floatatom 195 102 5 0 0 0 - - -, f 5;
#X floatatom 202 139 5 0 0 0 - - -, f 5;
#X msg 44 81 0.1 0.2 0.7 0.5;
#X obj 44 61 loadbang;
#X obj 171 254 print;
#X connect 0 0 11 0;
#X connect 1 0 0 0;
#X connect 2 0 0 0;
#X connect 3 0 0 0;
#X connect 4 0 0 0;
#X connect 5 0 1 0;
#X connect 6 0 2 0;
#X connect 7 0 3 0;
#X connect 8 0 4 0;
#X connect 9 0 0 0;
#X connect 10 0 9 0;
