#N canvas 0 23 304 242 10;
#X obj 69 29 inlet;
#X obj 81 98 f;
#X obj 122 97 + 1;
#X obj 143 30 inlet;
#X msg 143 51 0;
#X obj 79 134 mod \$1;
#X obj 114 185 outlet;
#X connect 0 0 1 0;
#X connect 1 0 2 0;
#X connect 1 0 5 0;
#X connect 2 0 1 1;
#X connect 3 0 4 0;
#X connect 4 0 1 1;
#X connect 5 0 6 0;
