#N canvas 565 37 719 729 10;
#X obj 48 26 gemkeyboard;
#X obj 90 682 outlet;
#X obj 232 23 key;
#X msg 257 271 symbol a;
#X text 313 39 w a s d f g;
#X msg 232 318 symbol w;
#X msg 283 225 symbol s;
#X msg 308 179 symbol d;
#X msg 334 134 symbol f;
#X msg 359 89 symbol g;
#X text 90 49 w a s d f g;
#X obj 257 294 s \$0-symbol-a;
#X obj 232 340 s \$0-symbol-w;
#X obj 308 202 s \$0-symbol-d;
#X obj 334 156 s \$0-symbol-f;
#X obj 359 111 s \$0-symbol-g;
#X obj 283 248 s \$0-symbol-s;
#X msg 63 283 symbol a;
#X msg 48 329 symbol w;
#X msg 79 237 symbol s;
#X msg 94 192 symbol d;
#X msg 110 147 symbol f;
#X msg 125 104 symbol g;
#X obj 63 306 s \$0-symbol-a;
#X obj 48 351 s \$0-symbol-w;
#X obj 94 215 s \$0-symbol-d;
#X obj 110 169 s \$0-symbol-f;
#X obj 125 126 s \$0-symbol-g;
#X obj 79 260 s \$0-symbol-s;
#X obj 48 71 sel 13 0 1 2 3 5;
#X obj 90 502 r \$0-symbol-w;
#X obj 101 525 r \$0-symbol-a;
#X obj 111 548 r \$0-symbol-s;
#X obj 119 570 r \$0-symbol-d;
#X obj 127 592 r \$0-symbol-f;
#X obj 133 614 r \$0-symbol-g;
#X obj 232 64 sel 119 97 115 100 102 103;
#X obj 457 26 keyname;
#X obj 457 63 sel 0;
#X obj 463 508 MouseState;
#X text 536 510 <-- replace vanilla?;
#X text 458 530 Anyway to get mousestates makeys?;
#X obj 496 156 s \$0-arrows;
#X obj 139 636 r \$0-arrows;
#N canvas 892 394 293 331 once 0;
#X obj 99 172 spigot;
#X obj 44 69 inlet;
#X obj 99 121 t a b;
#X obj 136 150 f 1;
#X obj 99 204 t a b;
#X obj 129 226 f 0;
#X obj 99 257 outlet;
#X obj 217 66 inlet;
#X obj 217 89 bang;
#X obj 217 112 f 1;
#X obj 44 90 route bang;
#X obj 44 120 t b b;
#X obj 44 172 spigot;
#X obj 44 204 t b b;
#X connect 0 0 4 0;
#X connect 1 0 10 0;
#X connect 2 0 0 0;
#X connect 2 1 3 0;
#X connect 3 0 0 1;
#X connect 3 0 12 1;
#X connect 4 0 6 0;
#X connect 4 1 5 0;
#X connect 5 0 3 1;
#X connect 7 0 8 0;
#X connect 8 0 9 0;
#X connect 9 0 3 1;
#X connect 10 0 11 0;
#X connect 10 1 2 0;
#X connect 11 0 12 0;
#X connect 11 1 3 0;
#X connect 12 0 13 0;
#X connect 13 0 6 0;
#X connect 13 1 5 0;
#X restore 496 132 pd once;
#X obj 457 85 s \$0-keynsel;
#X obj 535 109 r \$0-keynsel;
#X text 520 41 Left Right Up Down Space;
#X obj 458 183 gemkeyboard;
#X obj 458 211 sel 123 124 126 125 49;
#X msg 458 434 symbol Left;
#X msg 483 387 symbol Right;
#X msg 509 341 symbol Up;
#X msg 535 295 symbol Down;
#X msg 561 250 symbol Space;
#X obj 458 456 s \$0-symbol-Left;
#X obj 483 410 s \$0-symbol-Right;
#X obj 509 364 s \$0-symbol-Up;
#X obj 535 318 s \$0-symbol-Down;
#X obj 561 272 s \$0-symbol-Space;
#X obj 50 392 r \$0-symbol-Left;
#X obj 60 415 r \$0-symbol-Right;
#X obj 68 437 r \$0-symbol-Up;
#X obj 76 459 r \$0-symbol-Down;
#X obj 82 481 r \$0-symbol-Space;
#X text 537 182 Left Right Up Down Space;
#X text 459 679 (c)2012 \, megrimm;
#X connect 0 0 29 0;
#X connect 2 0 36 0;
#X connect 3 0 11 0;
#X connect 5 0 12 0;
#X connect 6 0 16 0;
#X connect 7 0 13 0;
#X connect 8 0 14 0;
#X connect 9 0 15 0;
#X connect 17 0 23 0;
#X connect 18 0 24 0;
#X connect 19 0 28 0;
#X connect 20 0 25 0;
#X connect 21 0 26 0;
#X connect 22 0 27 0;
#X connect 29 0 18 0;
#X connect 29 1 17 0;
#X connect 29 2 19 0;
#X connect 29 3 20 0;
#X connect 29 4 21 0;
#X connect 29 5 22 0;
#X connect 30 0 1 0;
#X connect 31 0 1 0;
#X connect 32 0 1 0;
#X connect 33 0 1 0;
#X connect 34 0 1 0;
#X connect 35 0 1 0;
#X connect 36 0 5 0;
#X connect 36 1 3 0;
#X connect 36 2 6 0;
#X connect 36 3 7 0;
#X connect 36 4 8 0;
#X connect 36 5 9 0;
#X connect 37 0 38 0;
#X connect 37 1 44 0;
#X connect 38 0 45 0;
#X connect 43 0 1 0;
#X connect 44 0 42 0;
#X connect 46 0 44 1;
#X connect 48 0 49 0;
#X connect 49 0 50 0;
#X connect 49 1 51 0;
#X connect 49 2 52 0;
#X connect 49 3 53 0;
#X connect 49 4 54 0;
#X connect 50 0 55 0;
#X connect 51 0 56 0;
#X connect 52 0 57 0;
#X connect 53 0 58 0;
#X connect 54 0 59 0;
#X connect 60 0 1 0;
#X connect 61 0 1 0;
#X connect 62 0 1 0;
#X connect 63 0 1 0;
#X connect 64 0 1 0;
