#N canvas 580 135 460 475 10;
#X obj 115 90 key;
#X obj 193 74 keyup;
#X obj 116 124 sel \$1;
#X obj 254 160 sel \$1;
#X obj 143 208 t b b;
#X msg 186 248 stop;
#X obj 268 296 del 50;
#X msg 288 343 0;
#X msg 154 306 1;
#X obj 156 374 change;
#X obj 156 421 outlet;
#X connect 0 0 2 0;
#X connect 1 0 3 0;
#X connect 2 0 4 0;
#X connect 3 0 6 0;
#X connect 4 0 8 0;
#X connect 4 1 5 0;
#X connect 5 0 6 0;
#X connect 6 0 7 0;
#X connect 7 0 9 0;
#X connect 8 0 9 0;
#X connect 9 0 10 0;
