#N canvas 526 350 742 476 10;
#X obj 252 23 inlet;
#X obj 83 13 inlet;
#X obj 85 72 moocow/any2bytes;
#X obj 117 419 outlet;
#X obj 252 64 list fromsymbol;
#X obj 252 44 symbol;
#X obj 117 311 moocow/bytes2any;
#X obj 117 386 list fromsymbol;
#X obj 197 349 symbol;
#X obj 36 350 makefilename %f;
#X obj 36 380 print;
#X obj 120 269 comport \$1 \$2;
#X obj 386 13 inlet;
#X obj 497 103 r \$0-raw;
#X obj 497 125 spigot;
#X obj 497 147 print RAW;
#X obj 557 123 spigot;
#X obj 386 223 s \$0-open;
#X obj 425 203 s \$0-baud;
#X obj 465 183 s \$0-close;
#X obj 386 37 route open baud close print;
#X obj 557 147 print RAWLIST;
#X obj 557 103 r \$0-rawlist;
#X obj 645 123 spigot;
#X obj 530 80 route raw rawlist output;
#X obj 646 103 r \$0-output;
#X obj 645 147 print OUTPUT;
#X msg 136 135 open \$1;
#X msg 144 178 baud \$1;
#X obj 136 114 r \$0-open;
#X obj 144 157 r \$0-baud;
#X obj 151 199 r \$0-close;
#X msg 151 220 close;
#X connect 0 0 5 0;
#X connect 1 0 2 0;
#X connect 2 0 11 0;
#X connect 4 0 6 1;
#X connect 5 0 4 0;
#X connect 6 0 9 0;
#X connect 7 0 3 0;
#X connect 8 0 7 0;
#X connect 9 0 7 0;
#X connect 9 0 10 0;
#X connect 11 0 6 0;
#X connect 12 0 20 0;
#X connect 13 0 14 0;
#X connect 14 0 15 0;
#X connect 16 0 21 0;
#X connect 20 0 17 0;
#X connect 20 1 18 0;
#X connect 20 2 19 0;
#X connect 20 3 24 0;
#X connect 22 0 16 0;
#X connect 23 0 26 0;
#X connect 24 0 14 1;
#X connect 24 1 16 1;
#X connect 24 2 23 1;
#X connect 25 0 23 0;
#X connect 27 0 11 0;
#X connect 28 0 11 0;
#X connect 29 0 27 0;
#X connect 30 0 28 0;
#X connect 31 0 32 0;
#X connect 32 0 11 0;
