#N canvas 770 120 581 477 10;
#X msg 337 164 open \$1;
#X obj 337 31 inlet;
#X obj 80 301 list tosymbol;
#X obj 195 414 outlet;
#X obj 305 312 r \$0-raw;
#X obj 305 334 spigot;
#X obj 305 356 print RAW;
#X obj 76 194 s \$0-raw;
#X obj 66 172 comport \$1 \$2, f 14;
#X msg 376 119 baud \$1;
#N canvas 0 22 450 300 lst.collection 0;
#X obj 151 47 inlet;
#X obj 128 201 outlet;
#X obj 151 112 list prepend;
#X obj 151 137 t a a;
#X obj 201 45 inlet;
#X obj 130 173 list;
#X obj 201 77 t b b;
#X connect 0 0 2 0;
#X connect 2 0 3 0;
#X connect 3 0 5 1;
#X connect 3 1 2 1;
#X connect 4 0 6 0;
#X connect 5 0 1 0;
#X connect 6 0 5 0;
#X connect 6 1 2 1;
#X restore 80 257 pd lst.collection;
#X obj 80 408 outlet;
#X obj 349 271 spigot;
#X msg 416 77 close;
#X obj 147 193 s \$0-serinfo;
#X obj 195 390 r \$0-serinfo;
#X obj 80 344 list trim;
#X obj 80 322 zexy/symbol2list;
#X obj 66 220 sel 13 10 33;
#X obj 337 55 route open baud close print;
#X obj 349 291 print RAWLIST;
#X obj 349 251 r \$0-rawlist;
#X obj 88 280 s \$0-rawlist;
#X obj 393 333 spigot;
#X obj 394 313 r \$0-output;
#X obj 393 353 print OUTPUT;
#X obj 90 369 s \$0-output;
#X obj 66 38 inlet;
#X obj 193 321 fresh/num.s2f;
#X obj 66 106 moocow/any2bytes;
#X obj 75 148 r \$0-tocom;
#X obj 337 185 s \$0-tocom;
#X obj 376 140 s \$0-tocom;
#X obj 416 97 s \$0-tocom;
#X obj 456 77 s \$0-toprint;
#X obj 338 208 r \$0-toprint;
#X obj 338 228 route raw rawlist output input;
#X obj 437 269 spigot;
#X obj 438 249 r \$0-input;
#X obj 437 289 print input;
#X obj 75 128 s \$0-input;
#X obj 496 99 s \$0-tocom;
#X connect 0 0 31 0;
#X connect 1 0 19 0;
#X connect 2 0 17 0;
#X connect 4 0 5 0;
#X connect 5 0 6 0;
#X connect 8 0 7 0;
#X connect 8 0 18 0;
#X connect 8 1 14 0;
#X connect 9 0 32 0;
#X connect 10 0 2 0;
#X connect 10 0 22 0;
#X connect 12 0 20 0;
#X connect 13 0 33 0;
#X connect 15 0 3 0;
#X connect 16 0 11 0;
#X connect 16 0 26 0;
#X connect 17 0 16 0;
#X connect 18 0 10 1;
#X connect 18 3 10 0;
#X connect 19 0 0 0;
#X connect 19 1 9 0;
#X connect 19 2 13 0;
#X connect 19 3 34 0;
#X connect 19 4 41 0;
#X connect 21 0 12 0;
#X connect 23 0 25 0;
#X connect 24 0 23 0;
#X connect 27 0 29 0;
#X connect 29 0 8 0;
#X connect 29 0 40 0;
#X connect 30 0 8 0;
#X connect 35 0 36 0;
#X connect 36 0 5 1;
#X connect 36 1 12 1;
#X connect 36 2 23 1;
#X connect 36 3 37 1;
#X connect 37 0 39 0;
#X connect 38 0 37 0;
