#N canvas 233 118 351 532 10;
#X msg 175 84 open 1;
#X msg 187 107 baud 9600;
#X msg 162 61 close;
#X floatatom 57 470 10 0 0 0 - - -, f 10;
#X floatatom 127 472 10 0 0 0 - - -, f 10;
#X obj 57 354 route A;
#X obj 57 380 list split 1;
#X obj 127 444 route B;
#X obj 127 420 list trim;
#X msg 192 147 print raw \$1;
#X obj 192 128 tgl 15 0 empty empty empty 17 7 0 10 -262144 -1 -1 0
1;
#X obj 193 167 tgl 15 0 empty empty empty 17 7 0 10 -262144 -1 -1 0
1;
#X msg 193 186 print rawlist \$1;
#X obj 194 208 tgl 15 0 empty empty empty 17 7 0 10 -262144 -1 -1 0
1;
#X msg 194 228 print output \$1;
#X obj 57 317 phy.arduino 1 9600;
#X obj 199 248 tgl 15 0 empty empty empty 17 7 0 10 -262144 -1 -1 0
1;
#X msg 199 268 print input \$1;
#X msg 57 155 100 400 200 350;
#X text 52 19 send commands to arduino and convert raw (ascii) arduino
output, f 35;
#X connect 0 0 15 1;
#X connect 1 0 15 1;
#X connect 2 0 15 1;
#X connect 5 0 6 0;
#X connect 6 0 3 0;
#X connect 6 1 8 0;
#X connect 7 0 4 0;
#X connect 8 0 7 0;
#X connect 9 0 15 1;
#X connect 10 0 9 0;
#X connect 11 0 12 0;
#X connect 12 0 15 1;
#X connect 13 0 14 0;
#X connect 14 0 15 1;
#X connect 15 0 5 0;
#X connect 16 0 17 0;
#X connect 17 0 15 1;
#X connect 18 0 15 0;
