#N canvas 1102 420 628 477 10;
#X msg 66 60 open \$1;
#X obj 267 34 inlet;
#X obj 80 301 list tosymbol;
#X obj 195 414 outlet;
#X obj 378 124 r \$0-raw;
#X obj 378 146 spigot;
#X obj 378 168 print RAW;
#X obj 76 194 s \$0-raw;
#X obj 66 172 comport \$1 \$2, f 14;
#X msg 74 103 baud \$1;
#N canvas 0 22 450 300 lst.collection 0;
#X obj 151 47 inlet;
#X obj 128 201 outlet;
#X obj 151 112 list prepend;
#X obj 151 137 t a a;
#X obj 201 45 inlet;
#X obj 130 173 list;
#X obj 201 77 t b b;
#X connect 0 0 2 0;
#X connect 2 0 3 0;
#X connect 3 0 5 1;
#X connect 3 1 2 1;
#X connect 4 0 6 0;
#X connect 5 0 1 0;
#X connect 6 0 5 0;
#X connect 6 1 2 1;
#X restore 80 257 pd lst.collection;
#X obj 80 408 outlet;
#X obj 438 144 spigot;
#X obj 267 244 s \$0-open;
#X obj 66 39 r \$0-open;
#X obj 306 224 s \$0-baud;
#X obj 74 82 r \$0-baud;
#X obj 346 204 s \$0-close;
#X obj 81 124 r \$0-close;
#X msg 81 145 close;
#X obj 147 193 s \$0-serinfo;
#X obj 195 390 r \$0-serinfo;
#X obj 80 344 list trim;
#X obj 80 322 zexy/symbol2list;
#X obj 66 220 sel 13 10 33;
#X obj 267 58 route open baud close print;
#X obj 438 168 print RAWLIST;
#X obj 438 124 r \$0-rawlist;
#X obj 88 280 s \$0-rawlist;
#X obj 526 144 spigot;
#X obj 411 101 route raw rawlist output;
#X obj 527 124 r \$0-output;
#X obj 526 168 print OUTPUT;
#X obj 90 369 s \$0-output;
#X obj 9 36 inlet;
#X connect 0 0 8 0;
#X connect 1 0 25 0;
#X connect 2 0 23 0;
#X connect 4 0 5 0;
#X connect 5 0 6 0;
#X connect 8 0 7 0;
#X connect 8 0 24 0;
#X connect 8 1 20 0;
#X connect 9 0 8 0;
#X connect 10 0 2 0;
#X connect 10 0 28 0;
#X connect 12 0 26 0;
#X connect 14 0 0 0;
#X connect 16 0 9 0;
#X connect 18 0 19 0;
#X connect 19 0 8 0;
#X connect 21 0 3 0;
#X connect 22 0 11 0;
#X connect 22 0 33 0;
#X connect 23 0 22 0;
#X connect 24 0 10 1;
#X connect 24 3 10 0;
#X connect 25 0 13 0;
#X connect 25 1 15 0;
#X connect 25 2 17 0;
#X connect 25 3 30 0;
#X connect 27 0 12 0;
#X connect 29 0 32 0;
#X connect 30 0 5 1;
#X connect 30 1 12 1;
#X connect 30 2 29 1;
#X connect 31 0 29 0;
#X connect 34 0 8 0;
