#N canvas 0 23 495 304 10;
#X declare -stdpath moocow;
#X obj 344 79 key;
#X floatatom 351 100 5 0 0 0 - - -, f 5;
#X obj 46 194 declare -stdpath moocow;
#X obj 46 115 bytes2any 128 0;
#X msg 145 113 -1;
#X obj 377 136 spigot 0;
#X obj 422 116 tgl 15 0 empty empty empty 17 7 0 10 -262144 -1 -1 1
1;
#X msg 225 150 devices;
#X msg 231 171 info;
#X msg 212 108 open \$1;
#X msg 219 129 close;
#X obj 344 163 s \$0-tocom;
#X obj 212 194 s \$0-tocom;
#X obj 46 135 lst.collection;
#X obj 46 154 list trim;
#X obj 344 116 sel 10;
#X msg 344 136 10;
#X obj 127 93 print com-R;
#X obj 46 173 print com-L;
#X obj 46 12 inlet;
#X obj 212 20 inlet;
#X obj 212 54 route open close devices info key;
#X obj 61 46 r \$0-tocom;
#X obj 413 181 f;
#X obj 441 182 + 1;
#X obj 413 162 t b;
#X msg 439 161 0;
#X floatatom 413 201 5 0 0 0 - - -, f 5;
#X obj 46 73 comport 1 9600;
#X connect 0 0 1 0;
#X connect 0 0 15 0;
#X connect 3 0 13 0;
#X connect 4 0 3 1;
#X connect 5 0 11 0;
#X connect 5 0 25 0;
#X connect 6 0 5 1;
#X connect 7 0 12 0;
#X connect 8 0 12 0;
#X connect 9 0 12 0;
#X connect 10 0 12 0;
#X connect 13 0 14 0;
#X connect 14 0 18 0;
#X connect 15 0 16 0;
#X connect 15 1 5 0;
#X connect 16 0 11 0;
#X connect 19 0 28 0;
#X connect 20 0 21 0;
#X connect 21 0 9 0;
#X connect 21 1 10 0;
#X connect 21 2 7 0;
#X connect 21 3 8 0;
#X connect 21 4 5 1;
#X connect 22 0 28 0;
#X connect 23 0 24 0;
#X connect 23 0 27 0;
#X connect 24 0 23 1;
#X connect 25 0 23 0;
#X connect 26 0 23 1;
#X connect 28 0 3 0;
#X connect 28 1 17 0;
