#N canvas 211 50 786 680 10;
#X obj 38 629 outlet;
#X obj 38 605 r \$0-commands;
#X msg 37 469 8;
#X text 66 469 <-- BackSpace;
#X text 72 488 <-- Carriage Return;
#X msg 44 489 13;
#X msg 52 511 27 85 1;
#X msg 53 531 27 85 0;
#X text 107 511 <-- Uni-Directional ON;
#X text 108 528 <-- Uni-Directional OFF;
#X obj 37 576 s \$0-commands;
#X msg 37 307 27 106 \$1;
#X msg 37 265 300;
#X msg 45 286 275;
#X msg 45 331 10;
#X msg 51 352 12;
#X text 74 331 <-- Line Feed;
#X text 79 351 <-- Form Feed;
#X obj 37 426 s \$0-commands;
#X msg 309 299 27 15;
#X msg 316 320 27 77;
#X msg 318 341 27 103;
#X msg 303 278 27 80;
#X obj 303 364 s \$0-commands;
#X obj 308 573 s \$0-commands;
#X msg 308 488 27 97 0;
#X msg 318 508 27 97 0;
#X msg 329 528 27 97 0;
#X msg 339 548 27 97 0;
#X text 361 486 <-- Left;
#X text 371 507 <-- Center;
#X text 384 525 <-- Right;
#X text 394 549 <-- Within Line;
#X text 304 469 Justification;
#X obj 305 449 s \$0-commands;
#X msg 305 407 127;
#X text 338 406 <-- Delete Character;
#X msg 311 427 27 64;
#X text 352 426 <-- Initialize Printer;
#X text 300 389 Miscellaneous;
#X text 35 448 Horizontal Commands;
#X text 31 243 Vertical Commands;
#X text 298 259 Charecter Sizing;
#X text 514 347 Charecter Style;
#X obj 517 578 s \$0-commands;
#X msg 525 390 27 120 0;
#X msg 582 481 27 45 1;
#X msg 587 502 27 45 0;
#X text 639 482 <-- Underline ON;
#X text 640 501 <-- Underline OFF;
#X text 574 371 <-- HSD Print Mode;
#X text 615 411 <-- NLQ Print Mode;
#X msg 517 370 27 40 0;
#X msg 560 435 27 71;
#X msg 565 456 27 72;
#X text 604 434 <-- Emphasized ON;
#X text 605 453 <-- Emphisized OFF;
#X msg 590 523 27 52;
#X msg 591 543 27 53;
#X text 630 522 <-- Italics ON;
#X text 631 541 <-- Italics OFF;
#X text 365 342 <-- 15;
#X text 358 320 <-- 20;
#X text 343 278 <-- 17;
#X text 582 388 <-- Utittity Print Mode;
#X text 100 305 <-- Reverse Feed by n/216", f 17;
#X msg 60 552 27 60;
#X text 101 548 <-- Uni-Directional for (1) line;
#X msg 59 376 27 49;
#X msg 68 399 27 51 20;
#X msg 550 413 27 107 0;
#X obj 36 27 inlet;
#X obj 36 53 change;
#X obj 36 74 t b;
#X obj 45 96 bng 15 250 50 0 empty empty empty 17 7 0 10 -262144 -1
-1;
#X obj 140 202 s \$0-commands;
#X msg 140 182 27 71;
#X msg 155 143 27 72;
#X msg 417 69 27 45 1;
#X msg 426 165 27 45 0;
#X msg 187 67 27 120 0;
#X msg 171 105 27 40 0;
#X msg 302 72 27 85 1;
#X msg 283 110 27 85 0;
#X obj 36 177 s \$0-rndstyle;
#X obj 140 29 r \$0-rndstyle;
#X obj 140 48 sel 0 1 2 3;
#X obj 154 163 s \$0-commands;
#X obj 171 123 s \$0-commands;
#X obj 187 86 s \$0-commands;
#X obj 283 27 r \$0-rndstyle;
#X obj 283 46 sel 4 5;
#X obj 302 90 s \$0-commands;
#X obj 283 129 s \$0-commands;
#X obj 417 29 r \$0-rndstyle;
#X obj 417 49 sel 6;
#X obj 417 184 s \$0-commands;
#X obj 426 147 delay;
#X obj 426 90 t b b;
#X obj 453 128 + 500;
#X obj 453 109 random 2000;
#X obj 36 157 random 6;
#X obj 43 136 s \$0-commands;
#X msg 43 116 27 49;
#X connect 1 0 0 0;
#X connect 2 0 10 0;
#X connect 5 0 10 0;
#X connect 6 0 10 0;
#X connect 7 0 10 0;
#X connect 11 0 18 0;
#X connect 12 0 11 0;
#X connect 13 0 11 0;
#X connect 14 0 18 0;
#X connect 15 0 18 0;
#X connect 19 0 23 0;
#X connect 20 0 23 0;
#X connect 21 0 23 0;
#X connect 22 0 23 0;
#X connect 25 0 24 0;
#X connect 26 0 24 0;
#X connect 27 0 24 0;
#X connect 28 0 24 0;
#X connect 35 0 34 0;
#X connect 37 0 34 0;
#X connect 45 0 44 0;
#X connect 46 0 44 0;
#X connect 47 0 44 0;
#X connect 52 0 44 0;
#X connect 53 0 44 0;
#X connect 54 0 44 0;
#X connect 57 0 44 0;
#X connect 58 0 44 0;
#X connect 66 0 10 0;
#X connect 68 0 18 0;
#X connect 69 0 18 0;
#X connect 70 0 44 0;
#X connect 71 0 72 0;
#X connect 72 0 73 0;
#X connect 73 0 74 0;
#X connect 73 0 101 0;
#X connect 73 0 103 0;
#X connect 76 0 75 0;
#X connect 77 0 87 0;
#X connect 78 0 96 0;
#X connect 78 0 98 0;
#X connect 79 0 96 0;
#X connect 80 0 89 0;
#X connect 81 0 88 0;
#X connect 82 0 92 0;
#X connect 83 0 93 0;
#X connect 85 0 86 0;
#X connect 86 0 76 0;
#X connect 86 1 77 0;
#X connect 86 2 81 0;
#X connect 86 3 80 0;
#X connect 90 0 91 0;
#X connect 91 0 83 0;
#X connect 91 1 82 0;
#X connect 94 0 95 0;
#X connect 95 0 78 0;
#X connect 97 0 79 0;
#X connect 98 0 97 0;
#X connect 98 1 100 0;
#X connect 99 0 97 1;
#X connect 100 0 99 0;
#X connect 101 0 84 0;
#X connect 103 0 102 0;
