#N canvas 525 23 357 702 12;
#X msg 112 160 rewind;
#X obj 95 324 print done;
#X obj 34 297 textfile;
#X msg 150 255 bang;
#N canvas 0 22 833 538 open-gcode 0;
#X obj 126 100 openpanel;
#X msg 126 127 read \$1 cr;
#X obj 126 152 t b a;
#X msg 126 177 rewind;
#X obj 180 50 inlet;
#X obj 187 277 outlet;
#X connect 0 0 1 0;
#X connect 1 0 2 0;
#X connect 2 0 3 0;
#X connect 2 1 5 0;
#X connect 3 0 5 0;
#X connect 4 0 0 0;
#X restore 35 113 pd open-gcode;
#X obj 34 348 list split 1;
#X obj 80 372 list split 1;
#X obj 141 398 list split 1;
#X obj 80 519 list fromsymbol;
#X obj 80 542 list split 1;
#X obj 126 566 list tosymbol;
#X obj 141 422 list fromsymbol;
#X obj 141 446 list split 1;
#X obj 187 469 list tosymbol;
#X obj 126 590 zexy/symbol2list;
#X obj 187 493 zexy/symbol2list;
#X obj 126 616 pack f f;
#X obj 126 641 outlet;
#X obj 35 18 inlet;
#X obj 35 42 route open;
#X msg 149 207 read \$1 cr;
#X obj 112 137 t b a;
#X obj 35 89 route bang;
#X obj 149 184 symbol;
#X obj 112 66 s \$0-opnbng;
#X obj 150 232 r \$0-opnbng;
#X connect 0 0 2 0;
#X connect 2 0 5 0;
#X connect 2 1 1 0;
#X connect 3 0 2 0;
#X connect 4 0 2 0;
#X connect 5 1 6 0;
#X connect 6 0 8 0;
#X connect 6 1 7 0;
#X connect 7 0 11 0;
#X connect 8 0 9 0;
#X connect 9 1 10 0;
#X connect 10 0 14 0;
#X connect 11 0 12 0;
#X connect 12 1 13 0;
#X connect 13 0 15 0;
#X connect 14 0 16 0;
#X connect 15 0 16 1;
#X connect 16 0 17 0;
#X connect 18 0 19 0;
#X connect 19 0 22 0;
#X connect 19 1 24 0;
#X connect 20 0 2 0;
#X connect 21 0 0 0;
#X connect 21 1 23 0;
#X connect 22 0 4 0;
#X connect 22 1 21 0;
#X connect 23 0 20 0;
#X connect 25 0 3 0;
