#N canvas 579 67 428 392 10;
#X obj 27 70 metro 20;
#X obj 27 53 tgl 15 0 empty empty empty 17 7 0 10 -262144 -1 -1 0 1
;
#X floatatom 68 92 5 0 0 0 - - -, f 5;
#X floatatom 109 108 5 0 0 0 - - -, f 5;
#X floatatom 150 124 5 0 0 0 - - -, f 5;
#X obj 27 211 vsl 15 128 0 127 0 0 empty empty empty 0 -9 0 10 -262144
-1 -1 6539 1;
#X obj 27 171 + 1;
#X obj 27 190 * 64;
#X text 113 90 amplitude max of each step;
#X text 155 107 low pass filter of the output;
#X text 195 124 high pass filter of the output;
#X floatatom 35 359 5 0 0 0 - - -, f 5;
#X obj 27 152 rnd.flow 0.1 20 20;
#X obj 38 116 bng 15 250 50 0 empty empty empty 17 7 0 10 -262144 -1
-1;
#X connect 0 0 12 0;
#X connect 1 0 0 0;
#X connect 2 0 12 1;
#X connect 3 0 12 2;
#X connect 4 0 12 3;
#X connect 5 0 11 0;
#X connect 6 0 7 0;
#X connect 7 0 5 0;
#X connect 12 0 6 0;
#X connect 13 0 12 0;
