#N canvas 492 168 547 391 10;
#X obj 126 3 inlet;
#X obj 312 12 inlet;
#X obj 182 232 / 100;
#X obj 119 237 / 100;
#X obj 251 234 / 100;
#X obj 117 308 outlet;
#X obj 116 282 pack f f f;
#X obj 119 202 random \$1;
#X obj 182 204 random \$1;
#X obj 252 205 random \$1;
#X obj 371 55 unpack f f f;
#X obj 214 32 f \$1;
#X obj 215 73 * 100;
#X obj 126 32 t b b b;
#X obj 214 11 loadbang;
#X obj 367 94 * 100;
#X obj 413 95 * 100;
#X obj 457 96 * 100;
#X obj 374 28 route float list;
#X connect 0 0 13 0;
#X connect 1 0 18 0;
#X connect 2 0 6 1;
#X connect 3 0 6 0;
#X connect 4 0 6 2;
#X connect 6 0 5 0;
#X connect 7 0 3 0;
#X connect 8 0 2 0;
#X connect 9 0 4 0;
#X connect 10 0 15 0;
#X connect 10 1 16 0;
#X connect 10 2 17 0;
#X connect 11 0 12 0;
#X connect 12 0 7 1;
#X connect 12 0 8 1;
#X connect 12 0 9 1;
#X connect 13 0 7 0;
#X connect 13 1 8 0;
#X connect 13 2 9 0;
#X connect 14 0 11 0;
#X connect 15 0 7 1;
#X connect 16 0 8 1;
#X connect 17 0 9 1;
#X connect 18 0 12 0;
#X connect 18 1 10 0;
