#N canvas 365 433 478 273 10;
#X obj 125 63 inlet;
#X obj 125 83 t b;
#X obj 245 63 inlet;
#X obj 125 103 random;
#X obj 158 83 r \$0-length;
#X obj 272 143 s \$0-length;
#X obj 125 183 list-nth;
#X obj 125 203 outlet;
#X obj 245 163 s \$0-list;
#X obj 125 163 list;
#X obj 146 143 r \$0-list;
#X obj 125 123 t b f;
#X obj 272 123 list length;
#X obj 245 103 t l l;
#X obj 245 83 list;
#X connect 0 0 1 0;
#X connect 1 0 3 0;
#X connect 2 0 14 0;
#X connect 3 0 11 0;
#X connect 4 0 3 1;
#X connect 6 0 7 0;
#X connect 9 0 6 0;
#X connect 10 0 9 1;
#X connect 11 0 9 0;
#X connect 11 1 6 1;
#X connect 12 0 5 0;
#X connect 13 0 8 0;
#X connect 13 1 12 0;
#X connect 14 0 13 0;
