#N canvas 298 328 376 466 10;
#X obj 55 171 until;
#X obj 115 194 array define \$0-store 4;
#X obj 38 373 array get \$0-store;
#X msg 115 171 const 1;
#X obj 36 148 t b b b;
#X obj 82 217 random 4;
#X obj 82 263 array get \$0-store 0 1;
#X obj 82 286 + 1;
#X obj 82 309 array set \$0-store;
#X obj 82 240 t f f;
#X obj 55 194 t b b;
#X obj 55 332 array sum \$0-store;
#X obj 55 355 sel 16;
#X msg 224 157 resize \$1;
#X obj 35 9 inlet;
#X obj 132 9 inlet;
#X obj 195 13 inlet;
#X obj 243 79 f \$1;
#X obj 281 78 f \$2;
#X obj 243 52 loadbang;
#X obj 33 418 outlet;
#X connect 0 0 10 0;
#X connect 2 0 20 0;
#X connect 3 0 1 0;
#X connect 4 0 2 0;
#X connect 4 1 0 0;
#X connect 4 2 3 0;
#X connect 5 0 9 0;
#X connect 6 0 7 0;
#X connect 7 0 8 0;
#X connect 9 0 6 0;
#X connect 9 1 8 1;
#X connect 10 0 11 0;
#X connect 10 1 5 0;
#X connect 11 0 12 0;
#X connect 12 0 0 1;
#X connect 13 0 1 0;
#X connect 14 0 4 0;
#X connect 15 0 5 1;
#X connect 15 0 13 0;
#X connect 16 0 12 1;
#X connect 17 0 5 1;
#X connect 17 0 13 0;
#X connect 18 0 12 1;
#X connect 19 0 17 0;
#X connect 19 0 18 0;
