#N canvas 0 23 484 517 10;
#X obj 125 29 inlet;
#X obj 93 153 spigot 0;
#X obj 125 75 sel 1;
#X obj 125 53 t f f;
#X obj 94 131 delay;
#X obj 349 33 inlet;
#X obj 399 33 inlet;
#X obj 125 102 t b b b;
#X obj 158 447 outlet;
#X obj 199 144 \$1;
#X obj 226 306 / 100000;
#X obj 226 235 i;
#X obj 199 329 +;
#X obj 199 166 t f f;
#X obj 199 359 outlet;
#X obj 226 188 - \$2;
#X obj 226 258 t b f;
#X obj 226 282 random 0;
#X obj 226 210 * -100000;
#X obj 199 123 t b;
#X connect 0 0 3 0;
#X connect 1 0 7 0;
#X connect 2 0 7 0;
#X connect 3 0 2 0;
#X connect 3 1 1 1;
#X connect 4 0 1 0;
#X connect 5 0 9 1;
#X connect 6 0 15 1;
#X connect 7 0 4 0;
#X connect 7 1 19 0;
#X connect 7 2 8 0;
#X connect 9 0 13 0;
#X connect 10 0 12 1;
#X connect 11 0 16 0;
#X connect 12 0 14 0;
#X connect 12 0 4 1;
#X connect 13 0 12 0;
#X connect 13 1 15 0;
#X connect 15 0 18 0;
#X connect 16 0 17 0;
#X connect 16 1 17 1;
#X connect 17 0 10 0;
#X connect 18 0 11 0;
#X connect 19 0 9 0;
