#N canvas 740 28 424 520 10;
#X obj 109 299 sd.fire.crackles~;
#X obj 109 66 noise~;
#X obj 109 354 dac~;
#X obj 171 65 fresh/nz.pink~;
#X obj 109 208 *~;
#X obj 192 183 == 0;
#X msg 207 129 0;
#X msg 207 153 1;
#X obj 171 207 *~ 0;
#X text 240 127 pink;
#X text 240 150 noise;
#X msg 243 229 vol \$1;
#X floatatom 243 210 5 0 0 0 - - -, f 5;
#X floatatom 244 251 5 0 0 0 - - -, f 5;
#X msg 244 269 amt \$1;
#X connect 0 0 2 0;
#X connect 0 0 2 1;
#X connect 1 0 4 0;
#X connect 3 0 8 0;
#X connect 4 0 0 0;
#X connect 5 0 8 1;
#X connect 6 0 5 0;
#X connect 6 0 4 1;
#X connect 7 0 5 0;
#X connect 7 0 4 1;
#X connect 8 0 0 0;
#X connect 11 0 0 1;
#X connect 12 0 11 0;
#X connect 13 0 14 0;
#X connect 14 0 0 1;
