#N canvas 261 23 295 606 10;
#X obj 60 470 *~;
#X obj 81 281 lop~ 1;
#X obj 82 394 *~;
#X obj 60 203 hip~ 1000;
#X obj 81 420 *~;
#X obj 82 361 *~ 10;
#X obj 81 444 *~ 600;
#X obj 59 555 outlet~;
#X obj 54 32 inlet~;
#X obj 148 31 inlet;
#X obj 59 533 *~ 1;
#X obj 148 119 s \$0-hissvol;
#X obj 80 491 r \$0-hissvol;
#X obj 80 513 / 100;
#X obj 188 78 random 100;
#X obj 111 163 * 5;
#X obj 111 183 + 500;
#X obj 114 242 / 100;
#X obj 114 262 + 0.5;
#X obj 109 320 / 20;
#X obj 109 341 + 7;
#X obj 114 403 * 2;
#X obj 114 423 + 500;
#X obj 188 98 s \$0-hissrnd;
#X obj 111 142 r \$0-hissrnd;
#X obj 114 222 r \$0-hissrnd;
#X obj 110 300 r \$0-hissrnd;
#X obj 115 382 r \$0-hissrnd;
#X obj 148 54 route vol bang;
#X connect 0 0 10 0;
#X connect 1 0 5 0;
#X connect 2 0 4 0;
#X connect 2 0 4 1;
#X connect 3 0 0 0;
#X connect 4 0 6 0;
#X connect 5 0 2 0;
#X connect 5 0 2 1;
#X connect 6 0 0 1;
#X connect 8 0 1 0;
#X connect 8 0 3 0;
#X connect 9 0 28 0;
#X connect 10 0 7 0;
#X connect 12 0 13 0;
#X connect 13 0 10 1;
#X connect 14 0 23 0;
#X connect 15 0 16 0;
#X connect 16 0 3 1;
#X connect 17 0 18 0;
#X connect 18 0 1 1;
#X connect 19 0 20 0;
#X connect 20 0 5 1;
#X connect 21 0 22 0;
#X connect 22 0 6 1;
#X connect 24 0 15 0;
#X connect 25 0 17 0;
#X connect 26 0 19 0;
#X connect 27 0 21 0;
#X connect 28 0 11 0;
#X connect 28 1 14 0;
