#N canvas 571 68 456 425 10;
#X obj 44 339 dac~;
#X obj 44 214 sd.fire.creaking~;
#X obj 47 14 hsl 128 24 0 100 0 0 \$0-door empty Door 20 13 0 12 -33289
-162280 -191407 0 1;
#X msg 56 147 vol \$1;
#X obj 44 297 fresh/fx.freeverb~;
#X msg 149 275 room 0.724 \, damp 2.248 \, dry 0.44 \, wet 0.204;
#X obj 170 298 loadbang;
#X msg 170 321 \; pd dsp 1 \;;
#X obj 149 254 loadbang;
#X msg 44 89 control \$1;
#X obj 53 67 r \$0-control;
#X obj 56 109 r \$0-volume;
#X floatatom 59 48 5 0 0 0 - - -, f 5;
#X floatatom 64 129 5 0 0 0 - - -, f 5;
#X obj 69 170 bng 15 250 50 0 empty empty empty 17 7 0 10 -262144 -1
-1;
#X connect 1 0 4 0;
#X connect 1 0 4 1;
#X connect 2 0 9 0;
#X connect 2 0 12 0;
#X connect 3 0 1 0;
#X connect 4 0 0 1;
#X connect 4 0 0 0;
#X connect 5 0 4 2;
#X connect 6 0 7 0;
#X connect 8 0 5 0;
#X connect 9 0 1 0;
#X connect 10 0 9 0;
#X connect 11 0 3 0;
#X connect 13 0 3 0;
#X connect 14 0 1 0;
