#N canvas 87 23 453 776 10;
#N canvas 102 50 515 157 wood 0;
#X obj 232 1 inlet~;
#X obj 423 42 *~ 0.2;
#X obj 232 83 outlet~;
#X obj 144 42 bp~ 250 2;
#X obj 212 42 bp~ 395 2;
#X obj 76 42 bp~ 125 1;
#X obj 1 42 bp~ 62.5 1;
#X obj 282 42 bp~ 560 3;
#X obj 351 42 bp~ 790 3;
#X connect 0 0 1 0;
#X connect 0 0 3 0;
#X connect 0 0 4 0;
#X connect 0 0 5 0;
#X connect 0 0 6 0;
#X connect 0 0 7 0;
#X connect 0 0 8 0;
#X connect 1 0 2 0;
#X connect 3 0 2 0;
#X connect 4 0 2 0;
#X connect 5 0 2 0;
#X connect 6 0 2 0;
#X connect 7 0 2 0;
#X connect 8 0 2 0;
#X restore 34 517 pd wood;
#N canvas 32 50 230 330 squarepanel 0;
#X obj 2 280 hip~ 125;
#X obj 3 1 inlet~;
#X obj 2 303 outlet~;
#X obj 54 51 sd.fire.dfbef~ 4.52 0.05;
#X obj 54 74 sd.fire.dfbef~ 5.06 0.05;
#X obj 54 97 sd.fire.dfbef~ 6.27 0.05;
#X obj 54 120 sd.fire.dfbef~ 8 0.05;
#X obj 54 143 sd.fire.dfbef~ 5.48 0.05;
#X obj 54 166 sd.fire.dfbef~ 7.14 0.05;
#X obj 54 189 sd.fire.dfbef~ 10.12 0.05;
#X obj 54 212 sd.fire.dfbef~ 16 0.05;
#X connect 0 0 2 0;
#X connect 1 0 3 0;
#X connect 1 0 4 0;
#X connect 1 0 5 0;
#X connect 1 0 6 0;
#X connect 1 0 7 0;
#X connect 1 0 8 0;
#X connect 1 0 9 0;
#X connect 1 0 10 0;
#X connect 3 0 0 0;
#X connect 4 0 0 0;
#X connect 5 0 0 0;
#X connect 6 0 0 0;
#X connect 7 0 0 0;
#X connect 8 0 0 0;
#X connect 9 0 0 0;
#X connect 10 0 0 0;
#X restore 34 539 pd squarepanel;
#X obj 34 561 *~ 0.2;
#X obj 34 726 outlet~;
#X obj 34 627 *~ 1;
#X obj 183 16 inlet;
#X obj 183 106 s \$0-creakvol;
#X obj 34 276 timer;
#X obj 34 469 vline~;
#X obj 34 200 metro;
#X obj 109 164 swap 1;
#X obj 109 184 -;
#X obj 34 136 t f f;
#X obj 34 177 change;
#X obj 34 115 line;
#X msg 34 94 \$1 100;
#X obj 34 252 t b b;
#X obj 34 428 pack f f;
#X obj 34 493 *~;
#X obj 34 299 min 100;
#X obj 34 321 / 100;
#X obj 140 305 * 60;
#X obj 140 327 + 3;
#X obj 94 263 random 1000;
#X obj 94 284 / 1000;
#X obj 94 348 *;
#X obj 109 207 t f f;
#X obj 94 371 +;
#X obj 34 342 sqrt;
#X msg 34 448 \$1 \, 0 \$2;
#X obj 34 229 t b b;
#X obj 110 326 * 6;
#X obj 34 406 sqrt;
#X obj 34 385 + 0.1;
#X obj 34 363 t f f;
#X obj 34 157 > 0.3;
#X obj 55 606 / 100;
#X obj 226 84 s \$0-creakctl;
#X obj 34 15 r \$0-creakctl;
#X obj 34 72 + 0.3;
#X obj 34 52 / 134;
#X obj 304 453 line;
#X obj 304 302 line;
#X obj 304 391 *;
#X obj 304 411 / 2;
#X obj 304 260 pack f f f;
#X obj 304 230 f;
#X obj 200 484 line;
#X obj 200 441 del;
#X msg 200 463 100 \, 0 300;
#X msg 304 432 0 \, 100 \$1;
#X obj 228 231 s \$0-rndone;
#X obj 319 368 r \$0-rndone;
#X obj 201 276 s \$0-rndtwo;
#X obj 304 347 r \$0-rndtwo;
#X obj 361 185 r \$0-rndone;
#X obj 304 163 r \$0-rndtwo;
#X obj 304 188 t b f;
#X obj 200 420 t b f;
#X obj 201 187 t b b;
#X obj 319 210 * 50;
#X obj 228 209 random 75;
#X obj 201 254 random 75;
#X obj 200 396 - 300;
#X obj 201 369 f;
#X obj 201 301 r \$0-rndtwo;
#X obj 201 328 t b f;
#X obj 228 350 * 50;
#X obj 304 325 s \$0-creakctl;
#X obj 183 44 route vol control bang;
#X msg 304 281 \$2 \, \$3 \$1;
#X obj 268 64 s \$0-creakrnd;
#X obj 201 164 r \$0-creakrnd;
#X obj 200 507 s \$0-autovol;
#X obj 304 476 s \$0-autovol;
#X obj 55 585 r \$0-autovol;
#X obj 34 691 *~ 1;
#X obj 55 670 / 100;
#X obj 55 649 r \$0-creakvol;
#X connect 0 0 1 0;
#X connect 1 0 2 0;
#X connect 2 0 4 0;
#X connect 4 0 76 0;
#X connect 5 0 69 0;
#X connect 7 0 19 0;
#X connect 8 0 18 0;
#X connect 8 0 18 1;
#X connect 9 0 30 0;
#X connect 10 0 11 0;
#X connect 10 1 11 1;
#X connect 11 0 26 0;
#X connect 12 0 35 0;
#X connect 12 1 10 0;
#X connect 13 0 9 0;
#X connect 14 0 12 0;
#X connect 15 0 14 0;
#X connect 16 0 7 0;
#X connect 16 1 7 1;
#X connect 17 0 29 0;
#X connect 18 0 0 0;
#X connect 19 0 20 0;
#X connect 20 0 28 0;
#X connect 21 0 22 0;
#X connect 22 0 27 1;
#X connect 23 0 24 0;
#X connect 24 0 25 0;
#X connect 25 0 27 0;
#X connect 26 0 31 0;
#X connect 26 1 21 0;
#X connect 27 0 9 1;
#X connect 28 0 34 0;
#X connect 29 0 8 0;
#X connect 30 0 16 0;
#X connect 30 1 23 0;
#X connect 31 0 25 1;
#X connect 32 0 17 0;
#X connect 33 0 32 0;
#X connect 34 0 33 0;
#X connect 34 1 17 1;
#X connect 35 0 13 0;
#X connect 36 0 4 1;
#X connect 38 0 40 0;
#X connect 39 0 15 0;
#X connect 40 0 39 0;
#X connect 41 0 74 0;
#X connect 42 0 68 0;
#X connect 43 0 44 0;
#X connect 44 0 50 0;
#X connect 45 0 70 0;
#X connect 46 0 45 0;
#X connect 47 0 73 0;
#X connect 48 0 49 0;
#X connect 49 0 47 0;
#X connect 50 0 41 0;
#X connect 52 0 43 1;
#X connect 54 0 43 0;
#X connect 55 0 45 2;
#X connect 56 0 57 0;
#X connect 57 0 46 0;
#X connect 57 1 45 1;
#X connect 57 1 60 0;
#X connect 58 0 48 0;
#X connect 58 1 48 1;
#X connect 59 0 62 0;
#X connect 59 1 61 0;
#X connect 60 0 46 1;
#X connect 61 0 51 0;
#X connect 62 0 53 0;
#X connect 63 0 58 0;
#X connect 64 0 63 0;
#X connect 65 0 66 0;
#X connect 66 0 64 0;
#X connect 66 1 67 0;
#X connect 67 0 64 1;
#X connect 69 0 6 0;
#X connect 69 1 37 0;
#X connect 69 2 71 0;
#X connect 70 0 42 0;
#X connect 72 0 59 0;
#X connect 75 0 36 0;
#X connect 76 0 3 0;
#X connect 77 0 76 1;
#X connect 78 0 77 0;
