#N canvas 360 23 446 404 10;
#X obj 56 92 noise~;
#X obj 41 137 *~;
#X obj 41 71 lop~ 16;
#X obj 41 242 lop~ 12000;
#X obj 41 26 noise~;
#X obj 41 179 bp~ 440 10;
#X obj 41 221 *~ 1.4;
#X obj 201 26 inlet;
#X obj 41 327 outlet~;
#X obj 41 50 *~;
#X obj 56 116 *~;
#X obj 201 179 s \$0-rmbfreq;
#X obj 69 139 r \$0-rmbfreq;
#X obj 232 159 s \$0-rmbque;
#X obj 98 158 r \$0-rmbque;
#X obj 264 138 s \$0-rmblop1;
#X obj 80 48 r \$0-rmblop1;
#X obj 295 117 s \$0-rmblop2;
#X obj 327 96 s \$0-rmbamp;
#X obj 98 222 r \$0-rmblop2;
#X obj 74 200 r \$0-rmbamp;
#X obj 201 50 route freq que lop1 lop2 amp vol;
#X obj 358 74 s \$0-rmbvol;
#X obj 74 264 r \$0-rmbvol;
#X obj 41 305 *~ 0.5;
#X obj 74 284 / 100;
#X connect 0 0 10 0;
#X connect 0 0 10 1;
#X connect 1 0 5 0;
#X connect 2 0 1 0;
#X connect 3 0 24 0;
#X connect 4 0 9 0;
#X connect 4 0 9 1;
#X connect 5 0 6 0;
#X connect 6 0 3 0;
#X connect 7 0 21 0;
#X connect 9 0 2 0;
#X connect 10 0 1 1;
#X connect 12 0 5 1;
#X connect 14 0 5 2;
#X connect 16 0 2 1;
#X connect 19 0 3 1;
#X connect 20 0 6 1;
#X connect 21 0 11 0;
#X connect 21 1 13 0;
#X connect 21 2 15 0;
#X connect 21 3 17 0;
#X connect 21 4 18 0;
#X connect 21 5 22 0;
#X connect 23 0 25 0;
#X connect 24 0 8 0;
#X connect 25 0 24 1;
