#N canvas 248 23 262 431 10;
#X msg 49 47 1;
#X msg 56 66 0;
#X obj 49 261 bng 15 250 50 0 empty empty empty 17 7 0 10 -262144 -1
-1;
#X obj 80 197 bng 15 250 50 0 empty empty empty 17 7 0 10 -262144 -1
-1;
#X obj 112 137 bng 15 250 50 0 empty empty empty 17 7 0 10 -262144
-1 -1;
#X text 71 261 <-- hi hat;
#X text 101 196 <-- snare;
#X text 133 136 <-- drum;
#X text 47 16 simple motorik sequencer;
#X text 48 379 megrimm 2017;
#X obj 49 87 metro 400;
#X obj 49 114 seq.motorik;
#X obj 112 155 syn.kick.min~;
#X obj 80 216 syn.snare.min~;
#X obj 49 281 syn.hihat~;
#X obj 49 352 dac~;
#X obj 112 175 throw~ snd;
#X obj 80 237 throw~ snd;
#X obj 49 300 throw~ snd;
#X obj 49 327 catch~ snd;
#X floatatom 100 69 5 0 0 0 - - -, f 5;
#X connect 0 0 10 0;
#X connect 1 0 10 0;
#X connect 2 0 14 0;
#X connect 3 0 13 0;
#X connect 4 0 12 0;
#X connect 10 0 11 0;
#X connect 11 0 2 0;
#X connect 11 1 3 0;
#X connect 11 2 4 0;
#X connect 12 0 16 0;
#X connect 13 0 17 0;
#X connect 14 0 18 0;
#X connect 19 0 15 0;
#X connect 19 0 15 1;
#X connect 20 0 10 1;
