#N canvas 289 23 1092 813 10;
#X obj 260 173 vsl 12 32 2 0.5 0 0 empty empty busy 0 -8 0 8 -241291
-1 -1 1653 1;
#X obj 291 174 vsl 12 32 0.3 1.2 0 0 empty empty swing 0 -8 0 8 -260818
-1 -1 2136 1;
#X obj 227 174 vsl 12 32 50 300 0 0 empty empty speed 0 -8 0 8 -44926
-1 -1 2232 1;
#X obj 227 99 loadbang;
#X obj 336 174 vsl 12 32 1 8 0 0 empty empty hihat_steps 0 -8 0 8 -261689
-1 -1 1771 1;
#X obj 415 185 vsl 12 32 1 12 0 0 empty empty snare_runs 0 -8 0 8 -261681
-1 -1 564 1;
#X obj 391 175 vsl 12 32 1 12 0 0 empty empty kick_runs 0 -8 0 8 -225271
-1 -1 564 1;
#X obj 158 67 tgl 15 0 empty empty start 0 -6 0 8 -262144 -1 -1 0 1
;
#X msg 336 137 5;
#X msg 390 137 3;
#X msg 291 138 0.92;
#X msg 227 139 230;
#X msg 260 139 1.2;
#X obj 323 717 dac~;
#X msg 227 248 speed \$1;
#X msg 260 222 busy \$1;
#X msg 291 246 swing \$1;
#X msg 391 249 kicksteps \$1;
#X msg 415 227 snsteps \$1;
#X msg 336 219 hhsteps \$1;
#X obj 158 280 seq.jazzdrum;
#X obj 16 464 fresh/syn.hihat~;
#X obj 150 528 fresh/syn.snare~;
#X obj 89 489 fresh/syn.bassdrum~;
#N canvas 805 193 395 383 \$0-presets 0;
#X obj 27 308 outlet;
#X obj 27 19 inlet;
#X msg 27 73 vol 80 \, dec 20 \, mix 50 \, nak 40 \, tun 10;
#X obj 27 47 sel 0 1 2 3 4 5 6 7;
#X msg 68 148 vol 80 \, dec 60 \, mix 5 \, nak 70 \, tun 20;
#X msg 82 172 vol 90 \, dec 80 \, mix 70 \, nak 20 \, tun 11;
#X msg 96 198 vol 80 \, dec 10 \, mix 90 \, nak 90 \, tun 17;
#X msg 54 123 vol 100 \, dec 10 \, mix 70 \, nak 30 \, tun 7;
#X msg 40 98 vol 75 \, dec 40 \, mix 30 \, nak 90 \, tun 15;
#X msg 110 223 vol 80 \, dec 20 \, mix 50 \, nak 40 \, tun 113;
#X msg 124 247 vol 80 \, dec 10 \, mix 80 \, nak 90 \, tun 15;
#X connect 1 0 3 0;
#X connect 2 0 0 0;
#X connect 3 0 2 0;
#X connect 3 1 8 0;
#X connect 3 2 7 0;
#X connect 3 3 4 0;
#X connect 3 4 5 0;
#X connect 3 5 6 0;
#X connect 3 6 9 0;
#X connect 3 7 10 0;
#X connect 4 0 0 0;
#X connect 5 0 0 0;
#X connect 6 0 0 0;
#X connect 7 0 0 0;
#X connect 8 0 0 0;
#X connect 9 0 0 0;
#X connect 10 0 0 0;
#X restore 243 507 pd \$0-presets;
#X obj 243 488 hradio 15 1 0 8 empty empty empty 0 -8 0 10 -262144
-1 -1 1;
#N canvas 273 23 506 499 \$0-presets 0;
#X obj 19 450 outlet;
#X obj 20 14 inlet;
#X msg 20 85 afq 3 \, efq 22 \, tim 1 \, att 1 \, dec 1 \, cur 18 \,
dis 4 \, lop 18 \, vol 80;
#X msg 33 122 afq 3 \, efq 16 \, tim 0 \, att 1 \, dec 70 \, cur 18
\, dis 0 \, lop 18 \, vol 70;
#X obj 20 53 sel 0 1 2 3 4 5 6 7;
#X msg 75 238 afq 3 \, efq 16 \, tim 0 \, att 1 \, dec 70 \, cur 18
\, dis 0 \, lop 18 \, vol 70;
#X msg 89 278 afq 10 \, efq 10 \, tim 0 \, att 86 \, dec 100 \, cur
100 \, dis 0 \, lop 8 \, vol 70;
#X msg 103 317 afq 3 \, efq 16 \, tim 0 \, att 1 \, dec 70 \, cur 18
\, dis 0 \, lop 18 \, vol 70;
#X msg 117 361 afq 10 \, efq 10 \, tim 0 \, att 86 \, dec 100 \, cur
100 \, dis 0 \, lop 8 \, vol 70;
#X msg 47 162 afq 60 \, efq 20 \, tim 50 \, att 60 \, dec 80 \, cur
100 \, dis 0 \, lop 30 \, vol 80;
#X msg 61 201 afq 10 \, efq 10 \, tim 0 \, att 86 \, dec 100 \, cur
100 \, dis 0 \, lop 8 \, vol 70;
#X connect 1 0 4 0;
#X connect 2 0 0 0;
#X connect 3 0 0 0;
#X connect 4 0 2 0;
#X connect 4 1 3 0;
#X connect 4 2 9 0;
#X connect 4 3 10 0;
#X connect 4 4 5 0;
#X connect 4 5 6 0;
#X connect 4 6 7 0;
#X connect 4 7 8 0;
#X connect 5 0 0 0;
#X connect 6 0 0 0;
#X connect 7 0 0 0;
#X connect 8 0 0 0;
#X connect 9 0 0 0;
#X connect 10 0 0 0;
#X restore 200 465 pd \$0-presets;
#X obj 200 442 hradio 15 1 0 8 empty empty empty 0 -8 0 10 -262144
-1 -1 3;
#N canvas 793 52 321 393 \$0-presets 0;
#X obj 39 328 outlet;
#X obj 40 44 inlet;
#X msg 40 97 vol 80 \, dec 13 \, crh 10;
#X msg 53 119 vol 80 \, dec 45 \, crh 50;
#X obj 40 72 sel 0 1 2 3 4 5 6 7;
#X msg 67 142 vol 80 \, dec 30 \, crh 20;
#X msg 81 164 vol 80 \, dec 60 \, crh 30;
#X msg 95 187 vol 80 \, dec 70 \, crh 40;
#X msg 109 211 vol 80 \, dec 30 \, crh 60;
#X msg 123 235 vol 80 \, dec 80 \, crh 70;
#X msg 137 259 vol 80 \, dec 10 \, crh 80;
#X connect 1 0 4 0;
#X connect 2 0 0 0;
#X connect 3 0 0 0;
#X connect 4 0 2 0;
#X connect 4 1 3 0;
#X connect 4 2 5 0;
#X connect 4 3 6 0;
#X connect 4 4 7 0;
#X connect 4 5 8 0;
#X connect 4 6 9 0;
#X connect 4 7 10 0;
#X connect 5 0 0 0;
#X connect 6 0 0 0;
#X connect 7 0 0 0;
#X connect 8 0 0 0;
#X connect 9 0 0 0;
#X connect 10 0 0 0;
#X restore 109 442 pd \$0-presets;
#X obj 109 419 hradio 15 1 0 8 empty empty empty 0 -8 0 10 -262144
-1 -1 5;
#X obj 323 680 vcf~;
#X obj 484 718 vsl 12 32 70 4000 0 0 empty empty F 0 -8 0 8 -44926
-1 -1 1207 1;
#X obj 525 719 vsl 12 32 0.1 6 1 0 empty empty Q 0 -8 0 8 -62784 -1
-1 1998 1;
#X msg 484 686 1600;
#X msg 525 686 1.4;
#X obj 484 659 loadbang;
#N canvas 0 22 326 253 loadsamples 0;
#X obj 22 200 soundfiler;
#X obj 72 134 makefilename #0-drum%d;
#X obj 22 156 pack s s;
#X msg 22 179 read -resize \$1 \$2;
#X msg 47 23 bang;
#X obj 47 66 until;
#X obj 47 87 f 0;
#X obj 75 87 + 1;
#X obj 109 87 sel 31;
#X msg 103 53 0;
#X obj 99 21 loadbang;
#X obj 22 114 makefilename ./_samples/kit/sound%d.wav;
#X connect 1 0 2 1;
#X connect 2 0 3 0;
#X connect 3 0 0 0;
#X connect 4 0 5 0;
#X connect 5 0 6 0;
#X connect 6 0 7 0;
#X connect 6 0 8 0;
#X connect 6 0 1 0;
#X connect 6 0 11 0;
#X connect 7 0 6 1;
#X connect 8 0 5 1;
#X connect 8 0 9 0;
#X connect 9 0 6 1;
#X connect 10 0 5 0;
#X connect 11 0 2 0;
#X restore 719 361 pd loadsamples;
#N canvas 0 22 700 225 tables 0;
#X obj 8 13 table #0-drum0 2048;
#X obj 8 33 table #0-drum1 2048;
#X obj 8 53 table #0-drum2 2048;
#X obj 8 72 table #0-drum3 2048;
#X obj 8 91 table #0-drum4 2048;
#X obj 8 111 table #0-drum5 2048;
#X obj 8 130 table #0-drum6 2048;
#X obj 8 150 table #0-drum7 2048;
#X obj 182 14 table #0-drum8 2048;
#X obj 182 34 table #0-drum9 2048;
#X obj 182 54 table #0-drum10 2048;
#X obj 182 73 table #0-drum11 2048;
#X obj 182 92 table #0-drum12 2048;
#X obj 182 112 table #0-drum13 2048;
#X obj 182 131 table #0-drum14 2048;
#X obj 182 151 table #0-drum15 2048;
#X obj 354 12 table #0-drum16 2048;
#X obj 354 32 table #0-drum17 2048;
#X obj 354 52 table #0-drum18 2048;
#X obj 354 71 table #0-drum19 2048;
#X obj 354 90 table #0-drum20 2048;
#X obj 354 110 table #0-drum21 2048;
#X obj 354 129 table #0-drum22 2048;
#X obj 354 149 table #0-drum23 2048;
#X obj 515 11 table #0-drum24 2048;
#X obj 515 31 table #0-drum25 2048;
#X obj 514 51 table #0-drum26 2048;
#X obj 515 70 table #0-drum27 2048;
#X obj 514 88 table #0-drum28 2048;
#X obj 515 109 table #0-drum29 2048;
#X obj 515 128 table #0-drum30 2048;
#X obj 515 148 table #0-drum31 2048;
#X restore 717 384 pd tables;
#N canvas 0 22 425 381 playeri1 0;
#X obj 247 198 hip~ 5;
#X obj 247 145 vline~;
#X obj 247 173 tabread4~;
#X obj 247 222 *~ 0.5;
#X obj 180 115 r i1snum;
#X obj 247 115 r i1phase;
#X obj 323 29 inlet;
#X text 313 8 vol;
#X obj 43 162 makefilename #0-drum%d;
#X obj 42 118 max 0;
#X obj 42 140 min 31;
#X msg 43 184 \; i1snum set \$1 \; i1phase 1 \, 4.41e+08 1e+07 \;;
#X obj 40 46 inlet;
#X text 36 23 note/sound;
#X text 101 -16 i1;
#X obj 245 254 outlet~;
#X connect 0 0 3 0;
#X connect 1 0 2 0;
#X connect 2 0 0 0;
#X connect 3 0 15 0;
#X connect 4 0 2 0;
#X connect 5 0 1 0;
#X connect 6 0 3 1;
#X connect 8 0 11 0;
#X connect 9 0 10 0;
#X connect 10 0 8 0;
#X connect 12 0 9 0;
#X restore 723 512 pd playeri1;
#X obj 394 461 + 16;
#X floatatom 730 489 5 0 0 0 - - -, f 5;
#X obj 723 466 + 25;
#N canvas 0 22 425 381 playeri3 0;
#X obj 247 198 hip~ 5;
#X obj 247 145 vline~;
#X obj 247 173 tabread4~;
#X obj 247 222 *~ 0.5;
#X obj 323 29 inlet;
#X text 313 8 vol;
#X obj 43 162 makefilename #0-drum%d;
#X obj 42 118 max 0;
#X obj 42 140 min 31;
#X obj 40 46 inlet;
#X text 36 23 note/sound;
#X text 101 -16 i1;
#X obj 245 254 outlet~;
#X msg 43 184 \; i3snum set \$1 \; i3phase 1 \, 4.41e+08 1e+07 \;;
#X obj 247 115 r i3phase;
#X obj 180 115 r i3snum;
#X connect 0 0 3 0;
#X connect 1 0 2 0;
#X connect 2 0 0 0;
#X connect 3 0 12 0;
#X connect 4 0 3 1;
#X connect 6 0 13 0;
#X connect 7 0 8 0;
#X connect 8 0 6 0;
#X connect 9 0 7 0;
#X connect 14 0 1 0;
#X connect 15 0 2 0;
#X restore 552 506 pd playeri3;
#N canvas 0 22 425 381 playeri2 0;
#X obj 247 198 hip~ 5;
#X obj 247 145 vline~;
#X obj 247 173 tabread4~;
#X obj 247 222 *~ 0.5;
#X obj 323 29 inlet;
#X text 313 8 vol;
#X obj 43 162 makefilename #0-drum%d;
#X obj 42 118 max 0;
#X obj 42 140 min 31;
#X obj 40 46 inlet;
#X text 36 23 note/sound;
#X text 101 -16 i1;
#X obj 245 254 outlet~;
#X msg 43 184 \; i2snum set \$1 \; i2phase 1 \, 4.41e+08 1e+07 \;;
#X obj 247 115 r i2phase;
#X obj 180 115 r i2snum;
#X connect 0 0 3 0;
#X connect 1 0 2 0;
#X connect 2 0 0 0;
#X connect 3 0 12 0;
#X connect 4 0 3 1;
#X connect 6 0 13 0;
#X connect 7 0 8 0;
#X connect 8 0 6 0;
#X connect 9 0 7 0;
#X connect 14 0 1 0;
#X connect 15 0 2 0;
#X restore 394 510 pd playeri2;
#X obj 794 491 r \$0-snarel;
#X obj 620 483 r \$0-kickl;
#X obj 460 485 r \$0-hhl;
#X floatatom 403 485 5 0 0 0 - - -, f 5;
#X obj 605 451 vsl 12 32 0 1 0 0 empty empty Kick 0 -8 0 8 -24198 -1
-1 1550 1;
#X obj 447 444 vsl 12 32 0 1 0 0 empty empty HH 0 -8 0 8 -258699 -1
-1 1550 1;
#X obj 779 444 vsl 12 32 0 1 0 0 empty empty Snare 0 -8 0 8 -260818
-1 -1 1550 1;
#X msg 612 384 0.5;
#X obj 610 361 loadbang;
#X connect 0 0 15 0;
#X connect 1 0 16 0;
#X connect 2 0 14 0;
#X connect 3 0 11 0;
#X connect 3 0 12 0;
#X connect 3 0 10 0;
#X connect 3 0 8 0;
#X connect 3 0 9 0;
#X connect 4 0 19 0;
#X connect 5 0 18 0;
#X connect 6 0 17 0;
#X connect 7 0 20 0;
#X connect 8 0 4 0;
#X connect 9 0 6 0;
#X connect 9 0 5 0;
#X connect 10 0 1 0;
#X connect 11 0 2 0;
#X connect 12 0 0 0;
#X connect 14 0 20 1;
#X connect 15 0 20 1;
#X connect 16 0 20 1;
#X connect 17 0 20 1;
#X connect 18 0 20 1;
#X connect 19 0 20 1;
#X connect 20 0 29 0;
#X connect 20 0 39 0;
#X connect 20 1 27 0;
#X connect 20 1 42 0;
#X connect 20 2 25 0;
#X connect 20 2 41 0;
#X connect 21 0 30 0;
#X connect 22 0 30 0;
#X connect 23 0 30 0;
#X connect 24 0 22 1;
#X connect 25 0 24 0;
#X connect 26 0 23 1;
#X connect 27 0 26 0;
#X connect 28 0 21 1;
#X connect 29 0 28 0;
#X connect 30 0 13 0;
#X connect 30 0 13 1;
#X connect 31 0 30 1;
#X connect 32 0 30 2;
#X connect 33 0 31 0;
#X connect 34 0 32 0;
#X connect 35 0 33 0;
#X connect 35 0 34 0;
#X connect 38 0 30 0;
#X connect 39 0 43 0;
#X connect 39 0 47 0;
#X connect 41 0 38 0;
#X connect 41 0 40 0;
#X connect 42 0 30 0;
#X connect 43 0 30 0;
#X connect 44 0 38 1;
#X connect 45 0 42 1;
#X connect 46 0 43 1;
#X connect 48 0 42 1;
#X connect 49 0 43 1;
#X connect 50 0 38 1;
#X connect 51 0 48 0;
#X connect 51 0 49 0;
#X connect 51 0 50 0;
#X connect 52 0 51 0;
