#N canvas 535 23 367 461 10;
#X obj 44 151 seq.reich.clap;
#X msg 44 30 1;
#X msg 56 53 0;
#X obj 60 173 bng 15 250 50 0 empty empty empty 17 7 0 10 -262144 -1
-1;
#X obj 144 172 bng 15 250 50 0 empty empty empty 17 7 0 10 -262144
-1 -1;
#X text 92 29 Steve Reich's HandClapping;
#X msg 125 88 reset;
#X msg 134 128 humanize \$1;
#X floatatom 134 109 5 0 0 0 - - -, f 5;
#X obj 200 291 fresh/syn.snare~;
#N canvas 939 57 485 387 \$0-presets 0;
#X obj 39 328 outlet;
#X obj 40 72 sel 0 1 2 3;
#X obj 40 33 inlet;
#X msg 40 127 vol 80 \, dec 20 \, mix 50 \, nak 40 \, tun 10;
#X msg 58 160 vol 80 \, dec 40 \, mix 30 \, nak 90 \, tun 15;
#X connect 1 0 3 0;
#X connect 1 1 4 0;
#X connect 2 0 1 0;
#X connect 3 0 0 0;
#X connect 4 0 0 0;
#X restore 205 271 pd \$0-presets;
#X obj 205 250 hradio 15 1 0 8 empty empty empty 0 -8 0 10 -262144
-1 -1 1;
#X obj 44 293 fresh/syn.snare~;
#N canvas 939 57 485 387 \$0-presets 0;
#X obj 39 328 outlet;
#X obj 40 72 sel 0 1 2 3;
#X obj 40 33 inlet;
#X msg 40 127 vol 80 \, dec 20 \, mix 50 \, nak 40 \, tun 10;
#X msg 58 160 vol 80 \, dec 40 \, mix 30 \, nak 90 \, tun 15;
#X connect 1 0 3 0;
#X connect 1 1 4 0;
#X connect 2 0 1 0;
#X connect 3 0 0 0;
#X connect 4 0 0 0;
#X restore 53 272 pd \$0-presets;
#X obj 53 251 hradio 15 1 0 8 empty empty empty 0 -8 0 10 -262144 -1
-1 1;
#X obj 44 369 dac~;
#X floatatom 95 62 5 0 0 0 - - -, f 5;
#X obj 44 80 metro 250;
#X obj 200 335 loadbang;
#X msg 200 357 \; pd dsp 1 \;;
#X connect 0 0 3 0;
#X connect 0 0 12 0;
#X connect 0 1 4 0;
#X connect 0 1 9 0;
#X connect 1 0 17 0;
#X connect 2 0 17 0;
#X connect 6 0 0 1;
#X connect 7 0 0 1;
#X connect 8 0 7 0;
#X connect 9 0 15 1;
#X connect 10 0 9 1;
#X connect 11 0 10 0;
#X connect 12 0 15 0;
#X connect 13 0 12 1;
#X connect 14 0 13 0;
#X connect 16 0 17 1;
#X connect 17 0 0 0;
#X connect 18 0 19 0;
