#N canvas 528 45 539 469 10;
#X msg 339 100 pitch \$1;
#X floatatom 339 80 5 0 0 0 - - -, f 5;
#X obj 240 337 *~ 0.5;
#X obj 240 375 dac~;
#X floatatom 349 124 5 0 0 0 - - -, f 5;
#X msg 349 145 size \$1;
#X floatatom 357 169 5 0 0 0 - - -, f 5;
#X msg 357 190 delay \$1;
#X floatatom 240 96 5 0 0 0 - - -, f 5;
#X obj 240 121 mtof;
#X obj 253 282 int;
#X floatatom 253 302 5 0 0 0 - - -, f 5;
#X obj 240 168 osc~ 220;
#X obj 253 261 sigmund~ pitch;
#X floatatom 88 255 5 0 0 0 - - -, f 5;
#X obj 79 229 sigmund~ pitch;
#X floatatom 254 147 5 0 0 0 - - -, f 5;
#X obj 79 276 mtof;
#X floatatom 79 297 5 0 0 0 - - -, f 5;
#X obj 79 161 readsf~;
#X msg 93 100 open _samples/amen.wav \, 1, f 10;
#X msg 80 78 0;
#X obj 240 230 sfx.pitchshift~;
#X msg 312 363 \; pd dsp 1 \;;
#X obj 312 339 loadbang;
#X text 80 17 pitchshift audio;
#X connect 0 0 22 1;
#X connect 1 0 0 0;
#X connect 2 0 3 0;
#X connect 2 0 3 1;
#X connect 4 0 5 0;
#X connect 5 0 22 1;
#X connect 6 0 7 0;
#X connect 7 0 22 1;
#X connect 8 0 9 0;
#X connect 9 0 12 0;
#X connect 9 0 16 0;
#X connect 10 0 11 0;
#X connect 12 0 15 0;
#X connect 12 0 22 0;
#X connect 13 0 10 0;
#X connect 15 0 14 0;
#X connect 15 0 17 0;
#X connect 17 0 18 0;
#X connect 19 0 15 0;
#X connect 19 0 22 0;
#X connect 19 1 20 0;
#X connect 20 0 19 0;
#X connect 21 0 19 0;
#X connect 22 0 2 0;
#X connect 22 0 13 0;
#X connect 24 0 23 0;
