#N canvas 524 169 533 433 10;
#X obj 37 319 dac~;
#X floatatom 36 34 5 0 0 0 - - -, f 5;
#X msg 211 109 $v1&($v1>>4)>>3&$v1>>7;
#X msg 199 86 ((((($v1>>12)^($v1>>12)-2)%11*$v1)/4|$v1>>13)&127);
#X text 40 387 megrimm 2012;
#X text 200 245 <-- takes a creation argument;
#X text 102 9 dexpr~ allows an [expr~] object to be changed dynamically
;
#X msg 178 63 $v1<<(($v1>>8&$v1)|($v1>>14&$v1));
#X obj 37 244 snd.bytebeat~ ($v1*2)+10;
#X obj 307 160 loadbang;
#X msg 307 187 find t;
#X msg 364 186 replace $v1;
#X msg 220 138 ((t>>4&t)|(t>>8|t%7)+17*sin(t));
#X obj 220 210 lst.replace;
#X msg 124 304 \; pd dsp 1 \;;
#X obj 124 278 loadbang;
#X connect 1 0 8 0;
#X connect 2 0 8 1;
#X connect 3 0 8 1;
#X connect 7 0 8 1;
#X connect 8 0 0 1;
#X connect 8 0 0 0;
#X connect 9 0 10 0;
#X connect 9 0 11 0;
#X connect 10 0 13 1;
#X connect 11 0 13 1;
#X connect 12 0 13 0;
#X connect 13 0 8 1;
#X connect 15 0 14 0;
