#N canvas 87 204 629 625 10;
#X obj 188 439 dac~;
#X obj 143 219 readsf~;
#X msg 131 156 open _samples/amen.wav \, 1;
#X obj 189 309 snd.fx.chorus~;
#X msg 416 160 fb \$1;
#X floatatom 416 136 5 0 0 0 - - -;
#X floatatom 417 188 5 0 0 0 - - -;
#X floatatom 419 239 5 0 0 0 - - -;
#X msg 417 212 rate \$1;
#X msg 419 263 depth \$1;
#X connect 1 0 3 0;
#X connect 1 1 2 0;
#X connect 2 0 1 0;
#X connect 3 0 0 0;
#X connect 3 1 0 1;
#X connect 4 0 3 1;
#X connect 5 0 4 0;
#X connect 6 0 8 0;
#X connect 7 0 9 0;
#X connect 8 0 3 1;
#X connect 9 0 3 1;
