#N canvas 514 23 612 761 10;
#X declare -path .;
#X obj 34 712 dac~;
#X msg 32 9 open;
#X msg 65 80 play;
#X msg 71 103 stop;
#X floatatom 117 360 5 0 100 0 - - -, f 5;
#X text 102 77 <-- play the file through once;
#X text 105 101 <-- stop the file/loop from playing;
#X text 71 7 <-- open a file from openpanel;
#X text 188 28 <-- open a file from local filename;
#X text 255 54 <-- open a file and play immediately;
#X floatatom 150 597 10 0 0 0 - - -, f 10;
#X floatatom 207 566 10 0 0 0 - - -, f 10;
#X text 274 564 <-- number of samples;
#X text 218 596 <-- length of sample in milliseconds;
#X obj 150 537 unpack 0 0;
#X obj 91 646 snapshot~;
#X floatatom 91 669 10 0 0 0 - - -, f 10;
#X msg 111 622 bang;
#X msg 54 55 open _samples/organ-01.wav \, play;
#X obj 209 507 bng 15 250 50 0 empty empty empty 17 7 0 10 -262144
-1 -1;
#X text 231 505 <-- bang when sample ends;
#X msg 80 147 loop \$1;
#X obj 80 127 tgl 15 0 empty empty empty 17 7 0 10 -262144 -1 -1 0
1;
#X obj 205 626 loadbang;
#X msg 205 648 \; pd dsp 1 \;;
#X obj 109 405 / 100;
#X msg 43 31 open _samples/amen.wav;
#X msg 89 190 slice \$1;
#X obj 89 170 tgl 15 0 empty empty empty 17 7 0 10 -262144 -1 -1 0
1;
#X text 130 145 <-- loop the file indefinitely;
#X text 152 187 <-- random loop slicer;
#X msg 126 381 30;
#X msg 109 426 jump \$1;
#X obj 109 297 tgl 15 0 empty empty empty 17 7 0 10 -262144 -1 -1 0
1;
#X text 177 314 <-- freeze using a fast metro;
#X text 156 358 <-- scratch the file with number box;
#X msg 109 338 70;
#X obj 109 316 metro 150;
#X msg 95 229 slice n \$1;
#X floatatom 95 210 5 0 0 0 - - -, f 5;
#X floatatom 102 253 5 0 0 0 - - -, f 5;
#X msg 102 272 slice s \$1;
#X text 169 387 <-- jump to a point (by % of sample length);
#X obj 205 717 declare -path .;
#X text 204 685 Generally you should also use a declaration like this
in the parent *.pd to be able to use relative directory names:;
#X obj 32 479 snd.player~ _samples/satie.wav;
#X connect 1 0 45 0;
#X connect 2 0 45 0;
#X connect 3 0 45 0;
#X connect 4 0 25 0;
#X connect 14 0 10 0;
#X connect 14 1 11 0;
#X connect 15 0 16 0;
#X connect 17 0 15 0;
#X connect 18 0 45 0;
#X connect 21 0 45 0;
#X connect 22 0 21 0;
#X connect 23 0 24 0;
#X connect 25 0 32 0;
#X connect 26 0 45 0;
#X connect 27 0 45 0;
#X connect 28 0 27 0;
#X connect 31 0 25 0;
#X connect 32 0 45 0;
#X connect 33 0 37 0;
#X connect 36 0 25 0;
#X connect 37 0 36 0;
#X connect 38 0 45 0;
#X connect 39 0 38 0;
#X connect 40 0 41 0;
#X connect 41 0 45 0;
#X connect 45 0 0 0;
#X connect 45 0 0 1;
#X connect 45 1 15 0;
#X connect 45 2 14 0;
#X connect 45 3 19 0;
