#N canvas 673 93 252 412 10;
#X obj 51 162 >;
#X obj 51 206 sel 1;
#X obj 51 185 change;
#X obj 51 317 line~;
#X obj 36 338 *~;
#X obj 51 227 t b b;
#X obj 51 140 env~ 256 128;
#X msg 78 292 0 5;
#X obj 51 249 del 6;
#X obj 51 269 pack 1 200;
#X obj 36 18 inlet~;
#X obj 36 371 outlet~;
#X obj 131 16 inlet;
#X obj 131 42 route sens attack;
#X obj 36 91 delwrite~ \$0-violin 10;
#X obj 36 115 delread~ \$0-violin 10;
#X connect 0 0 2 0;
#X connect 1 0 5 0;
#X connect 2 0 1 0;
#X connect 3 0 4 1;
#X connect 4 0 11 0;
#X connect 5 0 8 0;
#X connect 5 1 7 0;
#X connect 6 0 0 0;
#X connect 7 0 3 0;
#X connect 8 0 9 0;
#X connect 9 0 3 0;
#X connect 10 0 6 0;
#X connect 10 0 14 0;
#X connect 12 0 13 0;
#X connect 13 0 0 1;
#X connect 13 1 9 1;
#X connect 15 0 4 0;
