#N canvas 556 93 649 598 10;
#X obj 40 37 inlet~;
#X obj 40 349 writesf~ 2;
#X obj 97 36 inlet~;
#X msg 333 133 start;
#X msg 296 133 stop;
#X obj 371 276 symbol \$1;
#X obj 326 207 loadbang;
#X obj 326 250 select 0;
#X obj 326 230 list append \$1;
#X obj 312 193 bng 15 250 50 0 empty empty empty 17 7 0 10 -262144
-1 -1;
#X obj 239 190 symbol \$1;
#X msg 239 437 open -bytes 4 \$1;
#X obj 296 160 s \$0-writeconf;
#X obj 111 294 r \$0-writeconf;
#X obj 144 35 inlet;
#X obj 296 110 sel 0 1;
#X obj 239 460 s \$0-writeconf;
#X obj 456 117 r \$0-writeconf;
#X obj 456 142 route start stop;
#X obj 456 179 timer;
#X obj 456 325 / 1000;
#X obj 455 351 outlet;
#X obj 239 411 makefilename;
#X msg 239 332 set \$1;
#X obj 239 360 t b a;
#X msg 239 383 symbol test.wav;
#X obj 239 308 makefilename %s/%%s;
#X obj 239 88 route dir;
#X connect 0 0 1 0;
#X connect 2 0 1 1;
#X connect 3 0 12 0;
#X connect 4 0 12 0;
#X connect 5 0 26 0;
#X connect 6 0 8 0;
#X connect 7 1 5 0;
#X connect 8 0 7 0;
#X connect 9 0 8 0;
#X connect 10 0 26 0;
#X connect 11 0 16 0;
#X connect 13 0 1 0;
#X connect 14 0 27 0;
#X connect 15 0 4 0;
#X connect 15 1 3 0;
#X connect 17 0 18 0;
#X connect 18 0 19 0;
#X connect 18 1 19 1;
#X connect 19 0 20 0;
#X connect 20 0 21 0;
#X connect 22 0 11 0;
#X connect 23 0 24 0;
#X connect 24 0 25 0;
#X connect 24 1 22 0;
#X connect 25 0 22 0;
#X connect 26 0 23 0;
#X connect 27 0 10 0;
#X connect 27 1 15 0;
