#N canvas 576 166 531 417 10;
#X floatatom 188 70 5 0 0 0 - - -, f 5;
#X floatatom 188 201 20 0 0 0 - - -, f 20;
#X text 308 86 <-- switch sample table;
#X text 229 67 <-- volume;
#X obj 65 75 phasor~;
#X obj 65 229 dac~;
#X obj 188 311 soundfiler;
#X msg 198 281 read -resize _samples/satie.wav banannas;
#X floatatom 65 51 5 0 0 0 - - -, f 5;
#X obj 188 27 loadbang;
#X msg 188 49 90;
#X msg 188 255 read -resize _samples/organ-01.wav apples;
#X msg 209 113 array apples;
#X msg 195 91 array banannas;
#X obj 188 345 array define banannas;
#X obj 189 370 array define apples;
#X msg 41 26 0;
#X obj 216 141 bng 15 250 50 0 empty empty empty 17 7 0 10 -262144
-1 -1;
#X text 239 140 <-- bang to re-read table;
#X obj 188 229 loadbang;
#X obj 65 175 snd.phaseloop~ apples;
#X connect 0 0 20 1;
#X connect 4 0 20 0;
#X connect 7 0 6 0;
#X connect 8 0 4 0;
#X connect 9 0 10 0;
#X connect 10 0 0 0;
#X connect 11 0 6 0;
#X connect 12 0 20 1;
#X connect 13 0 20 1;
#X connect 16 0 4 0;
#X connect 17 0 20 1;
#X connect 19 0 11 0;
#X connect 20 0 5 0;
#X connect 20 0 5 1;
#X connect 20 1 1 0;
