#N canvas 665 179 419 289 10;
#X obj 239 58 hsl 128 15 1 0 0 0 \$1-\$2/bit \$1-\$2/bit bitcrush -2
-6 1 9 -262144 -1 -1 10200 0;
#X obj 101 141 snd.fx.bitcrush~;
#X obj 58 65 readsf~;
#X msg 58 38 open _samples/amen.wav \, 1;
#X obj 121 258 dac~;
#X connect 0 0 1 2;
#X connect 1 0 4 0;
#X connect 1 1 4 1;
#X connect 2 0 1 0;
#X connect 2 0 1 1;
#X connect 2 1 3 0;
#X connect 3 0 2 0;
