#N canvas 111 160 962 674 10;
#X obj 305 320 vline~;
#X obj 305 615 outlet~;
#X obj 11 9 inlet;
#X obj 117 217 *;
#X obj 46 291 s \$0-stop;
#X obj 312 298 r \$0-stop;
#X obj 82 268 s \$0-loop;
#X obj 761 182 soundfiler;
#X obj 761 55 openpanel;
#X obj 761 265 t f f;
#X obj 761 34 route bang;
#X obj 188 79 s \$0-openfile;
#X obj 761 13 r \$0-openfile;
#X obj 526 611 outlet;
#X obj 526 586 pack f f;
#X obj 401 615 outlet~;
#X obj 311 342 s~ \$0-vline;
#X obj 401 584 r~ \$0-vline;
#X obj 761 374 / 44.1;
#X obj 794 332 samplerate~;
#X obj 794 352 / 1000;
#X obj 794 311 loadbang;
#X text 525 636 (c)2012 \, megrimm;
#X obj 320 573 vline~;
#X obj 305 594 *~;
#X obj 382 296 delay;
#X obj 601 611 outlet;
#X obj 382 319 s \$0-vlineend;
#X obj 601 584 r \$0-vlineend;
#X obj 319 59 r \$0-vlineend;
#X obj 319 125 spigot;
#X obj 352 79 r \$0-loop;
#X obj 321 270 r \$0-stop;
#X obj 421 295 s \$0-vlinetrig;
#X obj 320 446 r \$0-vlinetrig;
#X obj 375 522 delay;
#X obj 375 465 r \$0-stop;
#X obj 829 33 loadbang;
#X msg 305 39 1;
#X msg 305 229 \$1 \, \$2 \$3;
#X msg 46 269 stop;
#X obj 11 312 s \$0-play;
#X obj 305 19 r \$0-play;
#X obj 541 208 / 16;
#X obj 526 250 *;
#X obj 526 295 + 1;
#X obj 541 229 t f f;
#X obj 554 295 +;
#X obj 526 271 t f f;
#X obj 526 80 random 16;
#X obj 652 230 / 16;
#X obj 642 274 f;
#X obj 652 250 t b f;
#X obj 639 103 t b f;
#X obj 639 297 / 1;
#X obj 666 123 s \$0-speedfl;
#X obj 667 274 r \$0-speedfl;
#X text 668 296 <-- optimize;
#X obj 526 14 r \$0-vlineend;
#X obj 382 270 t b f b;
#X obj 526 57 spigot;
#X obj 526 352 s \$0-slicedata;
#X obj 313 208 r \$0-slicedata;
#X obj 414 58 sel 1 0;
#X msg 414 79 0;
#X msg 446 79 1;
#X obj 204 127 s \$0-slice;
#X obj 559 35 r \$0-slice;
#X obj 414 35 r \$0-slice;
#X obj 577 58 r \$0-slicenums;
#X obj 639 82 r \$0-slicespeed;
#X obj 788 288 s \$0-samps;
#X obj 541 101 r \$0-samps;
#X obj 571 559 r \$0-samps;
#X obj 333 147 r \$0-samps;
#X obj 132 192 r \$0-samps;
#X obj 761 397 s \$0-millsecs;
#X obj 526 530 r \$0-millsecs;
#X obj 402 484 r \$0-millsecs;
#X obj 362 166 r \$0-millsecs;
#X obj 652 146 r \$0-millsecs;
#X obj 526 494 s \$0-slicedata;
#X obj 305 188 pack 0 0 0;
#X obj 321 250 unpack 0 0;
#X obj 526 329 pack 0 0 0;
#X obj 526 471 pack 0 0 0;
#X obj 117 243 s \$0-jump;
#X obj 526 383 r \$0-jump;
#X obj 760 428 r \$0-millsecs;
#X obj 554 405 r \$0-samps;
#X obj 583 449 expr $f3 - ($f3 / ($f2 / $f1));
#X obj 583 428 r \$0-jump;
#X obj 671 428 r \$0-samps;
#X msg 320 544 0 \, 1 10;
#X msg 375 544 1 \, 0 10;
#X obj 402 503 - 10;
#X obj 153 103 route n s;
#X obj 178 147 s \$0-slicespeed;
#X obj 153 167 s \$0-slicenums;
#X obj 547 184 f;
#X obj 548 141 t b f;
#X obj 660 167 r \$0-slicenums;
#X obj 660 207 f;
#X obj 660 187 t b f;
#X obj 548 121 r \$0-slicenums;
#X obj 562 162 r \$0-samps;
#X obj 761 86 pack s \$0;
#X obj 829 56 symbol \$1;
#X obj 846 181 array define \$0-soundfile;
#X f 13;
#X obj 11 36 route play stop loop jump slice open array;
#X obj 224 58 s \$0-array;
#X obj 769 202 r \$0-array;
#X obj 313 364 r \$0-array;
#X obj 313 383 list prepend set;
#X obj 313 402 list trim;
#X obj 769 222 t b a;
#X obj 826 222 symbol;
#X obj 769 243 array size;
#X obj 767 126 s \$0-array;
#X msg 767 106 \$2-soundfile;
#X obj 305 424 tabread4~;
#X msg 761 147 read -resize -maxsize 4.3e+07 \$1 \$2-soundfile, f
27;
#X connect 0 0 16 0;
#X connect 0 0 120 0;
#X connect 2 0 109 0;
#X connect 3 0 86 0;
#X connect 5 0 0 0;
#X connect 7 0 9 0;
#X connect 8 0 106 0;
#X connect 9 0 18 0;
#X connect 9 1 71 0;
#X connect 10 0 8 0;
#X connect 10 1 107 0;
#X connect 12 0 10 0;
#X connect 14 0 13 0;
#X connect 17 0 15 0;
#X connect 18 0 76 0;
#X connect 19 0 20 0;
#X connect 20 0 18 1;
#X connect 21 0 19 0;
#X connect 23 0 24 1;
#X connect 24 0 1 0;
#X connect 25 0 27 0;
#X connect 28 0 26 0;
#X connect 29 0 30 0;
#X connect 30 0 82 0;
#X connect 31 0 30 1;
#X connect 32 0 25 0;
#X connect 34 0 93 0;
#X connect 34 0 35 0;
#X connect 35 0 94 0;
#X connect 36 0 35 0;
#X connect 37 0 107 0;
#X connect 38 0 82 0;
#X connect 39 0 0 0;
#X connect 39 0 83 0;
#X connect 40 0 4 0;
#X connect 42 0 38 0;
#X connect 43 0 46 0;
#X connect 44 0 48 0;
#X connect 45 0 84 0;
#X connect 46 0 44 1;
#X connect 46 1 47 1;
#X connect 47 0 84 1;
#X connect 48 0 45 0;
#X connect 48 1 47 0;
#X connect 49 0 44 0;
#X connect 50 0 52 0;
#X connect 51 0 54 0;
#X connect 52 0 51 0;
#X connect 52 1 51 1;
#X connect 53 0 51 0;
#X connect 53 1 55 0;
#X connect 54 0 84 2;
#X connect 56 0 54 1;
#X connect 58 0 60 0;
#X connect 59 0 25 0;
#X connect 59 1 25 1;
#X connect 59 2 33 0;
#X connect 60 0 49 0;
#X connect 62 0 39 0;
#X connect 63 0 64 0;
#X connect 63 1 65 0;
#X connect 64 0 30 1;
#X connect 65 0 30 1;
#X connect 67 0 60 1;
#X connect 68 0 63 0;
#X connect 69 0 49 1;
#X connect 70 0 53 0;
#X connect 72 0 43 0;
#X connect 73 0 14 1;
#X connect 74 0 82 1;
#X connect 75 0 3 1;
#X connect 77 0 14 0;
#X connect 78 0 95 0;
#X connect 79 0 82 2;
#X connect 80 0 50 0;
#X connect 80 0 102 1;
#X connect 82 0 39 0;
#X connect 83 1 59 0;
#X connect 84 0 61 0;
#X connect 85 0 81 0;
#X connect 87 0 85 0;
#X connect 88 0 90 2;
#X connect 89 0 85 1;
#X connect 90 0 85 2;
#X connect 91 0 90 0;
#X connect 92 0 90 1;
#X connect 93 0 23 0;
#X connect 94 0 23 0;
#X connect 95 0 35 1;
#X connect 96 0 98 0;
#X connect 96 1 97 0;
#X connect 96 2 66 0;
#X connect 99 0 43 0;
#X connect 100 0 99 0;
#X connect 100 1 43 1;
#X connect 101 0 103 0;
#X connect 102 0 50 0;
#X connect 103 0 102 0;
#X connect 103 1 50 1;
#X connect 104 0 100 0;
#X connect 105 0 99 1;
#X connect 106 0 121 0;
#X connect 106 0 119 0;
#X connect 107 0 106 0;
#X connect 109 0 41 0;
#X connect 109 1 40 0;
#X connect 109 2 6 0;
#X connect 109 3 3 0;
#X connect 109 4 96 0;
#X connect 109 5 11 0;
#X connect 109 6 110 0;
#X connect 111 0 115 0;
#X connect 112 0 113 0;
#X connect 113 0 114 0;
#X connect 114 0 120 0;
#X connect 115 0 117 0;
#X connect 115 1 116 0;
#X connect 116 0 117 1;
#X connect 117 0 9 0;
#X connect 119 0 118 0;
#X connect 120 0 24 0;
#X connect 121 0 7 0;
