#N canvas 855 333 442 465 10;
#X obj 105 276 snapshot~;
#X floatatom 105 298 0 0 0 0 - - -;
#X obj 84 188 *~ 0;
#X obj 84 210 +~ 1;
#X msg 105 254 bang;
#X obj 118 164 expr size("$s1");
#X obj 84 348 *~;
#X obj 84 14 inlet~;
#X obj 84 382 outlet~;
#X msg 118 142 symbol \$1;
#X obj 264 14 inlet;
#X obj 327 86 s \$0-vol;
#X obj 99 325 r \$0-vol;
#X obj 118 59 loadbang;
#X obj 118 84 list append \$1;
#X obj 327 63 / 100;
#X obj 264 39 route table;
#X obj 255 411 outlet;
#X msg 256 123 set \$1;
#X obj 84 232 tabread4~;
#X obj 256 94 symbol;
#X connect 0 0 1 0;
#X connect 2 0 3 0;
#X connect 3 0 19 0;
#X connect 4 0 0 0;
#X connect 5 0 2 1;
#X connect 5 0 17 0;
#X connect 6 0 8 0;
#X connect 7 0 2 0;
#X connect 9 0 5 0;
#X connect 10 0 16 0;
#X connect 12 0 6 1;
#X connect 13 0 14 0;
#X connect 14 0 9 0;
#X connect 15 0 11 0;
#X connect 16 0 14 0;
#X connect 16 0 20 0;
#X connect 16 1 15 0;
#X connect 18 0 19 0;
#X connect 19 0 0 0;
#X connect 19 0 6 0;
#X connect 20 0 18 0;
