#N canvas 544 52 646 653 10;
#X obj 193 129 loadbang;
#X obj 50 607 dac~;
#X obj 41 94 readsf~;
#X text 225 45 <-- play;
#X msg 388 45 \; pd dsp 1 \;;
#X obj 388 19 loadbang;
#X msg 41 46 open _samples/snare.wav \, 1;
#X msg 231 215 dry \$1;
#X msg 242 258 bq \$1;
#X msg 254 302 basedur \$1;
#X msg 265 347 bpitch \$1;
#X msg 275 395 feedback \$1;
#X msg 285 439 dell \$1;
#X msg 291 483 delr \$1;
#X text 347 481 <-- delay divisor right.;
#X text 340 437 <-- delay divisor left.;
#X text 354 394 <-- delay feedback;
#X floatatom 231 196 5 0 100 0 - - -, f 5;
#X text 283 214 <-- wet (0) to dry (100);
#X floatatom 242 239 5 0 100 0 - - -, f 5;
#X floatatom 265 328 5 0 0 0 - - -, f 5;
#X text 286 255 <-- bandpass Q: resonance (0-100);
#X text 334 346 <-- bandpass pitch (0-100);
#X floatatom 275 374 5 0 100 0 - - -, f 5;
#X floatatom 254 282 5 0 0 0 - - -, f 5;
#X text 325 301 <-- base duration for delays in millisecs;
#X floatatom 285 419 5 0 0 0 - - -, f 5;
#X floatatom 291 461 5 0 0 0 - - -, f 5;
#X obj 50 565 snd.fx.delaydub~;
#X msg 193 156 dry 20 \, bq 50 \, basedur 1500 \, bpitch 83 \, feedback
0.99 \, dell 20 \, delr 30 \,;
#X connect 0 0 29 0;
#X connect 2 0 28 0;
#X connect 2 0 28 1;
#X connect 5 0 4 0;
#X connect 6 0 2 0;
#X connect 7 0 28 2;
#X connect 8 0 28 2;
#X connect 9 0 28 2;
#X connect 10 0 28 2;
#X connect 11 0 28 2;
#X connect 12 0 28 2;
#X connect 13 0 28 2;
#X connect 17 0 7 0;
#X connect 19 0 8 0;
#X connect 20 0 10 0;
#X connect 23 0 11 0;
#X connect 24 0 9 0;
#X connect 26 0 12 0;
#X connect 27 0 13 0;
#X connect 28 0 1 0;
#X connect 28 1 1 1;
#X connect 29 0 28 2;
