#N canvas 624 257 343 546 10;
#X obj 54 353 *~ 0;
#X obj 54 375 +~ 1;
#X obj 54 463 *~;
#X obj 54 19 inlet~;
#X obj 54 492 outlet~;
#X obj 109 18 inlet;
#X obj 195 161 s \$0-vol;
#X obj 69 440 r \$0-vol;
#X obj 123 42 loadbang;
#X obj 195 140 / 100;
#X obj 209 498 outlet;
#X obj 54 418 tabread4~;
#X obj 110 213 symbol \$1;
#X obj 110 280 s \$0-setarray;
#X obj 62 397 r \$0-setarray;
#X obj 110 236 list prepend set;
#X obj 110 258 list trim;
#X obj 75 305 expr size("$s1");
#X obj 109 118 route array bang float;
#X obj 123 65 list append \$1;
#X obj 123 86 sel 0;
#X connect 0 0 1 0;
#X connect 1 0 11 0;
#X connect 2 0 4 0;
#X connect 3 0 0 0;
#X connect 5 0 18 0;
#X connect 7 0 2 1;
#X connect 8 0 19 0;
#X connect 9 0 6 0;
#X connect 11 0 2 0;
#X connect 12 0 15 0;
#X connect 12 0 17 0;
#X connect 14 0 11 0;
#X connect 15 0 16 0;
#X connect 16 0 13 0;
#X connect 17 0 0 1;
#X connect 17 0 10 0;
#X connect 18 0 12 0;
#X connect 18 1 12 0;
#X connect 18 2 9 0;
#X connect 19 0 20 0;
#X connect 20 1 18 0;
