#N canvas 605 234 580 332 10;
#X obj 176 113 loadbang;
#X obj 42 266 dac~;
#X msg 176 140 dry 0.2 \, bq 2 \, basedur 1500 \, bpitch 83 \, feedback
0.99 \, dell 2 \, delr 3 \,;
#X obj 41 224 snd.fx.dubdel~ mydubdel;
#X obj 41 160 readsf~;
#X msg 64 79 0;
#X obj 80 181 s \$0-sampend;
#X obj 41 22 r \$0-sampend;
#X text 225 45 <-- play;
#X text 102 77 <-- stop;
#N canvas 141 233 432 310 controls 0;
#X obj 43 262 outlet;
#X msg 92 36 dry \$1;
#X msg 93 64 bq \$1;
#X msg 92 141 basedur \$1;
#X msg 93 90 bpitch \$1;
#X msg 93 114 feedback \$1;
#X msg 94 169 dell \$1;
#X msg 93 197 delr \$1;
#X text 150 24 dry - amount of dry signal;
#X text 150 42 dry=0 means fully wet (default);
#X text 162 89 <-- bandpass pitch in midi units (0-127);
#X text 149 195 <-- delay divisor right.;
#X text 149 167 <-- delay divisor left.;
#X text 163 140 <-- base duration for delays;
#X text 172 113 <-- delay feedback;
#X text 135 63 <-- bandpass Q: resonance (default 2);
#X connect 1 0 0 0;
#X connect 2 0 0 0;
#X connect 3 0 0 0;
#X connect 4 0 0 0;
#X connect 5 0 0 0;
#X connect 6 0 0 0;
#X connect 7 0 0 0;
#X restore 193 181 pd controls;
#X msg 41 46 open _samples/organ-01.wav \, 1;
#X connect 0 0 2 0;
#X connect 2 0 3 2;
#X connect 3 0 1 0;
#X connect 3 1 1 1;
#X connect 4 0 3 0;
#X connect 4 0 3 1;
#X connect 4 1 6 0;
#X connect 5 0 4 0;
#X connect 7 0 11 0;
#X connect 10 0 3 2;
#X connect 11 0 4 0;
