#N canvas 92 328 355 360 10;
#X obj 86 250 snd.bonk~;
#X obj 86 285 bng 15 250 50 0 empty empty empty 17 7 0 10 -262144 -1
-1;
#X floatatom 134 287 5 0 0 0 - - -;
#X obj 91 35 adc~;
#X msg 171 188 min \$1;
#X floatatom 171 166 5 0 0 0 - - -;
#X msg 222 189 max \$1;
#X floatatom 223 168 5 0 0 0 - - -;
#X msg 168 132 minvol \$1;
#X floatatom 168 111 5 0 0 0 - - -;
#X connect 0 0 1 0;
#X connect 0 1 2 0;
#X connect 3 0 0 0;
#X connect 3 1 0 0;
#X connect 4 0 0 1;
#X connect 5 0 4 0;
#X connect 6 0 0 1;
#X connect 7 0 6 0;
#X connect 8 0 0 1;
#X connect 9 0 8 0;
