#N canvas 459 58 551 400 10;
#X obj 77 98 fexpr~ abs($x[0] - $x[-1]) > 0.5;
#X obj 77 77 phasor~;
#X obj 77 120 threshold~ 0.5 0 0.5 0;
#X obj 78 180 print;
#X floatatom 76 31 0 0 0 0 - - -;
#X obj 90 147 bng 15 250 50 0 empty empty empty 17 7 0 10 -262144 -1
-1;
#X obj 76 55 sig~ 1;
#X obj 379 155 metro 500;
#X msg 389 206 0 \, 1 500;
#X obj 393 268 vline~;
#X msg 377 112 1;
#X msg 427 113 0;
#X connect 0 0 2 0;
#X connect 1 0 0 0;
#X connect 2 0 3 0;
#X connect 2 0 5 0;
#X connect 4 0 6 0;
#X connect 6 0 1 0;
#X connect 7 0 8 0;
#X connect 8 0 9 0;
#X connect 10 0 7 0;
#X connect 11 0 7 0;
