#N struct morse float x float y symbol letter float bin-num array content
morse-content;
#N struct morse-content float bin;
#N canvas 1119 147 1 1 10;
#N canvas 102 108 1 1 datastructure 1;
#N canvas 952 323 513 507 GET-BINARY 0;
#X obj 266 74 pointer;
#X msg 234 47 next;
#X obj 234 28 until;
#X obj 255 -1 t b b;
#X obj 145 200 until;
#X obj 144 222 f;
#X obj 179 245 + 1;
#X obj 266 94 trigger pointer bang pointer;
#X obj 301 336 t l;
#X obj 122 371 list;
#X obj 255 -20 inlet;
#X obj 124 410 outlet;
#X msg 289 203 0;
#X obj 155 295 element morse content;
#X obj 386 393 outlet;
#X obj 231 356 list prepend;
#X obj 117 170 t b a;
#X obj 155 315 get morse-content bin;
#X obj 143 133 getsize morse content;
#X msg 287 43 traverse pd-morse-data;
#X connect 0 0 7 0;
#X connect 0 1 2 1;
#X connect 1 0 0 0;
#X connect 2 0 1 0;
#X connect 3 0 2 0;
#X connect 3 1 19 0;
#X connect 4 0 5 0;
#X connect 5 0 6 0;
#X connect 5 0 13 0;
#X connect 6 0 5 1;
#X connect 7 0 18 0;
#X connect 7 1 8 0;
#X connect 7 1 12 0;
#X connect 7 2 13 1;
#X connect 7 2 14 0;
#X connect 8 0 15 1;
#X connect 9 0 11 0;
#X connect 10 0 3 0;
#X connect 12 0 5 1;
#X connect 13 0 17 0;
#X connect 15 0 8 0;
#X connect 15 0 9 1;
#X connect 16 0 9 0;
#X connect 16 1 4 0;
#X connect 17 0 15 0;
#X connect 18 0 16 0;
#X connect 19 0 0 0;
#X restore 247 100 pd GET-BINARY;
#X obj 330 67 t b a;
#X obj 298 200 pointer;
#X obj 260 174 sel 1;
#X obj 298 222 get morse letter;
#X obj 299 247 outlet;
#X obj 329 26 inlet;
#N canvas 0 22 1 1 list-compare 0;
#X obj 222 58 inlet;
#X obj 94 57 inlet;
#X obj 94 199 outlet;
#N canvas 380 394 317 356 compare-elements 0;
#X obj 83 157 t a b;
#X obj 264 48 inlet;
#X obj 65 36 inlet;
#X obj 241 111 list;
#X obj 83 112 until;
#X obj 83 256 select 0;
#X obj 83 288 t b b;
#X msg 83 317 0;
#X obj 65 379 outlet;
#X obj 65 356 f 1;
#X obj 65 59 t b b a b b;
#X msg 125 319 1;
#N canvas 0 23 514 518 compare-any 0;
#X obj 118 28 inlet;
#X obj 118 451 outlet;
#X obj 118 336 ==;
#X obj 118 358 select 1;
#N canvas 272 259 450 300 demux 0;
#X obj 76 87 inlet;
#X obj 169 86 inlet;
#X obj 76 145 list prepend 0;
#X obj 76 186 route 0 1;
#X obj 76 242 outlet;
#X obj 105 213 outlet;
#X connect 0 0 2 0;
#X connect 1 0 2 1;
#X connect 2 0 3 0;
#X connect 3 0 4 0;
#X connect 3 1 5 0;
#X restore 118 230 pd demux;
#X msg 169 207 0;
#X msg 200 206 1;
#X obj 118 295 route float;
#X obj 219 293 route symbol;
#X obj 359 199 print HUH?;
#X obj 219 272 list;
#X obj 238 164 route float symbol;
#X obj 238 136 list;
#X msg 118 423 1;
#X msg 190 418 0;
#X obj 238 28 inlet;
#X obj 219 356 select [DUMMY-SYMBOL];
#X connect 0 0 4 0;
#X connect 2 0 3 0;
#X connect 3 0 13 0;
#X connect 3 1 14 0;
#X connect 4 0 7 0;
#X connect 4 1 10 0;
#X connect 5 0 4 1;
#X connect 6 0 4 1;
#X connect 7 0 2 0;
#X connect 7 1 14 0;
#X connect 8 0 16 0;
#X connect 8 1 14 0;
#X connect 10 0 8 0;
#X connect 11 0 2 1;
#X connect 11 0 5 0;
#X connect 11 1 6 0;
#X connect 11 1 16 1;
#X connect 11 2 9 0;
#X connect 12 0 11 0;
#X connect 13 0 1 0;
#X connect 14 0 1 0;
#X connect 15 0 12 0;
#X connect 16 0 13 0;
#X connect 16 1 14 0;
#X restore 83 233 pd compare-any;
#N canvas 0 22 1 1 list-dripslow 0;
#X obj 148 186 list split 1;
#X obj 148 161 list append;
#X obj 148 237 outlet;
#X obj 148 37 inlet;
#X obj 229 237 outlet;
#X obj 222 35 inlet;
#X obj 148 72 b;
#X text 265 36 list;
#X text 103 37 bang;
#X text 273 237 EOL;
#X text 89 236 element;
#X obj 229 207 b;
#X connect 0 0 2 0;
#X connect 0 1 1 1;
#X connect 0 2 11 0;
#X connect 1 0 0 0;
#X connect 3 0 6 0;
#X connect 5 0 1 1;
#X connect 6 0 1 0;
#X connect 11 0 4 0;
#X restore 164 210 pd list-dripslow;
#N canvas 0 22 1 1 list-dripslow 0;
#X obj 148 186 list split 1;
#X obj 148 161 list append;
#X obj 148 237 outlet;
#X obj 148 37 inlet;
#X obj 229 237 outlet;
#X obj 222 35 inlet;
#X obj 148 72 b;
#X text 265 36 list;
#X text 103 37 bang;
#X text 273 237 EOL;
#X text 89 236 element;
#X obj 229 207 b;
#X connect 0 0 2 0;
#X connect 0 1 1 1;
#X connect 0 2 11 0;
#X connect 1 0 0 0;
#X connect 3 0 6 0;
#X connect 5 0 1 1;
#X connect 6 0 1 0;
#X connect 11 0 4 0;
#X restore 83 134 pd list-dripslow;
#X connect 0 0 12 0;
#X connect 0 1 13 0;
#X connect 1 0 3 1;
#X connect 2 0 10 0;
#X connect 3 0 13 1;
#X connect 4 0 14 0;
#X connect 5 0 6 0;
#X connect 6 0 7 0;
#X connect 6 1 4 1;
#X connect 7 0 9 1;
#X connect 9 0 8 0;
#X connect 10 0 9 0;
#X connect 10 1 4 0;
#X connect 10 2 14 1;
#X connect 10 3 3 0;
#X connect 10 4 11 0;
#X connect 11 0 9 1;
#X connect 12 0 5 0;
#X connect 13 0 12 1;
#X connect 14 0 0 0;
#X connect 14 1 4 1;
#X restore 94 136 pd compare-elements;
#X msg 216 167 0;
#N canvas 551 418 1 1 compare-lengths 0;
#X obj 45 121 ==;
#X obj 45 142 select 1 0;
#X obj 142 20 inlet;
#X obj 45 20 inlet;
#X obj 45 222 outlet;
#X obj 77 201 outlet;
#X obj 45 45 t a a;
#X obj 45 173 list;
#X text 39 256 if equal \, send list out to first outlet \, else bang
second outlet;
#X obj 142 61 list length;
#X obj 142 41 list;
#X obj 45 90 list length;
#X obj 45 66 list;
#X connect 0 0 1 0;
#X connect 1 0 7 0;
#X connect 1 1 5 0;
#X connect 2 0 10 0;
#X connect 3 0 6 0;
#X connect 6 0 12 0;
#X connect 6 1 7 1;
#X connect 7 0 4 0;
#X connect 9 0 0 1;
#X connect 10 0 9 0;
#X connect 11 0 0 0;
#X connect 12 0 11 0;
#X restore 94 93 pd compare-lengths;
#X connect 0 0 5 1;
#X connect 0 0 3 1;
#X connect 1 0 5 0;
#X connect 3 0 2 0;
#X connect 4 0 2 0;
#X connect 5 0 3 0;
#X connect 5 1 4 0;
#X restore 247 140 pd list-compare;
#X connect 0 0 7 0;
#X connect 0 1 2 1;
#X connect 1 0 0 0;
#X connect 1 1 7 1;
#X connect 2 0 4 0;
#X connect 3 0 2 0;
#X connect 4 0 5 0;
#X connect 6 0 1 0;
#X connect 7 0 3 0;
#X restore 65 387 pd datastructure;
#X obj 84 257 list prepend;
#N canvas 1149 566 450 441 computeTime 0;
#X obj 152 -129 timer;
#X msg 270 56 link;
#X msg 331 57 space;
#X obj 100 203 outlet;
#X obj 153 -175 inlet;
#X obj 79 -114 bng 15 50 10 0 empty empty empty 17 7 0 10 -262144 -1
-1;
#X msg 50 69 0;
#X msg 139 67 1;
#X floatatom 229 -133 5 0 0 0 - - -, f 5;
#X obj 149 -108 list prepend;
#X obj 153 -154 t b b a;
#X obj 149 -84 list trim;
#X obj 149 -62 route 1 0;
#X obj 77 -10 moses 100;
#X obj 271 4 moses 400;
#X obj 179 -39 moses 60;
#X obj 331 30 moses 1000;
#X connect 0 0 9 0;
#X connect 1 0 3 0;
#X connect 2 0 3 0;
#X connect 4 0 10 0;
#X connect 6 0 3 0;
#X connect 7 0 3 0;
#X connect 9 0 11 0;
#X connect 10 0 0 0;
#X connect 10 0 5 0;
#X connect 10 1 0 1;
#X connect 10 2 9 1;
#X connect 11 0 12 0;
#X connect 12 0 13 0;
#X connect 12 1 15 0;
#X connect 13 0 6 0;
#X connect 13 1 7 0;
#X connect 14 0 1 0;
#X connect 14 1 16 0;
#X connect 15 1 14 0;
#X connect 16 0 2 0;
#X restore 115 119 pd computeTime;
#X obj 115 143 route float link space;
#X obj 153 233 t l;
#X obj 66 322 list;
#X msg 374 124 stop;
#X obj 364 99 t b b;
#X text 333 79 pour sortir le dernier caractère;
#X obj 334 154 del 2000;
#X obj 64 187 bng 15 250 50 0 empty empty empty 17 7 0 10 -262144 -1
-1;
#X obj 85 187 bng 15 250 50 0 empty empty empty 17 7 0 10 -262144 -1
-1;
#X obj 121 185 bng 15 250 50 0 empty empty empty 17 7 0 10 -262144
-1 -1;
#X obj 65 459 outlet lettre;
#X obj 237 393 outlet espace;
#X obj 421 98 r init;
#X obj 15 186 r init;
#X obj 113 58 inlet~;
#N canvas 1190 492 450 300 datastruct 0;
#N canvas 396 493 450 402 morse-data 0;
#X scalar morse 0 0 A 2 \; 0 \; 1 \; \;;
#X scalar morse 0 45 B 4 \; 1 \; 0 \; 0 \; 0 \; \;;
#X scalar morse 1 91 C 4 \; 1 \; 0 \; 1 \; 0 \; \;;
#X scalar morse 1 137 D 3 \; 1 \; 0 \; 0 \; \;;
#X scalar morse 1 182 E 1 \; 0 \; \;;
#X scalar morse 1 227 F 4 \; 0 \; 0 \; 1 \; 0 \; \;;
#X scalar morse 2 273 G 4 \; 1 \; 1 \; 0 \; \;;
#X scalar morse 2 319 H 4 \; 0 \; 0 \; 0 \; 0 \; \;;
#X scalar morse 46 1 I 2 \; 0 \; 0 \; \;;
#X scalar morse 46 46 J 4 \; 0 \; 1 \; 1 \; 1 \; \;;
#X scalar morse 47 92 K 3 \; 1 \; 0 \; 1 \; \;;
#X scalar morse 47 138 L 4 \; 0 \; 1 \; 0 \; 0 \; \;;
#X scalar morse 47 183 M 2 \; 1 \; 1 \; \;;
#X scalar morse 47 228 N 2 \; 1 \; 0 \; \;;
#X scalar morse 48 274 O 3 \; 1 \; 1 \; 1 \; \;;
#X scalar morse 48 320 P 4 \; 0 \; 1 \; 1 \; 0 \; \;;
#X scalar morse 92 1 Q 4 \; 1 \; 1 \; 0 \; 1 \; \;;
#X scalar morse 92 46 R 3 \; 0 \; 1 \; 0 \; \;;
#X scalar morse 93 92 S 3 \; 0 \; 0 \; 0 \; \;;
#X scalar morse 93 138 T 1 \; 1 \; \;;
#X scalar morse 93 183 U 3 \; 0 \; 0 \; 1 \; \;;
#X scalar morse 93 228 V 4 \; 0 \; 0 \; 0 \; 1 \; \;;
#X scalar morse 94 274 W 3 \; 0 \; 1 \; 1 \; \;;
#X scalar morse 94 320 X 4 \; 1 \; 0 \; 0 \; 1 \; \;;
#X scalar morse 139 2 Y 4 \; 1 \; 0 \; 1 \; 1 \; \;;
#X scalar morse 139 47 Z 4 \; 1 \; 1 \; 0 \; 0 \; \;;
#X scalar morse 140 93 .0. 5 \; 1 \; 1 \; 1 \; 1 \; 1 \; \;;
#X scalar morse 140 139 .1. 5 \; 0 \; 1 \; 1 \; 1 \; 1 \; \;;
#X scalar morse 140 184 .2. 5 \; 0 \; 0 \; 1 \; 1 \; 1 \; \;;
#X scalar morse 140 229 .3. 5 \; 0 \; 0 \; 0 \; 1 \; 1 \; \;;
#X scalar morse 141 275 .4. 5 \; 0 \; 0 \; 0 \; 0 \; 1 \; \;;
#X scalar morse 141 321 .5. 5 \; 0 \; 0 \; 0 \; 0 \; 0 \; \;;
#X scalar morse 187 3 .6. 5 \; 1 \; 0 \; 0 \; 0 \; 0 \; \;;
#X scalar morse 187 48 .7. 5 \; 1 \; 1 \; 0 \; 0 \; 0 \; \;;
#X scalar morse 188 94 .8. 5 \; 1 \; 1 \; 1 \; 0 \; 0 \; \;;
#X scalar morse 188 138 .9. 5 \; 1 \; 1 \; 1 \; 1 \; 0 \; \;;
#X restore 35 17 pd morse-data;
#N canvas 1216 78 450 300 morse 0;
#X obj 106 76 filledpolygon 900 0 1 0 0 40 0 40 40 0 40;
#X obj 105 97 drawsymbol letter 5 2 0;
#X obj 105 125 plot content 500 0 2 15 7;
#X obj 89 19 struct morse float x float y symbol letter float bin-num
array content morse-content;
#X restore 34 37 pd morse;
#N canvas 1210 372 450 300 morse-content 0;
#X obj 54 64 drawnumber bin 0 0 0;
#X obj 49 27 struct morse-content float bin;
#X restore 35 60 pd morse-content;
#X obj 249 53 \$0;
#X obj 251 33 bng 15 250 50 0 empty empty empty 17 7 0 10 -262144 -1
-1;
#X msg 69 94 0 0;
#X msg 35 168 symbol A;
#X obj 245 102 pointer;
#X obj 112 136 append morse x y;
#X msg 250 76 traverse pd-\$1morse-data \, bang;
#X obj 38 203 set -symbol morse letter;
#X connect 3 0 9 0;
#X connect 4 0 3 0;
#X connect 5 0 8 0;
#X connect 6 0 10 0;
#X connect 7 0 8 2;
#X connect 8 0 10 1;
#X connect 9 0 7 0;
#X restore 112 35 pd datastruct;
#N canvas 1021 174 450 315 threshold 0;
#X obj 42 7 inlet~;
#X obj 47 108 outlet;
#X obj 42 39 env~;
#X obj 43 85 change;
#X obj 42 61 < 0.5;
#X connect 0 0 2 0;
#X connect 2 0 4 0;
#X connect 3 0 1 0;
#X connect 4 0 3 0;
#X restore 114 83 pd threshold;
#X obj 362 394 outlet end;
#X connect 0 0 13 0;
#X connect 1 0 4 0;
#X connect 1 0 5 1;
#X connect 2 0 3 0;
#X connect 3 0 1 0;
#X connect 3 0 10 0;
#X connect 3 1 5 0;
#X connect 3 1 4 0;
#X connect 3 1 11 0;
#X connect 3 2 12 0;
#X connect 3 2 4 0;
#X connect 3 2 5 0;
#X connect 3 2 14 0;
#X connect 4 0 1 1;
#X connect 5 0 0 0;
#X connect 6 0 9 0;
#X connect 7 0 9 0;
#X connect 7 1 6 0;
#X connect 9 0 4 0;
#X connect 9 0 5 0;
#X connect 9 0 20 0;
#X connect 15 0 6 0;
#X connect 16 0 4 0;
#X connect 16 0 5 1;
#X connect 17 0 19 0;
#X connect 19 0 2 0;
#X connect 19 0 7 0;
