#N canvas 214 227 648 555 12;
#X obj 204 201 snd.fx.karplus~;
#X obj 204 151 readsf~;
#X obj 204 88 openpanel;
#X obj 203 43 bng 15 250 50 0 empty empty empty 17 7 0 10 -262144 -1
-1;
#X msg 204 114 open \$1 \, 1;
#X obj 204 274 dac~;
#X connect 0 0 5 0;
#X connect 0 0 5 1;
#X connect 1 0 0 0;
#X connect 1 1 0 0;
#X connect 2 0 4 0;
#X connect 3 0 2 0;
#X connect 4 0 1 0;
