#N canvas 54 83 547 655 10;
#X obj 150 442 snd.fx.fuzz~;
#X msg 233 56 pregain \$1;
#X floatatom 233 30 5 0 100 0 - - -;
#X text 271 30 <-- 0-100;
#X floatatom 256 80 5 0 100 0 - - -;
#X text 294 80 <-- 0-100;
#X msg 256 106 clip \$1;
#X floatatom 282 131 5 0 100 0 - - -;
#X text 320 131 <-- 0-100;
#X msg 282 157 postgain \$1;
#X floatatom 310 181 5 0 100 0 - - -;
#X text 348 181 <-- 0-100;
#X msg 310 207 lopass \$1;
#X floatatom 337 237 5 0 100 0 - - -;
#X text 375 237 <-- 0-100;
#X msg 337 263 fuzz \$1;
#X msg 374 316 difference \$1;
#X obj 377 292 tgl 15 0 empty empty empty 17 7 0 10 -262144 -1 -1 1
1;
#X obj 149 572 dac~;
#X obj 104 352 readsf~;
#X msg 92 289 open _samples/amen.wav \, 1;
#X connect 0 0 18 0;
#X connect 0 0 18 1;
#X connect 1 0 0 1;
#X connect 2 0 1 0;
#X connect 4 0 6 0;
#X connect 6 0 0 1;
#X connect 7 0 9 0;
#X connect 9 0 0 1;
#X connect 10 0 12 0;
#X connect 12 0 0 1;
#X connect 13 0 15 0;
#X connect 15 0 0 1;
#X connect 16 0 0 1;
#X connect 17 0 16 0;
#X connect 19 0 0 0;
#X connect 19 1 20 0;
#X connect 20 0 19 0;
