#N canvas 658 249 622 522 10;
#X obj 186 285 vd~ \$0-d;
#X obj 18 53 delwrite~ \$0-d 441000;
#X obj 201 223 samplerate~;
#X obj 186 263 /;
#X obj 201 203 loadbang;
#X obj 201 243 / 1000;
#X obj 209 489 tabwrite~ \$0-s;
#X obj 261 83 table \$0-s;
#X msg 261 46 \; \$1 resize 441000;
#X obj 261 27 symbol \$0-s;
#X obj 261 9 loadbang;
#X obj 171 10 inlet;
#X obj 18 12 inlet~;
#X obj 18 31 +~;
#X obj 378 462 tabread4~ \$0-s;
#X obj 378 440 *~;
#X obj 391 420 phasor~ 0.5;
#X obj 391 399 expr (1 / ($f1 / 1000));
#X obj 223 356 vline~;
#X obj 187 430 *~;
#X msg 223 335 0 \, 1 5 \, 0 5 \$1;
#X obj 223 314 - 5;
#X text 271 356 envelope;
#X obj 378 484 outlet~;
#X obj 171 140 + 2000;
#X floatatom 97 160 5 0 0 0 - - -;
#X obj 171 118 random 8000;
#X obj 171 165 t f f b f f;
#X connect 0 0 19 0;
#X connect 2 0 5 0;
#X connect 3 0 0 0;
#X connect 3 0 17 0;
#X connect 4 0 2 0;
#X connect 5 0 3 1;
#X connect 9 0 8 0;
#X connect 10 0 9 0;
#X connect 11 0 26 0;
#X connect 12 0 13 0;
#X connect 13 0 1 0;
#X connect 14 0 23 0;
#X connect 15 0 14 0;
#X connect 16 0 15 1;
#X connect 17 0 16 0;
#X connect 18 0 19 1;
#X connect 19 0 6 0;
#X connect 20 0 18 0;
#X connect 21 0 20 0;
#X connect 24 0 25 0;
#X connect 24 0 27 0;
#X connect 26 0 24 0;
#X connect 27 1 3 0;
#X connect 27 2 6 0;
#X connect 27 3 21 0;
#X connect 27 4 15 0;
