#N canvas 556 26 547 734 10;
#X obj 20 535 dac~;
#X obj 20 506 *~ 0.5;
#X obj 20 480 lop~ 4000;
#X obj 20 455 expr~ ((($v1&0xff)^0x80)-128)/128;
#X text 228 453 <-- putchar \, conversion 2 unsigend char;
#X text 85 480 <-- filter frequencies above 4 khz;
#X obj 20 47 sig~ 0.781405;
#X floatatom 20 28 5 0 0 0 - - -, f 5;
#X msg 177 382 $v1&($v1>>4)>>3&$v1>>7;
#X msg 165 359 ((((($v1>>12)^($v1>>12)-2)%11*$v1)/4|$v1>>13)&127);
#X text 23 571 megrimm 2012;
#X text 161 415 <-- takes a creation argument;
#X text 18 5 dexpr~ allows an [expr~] object to be changed dynamically
;
#X msg 144 336 $v1<<(($v1>>8&$v1)|($v1>>14&$v1));
#X obj 20 416 snd.dexpr~ ($v1*2)+10;
#X obj 361 503 samplerate~;
#X obj 361 481 r pd-dsp-started;
#X floatatom 361 525 7 0 0 0 - - -, f 7;
#X obj 117 267 snapshot~;
#X obj 117 288 print;
#X obj 117 197 metro 20;
#X msg 117 172 1;
#X msg 148 172 0;
#X floatatom 116 26 5 0 0 0 - - -, f 5;
#X obj 18 330 rpole~ 1;
#X floatatom 63 310 5 0 0 0 - - -, f 5;
#X obj 20 113 *~;
#X obj 116 109 *~;
#X obj 116 45 osc~ 0.781405;
#X msg 31 262 clear;
#X floatatom 215 28 5 0 0 0 - - -, f 5;
#X obj 131 88 == 1;
#X obj 35 90 == 0;
#X obj 216 108 *~;
#X obj 231 87 == 2;
#X obj 18 170 catch~ signal;
#X obj 20 133 throw~ signal;
#X obj 116 131 throw~ signal;
#X obj 216 130 throw~ signal;
#X obj 35 68 r \$0-sw;
#X obj 131 66 r \$0-sw;
#X obj 231 66 r \$0-sw;
#X obj 347 45 hradio 15 1 0 4 empty empty empty 0 -8 0 10 -262144 -1
-1 0;
#X obj 347 69 s \$0-sw;
#X obj 216 45 phasor~ 0.781405;
#X msg 36 283 set 1;
#X obj 28 357 s~ rpole~;
#X obj 124 218 r~ rpole~;
#X text 184 255 <-- monitor rpole~;
#X text 410 41 <-- start;
#X obj 31 219 bang~;
#X obj 31 240 bng.pass;
#X floatatom 76 199 5 0 0 0 - - -, f 5;
#X obj 76 218 * 64;
#X connect 1 0 0 0;
#X connect 1 0 0 1;
#X connect 2 0 1 0;
#X connect 3 0 2 0;
#X connect 6 0 26 0;
#X connect 7 0 6 0;
#X connect 8 0 14 1;
#X connect 9 0 14 1;
#X connect 13 0 14 1;
#X connect 14 0 3 0;
#X connect 15 0 17 0;
#X connect 16 0 15 0;
#X connect 17 0 51 1;
#X connect 18 0 19 0;
#X connect 20 0 18 0;
#X connect 21 0 20 0;
#X connect 22 0 20 0;
#X connect 23 0 28 0;
#X connect 24 0 46 0;
#X connect 24 0 14 0;
#X connect 25 0 24 1;
#X connect 26 0 36 0;
#X connect 27 0 37 0;
#X connect 28 0 27 0;
#X connect 29 0 24 0;
#X connect 30 0 44 0;
#X connect 31 0 27 1;
#X connect 32 0 26 1;
#X connect 33 0 38 0;
#X connect 34 0 33 1;
#X connect 35 0 24 0;
#X connect 39 0 32 0;
#X connect 40 0 31 0;
#X connect 41 0 34 0;
#X connect 42 0 43 0;
#X connect 44 0 33 0;
#X connect 45 0 24 0;
#X connect 47 0 18 0;
#X connect 50 0 51 0;
#X connect 51 0 29 0;
#X connect 52 0 53 0;
#X connect 53 0 51 1;
