#N canvas 0 23 1019 741 10;
#N canvas 0 23 326 253 loadsamples 0;
#X obj 22 200 soundfiler;
#X obj 72 134 makefilename #0-drum%d;
#X obj 22 156 pack s s;
#X msg 22 179 read -resize \$1 \$2;
#X msg 47 23 bang;
#X obj 47 66 until;
#X obj 47 87 f 0;
#X obj 75 87 + 1;
#X obj 109 87 sel 31;
#X msg 103 53 0;
#X obj 99 21 loadbang;
#X obj 22 114 makefilename ./_samples/kit/sound%d.wav;
#X connect 1 0 2 1;
#X connect 2 0 3 0;
#X connect 3 0 0 0;
#X connect 4 0 5 0;
#X connect 5 0 6 0;
#X connect 6 0 7 0;
#X connect 6 0 8 0;
#X connect 6 0 1 0;
#X connect 6 0 11 0;
#X connect 7 0 6 1;
#X connect 8 0 5 1;
#X connect 8 0 9 0;
#X connect 9 0 6 1;
#X connect 10 0 5 0;
#X connect 11 0 2 0;
#X restore 719 361 pd loadsamples;
#N canvas 0 23 700 225 tables 0;
#X obj 8 13 table #0-drum0 2048;
#X obj 8 33 table #0-drum1 2048;
#X obj 8 53 table #0-drum2 2048;
#X obj 8 72 table #0-drum3 2048;
#X obj 8 91 table #0-drum4 2048;
#X obj 8 111 table #0-drum5 2048;
#X obj 8 130 table #0-drum6 2048;
#X obj 8 150 table #0-drum7 2048;
#X obj 182 14 table #0-drum8 2048;
#X obj 182 34 table #0-drum9 2048;
#X obj 182 54 table #0-drum10 2048;
#X obj 182 73 table #0-drum11 2048;
#X obj 182 92 table #0-drum12 2048;
#X obj 182 112 table #0-drum13 2048;
#X obj 182 131 table #0-drum14 2048;
#X obj 182 151 table #0-drum15 2048;
#X obj 354 12 table #0-drum16 2048;
#X obj 354 32 table #0-drum17 2048;
#X obj 354 52 table #0-drum18 2048;
#X obj 354 71 table #0-drum19 2048;
#X obj 354 90 table #0-drum20 2048;
#X obj 354 110 table #0-drum21 2048;
#X obj 354 129 table #0-drum22 2048;
#X obj 354 149 table #0-drum23 2048;
#X obj 515 11 table #0-drum24 2048;
#X obj 515 31 table #0-drum25 2048;
#X obj 514 51 table #0-drum26 2048;
#X obj 515 70 table #0-drum27 2048;
#X obj 514 88 table #0-drum28 2048;
#X obj 515 109 table #0-drum29 2048;
#X obj 515 128 table #0-drum30 2048;
#X obj 515 148 table #0-drum31 2048;
#X restore 717 384 pd tables;
#N canvas 0 22 425 381 playeri1 0;
#X obj 247 198 hip~ 5;
#X obj 247 145 vline~;
#X obj 247 173 tabread4~;
#X obj 247 222 *~ 0.5;
#X obj 180 115 r i1snum;
#X obj 247 115 r i1phase;
#X obj 323 29 inlet;
#X text 313 8 vol;
#X obj 43 162 makefilename #0-drum%d;
#X obj 42 118 max 0;
#X obj 42 140 min 31;
#X msg 43 184 \; i1snum set \$1 \; i1phase 1 \, 4.41e+08 1e+07 \;;
#X obj 40 46 inlet;
#X text 36 23 note/sound;
#X text 101 -16 i1;
#X obj 245 254 outlet~;
#X connect 0 0 3 0;
#X connect 1 0 2 0;
#X connect 2 0 0 0;
#X connect 3 0 15 0;
#X connect 4 0 2 0;
#X connect 5 0 1 0;
#X connect 6 0 3 1;
#X connect 8 0 11 0;
#X connect 9 0 10 0;
#X connect 10 0 8 0;
#X connect 12 0 9 0;
#X restore 723 512 pd playeri1;
#X obj 394 461 + 16;
#X floatatom 730 489 5 0 0 0 - - -, f 5;
#X obj 723 466 + 25;
#N canvas 0 23 425 381 playeri3 0;
#X obj 247 198 hip~ 5;
#X obj 247 145 vline~;
#X obj 247 173 tabread4~;
#X obj 247 222 *~ 0.5;
#X obj 323 29 inlet;
#X text 313 8 vol;
#X obj 43 162 makefilename #0-drum%d;
#X obj 42 118 max 0;
#X obj 42 140 min 31;
#X obj 40 46 inlet;
#X text 36 23 note/sound;
#X text 101 -16 i1;
#X obj 245 254 outlet~;
#X msg 43 184 \; i3snum set \$1 \; i3phase 1 \, 4.41e+08 1e+07 \;;
#X obj 247 115 r i3phase;
#X obj 180 115 r i3snum;
#X connect 0 0 3 0;
#X connect 1 0 2 0;
#X connect 2 0 0 0;
#X connect 3 0 12 0;
#X connect 4 0 3 1;
#X connect 6 0 13 0;
#X connect 7 0 8 0;
#X connect 8 0 6 0;
#X connect 9 0 7 0;
#X connect 14 0 1 0;
#X connect 15 0 2 0;
#X restore 552 506 pd playeri3;
#N canvas 0 23 425 381 playeri2 0;
#X obj 247 198 hip~ 5;
#X obj 247 145 vline~;
#X obj 247 173 tabread4~;
#X obj 247 222 *~ 0.5;
#X obj 323 29 inlet;
#X text 313 8 vol;
#X obj 43 162 makefilename #0-drum%d;
#X obj 42 118 max 0;
#X obj 42 140 min 31;
#X obj 40 46 inlet;
#X text 36 23 note/sound;
#X text 101 -16 i1;
#X obj 245 254 outlet~;
#X msg 43 184 \; i2snum set \$1 \; i2phase 1 \, 4.41e+08 1e+07 \;;
#X obj 247 115 r i2phase;
#X obj 180 115 r i2snum;
#X connect 0 0 3 0;
#X connect 1 0 2 0;
#X connect 2 0 0 0;
#X connect 3 0 12 0;
#X connect 4 0 3 1;
#X connect 6 0 13 0;
#X connect 7 0 8 0;
#X connect 8 0 6 0;
#X connect 9 0 7 0;
#X connect 14 0 1 0;
#X connect 15 0 2 0;
#X restore 394 510 pd playeri2;
#X obj 794 491 r \$0-snarel;
#X obj 620 483 r \$0-kickl;
#X obj 460 485 r \$0-hhl;
#X floatatom 403 485 5 0 0 0 - - -, f 5;
#X msg 612 384 0.5;
#X obj 610 361 loadbang;
#X obj 391 620 outlet~;
#X obj 550 655 outlet~;
#X obj 755 641 outlet~;
#X obj 398 256 inlet;
#X obj 484 266 inlet;
#X obj 637 261 inlet;
#X text 557 178 use seq.jazzdrummer as inlets;
#X connect 2 0 16 0;
#X connect 3 0 7 0;
#X connect 3 0 11 0;
#X connect 5 0 2 0;
#X connect 5 0 4 0;
#X connect 6 0 15 0;
#X connect 7 0 14 0;
#X connect 8 0 2 1;
#X connect 9 0 6 1;
#X connect 10 0 7 1;
#X connect 12 0 6 1;
#X connect 12 0 2 1;
#X connect 12 0 7 1;
#X connect 13 0 12 0;
#X connect 17 0 3 0;
#X connect 18 0 6 0;
#X connect 19 0 5 0;
