#N canvas 617 24 266 414 10;
#X obj 37 331 dac~;
#X msg 149 241 crh \$1;
#X msg 142 202 dec \$1;
#X msg 129 160 vol \$1;
#X obj 39 26 bng 50 250 50 0 empty empty empty 17 7 0 10 -258113 -1
-1;
#X floatatom 129 138 5 0 100 0 - - -, f 5;
#X floatatom 142 183 5 0 100 0 - - -, f 5;
#X floatatom 149 222 5 0 100 0 - - -, f 5;
#N canvas 793 52 321 393 \$0-presets 0;
#X obj 39 328 outlet;
#X obj 40 44 inlet;
#X msg 40 97 vol 80 \, dec 13 \, crh 10;
#X msg 53 119 vol 80 \, dec 45 \, crh 50;
#X obj 40 72 sel 0 1 2 3 4 5 6 7;
#X msg 67 142 vol 80 \, dec 30 \, crh 20;
#X msg 81 164 vol 80 \, dec 60 \, crh 30;
#X msg 95 187 vol 80 \, dec 70 \, crh 40;
#X msg 109 211 vol 80 \, dec 30 \, crh 60;
#X msg 123 235 vol 80 \, dec 80 \, crh 70;
#X msg 137 259 vol 80 \, dec 10 \, crh 80;
#X connect 1 0 4 0;
#X connect 2 0 0 0;
#X connect 3 0 0 0;
#X connect 4 0 2 0;
#X connect 4 1 3 0;
#X connect 4 2 5 0;
#X connect 4 3 6 0;
#X connect 4 4 7 0;
#X connect 4 5 8 0;
#X connect 4 6 9 0;
#X connect 4 7 10 0;
#X connect 5 0 0 0;
#X connect 6 0 0 0;
#X connect 7 0 0 0;
#X connect 8 0 0 0;
#X connect 9 0 0 0;
#X connect 10 0 0 0;
#X restore 96 116 pd \$0-presets;
#X obj 96 93 hradio 15 1 0 8 empty empty empty 0 -8 0 10 -262144 -1
-1 0;
#X obj 39 283 syn.hihat~;
#X connect 1 0 10 1;
#X connect 2 0 10 1;
#X connect 3 0 10 1;
#X connect 4 0 10 0;
#X connect 5 0 3 0;
#X connect 6 0 2 0;
#X connect 7 0 1 0;
#X connect 8 0 10 1;
#X connect 9 0 8 0;
#X connect 10 0 0 0;
#X connect 10 0 0 1;
