#N canvas 346 194 442 513 10;
#X obj 46 452 dac~;
#X obj 301 25 loadbang;
#X msg 301 47 \; pd dsp 1 \;;
#X msg 170 358 tun \$1;
#X msg 156 314 nak \$1;
#X msg 147 268 mix \$1;
#X msg 135 227 dec \$1;
#X msg 123 184 vol \$1;
#X floatatom 123 165 5 0 100 0 - - -, f 5;
#X floatatom 147 250 5 0 100 0 - - -, f 5;
#X floatatom 156 295 5 0 100 0 - - -, f 5;
#X floatatom 135 208 5 0 100 0 - - -, f 5;
#X floatatom 170 338 5 0 100 0 - - -, f 5;
#X obj 48 31 bng 50 250 50 0 empty empty empty 17 7 0 10 -258113 -1
-1;
#N canvas 805 193 395 383 \$0-presets 1;
#X obj 27 308 outlet;
#X obj 27 19 inlet;
#X msg 27 73 vol 80 \, dec 20 \, mix 50 \, nak 40 \, tun 10;
#X obj 27 47 sel 0 1 2 3 4 5 6 7;
#X msg 68 148 vol 80 \, dec 60 \, mix 5 \, nak 70 \, tun 20;
#X msg 82 172 vol 90 \, dec 80 \, mix 70 \, nak 20 \, tun 11;
#X msg 96 198 vol 80 \, dec 10 \, mix 90 \, nak 90 \, tun 17;
#X msg 54 123 vol 100 \, dec 10 \, mix 70 \, nak 30 \, tun 7;
#X msg 40 98 vol 75 \, dec 40 \, mix 30 \, nak 90 \, tun 15;
#X msg 110 223 vol 80 \, dec 20 \, mix 50 \, nak 40 \, tun 113;
#X msg 124 247 vol 80 \, dec 10 \, mix 80 \, nak 90 \, tun 15;
#X connect 1 0 3 0;
#X connect 2 0 0 0;
#X connect 3 0 2 0;
#X connect 3 1 8 0;
#X connect 3 2 7 0;
#X connect 3 3 4 0;
#X connect 3 4 5 0;
#X connect 3 5 6 0;
#X connect 3 6 9 0;
#X connect 3 7 10 0;
#X connect 4 0 0 0;
#X connect 5 0 0 0;
#X connect 6 0 0 0;
#X connect 7 0 0 0;
#X connect 8 0 0 0;
#X connect 9 0 0 0;
#X connect 10 0 0 0;
#X restore 105 134 pd \$0-presets;
#X obj 105 111 hradio 15 1 0 8 empty empty empty 0 -8 0 10 -262144
-1 -1 0;
#X obj 48 397 syn.snare~;
#X text 221 358 <-- tuning;
#X text 208 313 <-- knack;
#X text 194 267 <-- mix;
#X text 188 228 <-- decay;
#X text 173 183 <-- volume;
#X connect 1 0 2 0;
#X connect 3 0 16 1;
#X connect 4 0 16 1;
#X connect 5 0 16 1;
#X connect 6 0 16 1;
#X connect 7 0 16 1;
#X connect 8 0 7 0;
#X connect 9 0 5 0;
#X connect 10 0 4 0;
#X connect 11 0 6 0;
#X connect 12 0 3 0;
#X connect 13 0 16 0;
#X connect 14 0 16 1;
#X connect 15 0 14 0;
#X connect 16 0 0 0;
#X connect 16 0 0 1;
