#N canvas 258 23 903 699 10;
#X obj 389 362 line~;
#X obj 389 385 dbtorms~;
#X obj 374 406 *~;
#X msg 389 340 \$2 \, 0 \$1;
#X obj 622 127 noise~;
#X obj 637 388 line~;
#X obj 637 411 dbtorms~;
#X obj 622 434 *~;
#X msg 637 366 \$2 \, 0 \$1;
#X obj 761 390 line~;
#X obj 761 413 dbtorms~;
#X obj 746 436 *~;
#X msg 761 368 \$2 \, 0 \$1;
#X obj 513 329 line~;
#X obj 513 352 dbtorms~;
#X obj 498 373 *~;
#X msg 513 307 \$2 \, 0 \$1;
#X obj 513 287 pack 0 100;
#X obj 498 120 * 0.560606;
#X obj 528 245 * 0.5;
#X obj 389 319 pack 0 80;
#X obj 762 348 pack 0 94;
#X obj 777 306 * 0.4;
#X obj 652 298 * 0.2;
#X obj 638 346 pack 0 94;
#X obj 389 296 f;
#X obj 375 211 osc~;
#X obj 498 182 osc~;
#X obj 513 267 f;
#X obj 622 150 lop~;
#X obj 622 171 lop~;
#X obj 637 320 f;
#X obj 746 217 hip~;
#X obj 746 239 hip~;
#X obj 762 327 f;
#X obj 673 108 exp;
#X obj 673 86 min 10;
#X obj 776 119 max 10;
#X obj 776 140 - 9;
#X obj 776 163 * 4;
#X obj 776 185 exp;
#X obj 673 62 + 6;
#X obj 517 430 * 2;
#X msg 519 455 2;
#X obj 519 477 -;
#X obj 519 499 min 1;
#X obj 767 501 min 1;
#X obj 396 190 0.25;
#X text 348 30 220-3000 log;
#X text 400 253 100-1000 lin;
#X text 767 544 0-1 lin;
#X text 679 25 0-5.5 lin;
#X obj 348 70 t b f;
#X obj 767 583 * 0.5;
#X obj 498 520 *~ 0;
#X obj 746 522 *~ 0;
#X obj 746 605 *~ 0;
#X obj 746 641 outlet~;
#X obj 123 328 s \$0-snare-tun;
#X obj 152 259 s \$0-snare-dec;
#X obj 181 190 s \$0-snare-vol;
#X obj 211 142 s \$0-snare-mix;
#X obj 348 48 r \$0-snare-tun;
#X obj 404 269 r \$0-snare-dec;
#X obj 767 561 r \$0-snare-vol;
#X obj 517 409 r \$0-snare-mix;
#X obj 123 23 inlet;
#X obj 14 23 inlet;
#X obj 240 97 s \$0-snare-nak;
#X obj 673 40 r \$0-snare-nak;
#X text 517 391 0-1 lin;
#X obj 777 285 r \$0-snare-dec;
#X obj 652 278 r \$0-snare-dec;
#X obj 528 224 r \$0-snare-dec;
#X obj 181 168 / 100;
#X obj 211 122 / 100;
#X obj 123 51 route tun dec vol mix nak;
#X obj 240 75 * 0.055;
#X obj 152 235 + 100;
#X obj 152 213 * 9;
#X obj 123 284 * 27.8;
#X obj 123 306 + 220;
#X obj 14 52 s \$0-snrhit;
#X obj 348 95 s \$0-snrhit;
#X obj 762 262 r \$0-snrhit;
#X obj 637 256 r \$0-snrhit;
#X obj 513 203 r \$0-snrhit;
#X obj 396 170 r \$0-snrhit;
#X obj 389 234 r \$0-snrhit;
#X obj 767 480 * 2;
#X obj 767 459 r \$0-snare-mix;
#X obj 519 161 0.25;
#X obj 519 141 r \$0-snrhit;
#X connect 0 0 1 0;
#X connect 1 0 2 1;
#X connect 2 0 54 0;
#X connect 3 0 0 0;
#X connect 4 0 29 0;
#X connect 5 0 6 0;
#X connect 6 0 7 1;
#X connect 7 0 55 0;
#X connect 8 0 5 0;
#X connect 9 0 10 0;
#X connect 10 0 11 1;
#X connect 11 0 55 0;
#X connect 12 0 9 0;
#X connect 13 0 14 0;
#X connect 14 0 15 1;
#X connect 15 0 54 0;
#X connect 16 0 13 0;
#X connect 17 0 16 0;
#X connect 18 0 27 0;
#X connect 19 0 28 1;
#X connect 20 0 3 0;
#X connect 21 0 12 0;
#X connect 22 0 34 1;
#X connect 23 0 31 1;
#X connect 24 0 8 0;
#X connect 25 0 20 0;
#X connect 26 0 2 0;
#X connect 27 0 15 0;
#X connect 28 0 17 0;
#X connect 29 0 30 0;
#X connect 30 0 7 0;
#X connect 30 0 32 0;
#X connect 31 0 24 0;
#X connect 32 0 33 0;
#X connect 33 0 11 0;
#X connect 34 0 21 0;
#X connect 35 0 30 1;
#X connect 35 0 29 1;
#X connect 36 0 35 0;
#X connect 37 0 38 0;
#X connect 38 0 39 0;
#X connect 39 0 40 0;
#X connect 40 0 32 1;
#X connect 40 0 33 1;
#X connect 41 0 36 0;
#X connect 41 0 37 0;
#X connect 42 0 44 1;
#X connect 42 0 43 0;
#X connect 43 0 44 0;
#X connect 44 0 45 0;
#X connect 45 0 54 1;
#X connect 46 0 55 1;
#X connect 47 0 26 1;
#X connect 52 0 83 0;
#X connect 52 1 26 0;
#X connect 52 1 18 0;
#X connect 53 0 56 1;
#X connect 54 0 56 0;
#X connect 55 0 56 0;
#X connect 56 0 57 0;
#X connect 62 0 52 0;
#X connect 63 0 25 1;
#X connect 64 0 53 0;
#X connect 65 0 42 0;
#X connect 66 0 76 0;
#X connect 67 0 82 0;
#X connect 69 0 41 0;
#X connect 71 0 22 0;
#X connect 72 0 23 0;
#X connect 73 0 19 0;
#X connect 74 0 60 0;
#X connect 75 0 61 0;
#X connect 76 0 80 0;
#X connect 76 1 79 0;
#X connect 76 2 74 0;
#X connect 76 3 75 0;
#X connect 76 4 77 0;
#X connect 77 0 68 0;
#X connect 78 0 59 0;
#X connect 79 0 78 0;
#X connect 80 0 81 0;
#X connect 81 0 58 0;
#X connect 84 0 34 0;
#X connect 85 0 31 0;
#X connect 86 0 28 0;
#X connect 87 0 47 0;
#X connect 88 0 25 0;
#X connect 89 0 46 0;
#X connect 90 0 89 0;
#X connect 91 0 27 1;
#X connect 92 0 91 0;
