#N canvas 16 376 499 444 10;
#N canvas 0 25 801 658 delay-writer 0;
#X obj 59 73 inlet~;
#X obj 225 592 outlet~;
#X obj 250 308 +~;
#X obj 107 73 inlet;
#X obj 371 172 hip~ 5;
#X obj 373 259 *~ 3;
#X obj 371 152 lop~ 1000;
#X obj 371 133 *~ 0.015;
#X obj 108 229 hip~ 5;
#X obj 109 265 clip~ -1 1;
#X obj 373 284 clip~ -1 1;
#X obj 110 483 *~ 0.11;
#X obj 374 483 *~ 400;
#X obj 229 73 inlet muting;
#X obj 365 50 block~ 1;
#X obj 226 551 *~ 1;
#X text 17 211 string;
#X text 427 340 it recirculates;
#X text 457 483 output mostly comes from the body;
#X text 461 130 much more energy passed to string than to body;
#X text 622 209 body formant;
#X obj 107 105 delread~ \$0-stringdel1;
#X obj 249 340 delwrite~ \$0-stringdel1 1000;
#X obj 108 166 *~ 0.989;
#X obj 108 196 lop~ 1000;
#X obj 292 212 bp~ 357 50;
#X obj 372 210 bp~ 582 50;
#X obj 450 210 bp~ 721 50;
#X obj 535 211 bp~ 943 50;
#X obj 214 212 bp~ 205 50;
#X connect 0 0 23 0;
#X connect 2 0 22 0;
#X connect 3 0 21 0;
#X connect 4 0 25 0;
#X connect 4 0 26 0;
#X connect 4 0 27 0;
#X connect 4 0 28 0;
#X connect 4 0 29 0;
#X connect 5 0 10 0;
#X connect 6 0 4 0;
#X connect 7 0 6 0;
#X connect 8 0 9 0;
#X connect 9 0 11 0;
#X connect 9 0 2 0;
#X connect 10 0 2 1;
#X connect 10 0 12 0;
#X connect 11 0 15 0;
#X connect 12 0 15 0;
#X connect 13 0 23 1;
#X connect 15 0 1 0;
#X connect 21 0 7 0;
#X connect 21 0 23 0;
#X connect 23 0 24 0;
#X connect 24 0 8 0;
#X connect 25 0 5 0;
#X connect 26 0 5 0;
#X connect 27 0 5 0;
#X connect 28 0 5 0;
#X connect 29 0 5 0;
#X restore 154 365 pd delay-writer;
#X obj 199 300 expr 1000/$f1;
#X obj 199 281 mtof;
#N canvas 159 65 371 300 gopluckyourself 0;
#X obj 138 238 *~;
#X obj 61 144 hip~ 5;
#X obj 157 136 vline~;
#X obj 152 161 *~;
#X msg 157 115 1 1 0 \, 0 9 1;
#X obj 208 6 inlet bang;
#X obj 139 261 outlet~;
#X obj 262 244 switch~;
#X obj 262 225 tgl 15 0 empty empty empty 0 -6 0 10 -262144 -1 -1 0
1;
#X msg 247 191 1;
#X msg 278 191 0;
#X floatatom 278 153 5 0 0 0 - - -, f 5;
#X obj 278 171 sel 0;
#X obj 208 28 t b b b;
#X obj 61 124 lop~ 12000;
#X obj 61 104 clip~ -0.3 0.3;
#X obj 31 30 noise~;
#X obj 30 56 expr~ if ($v1 == 0 \, 0 \, (if ($v1 < 0 \, -1 \, 1)))
;
#X text 77 39 TOTAL DISTORTION;
#X msg 278 109 1 0 \, 0 15;
#X obj 278 134 line 1 15;
#X connect 0 0 6 0;
#X connect 1 0 0 0;
#X connect 2 0 3 0;
#X connect 2 0 3 1;
#X connect 3 0 0 1;
#X connect 4 0 2 0;
#X connect 5 0 13 0;
#X connect 8 0 7 0;
#X connect 9 0 8 0;
#X connect 10 0 8 0;
#X connect 11 0 12 0;
#X connect 12 0 10 0;
#X connect 13 0 19 0;
#X connect 13 1 4 0;
#X connect 13 2 9 0;
#X connect 14 0 1 0;
#X connect 15 0 14 0;
#X connect 16 0 17 0;
#X connect 17 0 15 0;
#X connect 19 0 20 0;
#X connect 20 0 11 0;
#X restore 203 111 pd gopluckyourself;
#X obj 130 15 inlet note;
#X obj 155 401 outlet~;
#X obj 57 195 tgl 15 0 empty empty empty 0 -6 0 10 -262144 -1 -1 1
1;
#X msg 42 161 1;
#X msg 73 161 0;
#X floatatom 74 126 5 0 0 0 - - -, f 5;
#X obj 73 142 sel 0;
#X obj 57 215 switch~ 16;
#X msg 74 88 1 0 \, 0 15000;
#X obj 74 107 line 1 15000;
#N canvas 203 43 416 341 pick-position 0;
#X obj 126 20 inlet~;
#X obj 125 266 outlet~;
#X obj 216 19 inlet position;
#X obj 126 215 -~;
#X obj 60 20 inlet bang;
#X obj 41 225 tgl 15 0 empty empty empty 0 -6 0 10 -262144 -1 -1 0
1;
#X msg 36 180 1;
#X msg 67 180 0;
#X floatatom 76 134 5 0 0 0 - - -, f 5;
#X obj 76 152 sel 0;
#X obj 46 63 t b b;
#X msg 76 96 1 0 \, 0 40;
#X obj 76 115 line 1 40;
#X obj 41 246 switch~ 16;
#X obj 188 86 delwrite~ \$0-pick-position 100;
#X obj 186 115 delread~ \$0-pick-position 3;
#X connect 0 0 3 0;
#X connect 0 0 14 0;
#X connect 2 0 15 0;
#X connect 3 0 1 0;
#X connect 4 0 10 0;
#X connect 5 0 13 0;
#X connect 6 0 5 0;
#X connect 7 0 5 0;
#X connect 8 0 9 0;
#X connect 9 0 7 0;
#X connect 10 0 11 0;
#X connect 10 1 6 0;
#X connect 11 0 12 0;
#X connect 12 0 8 0;
#X connect 15 0 3 1;
#X restore 157 261 pd pick-position;
#X obj 130 40 t b b b f b;
#X text 306 298 pick position delay in ms;
#X obj 294 152 loadbang;
#X obj 250 239 / 4;
#X obj 250 153 t b f;
#X msg 294 172 28;
#X obj 294 191 mtof;
#X obj 294 210 expr 1000/$f1;
#X obj 250 132 r \$0-pick-location;
#X obj 241 343 / 100;
#X obj 252 36 route mute pick;
#X obj 295 59 s \$0-pick-location;
#X obj 252 82 s \$0-muting;
#X obj 241 322 r \$0-muting;
#X obj 252 12 inlet;
#X connect 0 0 5 0;
#X connect 1 0 0 1;
#X connect 2 0 1 0;
#X connect 3 0 14 1;
#X connect 4 0 15 0;
#X connect 6 0 11 0;
#X connect 7 0 6 0;
#X connect 8 0 6 0;
#X connect 9 0 10 0;
#X connect 10 0 8 0;
#X connect 12 0 13 0;
#X connect 13 0 9 0;
#X connect 14 0 0 0;
#X connect 15 0 12 0;
#X connect 15 1 3 0;
#X connect 15 2 14 0;
#X connect 15 3 2 0;
#X connect 15 4 7 0;
#X connect 17 0 20 0;
#X connect 18 0 14 2;
#X connect 19 0 18 0;
#X connect 19 1 18 1;
#X connect 20 0 21 0;
#X connect 21 0 22 0;
#X connect 22 0 18 0;
#X connect 23 0 19 0;
#X connect 24 0 0 2;
#X connect 25 0 27 0;
#X connect 25 1 26 0;
#X connect 28 0 24 0;
#X connect 29 0 25 0;
