#N canvas 774 300 230 190 10;
#X obj 30 14 bng 15 250 50 0 empty empty empty 0 -6 0 8 -241291 -1
-1;
#X obj 22 135 dac~;
#X obj 30 108 *~ 0;
#X obj 63 94 hsl 128 15 0 1 0 0 empty empty Volume_0-1 -2 -6 0 8 -262144
-1 -1 0 1;
#X obj 30 34 syn.kick.min~;
#X connect 0 0 4 0;
#X connect 2 0 1 0;
#X connect 2 0 1 1;
#X connect 3 0 2 1;
#X connect 4 0 2 0;
