#N canvas 532 300 219 218 10;
#X obj 133 75 line~;
#X obj 25 146 *~;
#X msg 133 51 1 \, 0 50;
#X obj 25 115 osc~;
#X obj 25 77 line~;
#X obj 25 10 inlet;
#X obj 25 177 outlet~;
#X msg 25 54 80 \, 40 20;
#X msg 95 53 0.5;
#X connect 0 0 1 1;
#X connect 1 0 6 0;
#X connect 2 0 0 0;
#X connect 3 0 1 0;
#X connect 4 0 3 0;
#X connect 5 0 2 0;
#X connect 5 0 8 0;
#X connect 5 0 7 0;
#X connect 7 0 4 0;
#X connect 8 0 3 1;
