#N canvas 477 140 911 697 10;
#X obj 33 102 zexy/date, f 24;
#X obj 33 23 inlet;
#X obj 102 587 outlet;
#X obj 33 51 t b b;
#X obj 331 96 zexy/time UTC, f 14;
#X obj 220 179 makefilename 0%s;
#X obj 100 353 makefilename;
#X msg 100 374 set %s-\$1;
#X obj 437 296 makefilename;
#X obj 99 395 makefilename;
#X obj 376 362 makefilename;
#X msg 437 316 set %s:\$1;
#X obj 550 156 moses 10;
#X obj 438 204 moses 10;
#X obj 550 178 makefilename 0%s;
#X obj 438 224 makefilename 0%s;
#X obj 331 224 moses 10;
#X obj 331 244 makefilename 0%s;
#X obj 220 158 moses 10;
#X msg 220 200 set %s-\$1;
#X obj 103 181 moses 10;
#X obj 103 201 makefilename 0%s;
#X obj 102 564 makefilename;
#X msg 113 541 set %sT\$1Z;
#X obj 331 202 % 24;
#X obj 469 24 inlet;
#X obj 331 181 +;
#X obj 469 45 route offset;
#X obj 469 66 route hour minute second;
#X obj 438 162 % 60;
#X obj 438 143 +;
#X obj 438 182 abs;
#X msg 550 199 set %s:\$1.000;
#X connect 0 0 9 0;
#X connect 0 1 20 0;
#X connect 0 2 18 0;
#X connect 1 0 3 0;
#X connect 3 0 0 0;
#X connect 3 1 4 0;
#X connect 4 0 26 0;
#X connect 4 1 30 0;
#X connect 4 2 12 0;
#X connect 5 0 19 0;
#X connect 6 0 7 0;
#X connect 7 0 9 0;
#X connect 8 0 11 0;
#X connect 9 0 22 0;
#X connect 10 0 23 0;
#X connect 11 0 10 0;
#X connect 12 0 14 0;
#X connect 12 1 32 0;
#X connect 13 0 15 0;
#X connect 13 1 8 0;
#X connect 14 0 32 0;
#X connect 15 0 8 0;
#X connect 16 0 17 0;
#X connect 16 1 10 0;
#X connect 17 0 10 0;
#X connect 18 0 5 0;
#X connect 18 1 19 0;
#X connect 19 0 6 0;
#X connect 20 0 21 0;
#X connect 20 1 6 0;
#X connect 21 0 6 0;
#X connect 22 0 2 0;
#X connect 23 0 22 0;
#X connect 24 0 16 0;
#X connect 25 0 27 0;
#X connect 26 0 24 0;
#X connect 27 0 28 0;
#X connect 28 0 26 1;
#X connect 28 1 30 1;
#X connect 29 0 31 0;
#X connect 30 0 29 0;
#X connect 31 0 13 0;
#X connect 32 0 8 0;
