#N canvas 680 148 477 453 10;
#X obj 36 102 gemframebuffer;
#X obj 36 124 translateXYZ 0 0 -4;
#X obj 233 352 pix_rtx;
#X obj 36 187 pix_texture;
#X obj 36 247 square 4;
#X obj 36 313 pix_snap;
#X obj 81 270 loadbang;
#X msg 36 288 snap;
#X obj 36 378 pix_buffer_write \$0-depot;
#X obj 50 58 loadbang;
#X obj 233 245 pix_buffer_read \$0-depot;
#X obj 233 152 gemhead 51;
#X obj 36 217 rotateXYZ 0 0 0;
#X msg 183 357 0;
#X obj 36 402 pix_buffer \$0-depot 1;
#X msg 375 224 0;
#X obj 36 335 trigger anything bang;
#X msg 81 292 256 256;
#X msg 50 78 dimen 256 256;
#X obj 36 268 t b a;
#X obj 233 174 t a b;
#X obj 36 34 inlet;
#X obj 233 403 outlet;
#X obj 226 37 inlet;
#X obj 226 58 route rotate;
#X msg 339 314 set;
#X msg 256 314 mode \$1;
#X obj 256 294 tgl 15 0 empty empty empty 0 -6 0 8 -262144 -1 -1 1
1;
#X connect 0 0 1 0;
#X connect 1 0 3 0;
#X connect 2 0 22 0;
#X connect 3 0 12 0;
#X connect 4 0 19 0;
#X connect 5 0 16 0;
#X connect 6 0 17 0;
#X connect 7 0 5 0;
#X connect 9 0 18 0;
#X connect 10 0 2 0;
#X connect 11 0 20 0;
#X connect 12 0 4 0;
#X connect 13 0 8 1;
#X connect 15 0 10 1;
#X connect 16 0 8 0;
#X connect 16 1 13 0;
#X connect 17 0 5 2;
#X connect 18 0 0 0;
#X connect 19 0 7 0;
#X connect 19 1 5 0;
#X connect 20 0 10 0;
#X connect 20 1 15 0;
#X connect 21 0 0 0;
#X connect 23 0 24 0;
#X connect 24 0 12 3;
#X connect 25 0 2 0;
#X connect 26 0 2 0;
#X connect 27 0 26 0;
