#N canvas 584 79 835 736 10;
#X obj 104 175 pix_gain;
#X obj 167 131 delay 20;
#X msg 167 151 1;
#X obj 212 110 + 20;
#X obj 126 88 random 100;
#X obj 126 109 - 100;
#X obj 212 89 random 200;
#X obj 318 205 pix_scanline;
#X msg 330 147 mode \$1;
#X obj 387 161 random 5;
#X obj 330 126 random 2;
#X obj 446 140 delay 20;
#X msg 446 160 1;
#X obj 491 99 random 200;
#X obj 491 120 + 40;
#X obj 416 439 pix_roll;
#X obj 461 566 pix_rds;
#X obj 462 595 pix_lumaoffset;
#X obj 517 565 pix_invert;
#X obj 387 61 r \$0-master;
#X obj 166 61 r \$0-master;
#X obj 18 13 inlet;
#X obj 15 593 outlet;
#X obj 104 60 r \$0-1;
#X obj 18 41 s \$0-1;
#X obj 104 197 s \$0-2;
#X obj 318 228 s \$0-3;
#X obj 317 61 r \$0-2;
#X floatatom 463 407 5 0 0 2 roll - -, f 5;
#X msg 431 371 axis \$1;
#X obj 431 349 random 2;
#X obj 415 467 s \$0-4;
#X obj 416 286 r \$0-3;
#X obj 16 563 r \$0-4;
#X obj 541 259 r \$0-master;
#X obj 550 438 line;
#X obj 541 357 pack 0 0;
#X msg 541 382 \$1 \$2;
#X obj 586 335 random 200;
#X obj 541 290 t b b;
#X obj 667 368 delay 20;
#X obj 712 327 random 200;
#X obj 712 348 + 200;
#X msg 667 388 0 100;
#X obj 541 312 random 100;
#X obj 541 334 - 50;
#X obj 657 58 s \$0-master;
#X obj 668 31 inlet;
#X obj 268 406 f;
#X obj 303 402 + 1;
#X text 194 405 counter ->;
#X text 333 347 <--reset;
#X msg 301 349 0;
#X obj 255 276 bng 15 250 50 0 empty empty empty 17 7 0 10 -262144
-1 -1;
#X floatatom 283 474 5 0 0 0 - - -, f 5;
#X floatatom 126 252 5 0 0 0 - - -, f 5;
#X obj 285 529 - 50;
#X floatatom 277 583 5 0 0 0 - - -, f 5;
#X connect 0 0 25 0;
#X connect 1 0 2 0;
#X connect 2 0 0 1;
#X connect 3 0 1 1;
#X connect 4 0 5 0;
#X connect 5 0 0 1;
#X connect 6 0 3 0;
#X connect 7 0 26 0;
#X connect 8 0 7 0;
#X connect 9 0 7 1;
#X connect 10 0 8 0;
#X connect 11 0 12 0;
#X connect 12 0 7 1;
#X connect 13 0 14 0;
#X connect 14 0 11 1;
#X connect 15 0 31 0;
#X connect 19 0 13 0;
#X connect 19 0 11 0;
#X connect 19 0 9 0;
#X connect 19 0 10 0;
#X connect 20 0 6 0;
#X connect 20 0 1 0;
#X connect 20 0 4 0;
#X connect 21 0 24 0;
#X connect 23 0 0 0;
#X connect 27 0 7 0;
#X connect 28 0 15 1;
#X connect 29 0 15 0;
#X connect 30 0 29 0;
#X connect 32 0 15 0;
#X connect 33 0 22 0;
#X connect 34 0 30 0;
#X connect 34 0 39 0;
#X connect 34 0 41 0;
#X connect 34 0 40 0;
#X connect 35 0 28 0;
#X connect 36 0 37 0;
#X connect 37 0 35 0;
#X connect 38 0 36 1;
#X connect 39 0 44 0;
#X connect 39 1 38 0;
#X connect 40 0 43 0;
#X connect 41 0 42 0;
#X connect 42 0 40 1;
#X connect 43 0 35 0;
#X connect 44 0 45 0;
#X connect 45 0 36 0;
#X connect 47 0 46 0;
#X connect 48 0 49 0;
#X connect 48 0 54 0;
#X connect 49 0 48 1;
#X connect 52 0 48 1;
#X connect 53 0 48 0;
#X connect 54 0 56 0;
#X connect 55 0 0 1;
#X connect 56 0 57 0;
