#N canvas 722 23 556 412 10;
#X obj 104 66 gemhead;
#X obj 282 123 gemwin;
#X msg 283 65 dimen 640 480 \, create \, 1;
#X msg 293 91 0 \, destroy;
#X obj 103 290 pix_texture;
#X obj 103 312 rectangle 5.3 4;
#X obj 170 237 bng 15 250 50 0 empty empty empty 17 7 0 10 -262144
-1 -1;
#X obj 103 260 vfx.glitch;
#X obj 103 199 pix_image;
#X obj 130 105 bng 15 250 50 0 empty empty empty 0 -6 0 8 -262144 -1
-1;
#N canvas 0 22 450 300 openpanel 0;
#X obj 114 62 inlet;
#X obj 121 254 outlet;
#X obj 114 125 openpanel;
#X msg 114 162 set open \$1;
#X obj 114 199 t b a;
#X connect 0 0 2 0;
#X connect 2 0 3 0;
#X connect 3 0 4 0;
#X connect 4 0 1 0;
#X connect 4 1 1 0;
#X restore 130 126 pd openpanel;
#X msg 130 154 open /Users/megrimm/Desktop/3.png;
#X connect 0 0 8 0;
#X connect 2 0 1 0;
#X connect 3 0 1 0;
#X connect 4 0 5 0;
#X connect 6 0 7 1;
#X connect 7 0 4 0;
#X connect 8 0 7 0;
#X connect 9 0 10 0;
#X connect 10 0 11 0;
#X connect 11 0 8 0;
