#N canvas 737 309 504 462 10;
#X obj 204 43 gemhead;
#X obj 203 392 rectangle 5.5 4;
#X obj 20 85 gemwin;
#X msg 20 44 dimen 720 480 \, create \, 1;
#X obj 203 307 vfx.gain;
#X msg 45 64 0 \, destroy;
#X obj 203 370 pix_texture;
#X msg 248 184 rand 100;
#X floatatom 270 208 5 0 0 0 - - -, f 5;
#X msg 278 266 smoothing;
#X floatatom 278 248 5 0 0 0 - - -, f 5;
#X msg 270 226 gain \$1;
#X obj 204 123 pix_image;
#X obj 284 42 bng 15 250 50 0 empty empty empty 0 -6 0 8 -262144 -1
-1;
#N canvas 0 22 450 300 openpanel 0;
#X obj 114 62 inlet;
#X obj 121 254 outlet;
#X obj 114 125 openpanel;
#X msg 114 162 set open \$1;
#X obj 114 199 t b a;
#X connect 0 0 2 0;
#X connect 2 0 3 0;
#X connect 3 0 4 0;
#X connect 4 0 1 0;
#X connect 4 1 1 0;
#X restore 284 63 pd openpanel;
#X msg 284 86 open /Users/megrimm/Desktop/3.png;
#X connect 0 0 12 0;
#X connect 3 0 2 0;
#X connect 4 0 6 0;
#X connect 5 0 2 0;
#X connect 6 0 1 0;
#X connect 7 0 4 1;
#X connect 8 0 11 0;
#X connect 9 0 4 1;
#X connect 10 0 9 0;
#X connect 11 0 4 1;
#X connect 12 0 4 0;
#X connect 13 0 14 0;
#X connect 14 0 15 0;
#X connect 15 0 12 0;
