#N canvas 720 55 711 656 10;
#X obj 19 23 gemhead;
#X obj 19 504 pix_texture;
#X msg 58 172 play;
#X obj 280 24 tgl 15 0 empty empty empty 17 7 0 10 -262144 -1 -1 0
1;
#X text 122 502 <-- writes video to a texture;
#X text 166 532 <-- write texture to a rectangle;
#X text 434 49 <-- hit "esc" to open/resize window;
#X text 309 23 <-- toggle for second monitor in fullscreen;
#X text 282 146 <-- open a file and play immediately;
#X text 73 21 <-- begins the rendering chain;
#X text 99 170 <-- play / loop the file;
#X msg 29 119 open;
#X obj 104 466 dac~;
#X msg 69 195 stop;
#X text 104 194 <-- stop the file/loop from playing;
#X msg 82 240 loop \$1;
#X obj 82 220 tgl 15 0 empty empty empty 17 7 0 10 -262144 -1 -1 0
1;
#X obj 110 393 / 100;
#X msg 94 286 slice \$1;
#X obj 94 266 tgl 15 0 empty empty empty 17 7 0 10 -262144 -1 -1 0
1;
#X text 132 238 <-- loop the file indefinitely;
#X text 157 283 <-- random loop slicer;
#X msg 112 309 30;
#X msg 119 328 40;
#X msg 110 415 jump \$1;
#X text 146 308 <-- just to a point (by % of sample length);
#X text 18 559 (c)2013 \, megrimm;
#X obj 280 75 loadbang;
#X msg 280 95 \; pd dsp 1 \;;
#X obj 19 530 rectangle 7.11 4;
#X obj 280 51 vid.window 720 480;
#X obj 19 439 vid.player~;
#X msg 46 147 load _samples/anim.mov \, play;
#X text 191 558 seperate and compress video via ffmpeg (photo-jpeg
& wav);
#X text 192 575 $ ffmpeg -i input.mp4 -an -pix_fmt yuvj420p -vcodec
mjpeg -f mov -y export.mov -acodec pcm_s16le -ac 2 -y export.wav;
#N canvas 707 266 472 502 morecontrol 0;
#N canvas 1088 349 320 360 sequencer 0;
#X obj 71 112 sel 0 1 2 3 4 5 6 7;
#X floatatom 123 18 5 0 0 0 - - -, f 5;
#X obj 72 68 f;
#X obj 101 67 + 1;
#X obj 72 91 mod 8;
#X obj 72 39 metro 550;
#X msg 96 189 20;
#X obj 100 326 outlet;
#X obj 73 13 inlet;
#X msg 71 159 50;
#X msg 138 183 70;
#X msg 177 210 10;
#X msg 197 176 40;
#X msg 221 215 30;
#X msg 246 187 90;
#X msg 268 218 60;
#X obj 196 33 inlet;
#X connect 0 0 9 0;
#X connect 0 1 6 0;
#X connect 0 2 10 0;
#X connect 0 3 11 0;
#X connect 0 4 12 0;
#X connect 0 5 13 0;
#X connect 0 6 14 0;
#X connect 0 7 15 0;
#X connect 1 0 5 1;
#X connect 2 0 3 0;
#X connect 2 0 4 0;
#X connect 3 0 2 1;
#X connect 4 0 0 0;
#X connect 5 0 2 0;
#X connect 6 0 7 0;
#X connect 8 0 5 0;
#X connect 9 0 7 0;
#X connect 10 0 7 0;
#X connect 11 0 7 0;
#X connect 12 0 7 0;
#X connect 13 0 7 0;
#X connect 14 0 7 0;
#X connect 15 0 7 0;
#X connect 16 0 5 1;
#X restore 73 112 pd sequencer;
#X obj 73 92 tgl 15 0 empty empty empty 17 7 0 10 -262144 -1 -1 1 1
;
#N canvas 140 267 267 266 metrojump 0;
#X obj -1166 127 f;
#X obj -1133 126 + 1;
#X obj -1166 148 / 100;
#X obj -1166 107 metro 500;
#X floatatom -1115 83 5 0 0 0 - - -, f 5;
#X obj -1115 59 line;
#X msg -1098 37 10 \, 1000 100000;
#X msg -1115 17 1000 \, 10 100000;
#X obj -1166 191 outlet;
#X obj -1166 18 inlet;
#X obj -969 15 inlet;
#X connect 0 0 1 0;
#X connect 0 0 2 0;
#X connect 1 0 0 1;
#X connect 2 0 8 0;
#X connect 3 0 0 0;
#X connect 4 0 3 1;
#X connect 5 0 4 0;
#X connect 6 0 5 0;
#X connect 7 0 5 0;
#X connect 9 0 3 0;
#X connect 10 0 0 1;
#X restore 70 49 pd metrojump;
#X obj 70 31 tgl 15 0 empty empty empty 17 7 0 10 -262144 -1 -1 0 1
;
#X floatatom 75 71 5 0 0 0 - - -, f 5;
#X obj 279 130 + 1;
#X obj 253 86 bng 15 250 50 0 empty empty empty 17 7 0 10 -262144 -1
-1;
#X obj 279 109 random 1000;
#X obj 279 152 / 10;
#X msg 139 26 2500;
#X msg 173 26 3500;
#X obj 279 47 snd.bonk~;
#X obj 279 25 adc~;
#X obj 279 87 spigot;
#X obj 312 68 tgl 15 0 empty empty empty 17 7 0 10 -262144 -1 -1 0
1;
#X obj 73 284 +;
#X floatatom 100 266 5 0 0 0 - - -, f 5;
#X obj 27 339 outlet;
#X obj 94 226 f;
#X obj 127 225 + 1;
#X obj 94 209 t b;
#X floatatom 167 89 5 0 0 0 - - -, f 5;
#X obj 154 169 tgl 15 0 empty empty empty 17 7 0 10 -262144 -1 -1 0
1;
#X obj 94 188 spigot 0;
#X obj 94 245 / 1000;
#X connect 0 0 15 0;
#X connect 0 0 23 0;
#X connect 1 0 0 0;
#X connect 2 0 4 0;
#X connect 2 0 17 0;
#X connect 3 0 2 0;
#X connect 5 0 8 0;
#X connect 6 0 7 0;
#X connect 7 0 5 0;
#X connect 8 0 17 0;
#X connect 9 0 2 1;
#X connect 10 0 2 1;
#X connect 11 0 13 0;
#X connect 12 0 11 0;
#X connect 12 1 11 0;
#X connect 13 0 7 0;
#X connect 14 0 13 1;
#X connect 15 0 17 0;
#X connect 18 0 19 0;
#X connect 18 0 24 0;
#X connect 19 0 18 1;
#X connect 20 0 18 0;
#X connect 21 0 0 1;
#X connect 22 0 23 1;
#X connect 23 0 20 0;
#X connect 24 0 16 0;
#X connect 24 0 15 1;
#X restore 131 368 pd morecontrol;
#X msg 127 346 90;
#X connect 0 0 31 0;
#X connect 1 0 29 0;
#X connect 2 0 31 0;
#X connect 3 0 30 0;
#X connect 11 0 31 0;
#X connect 13 0 31 0;
#X connect 15 0 31 0;
#X connect 16 0 15 0;
#X connect 17 0 24 0;
#X connect 18 0 31 0;
#X connect 19 0 18 0;
#X connect 22 0 17 0;
#X connect 23 0 17 0;
#X connect 24 0 31 0;
#X connect 27 0 28 0;
#X connect 31 0 1 0;
#X connect 31 1 12 0;
#X connect 31 1 12 1;
#X connect 32 0 31 0;
#X connect 35 0 17 0;
#X connect 36 0 17 0;
