#N canvas 694 41 598 779 10;
#X obj 122 71 gemhead;
#X obj 300 128 gemwin;
#X msg 301 70 dimen 640 480 \, create \, 1;
#X msg 311 96 0 \, destroy;
#X obj 104 689 pix_texture;
#X obj 104 711 rectangle 5.3 4;
#X obj 302 172 bng 15 250 50 0 empty empty empty 17 7 0 10 -262144
-1 -1;
#X obj 122 106 pix_video;
#X obj 117 308 vid.fx.glitch;
#X connect 0 0 7 0;
#X connect 2 0 1 0;
#X connect 3 0 1 0;
#X connect 4 0 5 0;
#X connect 6 0 8 1;
#X connect 7 0 8 0;
#X connect 8 0 4 0;
