#N canvas 800 276 538 524 10;
#X obj 58 11 inlet;
#X obj 58 119 pix_image;
#X obj 58 260 pix_texture;
#X obj 57 466 rectangle;
#X obj 168 16 inlet;
#X msg 71 99 open \$1;
#X obj 58 203 pix_invert;
#X obj 58 345 rotateXYZ;
#X obj 400 57 s \$0-invert;
#X obj 65 141 r \$0-invert;
#X obj 72 78 symbol;
#X obj 261 114 s \$0-rotatex;
#X obj 307 95 s \$0-rotatey;
#X obj 354 77 s \$0-rotatez;
#X obj 75 282 r \$0-rotatex;
#X obj 92 304 r \$0-rotatey;
#X obj 109 324 r \$0-rotatez;
#X obj 201 239 pix_info, f 19;
#X obj 72 161 loadbang;
#X msg 72 180 0;
#X obj 218 338 /;
#X obj 218 310 t f f;
#X obj 218 405 *;
#X obj 281 332 /;
#X obj 289 419 *;
#X obj 168 37 route open scale rotatex rotatey rotatez invert;
#X obj 214 133 s \$0-scale;
#X obj 371 322 r \$0-scale;
#X obj 58 34 alpha;
#X obj 168 154 s \$0-openimg;
#X obj 72 58 r \$0-openimg;
#X connect 0 0 28 0;
#X connect 1 0 6 0;
#X connect 2 0 7 0;
#X connect 4 0 25 0;
#X connect 5 0 1 0;
#X connect 6 0 2 0;
#X connect 6 0 17 0;
#X connect 7 0 3 0;
#X connect 9 0 6 0;
#X connect 10 0 5 0;
#X connect 14 0 7 1;
#X connect 15 0 7 2;
#X connect 16 0 7 3;
#X connect 17 1 21 0;
#X connect 17 1 23 1;
#X connect 17 2 23 0;
#X connect 18 0 19 0;
#X connect 19 0 6 0;
#X connect 20 0 22 0;
#X connect 21 0 20 0;
#X connect 21 1 20 1;
#X connect 22 0 3 1;
#X connect 23 0 24 0;
#X connect 24 0 3 2;
#X connect 25 0 29 0;
#X connect 25 1 26 0;
#X connect 25 2 11 0;
#X connect 25 3 12 0;
#X connect 25 4 13 0;
#X connect 25 5 8 0;
#X connect 27 0 24 1;
#X connect 27 0 22 1;
#X connect 28 0 1 0;
#X connect 30 0 10 0;
