#N canvas 633 43 450 300 10;
#X obj 131 135 vid.syn.fire;
#X obj 131 35 gemhead;
#X obj 275 139 gemwin;
#X msg 274 97 dimen 640 480 \, create \, 1;
#X msg 291 120 0 \, destroy;
#X msg 200 111 speed \$1;
#X floatatom 200 91 5 0 0 0 - - -, f 5;
#X connect 1 0 0 0;
#X connect 3 0 2 0;
#X connect 4 0 2 0;
#X connect 5 0 0 1;
#X connect 6 0 5 0;
