#N canvas 0 22 492 501 10;
#X msg 75 375 record \$1;
#X obj 271 199 pack f f;
#X obj 289 169 t b f;
#X obj 154 253 pix_texture;
#X obj 154 225 pix_snap 0 0 800 600;
#X msg 258 401 auto 1;
#X obj 258 382 loadbang;
#X obj 154 85 loadbang;
#X msg 154 109 0;
#X obj 154 137 tgl 15 0 empty empty empty 17 7 0 10 -262144 -1 -1 0
1;
#X obj 75 120 t f f;
#X obj 193 333 t b a;
#X obj 154 188 t a b;
#X obj 271 119 r \$0-width;
#X obj 289 146 r \$0-height;
#X msg 193 313 set file \$1.mov;
#X obj 154 418 pix_record;
#X obj 75 92 tgl 15 0 empty empty empty 17 7 0 10 -262144 -1 -1 0 1
;
#X msg 287 223 set \$1 \$2;
#X msg 287 244 320 240;
#X obj 154 160 gemhead -1000;
#X floatatom 182 446 5 0 0 0 - - -;
#X obj 193 291 r REC-FILE;
#X obj 75 61 r REC-VIDEO;
#X msg 193 357 file 0.mov;
#X connect 0 0 16 0;
#X connect 1 0 4 2;
#X connect 1 0 18 0;
#X connect 2 0 1 0;
#X connect 2 1 1 1;
#X connect 3 0 16 0;
#X connect 4 0 3 0;
#X connect 5 0 16 0;
#X connect 6 0 5 0;
#X connect 7 0 8 0;
#X connect 8 0 9 0;
#X connect 9 0 20 0;
#X connect 10 0 0 0;
#X connect 10 1 9 0;
#X connect 11 0 24 0;
#X connect 11 1 24 0;
#X connect 12 0 4 0;
#X connect 12 1 4 0;
#X connect 13 0 1 0;
#X connect 14 0 2 0;
#X connect 15 0 11 0;
#X connect 16 1 21 0;
#X connect 17 0 10 0;
#X connect 18 0 19 0;
#X connect 20 0 12 0;
#X connect 22 0 15 0;
#X connect 23 0 17 0;
#X connect 24 0 16 0;
