#N canvas 259 96 548 727 10;
#X obj 309 424 unpack 0 0;
#X obj 124 563 s \$0-filepath;
#X obj 70 23 inlet;
#X obj 69 622 outlet;
#X obj 250 624 outlet~;
#X obj 70 57 route gem_state open;
#X obj 311 330 print;
#X text 352 330 <-- path/file loaded;
#X obj 300 280 r \$0-filepath;
#X msg 300 375 open \$1;
#X obj 300 353 symbol;
#X obj 300 305 file.swapext wav;
#X text 288 680 (c)2013 \, megrimm;
#X obj 186 274 route stop;
#X msg 127 462 pause;
#X obj 127 435 t b b;
#X obj 69 537 vid.player;
#X obj 243 401 snd.player~;
#X msg 366 446 samples \$1;
#X obj 144 103 list prepend open;
#X obj 39 199 list prepend gem_state;
#X obj 186 295 list prepend stop;
#X obj 98 394 symbol;
#X obj 80 314 symbol;
#X obj 93 350 print 1;
#X obj 199 159 print 0;
#X obj 129 325 print 2;
#X obj 144 129 list trim;
#X obj 35 230 list trim;
#X msg 217 332 stop;
#X connect 0 1 18 0;
#X connect 2 0 5 0;
#X connect 5 0 20 0;
#X connect 5 1 19 0;
#X connect 5 1 26 0;
#X connect 5 2 13 0;
#X connect 8 0 11 0;
#X connect 9 0 17 0;
#X connect 10 0 9 0;
#X connect 11 0 6 0;
#X connect 11 0 10 0;
#X connect 13 0 21 0;
#X connect 13 0 29 0;
#X connect 13 1 17 0;
#X connect 14 0 16 0;
#X connect 15 0 14 0;
#X connect 16 0 3 0;
#X connect 16 3 1 0;
#X connect 17 0 4 0;
#X connect 17 1 16 1;
#X connect 17 2 0 0;
#X connect 18 0 16 0;
#X connect 19 0 25 0;
#X connect 19 0 27 0;
#X connect 20 0 28 0;
#X connect 21 0 15 0;
#X connect 23 0 16 0;
#X connect 23 0 24 0;
#X connect 27 0 16 0;
#X connect 28 0 16 0;
#X connect 29 0 17 0;
