#N canvas 124 72 656 672 10;
#X obj 35 16 inlet;
#X obj 37 612 outlet;
#X obj 83 178 s \$0-play;
#X obj 180 132 s \$0-speed;
#X obj 326 64 s \$0-gemlist;
#X obj 131 156 s \$0-pause;
#X obj 35 199 route bang;
#X obj 35 268 openpanel;
#X obj 455 183 *;
#X obj 455 97 snapshot~;
#X obj 455 141 /;
#X obj 455 205 int;
#X obj 455 227 change;
#X obj 473 161 r \$0-frames;
#X obj 473 119 r \$0-samples;
#X obj 455 19 inlet~;
#X obj 37 319 r \$0-gemlist;
#X obj 228 109 s \$0-samples;
#X obj 467 49 r \$0-gemlist;
#X obj 467 70 t b;
#X obj 455 271 s \$0-sndctl;
#X obj 37 590 pix_image;
#X obj 35 291 s \$0-openimg;
#X obj 102 245 s \$0-openimg;
#X msg 65 562 open \$1;
#X obj 65 541 makefilename;
#X msg 65 493 set \$1%s.jpg;
#X obj 64 340 r \$0-openimg;
#X obj 73 515 r \$0-sndctl;
#X obj 64 361 list fromsymbol;
#X obj 65 472 list tosymbol;
#X obj 132 408 list length;
#X obj 64 382 t a a;
#X obj 65 451 list split;
#X obj 132 430 - 5;
#X obj 102 223 symbol;
#X obj 35 41 route open play pause speed samples frames;
#X obj 277 86 s \$0-frames;
#X obj 147 597 r \$0-sndctl;
#X obj 147 619 outlet;
#X text 453 350 (c)2017 \, megrimm;
#X floatatom 360 217 5 0 0 0 - - -, f 5;
#X floatatom 362 178 5 0 0 0 - - -, f 5;
#X floatatom 363 147 10 0 0 0 - - -, f 10;
#N canvas 0 23 537 546 play-without-sound 0;
#X obj 180 293 r \$0-frames;
#X obj 211 336 / 29.97;
#X text 324 385 fps;
#X obj 211 359 * 1000;
#X obj 86 437 int;
#X obj 99 88 r \$0-endreached;
#X obj 88 42 r \$0-play;
#X msg 88 113 start;
#X msg 115 204 pause \$1;
#X obj 115 184 tgl 15 0 empty empty empty 17 7 0 10 -262144 -1 -1 0
1;
#X obj 129 158 r \$0-pause;
#X obj 88 65 t b b;
#X msg 115 136 0;
#X obj 122 231 r \$0-speed;
#X msg 122 251 speed \$1;
#X obj 236 383 s \$0-length;
#X obj 118 437 s \$0-line;
#X obj 161 383 pack 0 0;
#X obj 179 315 t f f;
#N canvas 36 23 703 720 num.linex 0;
#X obj 357 22 inlet;
#X obj 358 641 outlet;
#X obj 131 236 s \$0-pause;
#X obj 29 26 inlet;
#X msg 369 365 stop;
#X obj 369 325 r \$0-pause;
#X obj 357 105 s \$0-length;
#X obj 434 105 s \$0-time;
#X obj 372 464 s \$0-position;
#X obj 358 397 line 0 10;
#X obj 381 154 r \$0-position;
#X obj 427 196 r \$0-position;
#X obj 515 196 r \$0-length;
#X obj 604 196 r \$0-time;
#X obj 404 175 r \$0-length;
#X obj 358 282 pack 0 0 0 0;
#X msg 358 304 \$2 \, \$3 \$4;
#X obj 369 345 sel 1;
#X obj 168 172 s \$0-speed;
#X obj 442 237 r \$0-speed;
#X obj 372 438 moses;
#X obj 399 417 r \$0-length;
#X obj 415 641 outlet;
#X obj 427 260 / 1;
#X obj 427 217 expr $f3 - ($f3 / ($f2 / $f1));
#X text 21 468 to do;
#X text 22 497 reverse line;
#X obj 141 149 t b f;
#X obj 142 214 s \$0-update;
#X obj 358 132 r \$0-update;
#X obj 56 361 s \$0-position;
#X msg 56 341 0;
#X obj 29 382 s \$0-update;
#X obj 29 321 t b b;
#X obj 104 215 sel 0;
#X obj 104 257 s \$0-update;
#X obj 141 193 del 10;
#X obj 428 38 loadbang;
#X obj 357 62 unpack 0 0;
#X msg 412 365 0;
#X obj 66 280 s \$0-stop;
#X obj 412 345 r \$0-stop;
#X obj 442 531 s \$0-end;
#X obj 442 510 spigot;
#X obj 415 489 t b b;
#X obj 39 300 r \$0-end;
#X obj 475 488 r \$0-loop;
#X obj 179 149 s \$0-loop;
#X obj 428 618 s \$0-stop;
#X obj 243 107 s \$0-position;
#X obj 216 128 s \$0-update;
#X obj 216 86 t b f;
#X obj 29 62 route start stop pause speed loop jump;
#X obj 473 552 r \$0-loop;
#X obj 473 573 == 0;
#X obj 428 62 f \$1;
#X obj 462 62 f \$2;
#X obj 428 594 spigot 1;
#X text 77 643 (c)2014 \, megrimm;
#X connect 0 0 38 0;
#X connect 3 0 52 0;
#X connect 4 0 9 0;
#X connect 5 0 17 0;
#X connect 9 0 1 0;
#X connect 9 0 20 0;
#X connect 10 0 15 1;
#X connect 11 0 24 0;
#X connect 12 0 24 1;
#X connect 13 0 24 2;
#X connect 14 0 15 2;
#X connect 15 0 16 0;
#X connect 16 0 9 0;
#X connect 17 0 4 0;
#X connect 19 0 23 1;
#X connect 20 0 8 0;
#X connect 20 1 44 0;
#X connect 21 0 20 1;
#X connect 23 0 15 3;
#X connect 24 0 23 0;
#X connect 27 0 36 0;
#X connect 27 1 18 0;
#X connect 29 0 15 0;
#X connect 31 0 30 0;
#X connect 33 0 32 0;
#X connect 33 1 31 0;
#X connect 34 0 35 0;
#X connect 34 1 2 0;
#X connect 36 0 28 0;
#X connect 37 0 55 0;
#X connect 37 0 56 0;
#X connect 38 0 6 0;
#X connect 38 1 7 0;
#X connect 39 0 9 0;
#X connect 41 0 39 0;
#X connect 43 0 42 0;
#X connect 44 0 22 0;
#X connect 44 0 57 0;
#X connect 44 1 43 0;
#X connect 45 0 33 0;
#X connect 46 0 43 1;
#X connect 51 0 50 0;
#X connect 51 1 49 0;
#X connect 52 0 33 0;
#X connect 52 1 40 0;
#X connect 52 2 34 0;
#X connect 52 3 27 0;
#X connect 52 4 47 0;
#X connect 52 5 51 0;
#X connect 53 0 54 0;
#X connect 54 0 57 1;
#X connect 55 0 6 0;
#X connect 56 0 7 0;
#X connect 57 0 48 0;
#X restore 86 407 pd num.linex;
#X text 278 337 <-- todo == variable fps;
#X msg 303 313 23.98;
#X msg 297 288 29.97;
#X connect 0 0 18 0;
#X connect 1 0 3 0;
#X connect 3 0 15 0;
#X connect 3 0 17 1;
#X connect 5 0 7 0;
#X connect 6 0 11 0;
#X connect 7 0 19 0;
#X connect 8 0 19 0;
#X connect 9 0 8 0;
#X connect 10 0 9 0;
#X connect 11 0 7 0;
#X connect 11 1 12 0;
#X connect 12 0 9 0;
#X connect 13 0 14 0;
#X connect 14 0 19 0;
#X connect 17 0 19 1;
#X connect 18 0 17 0;
#X connect 18 1 1 0;
#X connect 19 0 16 0;
#X connect 19 0 4 0;
#X connect 21 0 1 1;
#X connect 22 0 1 1;
#X restore 456 320 pd play-without-sound;
#X obj 455 249 + 1;
#X connect 0 0 36 0;
#X connect 6 0 7 0;
#X connect 6 1 35 0;
#X connect 7 0 22 0;
#X connect 8 0 11 0;
#X connect 8 0 41 0;
#X connect 9 0 10 0;
#X connect 9 0 43 0;
#X connect 10 0 8 0;
#X connect 10 0 42 0;
#X connect 11 0 12 0;
#X connect 12 0 45 0;
#X connect 13 0 8 1;
#X connect 14 0 10 1;
#X connect 15 0 9 0;
#X connect 16 0 21 0;
#X connect 18 0 19 0;
#X connect 19 0 9 0;
#X connect 21 0 1 0;
#X connect 24 0 21 0;
#X connect 25 0 24 0;
#X connect 26 0 25 0;
#X connect 27 0 29 0;
#X connect 28 0 25 0;
#X connect 29 0 32 0;
#X connect 30 0 26 0;
#X connect 31 0 34 0;
#X connect 32 0 33 0;
#X connect 32 1 31 0;
#X connect 33 0 30 0;
#X connect 34 0 33 1;
#X connect 35 0 23 0;
#X connect 36 0 6 0;
#X connect 36 1 2 0;
#X connect 36 2 5 0;
#X connect 36 3 3 0;
#X connect 36 4 17 0;
#X connect 36 5 37 0;
#X connect 36 6 4 0;
#X connect 38 0 39 0;
#X connect 45 0 20 0;
