#N canvas 623 31 735 656 10;
#X obj 48 81 gemhead;
#X obj 48 549 pix_texture;
#X obj 48 602 rectangle 5.5 4;
#X msg 85 225 play;
#X msg 94 304 speed \$1;
#X floatatom 94 282 5 0 0 0 - - -, f 5;
#X obj 335 78 tgl 15 0 empty empty empty 17 7 0 10 -262144 -1 -1 0
1;
#X obj 111 450 bng 15 250 50 0 empty empty empty 17 7 0 10 -262144
-1 -1;
#X text 155 446 <-- bangs when end is reached;
#X text 148 547 <-- writes video to a texture;
#X text 151 600 <-- write texture to a rectangle;
#X text 464 102 <-- hit "esc" to open/resize window;
#X text 461 72 <-- toggle for second monitor in fullscreen;
#X text 279 198 <-- open a file and play immediately;
#X text 237 161 <-- open a file from local filename;
#X text 102 79 <-- begins the rendering chain;
#X text 126 223 <-- play / loop the file;
#X text 124 246 <-- stop the file/loop from playing;
#X text 135 278 <-- changes the speed of playback;
#X msg 56 139 open;
#X text 44 28 A [line] based pix_film player.;
#X msg 86 250 pause;
#X floatatom 59 504 5 0 0 0 - - -, f 5;
#X text 96 501 <-- number of frames;
#X msg 63 176 open _samples/anim.mov;
#X msg 73 200 open _samples/anim.mov \, play;
#X obj 121 400 print;
#X text 162 400 <-- path/file loaded;
#X floatatom 91 575 5 0 0 0 - - -, f 5;
#X floatatom 141 572 5 0 0 0 - - -, f 5;
#X obj 335 105 vid.window 854 480;
#X obj 59 478 unpack 0 0 0;
#X obj 48 366 vid.play.film;
#X connect 0 0 32 0;
#X connect 1 0 2 0;
#X connect 3 0 32 0;
#X connect 4 0 32 0;
#X connect 5 0 4 0;
#X connect 6 0 30 0;
#X connect 19 0 32 0;
#X connect 21 0 32 0;
#X connect 24 0 32 0;
#X connect 25 0 32 0;
#X connect 28 0 2 1;
#X connect 29 0 2 2;
#X connect 31 0 22 0;
#X connect 32 0 1 0;
#X connect 32 1 31 0;
#X connect 32 2 7 0;
#X connect 32 3 26 0;
