#N canvas 667 103 1055 912 10;
#X obj 7 65 cnv 15 450 100 empty empty empty 20 12 0 14 -233017 -66577
0;
#X obj 8 219 cnv 15 450 210 empty empty empty 20 12 0 14 -233017 -66577
0;
#X text 9 221 Inlets:;
#X obj 8 172 cnv 15 450 40 empty empty empty 20 12 0 14 -195568 -66577
0;
#X text 17 171 Arguments:;
#X text 27 233 Inlet 1: gemlist;
#X text 9 398 Outlets:;
#X text 21 411 Outlet 1: gemlist;
#X text 27 293 Inlet 1: message: width <int> : line-width(1);
#X msg 479 143 draw line;
#X msg 479 183 draw fill;
#X msg 479 120 draw point;
#X msg 479 163 draw linestrip;
#X msg 479 203 draw tri;
#X msg 479 225 draw tristrip;
#X msg 478 248 draw trifan;
#X msg 478 269 draw quad;
#X msg 478 291 draw quadstrip;
#X obj 527 68 rotateXYZ;
#X floatatom 602 66 5 0 0 0 - - -, f 5;
#X floatatom 599 167 5 0 10 0 - - -, f 5;
#X msg 599 183 width \$1;
#X floatatom 600 124 5 0 2000 0 - - -, f 5;
#X text 27 247 Inlet 1: message: draw [default|line|linestrip|fill|point|tri|tristrip|trifan|quad|quadstrip]
;
#X obj 527 326 scopeXYZ~ 1024;
#X msg 600 141 length \$1;
#X text 33 14 Synopsis: [scopeXYZ~];
#X text 54 30 Class: geometric object \, DSP-object;
#X text 7 69 Description: 3D oscilloscope;
#X text 22 87 [scopeXYZ~] is a 3-dimensional oscilloscope. It reads
3 input signals and applies the values as excursions along the respective
axis. The initial argument is the number of signal-points that are
be stored.;
#X text 27 306 Inlet 1: message: length <int> : number of signal points
to be stored;
#X text 63 183 number of signal points that are stored (defaults to
blocksize);
#X text 23 144 You can use it for Lissajou-patterns;
#X text 28 343 Inlet 2: signal: X-values of the oscillograph;
#X text 28 356 Inlet 3: signal: Y-values of the oscillograph;
#X text 28 371 Inlet 4: signal: Z-values of the oscillograph;
#X obj 655 57 inlet~;
#X obj 704 57 inlet~;
#X obj 752 57 inlet~;
#X obj 799 424 tgl 15 0 empty empty empty 0 -6 0 10 -262144 -1 -1 0
1;
#X msg 799 442 menubar \$1;
#X msg 822 424 -1;
#X obj 686 245 vradio 15 1 0 3 empty empty empty 0 -8 0 10 -262144
-1 -1 0;
#X floatatom 686 296 5 0 0 0 - - -, f 5;
#X msg 686 317 reset \, fullscreen \$1 \, create \, 1;
#X text 708 242 deactivate fullscreen;
#X text 707 259 fullscreen on screen 1;
#X text 707 275 fullscreen on screen 2;
#X msg 699 372 0 \, destroy;
#N canvas 107 50 450 300 esc 0;
#X obj 65 20 gemkeyboard;
#X obj 65 167 outlet;
#X obj 89 71 keyname;
#X obj 128 96 sel Escape;
#X obj 65 41 sel 53;
#X obj 189 47 sel Escape;
#X obj 150 22 gemkeyname;
#X connect 0 0 4 0;
#X connect 2 1 3 0;
#X connect 3 0 1 0;
#X connect 4 0 1 0;
#X connect 5 0 1 0;
#X connect 6 1 5 0;
#X restore 699 350 pd esc;
#X obj 699 529 gemwin;
#X msg 732 402 create \, 1;
#X obj 481 372 cnv 15 160 90 empty empty empty 20 12 0 14 -24198 -66577
0;
#X obj 481 467 pix_texture;
#X obj 481 489 square 3;
#X obj 481 441 pix_lumaoffset;
#X floatatom 527 386 5 0 0 2 offset - -, f 5;
#X floatatom 574 386 5 0 0 2 gap - -, f 5;
#X obj 563 403 tgl 15 0 empty empty empty 0 -6 0 8 -262144 -1 -1 0
1;
#X msg 563 421 smooth \$1;
#X msg 495 420 fill \$1;
#X obj 495 402 tgl 15 0 empty empty empty 0 -6 0 8 -262144 -1 -1 0
1;
#X obj 150 475 cnv 15 250 300 empty empty empty 20 12 0 14 -228992
-66577 0;
#X obj 153 565 cnv 15 240 120 empty empty empty 20 12 0 14 -24198 -66577
0;
#X obj 152 482 gemhead 50;
#X obj 183 615 spigot;
#X obj 185 569 tgl 15 0 empty empty empty 0 -6 0 8 -262144 -1 -1 1
1;
#X msg 271 641 256 256;
#X floatatom 228 483 5 0 0 0 - - -, f 5;
#X obj 152 522 rotate 0 1 0 0;
#X obj 152 502 translate 1 0 1 0;
#X obj 152 595 t a b;
#X text 325 641 dimension;
#X text 324 619 offset;
#X text 207 579 drawn but before the square;
#X text 205 566 SNAP! after the sphere is;
#X obj 183 635 t b b;
#X msg 219 635 0;
#X obj 152 664 pix_snap 0 0 500 500;
#X msg 271 617 100 100;
#X obj 527 37 gemhead 49;
#X obj 113 545 t b;
#X obj 525 94 color 1 0 0;
#X connect 9 0 24 0;
#X connect 10 0 24 0;
#X connect 11 0 24 0;
#X connect 12 0 24 0;
#X connect 13 0 24 0;
#X connect 14 0 24 0;
#X connect 15 0 24 0;
#X connect 16 0 24 0;
#X connect 17 0 24 0;
#X connect 18 0 82 0;
#X connect 19 0 18 1;
#X connect 19 0 18 3;
#X connect 20 0 21 0;
#X connect 21 0 24 0;
#X connect 22 0 25 0;
#X connect 24 0 78 0;
#X connect 25 0 24 0;
#X connect 36 0 24 1;
#X connect 37 0 24 2;
#X connect 38 0 24 3;
#X connect 39 0 40 0;
#X connect 40 0 50 0;
#X connect 41 0 40 0;
#X connect 42 0 43 0;
#X connect 43 0 44 0;
#X connect 44 0 50 0;
#X connect 48 0 50 0;
#X connect 49 0 48 0;
#X connect 51 0 50 0;
#X connect 53 0 54 0;
#X connect 55 0 53 0;
#X connect 56 0 55 1;
#X connect 57 0 55 2;
#X connect 58 0 59 0;
#X connect 59 0 55 0;
#X connect 60 0 55 0;
#X connect 61 0 60 0;
#X connect 64 0 70 0;
#X connect 64 0 81 0;
#X connect 65 0 76 0;
#X connect 66 0 65 1;
#X connect 67 0 78 2;
#X connect 68 0 69 1;
#X connect 69 0 71 0;
#X connect 70 0 69 0;
#X connect 71 1 65 0;
#X connect 76 0 78 0;
#X connect 76 1 77 0;
#X connect 77 0 66 0;
#X connect 78 0 55 0;
#X connect 79 0 78 1;
#X connect 80 0 18 0;
#X connect 81 0 66 0;
#X connect 82 0 24 0;
