#N canvas 0 23 450 300 10;
#X obj 137 -2 gemhead;
#X obj 137 83 translateXYZ;
#X obj 139 135 circle;
#X obj 193 2 inlet;
#X obj 193 24 unpack f f;
#X connect 0 0 1 0;
#X connect 1 0 2 0;
#X connect 3 0 4 0;
#X connect 4 0 1 1;
#X connect 4 1 1 2;
