#N canvas 713 49 641 493 10;
#X obj 20 148 vid.window;
#X obj 47 90 tgl 15 0 empty empty empty 17 7 0 10 -262144 -1 -1 1 1
;
#X obj 20 1 loadbang;
#X obj 176 40 gemhead;
#X msg 47 111 fullscreen \$1;
#X msg 20 45 2;
#X obj 176 403 vid.image;
#X msg 269 262 invert \$1;
#X obj 269 242 tgl 15 0 empty empty empty 17 7 0 10 -262144 -1 -1 0
1;
#X msg 255 172 open ../images/trinity-county.png;
#X msg 255 149 open ../images/shasta-county.png;
#X msg 254 127 open ../images/lake-county.png;
#X msg 253 105 open ../images/humboldt-county.png;
#X msg 253 83 open ../images/fresno-county.png;
#X msg 252 60 open ../images/amador-country.png;
#X msg 277 287 90;
#X msg 277 309 rotatez \$1;
#X msg 93 146 color 1;
#X msg 20 67 create \$1;
#X obj 20 23 t b b;
#X obj 264 29 loadbang;
#X msg 316 288 0;
#X msg 282 351 scale \$1;
#X floatatom 283 332 5 0 0 0 - - -, f 5;
#X connect 0 0 17 0;
#X connect 1 0 4 0;
#X connect 2 0 19 0;
#X connect 3 0 6 0;
#X connect 4 0 0 0;
#X connect 5 0 18 0;
#X connect 7 0 6 1;
#X connect 8 0 7 0;
#X connect 9 0 6 1;
#X connect 10 0 6 1;
#X connect 11 0 6 1;
#X connect 12 0 6 1;
#X connect 13 0 6 1;
#X connect 14 0 6 1;
#X connect 15 0 16 0;
#X connect 16 0 6 1;
#X connect 17 0 0 0;
#X connect 18 0 0 0;
#X connect 19 0 5 0;
#X connect 19 1 1 0;
#X connect 21 0 16 0;
#X connect 22 0 6 1;
#X connect 23 0 22 0;
