#N canvas 738 87 508 563 10;
#X obj 287 345 unpack 0 0;
#X obj 89 474 s \$0-filepath;
#X obj 57 23 inlet;
#X obj 55 495 outlet;
#X obj 244 493 outlet~;
#X text 349 276 <-- path/file loaded;
#X obj 302 218 r \$0-filepath;
#X msg 302 298 open \$1;
#X obj 302 278 symbol;
#X obj 302 238 file.swapext wav;
#X text 319 494 (c)2013 \, megrimm;
#X obj 245 180 route stop;
#X obj 55 452 vid.player;
#X obj 245 324 snd.player~;
#X msg 344 365 samples \$1;
#X obj 68 347 list prepend open;
#X obj 56 178 list prepend gem_state;
#X obj 68 367 list trim;
#X obj 56 197 list trim;
#X msg 245 200 stop;
#X obj 95 261 fresh/_extra/getdir 1;
#X obj 68 239 t a b;
#X obj 68 286 pack s s;
#X msg 68 307 \$2/\$1;
#X obj 309 258 print sound-loaded;
#X obj 76 327 print video-loaded;
#X obj 57 57 route gem_state load open;
#X msg 155 77 open;
#X obj 155 96 s \$0-open;
#X obj 204 76 s \$0-ctl;
#X obj 245 160 r \$0-ctl;
#X obj 74 388 r \$0-open;
#X obj 106 119 s \$0-load;
#X obj 69 218 r \$0-load;
#X obj 56 137 s \$0-gemlst;
#X obj 56 159 r \$0-gemlst;
#X obj 344 388 s \$0-samples;
#X obj 75 408 r \$0-samples;
#X obj 266 366 s~ \$0-vline~;
#X obj 112 430 r~ \$0-vline~;
#X connect 0 1 14 0;
#X connect 2 0 26 0;
#X connect 6 0 9 0;
#X connect 7 0 13 0;
#X connect 8 0 7 0;
#X connect 9 0 8 0;
#X connect 9 0 24 0;
#X connect 11 0 19 0;
#X connect 11 1 13 0;
#X connect 12 0 3 0;
#X connect 12 3 1 0;
#X connect 13 0 4 0;
#X connect 13 1 38 0;
#X connect 13 2 0 0;
#X connect 14 0 36 0;
#X connect 15 0 17 0;
#X connect 16 0 18 0;
#X connect 17 0 12 0;
#X connect 18 0 12 0;
#X connect 19 0 13 0;
#X connect 20 0 22 1;
#X connect 21 0 22 0;
#X connect 21 1 20 0;
#X connect 22 0 23 0;
#X connect 23 0 15 0;
#X connect 23 0 25 0;
#X connect 26 0 34 0;
#X connect 26 1 32 0;
#X connect 26 2 27 0;
#X connect 26 3 29 0;
#X connect 27 0 28 0;
#X connect 30 0 11 0;
#X connect 31 0 12 0;
#X connect 33 0 21 0;
#X connect 35 0 16 0;
#X connect 37 0 12 0;
#X connect 39 0 12 1;
