#N canvas 526 27 572 491 10;
#X obj 49 87 gemhead;
#X msg 112 131 reset;
#X obj 125 191 hsl 100 15 0 1 0 0 empty empty empty -2 -8 0 10 -262144
-1 -1 6080 1;
#X obj 122 153 loadbang;
#X msg 122 172 0.2;
#X msg 122 209 refframe \$1;
#X floatatom 70 368 5 0 0 0 - - -, f 5;
#X floatatom 91 349 5 0 0 0 - - -, f 5;
#X msg 128 255 onoff \$1;
#X msg 128 232 1;
#X msg 160 232 0;
#X text 193 254 <-- view the tracking;
#X text 154 172 <-- set reference frame;
#X text 156 130 <-- reset the background;
#X floatatom 112 311 5 0 0 0 - - -, f 5;
#X text 148 309 <-- blob size;
#X text 130 348 <-- Y axis;
#X text 110 368 <-- X axis;
#X obj 49 31 tgl 15 0 empty empty empty 17 7 0 10 -262144 -1 -1 0 1
;
#X text 130 55 <-- ESC key puts window in/out of Fullscreen;
#X obj 112 327 s \$0-blobchange;
#X obj 366 281 r \$0-blobchange;
#X obj 366 302 change;
#X obj 366 323 sel 1;
#X obj 366 364 readsf~;
#X obj 366 417 dac~;
#X obj 365 211 loadbang;
#X msg 365 235 \; pd dsp 1 \;;
#X text 76 30 <-- fullscreen 1/2;
#X obj 49 56 vid.window;
#X obj 49 389 pix_texture;
#X obj 49 410 rectangle 5.5 4;
#X obj 49 290 vid.trackbg;
#X msg 366 343 open _samples/organ-01.wav \, 1;
#X connect 0 0 32 0;
#X connect 1 0 32 1;
#X connect 2 0 5 0;
#X connect 3 0 4 0;
#X connect 4 0 2 0;
#X connect 5 0 32 1;
#X connect 8 0 32 1;
#X connect 9 0 8 0;
#X connect 10 0 8 0;
#X connect 14 0 20 0;
#X connect 18 0 29 0;
#X connect 21 0 22 0;
#X connect 22 0 23 0;
#X connect 23 0 33 0;
#X connect 24 0 25 0;
#X connect 24 0 25 1;
#X connect 26 0 27 0;
#X connect 30 0 31 0;
#X connect 32 0 30 0;
#X connect 32 1 6 0;
#X connect 32 2 7 0;
#X connect 32 3 14 0;
#X connect 33 0 24 0;
