#N canvas 34 489 691 425 10;
#X declare -lib ofelia;
#X obj 406 54 ofWindow 800 600 LEFT TOP 0.5;
#X obj 406 75 declare -lib ofelia;
#X obj 50 41 ofHead;
#X msg 406 33 destroy \, create;
#X floatatom 214 62 5 0 0 0 - - -, f 5;
#X obj 73 65 bng 15 250 50 0 empty empty empty 0 -6 0 8 -262144 -1
-1;
#N canvas 0 23 450 300 openpanel 0;
#X obj 114 62 inlet;
#X obj 121 254 outlet;
#X obj 114 125 openpanel;
#X msg 114 162 set open \$1;
#X obj 114 199 t b a;
#X connect 0 0 2 0;
#X connect 2 0 3 0;
#X connect 3 0 4 0;
#X connect 4 0 1 0;
#X connect 4 1 1 0;
#X restore 73 86 pd openpanel;
#X msg 73 106 open somefile.jpg;
#X obj 50 140 vid.ofPixImage;
#N canvas 0 23 450 300 pix_image-example 0;
#X obj 69 116 cnv 15 160 60 empty empty empty 20 12 0 14 -24198 -66577
0;
#X obj 72 43 gemhead;
#X obj 72 192 pix_draw;
#X obj 72 155 pix_image;
#X obj 88 75 bng 15 250 50 0 empty empty empty 0 -6 0 8 -262144 -1
-1;
#N canvas 0 23 450 300 openpanel 0;
#X obj 114 62 inlet;
#X obj 121 254 outlet;
#X obj 114 125 openpanel;
#X msg 114 162 set open \$1;
#X obj 114 199 t b a;
#X connect 0 0 2 0;
#X connect 2 0 3 0;
#X connect 3 0 4 0;
#X connect 4 0 1 0;
#X connect 4 1 1 0;
#X restore 88 96 pd openpanel;
#X msg 88 124 open /Users/gh-admin/Desktop/20180617-DSCF5597.jpg;
#X msg 142 155 thread \$1;
#X obj 213 159 tgl 15 0 empty empty empty 17 7 0 10 -262144 -1 -1 0
1;
#X connect 1 0 3 0;
#X connect 3 0 2 0;
#X connect 4 0 5 0;
#X connect 5 0 6 0;
#X connect 6 0 3 0;
#X connect 7 0 3 0;
#X connect 8 0 7 0;
#X restore 466 156 pd pix_image-example;
#X msg 214 102 open _samples/beatles/\$1.jpg;
#X obj 214 82 + 1;
#X connect 2 0 8 0;
#X connect 3 0 0 0;
#X connect 4 0 11 0;
#X connect 5 0 6 0;
#X connect 6 0 7 0;
#X connect 7 0 8 0;
#X connect 10 0 8 0;
#X connect 11 0 10 0;
