#N canvas 539 22 611 548 10;
#X obj 9 12 cnv 15 100 60 empty empty empty 20 12 0 14 -195568 -66577
0;
#N canvas 127 550 458 308 gemwin 0;
#X obj 132 136 gemwin;
#X obj 67 89 outlet;
#X obj 67 10 inlet;
#X obj 67 41 route create;
#X msg 67 70 set destroy;
#X msg 159 70 set create;
#X msg 132 112 create \, 1;
#X obj 180 37 loadbang;
#X msg 207 112 0 \, destroy;
#X obj 314 47 inlet;
#X msg 313 67 dimen \$1 \$2;
#X connect 2 0 3 0;
#X connect 3 0 4 0;
#X connect 3 0 6 0;
#X connect 3 1 5 0;
#X connect 3 1 8 0;
#X connect 4 0 1 0;
#X connect 5 0 1 0;
#X connect 6 0 0 0;
#X connect 7 0 5 0;
#X connect 8 0 0 0;
#X connect 9 0 10 0;
#X connect 10 0 0 0;
#X restore 14 51 pd gemwin;
#X msg 14 32 destroy;
#X text 10 11 Create window:;
#X text 89 138 images;
#X text 351 133 video;
#X obj 53 175 gemhead;
#X obj 53 325 pix_texture;
#X obj 53 287 pix_info;
#X obj 53 459 rectangle 4 3;
#X obj 321 169 gemhead;
#X obj 321 314 pix_texture;
#X obj 321 458 rectangle 4 3;
#X obj 387 169 bng 15 250 50 0 empty empty empty 17 7 0 10 -262144
-1 -1;
#X obj 321 251 pix_film;
#X obj 332 202 openpanel;
#X msg 332 222 open \$1;
#X text 50 126 how to do it with;
#X text 313 122 how to do it with;
#X text 116 75 autoscale in ratio of the texture to resize the object
textured on;
#X obj 53 266 pix_image;
#X obj 64 212 openpanel;
#X msg 64 234 open \$1;
#X obj 117 178 bng 15 250 50 0 empty empty empty 17 7 0 10 -262144
-1 -1;
#X text 406 169 open movie clip;
#X text 139 178 open still image;
#X obj 53 153 tgl 15 0 empty empty empty 17 7 0 10 -262144 -1 -1 0
1;
#X obj 321 148 tgl 15 0 empty empty empty 17 7 0 10 -262144 -1 -1 1
1;
#X obj 112 357 /;
#X obj 96 432 *;
#X text 117 378 <- ratio;
#X text 140 358 hight by width;
#X obj 133 399 cnv 15 50 20 empty empty empty 20 12 0 14 -259673 -66577
0;
#X obj 380 342 /;
#X obj 364 426 *;
#X text 389 364 <- ratio;
#X text 408 343 hight by width;
#X obj 402 391 cnv 15 50 20 empty empty empty 20 12 0 14 -259673 -66577
0;
#X obj 346 275 unpack f f f;
#X msg 433 225 auto 1;
#X obj 433 205 loadbang;
#X obj 407 394 nbx 3 14 0.5 10 0 1 empty init empty 0 -8 0 10 -262144
-1 -1 2.5 256;
#X obj 139 401 nbx 3 14 0.5 10 0 1 empty init empty 0 -8 0 10 -262144
-1 -1 1 256;
#N canvas 0 22 137 154 init 0;
#X obj 24 81 s init;
#X msg 24 62 1;
#X obj 25 40 loadbang;
#X connect 1 0 0 0;
#X connect 2 0 1 0;
#X restore 14 79 pd init;
#X msg 114 18 600 200;
#X msg 114 36 200 600;
#X connect 1 0 2 0;
#X connect 2 0 1 0;
#X connect 6 0 20 0;
#X connect 7 0 9 0;
#X connect 8 0 7 0;
#X connect 8 1 28 0;
#X connect 8 2 28 1;
#X connect 10 0 14 0;
#X connect 11 0 12 0;
#X connect 13 0 15 0;
#X connect 14 0 11 0;
#X connect 14 1 38 0;
#X connect 15 0 16 0;
#X connect 16 0 14 0;
#X connect 20 0 8 0;
#X connect 21 0 22 0;
#X connect 22 0 20 0;
#X connect 23 0 21 0;
#X connect 26 0 6 0;
#X connect 27 0 10 0;
#X connect 28 0 29 1;
#X connect 29 0 9 1;
#X connect 33 0 34 1;
#X connect 34 0 12 1;
#X connect 38 1 33 0;
#X connect 38 2 33 1;
#X connect 39 0 14 0;
#X connect 40 0 39 0;
#X connect 41 0 34 0;
#X connect 41 0 12 2;
#X connect 42 0 9 2;
#X connect 42 0 29 0;
#X connect 44 0 1 1;
#X connect 45 0 1 1;
