#N canvas 690 105 723 367 10;
#X obj 269 191 rectangle 16 9;
#X obj 309 130 * 16;
#X obj 350 128 * 9;
#X floatatom 314 152 5 0 0 0 - - -;
#X floatatom 360 153 5 0 0 0 - - -;
#X obj 269 26 gemhead;
#X obj 69 298 gemwin;
#X msg 69 233 0 \, destroy \, reset \, dimen \$1 \$2 \, create \, 1
;
#X obj 69 168 * 16;
#X obj 114 166 * 9;
#X obj 69 207 pack f f;
#X floatatom 69 133 5 0 0 0 - - -;
#X msg 443 161 4;
#X obj 309 103 / 100;
#X floatatom 309 68 5 0 0 0 - - -;
#X obj 443 188 * 16;
#X obj 443 212 / 9;
#X obj 148 166 * 4;
#X obj 186 165 * 3;
#X floatatom 148 133 5 0 0 0 - - -;
#X msg 485 160 4;
#X obj 485 187 * 4;
#X obj 485 211 / 3;
#X msg 525 159 4;
#X obj 525 186 * 720;
#X obj 525 210 / 480;
#X msg 81 257 0 \, destroy \, reset \, dimen 720 480 \, create \, 1
;
#X obj 569 209 / 480;
#X obj 569 185 * 640;
#X msg 569 158 4.05;
#X connect 1 0 0 1;
#X connect 1 0 3 0;
#X connect 2 0 0 2;
#X connect 2 0 4 0;
#X connect 5 0 0 0;
#X connect 7 0 6 0;
#X connect 8 0 10 0;
#X connect 9 0 10 1;
#X connect 10 0 7 0;
#X connect 11 0 8 0;
#X connect 11 0 9 0;
#X connect 12 0 0 2;
#X connect 12 0 15 0;
#X connect 13 0 2 0;
#X connect 13 0 1 0;
#X connect 14 0 13 0;
#X connect 15 0 16 0;
#X connect 16 0 0 1;
#X connect 17 0 10 0;
#X connect 18 0 10 1;
#X connect 19 0 17 0;
#X connect 19 0 18 0;
#X connect 20 0 21 0;
#X connect 20 0 0 2;
#X connect 21 0 22 0;
#X connect 22 0 0 1;
#X connect 23 0 24 0;
#X connect 23 0 0 2;
#X connect 24 0 25 0;
#X connect 25 0 0 1;
#X connect 26 0 6 0;
#X connect 27 0 0 1;
#X connect 28 0 27 0;
#X connect 29 0 0 2;
#X connect 29 0 28 0;
