#N canvas 393 156 429 320 10;
#X obj 84 210 gemwin;
#X obj 245 163 gemhead;
#X msg 173 82 create \, 1;
#X msg 293 106 0 \, destroy;
#X floatatom 309 164 5 0 0 0 - - -;
#X floatatom 347 164 5 0 0 0 - - -;
#X floatatom 288 215 5 0 0 0 - - -;
#X floatatom 332 215 5 0 0 0 - - -;
#X obj 245 190 translateXYZ 10 10 1;
#X msg 48 73 view 0 0 1000;
#X obj 50 -8 bng 15 250 50 0 empty empty empty 0 -6 0 10 -262144 -1
-1;
#X obj 50 13 t b b b b b;
#X obj 245 234 rectangle 10 10;
#X msg 9 48 perspec 0 300 0 300 999 1001;
#X msg 215 50 dimen 640 480;
#X connect 1 0 8 0;
#X connect 2 0 0 0;
#X connect 3 0 0 0;
#X connect 4 0 8 1;
#X connect 5 0 8 2;
#X connect 6 0 12 1;
#X connect 7 0 12 2;
#X connect 8 0 12 0;
#X connect 9 0 0 0;
#X connect 10 0 11 0;
#X connect 11 0 13 0;
#X connect 11 1 9 0;
#X connect 11 3 2 0;
#X connect 11 4 14 0;
#X connect 13 0 0 0;
#X connect 14 0 0 0;
