#N canvas 292 24 817 724 10;
#N canvas 20 74 600 400 escape 0;
#X obj 50 133 outlet~;
#X msg 50 113 fullscreen \$1;
#X obj 50 94 tgl 15 0 empty empty empty 17 7 0 10 -262144 -1 -1 0 1
;
#X obj 50 72 sel 27;
#X obj 50 50 key;
#X connect 1 0 0 0;
#X connect 2 0 1 0;
#X connect 3 0 2 0;
#X connect 4 0 3 0;
#X restore 506 598 pd escape;
#X obj 506 622 jit.window v001 @depthbuffer 1 @fsaa 0;
#X text 477 283 1 = B;
#X text 380 283 0.5 = A+B;
#X text 279 283 0 = A;
#X text 154 207 Mix 2 sources with traditional mix modes;
#X text 154 185 A / B Mixers;
#X obj 304 467 t b s;
#X floatatom 260 508 0 0 0 0 - - -;
#X msg 260 528 param amount \$1;
#X text 154 228 additive \, average \, brightlight \, burn \, darken
\, difference \, dodge \, exclude \, freeze \, glow \, hardlight \,
heat \, inverse \, lighten \, multiply \, negate \, overlay \, reflect
\, screen \, softlight \, stamp \, subtractive \, lumablend \, alphablend
;
#X obj 259 429 ubumenu;
#X obj 304 447 sprintf read v001.co2.%s.jxs;
#X floatatom 318 331 0 0 0 0 - - -;
#X msg 318 351 rate \$1;
#X msg 267 351 read;
#X obj 247 383 jit.qt.movie @adapt 1;
#X obj 247 553 jit.gl.slab v001 @file v001.co2.additive.jxs;
#X obj 576 459 deferlow;
#X obj 576 480 sel 1;
#X obj 576 437 unpack s 0;
#X obj 543 514 prepend size;
#X obj 543 417 route dim read;
#X msg 577 352 getdim;
#X floatatom 517 332 0 0 0 0 - - -;
#X msg 517 352 rate \$1;
#X obj 72 425 jit.fpsgui;
#X msg 466 352 read;
#X obj 227 590 jit.gl.videoplane v001 @transform_reset 2 @automatic
0;
#X obj 446 384 jit.qt.movie @adapt 1;
#X obj 247 308 qlim 33.333;
#X obj 227 289 t b b;
#X obj 72 180 tgl 15 0 empty empty empty 17 7 0 10 -262144 -1 -1 0
1;
#X obj 72 206 qmetro 2;
#X obj 72 244 t b b erase;
#X obj 72 397 jit.gl.render v001;
#X text 722 185 shaders beta 2;
#X text 692 172 http://001.vade.info;
#X obj 750 625 pvar banner;
#X msg 690 538 path;
#X obj 690 517 loadbang;
#N canvas 5 430 600 400 banner 0;
#X obj 45 81 bng 15 250 50 0 empty empty empty 17 7 0 10 -262144 -1
-1;
#X obj 121 251 outlet~;
#X obj 121 226 prepend read;
#X obj 121 202 tosymbol;
#X obj 101 60 inlet~;
#X obj 121 177 sprintf %simages/v001.helptitle-%ld.jpg;
#X obj 121 148 + 1;
#X obj 101 105 t s b;
#X obj 121 128 random 11;
#X connect 0 0 8 0;
#X connect 0 0 5 0;
#X connect 2 0 1 0;
#X connect 3 0 2 0;
#X connect 4 0 7 0;
#X connect 5 0 3 0;
#X connect 6 0 5 1;
#X connect 7 0 5 0;
#X connect 7 1 8 0;
#X connect 8 0 6 0;
#X restore 750 603 pd banner;
#X msg 700 557 window size 2 46 800 670 \, window flags grow \, savewindow
1 \, window exec;
#X obj 700 583 thispatcher;
#X obj 772 584 bgcolor 52 52 52;
#X obj 0 0 panel;
#X obj 692 171 ubutton;
#X obj 1 45 fpic;
#X obj 50 -1 fpic;
#X msg 689 190 \; max launchbrowser "http://001.vade.info/";
#X obj 51 168 panel;
#X obj 143 336 panel;
#X obj 147 356 panel;
#X obj 147 375 panel;
#X obj 147 394 panel;
#X obj 147 413 panel;
#X obj 147 432 panel;
#X obj 143 352 panel;
#X connect 0 0 1 0;
#X connect 7 0 8 0;
#X connect 7 1 17 0;
#X connect 8 0 9 0;
#X connect 9 0 17 0;
#X connect 11 1 12 0;
#X connect 12 0 7 0;
#X connect 13 0 14 0;
#X connect 14 0 16 0;
#X connect 15 0 16 0;
#X connect 16 0 17 0;
#X connect 17 0 28 0;
#X connect 18 0 19 0;
#X connect 19 0 23 0;
#X connect 20 1 18 0;
#X connect 21 0 1 0;
#X connect 22 0 21 0;
#X connect 22 1 20 0;
#X connect 23 0 29 0;
#X connect 24 0 25 0;
#X connect 25 0 29 0;
#X connect 27 0 29 0;
#X connect 29 0 17 1;
#X connect 29 1 22 0;
#X connect 30 0 16 0;
#X connect 30 0 29 0;
#X connect 31 0 28 0;
#X connect 31 1 30 0;
#X connect 32 0 33 0;
#X connect 33 0 34 0;
#X connect 34 0 35 0;
#X connect 34 1 31 0;
#X connect 34 2 35 0;
#X connect 35 0 26 0;
#X connect 39 0 43 0;
#X connect 40 0 39 0;
#X connect 41 0 38 0;
#X connect 42 0 43 0;
#X connect 43 1 41 0;
#X connect 46 0 49 0;
