#N canvas 207 43 1076 751 10;
#N canvas 20 74 600 400 escape 0;
#X obj 50 133 outlet~;
#X msg 50 113 fullscreen \$1;
#X obj 50 94 tgl 15 0 empty empty empty 17 7 0 10 -262144 -1 -1 0 1
;
#X obj 50 72 sel 27;
#X obj 50 50 key;
#X connect 1 0 0 0;
#X connect 2 0 1 0;
#X connect 3 0 2 0;
#X connect 4 0 3 0;
#X restore 228 631 pd escape;
#X obj 228 655 jit.window v001 @depthbuffer 1 @fsaa 0;
#X floatatom 282 491 0 0 0 0 - - -;
#X msg 282 511 param levels \$1;
#X text 240 195 Drastically reduce color bit depth.;
#X floatatom 319 331 0 0 0 0 - - -;
#X msg 319 351 rate \$1;
#X msg 268 351 read;
#X obj 248 383 jit.qt.movie @adapt 1;
#X obj 248 553 jit.gl.slab v001 @file v001.posterize.jxs;
#X obj 73 425 jit.fpsgui;
#X obj 228 590 jit.gl.videoplane v001 @transform_reset 2 @automatic
0;
#X obj 248 308 qlim 33.333;
#X obj 228 289 t b b;
#X obj 73 180 tgl 15 0 empty empty empty 17 7 0 10 -262144 -1 -1 0
1;
#X obj 73 206 qmetro 2;
#X obj 73 244 t b b erase;
#X obj 73 397 jit.gl.render v001;
#X text 723 185 shaders beta 2;
#X text 693 172 http://001.vade.info;
#X obj 751 625 pvar banner;
#X msg 691 538 path;
#X obj 691 517 loadbang;
#N canvas 5 430 600 400 banner 0;
#X obj 45 81 bng 15 250 50 0 empty empty empty 17 7 0 10 -262144 -1
-1;
#X obj 121 251 outlet~;
#X obj 121 226 prepend read;
#X obj 121 202 tosymbol;
#X obj 101 60 inlet~;
#X obj 121 177 sprintf %simages/v001.helptitle-%ld.jpg;
#X obj 121 148 + 1;
#X obj 101 105 t s b;
#X obj 121 128 random 11;
#X connect 0 0 8 0;
#X connect 0 0 5 0;
#X connect 2 0 1 0;
#X connect 3 0 2 0;
#X connect 4 0 7 0;
#X connect 5 0 3 0;
#X connect 6 0 5 1;
#X connect 7 0 5 0;
#X connect 7 1 8 0;
#X connect 8 0 6 0;
#X restore 751 603 pd banner;
#X msg 701 557 window size 2 46 800 670 \, window flags grow \, savewindow
1 \, window exec;
#X obj 701 583 thispatcher;
#X obj 773 584 bgcolor 52 52 52;
#X obj 1 0 panel;
#X obj 693 171 ubutton;
#X obj 2 45 fpic;
#X obj 51 -1 fpic;
#X msg 690 190 \; max launchbrowser "http://001.vade.info/";
#X obj 52 168 panel;
#X obj 144 336 panel;
#X obj 148 356 panel;
#X obj 148 375 panel;
#X obj 148 394 panel;
#X obj 148 413 panel;
#X obj 148 432 panel;
#X obj 144 352 panel;
#X connect 0 0 1 0;
#X connect 2 0 3 0;
#X connect 3 0 9 0;
#X connect 5 0 6 0;
#X connect 6 0 8 0;
#X connect 7 0 8 0;
#X connect 8 0 9 0;
#X connect 9 0 11 0;
#X connect 12 0 8 0;
#X connect 13 0 11 0;
#X connect 13 1 12 0;
#X connect 14 0 15 0;
#X connect 15 0 16 0;
#X connect 16 0 17 0;
#X connect 16 1 13 0;
#X connect 16 2 17 0;
#X connect 17 0 10 0;
#X connect 21 0 25 0;
#X connect 22 0 21 0;
#X connect 23 0 20 0;
#X connect 24 0 25 0;
#X connect 25 1 23 0;
#X connect 28 0 31 0;
