#N canvas 725 22 652 742 10;
#X obj 136 117 gemhead;
#X obj 137 561 glsl_program;
#X obj 180 440 pack 0 0;
#X obj 198 409 t b f;
#X obj 198 353 change;
#X obj 180 231 change;
#X msg 180 466 link \$1 \$2;
#X floatatom 221 375 15 0 0 0 ID - -;
#X floatatom 205 259 15 0 0 0 ID - -;
#X obj 180 504 print linking;
#X obj 137 608 pix_texture;
#X obj 25 173 gemwin;
#X obj 136 195 glsl_vertex;
#X obj 136 313 glsl_fragment;
#X obj 136 138 pix_video;
#X obj 202 138 loadbang;
#X obj 360 121 gemhead;
#X obj 361 214 rectangle 4 3;
#X obj 360 165 pix_texture;
#X obj 360 141 pix_image brightonbeach.jpg;
#X obj 360 189 translateXYZ 0 0 -0.001;
#X obj 137 629 rectangle 4 3;
#X msg 25 120 create \, 1;
#X msg 37 145 0 \, destroy;
#X obj 24 14 cnv 15 400 50 empty empty 12c 14 24 0 24 -175655 -66577
0;
#X text 89 22 Pure data + Gem;
#X obj 137 585 alpha;
#X text 88 35 Using OpenGL Shading Language to Key;
#X text 26 78 This patch demonstrates how to use the OpenGL Shading
Language (GLSL) to do the keying with pixel shaders.;
#X text 40 683 Max Neupert \, GMU - Bauhaus University Weimar 2009
;
#X obj 262 139 bng 15 250 50 0 empty empty empty 17 7 0 10 -262144
-1 -1;
#X msg 80 508 print;
#X text 87 48 Clamp shader. Make streaks in the middle of your video.
;
#X msg 143 173 open Shaders-pd/v001.film-lomo.vert;
#X msg 147 291 open Shaders-pd/v001.film-lomo.frag;
#X floatatom 327 542 0 0 0 0 - - -;
#X msg 327 562 vignette \$1;
#X floatatom 390 542 0 0 0 0 - - -;
#X msg 390 562 sharpness \$1;
#X floatatom 269 542 0 0 0 0 - - -;
#X msg 269 562 amount \$1;
#X connect 0 0 14 0;
#X connect 1 0 26 0;
#X connect 2 0 6 0;
#X connect 3 0 2 0;
#X connect 3 1 2 1;
#X connect 4 0 7 0;
#X connect 4 0 3 0;
#X connect 5 0 8 0;
#X connect 5 0 2 0;
#X connect 6 0 1 0;
#X connect 6 0 9 0;
#X connect 10 0 21 0;
#X connect 12 0 13 0;
#X connect 12 1 5 0;
#X connect 13 0 1 0;
#X connect 13 1 4 0;
#X connect 14 0 12 0;
#X connect 15 0 33 0;
#X connect 15 0 34 0;
#X connect 16 0 19 0;
#X connect 18 0 20 0;
#X connect 19 0 18 0;
#X connect 20 0 17 0;
#X connect 22 0 11 0;
#X connect 23 0 11 0;
#X connect 26 0 10 0;
#X connect 30 0 34 0;
#X connect 30 0 33 0;
#X connect 31 0 1 0;
#X connect 33 0 12 0;
#X connect 34 0 13 0;
#X connect 35 0 36 0;
#X connect 36 0 1 0;
#X connect 37 0 38 0;
#X connect 38 0 1 0;
#X connect 39 0 40 0;
#X connect 40 0 1 0;
