#N canvas 454 69 817 724 10;
#N canvas 20 74 600 400 escape 0;
#X obj 50 133 outlet~;
#X msg 50 113 fullscreen \$1;
#X obj 50 94 tgl 15 0 empty empty empty 17 7 0 10 -262144 -1 -1 0 1
;
#X obj 50 72 sel 27;
#X obj 50 50 key;
#X connect 1 0 0 0;
#X connect 2 0 1 0;
#X connect 3 0 2 0;
#X connect 4 0 3 0;
#X restore 163 626 pd escape;
#X obj 163 650 jit.window v001 @depthbuffer 1 @fsaa 0;
#X msg 538 352 read AlphaMatt1.mov;
#X text 594 383 Mask;
#X text 441 383 B;
#X text 292 383 A;
#X text 406 228 Alphamix - use alpha channel of 3rd input as mix;
#X floatatom 403 331 0 0 0 0 - - -;
#X msg 403 351 rate \$1;
#X msg 352 351 read;
#X obj 332 383 jit.qt.movie @adapt 1;
#X text 154 207 Mix 2 sources using a 3rd source as Masking/Matte layer
;
#X text 154 185 A / B with Mask;
#X text 154 228 Lumamix - use luminosity of 3rd input as mix;
#X obj 205 473 ubumenu;
#X obj 250 491 sprintf read v001.co3.%s.jxs;
#X floatatom 254 331 0 0 0 0 - - -;
#X msg 254 351 rate \$1;
#X msg 203 351 read;
#X obj 183 383 jit.qt.movie @adapt 1;
#X obj 183 553 jit.gl.slab v001 @file v001.co3.alphamix.jxs @inputs
3;
#X floatatom 653 332 0 0 0 0 - - -;
#X msg 653 352 rate \$1;
#X obj 72 425 jit.fpsgui;
#X msg 501 352 read;
#X obj 163 590 jit.gl.videoplane v001 @transform_reset 2 @automatic
0;
#X obj 481 383 jit.qt.movie @adapt 1;
#X obj 183 308 qlim 33.333;
#X obj 163 289 t b b;
#X obj 72 180 tgl 15 0 empty empty empty 17 7 0 10 -262144 -1 -1 0
1;
#X obj 72 206 qmetro 2;
#X obj 72 244 t b b erase;
#X obj 72 397 jit.gl.render v001;
#X text 722 185 shaders beta 2;
#X text 692 172 http://001.vade.info;
#X obj 750 625 pvar banner;
#X msg 690 538 path;
#X obj 690 517 loadbang;
#N canvas 5 430 600 400 banner 0;
#X obj 45 81 bng 15 250 50 0 empty empty empty 17 7 0 10 -262144 -1
-1;
#X obj 121 251 outlet~;
#X obj 121 226 prepend read;
#X obj 121 202 tosymbol;
#X obj 101 60 inlet~;
#X obj 121 177 sprintf %simages/v001.helptitle-%ld.jpg;
#X obj 121 148 + 1;
#X obj 101 105 t s b;
#X obj 121 128 random 4;
#X connect 0 0 8 0;
#X connect 0 0 5 0;
#X connect 2 0 1 0;
#X connect 3 0 2 0;
#X connect 4 0 7 0;
#X connect 5 0 3 0;
#X connect 6 0 5 1;
#X connect 7 0 5 0;
#X connect 7 1 8 0;
#X connect 8 0 6 0;
#X restore 750 603 pd banner;
#X msg 700 557 window size 2 46 800 670 \, window flags grow \, savewindow
1 \, window exec;
#X obj 700 583 thispatcher;
#X obj 772 584 bgcolor 52 52 52;
#X obj 0 0 panel;
#X obj 692 171 ubutton;
#X obj 1 45 fpic;
#X obj 50 -1 fpic;
#X msg 692 193 \; max launchbrowser "http://001.vade.info/";
#X obj 51 169 panel;
#X obj 146 339 panel;
#X obj 150 359 panel;
#X obj 150 378 panel;
#X obj 150 397 panel;
#X obj 150 416 panel;
#X obj 150 435 panel;
#X obj 146 355 panel;
#X connect 0 0 1 0;
#X connect 2 0 26 0;
#X connect 7 0 8 0;
#X connect 8 0 10 0;
#X connect 9 0 10 0;
#X connect 10 0 20 1;
#X connect 14 1 15 0;
#X connect 15 0 20 0;
#X connect 16 0 17 0;
#X connect 17 0 19 0;
#X connect 18 0 19 0;
#X connect 19 0 20 0;
#X connect 20 0 25 0;
#X connect 21 0 22 0;
#X connect 22 0 26 0;
#X connect 24 0 26 0;
#X connect 26 0 20 2;
#X connect 27 0 19 0;
#X connect 27 0 10 0;
#X connect 27 0 26 0;
#X connect 28 0 25 0;
#X connect 28 1 27 0;
#X connect 29 0 30 0;
#X connect 30 0 31 0;
#X connect 31 0 32 0;
#X connect 31 1 28 0;
#X connect 31 2 32 0;
#X connect 32 0 23 0;
#X connect 36 0 40 0;
#X connect 37 0 36 0;
#X connect 38 0 35 0;
#X connect 39 0 40 0;
#X connect 40 1 38 0;
#X connect 43 0 46 0;
