#N canvas 496 131 333 451 10;
#X obj 228 59 sel 1;
#X obj 205 113 abs;
#X obj 193 29 gemmouse;
#X obj 205 86 - 500;
#X obj 205 140 / 500;
#X obj 157 86 / 500;
#X obj 76 237 pix_snap 0 0 500 500;
#X msg 76 205 snap;
#X obj 76 155 gemhead 51;
#X obj 61 274 pix_data;
#X obj 83 304 unpack f f f;
#X obj 76 179 t b a;
#X obj 74 389 outlet;
#X obj 138 387 outlet;
#X obj 196 394 outlet;
#X obj 83 331 * 256;
#X obj 83 356 / 255;
#X obj 133 329 * 256;
#X obj 133 354 / 255;
#X obj 183 328 * 256;
#X obj 183 353 / 255;
#X connect 0 0 9 0;
#X connect 1 0 4 0;
#X connect 2 0 5 0;
#X connect 2 1 3 0;
#X connect 2 2 0 0;
#X connect 3 0 1 0;
#X connect 4 0 9 3;
#X connect 5 0 9 2;
#X connect 6 0 9 1;
#X connect 7 0 6 0;
#X connect 8 0 11 0;
#X connect 9 1 10 0;
#X connect 10 0 15 0;
#X connect 10 1 17 0;
#X connect 10 2 19 0;
#X connect 11 0 7 0;
#X connect 11 1 6 0;
#X connect 15 0 16 0;
#X connect 16 0 12 0;
#X connect 17 0 18 0;
#X connect 18 0 13 0;
#X connect 19 0 20 0;
#X connect 20 0 14 0;
