#N canvas 63 385 450 300 10;
#X obj 489 -20 gemmouse 10 10;
#X obj 570 7 sel 1;
#X obj 570 29 bang;
#X obj 496 7 t b;
#X obj 496 29 spigot;
#X obj 261 -3 - 4;
#X obj 261 74 pack f f;
#X obj 294 47 t b f;
#X obj 294 -3 * -1;
#X obj 294 19 + 4;
#X msg 261 96 \$1 \$2 0;
#X obj 343 13 pipe 5;
#X obj 343 75 pack f f;
#X msg 343 97 \$1 \$2 0;
#X obj 436 36 pipe 5;
#X obj 436 58 t b f;
#X obj 570 51 s b;
#X obj 496 51 outlet;
#X obj 261 118 outlet;
#X obj 343 119 outlet;
#X obj 509 106 s x;
#X obj 489 88 s y;
#X obj 532 89 s c;
#X connect 0 0 3 0;
#X connect 0 0 5 0;
#X connect 0 0 21 0;
#X connect 0 1 3 0;
#X connect 0 1 8 0;
#X connect 0 1 20 0;
#X connect 0 2 4 1;
#X connect 0 2 22 0;
#X connect 0 4 1 0;
#X connect 1 0 2 0;
#X connect 2 0 16 0;
#X connect 3 0 4 0;
#X connect 4 0 17 0;
#X connect 5 0 6 0;
#X connect 5 0 11 0;
#X connect 6 0 10 0;
#X connect 7 0 6 0;
#X connect 7 1 6 1;
#X connect 8 0 9 0;
#X connect 9 0 7 0;
#X connect 9 0 14 0;
#X connect 10 0 18 0;
#X connect 11 0 12 0;
#X connect 12 0 13 0;
#X connect 13 0 19 0;
#X connect 14 0 15 0;
#X connect 15 0 12 0;
#X connect 15 1 12 1;
