#N canvas 192 209 441 415 10;
#X obj 6 242 brushes;
#X obj 124 260 gemwin;
#X msg 131 198 0 \, destroy;
#X obj 176 221 loadbang;
#X msg 176 243 color 1 1 1;
#X obj 86 190 bng 15 250 50 0 empty empty empty 17 7 0 10 -262144 -1
-1;
#X obj 86 210 s go;
#X msg 124 173 buffer 1 \, dimen 600 600 \, FSAA 8 \, create \, 1;
#X obj 141 224 r b;
#X obj 8 206 mouse;
#X connect 2 0 1 0;
#X connect 3 0 4 0;
#X connect 4 0 1 0;
#X connect 5 0 6 0;
#X connect 7 0 1 0;
#X connect 7 0 5 0;
#X connect 8 0 1 0;
#X connect 9 0 0 1;
#X connect 9 1 0 2;
#X connect 9 2 0 0;
