#N canvas 645 42 621 589 10;
#X declare -lib Gem -lib pdp -lib gridflow -lib mpc;
#X obj 18 482 #out window;
#X obj 18 72 tgl 20 0 empty empty empty 17 7 0 10 -204786 -258113 -1
0 1;
#X text 42 75 <- start / stop;
#X obj 18 501 fps;
#X obj 18 307 t a a b;
#X obj 18 351 #finished;
#X obj 0 0 doc_demo;
#X text 5 43 Copyright 2010 Mathieu Bouchard;
#X obj 95 358 f;
#X obj 140 325 + 1;
#X obj 140 346 mod 600;
#X msg 95 398 put_at \$1 0 0;
#X obj 18 408 # +;
#X obj 18 427 #outer ignore (0);
#X obj 147 375 #cast b;
#N canvas 80 238 278 238 check_movie_dim 0;
#X obj 26 37 #t;
#X obj 41 60 #dim;
#X obj 41 82 #change;
#X obj 26 12 inlet;
#X obj 26 198 outlet;
#X obj 41 104 #to_list;
#X obj 41 126 list split 2;
#X obj 41 174 s height_width;
#X msg 173 167 size h\$1 w\$2;
#X obj 173 191 outlet;
#X connect 0 0 4 0;
#X connect 0 1 1 0;
#X connect 1 0 2 0;
#X connect 2 0 5 0;
#X connect 3 0 0 0;
#X connect 5 0 6 0;
#X connect 6 0 7 0;
#X connect 6 0 8 0;
#X connect 8 0 9 0;
#X restore 18 173 pd check_movie_dim;
#X obj 123 196 display;
#X obj 18 463 #store (600 640 3 b #);
#N canvas 593 596 199 271 adjust_buffer_size 0;
#X msg 39 141 1 b #;
#X obj 12 162 # + 0;
#X obj 39 121 loadbang;
#X obj 12 46 t a b;
#X msg 104 128 reassign;
#X obj 12 237 outlet;
#X msg 12 101 600 \$2 3 b #;
#X obj 12 12 r height_width;
#X connect 0 0 1 1;
#X connect 1 0 5 0;
#X connect 2 0 0 0;
#X connect 3 0 6 0;
#X connect 3 1 4 0;
#X connect 4 0 5 0;
#X connect 6 0 1 0;
#X connect 7 0 3 0;
#X restore 157 421 pd adjust_buffer_size;
#N canvas 161 232 251 282 slit 0;
#X obj 24 212 #slice (119 0) (120 640);
#X obj 94 34 r height_width;
#X obj 94 125 *;
#X obj 94 81 - 1;
#X msg 94 190 \$1 0;
#X obj 94 168 t a a;
#X obj 94 59 unpack f f;
#X obj 165 169 + 1;
#X obj 165 191 pack f f;
#X obj 94 101 t b a;
#X obj 94 147 int;
#X obj 42 71 inlet;
#X obj 24 34 inlet;
#X obj 24 235 outlet;
#X obj 146 240 outlet;
#X connect 0 0 13 0;
#X connect 1 0 6 0;
#X connect 2 0 10 0;
#X connect 3 0 9 0;
#X connect 4 0 0 1;
#X connect 5 0 4 0;
#X connect 5 1 7 0;
#X connect 5 1 14 0;
#X connect 6 0 3 0;
#X connect 6 1 8 1;
#X connect 7 0 8 0;
#X connect 8 0 0 2;
#X connect 9 0 2 0;
#X connect 9 1 2 1;
#X connect 10 0 5 0;
#X connect 11 0 2 0;
#X connect 12 0 0 0;
#X restore 18 255 pd slit;
#X obj 151 222 loadbang;
#X msg 122 222 0.5;
#X obj 84 203 vsl 15 128 1 0 0 0 empty empty empty 0 -9 0 10 -204786
-258113 -1 6350 1;
#X text 103 259 <- slit position;
#X text 5 29 Copyright 2010 Roman Haefeli;
#X obj 18 388 #for 0 600;
#X obj 95 379 - 1;
#X obj 41 284 display;
#X text 241 91 ------------------------;
#X text 240 83 CLASSIC SLIT-SCANNING;
#X msg 18 522 \$1 fps;
#X obj 18 545 display;
#X text 240 171 The position of the slit can be adjusted.;
#X text 241 196 http://en.wikipedia.org/wiki/Slitscan;
#X text 240 105 This patch emulates a slit-scanning technique where
the film is exposed through a slit along the film is transported. This
is achieved by extracting the specified row (slit position) from every
incoming frame and adding it to the scrolling image.;
#X text 152 102 <- set fps;
#X obj 170 468 bng 15 250 50 0 empty empty empty 0 -6 0 8 -24198 -1
-1;
#X obj 200 517 bng 15 250 50 0 empty empty empty 0 -6 0 8 -24198 -1
-1;
#X obj 185 492 bng 15 250 50 0 empty empty empty 0 -6 0 8 -24198 -1
-1;
#X obj 156 547 #record;
#X text 190 466 <-- 1 select filename;
#X text 205 491 <-- 2 start recording;
#X text 220 517 <-- 3 stop recording;
#X text 219 546 <-- open for more options;
#X obj 310 312 import Gem pdp gridflow mpc;
#X obj 18 131 mpc.gf.source;
#X obj 18 100 mpc.gf.setfps 30;
#X connect 0 0 3 0;
#X connect 1 0 46 0;
#X connect 3 0 30 0;
#X connect 4 0 5 0;
#X connect 4 1 14 0;
#X connect 4 2 8 0;
#X connect 5 0 25 0;
#X connect 8 0 9 0;
#X connect 8 0 12 1;
#X connect 8 0 26 0;
#X connect 9 0 10 0;
#X connect 10 0 8 1;
#X connect 11 0 17 1;
#X connect 12 0 13 0;
#X connect 13 0 17 0;
#X connect 14 0 17 1;
#X connect 15 0 19 0;
#X connect 15 1 16 0;
#X connect 17 0 0 0;
#X connect 17 0 39 0;
#X connect 18 0 17 1;
#X connect 19 0 4 0;
#X connect 19 1 27 0;
#X connect 20 0 21 0;
#X connect 21 0 22 0;
#X connect 22 0 19 1;
#X connect 25 0 12 0;
#X connect 26 0 11 0;
#X connect 30 0 31 0;
#X connect 36 0 39 1;
#X connect 37 0 39 3;
#X connect 38 0 39 2;
#X connect 45 0 15 0;
#X connect 46 0 45 0;
