#N canvas 221 22 716 816 10;
#X obj 54 428 cnv 15 300 350 empty empty empty 20 12 0 14 -233017 -66577
0;
#X obj 25 47 cnv 15 400 350 empty empty empty 20 12 0 14 -233017 -66577
0;
#X obj 76 357 glsl_program;
#X obj 164 207 change;
#X floatatom 164 233 2 0 0 0 ID - -;
#X obj 86 133 bng 15 250 50 0 empty empty empty 0 -6 0 8 -262144 -1
-1;
#X msg 86 157 open texture.frag;
#X obj 76 187 glsl_fragment;
#X text 118 131 <-load shader;
#X obj 330 158 vradio 15 1 0 9 empty empty empty 0 -8 0 10 -262144
-1 -1 0;
#X floatatom 330 301 5 0 0 0 - - -;
#X msg 330 322 shader_ \$1;
#X msg 164 257 link \$1;
#X obj 93 502 gemframebuffer;
#X msg 160 472 dim 512 512;
#X obj 93 527 translateXYZ 0 0 -4;
#X obj 73 528 cnv 15 15 15 empty empty empty 20 12 0 14 -260097 -66577
0;
#X obj 93 685 pix_texture;
#X obj 235 128 loadbang;
#X msg 129 647 mode \$1;
#X obj 129 627 tgl 15 0 empty empty empty 17 7 0 10 -262144 -1 -1 0
1;
#X obj 93 707 square 4;
#X obj 160 449 loadbang;
#X obj 373 723 outlet;
#X obj 330 131 inlet;
#X obj 129 577 loadbang;
#X msg 129 603 0;
#X obj 485 508 inlet texture_number;
#X text 478 102 example of a shader modul;
#X text 485 488 texture number on gpu;
#X text 374 739 texture number on gpu;
#X obj 76 110 gemhead;
#X obj 76 59 loadbang;
#X msg 76 82 0;
#X text 250 61 gemhead has to be triggered;
#X text 249 75 by a bang;
#X obj 182 278 print linking;
#X text 238 453 default would be;
#X text 238 469 256*256;
#X text 218 515 you need this;
#X text 218 528 in combination with;
#X text 218 541 gemframebuffer;
#X text 158 622 depends on your gfx card and;
#X text 178 635 on shader settings;
#X obj 158 26 inlet bang;
#X text 478 122 this uses a shader by cyrille henry.;
#X connect 2 0 13 0;
#X connect 3 0 4 0;
#X connect 4 0 12 0;
#X connect 5 0 6 0;
#X connect 6 0 7 0;
#X connect 7 0 2 0;
#X connect 7 1 3 0;
#X connect 9 0 10 0;
#X connect 10 0 11 0;
#X connect 11 0 2 0;
#X connect 12 0 2 0;
#X connect 12 0 36 0;
#X connect 13 0 15 0;
#X connect 13 1 23 0;
#X connect 14 0 13 0;
#X connect 15 0 17 0;
#X connect 17 0 21 0;
#X connect 18 0 6 0;
#X connect 19 0 17 0;
#X connect 20 0 19 0;
#X connect 22 0 14 0;
#X connect 24 0 9 0;
#X connect 25 0 26 0;
#X connect 26 0 20 0;
#X connect 27 0 17 1;
#X connect 31 0 7 0;
#X connect 32 0 33 0;
#X connect 33 0 31 0;
#X connect 44 0 31 0;
