#N canvas 597 57 770 701 10;
#X obj 339 181 cnv 15 400 350 empty empty empty 20 12 0 14 -233017
-66577 0;
#X obj 28 196 cnv 15 266 260 empty empty empty 20 12 0 14 -233017 -66577
0;
#X obj 28 477 cnv 15 120 200 empty empty empty 20 12 0 14 -233017 -66577
0;
#X obj 355 475 pix_texture;
#X msg 376 451 mode \$1;
#X obj 376 431 tgl 15 0 empty empty empty 17 7 0 10 -262144 -1 -1 0
1;
#X msg 396 430 0;
#X obj 396 411 loadbang;
#X obj 355 502 square 4;
#X obj 154 136 t b b b b b;
#X obj 379 219 loadbang;
#X obj 379 240 0;
#X obj 154 111 gemhead;
#X msg 73 21 create \, 1;
#X msg 78 48 0;
#X msg 80 70 destroy;
#X obj 51 553 pix_texture;
#X obj 51 634 square 4;
#X obj 355 294 gemframebuffer;
#X obj 355 262 gemhead;
#X obj 355 314 translateXYZ 0 0 -4;
#X obj 436 243 loadbang;
#X msg 436 263 dim 512 512;
#X obj 70 490 loadbang;
#X obj 70 511 0;
#X floatatom 184 380 5 0 0 0 - - -;
#X obj 406 71 dsp;
#X floatatom 406 98 5 0 0 0 - - -;
#X floatatom 121 436 5 0 0 0 - - -;
#X obj 563 361 openpanel;
#X msg 563 339 bang;
#X msg 563 384 open \$1;
#X obj 185 348 chainmodule;
#X obj 152 270 vradio 15 1 0 9 empty empty empty 0 -8 0 10 -262144
-1 -1 3;
#X obj 217 205 vradio 15 1 0 9 empty empty empty 0 -8 0 10 -262144
-1 -1 8;
#X obj 51 95 gemwin;
#X obj 51 532 gemhead;
#X text 345 195 in theory \, this only needs to be updated when changed...
;
#X obj 204 22 cnv 15 15 15 empty empty empty 20 12 0 14 -260097 -66577
0;
#X text 143 19 <-- START;
#X text 525 300 load another image;
#X text 253 606 2) use reference output of framebuffer as input for
your shader chain modules.;
#X floatatom 68 591 5 0 0 0 - - -;
#X floatatom 104 591 5 0 0 0 - - -;
#X obj 51 614 rotateXYZ;
#X text 253 636 3) feed output of shder chain into pix_texture and
geo (eg. square);
#X text 243 566 render order:;
#X obj 121 411 chainmodule;
#X floatatom 447 294 5 0 0 0 - - -;
#X text 30 360 this module uses;
#X text 30 374 an image produced;
#X text 31 389 by the first module;
#X text 205 366 (first module);
#X text 29 346 (second module);
#X text 253 586 1) render image into framebuffer (right side);
#X text 525 314 (or use pix_video instead...);
#X obj 355 378 pix_video;
#X connect 3 0 8 0;
#X connect 4 0 3 0;
#X connect 5 0 4 0;
#X connect 6 0 4 0;
#X connect 7 0 6 0;
#X connect 9 0 36 0;
#X connect 9 2 47 0;
#X connect 9 3 32 0;
#X connect 9 4 19 0;
#X connect 10 0 11 0;
#X connect 11 0 19 0;
#X connect 12 0 9 0;
#X connect 13 0 35 0;
#X connect 14 0 35 0;
#X connect 15 0 35 0;
#X connect 16 0 44 0;
#X connect 18 0 20 0;
#X connect 18 1 32 2;
#X connect 18 1 48 0;
#X connect 19 0 18 0;
#X connect 20 0 56 0;
#X connect 21 0 22 0;
#X connect 22 0 18 0;
#X connect 23 0 24 0;
#X connect 24 0 36 0;
#X connect 25 0 47 2;
#X connect 26 0 27 0;
#X connect 28 0 16 1;
#X connect 29 0 31 0;
#X connect 30 0 29 0;
#X connect 31 0 56 0;
#X connect 32 0 25 0;
#X connect 33 0 47 1;
#X connect 34 0 32 1;
#X connect 36 0 16 0;
#X connect 42 0 44 1;
#X connect 43 0 44 3;
#X connect 44 0 17 0;
#X connect 47 0 28 0;
#X connect 56 0 3 0;
