#N canvas 325 103 860 578 10;
#X obj 104 120 hradio 15 1 0 6 empty empty empty 0 -8 0 10 -262144
-1 -1 1;
#X obj -188 185 inlet;
#X obj -125 520 outlet;
#X obj 111 382 inlet;
#X obj -78 385 pix_composite;
#X obj -78 409 pix_add;
#X obj -77 456 pix_diff;
#X obj -77 432 pix_subtract;
#X obj -78 481 pix_multiply;
#X obj 104 148 t b a;
#X text -190 159 pix1;
#X obj 175 40 loadbang;
#X obj 184 269 print;
#X msg 184 244 0 none \, 1 composite \, 2 add \, 3 subtract \, 4 diff
\, 5 multiply;
#N canvas 172 373 450 300 demux6======== 0;
#X obj 59 30 inlet;
#X obj 283 17 inlet;
#X obj 59 193 outlet;
#X obj 59 137 spigot;
#X obj 96 109 == 0;
#X obj 106 137 spigot;
#X obj 153 139 spigot;
#X obj 200 137 spigot;
#X obj 246 137 spigot;
#X obj 143 109 == 1;
#X obj 190 109 == 2;
#X obj 237 109 == 3;
#X obj 283 109 == 4;
#X obj 96 83 loadbang;
#X obj 106 194 outlet;
#X obj 153 195 outlet;
#X obj 200 196 outlet;
#X obj 246 195 outlet;
#X obj 283 61 f;
#X obj 307 141 spigot;
#X obj 307 199 outlet;
#X obj 59 52 t a a a a a a;
#X obj 344 113 == 5;
#X connect 0 0 21 0;
#X connect 1 0 18 0;
#X connect 3 0 2 0;
#X connect 4 0 3 1;
#X connect 5 0 14 0;
#X connect 6 0 15 0;
#X connect 7 0 16 0;
#X connect 8 0 17 0;
#X connect 9 0 5 1;
#X connect 10 0 6 1;
#X connect 11 0 7 1;
#X connect 12 0 8 1;
#X connect 13 0 4 0;
#X connect 18 0 4 0;
#X connect 18 0 9 0;
#X connect 18 0 10 0;
#X connect 18 0 11 0;
#X connect 18 0 12 0;
#X connect 18 0 22 0;
#X connect 19 0 20 0;
#X connect 21 0 3 0;
#X connect 21 1 5 0;
#X connect 21 2 6 0;
#X connect 21 3 7 0;
#X connect 21 4 8 0;
#X connect 21 5 19 0;
#X connect 22 0 19 1;
#X restore -188 309 pd demux6========;
#X msg 174 64 0;
#X obj -151 254 pix_alpha;
#X obj -144 226 pix_buf;
#X connect 0 0 9 0;
#X connect 1 0 14 0;
#X connect 3 0 5 1;
#X connect 3 0 4 1;
#X connect 3 0 7 1;
#X connect 3 0 6 1;
#X connect 3 0 8 1;
#X connect 4 0 2 0;
#X connect 5 0 2 0;
#X connect 6 0 2 0;
#X connect 7 0 2 0;
#X connect 8 0 2 0;
#X connect 9 1 14 1;
#X connect 11 0 15 0;
#X connect 11 0 13 0;
#X connect 13 0 12 0;
#X connect 14 0 2 0;
#X connect 14 1 4 0;
#X connect 14 2 5 0;
#X connect 14 3 7 0;
#X connect 14 4 6 0;
#X connect 14 5 8 0;
#X connect 15 0 0 0;
#X connect 17 0 16 0;
#X coords 0 -1 1 1 100 40 1 100 100;
