#N canvas 662 122 569 593 10;
#X obj 173 28 noise~;
#X obj -68 374 gemwin;
#X msg -84 317 destroy;
#X msg 141 362 \; pd dsp 1;
#X obj 109 304 throw~ all;
#X obj -158 316 catch~ all;
#X obj -158 377 dac~;
#X obj 87 114 tgl 15 0 empty empty empty 0 -6 0 8 -24198 -1 -1 0 1
;
#X obj 99 194 *~;
#X obj 128 195 tgl 15 0 empty empty empty 0 -6 0 8 -24198 -1 -1 0 1
;
#X obj 99 216 *~ 0;
#X obj 141 338 loadbang;
#X obj 173 168 *~;
#X obj 188 133 expr~ if($v1>0.3 \, 1 \, 0);
#X obj 47 -43 noise~;
#X obj 47 -12 samphold~;
#X obj 47 113 *~ 1;
#X obj 205 194 tgl 15 0 empty empty empty 0 -6 0 8 -24198 -1 -1 0 1
;
#X obj 173 193 *~ 0;
#X obj 99 168 phasor~ 300;
#X obj -158 349 *~ 0.5;
#X floatatom -19 161 5 1 64 0 - - -;
#X obj -19 188 pack f f;
#X floatatom -19 113 5 1 64 0 - - -;
#X obj 98 -42 phasor~ 1;
#X obj -19 135 t b f f;
#X obj 98 -68 expr ($f1/64)*20;
#X obj 99 138 * 10;
#X obj 47 53 mtof~;
#X obj 47 82 osc~ 500;
#X obj 47 21 expr~ ($v1)*24+48;
#X obj 188 108 phasor~ 40;
#X floatatom 233 77 5 1 100 0 - - -;
#X obj 173 54 hip~ 8000;
#X obj 173 83 *~ 0.3;
#X msg -68 348 reset \, dimen 640 480 \, create \, 1;
#N canvas 518 362 515 329 gem-image 0;
#X obj 147 83 gemhead;
#X obj 147 214 pix_texture;
#X obj 147 180 pix_sig2pix~ 64 64;
#X msg 16 123 dimen \$1 \$2;
#X obj 16 56 inlet;
#X obj 156 138 inlet~;
#X obj 202 138 inlet~;
#X obj 251 137 inlet~;
#X obj 297 137 inlet~;
#X obj 256 240 block~ 4096;
#X obj 43 184 loadbang;
#X msg 43 209 quality 0;
#X obj 147 241 rectangle 5.33 4;
#X connect 0 0 2 0;
#X connect 1 0 12 0;
#X connect 2 0 1 0;
#X connect 3 0 2 0;
#X connect 4 0 3 0;
#X connect 5 0 2 0;
#X connect 6 0 2 1;
#X connect 7 0 2 2;
#X connect 8 0 2 3;
#X connect 10 0 11 0;
#X connect 11 0 1 0;
#X restore -7 303 pd gem-image;
#X connect 0 0 33 0;
#X connect 2 0 1 0;
#X connect 5 0 20 0;
#X connect 7 0 16 1;
#X connect 8 0 10 0;
#X connect 9 0 10 1;
#X connect 10 0 4 0;
#X connect 10 0 36 3;
#X connect 11 0 3 0;
#X connect 12 0 18 0;
#X connect 13 0 12 1;
#X connect 14 0 15 0;
#X connect 15 0 30 0;
#X connect 16 0 4 0;
#X connect 16 0 36 1;
#X connect 17 0 18 1;
#X connect 18 0 4 0;
#X connect 18 0 36 3;
#X connect 18 0 36 2;
#X connect 18 0 36 1;
#X connect 18 0 36 4;
#X connect 19 0 8 0;
#X connect 20 0 6 0;
#X connect 20 0 6 1;
#X connect 21 0 22 0;
#X connect 21 0 27 0;
#X connect 22 0 36 0;
#X connect 23 0 25 0;
#X connect 24 0 15 1;
#X connect 25 0 21 0;
#X connect 25 1 22 1;
#X connect 25 2 26 0;
#X connect 26 0 24 0;
#X connect 27 0 19 0;
#X connect 28 0 29 0;
#X connect 29 0 16 0;
#X connect 29 0 8 1;
#X connect 30 0 28 0;
#X connect 31 0 13 0;
#X connect 32 0 31 0;
#X connect 33 0 34 0;
#X connect 34 0 12 0;
#X connect 35 0 1 0;
