#N canvas 588 257 733 547 10;
#X obj 157 139 samphold~;
#X obj 157 74 noise~;
#X obj 22 182 click~;
#X msg 66 154 set \$1;
#X obj 22 113 change;
#X obj 22 136 t b;
#X obj 22 -11 expr~ 1/$v1;
#X obj 22 12 phasor~;
#X obj 22 38 expr~ fmod($v1*16 \, 1);
#X obj 22 92 unsig~ 1;
#X obj 66 112 unsig~ 100;
#X obj 66 134 abs;
#X obj 22 63 expr~ floor($v1*8 \, 0);
#X obj 208 115 expr~ fmod($v1*8 \, 1);
#X obj 355 122 *~;
#X obj 340 144 *~;
#X obj 355 100 expr~ pow(abs($v1-1) \, 2);
#X obj 340 50 *~ 0.5;
#X obj 157 168 *~ 0.5;
#X obj 511 41 expr~ fmod($v1*16 \, 1);
#X obj 340 26 *~;
#X obj 340 -3 osc~ 900;
#X obj 406 -3 osc~ 901;
#X obj 355 75 expr~ fmod($v1*2 \, 1);
#X obj 511 105 expr~ floor($v1*8 \, 1);
#X obj 511 128 expr~ if($v1%3==0 \, 1 \, 0);
#X obj 589 348 loadbang;
#X msg 589 376 \; pd dsp 1;
#X obj 340 170 throw~ all;
#X obj 157 195 throw~ all;
#X obj 22 212 throw~ all;
#X obj 430 335 catch~ all;
#X obj 430 366 dac~;
#X floatatom 167 423 5 0 0 0 - - -;
#X floatatom 244 230 5 0 0 0 - - -;
#X obj 227 172 throw~ a2;
#X obj 527 78 throw~ a3;
#X obj 244 355 t b f;
#X obj 324 330 catch~ a3;
#X obj 303 371 catch~ a2;
#X obj 170 42 throw~ a1;
#X obj 283 408 catch~ a1;
#X floatatom 244 277 5 0 0 0 - - -;
#X obj 136 348 expr int($f1*10);
#X floatatom 136 376 5 0 0 0 - - -;
#X obj 136 400 abs;
#X obj 244 394 f;
#X obj 136 423 * 6;
#X obj 244 207 unsig~ 300;
#X obj 136 321 unsig~ 300;
#X obj 244 300 change;
#X floatatom 399 391 5 0 0 0 - - -;
#X obj 399 366 env~;
#X obj 399 415 > 90;
#X obj 244 330 + 1;
#X obj 244 256 expr int($f1*10);
#N canvas 729 118 543 627 gem-image 1;
#X text 103 157 Example:;
#X obj 101 186 gemhead;
#X obj 101 480 pix_texture;
#X obj 101 333 pix_sig2pix~ 64 64;
#X msg 375 366 quality \$1;
#X obj 375 343 tgl 15 0 empty empty empty 17 7 0 10 -262144 -1 -1 1
1;
#X obj 213 243 block~ 4096;
#X msg 9 196 dimen \$1 \$2;
#X obj 9 139 inlet;
#X obj 54 139 inlet;
#X obj 9 171 pack f f;
#X obj 124 274 inlet~;
#X obj 188 276 inlet~;
#X obj 250 276 inlet~;
#X obj 314 278 inlet~;
#X obj 101 369 pix_gain 2;
#X obj 375 316 inlet;
#X obj 101 397 t a a;
#X obj 100 420 separator;
#X obj 101 502 rectangle 4 4;
#X obj 229 481 pix_texture;
#X obj 229 371 separator;
#X obj 229 503 rectangle 4 4;
#X obj 229 451 translateXYZ 4 0 0;
#X obj 101 440 translateXYZ -4 0 0;
#X obj 229 428 pix_invert;
#X obj 229 401 pix_separator;
#X connect 1 0 3 0;
#X connect 2 0 19 0;
#X connect 3 0 15 0;
#X connect 4 0 2 0;
#X connect 4 0 20 0;
#X connect 5 0 4 0;
#X connect 7 0 3 0;
#X connect 8 0 10 0;
#X connect 9 0 10 1;
#X connect 10 0 7 0;
#X connect 11 0 3 0;
#X connect 12 0 3 1;
#X connect 13 0 3 2;
#X connect 14 0 3 3;
#X connect 15 0 17 0;
#X connect 16 0 5 0;
#X connect 17 0 18 0;
#X connect 17 1 21 0;
#X connect 18 0 24 0;
#X connect 20 0 22 0;
#X connect 21 0 26 0;
#X connect 23 0 20 0;
#X connect 24 0 2 0;
#X connect 25 0 23 0;
#X connect 26 0 25 0;
#X restore 244 453 pd gem-image;
#X obj 429 188 osc~ 66;
#X obj 429 221 *~;
#X obj 429 246 throw~ all;
#X obj 388 275 throw~ a4;
#X obj 284 351 catch~ a4;
#X obj 511 275 phasor~ 0.5;
#X obj 511 201 samphold~;
#X obj 511 159 noise~;
#X obj 511 299 expr~ if($v1>0.5 \, 1 \, 0);
#X obj 562 176 phasor~ 0.1;
#X obj 511 222 *~ 1;
#X obj 511 250 +~ 1;
#X obj 22 -37 sig~ 16;
#X obj 590 418 fresh/vid.window;
#X connect 0 0 10 0;
#X connect 0 0 18 0;
#X connect 1 0 0 0;
#X connect 1 0 35 0;
#X connect 2 0 30 0;
#X connect 3 0 2 0;
#X connect 4 0 5 0;
#X connect 5 0 2 0;
#X connect 6 0 7 0;
#X connect 7 0 8 0;
#X connect 7 0 19 0;
#X connect 7 0 40 0;
#X connect 8 0 12 0;
#X connect 8 0 13 0;
#X connect 9 0 4 0;
#X connect 10 0 11 0;
#X connect 11 0 3 0;
#X connect 12 0 9 0;
#X connect 13 0 0 1;
#X connect 14 0 15 1;
#X connect 15 0 28 0;
#X connect 16 0 14 0;
#X connect 17 0 15 0;
#X connect 18 0 29 0;
#X connect 19 0 23 0;
#X connect 19 0 24 0;
#X connect 19 0 36 0;
#X connect 20 0 17 0;
#X connect 21 0 20 0;
#X connect 22 0 20 1;
#X connect 23 0 16 0;
#X connect 24 0 25 0;
#X connect 25 0 14 1;
#X connect 26 0 27 0;
#X connect 31 0 32 0;
#X connect 31 0 32 1;
#X connect 31 0 52 0;
#X connect 33 0 46 1;
#X connect 34 0 55 0;
#X connect 37 0 46 0;
#X connect 37 1 56 1;
#X connect 38 0 56 4;
#X connect 38 0 48 0;
#X connect 39 0 56 3;
#X connect 39 0 49 0;
#X connect 41 0 56 2;
#X connect 41 0 56 5;
#X connect 42 0 50 0;
#X connect 43 0 44 0;
#X connect 44 0 45 0;
#X connect 45 0 47 0;
#X connect 46 0 56 0;
#X connect 47 0 33 0;
#X connect 48 0 34 0;
#X connect 49 0 43 0;
#X connect 50 0 54 0;
#X connect 51 0 53 0;
#X connect 52 0 51 0;
#X connect 53 0 56 6;
#X connect 54 0 37 0;
#X connect 55 0 42 0;
#X connect 57 0 58 0;
#X connect 58 0 59 0;
#X connect 58 0 60 0;
#X connect 61 0 56 2;
#X connect 61 0 56 3;
#X connect 61 0 56 4;
#X connect 61 0 56 5;
#X connect 62 0 65 0;
#X connect 63 0 67 0;
#X connect 64 0 63 0;
#X connect 65 0 58 1;
#X connect 66 0 63 1;
#X connect 67 0 68 0;
#X connect 68 0 62 0;
#X connect 69 0 6 0;
