#N canvas 101 42 786 806 10;
#X text 22 136 Pd Messages you can send these messages to the pd selector:
;
#X text 412 8 Patch Messages you can send these messages to the pd-patch.pd
selector:;
#X text 22 8 Undocumented Pd Internal Messages: These messages can
be useful if running pd without gui \, or for building patches dynamically.
Some of them should be self-explanatory. Some other have no documentation
at all. Note: documentation for each msg is missing :(, f 47;
#X text 20 175 init [gimme] \; filename [symbol] [symbol] \; open [symbol]
[symbol] \; quit foo [gimme] \; dsp [gimme] \; meters [float] \; key
[gimme] \; audiostatus \; finderror \; ping \;;
#X text 413 47 obj [gimme] \; msg [gimme] \; floatatom [gimme] \; symbolatom
[gimme] \; text [gimme] \; graph [gimme] \; array scalar [gimme] \;
bng [gimme] \; toggle [gimme] \; vslider [gimme] \; hslider [gimme]
\; radio [gimme] \; vumeter [gimme] \; mycnv [gimme] \; connect [float]
[float] [float] [float] \; restore [gimme] \; write [symbol] [defsymbol]
\; read [symbol] [defsymbol] \; mergefile [symbol] [defsymbol] \; sort
\; click [float] [float] [float] [float] \; mouseup [float] [float]
[float] \; key [gimme] \; motion [float] [float] [float] \; print [symbol]
\; menusave \; menusaveas \; menuclose [deffloat] \; saveto [symbol]
[symbol] \; cut \; copy \; paste \; duplicate \; selectall \; tidy
\; texteditor \; editmode [deffloat] \; protectmode [deffloat] \; print
[symbol] \; pop [deffloat] \; loadbang \; relocate [symbol] [symbol]
\; menufont \; font [float] [float] [float] \; find [gimme] \; findagain
\; findparent \; vis [float] \; properties [float] [float] \; help
[float] [float] \; arraydialog [symbol] [float] [float] [float] \;
map [float] \; clear \; intatom [gimme] \; atom [gimme] \;;
