#N struct keyboard float x float y float w float h float q;
#N canvas 522 118 445 710 10;
#X obj 31 155 pointer;
#X obj 31 178 t b p;
#X obj 30 549 filledpolygon q 0 1 0 0 w 0 w h 0 h;
#X obj 212 177 t b p;
#X obj 212 157 pointer;
#X obj 30 422 struct keyboard float x float y float w float h float
q;
#N canvas 976 119 445 240 keyboard 1;
#X scalar keyboard 335 50 30 85 0 \;;
#X scalar keyboard 285 50 30 85 0 \;;
#X scalar keyboard 235 50 30 85 0 \;;
#X scalar keyboard 135 50 30 85 0 \;;
#X scalar keyboard 85 50 30 85 0 \;;
#X scalar keyboard 350 50 50 150 999 \;;
#X scalar keyboard 300 50 50 150 999 \;;
#X scalar keyboard 250 50 50 150 999 \;;
#X scalar keyboard 200 50 50 150 999 \;;
#X scalar keyboard 150 50 50 150 999 \;;
#X scalar keyboard 100 50 50 150 999 \;;
#X scalar keyboard 50 50 50 150 999 \;;
#X restore 29 396 pd keyboard;
#X msg 31 133 traverse pd-keyboard \, bang;
#X msg 212 135 traverse pd-keyboard \, bang;
#X text 30 567 arguments for filled polygon;
#X text 30 581 1 & 2 & 3 - fill color / line color / line width;
#X text 31 595 4 & 5 - upperleft point (0 0);
#X text 31 608 6 & 7 - upperright point (w 0);
#X text 31 621 8 & 9 - lowerright point (w h);
#X text 25 633 10 & 11 - lowerleft point (0 h);
#X obj 31 295 append keyboard x y w h q;
#X obj 212 341 append keyboard x y w h q;
#X floatatom 157 517 0 0 0 0 - - -;
#X floatatom 116 517 0 0 0 0 - - -;
#X floatatom 73 517 0 0 0 0 - - -;
#X floatatom 30 517 0 0 0 0 - - -;
#X floatatom 189 517 0 0 0 0 - - -;
#X obj 30 471 route click;
#X obj 30 493 get keyboard x y w h q;
#X obj 39 448 print keys;
#X text 25 666 RGB color (0=black \, 999=white \, 900=red \, 90=green
\, 9=blue \, 555=grey \, etc.);
#X msg 31 270 \$1 50 50 150 999;
#X obj 31 249 * 50;
#X msg 110 383 \; pd-keyboard clear \;;
#X obj 31 208 f;
#X obj 62 209 + 1;
#X obj 31 229 + 1;
#X msg 93 177 0;
#X obj 31 112 until;
#X obj 31 92 t f b;
#X obj 212 277 * 50;
#X obj 212 210 f;
#X obj 243 211 + 1;
#X obj 212 230 + 1;
#X obj 212 297 + 35;
#X msg 212 319 \$1 50 30 85 0;
#X msg 268 176 0;
#X obj 212 112 until;
#X obj 212 92 t f b;
#X text 296 207 1 2 4 5 6;
#X msg 31 69 7;
#X msg 212 69 6;
#X obj 212 251 route 3;
#X connect 0 0 1 0;
#X connect 1 0 29 0;
#X connect 1 1 15 5;
#X connect 3 0 36 0;
#X connect 3 1 16 5;
#X connect 4 0 3 0;
#X connect 5 0 22 0;
#X connect 5 0 24 0;
#X connect 7 0 0 0;
#X connect 8 0 4 0;
#X connect 22 0 23 0;
#X connect 23 0 20 0;
#X connect 23 1 19 0;
#X connect 23 2 18 0;
#X connect 23 3 17 0;
#X connect 23 4 21 0;
#X connect 26 0 15 0;
#X connect 27 0 26 0;
#X connect 29 0 30 0;
#X connect 29 0 31 0;
#X connect 30 0 29 1;
#X connect 31 0 27 0;
#X connect 32 0 29 1;
#X connect 33 0 7 0;
#X connect 34 0 33 0;
#X connect 34 1 32 0;
#X connect 35 0 39 0;
#X connect 36 0 37 0;
#X connect 36 0 38 0;
#X connect 37 0 36 1;
#X connect 38 0 47 0;
#X connect 39 0 40 0;
#X connect 40 0 16 0;
#X connect 41 0 36 1;
#X connect 42 0 8 0;
#X connect 43 0 42 0;
#X connect 43 1 41 0;
#X connect 45 0 34 0;
#X connect 46 0 43 0;
#X connect 47 1 35 0;
