#N canvas 643 142 330 395 10;
#X obj 90 -20 sel 0 1;
#X obj 90 -66 tgl 30 0 empty empty empty 17 7 0 10 -262144 -1 -1 1
1;
#X msg 90 3 destroy;
#X obj 90 73 gemwin;
#X msg 109 30 reset \, dimen 640 480 \, create \, 1;
#X obj 16 223 musicbox;
#X obj 16 185 bng 30 250 50 0 empty empty empty 17 7 0 10 -262144 -1
-1;
#X obj 73 184 bng 30 250 50 0 empty empty empty 17 7 0 10 -262144 -1
-1;
#X obj 17 246 bng 30 250 50 0 empty empty empty 17 7 0 10 -262144 -1
-1;
#X obj 74 245 bng 30 250 50 0 empty empty empty 17 7 0 10 -262144 -1
-1;
#X obj 130 184 bng 30 250 50 0 empty empty empty 17 7 0 10 -262144
-1 -1;
#X obj 187 183 bng 30 250 50 0 empty empty empty 17 7 0 10 -262144
-1 -1;
#X obj 131 245 bng 30 250 50 0 empty empty empty 17 7 0 10 -262144
-1 -1;
#X obj 188 244 bng 30 250 50 0 empty empty empty 17 7 0 10 -262144
-1 -1;
#X obj 246 181 bng 30 250 50 0 empty empty empty 17 7 0 10 -262144
-1 -1;
#X obj 247 244 bng 30 250 50 0 empty empty empty 17 7 0 10 -262144
-1 -1;
#X obj 16 110 random 10;
#X obj 16 138 sel 0 1 2 3 4 5 6 7 8 9;
#X obj 16 48 tgl 30 0 empty empty empty 17 7 0 10 -262144 -1 -1 0 1
;
#X obj 236 96 catch~ all;
#X obj 236 136 dac~;
#X msg 168 -30 \; pd dsp \$1;
#X obj 73 222 musicbox;
#X obj 17 284 musicbox;
#X obj 74 283 musicbox;
#X obj 130 222 musicbox;
#X obj 187 221 musicbox;
#X obj 131 283 musicbox;
#X obj 188 282 musicbox;
#X obj 246 219 musicbox;
#X obj 247 282 musicbox;
#X obj 166 101 bng 30 250 50 0 empty empty empty 17 7 0 10 -258113
-1 -1;
#X obj 166 139 musicbox2;
#X obj 16 83 metro 50;
#X obj 166 68 metro 300;
#X connect 0 0 2 0;
#X connect 0 1 4 0;
#X connect 1 0 0 0;
#X connect 1 0 21 0;
#X connect 2 0 3 0;
#X connect 4 0 3 0;
#X connect 6 0 5 0;
#X connect 7 0 22 0;
#X connect 8 0 23 0;
#X connect 9 0 24 0;
#X connect 10 0 25 0;
#X connect 11 0 26 0;
#X connect 12 0 27 0;
#X connect 13 0 28 0;
#X connect 14 0 29 0;
#X connect 15 0 30 0;
#X connect 16 0 17 0;
#X connect 17 0 6 0;
#X connect 17 1 7 0;
#X connect 17 2 10 0;
#X connect 17 3 11 0;
#X connect 17 4 14 0;
#X connect 17 5 8 0;
#X connect 17 6 9 0;
#X connect 17 7 12 0;
#X connect 17 8 13 0;
#X connect 17 9 15 0;
#X connect 18 0 33 0;
#X connect 18 0 34 0;
#X connect 19 0 20 0;
#X connect 19 0 20 1;
#X connect 31 0 32 0;
#X connect 33 0 16 0;
#X connect 34 0 31 0;
