#N canvas 297 199 644 619 10;
#X declare -path abs;
#X declare -lib fresh;
#X msg 40 138 play;
#X msg 160 137 play;
#X msg 267 138 play;
#X obj 40 245 *~ 0.2;
#X obj 159 341 *~ 0.2;
#X obj 253 339 *~ 0.2;
#X obj 133 243 *~ 0.2;
#X obj 267 427 *~ 0.2;
#X obj 361 426 *~ 0.2;
#X text 253 511 When playing multiple files simultaneously it is fairly
easy to CLIP the souldcard. There are many ways to stop this from happening.
One way is to simply decreas the volue of the sample being played.
this could simply be a [*~ 0.2] after every outlet.;
#X text 160 26 If you have your "suvpafnd" folder in ~/Library/PD you
can simply use [import suvpafnd] to have access to all the opbjects.
;
#X obj 43 84 declare -path abs;
#X text 157 82 If you put these abstractions into you project/patch
folder in another folder called "abs" you can use [declare] instead.
;
#X msg 79 190 sr 44100;
#X msg 184 292 sr 44100;
#X msg 317 375 sr 44100;
#X obj 317 354 loadbang;
#X obj 185 269 loadbang;
#X obj 79 168 loadbang;
#X text 380 375 You must set the sample rate.;
#X text 246 292 You must set the sample rate.;
#X text 139 190 You must set the sample rate.;
#X obj 44 30 import fresh;
#X obj 40 529 snd.output;
#X obj 160 315 snd.sample~ \$0-organ-02 _samples/organ-02.wav;
#X obj 40 216 snd.sample~ \$0-organ-01 _samples/organ-01.wav;
#X obj 267 399 snd.sample~ \$0-organ-03 samples/organ-03.wav;
#X connect 0 0 25 0;
#X connect 1 0 24 0;
#X connect 2 0 26 0;
#X connect 3 0 23 0;
#X connect 4 0 23 0;
#X connect 5 0 23 1;
#X connect 6 0 23 1;
#X connect 7 0 23 0;
#X connect 8 0 23 1;
#X connect 13 0 25 0;
#X connect 14 0 24 0;
#X connect 15 0 26 0;
#X connect 16 0 15 0;
#X connect 17 0 14 0;
#X connect 18 0 13 0;
#X connect 24 0 4 0;
#X connect 24 1 5 0;
#X connect 25 0 3 0;
#X connect 25 1 6 0;
#X connect 26 0 7 0;
#X connect 26 1 8 0;
