#N canvas 135 78 585 669 10;
#X floatatom 281 77 5 0 0 0 - - -, f 5;
#X obj 281 34 loadbang;
#X msg 281 56 90;
#X floatatom 279 214 5 0 0 0 - - -, f 5;
#X obj 279 171 loadbang;
#X msg 279 193 90;
#X floatatom 278 344 5 0 0 0 - - -, f 5;
#X obj 278 301 loadbang;
#X msg 278 323 90;
#X floatatom 272 468 5 0 0 0 - - -, f 5;
#X obj 272 425 loadbang;
#X msg 272 447 90;
#X obj 78 63 phasor~;
#X obj 76 547 hip~ 5;
#X floatatom 117 33 5 0 0 0 - - -, f 5;
#X obj 76 575 dac~;
#X floatatom 272 538 10 0 0 0 - - -, f 10;
#X floatatom 279 400 10 0 0 0 - - -, f 10;
#X floatatom 279 275 10 0 0 0 - - -, f 10;
#X floatatom 281 138 10 0 0 0 - - -, f 10;
#X obj 128 118 fresh/snd.phaseloop~ drums;
#X obj 279 486 r \$0-reload;
#X obj 288 360 r \$0-reload;
#X obj 287 232 r \$0-reload;
#X obj 291 94 r \$0-reload;
#X obj 132 233 *~ 0.5;
#X obj 128 97 *~ 0.5;
#X obj 119 355 *~ 0.5;
#X obj 126 478 *~ 0.5;
#X msg 187 208 0.25;
#X msg 188 186 0.5;
#X msg 188 164 1;
#X msg 78 11 0;
#X msg 111 12 0.25;
#X msg 180 88 0.25;
#X msg 181 66 0.5;
#X msg 181 44 1;
#X msg 175 330 0.25;
#X msg 176 308 0.5;
#X msg 176 286 1;
#X msg 182 472 0.25;
#X msg 183 450 0.5;
#X msg 183 425 1;
#N canvas 0 22 377 676 \$0-loadarrays 0;
#X obj 40 539 array define drums;
#X obj 40 563 array define bass;
#X obj 40 586 array define guitar;
#X obj 40 610 array define keys;
#X obj 40 458 soundfiler;
#X msg 47 247 read -resize ../_samples/loops/\$1.wav bass;
#X msg 40 159 read -resize ../_samples/loops/\$1.wav drums;
#X msg 58 335 read -resize ../_samples/loops/\$1.wav guitar;
#X msg 67 424 read -resize ../_samples/loops/\$1.wav keys;
#X obj 40 117 random 5;
#X obj 40 95 r \$0-newsamp;
#X obj 47 203 random 5;
#X obj 47 181 r \$0-newsamp;
#X obj 58 290 random 5;
#X obj 58 269 r \$0-newsamp;
#X obj 67 379 random 5;
#X obj 67 358 r \$0-newsamp;
#X obj 40 67 s \$0-newsamp;
#X obj 62 37 bng 15 250 50 0 empty empty empty 17 7 0 10 -262144 -1
-1;
#X obj 40 138 + 100;
#X obj 67 401 + 400;
#X obj 58 313 + 300;
#X obj 47 226 + 200;
#X obj 40 481 t b;
#X obj 40 505 s \$0-reload;
#X obj 40 16 inlet;
#X connect 4 0 23 0;
#X connect 5 0 4 0;
#X connect 6 0 4 0;
#X connect 7 0 4 0;
#X connect 8 0 4 0;
#X connect 9 0 19 0;
#X connect 10 0 9 0;
#X connect 11 0 22 0;
#X connect 12 0 11 0;
#X connect 13 0 21 0;
#X connect 14 0 13 0;
#X connect 15 0 20 0;
#X connect 16 0 15 0;
#X connect 18 0 17 0;
#X connect 19 0 6 0;
#X connect 20 0 8 0;
#X connect 21 0 7 0;
#X connect 22 0 5 0;
#X connect 23 0 24 0;
#X connect 25 0 17 0;
#X restore 420 79 pd \$0-loadarrays;
#X obj 422 29 bng 15 250 50 0 empty empty empty 17 7 0 10 -262144 -1
-1;
#X obj 119 381 fresh/snd.phaseloop~ guitar;
#X obj 132 255 fresh/snd.phaseloop~ bass;
#X obj 125 504 fresh/snd.phaseloop~ keys;
#X connect 0 0 20 1;
#X connect 1 0 2 0;
#X connect 2 0 0 0;
#X connect 3 0 46 1;
#X connect 4 0 5 0;
#X connect 5 0 3 0;
#X connect 6 0 45 1;
#X connect 7 0 8 0;
#X connect 8 0 6 0;
#X connect 9 0 47 1;
#X connect 10 0 11 0;
#X connect 11 0 9 0;
#X connect 12 0 25 0;
#X connect 12 0 26 0;
#X connect 12 0 27 0;
#X connect 12 0 28 0;
#X connect 13 0 15 0;
#X connect 13 0 15 1;
#X connect 14 0 12 0;
#X connect 20 0 13 0;
#X connect 20 1 19 0;
#X connect 21 0 47 1;
#X connect 22 0 45 1;
#X connect 23 0 46 1;
#X connect 24 0 20 1;
#X connect 25 0 46 0;
#X connect 26 0 20 0;
#X connect 27 0 45 0;
#X connect 28 0 47 0;
#X connect 29 0 25 1;
#X connect 30 0 25 1;
#X connect 31 0 25 1;
#X connect 32 0 12 0;
#X connect 33 0 12 0;
#X connect 34 0 26 1;
#X connect 35 0 26 1;
#X connect 36 0 26 1;
#X connect 37 0 27 1;
#X connect 38 0 27 1;
#X connect 39 0 27 1;
#X connect 40 0 28 1;
#X connect 41 0 28 1;
#X connect 42 0 28 1;
#X connect 44 0 43 0;
#X connect 45 0 13 0;
#X connect 45 1 17 0;
#X connect 46 0 13 0;
#X connect 46 1 18 0;
#X connect 47 0 13 0;
#X connect 47 1 16 0;
