#N canvas 694 326 562 448 10;
#X declare -lib fresh;
#X obj 60 13 import fresh;
#X obj 70 213 num.filefolder;
#X obj 236 167 num.urn;
#X msg 70 105 bang;
#X obj 22 338 print;
#X msg 82 132 path ../*;
#X msg 275 191 clear \, bang;
#X msg 237 136 bang;
#X obj 173 102 num.prevnext 0;
#X msg 173 35 down;
#X msg 188 58 up;
#X msg 221 72 max \$1;
#X obj 151 252 s \$0-filenums;
#X obj 274 139 r \$0-filenums;
#X obj 221 49 r \$0-filenums;
#X text 270 99 <-- recall files/folders sequentially;
#X text 293 166 <-- recall files/folders randomly;
#X obj 76 363 cyclone/tosymbol;
#X obj 76 338 cyclone/sprintf %s/avid;
#X obj 76 385 print avid;
#X obj 230 363 cyclone/tosymbol;
#X obj 230 338 cyclone/sprintf %s/bvid;
#X obj 230 385 print bvid;
#X connect 1 0 4 0;
#X connect 1 0 18 0;
#X connect 1 0 21 0;
#X connect 1 1 12 0;
#X connect 2 0 1 1;
#X connect 2 1 6 0;
#X connect 3 0 1 0;
#X connect 5 0 1 0;
#X connect 6 0 2 0;
#X connect 7 0 2 0;
#X connect 8 0 1 1;
#X connect 9 0 8 0;
#X connect 10 0 8 0;
#X connect 11 0 8 0;
#X connect 13 0 2 1;
#X connect 14 0 11 0;
#X connect 17 0 19 0;
#X connect 18 0 17 0;
#X connect 20 0 22 0;
#X connect 21 0 20 0;
