#N canvas 452 22 758 823 10;
#X declare -lib fresh;
#X obj 60 13 import fresh;
#X obj 456 389 num.urn;
#X msg 495 413 clear \, bang;
#X msg 457 358 bang;
#X obj 208 120 num.prevnext 0;
#X msg 208 53 down;
#X msg 223 76 up;
#X msg 256 90 max \$1;
#X obj 494 361 r \$0-filenums;
#X text 305 117 <-- recall files/folders sequentially;
#X text 513 388 <-- recall files/folders randomly;
#X obj 558 292 cyclone/tosymbol;
#X obj 558 267 cyclone/sprintf %s/avid;
#X obj 69 502 print avid;
#X obj 322 491 print bvid;
#X msg 82 132 open ../* \, bang;
#X msg 70 105 open;
#X obj 157 234 s \$0-foldernums;
#X obj 256 67 r \$0-foldernums;
#X obj 440 490 s \$0-filenums;
#X obj 172 403 num.urn;
#X msg 211 427 clear \, bang;
#X msg 173 372 bang;
#X obj 211 379 r \$0-filenums;
#X obj 159 485 s \$0-filenums;
#X floatatom 238 144 5 0 0 0 - - -;
#X obj 222 617 pix_film;
#X obj 222 550 gemhead;
#X obj 221 692 pix_mix;
#X obj 218 718 pix_texture;
#X obj 222 749 rectangle 5 4;
#X obj 267 647 s \$0-filmenda;
#X obj 267 575 r \$0-filmenda;
#X msg 267 596 0;
#X obj 472 618 pix_film;
#X obj 472 551 gemhead;
#X msg 517 597 0;
#X obj 517 576 r \$0-filmendb;
#X obj 517 648 s \$0-filmendb;
#X obj 456 333 r \$0-filmendb;
#X obj 173 349 r \$0-filmenda;
#X msg 175 660 auto 1;
#X msg 410 665 auto 1;
#X msg 117 594 open \$1;
#X msg 418 584 open \$1;
#X obj 516 226 gemwin;
#X msg 520 183 dimen 640 480 \, create \, 1;
#X msg 491 156 0 \, destroy;
#X obj 70 455 file.filefolder;
#X obj 70 213 file.filefolder;
#X obj 321 452 file.filefolder;
#X msg 320 421 /bvid/*.mov \, open \$1;
#X msg 93 385 add /avid/*.mov;
#X msg 70 430 add /avid/*.mov \, open \$1;
#X connect 1 0 50 1;
#X connect 1 1 2 0;
#X connect 2 0 1 0;
#X connect 3 0 1 0;
#X connect 4 0 25 0;
#X connect 4 0 49 1;
#X connect 5 0 4 0;
#X connect 6 0 4 0;
#X connect 7 0 4 0;
#X connect 8 0 1 1;
#X connect 12 0 11 0;
#X connect 15 0 49 0;
#X connect 16 0 49 0;
#X connect 18 0 7 0;
#X connect 20 0 48 1;
#X connect 20 1 21 0;
#X connect 21 0 20 0;
#X connect 22 0 20 0;
#X connect 23 0 20 1;
#X connect 26 0 28 0;
#X connect 26 2 31 0;
#X connect 27 0 26 0;
#X connect 28 0 29 0;
#X connect 29 0 30 0;
#X connect 32 0 33 0;
#X connect 33 0 26 1;
#X connect 34 0 28 1;
#X connect 34 2 38 0;
#X connect 35 0 34 0;
#X connect 36 0 34 1;
#X connect 37 0 36 0;
#X connect 39 0 3 0;
#X connect 40 0 22 0;
#X connect 41 0 26 0;
#X connect 42 0 34 0;
#X connect 43 0 26 0;
#X connect 44 0 34 0;
#X connect 46 0 45 0;
#X connect 47 0 45 0;
#X connect 48 0 13 0;
#X connect 48 0 43 0;
#X connect 48 1 24 0;
#X connect 49 0 53 0;
#X connect 49 0 51 0;
#X connect 49 1 17 0;
#X connect 50 0 14 0;
#X connect 50 0 44 0;
#X connect 50 1 19 0;
#X connect 51 0 50 0;
#X connect 52 0 48 0;
#X connect 53 0 48 0;
