#N canvas 347 53 806 787 10;
#X declare -lib fresh;
#X obj 58 54 import fresh;
#X obj 395 479 snd.sample~;
#X obj 58 91 gemhead;
#X obj 345 115 vid.window;
#X obj 58 594 pix_texture;
#X obj 58 628 rectangle 5.5 4;
#X msg 95 235 play;
#X msg 104 314 speed \$1;
#X floatatom 104 292 5 0 0 0 - - -;
#X obj 345 88 tgl 15 0 empty empty empty 17 7 0 10 -262144 -1 -1 0
1;
#X obj 83 538 bng 15 250 50 0 empty empty empty 17 7 0 10 -262144 -1
-1;
#X text 106 537 <-- bangs when end is reached;
#X text 158 592 <-- writes video to a texture;
#X text 161 626 <-- write texture to a rectangle;
#X text 419 113 <-- hit "esc" to open/resize window;
#X text 418 86 <-- toggle for second monitor in fullscreen;
#X text 289 208 <-- open a file and play immediately;
#X text 247 171 <-- open a file from local filename;
#X text 112 89 <-- begins the rendering chain;
#X text 136 233 <-- play / loop the file;
#X text 134 256 <-- stop the file/loop from playing;
#X text 145 288 <-- changes the speed of playback;
#X obj 58 376 vid.player2;
#X msg 66 149 open;
#X msg 96 260 pause;
#X floatatom 70 563 5 0 0 0 - - -;
#X text 110 562 <-- number of frames;
#X msg 73 186 open _samples/anim.mov;
#X msg 83 210 open _samples/anim.mov \, play;
#X obj 422 402 print;
#X text 463 402 <-- path/file loaded;
#X msg 395 328 scratch \$1;
#X obj 397 674 dac~;
#X floatatom 499 618 10 0 0 0 - - -;
#X floatatom 556 587 10 0 0 0 - - -;
#X text 623 585 <-- number of samples;
#X text 567 617 <-- length of sample in milliseconds;
#X obj 499 558 unpack 0 0;
#X obj 426 582 snapshot~;
#X floatatom 426 605 10 0 0 0 - - -;
#X msg 446 558 bang;
#X floatatom 108 460 10 0 0 0 - - -;
#X floatatom 121 402 5 0 0 0 - - -;
#X obj 121 424 /;
#X floatatom 395 307 5 0 0 0 - - -;
#X obj 95 490 s \$0-filepath;
#X obj 411 352 r \$0-filepath;
#X obj 411 377 file.swapext wav;
#X msg 411 447 open \$1;
#X obj 411 425 symbol;
#X connect 1 0 32 0;
#X connect 1 0 32 1;
#X connect 1 1 38 0;
#X connect 1 2 37 0;
#X connect 2 0 22 0;
#X connect 4 0 5 0;
#X connect 6 0 22 0;
#X connect 7 0 22 0;
#X connect 8 0 7 0;
#X connect 9 0 3 0;
#X connect 22 0 4 0;
#X connect 22 1 25 0;
#X connect 22 2 10 0;
#X connect 22 3 45 0;
#X connect 22 4 41 0;
#X connect 22 5 42 0;
#X connect 23 0 22 0;
#X connect 24 0 22 0;
#X connect 25 0 43 1;
#X connect 27 0 22 0;
#X connect 28 0 22 0;
#X connect 31 0 1 0;
#X connect 37 0 33 0;
#X connect 37 1 34 0;
#X connect 38 0 39 0;
#X connect 40 0 38 0;
#X connect 42 0 43 0;
#X connect 43 0 44 0;
#X connect 44 0 31 0;
#X connect 46 0 47 0;
#X connect 47 0 29 0;
#X connect 47 0 49 0;
#X connect 48 0 1 0;
#X connect 49 0 48 0;
