#N canvas 102 23 982 680 10;
#X obj 418 359 osc~ 50;
#X obj 46 153 phasor~;
#X obj 46 128 expr~ (1/$v1)*$v2;
#X obj 433 407 expr~ fmod($v1*$v2 \, 1);
#X obj 433 429 expr~ if($v1<0.5 \, 1 \, 0);
#X obj 418 456 *~;
#X obj 520 203 expr~ fmod($v1*$v2 \, 1);
#X obj 520 248 expr~ if($v1<0.5 \, 1 \, 0);
#X obj 505 275 *~;
#X obj 520 226 expr~ fmod($v1*$v2 \, 1);
#X obj 505 159 osc~ 1000;
#X obj 48 637 dac~;
#X obj 626 320 expr~ fmod($v1*$v2 \, 1);
#X obj 611 394 *~;
#X obj 626 343 expr~ fmod($v1*$v2 \, 1);
#X obj 612 272 noise~;
#X obj 626 365 expr~ if($v1<0.15 \, 1 \, 0);
#X obj 767 320 sig~ 64;
#X obj 755 273 expr~ $v1%2;
#X obj 630 417 *~ 5000;
#X obj 611 485 *~ 2;
#X obj 611 462 vcf~ 20;
#X obj 45 231 expr~ fmod($v1*$v2 \, 1);
#X obj 45 255 expr~ if($v1<0.5 \, 1 \, 0);
#X obj 147 322 expr~ fmod($v1*$v2 \, 1);
#X obj 147 367 expr~ if($v1<0.5 \, 1 \, 0);
#X obj 147 345 expr~ fmod($v1*$v2 \, 1);
#X obj 294 321 sig~ 0.5;
#X obj 418 335 expr~ if($v1==3 \, 100 \, 50);
#X obj 174 176 expr~ $v1%2;
#X obj 333 132 sig~ 16;
#X obj 577 38 sig~ 16;
#X obj 418 81 expr~ $v1%8;
#X obj 650 158 expr~ if($v1==3 \, 0.5 \, 0.55);
#X obj 174 197 expr~ if($v1 \, 32 \, 128);
#X obj 755 295 expr~ if($v1 \, 32 \, 256);
#X obj 46 178 s~ \$0-phasor;
#X obj 45 207 r~ \$0-phasor;
#X obj 174 126 r~ \$0-phasor;
#X obj 147 282 r~ \$0-phasor;
#X obj 433 382 r~ \$0-phasor;
#X obj 418 37 r~ \$0-phasor;
#X obj 626 295 r~ \$0-phasor;
#X obj 755 230 r~ \$0-phasor;
#X obj 520 183 r~ \$0-phasor;
#X obj 45 486 catch~ \$0-sig1;
#X obj 611 510 throw~ \$0-sig1;
#X obj 147 390 throw~ \$0-sig2;
#X obj 45 278 throw~ \$0-sig2;
#X obj 61 511 catch~ \$0-sig2;
#X obj 46 534 *~;
#X obj 418 480 throw~ \$0-sig1;
#X obj 562 383 sig~ 9;
#X obj 914 230 sig~ 16;
#X obj 661 203 sig~ 64;
#X obj 768 343 sig~ 0.5;
#X obj 505 137 expr~ if($v1==1 \, 80 \, 150);
#X obj 505 300 throw~ \$0-sig1;
#X obj 251 528 tgl 15 0 empty empty record 17 7 0 8 -262144 -1 -1 0
1;
#X obj 266 554 loadbang;
#X msg 266 578 save /Users/megrimm/Desktop;
#X msg 267 605 samprate 96000;
#X obj 294 298 nbx 3 16 -1e+37 1e+37 0 0 empty empty empty 0 -8 0 10
-261234 -1 -1 0 256;
#X obj 333 110 nbx 3 16 -1e+37 1e+37 0 0 empty empty empty 0 -8 0 10
-261234 -1 -1 0 256;
#X obj 145 83 nbx 3 16 -1e+37 1e+37 0 0 empty empty empty 0 -8 0 10
-261234 -1 -1 0 256;
#X obj 46 82 nbx 3 16 -1e+37 1e+37 0 0 empty empty empty 0 -8 0 10
-261234 -1 -1 0 256;
#X obj 577 18 nbx 3 16 -1e+37 1e+37 0 0 empty empty empty 0 -8 0 10
-261234 -1 -1 0 256;
#X obj 914 209 nbx 3 16 -1e+37 1e+37 0 0 empty empty empty 0 -8 0 10
-261234 -1 -1 0 256;
#X obj 661 182 nbx 3 16 -1e+37 1e+37 0 0 empty empty empty 0 -8 0 10
-261234 -1 -1 0 256;
#X obj 563 360 nbx 3 16 -1e+37 1e+37 0 0 empty empty empty 0 -8 0 10
-261234 -1 -1 0 256;
#X obj 669 396 nbx 3 16 -1e+37 1e+37 0 0 empty empty empty 0 -8 0 10
-261234 -1 -1 0 256;
#X obj 650 441 nbx 3 16 -1e+37 1e+37 0 0 empty empty empty 0 -8 0 10
-261234 -1 -1 0 256;
#X obj 139 636 fresh/mix.recorder~;
#X obj 174 155 expr~ floor($v1/(1/$v2));
#X obj 418 60 expr~ floor($v1/(1/$v2));
#X obj 755 252 expr~ floor($v1/(1/$v2));
#X obj 46 104 sig~ 16;
#X obj 145 103 sig~ 3;
#X connect 0 0 5 0;
#X connect 1 0 36 0;
#X connect 2 0 1 0;
#X connect 3 0 4 0;
#X connect 4 0 5 1;
#X connect 5 0 51 0;
#X connect 6 0 9 0;
#X connect 6 0 19 0;
#X connect 7 0 8 1;
#X connect 8 0 57 0;
#X connect 9 0 7 0;
#X connect 10 0 8 0;
#X connect 12 0 14 0;
#X connect 13 0 21 0;
#X connect 14 0 16 0;
#X connect 15 0 13 0;
#X connect 16 0 13 1;
#X connect 17 0 12 1;
#X connect 18 0 35 0;
#X connect 19 0 21 1;
#X connect 20 0 46 0;
#X connect 21 0 20 0;
#X connect 22 0 23 0;
#X connect 23 0 48 0;
#X connect 24 0 26 0;
#X connect 25 0 47 0;
#X connect 26 0 25 0;
#X connect 27 0 26 1;
#X connect 28 0 0 0;
#X connect 29 0 34 0;
#X connect 30 0 73 1;
#X connect 31 0 74 1;
#X connect 32 0 28 0;
#X connect 32 0 33 0;
#X connect 32 0 56 0;
#X connect 33 0 9 1;
#X connect 34 0 24 1;
#X connect 34 0 22 1;
#X connect 35 0 12 1;
#X connect 37 0 22 0;
#X connect 38 0 73 0;
#X connect 39 0 24 0;
#X connect 40 0 3 0;
#X connect 41 0 74 0;
#X connect 42 0 12 0;
#X connect 43 0 75 0;
#X connect 44 0 6 0;
#X connect 45 0 50 0;
#X connect 49 0 50 1;
#X connect 50 0 11 0;
#X connect 50 0 11 1;
#X connect 50 0 72 0;
#X connect 50 0 72 1;
#X connect 52 0 3 1;
#X connect 53 0 75 1;
#X connect 54 0 6 1;
#X connect 55 0 14 1;
#X connect 56 0 10 0;
#X connect 58 0 72 2;
#X connect 59 0 60 0;
#X connect 60 0 72 2;
#X connect 61 0 72 2;
#X connect 62 0 27 0;
#X connect 63 0 30 0;
#X connect 64 0 77 0;
#X connect 65 0 76 0;
#X connect 66 0 31 0;
#X connect 67 0 53 0;
#X connect 68 0 54 0;
#X connect 69 0 52 0;
#X connect 70 0 19 1;
#X connect 71 0 21 2;
#X connect 73 0 29 0;
#X connect 74 0 32 0;
#X connect 75 0 18 0;
#X connect 76 0 2 0;
#X connect 77 0 2 1;
