#N canvas 144 23 897 652 10;
#X obj 206 421 dac~;
#X obj 64 65 fexpr~ fmod($y1+(40.0+5.0*floor(5.0*fmod(100.0*$y5 \,
1.0)+fmod(8.0*floor(64.0*$y4) \, 5.0)))/48000.0 \, 1.0) \; $y1*2.0*3.1415926
\; sin($y2+1.7*sin(2.0*(fmod(16.0*(pow(1.2-$y4 \, fmod(24.0*$y4 \,
2.0))) \, 1.0)+0.5)*((1.0-$y4)*sin($y3[-16])+$y4*sin($y3[-24])))) \;
fmod($y4+$y5/48000.0 \, 1.0) \; if($y4<=$y4[-2] \, random(500.0 \,
2000.0)*0.0001 \, $y5*0.001+0.999*$y5[-2]), f 129;
#X connect 1 0 0 0;
#X connect 1 0 0 1;
#X connect 1 3 0 0;
#X connect 1 3 0 1;
#X connect 1 4 0 1;
#X connect 1 4 0 0;
