#N canvas 417 51 821 765 10;
#X declare -stdpath ~/Library/Pd/fresh/_extra/purest_json;
#X declare -stdpath ~/Library/Pd/fresh;
#X obj 74 301 print status1;
#X obj 47 279 oauth;
#X obj 74 211 loadbang;
#X msg 47 153 POST /1.1/statuses/update.json \$1;
#X obj 47 104 urlparams;
#X obj 55 127 print urlparams;
#X obj 47 322 json-decode;
#X msg 74 232 sslcheck 0;
#X obj 47 347 list trim;
#X obj 47 370 route statuses;
#X obj 47 393 json-decode;
#X obj 47 416 list trim;
#X obj 47 438 route text user;
#X obj 90 458 json-decode;
#X obj 90 480 list trim;
#X obj 90 503 route screen_name;
#X msg 90 547 @\$1;
#X obj 90 525 symbol;
#X obj 90 707 print;
#X obj 90 568 symbol;
#X obj 90 664 pack s s;
#X obj 261 618 symbol;
#X obj 105 589 fresh/num.changesym;
#X obj 90 613 t a b;
#X obj 117 634 s \$0-linebng;
#X obj 257 551 r \$0-linebng;
#X msg 261 589 boooooo;
#X obj 357 592 file.randomline;
#X obj 444 538 loadbang;
#X msg 444 566 file.randomline.txt;
#X obj 357 569 bng 15 250 50 0 empty empty empty 17 7 0 10 -262144
-1 -1;
#X obj 357 618 print;
#X obj 241 243 loadbang;
#X msg 232 446 init https://api.twitter.com \$1 \$2 \$3 \$4;
#X obj 232 422 pack s s s s;
#X obj 232 266 t b b b b;
#X obj 375 387 symbol;
#X obj 325 362 symbol;
#X obj 279 338 symbol;
#X obj 232 313 symbol;
#X text 373 293 <-- consumer key;
#X text 551 316 <-- consumer secret;
#X text 639 337 <-- access token;
#X text 656 365 <-- access token secret;
#X msg 232 293 PKe3YB6RBQ5A9ljJ8Srnbg;
#X msg 279 316 3lunRI7kVFwYWmuhg15M9owcpWnWxydS7eYCf1YbYI;
#X obj 232 224 bng 15 250 50 0 empty empty empty 17 7 0 10 -262144
-1 -1;
#X msg 57 80 clear \, add status #timeforsleep \, bang;
#X obj 232 473 s \$0-authentication;
#X obj 76 254 r \$0-authentication;
#X obj 47 21 bng 25 250 50 0 empty empty empty 17 7 0 10 -258113 -1
-1;
#X msg 47 58 clear \, add status #sleeptime TEST \, bang;
#X text 84 25 TWEET - Click here to test;
#X msg 66 181 GET /1.1/search/tweets.json?q=%23sleeptime&count=1;
#X msg 90 685 clear \, add status \$1 #timeforsleep \$2 \, bang;
#X msg 325 339 2324235169-eCYBN4g9z6WRMyOBfYvMtNSZJfqhZc5MIKxqZnD;
#X msg 375 365 XdEfbyDs0nxSCkaXFjb17f64SDcDFaG8R8Kw71DcYAe2o;
#X obj 365 56 declare -stdpath ~/Library/Pd/fresh/_extra/purest_json
;
#X obj 365 77 declare -stdpath ~/Library/Pd/fresh;
#X connect 1 0 6 0;
#X connect 1 1 0 0;
#X connect 2 0 7 0;
#X connect 3 0 1 0;
#X connect 4 0 3 0;
#X connect 4 0 5 0;
#X connect 6 0 8 0;
#X connect 7 0 1 0;
#X connect 8 0 9 0;
#X connect 9 0 10 0;
#X connect 10 0 11 0;
#X connect 11 0 12 0;
#X connect 12 1 13 0;
#X connect 13 0 14 0;
#X connect 14 0 15 0;
#X connect 15 0 17 0;
#X connect 16 0 19 0;
#X connect 17 0 16 0;
#X connect 19 0 23 0;
#X connect 20 0 54 0;
#X connect 21 0 20 1;
#X connect 22 0 23 0;
#X connect 23 0 20 0;
#X connect 23 1 24 0;
#X connect 25 0 26 0;
#X connect 26 0 21 0;
#X connect 27 0 31 0;
#X connect 28 0 29 0;
#X connect 29 0 27 1;
#X connect 30 0 27 0;
#X connect 32 0 35 0;
#X connect 33 0 48 0;
#X connect 34 0 33 0;
#X connect 35 0 44 0;
#X connect 35 1 45 0;
#X connect 35 2 55 0;
#X connect 35 3 56 0;
#X connect 36 0 34 3;
#X connect 37 0 34 2;
#X connect 38 0 34 1;
#X connect 39 0 34 0;
#X connect 44 0 39 0;
#X connect 45 0 38 0;
#X connect 46 0 35 0;
#X connect 47 0 4 0;
#X connect 49 0 1 0;
#X connect 50 0 51 0;
#X connect 51 0 4 0;
#X connect 53 0 1 0;
#X connect 54 0 18 0;
#X connect 55 0 37 0;
#X connect 56 0 36 0;
