#N canvas 370 74 979 766 10;
#X obj 79 723 dac~;
#X floatatom 85 232 5 0 0 0 - - -, f 5;
#X obj 85 319 fresh/snd.bytebeat~ $v1&($v1>>4)>>3&$v1>>7;
#X obj 209 272 fresh/snd.bytebeat~ ((((($v1>>12)^($v1>>12)-2)%11*$v1)/4|$v1>>13)&127)
, f 71;
#X obj 85 571 bob~;
#X floatatom 222 493 5 0 0 0 - - -, f 5;
#X floatatom 262 493 5 0 0 0 - - -, f 5;
#X obj 262 512 / 25;
#X obj 209 533 bob~, f 5;
#X floatatom 95 528 5 0 0 0 - - -, f 5;
#X floatatom 135 528 5 0 0 0 - - -, f 5;
#X obj 135 547 / 25;
#X obj 95 480 loadbang;
#X msg 95 506 80;
#X msg 135 505 90;
#X obj 222 444 loadbang;
#X msg 262 470 95;
#X msg 222 470 271;
#X obj 117 153 loadbang;
#X msg 117 183 112.1;
#X obj 397 391 snapshot~;
#X floatatom 397 416 10 0 0 0 - - -, f 10;
#X obj 471 362 bng 15 250 50 0 empty empty empty 17 7 0 10 -262144
-1 -1;
#X obj 397 358 metro 100;
#X msg 397 332 1;
#X msg 431 331 0;
#X msg 171 184 0;
#X obj 397 434 sel 0;
#X obj 39 104 metro 100;
#X obj 38 150 f;
#X obj 78 150 + 1;
#X msg 39 81 1;
#X msg 80 82 0;
#X obj 397 520 s \$0-counton;
#X obj 39 39 r \$0-counton;
#X obj 424 498 s \$0-countoff;
#X obj 424 476 fresh/bng.once;
#X obj 424 456 t b;
#X obj 505 455 r \$0-counton;
#X obj 80 61 r \$0-countoff;
#X msg 53 128 0;
#X msg 632 249 ((((($v1>>12)^($v1>>12)-2)%11*$v1)/4|$v1>>13)&127);
#X msg 334 297 $v1&($v1>>4)>>3&$v1>>7;
#X obj 38 170 / 100;
#X obj 209 644 fresh/snd.fx.dubdel~;
#X msg 326 607 dry 0.2 \, bq 2 \, basedur 1500 \, bpitch 83 \, feedback
0.99 \, dell 2 \, delr 3 \,;
#X obj 85 601 fresh/snd.fx.dubdel~;
#X msg 202 564 dry 0.2 \, bq 2 \, basedur 1500 \, bpitch 83 \, feedback
0.99 \, dell 2 \, delr 3 \,;
#X msg 597 163 (($v1>>4&$v1)|($v1>>8|$v1%7)+17*sin($v1))-25;
#X connect 1 0 2 0;
#X connect 1 0 3 0;
#X connect 2 0 4 0;
#X connect 3 0 8 0;
#X connect 3 0 20 0;
#X connect 4 0 46 0;
#X connect 4 0 46 1;
#X connect 5 0 8 1;
#X connect 6 0 7 0;
#X connect 7 0 8 2;
#X connect 8 0 44 0;
#X connect 8 0 44 1;
#X connect 9 0 4 1;
#X connect 10 0 11 0;
#X connect 11 0 4 2;
#X connect 12 0 13 0;
#X connect 12 0 14 0;
#X connect 13 0 9 0;
#X connect 14 0 10 0;
#X connect 15 0 17 0;
#X connect 15 0 16 0;
#X connect 16 0 6 0;
#X connect 17 0 5 0;
#X connect 18 0 19 0;
#X connect 19 0 1 0;
#X connect 20 0 21 0;
#X connect 21 0 27 0;
#X connect 22 0 20 0;
#X connect 23 0 20 0;
#X connect 24 0 23 0;
#X connect 25 0 23 0;
#X connect 26 0 1 0;
#X connect 27 0 33 0;
#X connect 27 1 37 0;
#X connect 28 0 29 0;
#X connect 29 0 30 0;
#X connect 29 0 43 0;
#X connect 30 0 29 1;
#X connect 31 0 28 0;
#X connect 32 0 28 0;
#X connect 34 0 31 0;
#X connect 36 0 35 0;
#X connect 37 0 36 0;
#X connect 38 0 36 1;
#X connect 39 0 32 0;
#X connect 40 0 29 1;
#X connect 41 0 3 1;
#X connect 42 0 2 1;
#X connect 43 0 1 0;
#X connect 44 0 0 0;
#X connect 44 0 0 1;
#X connect 45 0 44 2;
#X connect 46 0 0 0;
#X connect 46 1 0 1;
#X connect 47 0 46 2;
#X connect 48 0 3 1;
