#N canvas 590 38 784 449 10;
#X obj 85 247 print;
#X obj 141 330 netsend -u -b;
#X msg 176 282 connect localhost 23867;
#X obj 176 259 loadbang;
#X obj 141 353 tgl 15 0 empty empty empty 17 7 0 10 #fcfcfc #000000
#000000 0 1;
#X obj 136 38 hsl 300 15 0 299 0 0 empty empty empty -2 -8 0 10 #fcfcfc
#000000 #000000 0 0;
#X obj 133 59 / 10;
#X msg 175 304 disconnect;
#X obj 619 68 metro 33.3333;
#X obj 619 89 float;
#X obj 657 90 + 1, f 4;
#X obj 619 46 tgl 15 0 empty empty empty 17 7 0 10 #fcfcfc #000000
#000000 0 1;
#X floatatom 629 116 5 0 0 0 - - - 0;
#X obj 619 136 / 30;
#X floatatom 618 158 5 0 0 0 - - - 0;
#X text 97 399 ex: mplayer -udp-slave ~/Library/Pd/fresh/_samples/homer.avi
;
#X obj 141 138 list prepend send;
#X msg 162 234 send \$1;
#X floatatom 162 190 5 0 0 0 - - - 0;
#X obj 163 209 / 29.97;
#X obj 378 326 print;
#X obj 435 326 print 2;
#X obj 141 117 list fromsymbol;
#X symbolatom 182 92 10 0 0 0 - - - 0;
#X obj 378 303 ggee/shell;
#X msg 378 280 mplayer -udp-slave /Users/megrimm/Desktop/homer.avi
, f 56;
#X text 376 259 this does not work. why not?;
#X floatatom 217 209 5 0 0 0 - - - 0;
#X obj 140 163 list trim;
#X obj 132 89 symbol;
#X text 166 352 <-- connection status;
#X connect 1 0 4 0;
#X connect 2 0 1 0;
#X connect 3 0 2 0;
#X connect 5 0 6 0;
#X connect 6 0 29 0;
#X connect 7 0 1 0;
#X connect 8 0 9 0;
#X connect 9 0 10 0;
#X connect 9 0 12 0;
#X connect 9 0 13 0;
#X connect 10 0 9 1;
#X connect 11 0 8 0;
#X connect 13 0 14 0;
#X connect 13 0 22 0;
#X connect 16 0 0 0;
#X connect 16 0 28 0;
#X connect 17 0 1 0;
#X connect 18 0 19 0;
#X connect 19 0 17 0;
#X connect 22 0 16 0;
#X connect 23 0 22 0;
#X connect 24 0 20 0;
#X connect 24 1 21 0;
#X connect 25 0 24 0;
#X connect 27 0 17 0;
#X connect 28 0 1 0;
#X connect 29 0 22 0;
