#N canvas 737 320 652 397 10;
#X obj 70 307 fresh/vid.mapper;
#X obj 55 36 gemhead;
#X obj 285 11 cnv 15 220 70 empty empty empty 20 12 0 14 -195568 -66577
0;
#N canvas 0 22 454 304 gemwin 0;
#X obj 132 136 gemwin;
#X obj 67 89 outlet;
#X obj 67 10 inlet;
#X obj 67 41 route create;
#X msg 67 70 set destroy;
#X msg 182 68 set create;
#X msg 132 112 create \, 1;
#X msg 238 112 destroy;
#N canvas 87 154 247 179 Gem.init 0;
#X obj 32 42 loadbang;
#X msg 32 77 reset;
#X obj 32 109 outlet;
#X msg 189 76 lighting 0;
#X msg 76 81 dimen 800 600;
#X connect 0 0 1 0;
#X connect 0 0 4 0;
#X connect 0 0 3 0;
#X connect 1 0 2 0;
#X connect 3 0 2 0;
#X connect 4 0 2 0;
#X restore 289 80 pd Gem.init;
#X connect 2 0 3 0;
#X connect 3 0 4 0;
#X connect 3 0 6 0;
#X connect 3 1 5 0;
#X connect 3 1 7 0;
#X connect 4 0 1 0;
#X connect 5 0 1 0;
#X connect 6 0 0 0;
#X connect 7 0 0 0;
#X connect 8 0 0 0;
#X restore 290 55 pd gemwin;
#X msg 290 31 destroy;
#X text 286 11 Create window and render;
#X floatatom 501 209 5 0 0 0 - - -, f 5;
#X msg 501 249 movex \$1;
#X floatatom 421 208 5 0 0 0 - - -, f 5;
#X msg 421 248 movey \$1;
#X connect 1 0 0 0;
#X connect 3 0 4 0;
#X connect 4 0 3 0;
#X connect 6 0 7 0;
#X connect 7 0 0 1;
#X connect 8 0 9 0;
#X connect 9 0 0 1;
