#N canvas 360 35 979 763 12;
#X obj 276 575 dac~;
#X obj 276 545 *~;
#X obj 311 543 *~;
#X obj 160 97 openpanel;
#X msg 160 117 open \$1;
#X obj 146 190 pix_film;
#X msg 210 190 0;
#X obj 160 74 bng 15 250 50 0 empty empty empty 17 7 0 10 #fcfcfc #000000
#000000;
#X obj 146 45 gemhead;
#X floatatom 299 334 5 0 0 0 - - - 0;
#X msg 295 312 8;
#X msg 290 291 16;
#X msg 283 269 32;
#X msg 275 247 64;
#X text 342 311 <-- block size;
#X obj 146 552 pix_texture;
#X obj 146 576 rectangle 5 5;
#X obj 168 143 loadbang;
#X msg 168 163 auto 1;
#X obj 326 476 / 100;
#X floatatom 326 453 5 0 100 0 - - - 0;
#X text 366 450 <-- gain;
#X obj 326 407 loadbang;
#X msg 326 430 80;
#X obj 296 120 loadbang;
#X msg 296 144 \; pd dsp 1 \;;
#X obj 275 226 loadbang;
#X msg 297 176 \; pd dsp 0 \;;
#X msg 295 75 0 \, destroy;
#X obj 146 364 fresh/snd.vid2snd~;
#X floatatom 622 314 5 0 0 0 - - - 0;
#X msg 630 340 8;
#X msg 636 361 16;
#X msg 642 385 32;
#X msg 649 409 64;
#X text 680 371 <-- block size should be same as image sent;
#X obj 527 371 vsl 15 128 0 10 0 0 empty empty empty 0 -9 0 10 #fcfcfc
#000000 #000000 0 1;
#X text 545 364 saturation;
#X obj 536 95 adc~;
#X obj 475 562 fresh/vid.snd2vid;
#X obj 295 98 fresh/vid.window;
#X obj 154 473 pix_mix;
#X connect 1 0 0 0;
#X connect 2 0 0 1;
#X connect 3 0 4 0;
#X connect 4 0 5 0;
#X connect 5 0 29 0;
#X connect 5 2 6 0;
#X connect 6 0 5 1;
#X connect 7 0 3 0;
#X connect 8 0 5 0;
#X connect 9 0 29 1;
#X connect 10 0 29 1;
#X connect 11 0 29 1;
#X connect 12 0 29 1;
#X connect 13 0 29 1;
#X connect 15 0 16 0;
#X connect 17 0 18 0;
#X connect 18 0 5 0;
#X connect 19 0 1 1;
#X connect 19 0 2 1;
#X connect 20 0 19 0;
#X connect 22 0 23 0;
#X connect 23 0 20 0;
#X connect 24 0 25 0;
#X connect 26 0 13 0;
#X connect 28 0 40 0;
#X connect 29 1 1 0;
#X connect 29 1 39 1;
#X connect 29 2 2 0;
#X connect 29 2 39 0;
#X connect 30 0 39 3;
#X connect 31 0 39 3;
#X connect 32 0 39 3;
#X connect 33 0 39 3;
#X connect 34 0 39 3;
#X connect 36 0 39 2;
