#N canvas 568 99 632 479 10;
#N canvas 477 58 640 452 sequence-player 0;
#X obj 241 298 fresh/mid.totxt;
#X obj 71 182 fresh/mid.seqplay;
#X obj 71 93 openpanel;
#X obj 71 135 symbol;
#X msg 82 114 bang;
#X msg 71 158 open \$1;
#X msg 297 111 rewind;
#X msg 296 136 next;
#X msg 298 55 bang;
#X msg 298 81 tempo 1;
#X text 342 56 sequence automatically;
#X text 355 81 set relative tempo;
#X text 351 116 go to beginning (and stop);
#X text 339 136 single-step forward;
#X msg 294 191 clear;
#X text 349 190 empty the qlist;
#X msg 296 162 next 1;
#X msg 298 30 print;
#X text 346 29 print contents to Pd window;
#X obj 240 225 s \$0-commands;
#X text 353 160 single-step forward;
#X text 352 173 SUPRESSING MESSAGE-SENDING;
#X floatatom 119 209 5 0 0 0 - - -, f 5;
#X obj 175 209 bng 15 250 50 0 empty empty done 17 7 1 10 -262144 -1
-1;
#X obj 92 398 outlet;
#X obj 71 56 inlet;
#X obj 138 156 r \$0-commands;
#X obj 232 24 inlet;
#X connect 1 0 24 0;
#X connect 1 1 22 0;
#X connect 1 2 23 0;
#X connect 2 0 3 0;
#X connect 3 0 5 0;
#X connect 4 0 3 0;
#X connect 5 0 1 0;
#X connect 6 0 19 0;
#X connect 7 0 19 0;
#X connect 8 0 19 0;
#X connect 9 0 19 0;
#X connect 14 0 19 0;
#X connect 16 0 19 0;
#X connect 17 0 19 0;
#X connect 25 0 2 0;
#X connect 26 0 1 0;
#X connect 27 0 19 0;
#X restore 44 101 pd sequence-player;
#X obj 44 15 bng 24 250 50 0 empty empty load_seq_text_file 28 7 1
10 -4034 -1 -1;
#X msg 161 78 rewind;
#X msg 161 56 next;
#X obj 82 126 print RAW;
#N canvas 823 162 450 300 parser 0;
#X obj 130 142 fresh/mid.parse 1;
#X obj 176 55 fresh/mid.parse 4;
#X obj 157 99 fresh/mid.parse 4;
#X obj 140 23 inlet;
#X obj 101 240 outlet;
#X obj 191 248 outlet;
#X obj 275 240 outlet;
#X connect 0 0 4 0;
#X connect 1 0 6 0;
#X connect 2 0 5 0;
#X connect 3 0 1 0;
#X connect 3 0 2 0;
#X connect 3 0 0 0;
#X restore 45 155 pd parser;
#X obj 45 220 print 1;
#X obj 70 197 print 3;
#X obj 175 241 print 4;
#X obj 166 263 fresh/syn.acbass~;
#X obj 169 330 dac~;
#X floatatom 256 193 5 0 100 0 - - -, f 5;
#X text 293 191 mute strings;
#X text 426 170 pick location;
#X obj 399 151 loadbang;
#X floatatom 398 191 5 2 50 0 - - -, f 5;
#X text 376 191 1/;
#X text 431 191 up string from bridge;
#X msg 398 171 5;
#X obj 256 151 loadbang;
#X msg 256 171 0.989;
#X obj 166 193 list split 1;
#X obj 166 217 - 36;
#X msg 156 35 bang;
#X msg 239 59 tempo \$1;
#X obj 239 37 / 100;
#X floatatom 241 17 5 0 0 0 - - -, f 5;
#X connect 0 0 4 0;
#X connect 0 0 5 0;
#X connect 1 0 0 0;
#X connect 2 0 0 1;
#X connect 3 0 0 1;
#X connect 5 0 6 0;
#X connect 5 1 7 0;
#X connect 5 2 21 0;
#X connect 9 0 10 0;
#X connect 9 0 10 1;
#X connect 11 0 9 1;
#X connect 14 0 18 0;
#X connect 15 0 9 2;
#X connect 18 0 15 0;
#X connect 19 0 20 0;
#X connect 20 0 11 0;
#X connect 21 0 22 0;
#X connect 22 0 9 0;
#X connect 22 0 8 0;
#X connect 23 0 0 1;
#X connect 24 0 0 1;
#X connect 25 0 24 0;
#X connect 26 0 25 0;
