#N canvas 11 457 464 346 10;
#X obj 25 254 r pd;
#X obj 25 276 print;
#X obj 26 108 s pd;
#X obj 76 108 print;
#X obj 26 18 loadbang;
#X obj 26 40 tgl 15 0 empty empty empty 17 7 0 10 -262144 -1 -1 1 1
;
#X obj 26 60 metro 120000;
#X msg 26 86 audio-dialog 0 0 0 0 2 0 0 0 0 0 0 0 2 0 0 0 22050 30
-1 64, f 60;
#X text 152 108 ^ | | | | | | | | | | | |, f 2;
#X text 152 284 Input Channels;
#X text 249 106 ^ | | | | | | | | | |, f 1;
#X text 249 251 Output Channels;
#X text 309 106 ^ | | | | | | |, f 1;
#X text 310 216 Sample Rate;
#X text 336 106 ^ | | | | |, f 1;
#X text 337 187 Delay;
#X text 356 106 ^ | | |, f 1;
#X text 358 163 Callbacks;
#X text 371 106 ^ |, f 1;
#X text 372 136 Block Size;
#X connect 0 0 1 0;
#X connect 4 0 5 0;
#X connect 5 0 6 0;
#X connect 6 0 7 0;
#X connect 7 0 2 0;
#X connect 7 0 3 0;
