#N canvas 240 23 809 699 10;
#X obj 30 49 send \$1;
#X obj 125 49 + \$2;
#X floatatom 202 48 0 0 0 0 - - -;
#X obj 202 99 print;
#X msg 202 73 blah \$1;
#X text 22 123 This may sound inconsistant \, but it's not--object
and message boxes are both actually messages \, but in the case of
the Object box the message is passed at creation time \, and for the
Message box \, at message time.;
#X msg 119 228 bang;
#X obj 119 256 symbol \$1;
#X msg 29 228 bang;
#X obj 29 256 float \$2;
#X floatatom 29 283 5 0 0 0 - - -, f 5;
#X symbolatom 119 285 10 0 0 0 - - -, f 10;
#X text 22 193 So how do you put creation arguments in messages? Use
"float" and "symbol" as shown:;
#X msg 30 339 bang;
#X obj 30 363 float \$2;
#X msg 30 390 five \$1;
#X text 27 317 Then if you wish \, connect to a message box as in:
;
#X obj 30 415 print;
#X msg 35 480 bang;
#X obj 35 532 symbol \$1;
#X obj 129 528 f \$2;
#X obj 35 508 t b b;
#X obj 34 555 pack symbol float;
#X msg 34 581 six \$1 \$2;
#X obj 34 608 print;
#X text 29 447 For messages combining more than one creation argument
try:;
#X text 23 10 In Object boxes \, dollar signs refer to the abstraction's
creation arguments. In Messages \, they change dynamically:;
#X obj 175 513 symbol \$1;
#X obj 175 571 route three;
#X obj 175 604 print;
#X msg 175 485 bang;
#X obj 238 604 print 2;
#X obj 175 542 list trim;
#X obj 328 603 list trim;
#X obj 328 643 print;
#X obj 327 552 symbol \$1;
#X obj 328 580 list prepend set;
#X obj 282 483 loadbang;
#X text 391 489 loadbang creation arg without error;
#X obj 282 526 select 0;
#X obj 282 506 list append \$1;
#X obj 571 257 outlet;
#X text 419 302 If the argument is not equal to 0 \, use it. Pd init
arguments to 0 so unused arguments will be 0;
#X obj 420 157 select 0;
#X text 418 339 This is useful to have internals inited \, but not
reset if there is no argument specified.;
#X obj 420 231 select 0;
#X text 565 209 if 2nd arg \, then use as default value;
#X obj 420 137 list append \$1;
#X obj 420 210 list append \$2;
#X obj 421 64 route bang;
#X obj 420 39 list;
#X msg 420 12 bang me;
#X msg 340 482 bang;
#X obj 660 618 f;
#X obj 648 415 f \$1;
#X obj 654 475 sel 0 1;
#X obj 658 509 f \$1;
#X obj 697 510 f \$2;
#X obj 651 445 == 0;
#X connect 2 0 4 0;
#X connect 4 0 3 0;
#X connect 6 0 7 0;
#X connect 7 0 11 0;
#X connect 8 0 9 0;
#X connect 9 0 10 0;
#X connect 13 0 14 0;
#X connect 14 0 15 0;
#X connect 15 0 17 0;
#X connect 18 0 21 0;
#X connect 19 0 22 0;
#X connect 20 0 22 1;
#X connect 21 0 19 0;
#X connect 21 1 20 0;
#X connect 22 0 23 0;
#X connect 23 0 24 0;
#X connect 27 0 32 0;
#X connect 28 0 29 0;
#X connect 28 1 31 0;
#X connect 30 0 27 0;
#X connect 32 0 28 0;
#X connect 33 0 34 0;
#X connect 35 0 36 0;
#X connect 36 0 33 0;
#X connect 37 0 40 0;
#X connect 39 1 35 0;
#X connect 40 0 39 0;
#X connect 43 0 48 0;
#X connect 43 1 41 0;
#X connect 45 1 41 0;
#X connect 47 0 43 0;
#X connect 48 0 45 0;
#X connect 49 0 47 0;
#X connect 49 1 41 0;
#X connect 50 0 49 0;
#X connect 51 0 50 0;
#X connect 52 0 40 0;
#X connect 54 0 58 0;
#X connect 55 0 56 0;
#X connect 55 1 57 0;
#X connect 56 0 53 0;
#X connect 57 0 53 0;
#X connect 58 0 55 0;
