#N canvas 10 451 872 341 10;
#X obj 14 96 s pd-dynamic-patching.pd;
#X obj 15 167 send pd-dynamic-patching.pd;
#X msg 433 86 msg 10 10 bang;
#X msg 433 130 obj 10 40 metro 500;
#X msg 433 107 floatatom 100 10 7 50 5000;
#X msg 434 151 connect 0 0 2 0;
#X msg 433 173 connect 1 0 2 1;
#X msg 434 220 connect 2 0 3 0;
#X obj 393 273 send pd-subpatch;
#X msg 434 197 obj 10 70 bng;
#X msg 410 56 clear;
#X msg 395 31 vis \$1;
#X obj 395 12 tgl 15 0 empty empty empty 17 7 0 10 -261682 -1 -1 0
1;
#X msg 434 243 text 10 130 Yeah!;
#X text 165 139 <-- Create "subpatch";
#X msg 15 140 obj 15 200 pd subpatch;
#X text 444 30 <-- Open/Close;
#X text 454 55 <-- Erase;
#X text 169 95 <-- Send commands to this patch;
#X text 132 33 <-- Create object "print" at XY;
#X text 133 9 <-- Create Message "Hello!" at XY;
#X text 142 57 <-- Connects based on object number;
#X msg 14 9 msg 15 240 Hello!;
#X msg 22 33 obj 15 275 print;
#X msg 29 57 connect 21 0 22 0;
#X obj 645 26 namecanvas Oswaldo;
#X text 642 53 The [namecanvas] object allows you to give name to a
ptach canvas (the patch window where the object is). Then every subpatch
\, graph or abstraction can have its own canvas name., f 34;
#X obj 646 238 send Oswaldo;
#X msg 646 184 font \$1 100 100;
#X floatatom 646 147 5 9 18 0 - - -, f 5;
#X connect 2 0 8 0;
#X connect 3 0 8 0;
#X connect 4 0 8 0;
#X connect 5 0 8 0;
#X connect 6 0 8 0;
#X connect 7 0 8 0;
#X connect 9 0 8 0;
#X connect 10 0 8 0;
#X connect 11 0 8 0;
#X connect 12 0 11 0;
#X connect 13 0 8 0;
#X connect 15 0 1 0;
#X connect 22 0 0 0;
#X connect 23 0 0 0;
#X connect 24 0 0 0;
#X connect 28 0 27 0;
#X connect 29 0 28 0;
