#N canvas 351 23 927 701 10;
#X text 215 207 logic recieves osc on port 7000;
#X obj 145 211 loadbang;
#X msg 145 235 disconnect \, connect localhost 7000;
#X obj 135 164 list prepend send;
#X obj 135 186 list trim;
#X msg 135 44 Record;
#X obj 135 65 symbol;
#X msg 202 46 1;
#X obj 135 98 oscformat logic transport record;
#X floatatom 135 315 5 0 0 0 - - -, f 5;
#X obj 135 292 netsend -u -b;
#X msg 153 263 disconnect;
#X text 211 510 logic recieves osc on port 7000;
#X obj 141 514 loadbang;
#X msg 141 538 disconnect \, connect localhost 7000;
#X obj 132 433 list prepend send;
#X obj 132 456 list trim;
#X msg 132 337 Record;
#X obj 132 358 symbol;
#X msg 199 339 1;
#X floatatom 131 616 5 0 0 0 - - -, f 5;
#X msg 149 566 disconnect;
#X obj 132 411 list tosymbol;
#X obj 131 593 netsend -u;
#X text 425 113 <-- send binary messages;
#X text 429 426 <-- send ascii messages;
#X obj 142 486 print sending;
#X obj 144 142 print sending;
#X obj 671 255 print receiving;
#X obj 675 214 netreceive -u 7000;
#X floatatom 362 328 5 0 0 0 - - -, f 5;
#X obj 132 391 oscformat logic transport record;
#X msg 362 346 \$1;
#X floatatom 251 39 5 0 0 0 - - -, f 5;
#X msg 251 57 \$1;
#X obj 144 122 oscparse;
#X connect 1 0 2 0;
#X connect 2 0 10 0;
#X connect 3 0 4 0;
#X connect 4 0 10 0;
#X connect 5 0 6 0;
#X connect 6 0 8 0;
#X connect 7 0 8 0;
#X connect 8 0 3 0;
#X connect 8 0 35 0;
#X connect 10 0 9 0;
#X connect 11 0 10 0;
#X connect 13 0 14 0;
#X connect 14 0 23 0;
#X connect 15 0 16 0;
#X connect 16 0 23 0;
#X connect 16 0 26 0;
#X connect 17 0 18 0;
#X connect 18 0 31 0;
#X connect 19 0 31 0;
#X connect 21 0 23 0;
#X connect 22 0 15 0;
#X connect 23 0 20 0;
#X connect 29 0 28 0;
#X connect 30 0 32 0;
#X connect 31 0 22 0;
#X connect 32 0 31 0;
#X connect 33 0 34 0;
#X connect 34 0 8 0;
#X connect 35 0 27 0;
