#N canvas 136 106 739 449 16;
#X obj 115 22 gemhead;
#X obj 115 58 t a a a;
#X obj 182 119 GEMglBegin;
#X obj 115 90 GEMglEnd;
#X obj 157 351 GEMglVertex3f 1 0 0;
#X floatatom 278 86 5 0 0 0 - - -;
#X obj 278 22 loadbang;
#X msg 278 55 3;
#X obj 148 155 repeat 100;
#X obj 148 187 t a b;
#X obj 194 221 f;
#X obj 237 221 + 1;
#X obj 283 221 % 100;
#X obj 196 256 t f f;
#X obj 197 295 k_range 0 99 -4 4;
#X obj 294 120 table \$1-y 100;
#X obj 296 252 tabread \$1-y;
#X obj 468 85 f \$1;
#X floatatom 468 116 5 0 0 0 - - -;
#X obj 468 144 k_range 0 19 4 -4;
#X connect 0 0 1 0;
#X connect 1 0 3 0;
#X connect 1 1 8 0;
#X connect 1 2 2 0;
#X connect 5 0 2 1;
#X connect 6 0 7 0;
#X connect 6 0 17 0;
#X connect 7 0 5 0;
#X connect 8 0 9 0;
#X connect 9 0 4 0;
#X connect 9 1 10 0;
#X connect 10 0 11 0;
#X connect 10 0 13 0;
#X connect 11 0 12 0;
#X connect 12 0 10 1;
#X connect 13 0 14 0;
#X connect 13 1 16 0;
#X connect 14 0 4 1;
#X connect 16 0 4 2;
#X connect 17 0 18 0;
#X connect 18 0 19 0;
#X connect 19 0 4 3;
