#N canvas 486 35 547 623 10;
#X obj 12 78 k_multi_spec;
#X obj 13 312 dac~;
#X obj 18 -8 gemwin;
#X msg 10 -64 destroy;
#X obj 66 261 s b1;
#X obj 121 260 s b2;
#X obj 176 -73 pix_video;
#X obj 176 -12 pix_texture;
#X obj 345 154 pix_texture;
#X obj 388 36 unpack f f f;
#X obj 412 -38 f;
#X obj 452 -38 + 1;
#X obj 484 -39 % 0;
#X floatatom 501 -67 5 0 0 0 - - -;
#X floatatom 411 -15 5 0 0 0 - - -;
#X obj 345 -61 t a b;
#X obj 345 10 pix_film;
#X msg 405 -73 open b1.mov;
#X obj 345 76 colorRGB 1 1 1 0;
#X obj 345 106 alpha;
#X obj 422 106 loadbang;
#X msg 422 129 1;
#X obj 473 1 r b1;
#X obj 473 54 line;
#X msg 473 30 1 \, 0 200;
#X obj 12 55 readsf~;
#X msg 12 18 open test.wav \, 1;
#X obj 341 459 pix_texture;
#X obj 384 356 unpack f f f;
#X obj 408 282 f;
#X obj 448 282 + 1;
#X obj 480 281 % 0;
#X floatatom 495 253 5 0 0 0 - - -;
#X floatatom 407 305 5 0 0 0 - - -;
#X obj 341 259 t a b;
#X obj 341 330 pix_film;
#X obj 341 407 colorRGB 1 1 1 0;
#X obj 341 437 alpha;
#X obj 301 364 loadbang;
#X msg 301 384 1;
#X obj 471 379 line;
#X msg 279 298 open b2.mov;
#X obj 471 322 r b2;
#X obj 176 -103 gemhead;
#X obj 345 -88 gemhead;
#X obj 341 224 gemhead;
#X msg 471 351 1 \, 0 500;
#X obj 176 23 alpha;
#X obj 273 8 loadbang;
#X msg 273 31 1;
#X obj 279 273 loadbang;
#X obj 405 -98 loadbang;
#X obj 176 -42 pix_contrast 3 3;
#X floatatom 249 -71 5 0 0 0 - - -;
#X floatatom 294 -72 5 0 0 0 - - -;
#X msg 18 -36 dimen 480 360 \, create \, 1;
#X obj 176 54 rectangle 5.33 4;
#X obj 345 198 rectangle 5.33 4;
#X obj 341 485 rectangle 5.33 4;
#X connect 0 0 1 0;
#X connect 0 0 1 1;
#X connect 0 1 4 0;
#X connect 0 2 5 0;
#X connect 3 0 2 0;
#X connect 6 0 52 0;
#X connect 7 0 47 0;
#X connect 8 0 57 0;
#X connect 9 0 13 0;
#X connect 10 0 11 0;
#X connect 10 0 14 0;
#X connect 11 0 12 0;
#X connect 12 0 10 1;
#X connect 13 0 12 1;
#X connect 14 0 16 1;
#X connect 15 0 16 0;
#X connect 15 1 10 0;
#X connect 16 0 18 0;
#X connect 16 1 9 0;
#X connect 17 0 16 0;
#X connect 18 0 19 0;
#X connect 19 0 8 0;
#X connect 20 0 21 0;
#X connect 21 0 19 1;
#X connect 22 0 24 0;
#X connect 23 0 18 4;
#X connect 24 0 23 0;
#X connect 25 0 0 0;
#X connect 25 1 26 0;
#X connect 26 0 25 0;
#X connect 27 0 58 0;
#X connect 28 0 32 0;
#X connect 29 0 30 0;
#X connect 29 0 33 0;
#X connect 30 0 31 0;
#X connect 31 0 29 1;
#X connect 32 0 31 1;
#X connect 33 0 35 1;
#X connect 34 0 35 0;
#X connect 34 1 29 0;
#X connect 35 0 36 0;
#X connect 35 1 28 0;
#X connect 36 0 37 0;
#X connect 37 0 27 0;
#X connect 38 0 39 0;
#X connect 39 0 37 1;
#X connect 40 0 36 4;
#X connect 41 0 35 0;
#X connect 42 0 46 0;
#X connect 43 0 6 0;
#X connect 44 0 15 0;
#X connect 45 0 34 0;
#X connect 46 0 40 0;
#X connect 47 0 56 0;
#X connect 48 0 49 0;
#X connect 49 0 47 1;
#X connect 50 0 41 0;
#X connect 51 0 17 0;
#X connect 52 0 7 0;
#X connect 53 0 52 1;
#X connect 54 0 52 2;
#X connect 55 0 2 0;
