#N canvas 558 49 652 686 10;
#X obj 136 67 gemhead;
#X obj 137 551 glsl_program;
#X obj 180 430 pack 0 0;
#X obj 198 399 t b f;
#X obj 198 343 change;
#X obj 180 221 change;
#X msg 180 456 link \$1 \$2;
#X floatatom 221 365 15 0 0 0 ID - -;
#X floatatom 205 249 15 0 0 0 ID - -;
#X obj 180 494 print linking;
#X obj 137 598 pix_texture;
#X obj 16 67 gemwin;
#X obj 136 185 glsl_vertex;
#X obj 136 303 glsl_fragment;
#X obj 327 456 pack f f f;
#X obj 136 88 pix_video;
#X obj 202 136 loadbang;
#X obj 461 19 gemhead;
#X obj 461 63 pix_texture;
#X obj 461 39 pix_image brightonbeach.jpg;
#X obj 461 87 translateXYZ 0 0 -0.001;
#X obj 137 575 alpha;
#X msg 28 39 destroy;
#X msg 143 163 open discard.vert;
#X msg 147 281 open discard.frag;
#X msg 327 485 colorToDiscard \$1 \$2 \$3;
#X obj 327 349 vsl 10 50 0 1 0 0 empty empty empty 0 -9 0 10 -258113
-1 -1 0 1;
#X obj 337 349 vsl 10 50 0 1 0 0 empty empty empty 0 -9 0 10 -4034
-1 -1 0 1;
#X obj 347 349 vsl 10 50 0 1 0 0 empty empty empty 0 -9 0 10 -4160
-1 -1 0 1;
#X obj 347 408 t b f;
#X obj 337 432 t b f;
#X obj 261 137 bng 15 250 50 0 empty empty empty 17 7 0 10 -262144
-1 -1;
#X msg 53 574 rectangle 1;
#X msg 413 411 seuil \$1;
#X obj 413 349 vsl 10 50 0 1 0 0 empty empty empty 0 -9 0 10 -191407
-1 -1 0 1;
#X msg 69 67 device 1;
#X obj 521 326 pix_data;
#X obj 536 198 pix_separator;
#X obj 136 111 pix_separator;
#X obj 594 261 sel 1;
#X obj 543 357 unpack f f f;
#X obj 572 283 * -1;
#X obj 572 302 + 1;
#X obj 498 489 gemhead;
#X obj 498 532 colorRGB;
#X obj 498 554 translateXYZ 0 -3.5 0;
#X obj 551 226 gemmouse 1 1;
#X msg 16 14 dimen 600 450 \, create \, 1;
#X obj 53 552 loadbang;
#X obj 137 619 rectangle 5.33 4;
#X obj 461 111 rectangle 5.33 4;
#X text 134 640 Select the color you want to discard with the faders
RGB or with the mouse in the GEM window. Apply a threshold with the
grey fader.;
#X obj 498 575 rectangle 5.33 0.5;
#X text 516 640 Jack/RYBN 2009;
#X text 516 650 Thanx to Max Neupert;
#X connect 0 0 15 0;
#X connect 1 0 21 0;
#X connect 2 0 6 0;
#X connect 3 0 2 0;
#X connect 3 1 2 1;
#X connect 4 0 7 0;
#X connect 4 0 3 0;
#X connect 5 0 8 0;
#X connect 5 0 2 0;
#X connect 6 0 1 0;
#X connect 6 0 9 0;
#X connect 10 0 49 0;
#X connect 12 0 13 0;
#X connect 12 1 5 0;
#X connect 13 0 1 0;
#X connect 13 1 4 0;
#X connect 14 0 25 0;
#X connect 15 0 38 0;
#X connect 15 0 37 0;
#X connect 16 0 23 0;
#X connect 16 0 24 0;
#X connect 17 0 19 0;
#X connect 18 0 20 0;
#X connect 19 0 18 0;
#X connect 20 0 50 0;
#X connect 21 0 10 0;
#X connect 22 0 11 0;
#X connect 23 0 12 0;
#X connect 24 0 13 0;
#X connect 25 0 1 0;
#X connect 26 0 14 0;
#X connect 27 0 30 0;
#X connect 28 0 29 0;
#X connect 29 0 14 0;
#X connect 29 1 14 2;
#X connect 30 0 14 0;
#X connect 30 1 14 1;
#X connect 31 0 23 0;
#X connect 31 0 24 0;
#X connect 32 0 10 0;
#X connect 33 0 1 0;
#X connect 34 0 33 0;
#X connect 35 0 15 0;
#X connect 36 1 40 0;
#X connect 37 0 36 1;
#X connect 38 0 12 0;
#X connect 39 0 36 0;
#X connect 40 0 26 0;
#X connect 40 0 44 1;
#X connect 40 1 27 0;
#X connect 40 1 44 2;
#X connect 40 2 28 0;
#X connect 40 2 44 3;
#X connect 41 0 42 0;
#X connect 42 0 36 3;
#X connect 43 0 44 0;
#X connect 44 0 45 0;
#X connect 45 0 52 0;
#X connect 46 0 36 2;
#X connect 46 1 41 0;
#X connect 46 2 39 0;
#X connect 47 0 11 0;
#X connect 48 0 32 0;
