#N canvas 15 22 1425 770 10;
#X obj 103 148 bng 15 250 50 0 empty empty read 17 7 0 10 -262144 -1
-1;
#X obj 27 397 f;
#X floatatom 27 420 10 0 0 0 - - -;
#X obj -10 483 unpack f f f;
#X obj 57 397 + 1;
#X obj 224 299 r f;
#X obj 224 455 t a b;
#X obj 251 479 f;
#X obj 281 478 + 1;
#X floatatom 251 499 5 0 0 0 - - -;
#X msg 266 446 0;
#X obj 351 594 + 1;
#X obj 224 583 - 1;
#X obj 251 585 - 1;
#X obj 278 584 - 1;
#X obj 27 440 t f f f f;
#X obj -10 334 t a b;
#X obj 100 401 qlist;
#X msg 68 356 bang;
#X msg 41 356 0;
#X obj 39 300 bng 15 250 50 0 empty empty empty 17 7 0 10 -262144 -1
-1;
#X obj 39 327 t b b b b b;
#X msg 122 353 clear;
#X obj 116 472 s \$0-repeat-v;
#X obj 351 617 s \$0-repeat-l;
#X obj 25 591 tabwrite \$0-y;
#X obj 223 614 tabwrite \$0-l1;
#X obj 251 636 tabwrite \$0-l2;
#X obj 278 662 tabwrite \$0-l3;
#X obj -9 620 tabwrite \$0-x;
#X obj 60 539 tabwrite \$0-z;
#X obj -10 220 r v;
#X obj 224 330 spigot;
#X obj 148 148 tgl 15 0 empty empty tgl 17 7 0 10 -262144 -1 -1 0 1
;
#X obj 364 438 list-drip;
#X obj 364 412 t a b;
#X obj 364 486 f;
#X obj 394 487 + 1;
#X obj 364 462 t b;
#X floatatom 364 511 5 0 0 0 - - -;
#X msg 398 464 1;
#X obj 224 358 t a a;
#X obj 224 557 unpack f f f f;
#X obj 310 585 - 1;
#X obj 310 683 tabwrite \$0-l4;
#X obj 224 417 pack f f f f;
#X obj -10 249 spigot;
#X obj -34 97 r vt;
#X obj -33 163 r g;
#X obj -33 132 r s;
#X obj 9 131 r #;
#X msg 77 268 read /Users/aluan_mac/Desktop/panda.txt;
#X obj 364 569 tabwrite \$0-num;
#X obj 364 550 v num;
#X obj 251 520 t f f f f f f b f;
#X obj 103 129 bng 15 250 50 0 empty empty open 17 7 0 10 -262144 -1
-1;
#X obj 77 208 openpanel;
#X msg 77 236 set read \$1;
#X obj 932 -12 table \$0-l1 3000;
#X obj 932 11 table \$0-l2 3000;
#X obj 934 32 table \$0-l3 3000;
#X obj 935 57 table \$0-l4 3000;
#X obj 601 351 GEMglEnd;
#X obj 601 302 t a a a;
#N canvas 452 200 580 432 xyz 0;
#X obj 198 116 inlet;
#X obj 196 327 outlet;
#X obj 198 197 tabread \$0-x;
#X obj 237 168 tabread \$0-z;
#X obj 217 223 tabread \$0-y;
#X obj 195 281 pack f f f;
#N canvas 423 167 450 300 ranfomf 0;
#X obj 160 -86 inlet;
#X obj 155 87 t b b b;
#X obj 156 211 outlet;
#X obj 209 220 outlet;
#X obj 278 220 outlet;
#X obj 264 106 / 2;
#X obj 236 55 t f f;
#X obj 237 -106 inlet;
#X obj 151 126 randomF 0.01;
#X obj 202 150 randomF 0.01;
#X obj 281 145 randomF 0.01;
#X obj 151 155 - 0.005;
#X obj 202 179 - 0.005;
#X obj 281 174 - 0.005;
#X obj 202 -29 sel 0;
#X msg 203 -5 0;
#X msg 234 -4 1;
#X obj 155 26 spigot;
#X obj 251 -68 t f f;
#X connect 0 0 17 0;
#X connect 1 0 8 0;
#X connect 1 1 9 0;
#X connect 1 2 10 0;
#X connect 5 0 11 1;
#X connect 5 0 12 1;
#X connect 5 0 13 1;
#X connect 6 0 8 1;
#X connect 6 0 9 1;
#X connect 6 0 10 1;
#X connect 6 1 5 0;
#X connect 7 0 18 0;
#X connect 8 0 11 0;
#X connect 9 0 12 0;
#X connect 10 0 13 0;
#X connect 11 0 2 0;
#X connect 12 0 3 0;
#X connect 13 0 4 0;
#X connect 14 0 15 0;
#X connect 14 1 16 0;
#X connect 15 0 17 1;
#X connect 16 0 17 1;
#X connect 17 0 1 0;
#X connect 18 0 6 0;
#X connect 18 1 14 0;
#X restore 323 165 pd ranfomf;
#X obj 198 144 t f f f b;
#X obj 194 247 +;
#X obj 222 250 +;
#X obj 254 251 +;
#X obj 315 124 r bomb-noise;
#X connect 0 0 7 0;
#X connect 2 0 8 0;
#X connect 3 0 10 0;
#X connect 4 0 9 0;
#X connect 5 0 1 0;
#X connect 6 0 8 1;
#X connect 6 1 9 1;
#X connect 6 2 10 1;
#X connect 7 0 2 0;
#X connect 7 1 4 0;
#X connect 7 2 3 0;
#X connect 7 3 6 0;
#X connect 8 0 5 0;
#X connect 9 0 5 1;
#X connect 10 0 5 2;
#X connect 11 0 6 1;
#X restore 701 608 pd xyz;
#X obj 620 631 GEMglVertex3fv;
#X obj 759 370 t f f f f;
#N canvas 452 200 550 433 xyz 0;
#X obj 188 106 inlet;
#X obj 186 317 outlet;
#X obj 188 187 tabread \$0-x;
#X obj 227 158 tabread \$0-z;
#X obj 207 213 tabread \$0-y;
#X obj 185 271 pack f f f;
#N canvas 423 167 450 300 ranfomf 0;
#X obj 158 -61 inlet;
#X obj 155 87 t b b b;
#X obj 156 211 outlet;
#X obj 209 220 outlet;
#X obj 278 220 outlet;
#X obj 264 106 / 2;
#X obj 236 55 t f f;
#X obj 235 -81 inlet;
#X obj 151 126 randomF 0.01;
#X obj 202 150 randomF 0.01;
#X obj 281 145 randomF 0.01;
#X obj 151 155 - 0.005;
#X obj 202 179 - 0.005;
#X obj 281 174 - 0.005;
#X obj 193 -18 sel 0;
#X msg 194 6 0;
#X msg 225 7 1;
#X obj 146 37 spigot;
#X obj 242 -57 t f f;
#X connect 0 0 17 0;
#X connect 1 0 8 0;
#X connect 1 1 9 0;
#X connect 1 2 10 0;
#X connect 5 0 11 1;
#X connect 5 0 12 1;
#X connect 5 0 13 1;
#X connect 6 0 8 1;
#X connect 6 0 9 1;
#X connect 6 0 10 1;
#X connect 6 1 5 0;
#X connect 7 0 18 0;
#X connect 8 0 11 0;
#X connect 9 0 12 0;
#X connect 10 0 13 0;
#X connect 11 0 2 0;
#X connect 12 0 3 0;
#X connect 13 0 4 0;
#X connect 14 0 15 0;
#X connect 14 1 16 0;
#X connect 15 0 17 1;
#X connect 16 0 17 1;
#X connect 17 0 1 0;
#X connect 18 0 6 0;
#X connect 18 1 14 0;
#X restore 313 155 pd ranfomf;
#X obj 188 134 t f f f b;
#X obj 184 237 +;
#X obj 212 240 +;
#X obj 244 241 +;
#X obj 339 106 r bomb-noise;
#X connect 0 0 7 0;
#X connect 2 0 8 0;
#X connect 3 0 10 0;
#X connect 4 0 9 0;
#X connect 5 0 1 0;
#X connect 6 0 8 1;
#X connect 6 1 9 1;
#X connect 6 2 10 1;
#X connect 7 0 2 0;
#X connect 7 1 4 0;
#X connect 7 2 3 0;
#X connect 7 3 6 0;
#X connect 8 0 5 0;
#X connect 9 0 5 1;
#X connect 10 0 5 2;
#X connect 11 0 6 1;
#X restore 718 561 pd xyz;
#X obj 637 584 GEMglVertex3fv;
#N canvas 452 200 560 437 xyz 0;
#X obj 178 96 inlet;
#X obj 176 307 outlet;
#X obj 178 177 tabread \$0-x;
#X obj 217 148 tabread \$0-z;
#X obj 197 203 tabread \$0-y;
#X obj 175 261 pack f f f;
#N canvas 423 167 493 470 ranfomf 0;
#X obj 157 -88 inlet;
#X obj 155 87 t b b b;
#X obj 156 211 outlet;
#X obj 209 220 outlet;
#X obj 278 220 outlet;
#X obj 264 106 / 2;
#X obj 236 55 t f f;
#X obj 234 -108 inlet;
#X obj 151 126 randomF 0.01;
#X obj 202 150 randomF 0.01;
#X obj 281 145 randomF 0.01;
#X obj 151 155 - 0.005;
#X obj 202 179 - 0.005;
#X obj 281 174 - 0.005;
#X obj 182 -21 sel 0;
#X msg 183 3 0;
#X msg 214 4 1;
#X obj 135 34 spigot;
#X obj 231 -60 t f f;
#X connect 0 0 17 0;
#X connect 1 0 8 0;
#X connect 1 1 9 0;
#X connect 1 2 10 0;
#X connect 5 0 11 1;
#X connect 5 0 12 1;
#X connect 5 0 13 1;
#X connect 6 0 8 1;
#X connect 6 0 9 1;
#X connect 6 0 10 1;
#X connect 6 1 5 0;
#X connect 7 0 18 0;
#X connect 8 0 11 0;
#X connect 9 0 12 0;
#X connect 10 0 13 0;
#X connect 11 0 2 0;
#X connect 12 0 3 0;
#X connect 13 0 4 0;
#X connect 14 0 15 0;
#X connect 14 1 16 0;
#X connect 15 0 17 1;
#X connect 16 0 17 1;
#X connect 17 0 1 0;
#X connect 18 0 6 0;
#X connect 18 1 14 0;
#X restore 303 145 pd ranfomf;
#X obj 178 124 t f f f b;
#X obj 174 227 +;
#X obj 202 230 +;
#X obj 234 231 +;
#X obj 295 104 r bomb-noise;
#X connect 0 0 7 0;
#X connect 2 0 8 0;
#X connect 3 0 10 0;
#X connect 4 0 9 0;
#X connect 5 0 1 0;
#X connect 6 0 8 1;
#X connect 6 1 9 1;
#X connect 6 2 10 1;
#X connect 7 0 2 0;
#X connect 7 1 4 0;
#X connect 7 2 3 0;
#X connect 7 3 6 0;
#X connect 8 0 5 0;
#X connect 9 0 5 1;
#X connect 10 0 5 2;
#X connect 11 0 6 1;
#X restore 735 514 pd xyz;
#X obj 654 537 GEMglVertex3fv;
#N canvas 452 200 382 318 xyz 0;
#X obj 168 86 inlet;
#X obj 166 297 outlet;
#X obj 168 167 tabread \$0-x;
#X obj 207 138 tabread \$0-z;
#X obj 187 193 tabread \$0-y;
#X obj 165 251 pack f f f;
#N canvas 423 167 450 300 ranfomf 0;
#X obj 153 -66 inlet;
#X obj 155 87 t b b b;
#X obj 156 211 outlet;
#X obj 209 220 outlet;
#X obj 278 220 outlet;
#X obj 264 106 / 2;
#X obj 236 55 t f f;
#X obj 244 -65 inlet;
#X obj 151 126 randomF 0.01;
#X obj 202 150 randomF 0.01;
#X obj 281 145 randomF 0.01;
#X obj 151 155 - 0.005;
#X obj 202 179 - 0.005;
#X obj 281 174 - 0.005;
#X obj 197 -4 sel 0;
#X msg 198 20 0;
#X msg 229 21 1;
#X obj 150 51 spigot;
#X obj 246 -43 t f f;
#X connect 0 0 17 0;
#X connect 1 0 8 0;
#X connect 1 1 9 0;
#X connect 1 2 10 0;
#X connect 5 0 11 1;
#X connect 5 0 12 1;
#X connect 5 0 13 1;
#X connect 6 0 8 1;
#X connect 6 0 9 1;
#X connect 6 0 10 1;
#X connect 6 1 5 0;
#X connect 7 0 18 0;
#X connect 8 0 11 0;
#X connect 9 0 12 0;
#X connect 10 0 13 0;
#X connect 11 0 2 0;
#X connect 12 0 3 0;
#X connect 13 0 4 0;
#X connect 14 0 15 0;
#X connect 14 1 16 0;
#X connect 15 0 17 1;
#X connect 16 0 17 1;
#X connect 17 0 1 0;
#X connect 18 0 6 0;
#X connect 18 1 14 0;
#X restore 293 135 pd ranfomf;
#X obj 168 114 t f f f b;
#X obj 164 217 +;
#X obj 192 220 +;
#X obj 224 221 +;
#X obj 285 94 r bomb-noise;
#X connect 0 0 7 0;
#X connect 2 0 8 0;
#X connect 3 0 10 0;
#X connect 4 0 9 0;
#X connect 5 0 1 0;
#X connect 6 0 8 1;
#X connect 6 1 9 1;
#X connect 6 2 10 1;
#X connect 7 0 2 0;
#X connect 7 1 4 0;
#X connect 7 2 3 0;
#X connect 7 3 6 0;
#X connect 8 0 5 0;
#X connect 9 0 5 1;
#X connect 10 0 5 2;
#X connect 11 0 6 1;
#X restore 752 466 pd xyz;
#X obj 671 489 GEMglVertex3fv;
#X obj 759 393 tabread \$0-l1;
#X obj 776 416 tabread \$0-l2;
#X obj 793 441 tabread \$0-l3;
#X obj 810 471 tabread \$0-l4;
#X obj 601 46 gemhead;
#X obj 640 323 GEMglBegin 7;
#X msg 845 195 7;
#X obj 601 92 t a b;
#X obj 628 116 f 0;
#X obj 655 116 + 1;
#X obj 684 116 % 123;
#X obj 601 68 repeat 123;
#X floatatom 658 42 5 0 0 0 - - -;
#X obj 658 18 r \$0-repeat-l;
#X obj 628 141 t f f;
#X obj 817 218 t f f;
#X obj 854 219 t f f;
#X obj 844 264 sel 4 7;
#X obj 844 316 tgl 15 0 empty empty empty 17 7 0 10 -262144 -1 -1 1
1;
#X msg 876 289 1;
#X msg 844 289 0;
#X obj 620 457 t a a a a;
#X obj 620 608 spigot;
#X obj 817 148 tabread \$0-num;
#X obj 601 238 alpha;
#X obj 423 232 separator;
#X obj 601 212 separator;
#X obj 423 365 GEMglEnd;
#X obj 423 316 t a a a;
#X obj 459 467 GEMglVertex3fv;
#X obj 476 441 GEMglVertex3fv;
#X obj 493 415 GEMglVertex3fv;
#X obj 442 392 t a a a a;
#X obj 442 491 spigot;
#X obj 423 281 alpha;
#X obj 462 337 GEMglBegin 2;
#X obj 423 259 GEMglLineWidth 2;
#X obj 442 518 GEMglVertex3fv;
#X obj 423 301 colorRGB 0.4 0.4 0.4 1;
#X floatatom 231 106 3 -7 7 0 up - -;
#X floatatom 185 106 4 0.01 10 0 sc - -;
#X floatatom 109 505 5 0 0 0 - - -;
#X obj 201 149 hsl 50 15 0 5 0 0 empty empty NOISE 8 8 0 10 -262144
-1 -1 0 1;
#X obj 249 -17 tgl 15 0 empty empty empty 17 7 0 10 -262144 -1 -1 1
1;
#X obj 249 -44 loadbang;
#X obj 307 37 v noise;
#X obj 249 34 t b b;
#X obj 249 62 v noise;
#X obj 249 8 metro 5;
#X obj 195 177 s bomb-noise;
#X obj 25 532 - 0;
#X obj 60 510 * 1;
#X obj 25 561 * 1;
#X obj -9 593 * 1;
#N canvas 843 78 597 674 control 0;
#X obj 200 124 tgl 15 0 empty empty empty 17 7 0 10 -262144 -1 -1 0
1;
#X obj 223 189 f;
#X obj 254 190 + 1;
#X obj 286 189 %;
#X obj -104 413 translateXYZ;
#N canvas 229 263 450 300 pos 0;
#X obj 85 116 t f f f f=======================;
#X obj 85 174 outlet;
#X obj 193 178 outlet;
#X obj 300 184 outlet;
#X floatatom 85 87 5 0 0 0 - - -;
#X obj 85 63 inlet;
#X obj 85 142 tabread \$0-x;
#X obj 300 149 tabread \$0-z;
#X obj 193 147 tabread \$0-y;
#X connect 0 0 6 0;
#X connect 0 1 8 0;
#X connect 0 2 7 0;
#X connect 4 0 0 0;
#X connect 5 0 4 0;
#X connect 6 0 1 0;
#X connect 7 0 3 0;
#X connect 8 0 2 0;
#X restore -133 194 pd pos;
#X obj 113 104 hsl 80 15 -30 30 0 0 empty empty X 10 7 0 10 -258113
-1 -1 4125 1;
#X obj 112 122 hsl 80 15 -30 30 0 0 empty empty Y 10 7 0 10 -4034 -1
-1 4130 1;
#X obj 112 140 hsl 80 15 -30 30 0 0 empty empty Z 10 7 0 10 -4160 -1
-1 3748 1;
#X floatatom 201 105 5 0 600 0 - - -;
#X floatatom -133 168 5 0 0 0 - - -;
#X obj 204 324 t f f f;
#X floatatom 57 45 5 0 0 0 - - -;
#X floatatom 57 68 5 0 0 0 - - -;
#X floatatom 57 87 5 0 0 0 - - -;
#X msg -174 425 draw line;
#X obj -174 397 loadbang;
#X obj -103 445 separator;
#X obj -9 437 separator;
#X obj 147 489 separator;
#X obj -36 567 separator;
#X obj -9 530 cube 0.1;
#X obj 148 554 cube 0.1;
#X obj -36 635 cube 0.1;
#X obj 220 124 tgl 15 0 empty empty empty 17 7 0 10 -262144 -1 -1 0
1;
#X obj 223 240 +;
#X obj 238 211 r vertex;
#X obj 262 32 loadbang;
#X msg 262 55 0;
#X obj 223 166 metro 500;
#X obj -149 307 line;
#X obj -104 308 line;
#X obj -55 305 line;
#X obj -104 382 spigot;
#X obj -103 517 cube 0.08;
#X obj -103 484 color 1 1 1;
#X obj 153 255 t f f;
#X obj -155 251 t f b;
#X floatatom 200 141 5 0 0 0 - - -;
#X msg 278 93 500;
#X floatatom -128 274 5 0 0 0 - - -;
#X obj -102 248 t f b;
#X floatatom -75 271 5 0 0 0 - - -;
#X obj -53 248 t f b;
#X floatatom -26 271 5 0 0 0 - - -;
#X obj -1 209 t f f f;
#X obj 32 116 s \$0-x;
#X obj 31 161 s \$0-z;
#X obj 31 139 s \$0-y;
#X obj -156 225 r \$0-x;
#X obj -104 225 r \$0-y;
#X obj -54 226 r \$0-z;
#X obj 141 293 r \$0-x;
#X obj 157 320 r \$0-y;
#X obj 169 347 r \$0-z;
#X obj 141 380 tabwrite \$0-x;
#X obj 157 406 tabwrite \$0-y;
#X obj 169 434 tabwrite \$0-z;
#X obj 70 185 - 200;
#X obj -9 505 color 0 0 1;
#X obj -36 611 color 1 0 0;
#X obj 148 531 color 0 1 0;
#X obj -36 591 scaleXYZ 200 0.1 0.1;
#X obj -9 482 scaleXYZ 0.1 0.1 200;
#X obj 147 511 scaleXYZ 0.1 200 0.1;
#X obj 301 157 r \$0-repeat-l;
#X obj -104 356 gemhead;
#X obj 293 130 inlet;
#X connect 0 0 29 0;
#X connect 1 0 2 0;
#X connect 1 0 25 0;
#X connect 2 0 3 0;
#X connect 3 0 1 1;
#X connect 4 0 17 0;
#X connect 4 0 18 0;
#X connect 4 0 19 0;
#X connect 4 0 20 0;
#X connect 5 0 4 1;
#X connect 5 0 6 0;
#X connect 5 1 4 2;
#X connect 5 1 7 0;
#X connect 5 2 4 3;
#X connect 5 2 8 0;
#X connect 6 0 12 0;
#X connect 7 0 13 0;
#X connect 8 0 14 0;
#X connect 9 0 36 0;
#X connect 10 0 5 0;
#X connect 11 0 55 1;
#X connect 11 1 56 1;
#X connect 11 2 57 1;
#X connect 12 0 46 0;
#X connect 13 0 48 0;
#X connect 14 0 47 0;
#X connect 15 0 34 0;
#X connect 16 0 15 0;
#X connect 17 0 35 0;
#X connect 18 0 63 0;
#X connect 19 0 64 0;
#X connect 20 0 62 0;
#X connect 24 0 33 1;
#X connect 25 0 9 0;
#X connect 26 0 25 1;
#X connect 27 0 28 0;
#X connect 27 0 39 0;
#X connect 28 0 24 0;
#X connect 29 0 1 0;
#X connect 30 0 4 1;
#X connect 31 0 4 2;
#X connect 32 0 4 3;
#X connect 33 0 4 0;
#X connect 35 0 34 0;
#X connect 36 0 10 0;
#X connect 36 1 11 0;
#X connect 37 0 30 0;
#X connect 37 1 40 0;
#X connect 38 0 29 1;
#X connect 38 0 58 0;
#X connect 39 0 38 0;
#X connect 40 0 30 1;
#X connect 41 0 31 0;
#X connect 41 1 42 0;
#X connect 42 0 31 1;
#X connect 43 0 32 0;
#X connect 43 1 44 0;
#X connect 44 0 32 1;
#X connect 45 0 40 0;
#X connect 45 1 42 0;
#X connect 45 2 44 0;
#X connect 49 0 37 0;
#X connect 50 0 41 0;
#X connect 51 0 43 0;
#X connect 52 0 55 0;
#X connect 53 0 56 0;
#X connect 54 0 57 0;
#X connect 58 0 45 0;
#X connect 59 0 21 0;
#X connect 60 0 23 0;
#X connect 61 0 22 0;
#X connect 62 0 60 0;
#X connect 63 0 59 0;
#X connect 64 0 61 0;
#X connect 65 0 3 1;
#X connect 66 0 33 0;
#X connect 67 0 38 0;
#X coords 0 -1 1 1 140 60 2 100 100;
#X restore 256 106 pd control;
#X obj 151 41 loadbang;
#X msg 151 66 1;
#X msg 117 65 0;
#X obj 3 365 t b b;
#X obj 671 238 unpack f f f;
#X msg 750 215 1 1 1;
#X obj 419 78 sel 0;
#X msg 419 130 0;
#X msg 450 106 1;
#X obj 450 131 f;
#X obj 394 -20 loadbang;
#X msg 394 6 0;
#X msg 503 81 \$1 1000;
#X obj 503 105 line;
#X obj 308 4 v noise;
#X obj 315 -75 r vj-vol;
#X obj 520 -37 inlet;
#X obj 473 24 v noise;
#X obj 474 54 v noise;
#X obj 521 -10 t b f;
#X obj 543 29 +;
#X obj 413 172 * 1000;
#X obj 309 -23 / 5;
#X obj 309 -49 spigot;
#X obj 393 -70 r \$0-tgl;
#X obj 450 153 s \$0-tgl;
#X obj 601 -4 r vj-vol;
#X obj 151 128 hsl 100 15 0 1 0 0 empty empty Alpha 5 7 0 10 -258113
-1 -1 9900 1;
#X obj 601 272 colorRGB 1 1 1 0.8;
#X msg 817 195 4;
#X text 27 32 maya-model;
#X obj 928 335 tabread \$0-x;
#X floatatom 928 298 5 0 0 0 - - -;
#X floatatom 935 372 5 0 0 0 - - -;
#X obj 817 -10 table \$0-x 3000;
#X obj 815 15 table \$0-y 3000;
#X obj 814 37 table \$0-z 3000;
#X obj 815 60 table \$0-num 3000;
#X obj 948 594 k_write;
#X obj 1054 162 r \$0-repeat-v;
#X obj 963 355 tabread \$0-y;
#X obj 986 389 tabread \$0-z;
#X obj 116 445 + 1;
#X obj 1002 220 f 0;
#X obj 1029 222 + 1;
#X obj 1003 190 repeat 24;
#X obj 1000 139 t b b;
#X msg 1025 163 0;
#X obj 999 257 t f f f;
#X obj 942 415 pack f f f;
#X obj 1000 117 bng 15 250 50 0 empty empty empty 17 7 0 10 -262144
-1 -1;
#X obj 1163 216 f 0;
#X obj 1190 218 + 1;
#X obj 1161 135 t b b;
#X msg 1186 159 0;
#X obj 1161 113 bng 15 250 50 0 empty empty empty 17 7 0 10 -262144
-1 -1;
#X obj 1215 158 r \$0-repeat-l;
#X obj 1164 186 repeat 22;
#X obj 1162 249 t f f;
#X obj 1071 197 tabread \$0-num;
#X obj 1071 222 sel 6 8;
#X msg 1071 246 1;
#X msg 1102 247 2;
#X obj 1130 277 gate 2;
#X floatatom 1130 304 5 0 0 0 - - -;
#X floatatom 1186 305 5 0 0 0 - - -;
#X obj 1127 339 t f f f;
#X obj 1057 364 tabread \$0-l1;
#X obj 1085 386 tabread \$0-l2;
#X obj 1112 412 tabread \$0-l3;
#X msg 942 436 add v \$1 \$2 \$3;
#X msg 978 541 add f \$1 \$2 \$3;
#X msg 999 566 add f \$1 \$2 \$3 \$4;
#X obj 1040 501 pack f f f;
#X obj 1192 370 tabread \$0-l1;
#X obj 1220 392 tabread \$0-l2;
#X obj 1236 417 tabread \$0-l3;
#X obj 1181 343 t f f f f;
#X obj 1175 498 pack f f f f;
#X obj 1263 437 tabread \$0-l4;
#X obj 1039 466 + 1;
#X obj 1068 465 + 1;
#X obj 1095 466 + 1;
#X obj 1171 467 + 1;
#X obj 1200 466 + 1;
#X obj 1227 467 + 1;
#X obj 1255 468 + 1;
#X obj 307 68 - 0.002;
#X obj 1 96 r vn;
#X obj 224 383 unpack f f f f f f f f f f f f;
#X msg 296 314 1 2 3 4;
#X obj 817 173 sel 9 12;
#X msg 672 214 1 1 1;
#X connect 0 0 20 0;
#X connect 1 0 2 0;
#X connect 1 0 4 0;
#X connect 2 0 15 0;
#X connect 3 0 126 0;
#X connect 3 1 123 0;
#X connect 3 2 124 0;
#X connect 4 0 1 1;
#X connect 5 0 32 0;
#X connect 6 0 42 0;
#X connect 6 1 7 0;
#X connect 7 0 8 0;
#X connect 7 0 9 0;
#X connect 8 0 7 1;
#X connect 9 0 54 0;
#X connect 10 0 7 1;
#X connect 11 0 24 0;
#X connect 12 0 26 0;
#X connect 13 0 27 0;
#X connect 14 0 28 0;
#X connect 15 0 29 1;
#X connect 15 1 25 1;
#X connect 15 2 30 1;
#X connect 15 3 170 0;
#X connect 16 0 3 0;
#X connect 16 1 1 0;
#X connect 18 0 17 0;
#X connect 19 0 1 1;
#X connect 20 0 21 0;
#X connect 21 0 131 0;
#X connect 21 1 19 0;
#X connect 21 2 51 0;
#X connect 21 3 10 0;
#X connect 21 4 22 0;
#X connect 22 0 17 0;
#X connect 31 0 46 0;
#X connect 32 0 41 0;
#X connect 33 0 32 1;
#X connect 33 0 46 1;
#X connect 34 0 38 0;
#X connect 35 0 34 0;
#X connect 35 1 40 0;
#X connect 36 0 37 0;
#X connect 36 0 39 0;
#X connect 37 0 36 1;
#X connect 38 0 36 0;
#X connect 39 0 53 0;
#X connect 40 0 36 1;
#X connect 41 0 217 0;
#X connect 41 1 35 0;
#X connect 42 0 12 0;
#X connect 42 1 13 0;
#X connect 42 2 14 0;
#X connect 42 3 43 0;
#X connect 43 0 44 0;
#X connect 45 0 6 0;
#X connect 46 0 16 0;
#X connect 51 0 17 0;
#X connect 53 0 52 0;
#X connect 54 0 26 1;
#X connect 54 1 27 1;
#X connect 54 2 28 1;
#X connect 54 3 44 1;
#X connect 54 5 11 0;
#X connect 54 6 53 0;
#X connect 54 7 52 1;
#X connect 55 0 56 0;
#X connect 56 0 57 0;
#X connect 57 0 51 0;
#X connect 63 0 62 0;
#X connect 63 1 94 0;
#X connect 63 2 78 0;
#X connect 64 0 65 1;
#X connect 64 0 110 1;
#X connect 66 0 73 0;
#X connect 66 1 74 0;
#X connect 66 2 75 0;
#X connect 66 3 76 0;
#X connect 67 0 68 1;
#X connect 67 0 102 1;
#X connect 69 0 70 1;
#X connect 69 0 103 1;
#X connect 71 0 72 1;
#X connect 71 0 104 1;
#X connect 73 0 71 0;
#X connect 74 0 69 0;
#X connect 75 0 67 0;
#X connect 76 0 64 0;
#X connect 77 0 84 0;
#X connect 79 0 89 0;
#X connect 80 0 99 0;
#X connect 80 0 98 0;
#X connect 80 1 81 0;
#X connect 81 0 82 0;
#X connect 81 0 87 0;
#X connect 82 0 83 0;
#X connect 83 0 81 1;
#X connect 84 0 80 0;
#X connect 85 0 84 1;
#X connect 85 0 83 1;
#X connect 86 0 85 0;
#X connect 87 0 66 0;
#X connect 87 1 96 0;
#X connect 88 0 78 1;
#X connect 88 1 90 0;
#X connect 89 0 78 1;
#X connect 89 1 90 0;
#X connect 90 0 93 0;
#X connect 90 1 92 0;
#X connect 91 0 95 1;
#X connect 91 0 106 1;
#X connect 92 0 91 0;
#X connect 93 0 91 0;
#X connect 94 0 95 0;
#X connect 94 1 68 0;
#X connect 94 2 70 0;
#X connect 94 3 72 0;
#X connect 95 0 65 0;
#X connect 96 0 219 0;
#X connect 97 0 156 0;
#X connect 98 0 109 0;
#X connect 99 0 97 0;
#X connect 101 0 100 0;
#X connect 101 1 105 0;
#X connect 101 2 108 0;
#X connect 105 0 106 0;
#X connect 105 1 102 0;
#X connect 105 2 103 0;
#X connect 105 3 104 0;
#X connect 106 0 110 0;
#X connect 107 0 111 0;
#X connect 109 0 107 0;
#X connect 111 0 101 0;
#X connect 112 0 123 1;
#X connect 113 0 114 0;
#X connect 114 0 124 1;
#X connect 114 0 125 1;
#X connect 114 0 126 1;
#X connect 115 0 120 0;
#X connect 115 0 122 0;
#X connect 116 0 121 0;
#X connect 117 0 116 0;
#X connect 118 0 215 0;
#X connect 119 0 120 0;
#X connect 119 1 118 0;
#X connect 121 0 119 0;
#X connect 123 0 125 0;
#X connect 124 0 30 0;
#X connect 125 0 25 0;
#X connect 126 0 29 0;
#X connect 128 0 129 0;
#X connect 129 0 33 0;
#X connect 130 0 33 0;
#X connect 131 0 130 0;
#X connect 131 1 18 0;
#X connect 132 0 156 1;
#X connect 132 1 156 2;
#X connect 132 2 156 3;
#X connect 133 0 132 0;
#X connect 134 0 135 0;
#X connect 134 1 136 0;
#X connect 134 1 140 0;
#X connect 135 0 137 0;
#X connect 136 0 137 0;
#X connect 137 0 153 0;
#X connect 138 0 139 0;
#X connect 139 0 155 0;
#X connect 140 0 141 0;
#X connect 141 0 156 4;
#X connect 143 0 151 0;
#X connect 144 0 147 0;
#X connect 145 0 148 0;
#X connect 147 0 145 0;
#X connect 147 1 148 1;
#X connect 148 0 146 0;
#X connect 149 0 127 0;
#X connect 150 0 142 0;
#X connect 151 0 150 0;
#X connect 151 0 149 0;
#X connect 152 0 151 1;
#X connect 154 0 77 0;
#X connect 155 0 134 0;
#X connect 156 0 63 0;
#X connect 157 0 88 0;
#X connect 159 0 161 0;
#X connect 160 0 159 0;
#X connect 161 0 177 0;
#X connect 167 0 173 1;
#X connect 168 0 177 1;
#X connect 169 0 177 2;
#X connect 170 0 23 0;
#X connect 171 0 172 0;
#X connect 171 0 176 0;
#X connect 172 0 171 1;
#X connect 173 0 171 0;
#X connect 174 0 173 0;
#X connect 174 1 175 0;
#X connect 175 0 171 1;
#X connect 176 0 160 0;
#X connect 176 1 168 0;
#X connect 176 2 169 0;
#X connect 177 0 198 0;
#X connect 178 0 174 0;
#X connect 179 0 180 0;
#X connect 179 0 186 0;
#X connect 180 0 179 1;
#X connect 181 0 185 0;
#X connect 181 1 182 0;
#X connect 182 0 179 1;
#X connect 183 0 181 0;
#X connect 184 0 185 1;
#X connect 185 0 179 0;
#X connect 186 0 191 1;
#X connect 186 1 187 0;
#X connect 187 0 188 0;
#X connect 188 0 189 0;
#X connect 188 1 190 0;
#X connect 189 0 191 0;
#X connect 190 0 191 0;
#X connect 191 0 192 0;
#X connect 191 1 193 0;
#X connect 192 0 194 0;
#X connect 193 0 205 0;
#X connect 194 0 195 0;
#X connect 194 1 196 0;
#X connect 194 2 197 0;
#X connect 195 0 208 0;
#X connect 196 0 209 0;
#X connect 197 0 210 0;
#X connect 198 0 166 0;
#X connect 199 0 166 1;
#X connect 200 0 166 2;
#X connect 201 0 199 0;
#X connect 202 0 211 0;
#X connect 203 0 212 0;
#X connect 204 0 213 0;
#X connect 205 0 202 0;
#X connect 205 1 203 0;
#X connect 205 2 204 0;
#X connect 205 3 207 0;
#X connect 206 0 200 0;
#X connect 207 0 214 0;
#X connect 208 0 201 0;
#X connect 209 0 201 1;
#X connect 210 0 201 2;
#X connect 211 0 206 0;
#X connect 212 0 206 1;
#X connect 213 0 206 2;
#X connect 214 0 206 3;
#X connect 215 0 115 0;
#X connect 217 0 45 0;
#X connect 217 3 45 1;
#X connect 217 6 45 2;
#X connect 217 9 45 3;
#X connect 218 0 41 0;
#X connect 219 0 220 0;
#X connect 219 0 157 0;
#X connect 219 1 79 0;
#X connect 219 1 133 0;
#X connect 220 0 132 0;
#X coords 0 -1 1 1 300 70 1 100 100;
