#N canvas 304 22 1119 793 10;
#X msg 253 163 draw line;
#X msg 253 186 draw fill;
#X obj 321 -110 gemhead;
#X msg 248 227 draw point;
#X msg 501 304 scale \$1;
#X msg 1060 307 steps \$1;
#X msg 660 319 facets \$1;
#X msg 857 302 thick \$1;
#X msg 926 305 clump \$1 0.5 1;
#X msg 499 450 uvScale 1 1;
#X msg 362 352 pq \$1 3;
#X obj 324 436 pqtorusknots;
#X obj 321 -62 alpha;
#X obj 394 -77 tgl 15 0 empty empty empty 17 7 0 10 -262144 -1 -1 1
1;
#X obj 394 -108 loadbang;
#X obj 321 -33 shaders;
#X obj 501 284 line;
#X obj 663 296 line;
#X obj 663 213 random 250;
#X obj 1060 281 random 250;
#X obj 501 213 random 20;
#X obj 503 185 bng 15 250 50 0 empty empty empty 17 7 0 10 -262144
-1 -1;
#X obj 1060 261 bng 15 250 50 0 empty empty empty 17 7 0 10 -262144
-1 -1;
#X obj 665 183 bng 15 250 50 0 empty empty empty 17 7 0 10 -262144
-1 -1;
#X obj 524 131 bng 15 250 50 0 empty empty empty 17 7 0 10 -262144
-1 -1;
#X obj 858 275 line;
#X obj 855 134 random 250;
#X obj 855 156 / 200;
#X obj 854 98 bng 15 250 50 0 empty empty empty 17 7 0 10 -262144 -1
-1;
#X obj 10 125 fresh/vid.window;
#X obj 519 54 gemkeyboard;
#X obj 532 85 sel 49;
#X obj 138 244 random 3;
#X obj 144 302 sel 0 1 2;
#X obj 926 282 random 20;
#X obj 926 260 bng 15 250 50 0 empty empty empty 17 7 0 10 -262144
-1 -1;
#X obj 383 221 random 400;
#X obj 419 168 bng 15 250 50 0 empty empty empty 17 7 0 10 -262144
-1 -1;
#X obj 1083 259 r \$0-bang;
#X obj 951 257 r \$0-bang;
#X obj 540 112 s \$0-bang;
#X obj 901 102 r \$0-bang;
#X obj 673 126 r \$0-bang;
#X obj 547 172 r \$0-bang;
#X obj 442 168 r \$0-bang;
#X msg 501 264 \$1 \$2;
#X obj 501 242 pack f f;
#X obj 569 212 r \$0-time;
#X msg 669 272 \$1 \$2;
#X obj 669 250 pack f f;
#X obj 737 212 r \$0-time;
#X msg 855 231 \$1 \$2;
#X obj 855 209 pack f f;
#X obj 889 180 r \$0-time;
#X obj 913 -1 s \$0-time;
#X floatatom 912 -60 5 0 0 0 - - -;
#X obj 915 -32 * 100;
#X connect 0 0 11 0;
#X connect 1 0 11 0;
#X connect 2 0 12 0;
#X connect 3 0 11 0;
#X connect 4 0 11 0;
#X connect 5 0 11 0;
#X connect 6 0 11 0;
#X connect 7 0 11 0;
#X connect 8 0 11 0;
#X connect 9 0 11 0;
#X connect 10 0 11 0;
#X connect 12 0 15 0;
#X connect 13 0 12 1;
#X connect 14 0 13 0;
#X connect 15 0 11 0;
#X connect 16 0 4 0;
#X connect 17 0 6 0;
#X connect 18 0 49 0;
#X connect 19 0 5 0;
#X connect 20 0 46 0;
#X connect 21 0 20 0;
#X connect 22 0 19 0;
#X connect 23 0 18 0;
#X connect 25 0 7 0;
#X connect 26 0 27 0;
#X connect 27 0 52 0;
#X connect 28 0 26 0;
#X connect 30 0 31 0;
#X connect 31 0 24 0;
#X connect 31 0 15 1;
#X connect 31 0 32 0;
#X connect 31 0 40 0;
#X connect 32 0 33 0;
#X connect 33 0 0 0;
#X connect 33 1 1 0;
#X connect 33 2 3 0;
#X connect 34 0 8 0;
#X connect 35 0 34 0;
#X connect 36 0 10 0;
#X connect 37 0 36 0;
#X connect 38 0 19 0;
#X connect 39 0 34 0;
#X connect 41 0 26 0;
#X connect 42 0 18 0;
#X connect 43 0 20 0;
#X connect 44 0 36 0;
#X connect 45 0 16 0;
#X connect 46 0 45 0;
#X connect 47 0 46 1;
#X connect 48 0 17 0;
#X connect 49 0 48 0;
#X connect 50 0 49 1;
#X connect 51 0 25 0;
#X connect 52 0 51 0;
#X connect 53 0 52 1;
#X connect 55 0 56 0;
#X connect 56 0 54 0;
