#N canvas 0 25 1343 653 10;
#X obj 245 36 gemhead;
#X obj 245 195 translateXYZ;
#X obj 268 132 f;
#X obj 291 162 f;
#X obj 283 93 r X;
#X obj 306 133 r Y;
#X obj 45 412 loadbang;
#X obj 544 439 line;
#X obj 544 342 t b b;
#X obj 245 422 alpha;
#X obj 420 374 line;
#X obj 420 276 t b b;
#X obj 544 315 r \$1-bt-G;
#X obj 268 60 r \$1-bt-G;
#X obj 360 476 r \$1-bt-G;
#X msg 360 500 0;
#X obj 245 391 colorRGB 1 1 1 0;
#X obj 544 525 pipe 20;
#X obj 544 582 pipe 40;
#X obj 544 639 pipe 60;
#X obj 544 696 pipe 80;
#X obj 544 753 pipe 100;
#X msg 571 395 0;
#X msg 447 330 1;
#X msg 45 439 draw line \, width 1;
#X obj 245 456 circle;
#X obj 245 542 circle;
#X obj 245 599 circle;
#X obj 245 656 circle;
#X obj 245 713 circle;
#X obj 245 770 circle;
#X msg 544 368 5 4000;
#X msg 420 302 0 4000;
#X obj 291 271 sel 0 1;
#X msg 291 351 0;
#X obj 291 235 r \$1-color;
#X msg 268 311 1;
#X msg 361 304 0;
#X obj 420 251 r \$1-bt-G;
#X connect 0 0 1 0;
#X connect 1 0 16 0;
#X connect 2 0 1 1;
#X connect 3 0 1 2;
#X connect 4 0 2 1;
#X connect 5 0 3 1;
#X connect 6 0 24 0;
#X connect 7 0 17 0;
#X connect 7 0 25 1;
#X connect 8 0 31 0;
#X connect 8 1 22 0;
#X connect 9 0 25 0;
#X connect 10 0 16 4;
#X connect 11 0 32 0;
#X connect 11 1 23 0;
#X connect 12 0 8 0;
#X connect 13 0 2 0;
#X connect 13 0 3 0;
#X connect 14 0 15 0;
#X connect 15 0 26 1;
#X connect 15 0 27 1;
#X connect 15 0 28 1;
#X connect 15 0 29 1;
#X connect 15 0 30 1;
#X connect 16 0 9 0;
#X connect 17 0 18 0;
#X connect 17 0 26 1;
#X connect 18 0 19 0;
#X connect 18 0 27 1;
#X connect 19 0 20 0;
#X connect 19 0 28 1;
#X connect 20 0 21 0;
#X connect 20 0 29 1;
#X connect 21 0 30 1;
#X connect 22 0 7 0;
#X connect 23 0 10 0;
#X connect 24 0 25 0;
#X connect 24 0 26 0;
#X connect 24 0 27 0;
#X connect 24 0 28 0;
#X connect 24 0 29 0;
#X connect 24 0 30 0;
#X connect 25 0 26 0;
#X connect 26 0 27 0;
#X connect 27 0 28 0;
#X connect 28 0 29 0;
#X connect 29 0 30 0;
#X connect 31 0 7 0;
#X connect 32 0 10 0;
#X connect 33 0 34 0;
#X connect 33 0 36 0;
#X connect 33 1 37 0;
#X connect 34 0 16 2;
#X connect 34 0 16 3;
#X connect 35 0 33 0;
#X connect 36 0 16 1;
#X connect 37 0 16 2;
#X connect 37 0 16 3;
#X connect 37 0 16 1;
#X connect 38 0 11 0;
