#N canvas 410 92 1328 758 10;
#X obj 321 17 cnv 15 100 60 empty empty empty 20 12 0 14 -261234 -66577
0;
#X obj 163 -93 cnv 15 250 150 empty empty empty 20 12 0 14 -261682
-66577 0;
#X obj 185 -79 clock;
#X text 323 60 KAT STOLEN CANDY;
#X obj 265 5 bng 15 250 50 0 5 empty empty 17 7 0 10 -262144 -1 -1
;
#X obj 264 -44 bng 15 250 50 0 15 empty empty 17 7 0 10 -262144 -1
-1;
#X obj 265 -19 bng 15 250 50 0 10 empty empty 17 7 0 10 -262144 -1
-1;
#X obj 339 -78 vsl 15 100 0 1800 0 0 slider empty empty 0 -9 0 10 -203904
-1 -1 3200 1;
#X text 356 -83 30 min.;
#X text 367 13 0 min.;
#X text 279 -47 15 min.;
#X text 281 -20 10 min.;
#X text 285 7 5 min.;
#X obj 184 -114 bng 20 250 50 0 one empty empty 17 7 0 10 -262130 -1
-1;
#X obj 163 -114 bng 20 250 50 0 create empty empty 17 7 0 10 -261234
-1 -1;
#X obj 206 -114 bng 20 250 50 0 counter empty empty 17 7 0 10 -204786
-1 -1;
#N canvas 9 141 450 300 wrap 0;
#X floatatom 140 55 5 0 0 0 - - -;
#X obj 166 108 bng 15 250 50 0 bang empty empty 17 7 0 10 -261234 -1
-1;
#X obj 140 33 wrap \$1;
#X obj 140 79 select \$1;
#X obj 208 46 - 1;
#X msg 262 60 300;
#X msg 259 36 600;
#X msg 256 7 900;
#X obj 139 -15 inlet;
#X obj 321 -8 bng 15 250 50 0 empty 15 empty 17 7 0 10 -262144 -1 -1
;
#X obj 322 64 bng 15 250 50 0 empty 5 empty 17 7 0 10 -262144 -1 -1
;
#X obj 317 27 bng 15 250 50 0 empty 10 empty 17 7 0 10 -262144 -1 -1
;
#X floatatom 297 139 5 0 0 0 - slider -;
#X obj 295 166 int;
#X floatatom 204 2 5 0 0 0 - - -;
#X obj 364 18 loadbang;
#X connect 0 0 3 0;
#X connect 2 0 0 0;
#X connect 3 0 1 0;
#X connect 4 0 3 1;
#X connect 5 0 14 0;
#X connect 6 0 14 0;
#X connect 7 0 14 0;
#X connect 8 0 2 0;
#X connect 9 0 7 0;
#X connect 10 0 5 0;
#X connect 11 0 6 0;
#X connect 12 0 13 0;
#X connect 13 0 14 0;
#X connect 14 0 2 1;
#X connect 15 0 7 0;
#X restore 183 -51 pd wrap;
#N canvas 0 22 450 300 gem 0;
#X obj 156 -254 cnv 15 220 150 empty empty GEM/CAMERA 20 12 0 14 -260097
-66577 0;
#X msg 187 -212 create;
#X msg 185 -233 destroy;
#X msg 161 -171 1;
#X msg 159 -193 0;
#X obj 216 -172 gemwin;
#X msg 277 -176 color 1 1 1;
#X msg 277 -154 color 0 0 0;
#X msg 277 -199 border 0;
#X msg 278 -222 offset 1680 0;
#X msg 280 -245 dimen 640 480;
#X obj 162 -230 bng 15 250 50 0 empty create empty 17 7 0 10 -262144
-1 -1;
#X obj 162 -139 bng 15 250 50 0 empty one empty 17 7 0 10 -262144 -1
-1;
#X connect 1 0 5 0;
#X connect 2 0 5 0;
#X connect 3 0 5 0;
#X connect 4 0 5 0;
#X connect 6 0 5 0;
#X connect 7 0 5 0;
#X connect 8 0 5 0;
#X connect 9 0 5 0;
#X connect 10 0 5 0;
#X connect 11 0 1 0;
#X connect 12 0 3 0;
#X restore 165 10 pd gem;
#N canvas 672 487 450 300 cam 1;
#X obj -45 -255 cnv 15 200 250 empty empty CAMERA 2 12 0 12 -233017
-66577 0;
#X obj -35 -187 pix_texture;
#X obj -36 -209 pix_video;
#X obj -32 -142 rotateXYZ 0 0 0;
#X obj -37 -232 gemhead;
#X obj -33 -118 rectangle 4 3;
#X obj 20 -248 tgl 15 0 empty empty empty 0 -6 0 10 -262144 -1 -1 1
1;
#X obj -32 -64 pix_write;
#X obj -42 -85 bng 15 250 50 0 empty bang empty 17 7 0 10 -261234 -1
-1;
#X msg 65 -228 dialog;
#X obj -29 -29 outlet;
#X obj -33 -166 translateXYZ 0 0 0;
#X msg -19 -91 file users/kat/stills/test;
#X connect 1 0 11 0;
#X connect 2 0 1 0;
#X connect 3 0 5 0;
#X connect 4 0 2 0;
#X connect 5 0 7 0;
#X connect 6 0 4 0;
#X connect 7 0 10 0;
#X connect 8 0 7 0;
#X connect 9 0 2 0;
#X connect 11 0 3 0;
#X connect 12 0 7 0;
#X restore 164 33 pd cam;
#X obj 167 -79 tgl 15 0 empty counter empty 17 7 0 10 -262144 -1 -1
0 1;
#X text 261 -72 reset;
#X text 320 77 happytrigger 2008;
#X text 173 -132 1 2 3;
#X text 232 -115 <<-- zum Anschalten nacheinander 1 \, 2 \, 3 drücken!
;
#X text 420 -26 dann das Zeitintervall über Knopf oder Slider auswählen!
<<---;
#X connect 2 0 16 0;
#X connect 19 0 2 0;
#X coords 0 1.516e+07 20000 1.514e+07 85 60 0;
