#N canvas 563 133 608 408 10;
#X obj -17 -40 cnv 15 400 100 empty empty empty 20 12 0 14 -204786
-66577 0;
#X obj 1 -220 cnv 15 170 250 empty empty empty 20 12 0 14 -228992 -66577
0;
#X obj 17 -204 gemhead;
#X obj 17 -4 pix_texture;
#X obj 17 -176 alpha;
#X obj 17 -32 pix_alpha;
#X obj 17 -138 pix_video;
#X obj 17 -110 pix_rgba;
#N canvas 413 121 736 515 (subpatch) 0;
#X obj -54 160 pack f f f;
#X msg -54 182 \$1 \$2 \$3;
#X obj 0 2 vsl 15 128 0 1 0 1 empty empty empty 0 -9 0 10 -258113 -1
-1 7549 1;
#X obj 31 2 vsl 15 128 0 1 0 1 empty empty empty 0 -9 0 10 -4034 -1
-1 8541 1;
#X obj 62 2 vsl 15 128 0 1 0 1 empty empty empty 0 -9 0 10 -4160 -1
-1 4473 1;
#X obj -84 161 t b;
#X obj 93 0 nbx 5 14 0 1 0 1 empty empty empty 0 -8 0 10 -258113 -1
-1 0.594409 256;
#X obj 93 29 nbx 5 14 0 1 0 1 empty empty empty 0 -8 0 10 -4034 -1
-1 0.67252 256;
#X obj 93 58 nbx 5 14 0 1 0 1 empty empty empty 0 -8 0 10 -4160 -1
-1 0.352205 256;
#X obj 87 160 pack f f f;
#X msg 87 182 \$1 \$2 \$3;
#X obj 15 2 vsl 15 128 0 1 0 1 empty empty empty 0 -9 0 10 -258113
-1 -1 4628 1;
#X obj 46 2 vsl 15 128 0 1 0 1 empty empty empty 0 -9 0 10 -4034 -1
-1 5620 1;
#X obj 77 2 vsl 15 128 0 1 0 1 empty empty empty 0 -9 0 10 -4160 -1
-1 1552 1;
#X obj 61 160 t b;
#X obj 93 14 nbx 5 14 0 1 0 1 empty empty empty 0 -8 0 10 -258113 -1
-1 0.364409 256;
#X obj 93 44 nbx 5 14 0 1 0 1 empty empty empty 0 -8 0 10 -4034 -1
-1 0.44252 256;
#X obj 93 73 nbx 5 14 0 1 0 1 empty empty empty 0 -8 0 10 -4160 -1
-1 0.122205 256;
#X obj 87 209 outlet;
#X obj -54 208 outlet;
#X obj 0 -151 r R;
#X obj 50 -150 r G;
#X obj 102 -150 r B;
#X obj 0 -61 + 0.1;
#X obj 10 -51 + 0.1;
#X obj 20 -41 + 0.1;
#X obj 88 -61 - 0.1;
#X obj 98 -51 - 0.1;
#X obj 108 -41 - 0.1;
#X obj -262 81 colorRGB;
#X obj -262 109 square 0.5;
#X obj 132 118 tgl 15 1 empty empty empty 17 7 0 10 -86853 -1 -1 1
1;
#X text -338 77 TEST SQUARE;
#X obj -262 47 translateXYZ -3 -2 0;
#X obj 93 104 nbx 5 14 0 1 0 1 empty empty empty 0 -8 0 10 -232576
-1 -1 0.12 256;
#X obj 155 -138 t b;
#X obj 0 -103 f;
#X obj 50 -103 f;
#X obj 102 -103 f;
#X obj 93 89 nbx 5 14 0 1 0 1 empty empty empty 0 -8 0 10 -262130 -1
-1 0.11 256;
#X obj -265 227 colorRGB;
#X obj -265 255 square 0.5;
#X obj -265 165 gemhead 90;
#X obj -265 193 translateXYZ -2.5 -1.5 0;
#X obj -186 293 colorRGB;
#X obj -186 321 square 0.5;
#X obj -186 231 gemhead 90;
#X obj -186 259 translateXYZ -3.5 -2.5 0;
#X obj -262 19 gemhead 92;
#X connect 0 0 1 0;
#X connect 1 0 19 0;
#X connect 2 0 5 0;
#X connect 2 0 6 0;
#X connect 3 0 5 0;
#X connect 3 0 7 0;
#X connect 4 0 0 2;
#X connect 4 0 5 0;
#X connect 4 0 8 0;
#X connect 5 0 0 0;
#X connect 6 0 0 0;
#X connect 6 0 40 1;
#X connect 7 0 0 1;
#X connect 7 0 40 2;
#X connect 8 0 0 2;
#X connect 8 0 40 3;
#X connect 9 0 10 0;
#X connect 10 0 18 0;
#X connect 11 0 14 0;
#X connect 11 0 15 0;
#X connect 12 0 14 0;
#X connect 12 0 16 0;
#X connect 13 0 9 2;
#X connect 13 0 14 0;
#X connect 13 0 17 0;
#X connect 14 0 9 0;
#X connect 15 0 9 0;
#X connect 15 0 44 1;
#X connect 16 0 9 1;
#X connect 16 0 44 2;
#X connect 17 0 9 2;
#X connect 17 0 44 3;
#X connect 20 0 29 1;
#X connect 20 0 36 0;
#X connect 21 0 29 2;
#X connect 21 0 37 0;
#X connect 22 0 29 3;
#X connect 22 0 38 0;
#X connect 23 0 2 0;
#X connect 23 0 40 1;
#X connect 24 0 3 0;
#X connect 24 0 40 2;
#X connect 25 0 4 0;
#X connect 25 0 40 3;
#X connect 26 0 11 0;
#X connect 26 0 44 1;
#X connect 27 0 12 0;
#X connect 27 0 44 2;
#X connect 28 0 13 0;
#X connect 28 0 44 3;
#X connect 29 0 30 0;
#X connect 31 0 48 0;
#X connect 31 0 42 0;
#X connect 31 0 46 0;
#X connect 33 0 29 0;
#X connect 34 0 26 1;
#X connect 34 0 27 1;
#X connect 34 0 28 1;
#X connect 34 0 35 0;
#X connect 35 0 36 0;
#X connect 35 0 37 0;
#X connect 35 0 38 0;
#X connect 36 0 23 0;
#X connect 36 0 26 0;
#X connect 37 0 24 0;
#X connect 37 0 27 0;
#X connect 38 0 25 0;
#X connect 38 0 28 0;
#X connect 39 0 25 1;
#X connect 39 0 24 1;
#X connect 39 0 23 1;
#X connect 39 0 35 0;
#X connect 40 0 41 0;
#X connect 42 0 43 0;
#X connect 43 0 40 0;
#X connect 44 0 45 0;
#X connect 46 0 47 0;
#X connect 47 0 44 0;
#X connect 48 0 33 0;
#X coords 0 1 100 -1 147 133 1 0 0;
#X restore 108 -165 graph;
#X obj 345 55 color 1 0 1;
#X obj 17 24 square 4;
#N canvas 856 129 257 511 Mouse+Data 0;
#X obj 56 261 pix_data;
#X obj 86 63 gemmouse;
#X obj 56 147 t b;
#X obj 137 157 hid/hid_invert;
#X obj 79 398 unpack 0 0 0 0;
#X obj 79 460 s R;
#X obj 106 460 s G;
#X obj 133 460 s B;
#X obj 71 29 inlet;
#X obj 79 368 spigot;
#X floatatom 165 89 5 0 0 0 - - -;
#X obj 137 121 * 0.0016667;
#X obj 86 121 * 0.0016667;
#X obj 127 368 s button;
#X connect 0 1 9 0;
#X connect 1 0 2 0;
#X connect 1 0 12 0;
#X connect 1 1 10 0;
#X connect 1 1 11 0;
#X connect 1 2 9 1;
#X connect 1 2 13 0;
#X connect 2 0 0 0;
#X connect 3 0 0 3;
#X connect 4 0 5 0;
#X connect 4 1 6 0;
#X connect 4 2 7 0;
#X connect 8 0 0 1;
#X connect 9 0 4 0;
#X connect 11 0 3 0;
#X connect 12 0 0 2;
#X restore 17 62 pd Mouse+Data;
#X obj 205 -213 gemwin;
#X msg 205 -237 create \, 1;
#X msg 271 -237 destroy \, 0;
#X obj 345 92 square 4;
#X msg 206 -265 dimen 600 600;
#X obj 345 25 gemhead 5;
#X text 350 73 pink background;
#X text 263 -78 ++ range;
#X text 264 -62 -- range;
#X obj 379 -93 cnv 15 30 30 empty empty empty 20 12 0 14 -45076 -66577
0;
#X obj 410 -123 cnv 15 30 30 empty empty empty 20 12 0 14 -232576 -66577
0;
#X obj 396 -108 cnv 15 30 30 empty empty empty 20 12 0 14 -159808 -66577
0;
#X text 411 -77 -- range;
#X text 428 -94 picked colour;
#X text 442 -108 ++ range;
#X text 274 -211 Instructions:;
#X text 275 -191 1) use mouse on image to pick a colour;
#X text 275 -157 3) make fine adjustments for each colour if needed
;
#X text 275 -174 2) set ++ and -- ranges;
#X text 265 -48 toggles colour boxes;
#X text 430 110 eat more veggies!;
#X text 429 124 - radiostarkiller 7.09;
#X connect 2 0 4 0;
#X connect 3 0 10 0;
#X connect 4 0 6 0;
#X connect 5 0 3 0;
#X connect 6 0 7 0;
#X connect 7 0 5 0;
#X connect 8 0 5 3;
#X connect 8 1 5 4;
#X connect 9 0 15 0;
#X connect 10 0 11 0;
#X connect 13 0 12 0;
#X connect 14 0 12 0;
#X connect 16 0 6 0;
#X connect 16 0 12 0;
#X connect 17 0 9 0;
