#N canvas 613 73 185 286 10;
#X declare -path abs -path ext;
#X obj 6 5 cnv 15 170 270 empty empty empty 20 12 0 14 -15873 -66577
0;
#N canvas 373 29 641 719 keying-guts 0;
#X obj 117 44 gemhead;
#X obj 117 69 pix_video;
#X obj 15 552 pix_texture;
#X obj 117 92 pix_rgba;
#X obj 14 466 pix_alpha;
#X obj 117 116 alpha;
#X obj 216 213 gemmouse 1 1.14;
#X obj 186 313 pix_data;
#X obj 201 185 pix_separator;
#X obj 15 180 pix_separator;
#X obj 259 258 sel 1;
#X obj 208 344 unpack f f f;
#X obj 189 431 gemhead;
#X obj 189 474 colorRGB;
#N canvas 256 617 318 230 color 0;
#X obj 11 8 inlet red;
#X obj 84 9 inlet green;
#X obj 162 9 inlet blue;
#X obj 10 168 outlet minimum;
#X obj 139 170 outlet maximum;
#X obj 139 148 pack f f f;
#X obj 11 145 pack f f f;
#X obj 11 120 + 0.1;
#X obj 48 120 + 0.1;
#X obj 84 121 + 0.1;
#X obj 139 123 - 0.1;
#X obj 176 123 - 0.1;
#X obj 212 123 - 0.1;
#X obj 212 103 f;
#X obj 257 10 inlet Q;
#X obj 257 30 t b f;
#X obj 176 102 f;
#X obj 139 103 f;
#X obj 84 99 f;
#X obj 48 98 f;
#X obj 11 99 f;
#X obj 160 190 print max;
#X obj 47 190 print min;
#X connect 0 0 17 0;
#X connect 0 0 20 0;
#X connect 1 0 16 0;
#X connect 1 0 19 0;
#X connect 2 0 13 0;
#X connect 2 0 18 0;
#X connect 5 0 4 0;
#X connect 5 0 21 0;
#X connect 6 0 3 0;
#X connect 6 0 22 0;
#X connect 7 0 6 0;
#X connect 8 0 6 1;
#X connect 9 0 6 2;
#X connect 10 0 5 0;
#X connect 11 0 5 1;
#X connect 12 0 5 2;
#X connect 13 0 12 0;
#X connect 14 0 15 0;
#X connect 15 0 13 0;
#X connect 15 0 16 0;
#X connect 15 0 17 0;
#X connect 15 0 20 0;
#X connect 15 0 19 0;
#X connect 15 0 18 0;
#X connect 15 1 12 1;
#X connect 15 1 11 1;
#X connect 15 1 10 1;
#X connect 15 1 9 1;
#X connect 15 1 8 1;
#X connect 15 1 7 1;
#X connect 16 0 11 0;
#X connect 17 0 10 0;
#X connect 18 0 9 0;
#X connect 19 0 8 0;
#X connect 20 0 7 0;
#X restore 52 434 pd color;
#X obj 349 158 pix_film;
#X obj 428 27 bng 25 250 50 0 empty \$0-key-openvid-r empty 0 -6 0
8 -262144 -1 -1;
#X obj 428 56 openpanel;
#X msg 428 76 open \$1;
#X msg 429 141 auto \$1;
#X obj 429 121 tgl 15 0 empty \$0-key-playvid-r empty 0 -6 0 8 -262144
-1 -1 0 1;
#X obj 349 189 pix_texture;
#X obj 348 104 alpha;
#X floatatom 363 82 1 0 1 0 - - -;
#X obj 381 82 tgl 15 0 empty empty empty 0 -6 0 8 -262144 -1 -1 0 1
;
#X msg 427 100 colorspace RGBA;
#X obj 348 27 gemhead 1;
#X obj 189 496 translateXYZ 0 -4 0;
#X obj 349 211 rectangle 5.5 4;
#X obj 14 613 declare -path abs -path ext;
#N canvas 1013 398 276 156 vmix-render 0;
#X obj 20 -39 r \$0-gem-render;
#N canvas 592 614 669 267 gem.recorder 0;
#X obj 17 120 gemhead 10000;
#X obj 187 29 tgl 50 0 empty empty empty 0 -6 0 10 -258113 -1 -1 0
1;
#X floatatom 185 200 5 0 0 0 - - -;
#X obj 185 178 route recording file;
#X symbolatom 264 225 60 0 0 0 - - -;
#X obj 264 203 symbol;
#X msg 212 126 saveas...;
#X obj 185 220 print FRAME;
#X msg 201 105 file test_myfile;
#X msg 187 84 record \$1;
#X obj 17 150 gems.record @file test_output;
#X msg 393 116 colorspace rgba;
#X msg 393 95 colorspace yuv;
#X obj 354 133 t a;
#X msg 392 73 offset 0 0 \, dimen 720 480 \, quality 0;
#X obj 392 49 loadbang;
#X obj 187 7 inlet;
#X connect 0 0 10 0;
#X connect 1 0 9 0;
#X connect 2 0 7 0;
#X connect 3 0 2 0;
#X connect 3 1 5 0;
#X connect 5 0 4 0;
#X connect 6 0 10 1;
#X connect 8 0 10 1;
#X connect 9 0 10 1;
#X connect 10 1 3 0;
#X connect 11 0 13 0;
#X connect 12 0 13 0;
#X connect 13 0 10 0;
#X connect 14 0 13 0;
#X connect 15 0 14 0;
#X connect 16 0 1 0;
#X restore 21 30 pd gem.recorder;
#X obj 21 8 r \$0-gem-record;
#X obj 134 57 s \$0-gem-render-r;
#X obj 135 9 gemkeyboard;
#X obj 134 32 select 53;
#X obj 20 -18 gems.win @dimen 720 480;
#X connect 0 0 6 0;
#X connect 2 0 1 0;
#X connect 4 0 5 0;
#X connect 5 0 3 0;
#X restore 13 640 pd vmix-render;
#X floatatom 300 397 5 0 0 0 - - -;
#X floatatom 342 397 5 0 0 0 - - -;
#X floatatom 384 395 5 0 0 0 - - -;
#X obj 291 310 pack f f f;
#X obj 419 308 t b;
#X obj 347 238 r \$0-key-red-r;
#X obj 347 261 r \$0-key-green-r;
#X obj 348 284 r \$0-key-blue-r;
#X obj 419 329 s \$0-key-red-trig-r;
#X obj 450 277 t b;
#X obj 449 301 s \$0-key-red-trig-r;
#X obj 36 366 r \$0-key-thresh-r;
#X obj 15 577 rectangle 6 4;
#X obj 189 517 rectangle 6 0.25;
#X obj 377 473 colorpanel;
#X msg 377 441 bang;
#X obj 377 499 unpack f f f;
#X obj 379 531 s \$0-key-red-trig-r;
#X obj 381 558 s \$0-key-green-trig-r;
#X obj 380 582 s \$0-key-blue-trig-r;
#X obj 463 435 r \$0-colorpanel-r;
#X text 14 3 mark edward grimm 2009;
#X obj 14 525 gems.motion.blur 0.4;
#X obj 151 511 vsl 30 60 0 1 0 0 empty empty empty 0 -9 0 10 -191407
-1 -1 5800 1;
#X floatatom 151 582 5 0 0 0 - - -;
#X text 193 537 <-- change the ratio;
#X connect 0 0 1 0;
#X connect 1 0 3 0;
#X connect 2 0 43 0;
#X connect 3 0 5 0;
#X connect 4 0 53 0;
#X connect 5 0 8 0;
#X connect 5 0 9 0;
#X connect 6 0 7 2;
#X connect 6 1 7 3;
#X connect 6 2 10 0;
#X connect 7 1 11 0;
#X connect 8 0 7 1;
#X connect 9 0 4 0;
#X connect 10 0 7 0;
#X connect 11 0 13 1;
#X connect 11 0 14 0;
#X connect 11 0 31 0;
#X connect 11 1 13 2;
#X connect 11 1 14 1;
#X connect 11 1 32 0;
#X connect 11 2 13 3;
#X connect 11 2 14 2;
#X connect 11 2 33 0;
#X connect 12 0 13 0;
#X connect 13 0 27 0;
#X connect 14 0 4 3;
#X connect 14 1 4 4;
#X connect 15 0 21 0;
#X connect 16 0 17 0;
#X connect 17 0 18 0;
#X connect 18 0 15 0;
#X connect 19 0 15 0;
#X connect 20 0 19 0;
#X connect 21 0 28 0;
#X connect 22 0 15 0;
#X connect 23 0 22 0;
#X connect 24 0 22 1;
#X connect 25 0 15 0;
#X connect 26 0 22 0;
#X connect 27 0 44 0;
#X connect 34 0 11 0;
#X connect 35 0 39 0;
#X connect 36 0 34 0;
#X connect 37 0 34 1;
#X connect 37 0 40 0;
#X connect 38 0 34 2;
#X connect 38 0 35 0;
#X connect 40 0 41 0;
#X connect 42 0 14 3;
#X connect 45 0 47 0;
#X connect 46 0 45 0;
#X connect 47 0 48 0;
#X connect 47 1 49 0;
#X connect 47 2 50 0;
#X connect 51 0 45 0;
#X connect 53 0 2 0;
#X connect 54 0 53 1;
#X connect 54 0 55 0;
#X restore 21 248 pd keying-guts;
#X obj 24 91 hsl 100 15 0 1 0 0 \$0-key-thresh-r empty threshold -2
-8 0 10 -262144 -1 -1 0 1;
#X obj 21 24 bng 25 250 50 0 \$0-key-openvid-r empty Open_Video 0 -6
0 8 -262144 -1 -1;
#X obj 77 26 tgl 15 0 \$0-key-playvid-r empty Play_Video 0 -6 0 8 -262144
-1 -1 0 1;
#X obj 104 210 tgl 25 0 \$0-gem-record empty record 0 10 1 8 -258113
-1 -1 0 1;
#X obj 21 210 tgl 25 0 \$0-gem-render \$0-gem-render-r render 1 10
1 8 -228856 -1 -1 0 1;
#X obj 46 210 tgl 25 0 fullscreen-02-r empty fscr2 2 10 1 8 -228856
-1 -1 0 2;
#X obj 23 120 hsl 100 15 0 1 0 0 \$0-key-red-r \$0-key-red-trig-r red
-2 -8 0 10 -262144 -1 -1 0 1;
#X obj 23 152 hsl 100 15 0 1 0 0 \$0-key-green-r \$0-key-green-trig-r
green -2 -8 0 10 -262144 -1 -1 0 1;
#X obj 23 183 hsl 100 15 0 1 0 0 \$0-key-blue-r \$0-key-blue-trig-r
blue -2 -8 0 10 -262144 -1 -1 0 1;
#X floatatom 131 119 5 0 0 0 - #0-key-red-r -;
#X floatatom 131 151 5 0 0 0 - #0-key-green-r -;
#X floatatom 132 182 5 0 0 0 - #0-key-blue-r -;
#X obj 22 56 bng 15 250 50 0 \$0-colorpanel-r empty color_chooser 17
7 0 10 -262144 -1 -1;
