#N canvas 601 22 385 407 10;
#X obj 18 111 pix_video;
#X obj 192 169 pix_film;
#X obj 271 38 bng 25 250 50 0 empty empty empty 0 -6 0 8 -262144 -1
-1;
#X obj 271 67 openpanel;
#X msg 271 87 open \$1;
#X obj 193 249 cnv 15 100 60 empty empty empty 20 12 0 14 -195568 -66577
0;
#N canvas 0 22 450 300 gemwin 0;
#X obj 132 136 gemwin;
#X obj 67 89 outlet;
#X obj 67 10 inlet;
#X obj 67 41 route create;
#X msg 67 70 set destroy;
#X msg 142 68 set create;
#X msg 132 112 create \, 1;
#X msg 198 112 destroy;
#X connect 2 0 3 0;
#X connect 3 0 4 0;
#X connect 3 0 6 0;
#X connect 3 1 5 0;
#X connect 3 1 7 0;
#X connect 4 0 1 0;
#X connect 5 0 1 0;
#X connect 6 0 0 0;
#X connect 7 0 0 0;
#X restore 204 287 pd gemwin;
#X msg 204 268 create;
#X text 200 247 Create window:;
#X obj 19 336 pix_texture;
#X msg 272 152 auto \$1;
#X obj 272 132 tgl 15 0 empty empty empty 0 -6 0 8 -262144 -1 -1 1
1;
#X msg 75 67 dimen 720 480;
#X obj 19 313 pix_alpha;
#X obj 18 68 alpha;
#X floatatom 33 46 1 0 1 0 - - -;
#X obj 51 46 tgl 15 0 empty empty empty 0 -6 0 8 -262144 -1 -1 1 1
;
#X floatatom 31 137 5 0 1 1 pass - -;
#X floatatom 46 157 5 0 1 1 other - -;
#X msg 66 221 0.6 0.6 0.6;
#X msg 85 289 0.2 0.2 0.2;
#X msg 75 87 colorspace RGBA;
#X obj 192 193 pix_texture;
#X obj 191 115 alpha;
#X floatatom 206 93 1 0 1 0 - - -;
#X obj 224 93 tgl 15 0 empty empty empty 0 -6 0 8 -262144 -1 -1 1 1
;
#X obj 18 17 gemhead;
#X obj 190 15 gemhead 1;
#X msg 270 111 colorspace RGBA;
#X msg 86 268 0 0.92 0.203;
#X msg 68 199 0 0.92 0.203;
#X msg 67 177 0 1 0;
#X msg 85 246 0 1 0;
#X obj 19 361 square 4;
#X obj 192 215 square 4;
#X connect 0 0 13 0;
#X connect 1 0 22 0;
#X connect 2 0 3 0;
#X connect 3 0 4 0;
#X connect 4 0 1 0;
#X connect 6 0 7 0;
#X connect 7 0 6 0;
#X connect 9 0 33 0;
#X connect 10 0 1 0;
#X connect 11 0 10 0;
#X connect 12 0 0 0;
#X connect 13 0 9 0;
#X connect 14 0 0 0;
#X connect 15 0 14 0;
#X connect 16 0 14 1;
#X connect 17 0 13 1;
#X connect 18 0 13 2;
#X connect 19 0 13 3;
#X connect 20 0 13 4;
#X connect 21 0 0 0;
#X connect 22 0 34 0;
#X connect 23 0 1 0;
#X connect 24 0 23 0;
#X connect 25 0 23 1;
#X connect 26 0 14 0;
#X connect 27 0 23 0;
#X connect 28 0 1 0;
#X connect 29 0 13 4;
#X connect 30 0 13 3;
#X connect 31 0 13 3;
#X connect 32 0 13 4;
