#N canvas 570 22 778 770 10;
#X obj 67 161 gemwin;
#X msg 67 121 create \, 1;
#X msg 97 141 destroy;
#X obj 67 101 loadbang;
#X obj 67 211 gemhead;
#X obj 97 251 bng 15 250 50 0 empty empty empty 0 -6 0 8 -262144 -1
-1;
#X obj 327 60 cnv 15 400 120 empty empty empty 20 12 0 14 -158144 -66577
0;
#N canvas 167 101 632 570 glsl 0;
#X obj 76 486 glsl_program;
#X obj 139 349 pack 0 0;
#X obj 159 329 t b f;
#X msg 139 369 link \$1 \$2;
#X msg 99 449 print;
#X obj 76 39 inlet;
#X obj 76 269 glsl_fragment;
#X obj 76 149 glsl_vertex;
#X obj 76 506 outlet;
#X obj 126 39 inlet;
#X obj 176 39 inlet;
#X obj 216 39 inlet;
#X obj 146 169 change;
#X obj 159 289 change;
#X obj 189 419 print linking;
#X obj 149 389 t b a a;
#X obj 99 429 delay 0;
#X obj 257 140 cnv 15 300 150 empty empty empty 20 12 0 14 -104052
-66577 0;
#X text 300 185 Inlet 1: GEMlist;
#X text 300 205 Inlet 2: vertex shader commands;
#X text 300 225 Inlet 3: fragment shader commands;
#X text 300 245 Inlet 4: glsl programm commands;
#X text 290 165 Inlets:;
#X connect 0 0 8 0;
#X connect 1 0 3 0;
#X connect 2 0 1 0;
#X connect 2 1 1 1;
#X connect 3 0 15 0;
#X connect 4 0 0 0;
#X connect 5 0 7 0;
#X connect 6 0 0 0;
#X connect 6 1 13 0;
#X connect 7 0 6 0;
#X connect 7 1 12 0;
#X connect 9 0 7 0;
#X connect 10 0 6 0;
#X connect 11 0 0 0;
#X connect 12 0 1 0;
#X connect 13 0 2 0;
#X connect 15 0 16 0;
#X connect 15 1 0 0;
#X connect 15 2 14 0;
#X connect 16 0 4 0;
#X restore 67 371 pd glsl;
#X obj 97 231 loadbang;
#X obj 67 571 pix_texture;
#X obj 419 595 pix_texture;
#X msg 439 555 texunit 1;
#X obj 419 420 gemhead 20;
#X msg 152 373 print;
#X obj 67 591 square 3;
#X obj 336 364 cnv 15 15 15 empty empty empty 20 12 0 14 -4034 -66577
0;
#X msg 87 271 open v001.lumaglyph.vert;
#X msg 545 409 open tapes.png;
#X msg 124 339 tex0 1;
#X msg 300 430 scale \$1;
#X msg 96 413 open tapes.png;
#X msg 509 555 mode 0;
#X msg 96 433 open p51.png;
#X floatatom 300 364 5 0 0 0 - - -;
#X msg 546 370 open p51.png;
#X msg 77 551 mode 0;
#X obj 300 407 * 0.001;
#X text 346 110 gl_MultiTexCoord1 seems to get wrong information...
;
#X msg 97 291 open v001.lumaglyphNR.frag;
#X obj 67 461 pix_image p51.png;
#X obj 419 483 pix_film;
#X msg 480 461 open taube.mp4 \, auto 1;
#X text 346 80 This seems to kind of work \, but actually is not. It
shows the problems I am running into...;
#X text 346 130 Sampler2D and Sampler2Drect make problems;
#X text 346 150 I try to port lumaglyph shaders from vade's v001.;
#X obj 77 531 loadbang;
#X obj 459 525 loadbang;
#X msg 300 322 3;
#X obj 300 281 loadbang;
#X obj 124 318 delay 100;
#X obj 480 441 loadbang;
#X text 326 210 this shader takes an image (the left one) divides it
into a 10*10 grid and calculates the luma values. then the movie image
(right) gets replaced by tiles from that grid that fit in color information.
;
#X obj 300 301 delay 100;
#X connect 1 0 0 0;
#X connect 2 0 0 0;
#X connect 3 0 1 0;
#X connect 4 0 7 0;
#X connect 5 0 16 0;
#X connect 5 0 28 0;
#X connect 5 0 39 0;
#X connect 7 0 29 0;
#X connect 8 0 5 0;
#X connect 9 0 14 0;
#X connect 11 0 10 0;
#X connect 12 0 30 0;
#X connect 13 0 7 3;
#X connect 16 0 7 1;
#X connect 17 0 30 0;
#X connect 18 0 7 3;
#X connect 19 0 7 3;
#X connect 20 0 29 0;
#X connect 21 0 10 0;
#X connect 22 0 29 0;
#X connect 23 0 26 0;
#X connect 24 0 30 0;
#X connect 25 0 9 0;
#X connect 26 0 19 0;
#X connect 28 0 7 2;
#X connect 29 0 9 0;
#X connect 30 0 10 0;
#X connect 31 0 30 0;
#X connect 35 0 25 0;
#X connect 36 0 11 0;
#X connect 36 0 21 0;
#X connect 37 0 23 0;
#X connect 38 0 42 0;
#X connect 39 0 18 0;
#X connect 40 0 31 0;
#X connect 42 0 37 0;
