#N canvas 522 43 665 452 10;
#X obj 67 161 gemwin;
#X msg 67 121 create \, 1;
#X msg 97 141 destroy;
#X obj 67 101 loadbang;
#X obj 67 211 gemhead;
#X obj 154 207 bng 15 250 50 0 empty empty empty 0 -6 0 8 -262144 -1
-1;
#X obj 207 30 cnv 15 400 120 empty empty empty 20 12 0 14 -104052 -66577
0;
#X text 226 120 See the two files for some more details.;
#X msg 104 243 open ms.02.vert;
#X msg 208 243 open ms.02.frag;
#X floatatom 155 294 5 0 0 0 - - -;
#X text 226 50 This shader flattens the object.;
#X floatatom 120 294 5 0 0 0 - - -;
#X obj 67 311 rotateXYZ;
#X obj 67 341 teapot;
#N canvas 167 101 628 566 glsl 0;
#X obj 76 486 glsl_program;
#X obj 139 349 pack 0 0;
#X obj 159 329 t b f;
#X msg 139 369 link \$1 \$2;
#X msg 99 449 print;
#X obj 76 39 inlet;
#X obj 76 269 glsl_fragment;
#X obj 76 149 glsl_vertex;
#X obj 76 506 outlet;
#X obj 126 39 inlet;
#X obj 176 39 inlet;
#X obj 216 39 inlet;
#X obj 146 169 change;
#X obj 159 289 change;
#X obj 189 419 print linking;
#X obj 149 389 t b a a;
#X obj 99 429 delay 0;
#X obj 257 140 cnv 15 300 150 empty empty empty 20 12 0 14 -104052
-66577 0;
#X text 300 185 Inlet 1: GEMlist;
#X text 300 205 Inlet 2: vertex shader commands;
#X text 300 225 Inlet 3: fragment shader commands;
#X text 300 245 Inlet 4: glsl programm commands;
#X text 290 165 Inlets:;
#X connect 0 0 8 0;
#X connect 1 0 3 0;
#X connect 2 0 1 0;
#X connect 2 1 1 1;
#X connect 3 0 15 0;
#X connect 4 0 0 0;
#X connect 5 0 7 0;
#X connect 6 0 0 0;
#X connect 6 1 13 0;
#X connect 7 0 6 0;
#X connect 7 1 12 0;
#X connect 9 0 7 0;
#X connect 10 0 6 0;
#X connect 11 0 0 0;
#X connect 12 0 1 0;
#X connect 13 0 2 0;
#X connect 15 0 16 0;
#X connect 15 1 0 0;
#X connect 15 2 14 0;
#X connect 16 0 4 0;
#X restore 67 271 pd glsl;
#X obj 154 187 loadbang;
#X obj 354 207 bng 15 250 50 0 empty empty empty 0 -6 0 8 -262144 -1
-1;
#X msg 354 243 open ms.02b.vert;
#X text 380 205 load "02b";
#X text 226 90 ms.02b is similar \, but adds sine waves;
#X floatatom 199 293 5 0 0 0 - - -;
#X text 226 338 (this is actually a little different than expected
\, because it flattens the y axis \, don't know why???);
#X text 180 205 reload "02";
#X text 381 221 (flat + sine);
#X text 226 70 rotate the teapot \, to see that the z dimension is
set to 0;
#X connect 1 0 0 0;
#X connect 2 0 0 0;
#X connect 3 0 1 0;
#X connect 4 0 15 0;
#X connect 5 0 8 0;
#X connect 5 0 9 0;
#X connect 8 0 15 1;
#X connect 9 0 15 2;
#X connect 10 0 13 2;
#X connect 12 0 13 1;
#X connect 13 0 14 0;
#X connect 15 0 13 0;
#X connect 16 0 5 0;
#X connect 17 0 18 0;
#X connect 18 0 15 1;
#X connect 21 0 13 3;
