#N canvas 219 267 749 589 10;
#X obj 76 486 glsl_program;
#X obj 139 349 pack 0 0;
#X obj 159 329 t b f;
#X msg 139 369 link \$1 \$2;
#X msg 99 449 print;
#X obj 76 39 inlet;
#X obj 76 269 glsl_fragment;
#X obj 76 149 glsl_vertex;
#X obj 400 131 symbol \$1;
#X msg 400 151 open \$1;
#X msg 390 201 open \$1;
#X obj 390 181 symbol \$2;
#X obj 390 41 loadbang;
#X obj 76 506 outlet;
#X obj 126 39 inlet;
#X obj 176 39 inlet;
#X obj 216 39 inlet;
#X obj 146 169 change;
#X obj 159 289 change;
#X obj 189 419 print linking;
#X obj 149 389 t b a a;
#X obj 390 91 t b b;
#X obj 99 429 delay 0;
#X obj 287 250 cnv 15 400 260 empty empty empty 20 12 0 14 -104052
-66577 0;
#X text 330 395 Inlet 1: GEMlist;
#X text 330 415 Inlet 2: vertex shader commands;
#X text 330 435 Inlet 3: fragment shader commands;
#X text 330 455 Inlet 4: glsl programm commands;
#X text 320 305 Arguments:;
#X text 330 325 \$1: name of vertex program;
#X text 330 345 \$2: name of fragment program;
#X text 320 375 Inlets:;
#X text 310 265 Abstraction to load vertex shader and fragment shader
and link them automatically;
#X connect 0 0 13 0;
#X connect 1 0 3 0;
#X connect 2 0 1 0;
#X connect 2 1 1 1;
#X connect 3 0 20 0;
#X connect 4 0 0 0;
#X connect 5 0 7 0;
#X connect 6 0 0 0;
#X connect 6 1 18 0;
#X connect 7 0 6 0;
#X connect 7 1 17 0;
#X connect 8 0 9 0;
#X connect 9 0 7 0;
#X connect 10 0 6 0;
#X connect 11 0 10 0;
#X connect 12 0 21 0;
#X connect 14 0 7 0;
#X connect 15 0 6 0;
#X connect 16 0 0 0;
#X connect 17 0 1 0;
#X connect 18 0 2 0;
#X connect 20 0 22 0;
#X connect 20 1 0 0;
#X connect 20 2 19 0;
#X connect 21 0 11 0;
#X connect 21 1 8 0;
#X connect 22 0 4 0;
