#N canvas 552 138 442 399 10;
#X obj 190 14 gemmouse 1 1;
#X floatatom 108 77 5 0 0 0 - - -;
#X obj 162 122 expr $f1*-8+4;
#X floatatom 162 151 5 0 0 0 - - -;
#X obj 162 182 v posY;
#X obj 108 103 v posX;
#N canvas 771 42 469 688 add-circle 0;
#X obj 33 83 tgl 15 0 empty empty empty 17 7 0 10 -262144 -1 -1 0 1
;
#X obj 33 106 sel 1 0;
#X obj 212 413 f;
#X obj 255 413 + 1;
#X obj 300 413 % 10;
#X floatatom 212 443 5 0 0 0 - - -;
#X text 268 440 id;
#X obj 212 595 s addCircle;
#X obj 213 292 distance2d;
#X floatatom 213 328 5 0 0 0 - - -;
#X obj 33 171 v posX;
#X obj 81 203 v posY;
#X obj 33 141 t b b;
#X obj 33 242 pack f f;
#X obj 212 176 v posX;
#X obj 260 208 v posY;
#X obj 213 247 pack f f;
#X obj 212 139 t b b;
#X obj 213 365 t b f;
#X obj 212 564 pack f f f f;
#X text 275 325 radius;
#X text 309 242 end(x \, y);
#X obj 33 274 s stratPos;
#X obj 250 495 r stratPos;
#X obj 250 526 unpack f f;
#X obj 328 288 r stratPos;
#X obj 31 53 inlet;
#X obj 281 361 r tgl-circle;
#X connect 0 0 1 0;
#X connect 1 0 12 0;
#X connect 1 1 17 0;
#X connect 2 0 3 0;
#X connect 2 0 5 0;
#X connect 3 0 4 0;
#X connect 4 0 2 1;
#X connect 5 0 19 0;
#X connect 8 0 9 0;
#X connect 9 0 18 0;
#X connect 10 0 13 0;
#X connect 11 0 13 1;
#X connect 12 0 10 0;
#X connect 12 1 11 0;
#X connect 13 0 22 0;
#X connect 14 0 16 0;
#X connect 15 0 16 1;
#X connect 16 0 8 0;
#X connect 17 0 14 0;
#X connect 17 1 15 0;
#X connect 18 0 2 0;
#X connect 18 1 19 3;
#X connect 19 0 7 0;
#X connect 23 0 24 0;
#X connect 24 0 19 1;
#X connect 24 1 19 2;
#X connect 25 0 8 1;
#X connect 26 0 0 0;
#X connect 27 0 2 1;
#X restore 248 123 pd add-circle;
#X obj 248 55 t f f;
#X obj 215 173 gemkeyboard;
#X floatatom 215 202 5 0 0 0 - - -;
#X obj 215 290 s tgl-circle;
#X obj 215 230 sel 49;
#X msg 215 260 0;
#X obj 11 8 c-circle 0;
#N canvas 166 82 507 675 point-circle 0;
#X obj 128 245 gemhead;
#X obj 128 387 translateXYZ;
#X obj 128 425 circle 0.1;
#X obj 37 427 loadbang;
#X obj 304 431 distance2d;
#X obj 304 365 v posX;
#X obj 381 363 v posY;
#X obj 304 397 pack f f;
#X floatatom 304 465 5 0 0 0 - - -;
#X obj 128 278 t a b;
#X obj 304 325 t b b;
#X obj 304 277 spigot;
#X obj 401 399 r stratPos;
#X obj 218 199 r stratPos;
#X obj 217 230 unpack f f;
#X obj 370 251 tgl 15 0 empty empty empty 17 7 0 10 -262144 -1 -1 0
1;
#X obj 370 214 inlet;
#X obj 128 317 colorRGB 1 1 1 1;
#X msg 36 457 draw point;
#X obj 128 350 GEMglPointSize 3;
#X connect 0 0 9 0;
#X connect 1 0 2 0;
#X connect 3 0 18 0;
#X connect 4 0 8 0;
#X connect 5 0 7 0;
#X connect 6 0 7 1;
#X connect 7 0 4 0;
#X connect 8 0 2 1;
#X connect 9 0 17 0;
#X connect 9 1 11 0;
#X connect 10 0 5 0;
#X connect 10 1 6 0;
#X connect 11 0 10 0;
#X connect 12 0 4 1;
#X connect 13 0 14 0;
#X connect 14 0 1 1;
#X connect 14 1 1 2;
#X connect 15 0 11 1;
#X connect 15 0 0 0;
#X connect 16 0 15 0;
#X connect 17 0 19 0;
#X connect 18 0 2 0;
#X connect 19 0 1 0;
#X restore 295 86 pd point-circle;
#X obj 124 362 gemwin;
#X msg 99 290 destroy;
#X obj 99 263 sel 0 1;
#X obj 99 222 tgl 30 0 empty empty empty 17 7 0 10 -262144 -1 -1 1
1;
#X msg 124 328 FSAA 8 \, create \, 1;
#X obj 108 51 expr $f1*8-4;
#X obj 296 234 catch~ all;
#X obj 296 293 dac~;
#X obj 12 36 c-circle 1;
#X obj 12 62 c-circle 2;
#X obj 13 90 c-circle 3;
#X obj 13 120 c-circle 4;
#X obj 13 147 c-circle 5;
#X obj 14 175 c-circle 6;
#X obj 14 201 c-circle 7;
#X obj 15 229 c-circle 8;
#X obj 15 259 c-circle 9;
#X obj 296 262 *~ 0.1;
#X connect 0 0 20 0;
#X connect 0 1 2 0;
#X connect 0 2 7 0;
#X connect 1 0 5 0;
#X connect 2 0 3 0;
#X connect 3 0 4 0;
#X connect 7 0 6 0;
#X connect 7 1 14 0;
#X connect 8 0 9 0;
#X connect 9 0 11 0;
#X connect 11 0 12 0;
#X connect 12 0 10 0;
#X connect 16 0 15 0;
#X connect 17 0 16 0;
#X connect 17 1 19 0;
#X connect 18 0 17 0;
#X connect 19 0 15 0;
#X connect 20 0 1 0;
#X connect 21 0 32 0;
#X connect 32 0 22 0;
#X connect 32 0 22 1;
