#N canvas 603 22 630 708 10;
#X obj 158 360 translateXYZ;
#X obj 158 26 gemhead;
#X obj 12 86 gemwin;
#X msg 10 53 create \, 1;
#X msg 12 28 0 \, destroy;
#X obj 158 89 t a b;
#X obj 185 111 int;
#X obj 212 112 + 1;
#X obj 185 133 mod 100;
#X obj 185 153 t f f;
#X obj 185 177 tabread x;
#X obj 158 47 repeat 100;
#X obj 158 68 separator;
#X obj 256 176 tabread y;
#X obj 160 621 circle 0.22;
#X obj 158 518 t a b;
#X obj 158 476 colorRGB 0.1 0.25 0.5 0.2;
#X obj 158 498 alpha;
#X obj 410 232 r btn;
#X obj 410 253 select 1;
#X obj 410 412 line;
#X msg 410 389 0 \, 0.2 20;
#X msg 456 367 0.2 \, 0 700;
#X obj 455 274 t b b;
#X obj 482 295 delay 700;
#X msg 482 318 \; y const 0 \; x const 0 \;;
#N canvas 245 219 825 677 mouse 0;
#X obj 338 0 gemmouse 8 8;
#X obj 306 88 - 4;
#X obj 385 108 + 4;
#X obj 385 88 * -1;
#X obj 306 109 t a b;
#X obj 324 134 int;
#X obj 351 135 + 1;
#X obj 323 157 mod 100;
#X obj 295 210 table x;
#X obj 297 185 tabwrite x;
#X obj 384 130 t a b;
#X obj 400 152 int;
#X obj 427 153 + 1;
#X obj 399 175 mod 100;
#X obj 373 203 tabwrite y;
#X obj 373 226 table y;
#X obj 593 34 s btn;
#X obj 494 82 select 1;
#X msg 493 104 0;
#X obj 506 136 s set;
#X obj 305 68 spigot;
#X obj 385 67 spigot;
#X obj 385 30 t f f f f;
#X connect 0 0 20 0;
#X connect 0 1 21 0;
#X connect 0 2 22 0;
#X connect 1 0 4 0;
#X connect 2 0 10 0;
#X connect 3 0 2 0;
#X connect 4 0 9 0;
#X connect 4 1 5 0;
#X connect 5 0 6 0;
#X connect 5 0 7 0;
#X connect 6 0 5 1;
#X connect 7 0 9 1;
#X connect 10 0 14 0;
#X connect 10 1 11 0;
#X connect 11 0 12 0;
#X connect 11 0 13 0;
#X connect 12 0 11 1;
#X connect 13 0 14 1;
#X connect 17 0 18 0;
#X connect 18 0 11 1;
#X connect 18 0 5 1;
#X connect 18 0 19 0;
#X connect 20 0 1 0;
#X connect 21 0 3 0;
#X connect 22 0 20 1;
#X connect 22 1 21 1;
#X connect 22 2 17 0;
#X connect 22 3 16 0;
#X restore 10 112 pd mouse;
#X obj 7 161 table size;
#X obj 212 218 abs;
#X obj 283 218 abs;
#X obj 268 240 +;
#X obj 269 262 / 4;
#X obj 267 285 t a b;
#X obj 342 314 int;
#X obj 369 315 + 1;
#X obj 342 334 mod 100;
#X obj 267 356 tabwrite size;
#X obj 224 555 int;
#X obj 251 556 + 1;
#X obj 223 578 mod 100;
#X obj 200 90 r set;
#X obj 239 534 r set;
#X obj 223 599 tabread size;
#X obj 185 197 t f f;
#X obj 256 198 t f f;
#X text 27 658 Click and drag in the gemwin \, release to clear the
screen.;
#X msg 77 73 mouse 0;
#X obj 10 135 fresh/vid.window;
#X connect 0 0 16 0;
#X connect 1 0 11 0;
#X connect 3 0 2 0;
#X connect 4 0 2 0;
#X connect 5 0 0 0;
#X connect 5 1 6 0;
#X connect 6 0 7 0;
#X connect 6 0 8 0;
#X connect 7 0 6 1;
#X connect 8 0 9 0;
#X connect 9 0 10 0;
#X connect 9 1 13 0;
#X connect 10 0 43 0;
#X connect 11 0 12 0;
#X connect 12 0 5 0;
#X connect 13 0 44 0;
#X connect 15 0 14 0;
#X connect 15 1 37 0;
#X connect 16 0 17 0;
#X connect 17 0 15 0;
#X connect 18 0 19 0;
#X connect 19 0 21 0;
#X connect 19 1 23 0;
#X connect 20 0 16 4;
#X connect 21 0 20 0;
#X connect 22 0 20 0;
#X connect 23 0 22 0;
#X connect 23 1 24 0;
#X connect 24 0 25 0;
#X connect 28 0 30 0;
#X connect 29 0 30 1;
#X connect 30 0 31 0;
#X connect 31 0 32 0;
#X connect 32 0 36 0;
#X connect 32 1 33 0;
#X connect 33 0 34 0;
#X connect 33 0 35 0;
#X connect 34 0 33 1;
#X connect 35 0 36 1;
#X connect 37 0 38 0;
#X connect 37 0 39 0;
#X connect 38 0 37 1;
#X connect 39 0 42 0;
#X connect 40 0 6 1;
#X connect 41 0 37 1;
#X connect 42 0 14 1;
#X connect 43 0 0 1;
#X connect 43 1 28 0;
#X connect 44 0 0 2;
#X connect 44 1 29 0;
#X connect 46 0 2 0;
