#N canvas 13 22 1023 406 10;
#X obj 33 260 world_light;
#X obj 593 113 gemhead -1;
#X obj 593 234 pix_snap2tex;
#X msg 638 210 0 0;
#X msg 684 209 500 500;
#X obj 638 187 t b b;
#X obj 593 194 t b a;
#X obj 593 272 alpha;
#X floatatom 766 262 5 0 0 0 - - -;
#X obj 593 340 square 4;
#X obj 771 114 vsl 15 128 0 1 0 0 empty empty empty 0 -8 0 8 -262144
-1 -1 12700 1;
#X msg 63 118 frame \$1;
#X floatatom 63 100 5 0 0 0 - - -;
#X obj 593 296 colorRGB 1 1 1 0.888;
#X obj 33 236 gemhead;
#X obj 49 173 gemwin 100;
#X msg 49 69 create \, 1 \, lighting 1;
#X obj 638 168 loadbang;
#X msg 68 150 destroy;
#X text 267 31 FullScreen Motion Blur:;
#X obj 118 234 gemhead;
#X floatatom 825 145 5 0 0 0 - - -;
#X obj 390 340 translateXYZ 0 0 0.1;
#X obj 423 206 env~;
#X obj 422 229 bang;
#X obj 408 249 snapshot~;
#X obj 495 206 env~;
#X obj 494 229 bang;
#X obj 480 249 snapshot~;
#X obj 414 371 circle 0.02;
#X obj 512 154 r re;
#X obj 814 114 s re;
#X msg 769 86 0;
#X obj 718 69 del 200;
#X msg 720 91 1;
#X obj 748 38 bng 15 250 50 0 empty empty empty 17 7 0 10 -262144 -1
-1;
#X obj 179 117 env~;
#X obj 178 140 bang;
#X obj 164 160 snapshot~;
#X obj 235 99 osc~ 0.1;
#X obj 251 117 env~;
#X obj 250 140 bang;
#X obj 236 167 snapshot~;
#X obj 164 99 osc~ 0.11;
#X obj 268 65 r re;
#X obj 219 251 colourRGB;
#X obj 314 118 env~;
#X obj 313 141 bang;
#X obj 299 161 snapshot~;
#X obj 298 100 osc~ 0.105;
#X obj 407 188 osc~ 0.41;
#X obj 479 188 osc~ 0.401;
#X obj 169 194 + 1.1;
#X obj 226 199 + 1.1;
#X obj 290 197 + 1.1;
#X obj 407 293 * 3.8;
#X obj 481 294 * 3.8;
#X obj 500 270 r mult;
#X obj 885 114 line;
#X obj 888 145 s mult;
#X obj 838 56 del 60000;
#X msg 810 78 1;
#X msg 864 88 1 \, 3.8 300000;
#X floatatom 874 173 5 0 0 0 - - -;
#X connect 1 0 6 0;
#X connect 2 0 7 0;
#X connect 3 0 2 1;
#X connect 4 0 2 2;
#X connect 5 0 3 0;
#X connect 5 1 4 0;
#X connect 6 0 2 0;
#X connect 6 1 2 0;
#X connect 7 0 13 0;
#X connect 8 0 13 4;
#X connect 10 0 8 0;
#X connect 11 0 15 0;
#X connect 12 0 11 0;
#X connect 13 0 9 0;
#X connect 14 0 0 0;
#X connect 16 0 15 0;
#X connect 17 0 5 0;
#X connect 18 0 15 0;
#X connect 20 0 45 0;
#X connect 22 0 29 0;
#X connect 23 0 24 0;
#X connect 24 0 25 0;
#X connect 25 0 55 0;
#X connect 26 0 27 0;
#X connect 27 0 28 0;
#X connect 28 0 56 0;
#X connect 30 0 50 1;
#X connect 30 0 51 1;
#X connect 32 0 10 0;
#X connect 32 0 31 0;
#X connect 33 0 34 0;
#X connect 34 0 10 0;
#X connect 35 0 32 0;
#X connect 35 0 33 0;
#X connect 35 0 60 0;
#X connect 35 0 61 0;
#X connect 36 0 37 0;
#X connect 37 0 38 0;
#X connect 38 0 52 0;
#X connect 39 0 40 0;
#X connect 39 0 42 0;
#X connect 40 0 41 0;
#X connect 41 0 42 0;
#X connect 42 0 53 0;
#X connect 43 0 36 0;
#X connect 43 0 38 0;
#X connect 44 0 39 1;
#X connect 44 0 43 1;
#X connect 44 0 49 1;
#X connect 45 0 22 0;
#X connect 46 0 47 0;
#X connect 47 0 48 0;
#X connect 48 0 54 0;
#X connect 49 0 46 0;
#X connect 49 0 48 0;
#X connect 50 0 23 0;
#X connect 50 0 25 0;
#X connect 51 0 26 0;
#X connect 51 0 28 0;
#X connect 52 0 45 1;
#X connect 53 0 45 2;
#X connect 54 0 45 3;
#X connect 55 0 22 1;
#X connect 56 0 22 2;
#X connect 57 0 56 1;
#X connect 57 0 55 1;
#X connect 58 0 59 0;
#X connect 58 0 63 0;
#X connect 60 0 62 0;
#X connect 61 0 58 0;
#X connect 62 0 58 0;
