#N canvas 0 25 963 653 10;
#X obj 60 147 gemwin;
#X msg 60 84 destroy;
#X obj 60 47 sel 0 1;
#X obj 60 13 tgl 15 0 empty empty empty 17 7 0 10 -262144 -1 -1 1 1
;
#X obj 76 219 gemmouse 8 8;
#X floatatom 76 398 5 0 0 0 - - -;
#X obj 93 322 expr 8 - $f1;
#X floatatom 93 347 5 0 0 0 - - -;
#X obj 76 423 s X;
#X obj 93 373 s Y;
#X obj 110 258 sel 1;
#X obj 281 535 s;
#X obj 281 446 t b b;
#X msg 308 506 symbol \$1-bt-G;
#X obj 60 -19 init 1;
#X obj 300 412 s X;
#X obj 391 397 s Y;
#X obj 281 276 t b b b;
#X obj 281 159 tgl 15 0 empty empty empty 17 7 0 10 -262144 -1 -1 0
1;
#X obj 391 374 / 10;
#X obj 300 362 random 81;
#X obj 391 341 random 80;
#X obj 300 389 / 10;
#X obj 173 571 tgl 15 0 empty empty empty 17 7 0 10 -262144 -1 -1 0
1;
#X obj 173 600 s;
#X msg 223 583 symbol \$1-color;
#X obj 741 246 onde 15;
#X floatatom 308 210 5 0 0 0 - - -;
#X obj 308 481 counter 1 32;
#X obj 300 316 spigot;
#X obj 391 293 spigot;
#X obj 424 210 tgl 15 0 empty empty empty 17 7 0 10 -262144 -1 -1 0
1;
#X obj 308 183 init 400;
#X obj 281 245 metro;
#X text 327 583 Alterne le rouge et le noir;
#X text 442 209 Active le positionnement aleatoire;
#X text 301 158 Active le clic gauche automatique;
#X text 76 185 Permet de suivre;
#X text 74 201 le curseur;
#N canvas 0 0 340 141 infos 0;
#X text 17 53 http://www.labomedia.net;
#X text 17 18 http://www.yamatierea.org/papatchs;
#X text 18 80 Avec l'aide précieuse de Benjamin Cadon.;
#X text 17 6 Tissé par Olivier Baudu.;
#X text 17 41 Pour le Labomedia.;
#X text 18 108 26/03/11;
#X restore 230 -17 pd infos;
#X obj 741 85 onde 1;
#X obj 741 145 onde 7;
#X obj 785 85 onde 2;
#X obj 785 145 onde 8;
#X obj 741 105 onde 3;
#X obj 785 105 onde 4;
#X obj 741 125 onde 5;
#X obj 785 125 onde 6;
#X obj 741 186 onde 9;
#X obj 795 186 onde 10;
#X obj 741 206 onde 11;
#X obj 795 206 onde 12;
#X obj 741 226 onde 13;
#X obj 795 226 onde 14;
#X obj 795 246 onde 16;
#X obj 741 296 onde 17;
#X obj 741 316 onde 18;
#X obj 741 336 onde 19;
#X obj 741 356 onde 20;
#X obj 795 296 onde 21;
#X obj 795 316 onde 22;
#X obj 795 336 onde 23;
#X obj 795 356 onde 24;
#X obj 743 403 onde 25;
#X obj 743 423 onde 26;
#X obj 743 443 onde 27;
#X obj 743 463 onde 28;
#X obj 797 403 onde 29;
#X obj 797 423 onde 30;
#X obj 797 443 onde 31;
#X obj 797 463 onde 32;
#X msg 79 111 color 1 1 1 \, dimen 500 500 \, view 4 4 4 \, create
\, 1;
#X connect 1 0 0 0;
#X connect 2 0 1 0;
#X connect 2 1 71 0;
#X connect 3 0 2 0;
#X connect 4 0 5 0;
#X connect 4 1 6 0;
#X connect 4 2 10 0;
#X connect 5 0 8 0;
#X connect 6 0 7 0;
#X connect 7 0 9 0;
#X connect 10 0 12 0;
#X connect 12 0 11 0;
#X connect 12 0 23 0;
#X connect 12 1 28 0;
#X connect 13 0 11 1;
#X connect 14 0 3 0;
#X connect 17 0 12 0;
#X connect 17 1 29 0;
#X connect 17 2 30 0;
#X connect 18 0 33 0;
#X connect 19 0 16 0;
#X connect 20 0 22 0;
#X connect 21 0 19 0;
#X connect 22 0 15 0;
#X connect 23 0 24 0;
#X connect 25 0 24 1;
#X connect 27 0 33 1;
#X connect 28 0 13 0;
#X connect 28 0 25 0;
#X connect 29 0 20 0;
#X connect 30 0 21 0;
#X connect 31 0 29 1;
#X connect 31 0 30 1;
#X connect 32 0 27 0;
#X connect 33 0 17 0;
#X connect 71 0 0 0;
