#N canvas 677 128 292 543 10;
#X obj 57 23 gemhead -1;
#X obj 145 27 gemmouse;
#X obj 138 183 pack 0 0;
#X obj 138 160 f;
#X obj 74 317 pix_snap;
#X msg 82 290 snap;
#X obj 76 430 pix_dump;
#X obj 83 214 t b b;
#X obj 132 204 t b l b l;
#X obj 57 63 t a b;
#X obj 106 70 f;
#X obj 85 127 select 1;
#X msg 142 74 0;
#X msg 153 301 1 1;
#X obj 87 245 del 0;
#X msg 196 70 500 \$1;
#X obj 199 95 -;
#X msg 131 471 \$1 \$2 \$3;
#X obj 131 492 outlet;
#X obj 73 350 t a b;
#X obj 106 409 select 1;
#X obj 127 361 f;
#X msg 194 378 0;
#X obj 129 384 t f b;
#X obj 98 93 t f b f;
#X connect 0 0 9 0;
#X connect 1 0 3 1;
#X connect 1 1 15 0;
#X connect 1 2 10 1;
#X connect 2 0 8 0;
#X connect 3 0 2 0;
#X connect 4 0 19 0;
#X connect 5 0 4 0;
#X connect 6 1 17 0;
#X connect 7 0 14 0;
#X connect 7 1 5 0;
#X connect 8 0 7 0;
#X connect 8 1 4 1;
#X connect 8 2 13 0;
#X connect 9 0 4 0;
#X connect 9 1 10 0;
#X connect 10 0 24 0;
#X connect 11 0 3 0;
#X connect 12 0 10 1;
#X connect 13 0 4 2;
#X connect 15 0 16 0;
#X connect 16 0 2 1;
#X connect 17 0 18 0;
#X connect 19 0 6 0;
#X connect 19 1 21 0;
#X connect 20 0 6 0;
#X connect 21 0 23 0;
#X connect 22 0 21 1;
#X connect 23 0 20 0;
#X connect 23 1 22 0;
#X connect 24 0 11 0;
#X connect 24 1 12 0;
#X connect 24 2 21 1;
