#N canvas 744 48 398 508 10;
#X obj 20 105 pix_video;
#X obj 205 139 pix_film;
#X obj 284 8 bng 25 250 50 0 empty empty empty 0 -6 0 8 -262144 -1
-1;
#X obj 284 37 openpanel;
#X msg 284 57 open \$1;
#X obj 210 261 cnv 15 100 60 empty empty empty 20 12 0 14 -195568 -66577
0;
#N canvas 0 22 450 300 gemwin 0;
#X obj 132 136 gemwin;
#X obj 67 89 outlet;
#X obj 67 10 inlet;
#X obj 67 41 route create;
#X msg 67 70 set destroy;
#X msg 142 68 set create;
#X msg 132 112 create \, 1;
#X msg 198 112 destroy;
#X connect 2 0 3 0;
#X connect 3 0 4 0;
#X connect 3 0 6 0;
#X connect 3 1 5 0;
#X connect 3 1 7 0;
#X connect 4 0 1 0;
#X connect 5 0 1 0;
#X connect 6 0 0 0;
#X connect 7 0 0 0;
#X restore 221 299 pd gemwin;
#X msg 221 280 destroy;
#X text 217 259 Create window:;
#X obj 18 427 pix_texture;
#X msg 285 122 auto \$1;
#X obj 285 102 tgl 15 0 empty empty empty 0 -6 0 8 -262144 -1 -1 1
1;
#X msg 77 61 dimen 720 480;
#X obj 18 354 pix_alpha;
#X floatatom 32 159 5 0 1 1 pass - -;
#X floatatom 46 187 5 0 1 1 other - -;
#X msg 77 81 colorspace RGBA;
#X obj 205 170 pix_texture;
#X obj 204 85 alpha;
#X floatatom 219 63 1 0 1 0 - - -;
#X obj 237 63 tgl 15 0 empty empty empty 0 -6 0 8 -262144 -1 -1 0 1
;
#X msg 283 81 colorspace RGBA;
#X obj 18 455 square 4;
#X obj 205 192 square 4;
#X floatatom 111 366 5 0 100 0 blur - -;
#X obj 18 402 pix_motionblur;
#X obj 111 383 / 100;
#X obj 20 11 gemhead;
#X obj 204 8 gemhead 1;
#X msg 65 244 0.6 0.6 0.6;
#X msg 71 268 0.2 0.2 0.2;
#X obj 20 128 pix_rgba;
#X obj 20 52 alpha;
#X floatatom 32 34 1 0 1 0 - - -;
#X obj 47 34 tgl 15 0 empty empty empty 0 -6 0 8 -262144 -1 -1 0 1
;
#N canvas 764 548 490 300 color-selection 0;
#X obj 165 89 nbx 3 14 0 255 0 0 empty empty empty 0 -6 0 10 -262144
-1 -1 0 256;
#X obj 207 89 nbx 3 14 0 255 0 0 empty empty empty 0 -6 0 10 -262144
-1 -1 0 256;
#X obj 250 88 nbx 3 14 0 255 0 0 empty empty empty 0 -6 0 10 -262144
-1 -1 0 256;
#X obj 206 128 t b f;
#X obj 249 128 t b f;
#X obj 206 152 pack f f f;
#X obj 165 109 / 255;
#X obj 206 106 / 255;
#X obj 249 106 / 255;
#X obj 29 90 nbx 3 14 0 255 0 0 empty empty empty 0 -6 0 10 -262144
-1 -1 0 256;
#X obj 70 90 nbx 3 14 0 255 0 0 empty empty empty 0 -6 0 10 -262144
-1 -1 0 256;
#X obj 113 89 nbx 3 14 0 255 0 0 empty empty empty 0 -6 0 10 -262144
-1 -1 0 256;
#X obj 69 129 t b f;
#X obj 112 129 t b f;
#X obj 69 153 pack f f f;
#X obj 29 110 / 255;
#X obj 69 107 / 255;
#X obj 112 107 / 255;
#X floatatom 29 132 5 0 0 0 - - -;
#X floatatom 166 129 5 0 0 0 - - -;
#X text 26 73 high-threshold (RGB);
#X text 164 72 low-threshold (RGB);
#X obj 299 46 color-select-02;
#X obj 301 89 unpack f f f;
#X obj 58 219 outlet;
#X obj 216 229 outlet;
#X obj 293 131 + 0.4;
#X obj 338 131 + 0.4;
#X obj 385 133 + 0.4;
#X obj 291 168 - 0.4;
#X obj 339 167 - 0.4;
#X obj 389 167 - 0.4;
#X obj 451 64 vsl 15 128 0 1 0 0 empty empty empty 0 -9 0 10 -262144
-1 -1 4300 1;
#X floatatom 433 224 5 0 0 0 - - -;
#X connect 0 0 6 0;
#X connect 1 0 7 0;
#X connect 2 0 8 0;
#X connect 3 0 5 0;
#X connect 3 1 5 1;
#X connect 4 0 5 0;
#X connect 4 1 5 2;
#X connect 5 0 25 0;
#X connect 6 0 5 0;
#X connect 6 0 19 0;
#X connect 7 0 3 0;
#X connect 8 0 4 0;
#X connect 9 0 15 0;
#X connect 10 0 16 0;
#X connect 11 0 17 0;
#X connect 12 0 14 0;
#X connect 12 1 14 1;
#X connect 13 0 14 0;
#X connect 13 1 14 2;
#X connect 14 0 24 0;
#X connect 15 0 14 0;
#X connect 15 0 18 0;
#X connect 16 0 12 0;
#X connect 17 0 13 0;
#X connect 22 0 23 0;
#X connect 23 0 26 0;
#X connect 23 0 29 0;
#X connect 23 1 27 0;
#X connect 23 1 30 0;
#X connect 23 2 28 0;
#X connect 23 2 31 0;
#X connect 26 0 14 0;
#X connect 27 0 14 1;
#X connect 28 0 14 2;
#X connect 29 0 5 0;
#X connect 30 0 5 1;
#X connect 31 0 5 2;
#X connect 32 0 31 1;
#X connect 32 0 28 1;
#X connect 32 0 27 1;
#X connect 32 0 30 1;
#X connect 32 0 26 1;
#X connect 32 0 29 1;
#X connect 32 0 33 0;
#X restore 58 216 pd color-selection;
#X obj 259 424 gems.record;
#X connect 0 0 31 0;
#X connect 1 0 17 0;
#X connect 2 0 3 0;
#X connect 3 0 4 0;
#X connect 4 0 1 0;
#X connect 6 0 7 0;
#X connect 7 0 6 0;
#X connect 9 0 22 0;
#X connect 10 0 1 0;
#X connect 11 0 10 0;
#X connect 12 0 0 0;
#X connect 13 0 25 0;
#X connect 14 0 13 1;
#X connect 15 0 13 2;
#X connect 16 0 0 0;
#X connect 17 0 23 0;
#X connect 18 0 1 0;
#X connect 19 0 18 0;
#X connect 20 0 18 1;
#X connect 21 0 1 0;
#X connect 24 0 26 0;
#X connect 25 0 9 0;
#X connect 26 0 25 1;
#X connect 27 0 32 0;
#X connect 28 0 18 0;
#X connect 29 0 13 3;
#X connect 30 0 13 4;
#X connect 31 0 13 0;
#X connect 32 0 0 0;
#X connect 33 0 32 0;
#X connect 34 0 32 1;
#X connect 35 0 13 3;
#X connect 35 1 13 4;
