#N canvas 250 22 875 756 10;
#X obj 103 117 cnv 15 44 30 empty empty empty 20 12 0 14 -66577 -66577
0;
#N canvas 759 22 629 781 coordinates 0;
#X obj -59 56 inlet;
#X obj -53 718 outlet;
#X obj 45 66 atan;
#X msg 45 45 1;
#X obj 45 88 / 45;
#X obj 45 24 loadbang;
#X text -54 33 r phi theta;
#X obj -59 82 unpack 0 0 0;
#X obj -20 127 *;
#X obj 20 127 *;
#X obj -28 234 *;
#X obj 2 235 *;
#X obj -84 227 t f f f;
#X obj -84 126 *;
#X floatatom 68 320 10 0 0 0 - - -;
#X obj 68 342 s v-distance;
#X obj -53 696 pack 0 0 0 0 0 0;
#X obj -37 344 unpack f f f;
#X obj 55 457 unpack f f f;
#X obj -84 383 f;
#X obj -38 395 f;
#X obj 4 382 f;
#X obj -130 341 t b b b;
#X obj 37 617 line;
#X obj 68 643 line;
#X obj 101 666 line;
#X obj -84 410 + 0;
#X obj -38 420 + 0;
#X obj 4 410 + 0;
#X obj -57 521 pack 0 0 0 0 0 0;
#X obj -57 544 unpack f f f f f f;
#X obj -28 201 cos;
#X obj 2 202 sin;
#X obj 35 202 cos;
#X obj 65 203 sin;
#X text 142 19 x = x0 + rsin(theta)*cos(phi);
#X text 142 29 y = y0 + rsin(theta)*sin(phi);
#X text 142 39 z = z0 + rcos(theta);
#X text 142 49 0 <= phi <= 2pi;
#X text 142 59 0 <= theta <= pi;
#X obj -28 170 t f f f;
#X obj 35 171 t f f f;
#X floatatom -84 156 5 0 0 0 - - -;
#X floatatom -20 147 5 0 0 0 - - -;
#X floatatom 42 149 5 0 0 0 - - -;
#X obj -63 279 * 1;
#X obj -23 279 * 1;
#X obj 26 281 * 1;
#X text 93 89 z x y;
#X floatatom -57 493 5 0 0 0 - - -;
#X floatatom -21 492 5 0 0 0 - - -;
#X floatatom 16 492 5 0 0 0 - - -;
#X obj -66 599 line;
#X obj -35 625 line;
#X obj -2 648 line;
#X obj -113 652 s view-x;
#X obj -113 678 s view-y;
#X obj -20 671 s view-z;
#X obj 56 436 r \$0-viewpoint;
#X obj -130 317 r \$0-fix-view;
#X obj -37 318 r \$0-viewpoint;
#X msg -66 576 \$1 500;
#X msg -35 601 \$1 500;
#X msg -2 624 \$1 500;
#X msg 37 594 \$1 500;
#X msg 101 640 \$1 500;
#X msg 68 618 \$1 500;
#X connect 0 0 7 0;
#X connect 2 0 4 0;
#X connect 3 0 2 0;
#X connect 4 0 9 1;
#X connect 4 0 8 1;
#X connect 4 0 13 1;
#X connect 5 0 3 0;
#X connect 7 0 13 0;
#X connect 7 1 8 0;
#X connect 7 2 9 0;
#X connect 8 0 43 0;
#X connect 9 0 44 0;
#X connect 10 0 45 1;
#X connect 11 0 46 1;
#X connect 12 0 45 0;
#X connect 12 1 46 0;
#X connect 12 2 14 0;
#X connect 12 2 47 0;
#X connect 13 0 42 0;
#X connect 14 0 15 0;
#X connect 16 0 1 0;
#X connect 17 0 26 1;
#X connect 17 1 27 1;
#X connect 17 2 28 1;
#X connect 18 0 29 3;
#X connect 18 1 29 4;
#X connect 18 2 29 5;
#X connect 19 0 26 0;
#X connect 20 0 27 0;
#X connect 21 0 28 0;
#X connect 22 0 19 0;
#X connect 22 1 20 0;
#X connect 22 2 21 0;
#X connect 23 0 16 3;
#X connect 24 0 16 4;
#X connect 25 0 16 5;
#X connect 26 0 49 0;
#X connect 27 0 50 0;
#X connect 28 0 51 0;
#X connect 29 0 30 0;
#X connect 30 0 61 0;
#X connect 30 1 62 0;
#X connect 30 2 63 0;
#X connect 30 3 64 0;
#X connect 30 4 66 0;
#X connect 30 5 65 0;
#X connect 31 0 10 0;
#X connect 32 0 11 0;
#X connect 33 0 10 1;
#X connect 33 0 11 1;
#X connect 34 0 47 1;
#X connect 40 0 31 0;
#X connect 40 1 32 0;
#X connect 41 0 33 0;
#X connect 41 1 34 0;
#X connect 42 0 12 0;
#X connect 43 0 40 0;
#X connect 44 0 41 0;
#X connect 45 0 21 0;
#X connect 46 0 19 0;
#X connect 47 0 20 0;
#X connect 49 0 29 0;
#X connect 50 0 29 1;
#X connect 51 0 29 2;
#X connect 52 0 16 0;
#X connect 52 0 55 0;
#X connect 53 0 16 1;
#X connect 53 0 56 0;
#X connect 54 0 16 2;
#X connect 54 0 57 0;
#X connect 58 0 18 0;
#X connect 59 0 22 0;
#X connect 60 0 17 0;
#X connect 61 0 52 0;
#X connect 62 0 53 0;
#X connect 63 0 54 0;
#X connect 64 0 23 0;
#X connect 65 0 25 0;
#X connect 66 0 24 0;
#X restore -205 399 pd coordinates;
#X obj -205 184 pack;
#X obj -205 206 spigot;
#X obj -205 285 t b f;
#X obj -205 373 pack 4 0 0;
#X obj -162 82 t f f;
#X obj -161 112 -;
#X obj -203 100 t f f;
#X obj -205 131 -;
#X obj -161 137 t f f;
#X obj -27 205 spigot;
#X obj 6 176 tgl 15 0 empty empty empty 17 7 0 10 -262144 -1 -1 0 1
;
#X obj -27 275 t f f;
#X obj -27 256 +;
#X floatatom -27 298 7 0 0 0 - - -;
#X obj -172 185 tgl 15 0 empty empty empty 17 7 0 10 -262144 -1 -1
0 1;
#N canvas 163 61 559 453 spigot 0;
#X obj -147 -73 inlet;
#X obj 52 -62 inlet;
#X obj 100 -59 inlet;
#X obj 276 -58 inlet;
#X obj -147 48 outlet;
#X obj 52 117 outlet;
#X obj -147 -25 / 640;
#X obj 52 21 / 480;
#X obj -106 -84 r \$0-xy;
#X obj -106 -61 unpack f f;
#X obj -147 23 line;
#X obj 52 96 line;
#X msg -147 0 \$1 50;
#X msg 52 74 \$1 50;
#X floatatom 52 49 5 0 0 0 - - -;
#X floatatom -147 -51 5 0 0 0 - - -;
#X floatatom 52 -7 5 0 0 0 - - -;
#X obj 187 -57 inlet;
#X obj 187 -31 s mousecenter;
#X obj -54 -107 metro 100;
#X obj -54 -131 tgl 15 0 empty empty empty 17 7 0 10 -262144 -1 -1
1 1;
#X obj -54 -156 loadbang;
#X obj -54 -84 t b b;
#X obj 276 -31 s mouseright2;
#X obj 100 -32 s mouseleft2;
#X connect 0 0 15 0;
#X connect 1 0 16 0;
#X connect 2 0 24 0;
#X connect 3 0 23 0;
#X connect 6 0 12 0;
#X connect 7 0 14 0;
#X connect 8 0 9 0;
#X connect 9 0 6 1;
#X connect 9 1 7 1;
#X connect 10 0 4 0;
#X connect 11 0 5 0;
#X connect 12 0 10 0;
#X connect 13 0 11 0;
#X connect 14 0 13 0;
#X connect 15 0 6 0;
#X connect 16 0 7 0;
#X connect 17 0 18 0;
#X connect 19 0 22 0;
#X connect 20 0 19 0;
#X connect 21 0 20 0;
#X connect 22 0 15 0;
#X connect 22 1 16 0;
#X restore -203 52 pd spigot;
#X obj -205 -29 gemmouse;
#X floatatom -205 158 5 0 0 0 - - -;
#X floatatom -161 160 5 0 0 0 - - -;
#X obj -49 400 s fader;
#X floatatom -49 379 5 0 0 0 - - -;
#X msg -205 430 view \$1 \$2 \$3 \$4 \$5 \$6 0 1 0;
#X msg -49 356 \$1;
#X floatatom -205 306 5 0 0 0 z - -;
#X msg 51 249 0;
#X obj 24 224 t f b;
#X obj -27 318 moses 751;
#X floatatom -107 379 5 0 0 0 - - -;
#X obj -107 400 s fadery;
#X msg -107 355 \$2;
#X floatatom -120 258 5 0 0 1 y - -;
#X floatatom -177 343 5 0 0 0 x - -;
#X obj -27 230 * 200;
#X floatatom -205 3 5 0 0 0 - - -;
#X floatatom -193 28 5 0 0 0 - - -;
#X obj -120 279 t b f;
#X obj -205 227 unpack;
#N canvas 360 110 942 742 translate 0;
#X obj 142 435 t f f;
#X obj 142 388 +;
#X floatatom 142 413 5 0 0 0 - - -;
#X obj 178 365 r \$0-addy;
#X obj 142 458 * -1;
#X obj 77 435 t f f;
#X obj 77 390 +;
#X obj 16 364 r \$0-addx;
#X obj 77 458 * -1;
#X obj -78 108 v \$0-pos-x;
#X obj -51 294 change;
#X obj -78 197 t f f;
#X obj -78 34 tgl 15 0 empty empty empty 17 7 0 10 -262144 -1 -1 0
1;
#X floatatom -78 136 5 0 0 0 - - -;
#X obj -78 327 v \$0-pos-x;
#X obj -51 224 -;
#X floatatom -51 248 5 0 0 0 - - -;
#X obj -78 167 + 1;
#X obj -78 55 t f b;
#X obj -4 87 v \$0-pos-x;
#X obj -4 112 -;
#X obj -4 161 sel 0 1;
#X obj -4 137 > 0.001;
#X floatatom 11 52 5 0 0 0 - - -;
#X obj -16 -128 r \$0-front;
#X obj -16 -48 unpack f f;
#X obj -16 -21 t b f;
#X obj 255 299 change;
#X obj 228 200 t f f;
#X obj 228 37 tgl 15 0 empty empty empty 17 7 0 10 -262144 -1 -1 0
1;
#X floatatom 228 139 5 0 0 0 - - -;
#X obj 255 227 -;
#X floatatom 255 251 5 0 0 0 - - -;
#X obj 228 170 + 1;
#X obj 228 58 t f b;
#X obj 302 115 -;
#X obj 302 164 sel 0 1;
#X obj 302 140 > 0.001;
#X floatatom 317 55 5 0 0 0 - - -;
#X obj 228 325 v \$0-pos-y;
#X obj 302 90 v \$0-pos-y;
#X obj 228 111 v \$0-pos-y;
#X obj 41 -22 t b f;
#X msg -16 -99 0 0;
#X floatatom 77 365 5 0 0 0 - - -;
#X floatatom 142 365 5 0 0 0 - - -;
#X obj 77 161 inlet;
#X obj 142 160 inlet;
#X obj 77 482 outlet;
#X obj 142 482 outlet;
#X obj 77 211 int;
#X obj 142 210 int;
#X obj 142 184 * 1000;
#X obj 77 185 * 1000;
#X obj 142 233 / 10;
#X obj 77 234 / 10;
#X obj -78 85 metro 5;
#X obj 228 88 metro 5;
#X floatatom 541 30 5 0 0 0 - - -;
#X msg 541 81 1;
#X obj 568 368 change;
#X obj 541 269 t f f;
#X obj 541 106 tgl 15 0 empty empty empty 17 7 0 10 -262144 -1 -1 0
1;
#X floatatom 541 208 5 0 0 0 - - -;
#X obj 568 296 -;
#X floatatom 568 320 5 0 0 0 - - -;
#X obj 541 239 + 1;
#X obj 541 127 t f b;
#X obj 615 184 -;
#X obj 615 233 sel 0 1;
#X obj 615 209 > 0.001;
#X floatatom 630 124 5 0 0 0 - - -;
#X obj 541 59 t b f;
#X obj 568 341 expr if($f1>-0.1 && $f1<0.1 \, 1 \, 0);
#X obj 615 159 v \$0-pos-z;
#X obj 541 394 v \$0-pos-z;
#X obj 541 179 v \$0-pos-z;
#X obj 541 157 metro 1;
#X obj 504 417 s \$0-z-dis-2;
#X obj 541 2 r \$0-z-dis;
#X obj -16 -73 t a b;
#X msg -78 9 1;
#X msg 228 12 1;
#X obj -51 269 expr if($f1>-0.1 && $f1<0.1 \, 1 \, 0);
#X obj 255 272 expr if($f1>-0.1 && $f1<0.1 \, 1 \, 0);
#X msg 27 187 -0.01;
#X msg -6 234 0.01;
#X msg 302 190 0.01;
#X msg 333 190 -0.01;
#X msg 615 258 0.2;
#X msg 646 260 -0.2;
#X connect 0 0 4 0;
#X connect 0 1 1 1;
#X connect 1 0 2 0;
#X connect 2 0 0 0;
#X connect 3 0 1 0;
#X connect 4 0 49 0;
#X connect 5 0 8 0;
#X connect 5 1 6 1;
#X connect 6 0 5 0;
#X connect 7 0 6 0;
#X connect 8 0 48 0;
#X connect 9 0 13 0;
#X connect 10 0 12 0;
#X connect 11 0 14 0;
#X connect 11 0 5 0;
#X connect 11 1 15 0;
#X connect 12 0 18 0;
#X connect 13 0 17 0;
#X connect 15 0 16 0;
#X connect 16 0 83 0;
#X connect 17 0 11 0;
#X connect 18 0 56 0;
#X connect 18 1 19 0;
#X connect 19 0 20 0;
#X connect 20 0 22 0;
#X connect 21 0 86 0;
#X connect 21 1 85 0;
#X connect 22 0 21 0;
#X connect 23 0 20 1;
#X connect 23 0 15 1;
#X connect 24 0 43 0;
#X connect 25 0 26 0;
#X connect 25 1 42 0;
#X connect 26 0 81 0;
#X connect 26 1 23 0;
#X connect 27 0 29 0;
#X connect 28 0 39 0;
#X connect 28 0 0 0;
#X connect 28 1 31 0;
#X connect 29 0 34 0;
#X connect 30 0 33 0;
#X connect 31 0 32 0;
#X connect 32 0 84 0;
#X connect 33 0 28 0;
#X connect 34 0 57 0;
#X connect 34 1 40 0;
#X connect 35 0 37 0;
#X connect 36 0 87 0;
#X connect 36 1 88 0;
#X connect 37 0 36 0;
#X connect 38 0 35 1;
#X connect 38 0 31 1;
#X connect 40 0 35 0;
#X connect 41 0 30 0;
#X connect 42 0 82 0;
#X connect 42 1 38 0;
#X connect 43 0 80 0;
#X connect 44 0 6 0;
#X connect 45 0 1 0;
#X connect 46 0 53 0;
#X connect 47 0 52 0;
#X connect 50 0 55 0;
#X connect 51 0 54 0;
#X connect 52 0 51 0;
#X connect 53 0 50 0;
#X connect 54 0 45 0;
#X connect 55 0 44 0;
#X connect 56 0 9 0;
#X connect 57 0 41 0;
#X connect 58 0 72 0;
#X connect 59 0 62 0;
#X connect 60 0 62 0;
#X connect 61 0 75 0;
#X connect 61 0 78 0;
#X connect 61 1 64 0;
#X connect 62 0 67 0;
#X connect 63 0 66 0;
#X connect 64 0 65 0;
#X connect 65 0 73 0;
#X connect 66 0 61 0;
#X connect 67 0 77 0;
#X connect 67 1 74 0;
#X connect 68 0 70 0;
#X connect 69 0 89 0;
#X connect 69 1 90 0;
#X connect 70 0 69 0;
#X connect 71 0 68 1;
#X connect 71 0 64 1;
#X connect 72 0 59 0;
#X connect 72 1 71 0;
#X connect 73 0 60 0;
#X connect 74 0 68 0;
#X connect 76 0 63 0;
#X connect 77 0 76 0;
#X connect 79 0 58 0;
#X connect 80 0 25 0;
#X connect 81 0 12 0;
#X connect 82 0 29 0;
#X connect 83 0 10 0;
#X connect 84 0 27 0;
#X connect 85 0 17 1;
#X connect 86 0 17 1;
#X connect 87 0 33 1;
#X connect 88 0 33 1;
#X connect 89 0 66 1;
#X connect 90 0 66 1;
#X restore -205 259 pd translate;
#X obj -152 187 r mouseleft2;
#X obj 6 154 r mouseright2;
#X obj 24 198 r \$0-z-dis-2;
#X obj 112 119 bng 25 250 50 0 empty empty empty 17 7 0 10 -262144
-1 -1;
#X obj 106 217 s \$0-fix-view;
#X obj 194 220 s \$0-viewpoint;
#X msg 106 180 0;
#X obj 80 285 s \$0-front;
#X obj 154 272 s \$0-z-dis;
#X msg 154 248 229;
#X obj 112 73 loadbang;
#X obj -205 454 outlet;
#X obj 148 343 r mouseleft2;
#X obj 158 321 r mousecenter;
#X obj 177 300 r mouseright2;
#X obj 148 391 sel 1 0;
#X obj 144 483 gemhead;
#X obj 143 605 curve 2;
#X msg 168 578 0 0 0;
#X obj 144 535 t a b b;
#X msg 216 578 5 0 0;
#X obj 144 505 color 1 0 0;
#X obj 263 475 gemhead;
#X obj 262 600 curve 2;
#X msg 287 573 0 0 0;
#X obj 263 530 t a b b;
#X obj 376 526 gemhead;
#X obj 374 651 curve 2;
#X msg 399 624 0 0 0;
#X obj 375 581 t a b b;
#X obj 263 500 color 0 1 0;
#X msg 335 573 0 5 0;
#X msg 447 624 0 0 5;
#X obj 376 549 color 0 0 1;
#X obj 81 511 loadbang;
#X msg 81 534 width 3;
#X msg 148 413 1;
#X msg 180 414 0;
#X obj 147 441 tgl 30 0 empty empty empty 17 7 0 10 -262144 -1 -1 0
1;
#X obj 451 141 r view-y;
#X obj 417 214 r view-x;
#X obj 515 191 r view-z;
#X obj 400 466 text2d;
#X msg 433 443 12;
#X obj 433 420 loadbang;
#X obj 417 277 pack f f f;
#X obj 400 331 gemhead -1;
#X obj 417 246 expr int($f1*100)/100;
#X obj 451 170 expr int($f1*100)/100;
#X obj 515 214 expr int($f1*100)/100;
#X msg 417 301 text Camera [x=\$1 y=\$2 z=\$3];
#X obj 400 392 translateXYZ 0 3.5 0;
#X obj 397 361 color 0.3 0.3 0.3;
#X obj -42 504 gemhead;
#X floatatom 194 136 5 0 0 0 - - -;
#X obj 106 151 hsl 40 15 1 8 0 0 empty empty empty -2 -8 0 10 -262144
-1 -1 2400 1;
#X msg 194 161 perspec -1 1 -1 1 \$1 20;
#X obj -42 526 sphere 0.1 40;
#X connect 1 0 24 0;
#X connect 1 0 23 0;
#X connect 1 0 31 0;
#X connect 2 0 3 0;
#X connect 3 0 38 0;
#X connect 4 0 25 0;
#X connect 4 1 33 0;
#X connect 5 0 1 0;
#X connect 6 0 7 1;
#X connect 6 1 7 0;
#X connect 7 0 10 0;
#X connect 8 0 9 1;
#X connect 8 1 9 0;
#X connect 9 0 19 0;
#X connect 10 0 20 0;
#X connect 10 1 11 0;
#X connect 11 0 34 0;
#X connect 12 0 11 1;
#X connect 13 0 15 0;
#X connect 13 1 14 1;
#X connect 14 0 13 0;
#X connect 15 0 28 0;
#X connect 16 0 3 1;
#X connect 17 0 8 0;
#X connect 17 1 6 0;
#X connect 18 0 35 0;
#X connect 18 1 36 0;
#X connect 18 2 17 2;
#X connect 18 3 17 3;
#X connect 18 4 17 4;
#X connect 19 0 2 0;
#X connect 20 0 2 1;
#X connect 22 0 21 0;
#X connect 23 0 51 0;
#X connect 24 0 22 0;
#X connect 25 0 5 0;
#X connect 26 0 14 1;
#X connect 27 0 14 0;
#X connect 27 1 26 0;
#X connect 28 0 25 0;
#X connect 29 0 30 0;
#X connect 31 0 29 0;
#X connect 32 0 37 0;
#X connect 33 0 5 1;
#X connect 34 0 14 0;
#X connect 35 0 17 0;
#X connect 36 0 17 1;
#X connect 37 0 25 0;
#X connect 37 1 5 2;
#X connect 38 0 39 0;
#X connect 38 1 39 1;
#X connect 39 0 4 0;
#X connect 39 1 32 0;
#X connect 40 0 16 0;
#X connect 41 0 12 0;
#X connect 42 0 27 0;
#X connect 43 0 46 0;
#X connect 43 0 49 0;
#X connect 46 0 47 0;
#X connect 46 0 44 0;
#X connect 46 0 45 0;
#X connect 46 0 55 0;
#X connect 49 0 48 0;
#X connect 50 0 43 0;
#X connect 52 0 55 0;
#X connect 53 0 55 0;
#X connect 54 0 55 0;
#X connect 55 0 76 0;
#X connect 55 1 77 0;
#X connect 56 0 61 0;
#X connect 58 0 57 1;
#X connect 59 0 57 0;
#X connect 59 1 58 0;
#X connect 59 2 60 0;
#X connect 60 0 57 2;
#X connect 61 0 59 0;
#X connect 62 0 70 0;
#X connect 64 0 63 1;
#X connect 65 0 63 0;
#X connect 65 1 64 0;
#X connect 65 2 71 0;
#X connect 66 0 73 0;
#X connect 68 0 67 1;
#X connect 69 0 67 0;
#X connect 69 1 68 0;
#X connect 69 2 72 0;
#X connect 70 0 65 0;
#X connect 71 0 63 2;
#X connect 72 0 67 2;
#X connect 73 0 69 0;
#X connect 74 0 75 0;
#X connect 75 0 57 0;
#X connect 75 0 63 0;
#X connect 75 0 67 0;
#X connect 76 0 78 0;
#X connect 77 0 78 0;
#X connect 78 0 56 0;
#X connect 78 0 62 0;
#X connect 78 0 66 0;
#X connect 78 0 86 0;
#X connect 78 0 93 0;
#X connect 79 0 88 0;
#X connect 80 0 87 0;
#X connect 81 0 89 0;
#X connect 83 0 82 1;
#X connect 84 0 83 0;
#X connect 85 0 90 0;
#X connect 86 0 92 0;
#X connect 87 0 85 0;
#X connect 88 0 85 1;
#X connect 89 0 85 2;
#X connect 90 0 82 0;
#X connect 91 0 82 0;
#X connect 92 0 91 0;
#X connect 93 0 97 0;
#X connect 94 0 96 0;
#X connect 95 0 94 0;
#X connect 96 0 51 0;
#X coords 0 -1 1 1 50 70 1 100 100;
