#N canvas 119 25 840 580 10;
#X obj 232 359 gemhead;
#X obj 353 542 color 1 1 1;
#X msg 416 612 0 0 0;
#X obj 416 589 loadbang;
#X msg 610 472 draw line;
#X msg 467 472 draw fill;
#X msg 537 472 draw point;
#X msg 737 472 draw linestrip;
#X msg 678 472 draw tri;
#X msg 913 478 draw tristrip;
#X msg 833 476 draw trifan;
#X msg 1097 479 draw quad;
#X msg 1007 479 draw quadstrip;
#X msg 585 382 1 1 \$1;
#X floatatom 579 357 5 0 0 0 - - -;
#X msg 628 382 \$1 1 0;
#X floatatom 631 355 5 0 0 0 - - -;
#X floatatom 672 357 5 0 0 0 - - -;
#X floatatom 720 357 5 0 0 0 - - -;
#X msg 714 382 0 1 \$1;
#X msg 672 382 1 \$1 0;
#X floatatom 758 359 5 0 0 0 - - -;
#X floatatom 815 359 5 0 0 0 - - -;
#X msg 758 382 \$1 0 1;
#X msg 815 382 0 \$1 1;
#X floatatom 908 292 5 0 0 0 - - -;
#X floatatom 976 292 5 0 0 0 - - -;
#X msg 908 383 0 0 \$1;
#X msg 976 383 1 1 \$1;
#X obj 677 559 curve 8;
#X obj 450 308 pack f f f;
#X obj 452 337 / 150;
#N canvas 98 413 450 300 knots 1;
#X msg 485 98 draw line;
#X msg 485 121 draw fill;
#X floatatom 563 99 5 -5 5 2 size - -;
#X msg 486 142 draw point;
#X msg 602 98 scale \$1;
#X floatatom 563 120 5 10 256 2 - - -;
#X msg 603 119 steps \$1;
#X floatatom 563 140 5 0 0 0 - - -;
#X floatatom 563 160 5 0.2 1 2 - - -;
#X msg 603 139 facets \$1;
#X msg 603 159 thick \$1;
#X msg 603 181 clump \$1 0.5 1;
#X floatatom 563 183 2 9 20 0 - - -;
#X msg 603 235 uvScale 1 1;
#X floatatom 558 209 5 0 0 0 - - -;
#X msg 603 207 pq \$1 3;
#X obj 554 259 pqtorusknots;
#X obj 556 -5 inlet;
#X obj 556 17 translateXYZ;
#X obj 594 -6 inlet;
#X obj 633 -8 inlet;
#X obj 357 56 inlet;
#X obj 357 78 * 50;
#X floatatom 481 206 5 0 0 0 - - -;
#X obj 648 18 inlet;
#X msg 342 155 20;
#X msg 344 209 131;
#X msg 344 174 9;
#X msg 344 192 219;
#X msg 344 136 1;
#X obj 310 121 loadbang;
#X obj 316 90 * 50;
#X obj 314 56 inlet;
#X msg 598 72 0.5;
#X obj 556 39 color \$1 \$2 \$3;
#X msg 479 57 draw tri;
#X msg 470 26 draw quadstrip;
#X connect 0 0 16 0;
#X connect 1 0 16 0;
#X connect 2 0 4 0;
#X connect 3 0 16 0;
#X connect 4 0 16 0;
#X connect 5 0 6 0;
#X connect 6 0 16 0;
#X connect 7 0 9 0;
#X connect 8 0 10 0;
#X connect 9 0 16 0;
#X connect 10 0 16 0;
#X connect 11 0 16 0;
#X connect 12 0 11 0;
#X connect 13 0 16 0;
#X connect 14 0 15 0;
#X connect 15 0 16 0;
#X connect 17 0 18 0;
#X connect 18 0 34 0;
#X connect 19 0 18 1;
#X connect 20 0 18 2;
#X connect 21 0 22 0;
#X connect 22 0 5 0;
#X connect 23 0 13 0;
#X connect 24 0 34 1;
#X connect 25 0 7 0;
#X connect 26 0 23 0;
#X connect 27 0 12 0;
#X connect 28 0 14 0;
#X connect 29 0 2 0;
#X connect 30 0 29 0;
#X connect 30 0 25 0;
#X connect 30 0 27 0;
#X connect 30 0 28 0;
#X connect 30 0 26 0;
#X connect 31 0 23 0;
#X connect 32 0 31 0;
#X connect 33 0 2 0;
#X connect 34 0 16 0;
#X connect 35 0 16 0;
#X connect 36 0 16 0;
#X restore 402 375 pd knots;
#X obj 231 542 color 0.5 0.5 0.5;
#N canvas 126 122 450 400 color 0;
#X obj 192 175 sel 1;
#X obj 192 220 random 8;
#X obj 175 248 sel 1;
#X obj 230 251 sel 2;
#X obj 175 270 tgl 15 0 empty empty empty 17 7 0 10 -262144 -1 -1 0
1;
#X obj 145 288 spigot;
#X obj 145 310 outlet;
#X obj 257 277 tgl 15 0 empty empty empty 17 7 0 10 -262144 -1 -1 0
1;
#X obj 227 295 spigot;
#X obj 227 317 outlet;
#X obj 131 254 inlet;
#X obj 213 272 inlet;
#X obj 331 270 tgl 15 0 empty empty empty 17 7 0 10 -262144 -1 -1 0
1;
#X obj 301 288 spigot;
#X obj 301 310 outlet;
#X obj 287 265 inlet;
#X obj 304 244 sel 3;
#X obj 179 355 tgl 15 0 empty empty empty 17 7 0 10 -262144 -1 -1 0
1;
#X obj 149 373 spigot;
#X obj 149 395 outlet;
#X obj 135 339 inlet;
#X obj 179 333 sel 4;
#X obj 262 365 tgl 15 0 empty empty empty 17 7 0 10 -262144 -1 -1 0
1;
#X obj 232 383 spigot;
#X obj 232 405 outlet;
#X obj 218 349 inlet;
#X obj 262 343 sel 5;
#X obj 348 358 tgl 15 0 empty empty empty 17 7 0 10 -262144 -1 -1 0
1;
#X obj 318 376 spigot;
#X obj 318 398 outlet;
#X obj 304 342 inlet;
#X obj 347 336 sel 6;
#X obj 175 480 tgl 15 0 empty empty empty 17 7 0 10 -262144 -1 -1 0
1;
#X obj 145 498 spigot;
#X obj 145 520 outlet;
#X obj 131 464 inlet;
#X obj 175 458 sel 7;
#X obj 279 475 tgl 15 0 empty empty empty 17 7 0 10 -262144 -1 -1 0
1;
#X obj 249 493 spigot;
#X obj 249 515 outlet;
#X obj 235 459 inlet;
#X obj 279 453 sel 8;
#X floatatom 295 217 5 0 0 0 - - -;
#X obj 192 197 bang;
#X obj 192 150 inlet;
#X obj 45 186 r go;
#X msg 62 224 0;
#X connect 0 0 43 0;
#X connect 1 0 2 0;
#X connect 1 0 3 0;
#X connect 1 0 16 0;
#X connect 1 0 21 0;
#X connect 1 0 26 0;
#X connect 1 0 31 0;
#X connect 1 0 36 0;
#X connect 1 0 41 0;
#X connect 1 0 42 0;
#X connect 2 0 4 0;
#X connect 3 0 7 0;
#X connect 4 0 5 1;
#X connect 5 0 6 0;
#X connect 7 0 8 1;
#X connect 8 0 9 0;
#X connect 10 0 5 0;
#X connect 11 0 8 0;
#X connect 12 0 13 1;
#X connect 13 0 14 0;
#X connect 15 0 13 0;
#X connect 16 0 12 0;
#X connect 17 0 18 1;
#X connect 18 0 19 0;
#X connect 20 0 18 0;
#X connect 21 0 17 0;
#X connect 22 0 23 1;
#X connect 23 0 24 0;
#X connect 25 0 23 0;
#X connect 26 0 22 0;
#X connect 27 0 28 1;
#X connect 28 0 29 0;
#X connect 30 0 28 0;
#X connect 31 0 27 0;
#X connect 32 0 33 1;
#X connect 33 0 34 0;
#X connect 35 0 33 0;
#X connect 36 0 32 0;
#X connect 37 0 38 1;
#X connect 38 0 39 0;
#X connect 40 0 38 0;
#X connect 41 0 37 0;
#X connect 43 0 1 0;
#X connect 44 0 0 0;
#X connect 45 0 46 0;
#X connect 46 0 4 0;
#X connect 46 0 7 0;
#X connect 46 0 12 0;
#X connect 46 0 17 0;
#X connect 46 0 22 0;
#X connect 46 0 27 0;
#X connect 46 0 32 0;
#X connect 46 0 37 0;
#X restore 370 400 pd color;
#X obj 232 335 inlet;
#N canvas 77 95 450 300 sin-cos 0;
#X obj 65 412 t f f;
#X obj 66 372 t f f;
#X obj 66 391 *;
#X obj 150 380 + 0.1;
#X obj 120 380 f 60;
#X msg 154 357 60;
#X floatatom 307 347 5 0 0 0 - - -;
#X msg 315 383 -292;
#X obj 362 354 loadbang;
#X obj 56 349 for 0 0.5 0.005;
#X msg 238 341 -47;
#X obj 238 278 loadbang;
#X obj 115 521 outlet;
#X obj 63 520 outlet;
#X obj 65 458 *;
#X obj 92 458 *;
#X obj 93 435 cos;
#X obj 37 287 t b b b;
#X floatatom 67 491 5 0 0 0 - - -;
#X obj 37 224 bng 15 250 50 0 empty empty empty 17 7 0 10 -262144 -1
-1;
#X obj 43 249 metro 25;
#X obj 64 431 sin;
#X floatatom 110 491 5 0 0 0 - - -;
#X connect 0 0 21 0;
#X connect 0 1 16 0;
#X connect 1 0 2 0;
#X connect 1 1 14 1;
#X connect 2 0 0 0;
#X connect 3 0 4 1;
#X connect 4 0 2 1;
#X connect 4 0 3 0;
#X connect 5 0 4 1;
#X connect 6 0 4 1;
#X connect 7 0 4 1;
#X connect 8 0 7 0;
#X connect 9 0 1 0;
#X connect 10 0 4 1;
#X connect 11 0 10 0;
#X connect 11 0 19 0;
#X connect 14 0 18 0;
#X connect 15 0 22 0;
#X connect 16 0 15 0;
#X connect 17 1 9 0;
#X connect 17 2 4 0;
#X connect 18 0 13 0;
#X connect 19 0 20 0;
#X connect 20 0 17 0;
#X connect 21 0 14 0;
#X connect 21 0 15 1;
#X connect 22 0 12 0;
#X restore 577 328 pd sin-cos;
#N canvas 82 101 450 300 cos-tan 0;
#X obj 65 412 t f f;
#X obj 66 372 t f f;
#X obj 66 391 *;
#X obj 150 380 + 0.1;
#X obj 120 380 f 60;
#X msg 154 357 60;
#X floatatom 307 347 5 0 0 0 - - -;
#X msg 315 383 -292;
#X obj 362 354 loadbang;
#X obj 56 349 for 0 0.5 0.005;
#X msg 238 341 -47;
#X obj 238 278 loadbang;
#X obj 115 521 outlet;
#X obj 63 520 outlet;
#X obj 65 458 *;
#X obj 92 458 *;
#X obj 37 287 t b b b;
#X floatatom 67 491 5 0 0 0 - - -;
#X obj 37 224 bng 15 250 50 0 empty empty empty 17 7 0 10 -262144 -1
-1;
#X obj 43 249 metro 25;
#X floatatom 110 491 5 0 0 0 - - -;
#X obj 64 431 cos;
#X obj 93 435 tan;
#X connect 0 0 21 0;
#X connect 0 1 22 0;
#X connect 1 0 2 0;
#X connect 1 1 14 1;
#X connect 2 0 0 0;
#X connect 3 0 4 1;
#X connect 4 0 2 1;
#X connect 4 0 3 0;
#X connect 5 0 4 1;
#X connect 6 0 4 1;
#X connect 7 0 4 1;
#X connect 8 0 7 0;
#X connect 9 0 1 0;
#X connect 10 0 4 1;
#X connect 11 0 10 0;
#X connect 11 0 18 0;
#X connect 14 0 17 0;
#X connect 15 0 20 0;
#X connect 16 1 9 0;
#X connect 16 2 4 0;
#X connect 17 0 13 0;
#X connect 18 0 19 0;
#X connect 19 0 16 0;
#X connect 20 0 12 0;
#X connect 21 0 14 0;
#X connect 21 0 15 1;
#X connect 22 0 15 0;
#X restore 670 330 pd cos-tan;
#N canvas 82 101 450 300 sin-sin 0;
#X obj 65 412 t f f;
#X obj 66 372 t f f;
#X obj 66 391 *;
#X obj 150 380 + 0.1;
#X obj 120 380 f 60;
#X msg 154 357 60;
#X floatatom 307 347 5 0 0 0 - - -;
#X msg 315 383 -292;
#X obj 362 354 loadbang;
#X obj 56 349 for 0 0.5 0.005;
#X msg 238 341 -47;
#X obj 238 278 loadbang;
#X obj 115 521 outlet;
#X obj 63 520 outlet;
#X obj 65 458 *;
#X obj 92 458 *;
#X obj 37 287 t b b b;
#X floatatom 67 491 5 0 0 0 - - -;
#X obj 37 224 bng 15 250 50 0 empty empty empty 17 7 0 10 -262144 -1
-1;
#X obj 43 249 metro 25;
#X floatatom 110 491 5 0 0 0 - - -;
#X obj 64 431 sin;
#X obj 94 435 sin;
#X connect 0 0 21 0;
#X connect 0 1 22 0;
#X connect 1 0 2 0;
#X connect 1 1 14 1;
#X connect 2 0 0 0;
#X connect 3 0 4 1;
#X connect 4 0 2 1;
#X connect 4 0 3 0;
#X connect 5 0 4 1;
#X connect 6 0 4 1;
#X connect 7 0 4 1;
#X connect 8 0 7 0;
#X connect 9 0 1 0;
#X connect 10 0 4 1;
#X connect 11 0 10 0;
#X connect 11 0 18 0;
#X connect 14 0 17 0;
#X connect 15 0 20 0;
#X connect 16 1 9 0;
#X connect 16 2 4 0;
#X connect 17 0 13 0;
#X connect 18 0 19 0;
#X connect 19 0 16 0;
#X connect 20 0 12 0;
#X connect 21 0 14 0;
#X connect 21 0 15 1;
#X connect 22 0 15 0;
#X restore 758 333 pd sin-sin;
#N canvas 87 107 450 300 sin-cos 0;
#X obj 65 412 t f f;
#X obj 66 372 t f f;
#X obj 66 391 *;
#X obj 150 380 + 0.1;
#X obj 120 380 f 60;
#X msg 154 357 60;
#X floatatom 307 347 5 0 0 0 - - -;
#X msg 315 383 -292;
#X obj 362 354 loadbang;
#X obj 56 349 for 0 0.5 0.005;
#X msg 238 341 -47;
#X obj 238 278 loadbang;
#X obj 115 521 outlet;
#X obj 63 520 outlet;
#X obj 65 458 *;
#X obj 92 458 *;
#X obj 37 287 t b b b;
#X floatatom 67 491 5 0 0 0 - - -;
#X obj 37 224 bng 15 250 50 0 empty empty empty 17 7 0 10 -262144 -1
-1;
#X obj 43 249 metro 25;
#X floatatom 110 491 5 0 0 0 - - -;
#X obj 64 431 sin;
#X obj 94 435 cos;
#X connect 0 0 21 0;
#X connect 0 1 22 0;
#X connect 1 0 2 0;
#X connect 1 1 14 1;
#X connect 2 0 0 0;
#X connect 3 0 4 1;
#X connect 4 0 2 1;
#X connect 4 0 3 0;
#X connect 5 0 4 1;
#X connect 6 0 4 1;
#X connect 7 0 4 1;
#X connect 8 0 7 0;
#X connect 9 0 1 0;
#X connect 10 0 4 1;
#X connect 11 0 10 0;
#X connect 11 0 18 0;
#X connect 14 0 17 0;
#X connect 15 0 20 0;
#X connect 16 1 9 0;
#X connect 16 2 4 0;
#X connect 17 0 13 0;
#X connect 18 0 19 0;
#X connect 19 0 16 0;
#X connect 20 0 12 0;
#X connect 21 0 14 0;
#X connect 21 0 15 1;
#X connect 22 0 15 0;
#X restore 941 266 pd sin-cos;
#X obj 671 117 vradio 14 1 0 9 empty empty empty 0 -8 0 10 -262144
-1 -1 6;
#X obj 670 443 sel 0 1 2 3 4 5 6 7;
#X text 687 114 fill;
#X text 688 129 point;
#X text 687 142 line;
#X text 688 155 tri;
#X text 686 170 line_strip;
#X text 687 185 trifan;
#X text 687 198 quadstrip;
#X text 686 211 quad;
#X connect 0 0 1 0;
#X connect 0 0 32 2;
#X connect 0 0 33 0;
#X connect 1 0 29 0;
#X connect 2 0 1 1;
#X connect 3 0 2 0;
#X connect 4 0 29 0;
#X connect 5 0 29 0;
#X connect 6 0 29 0;
#X connect 7 0 29 0;
#X connect 8 0 29 0;
#X connect 9 0 29 0;
#X connect 10 0 29 0;
#X connect 11 0 29 0;
#X connect 12 0 29 0;
#X connect 13 0 29 3;
#X connect 13 0 34 1;
#X connect 14 0 13 0;
#X connect 15 0 29 4;
#X connect 15 0 1 1;
#X connect 15 0 34 4;
#X connect 16 0 15 0;
#X connect 17 0 20 0;
#X connect 17 0 32 0;
#X connect 18 0 19 0;
#X connect 19 0 29 2;
#X connect 19 0 34 2;
#X connect 20 0 29 1;
#X connect 20 0 34 7;
#X connect 21 0 23 0;
#X connect 21 0 32 1;
#X connect 22 0 24 0;
#X connect 23 0 29 4;
#X connect 23 0 34 5;
#X connect 24 0 29 5;
#X connect 24 0 34 8;
#X connect 25 0 27 0;
#X connect 26 0 28 0;
#X connect 26 0 30 2;
#X connect 27 0 29 7;
#X connect 27 0 34 0;
#X connect 28 0 29 8;
#X connect 28 0 34 6;
#X connect 30 0 31 0;
#X connect 31 0 32 5;
#X connect 33 0 29 0;
#X connect 34 0 1 1;
#X connect 34 1 1 1;
#X connect 34 2 1 1;
#X connect 34 3 1 1;
#X connect 34 4 1 1;
#X connect 34 5 1 1;
#X connect 34 6 1 1;
#X connect 34 7 1 1;
#X connect 35 0 0 0;
#X connect 36 0 14 0;
#X connect 36 1 16 0;
#X connect 37 0 17 0;
#X connect 37 1 18 0;
#X connect 38 0 21 0;
#X connect 38 1 22 0;
#X connect 39 0 25 0;
#X connect 39 1 26 0;
#X connect 40 0 41 0;
#X connect 41 0 5 0;
#X connect 41 1 6 0;
#X connect 41 2 4 0;
#X connect 41 3 8 0;
#X connect 41 4 7 0;
#X connect 41 5 10 0;
#X connect 41 6 9 0;
#X connect 41 7 12 0;
#X connect 41 8 11 0;
#X coords 0 -1 1 1 99 150 1 654 98;
