#N canvas 502 22 938 686 10;
#X obj 3 60 gemwin;
#X msg 13 31 0 \, destroy;
#X msg 492 194 amount \$1;
#X obj 492 173 nbx 5 14 -1e+37 1e+37 0 0 empty empty empty 0 -8 0 10
-262144 -1 -1 0.341137 256;
#X obj 278 34 bng 15 250 50 0 empty empty empty 17 7 0 10 -262144 -1
-1;
#X obj 216 32 bng 15 250 50 0 empty empty empty 17 7 0 10 -262144 -1
-1;
#X obj 338 34 bng 15 250 50 0 empty empty empty 17 7 0 10 -262144 -1
-1;
#X msg 324 195 tex0 \$1;
#X msg 674 196 tex1 \$1;
#X obj 324 174 nbx 5 14 -1e+37 1e+37 0 0 empty empty empty 0 -8 0 10
-262144 -1 -1 0 256;
#X obj 674 175 nbx 5 14 -1e+37 1e+37 0 0 empty empty empty 0 -8 0 10
-262144 -1 -1 1 256;
#N canvas 287 128 450 300 movie1 0;
#X obj 68 12 openpanel;
#X obj 68 -6 bng 15 250 50 0 empty empty empty 17 7 0 10 -262144 -1
-1;
#X obj 25 165 pix_film;
#X obj 25 247 pix_texture;
#X obj 24 57 gemhead 10;
#X msg 39 222 texunit 0 \, mode 0;
#X obj 96 -8 inlet;
#X obj 97 186 loadbang;
#X msg 69 33 auto 1 \, colorspace rgba \, open \$1;
#X connect 0 0 8 0;
#X connect 1 0 0 0;
#X connect 2 0 3 0;
#X connect 4 0 2 0;
#X connect 5 0 3 0;
#X connect 6 0 0 0;
#X connect 7 0 5 0;
#X connect 8 0 2 0;
#X restore 216 52 pd movie1;
#N canvas 287 128 450 300 movie2 0;
#X obj 68 12 openpanel;
#X obj 68 -6 bng 15 250 50 0 empty empty empty 17 7 0 10 -262144 -1
-1;
#X obj 25 165 pix_film;
#X obj 25 247 pix_texture;
#X obj 24 57 gemhead 10;
#X obj 96 -8 inlet;
#X obj 97 186 loadbang;
#X msg 69 33 auto 1 \, colorspace rgba \, open \$1;
#X msg 39 222 texunit 1 \, mode 0;
#X connect 0 0 7 0;
#X connect 1 0 0 0;
#X connect 2 0 3 0;
#X connect 4 0 2 0;
#X connect 5 0 0 0;
#X connect 6 0 8 0;
#X connect 7 0 2 0;
#X connect 8 0 3 0;
#X restore 278 52 pd movie2;
#N canvas 287 128 450 300 movie3 0;
#X obj 68 12 openpanel;
#X obj 68 -6 bng 15 250 50 0 empty empty empty 17 7 0 10 -262144 -1
-1;
#X obj 25 165 pix_film;
#X obj 25 247 pix_texture;
#X obj 24 57 gemhead 10;
#X obj 96 -8 inlet;
#X obj 97 186 loadbang;
#X msg 69 33 auto 1 \, colorspace rgba \, open \$1;
#X msg 39 222 texunit 2 \, mode 0;
#X connect 0 0 7 0;
#X connect 1 0 0 0;
#X connect 2 0 3 0;
#X connect 4 0 2 0;
#X connect 5 0 0 0;
#X connect 6 0 8 0;
#X connect 7 0 2 0;
#X connect 8 0 3 0;
#X restore 339 52 pd movie3;
#X obj 228 194 gemhead 30;
#X obj 963 491;
#N canvas 448 22 992 705 framebuffer 0;
#X msg 323 212 open exposure.vert;
#X obj 235 457 glsl_program;
#X obj 308 394 pack 0 0;
#X obj 326 374 t b f;
#X obj 326 332 change;
#X obj 308 267 change;
#X msg 308 413 link \$1 \$2;
#X floatatom 326 355 2 0 0 0 ID - -;
#X floatatom 308 288 2 0 0 0 ID - -;
#X obj 235 309 glsl_fragment;
#X obj 236 248 glsl_vertex;
#X obj 235 598 rectangle 4 3;
#X msg 360 268 open exposure.frag;
#X obj 235 552 pix_texture;
#X obj 413 403 nbx 5 14 -1e+37 1e+37 0 0 empty empty empty 0 -8 0 10
-262144 -1 -1 0 256;
#X msg 266 411 print;
#X msg 413 422 exposure \$1;
#X msg 191 411 tex0 \$1;
#X obj 25 406 gemframebuffer;
#X obj 236 194 gemhead 50;
#X obj 25 362 inlet;
#X obj 26 471 outlet;
#X text 508 29 This was an attempt to use framebuffer to capture the
output of the mixer \, send it to a second rendering pipeline and use
a second GLSL effect to adjust the exposure of the mixed image. I could
not get this working.;
#X obj 238 132 loadbang;
#X msg 238 153 0;
#X obj 237 175 tgl 15 0 empty empty empty 17 7 0 10 -262144 -1 -1 0
1;
#X connect 0 0 10 0;
#X connect 1 0 13 0;
#X connect 2 0 6 0;
#X connect 3 0 2 0;
#X connect 3 1 2 1;
#X connect 4 0 7 0;
#X connect 5 0 8 0;
#X connect 6 0 1 0;
#X connect 7 0 3 0;
#X connect 8 0 2 0;
#X connect 9 0 1 0;
#X connect 9 1 4 0;
#X connect 10 0 9 0;
#X connect 10 1 5 0;
#X connect 12 0 9 0;
#X connect 13 0 11 0;
#X connect 14 0 16 0;
#X connect 15 0 1 0;
#X connect 16 0 1 0;
#X connect 17 0 1 0;
#X connect 18 0 21 0;
#X connect 18 1 13 1;
#X connect 18 1 17 0;
#X connect 19 0 10 0;
#X connect 20 0 18 0;
#X connect 23 0 24 0;
#X connect 24 0 25 0;
#X connect 25 0 19 0;
#X restore 267 312 pd framebuffer / render to texture ?;
#X obj 385 132 hsl 300 15 0 127 0 0 empty empty empty -2 -8 0 10 -262144
-1 -1 10200 1;
#X obj 492 153 / 127;
#X text 381 116 mix amount;
#X text 210 9 Movie Bank;
#X text 320 156 Choose Movie for A side;
#X text 673 158 Choose Movie for B side;
#X text 265 296 Questions in here!;
#X text 350 358 Stupid workaround for flipped textures. Im lazy.;
#X obj 228 358 rectangle -3.5 -2.5;
#X msg 3 3 create \, 1 \, frame 60;
#N canvas 642 319 481 456 mixershader 0;
#X obj 49 11 inlet;
#X obj 50 427 outlet;
#X obj 50 404 glsl_program;
#X obj 119 293 pack 0 0;
#X obj 137 273 t b f;
#X obj 137 231 change;
#X obj 120 122 change;
#X msg 119 312 link \$1 \$2;
#X floatatom 137 254 2 0 0 0 ID - -;
#X floatatom 120 143 2 0 0 0 ID - -;
#X obj 48 168 glsl_fragment;
#X obj 48 103 glsl_vertex;
#X obj 49 36 alpha;
#X obj 173 31 loadbang;
#X obj 320 343 inlet;
#X msg 74 66 open v001.co2.vert;
#X msg 318 305 print;
#X obj 272 47 bng 15 250 50 0 empty empty empty 17 7 0 10 -262144 -1
-1;
#X msg 174 135 open v001.co2.additive.frag;
#X connect 0 0 12 0;
#X connect 2 0 1 0;
#X connect 3 0 7 0;
#X connect 4 0 3 0;
#X connect 4 1 3 1;
#X connect 5 0 8 0;
#X connect 6 0 9 0;
#X connect 7 0 2 0;
#X connect 8 0 4 0;
#X connect 9 0 3 0;
#X connect 10 0 2 0;
#X connect 10 1 5 0;
#X connect 11 0 10 0;
#X connect 11 1 6 0;
#X connect 12 0 11 0;
#X connect 13 0 15 0;
#X connect 13 0 18 0;
#X connect 14 0 2 0;
#X connect 15 0 11 0;
#X connect 16 0 2 0;
#X connect 17 0 18 0;
#X connect 17 0 15 0;
#X connect 18 0 10 0;
#X restore 228 230 pd mixershader;
#X connect 1 0 0 0;
#X connect 2 0 27 1;
#X connect 3 0 2 0;
#X connect 4 0 12 0;
#X connect 5 0 11 0;
#X connect 6 0 13 0;
#X connect 7 0 27 1;
#X connect 8 0 27 1;
#X connect 9 0 7 0;
#X connect 10 0 8 0;
#X connect 14 0 27 0;
#X connect 17 0 18 0;
#X connect 18 0 3 0;
#X connect 26 0 0 0;
#X connect 27 0 25 0;
