#N canvas 385 142 629 298 12;
#X obj 74 17 cnv 15 170 270 empty empty empty 20 12 0 14 -228992 -66577
0;
#X obj 77 64 cnv 15 150 220 empty empty empty 20 12 0 14 -24198 -66577
0;
#X obj 88 20 gemhead;
#X floatatom 192 234 5 0 100 1 size - -;
#X msg 98 104 font \$1;
#X obj 98 85 openpanel;
#X obj 98 68 bng 15 250 50 0 empty empty empty 0 -6 0 8 -262144 -1
-1;
#X msg 110 149 1 2 3 4;
#X floatatom 192 24 5 0 0 0 - - -;
#X floatatom 151 19 4 0 0 0 - - -;
#X obj 88 41 rotateXYZ;
#X obj 88 260 text3d;
#X msg 197 196 justify left center;
#X msg 106 130 text hello world! allright?;
#X obj 310 24 cnv 15 100 60 empty empty empty 20 12 0 14 -195568 -66577
0;
#N canvas 0 0 450 300 gemwin 0;
#X obj 132 136 gemwin;
#X obj 67 89 outlet;
#X obj 67 10 inlet;
#X obj 67 41 route create;
#X msg 67 70 set destroy;
#X msg 142 68 set create;
#X msg 198 112 destroy;
#X msg 132 112 create \, 1;
#X connect 2 0 3 0;
#X connect 3 0 4 0;
#X connect 3 0 7 0;
#X connect 3 1 5 0;
#X connect 3 1 6 0;
#X connect 4 0 1 0;
#X connect 5 0 1 0;
#X connect 6 0 0 0;
#X connect 7 0 0 0;
#X restore 315 63 pd gemwin;
#X msg 315 44 create;
#X text 311 23 Create window:;
#X msg 190 167 string 72 101 108 108 111 10 87 111 114 108 100;
#X connect 2 0 10 0;
#X connect 3 0 11 1;
#X connect 4 0 11 0;
#X connect 5 0 4 0;
#X connect 6 0 5 0;
#X connect 7 0 11 0;
#X connect 8 0 10 3;
#X connect 9 0 10 1;
#X connect 10 0 11 0;
#X connect 12 0 11 0;
#X connect 13 0 11 0;
#X connect 15 0 16 0;
#X connect 16 0 15 0;
#X connect 18 0 11 0;
