#N canvas 551 394 450 300 10;
#X obj 116 75 vmix-threshold;
#X floatatom 116 -2 5 0 0 0 - - -;
#X floatatom 157 33 5 0 0 0 - - -;
#X floatatom 221 33 5 0 0 0 - - -;
#X obj 115 125 bng 15 250 50 0 empty empty empty 17 7 0 10 -262144
-1 -1;
#X text 25 211 xi0n0ix 2008;
#X text 22 152 - outputs a bang when the input number is greater than
y;
#X text 23 166 - will not output another bang until the input number
dips below x and again becomes greater than y;
#X text 150 -4 input #;
#X text 191 31 x;
#X text 259 30 y;
#X connect 0 0 4 0;
#X connect 1 0 0 0;
#X connect 2 0 0 1;
#X connect 3 0 0 2;
