#N canvas 390 52 188 185 10;
#X obj 62 54 spigot;
#X obj 62 105 sel 1;
#X msg 110 78 0;
#X msg 21 100 1;
#X obj 21 77 sel 1;
#X obj 21 15 inlet;
#X obj 65 14 inlet;
#X obj 106 14 inlet;
#X obj 62 138 outlet;
#X obj 21 54 <;
#X obj 62 78 >;
#X connect 0 0 10 0;
#X connect 1 0 2 0;
#X connect 1 0 8 0;
#X connect 2 0 0 1;
#X connect 3 0 0 1;
#X connect 4 0 3 0;
#X connect 5 0 0 0;
#X connect 5 0 9 0;
#X connect 6 0 9 1;
#X connect 7 0 10 1;
#X connect 9 0 4 0;
#X connect 10 0 1 0;
