#N canvas 180 82 808 543 12;
#N canvas 709 455 450 300 paint-here 1;
#X text 135 116 Please clear me!!!;
#X obj 133 148 f 10;
#X restore 375 91 pd paint-here;
#X text 174 91 a) painting areas;
#X text 89 48 Let's first take a look at;
#X text 89 158 A painting area (as every subpatch) can be modified
by sending commands to "pd-NAME-OF-AREA".;
#X obj 94 342 s pd-paint-here;
#X text 89 205 A simple command would be "clear" which clears the area
of all content.;
#X msg 94 316 clear;
#X text 93 260 First add some objects like a comment to "pd paint-here"
\, then press "clear" below:;
#X msg 91 445 \; pd-paint-here clear;
#X text 91 398 This can also be expressed as:;
#X connect 6 0 4 0;
