#N canvas 653 526 450 300 10;
#X obj 88 150 element masses m;
#X msg 180 70 traverse pd-paint \, next;
#X obj 181 105 pointer masses;
#X obj 30 222 set mass y;
#X obj 92 113 float \$1;
#X obj 19 31 inlet;
#X obj 141 225 get mass y;
#X obj 142 272 outlet;
#X obj 151 21 inlet;
#X obj 136 57 t b b;
#X obj 141 192 pointer;
#X obj 24 67 t f b;
#X obj 88 172 t p p;
#X connect 0 0 12 0;
#X connect 1 0 2 0;
#X connect 2 0 0 1;
#X connect 4 0 0 0;
#X connect 5 0 11 0;
#X connect 6 0 7 0;
#X connect 8 0 9 0;
#X connect 9 0 4 0;
#X connect 9 1 1 0;
#X connect 10 0 6 0;
#X connect 11 0 3 0;
#X connect 11 1 9 0;
#X connect 12 0 10 0;
#X connect 12 1 3 1;
