#N canvas 764 623 450 300 10;
#X obj 168 133 element \$1 \$2;
#X obj 254 87 inlet;
#X obj 168 53 inlet;
#X obj 23 67 route x y w;
#X obj 23 30 inlet;
#X text 10 10 set fields;
#X text 161 22 select element by index;
#X text 250 69 set pointer;
#X text 65 210 args;
#X text 86 232 1: toplevel template;
#X text 87 252 2: array name;
#X text 85 272 3: array element name;
#X obj 46 151 set \$3 x;
#X obj 108 201 set \$3 w;
#X obj 76 177 set \$3 y;
#X connect 0 0 13 1;
#X connect 0 0 14 1;
#X connect 0 0 12 1;
#X connect 1 0 0 1;
#X connect 2 0 0 0;
#X connect 3 0 12 0;
#X connect 3 1 14 0;
#X connect 3 2 13 0;
#X connect 4 0 3 0;
