#N canvas 704 567 450 300 10;
#X obj 56 139 element \$1 \$2;
#X obj 142 93 inlet;
#X obj 56 59 inlet;
#X text 49 28 select element by index;
#X text 138 75 set pointer;
#X text 260 35 args;
#X text 282 53 1: toplevel template;
#X text 283 73 2: array name;
#X text 281 93 3: array element name;
#X obj 56 167 get \$3 w x y;
#X obj 56 251 outlet;
#X obj 95 231 outlet;
#X obj 135 203 outlet;
#X connect 0 0 9 0;
#X connect 1 0 0 1;
#X connect 2 0 0 0;
#X connect 9 0 10 0;
#X connect 9 1 11 0;
#X connect 9 2 12 0;
