#N canvas 286 300 450 300 10;
#X obj 176 188 append \$2 x;
#X obj 248 107 symbol \$1;
#X obj 248 159 pointer;
#X msg 248 132 traverse \$1 \, bang;
#X obj 248 74 inlet;
#X obj 126 73 inlet;
#X obj 126 115 f;
#X obj 309 73 loadbang;
#X text 124 49 x-coord;
#X text 250 49 bang or paint area name;
#X text 78 225 arguments;
#X text 117 264 2: template definition (what?);
#X obj 176 215 outlet;
#X text 118 245 1: painting area (where?) WITH "pd-"!!;
#X connect 0 0 12 0;
#X connect 1 0 3 0;
#X connect 2 0 0 1;
#X connect 3 0 2 0;
#X connect 4 0 1 0;
#X connect 5 0 6 0;
#X connect 6 0 0 0;
#X connect 7 0 1 0;
