#N canvas 478 184 781 633 12;
#X text 186 78 float with x \, y and w fields;
#N canvas 445 540 648 345 grob-lib-w 0;
#X text 42 137 Arrays are painted using "plot" drawing instructions:
;
#X text 44 21 This declares an array named "numbers" whose elements
are described by the template "num". Note that array declarations take
three arguments: the word "array" \, the name of the array and the
name of the elements.;
#X obj 65 98 struct grob-lib-w float x float y array numbers num-w
;
#X obj 57 166 plot numbers 90 5 15 0 15;
#X restore 84 108 pd grob-lib-w;
#N canvas 686 559 581 359 num-w 0;
#X obj 91 184 filledpolygon 900 900 1 0 -5 10 -5 10 5 0 5;
#X text 112 154 A red box visualizes the float values:;
#X text 80 32 The num-w float has a w and an x field added.;
#X obj 135 95 struct num-w float x float y float w;
#X restore 83 80 pd num-w;
#N canvas 686 559 581 359 num-w-y-first 0;
#X obj 91 184 filledpolygon 900 900 1 0 -5 10 -5 10 5 0 5;
#X text 112 154 A red box visualizes the float values:;
#X text 80 32 The num-w float has a w and an x field added.;
#X obj 135 95 struct num-w-y-first float y float x float w;
#X restore 91 210 pd num-w-y-first;
#N canvas 445 540 648 345 grob-lib-w 0;
#X text 42 137 Arrays are painted using "plot" drawing instructions:
;
#X text 44 21 This declares an array named "numbers" whose elements
are described by the template "num". Note that array declarations take
three arguments: the word "array" \, the name of the array and the
name of the elements.;
#X obj 65 98 struct grob-lib-w-y-first float x float y array numbers2
num-w-y-first;
#X obj 57 166 plot numbers2 900 5 15 0 15;
#X restore 85 169 pd grob-lib-w;
#X text 218 170 float with x \, y and w fields \, but y is specified
first;
#N canvas 0 0 450 300 paint 1;
#X restore 144 399 pd paint;
#X obj 619 431 pointer;
#X obj 414 463 append grob-lib-w x y;
#X obj 357 537 append grob-lib-w-y-first x y;
#X msg 613 395 traverse pd-paint \, bang;
#X msg 420 349 100;
#X msg 372 371 200;
#X msg 311 366 100;
#X obj 367 326 t b b b b;
#X msg 365 292 bang;
#X msg 599 353 \; pd-paint clear;
#X connect 7 0 8 2;
#X connect 7 0 9 2;
#X connect 10 0 7 0;
#X connect 11 0 8 1;
#X connect 12 0 9 1;
#X connect 13 0 8 0;
#X connect 13 0 9 0;
#X connect 14 0 13 0;
#X connect 14 1 12 0;
#X connect 14 2 11 0;
#X connect 14 3 10 0;
#X connect 15 0 14 0;
