#N canvas 98 71 637 484 10;
#X obj 3 60 gemwin;
#X msg 13 31 0 \, destroy;
#X msg 357 203 amount \$1;
#X obj 357 182 nbx 5 14 -1e+37 1e+37 0 0 empty empty empty 0 -8 0 10
-262144 -1 -1 0 256;
#X obj 201 33 bng 15 250 50 0 empty empty empty 17 7 0 10 -262144 -1
-1;
#X msg 123 239 tex0 \$1;
#X msg 229 231 tex1 \$1;
#X obj 123 218 nbx 5 14 0 2 0 0 empty empty empty 0 -8 0 10 -262144
-1 -1 0 256;
#X obj 229 210 nbx 5 14 0 2 0 0 empty empty empty 0 -8 0 10 -262144
-1 -1 0 256;
#X obj 28 238 gemhead 30;
#X obj 963 491;
#X obj 114 121 hsl 300 15 0 127 0 0 empty empty empty -2 -8 0 10 -262144
-1 -1 0 1;
#X obj 357 162 / 127;
#X text 123 98 mix amount;
#X msg 3 3 create \, 1 \, frame 60;
#N canvas 420 86 567 642 mixershader 0;
#X obj 48 122 inlet;
#X obj 48 538 outlet;
#X obj 48 515 glsl_program;
#X obj 120 379 pack 0 0;
#X obj 136 354 t b f;
#X msg 120 398 link \$1 \$2;
#X floatatom 136 335 2 0 0 0 ID - -;
#X floatatom 120 254 2 0 0 0 ID - -;
#X obj 48 148 alpha;
#X obj 320 454 inlet;
#X obj 173 142 t b;
#X obj 238 117 bng 15 250 50 0 empty empty empty 17 7 0 10 -262144
-1 -1;
#X obj 48 214 glsl_vertex;
#X obj 48 279 glsl_fragment;
#X obj 120 233 change;
#X obj 136 312 change;
#X obj 173 46 gemhead 1;
#X msg 173 68 1;
#X obj 173 92 change;
#X obj 173 116 t b;
#X obj 279 292 r size1;
#X msg 279 320 size1 \$1 \$2;
#X obj 297 347 r size2;
#X msg 297 375 size2 \$1 \$2;
#X obj 129 541 change;
#X obj 129 564 t b;
#X obj 129 587 s init_shader;
#X msg 74 177 open mixer.vert;
#X msg 173 246 open mixer.frag;
#X connect 0 0 8 0;
#X connect 2 0 1 0;
#X connect 2 1 24 0;
#X connect 3 0 5 0;
#X connect 4 0 3 0;
#X connect 4 1 3 1;
#X connect 5 0 2 0;
#X connect 6 0 4 0;
#X connect 7 0 3 0;
#X connect 8 0 12 0;
#X connect 9 0 2 0;
#X connect 10 0 27 0;
#X connect 10 0 28 0;
#X connect 11 0 10 0;
#X connect 12 0 13 0;
#X connect 12 1 14 0;
#X connect 13 0 2 0;
#X connect 13 1 15 0;
#X connect 14 0 7 0;
#X connect 15 0 6 0;
#X connect 16 0 17 0;
#X connect 17 0 18 0;
#X connect 18 0 19 0;
#X connect 19 0 10 0;
#X connect 20 0 21 0;
#X connect 21 0 2 0;
#X connect 22 0 23 0;
#X connect 23 0 2 0;
#X connect 24 0 25 0;
#X connect 25 0 26 0;
#X connect 27 0 12 0;
#X connect 28 0 13 0;
#X restore 28 274 pd mixershader;
#N canvas 720 140 281 392 img1 1;
#X obj 48 112 openpanel;
#X obj 48 94 bng 15 250 50 0 empty empty empty 17 7 0 10 -262144 -1
-1;
#X obj 25 247 pix_texture;
#X obj 25 57 gemhead 10;
#X obj 76 92 inlet;
#X obj 39 200 loadbang;
#X obj 25 165 pix_image;
#X msg 39 222 texunit 0 \, mode 1;
#X msg 48 133 open \$1;
#X obj 25 272 pix_info ----------;
#X obj 43 301 pack f f;
#X obj 43 329 s size1;
#X connect 0 0 8 0;
#X connect 1 0 0 0;
#X connect 2 0 9 0;
#X connect 3 0 6 0;
#X connect 4 0 0 0;
#X connect 5 0 7 0;
#X connect 6 0 2 0;
#X connect 7 0 2 0;
#X connect 8 0 6 0;
#X connect 9 1 10 0;
#X connect 9 2 10 1;
#X connect 10 0 11 0;
#X restore 201 53 pd img1;
#X obj 259 33 bng 15 250 50 0 empty empty empty 17 7 0 10 -262144 -1
-1;
#N canvas 287 128 260 380 img2 0;
#X obj 45 104 openpanel;
#X obj 45 86 bng 15 250 50 0 empty empty empty 17 7 0 10 -262144 -1
-1;
#X obj 25 247 pix_texture;
#X obj 25 57 gemhead 10;
#X obj 73 84 inlet;
#X obj 39 200 loadbang;
#X obj 25 165 pix_image;
#X msg 39 222 texunit 1 \, mode 1;
#X msg 45 125 open \$1;
#X obj 37 301 pack f f;
#X obj 25 276 pix_info ----;
#X obj 37 325 s size2;
#X connect 0 0 8 0;
#X connect 1 0 0 0;
#X connect 2 0 10 0;
#X connect 3 0 6 0;
#X connect 4 0 0 0;
#X connect 5 0 7 0;
#X connect 6 0 2 0;
#X connect 7 0 2 0;
#X connect 8 0 6 0;
#X connect 9 0 11 0;
#X connect 10 1 9 0;
#X connect 10 2 9 1;
#X restore 259 53 pd img2;
#X text 210 9 img Bank;
#X obj 28 398 pix_texture;
#X msg 40 375 mode 1 \, texunit 3;
#X obj 28 422 rectangle 3.5 2.5;
#X obj 28 328 pix_image dumy.jpg;
#X msg 123 190 0;
#X msg 229 185 1;
#X obj 123 161 r init_shader;
#X obj 229 162 r init_shader;
#X text 167 324 load dummy texture in order to set texture0 coordinate
;
#X text 167 341 all texture coordinate will be computed in regard to
this texture coordinate;
#X msg 81 67 color 1 0 0;
#X obj 40 352 loadbang;
#X connect 1 0 0 0;
#X connect 2 0 15 1;
#X connect 3 0 2 0;
#X connect 4 0 16 0;
#X connect 5 0 15 1;
#X connect 6 0 15 1;
#X connect 7 0 5 0;
#X connect 8 0 6 0;
#X connect 9 0 15 0;
#X connect 11 0 12 0;
#X connect 12 0 3 0;
#X connect 14 0 0 0;
#X connect 15 0 23 0;
#X connect 17 0 18 0;
#X connect 20 0 22 0;
#X connect 21 0 20 0;
#X connect 23 0 20 0;
#X connect 24 0 7 0;
#X connect 25 0 8 0;
#X connect 26 0 24 0;
#X connect 27 0 25 0;
#X connect 30 0 0 0;
#X connect 31 0 21 0;
