#N canvas 579 22 756 757 10;
#X obj 335 5 r addCircle;
#X obj 335 36 route \$1;
#X floatatom 288 178 5 0 0 0 - - -;
#X floatatom 103 473 5 0 0 0 - - -;
#X obj 37 138 gemhead;
#X obj 35 719 circle 0.1;
#X obj 35 589 colorRGB 1 1 1 0.3;
#X obj 35 659 alpha;
#X obj 335 141 unpack f f f;
#X obj 37 57 r tgl-circle;
#X obj 37 100 tgl 15 0 empty empty empty 17 7 0 10 -262144 -1 -1 1
1;
#X msg 354 97 1;
#X obj 37 214 t a b;
#X obj 420 365 f;
#X obj 420 400 / 100;
#X obj 480 365 fmod 100;
#X obj 450 365 + 1;
#X obj 171 119 t b b b;
#X obj 171 150 randomF 1;
#X obj 203 177 randomF 1;
#X obj 238 206 randomF 1;
#X obj 35 690 pix_texture;
#X obj 62 611 loadbang;
#X obj 62 635 tgl 15 0 empty empty empty 17 7 0 10 -262144 -1 -1 1
1;
#X obj 33 535 pix_image bloom.png;
#X obj 325 251 * 1.25;
#X floatatom 465 337 5 0 0 0 - - -;
#X obj 465 310 expr abs(10-($f1/4)*10)+1;
#X obj 67 16 loadbang;
#X msg 67 36 0;
#X obj 58 313 f;
#X obj 87 313 + 0.01;
#X obj 136 313 fmod 360;
#X obj 199 312 f;
#X floatatom 228 390 5 0 0 0 - - -;
#X obj 335 72 t a b b;
#X obj 392 98 s \$0-reset;
#X obj 152 254 r \$0-reset;
#X obj 228 312 + 0.01;
#X msg 152 277 0;
#X floatatom 58 337 5 0 0 0 - - -;
#X obj 228 343 moses 5;
#X obj 37 169 depth;
#X obj 58 361 expr ($f1/360)*2*3.1415926;
#X obj 58 382 t f f;
#X obj 54 403 expr cos($f1)*$f2;
#X obj 87 435 expr sin($f1)*$f2;
#X obj 322 356 r \$0-reset;
#X obj 322 390 randomF 4;
#X obj 322 416 + 1;
#X obj 33 508 translateXYZ 0 0 0;
#X obj 49 479 +;
#X floatatom 49 460 5 0 0 0 - - -;
#X obj 49 435 t b f;
#X obj 210 426 f;
#X floatatom 239 504 5 0 0 0 - - -;
#X obj 239 426 + 0.01;
#X obj 239 457 moses 5;
#X msg 284 483 4.9739;
#X obj 38 268 t a b b b;
#X msg 322 443 set \$1;
#X msg 273 369 10;
#X obj 383 524 osc~ 440;
#X obj 383 597 *~;
#X obj 470 492 line~;
#X msg 468 453 \$1 100;
#X obj 382 456 * 200;
#X obj 383 626 throw~ all;
#X obj 383 561 *~;
#X floatatom 412 230 5 0 0 0 - - -;
#X obj 409 263 moses;
#X obj 382 490 + 100;
#X connect 0 0 1 0;
#X connect 1 0 35 0;
#X connect 2 0 53 0;
#X connect 3 0 50 2;
#X connect 4 0 42 0;
#X connect 6 0 7 0;
#X connect 7 0 21 0;
#X connect 8 0 2 0;
#X connect 8 1 3 0;
#X connect 8 2 25 0;
#X connect 8 2 27 0;
#X connect 8 2 66 0;
#X connect 8 2 69 0;
#X connect 9 0 10 0;
#X connect 10 0 4 0;
#X connect 10 0 68 1;
#X connect 11 0 10 0;
#X connect 12 0 59 0;
#X connect 12 1 13 0;
#X connect 13 0 14 0;
#X connect 13 0 16 0;
#X connect 14 0 6 4;
#X connect 14 0 65 0;
#X connect 15 0 13 1;
#X connect 16 0 15 0;
#X connect 17 0 18 0;
#X connect 17 1 19 0;
#X connect 17 2 20 0;
#X connect 18 0 6 1;
#X connect 19 0 6 2;
#X connect 20 0 6 3;
#X connect 21 0 5 0;
#X connect 22 0 23 0;
#X connect 23 0 7 1;
#X connect 24 0 6 0;
#X connect 25 0 5 1;
#X connect 26 0 16 1;
#X connect 27 0 26 0;
#X connect 28 0 29 0;
#X connect 29 0 10 0;
#X connect 30 0 31 0;
#X connect 30 0 40 0;
#X connect 31 0 32 0;
#X connect 32 0 30 1;
#X connect 33 0 31 1;
#X connect 33 0 38 0;
#X connect 34 0 33 1;
#X connect 35 0 8 0;
#X connect 35 1 11 0;
#X connect 35 1 17 0;
#X connect 35 2 36 0;
#X connect 37 0 39 0;
#X connect 38 0 41 0;
#X connect 39 0 31 1;
#X connect 39 0 33 1;
#X connect 39 0 30 1;
#X connect 39 0 54 1;
#X connect 40 0 43 0;
#X connect 41 0 34 0;
#X connect 41 1 61 0;
#X connect 42 0 12 0;
#X connect 43 0 44 0;
#X connect 44 0 45 0;
#X connect 44 1 46 0;
#X connect 45 0 52 0;
#X connect 46 0 50 3;
#X connect 47 0 48 0;
#X connect 48 0 49 0;
#X connect 49 0 57 1;
#X connect 49 0 60 0;
#X connect 50 0 24 0;
#X connect 51 0 50 1;
#X connect 52 0 51 0;
#X connect 53 0 52 0;
#X connect 53 1 51 1;
#X connect 54 0 56 0;
#X connect 55 0 54 1;
#X connect 55 0 46 1;
#X connect 55 0 45 1;
#X connect 56 0 57 0;
#X connect 57 0 55 0;
#X connect 57 1 58 0;
#X connect 58 0 55 0;
#X connect 59 0 50 0;
#X connect 59 1 30 0;
#X connect 59 2 33 0;
#X connect 59 3 54 0;
#X connect 60 0 58 0;
#X connect 61 0 34 0;
#X connect 62 0 68 0;
#X connect 63 0 67 0;
#X connect 64 0 63 1;
#X connect 65 0 64 0;
#X connect 66 0 71 0;
#X connect 68 0 63 0;
#X connect 71 0 62 0;
