#N canvas 491 104 382 503 10;
#X obj 204 36 hsl 128 15 0.01 5 0 0 empty empty Blur 50 8 0 10 -257985
-1 -1 0 1;
#X obj 149 405 gemhead;
#X obj 149 449 pix_texture;
#X obj 149 471 square 4;
#X obj 283 254 r amt.2;
#X obj 282 164 r amt.1;
#X obj 303 404 r amt.1;
#X obj 13 8 gemhead;
#X obj 13 84 gemframebuffer;
#X obj 13 207 translateXYZ 0 0 -4;
#X floatatom 79 317 5 0 0 0 - - -;
#X obj 13 390 teapot 1.5;
#X obj 150 347 s finalOutput;
#X obj 226 449 r finalOutput;
#X obj 13 345 rotateXYZ 30 30 0;
#X text 10 236 --------------------;
#X text 24 273 below this line;
#X text 17 253 whatever gem thing;
#X obj 25 34 loadbang;
#X obj 13 368 colorRGB 1 0 1;
#X floatatom 46 317 5 0 0 0 - - -;
#N canvas 600 212 293 154 gem.init 0;
#X obj 145 43 world_light;
#X obj 145 20 gemhead;
#X obj 27 112 gemwin;
#X msg 68 44 destroy;
#X obj 27 44 sel 1;
#X obj 27 20 inlet;
#X msg 27 77 lighting 1 \, frame 60 \, create \, 1;
#X connect 1 0 0 0;
#X connect 3 0 2 0;
#X connect 4 0 6 0;
#X connect 4 1 3 0;
#X connect 5 0 4 0;
#X connect 6 0 2 0;
#X restore 230 8 pd gem.init;
#X obj 203 8 tgl 15 0 empty empty empty 17 7 0 10 -257985 -1 -1 0 1
;
#X msg 25 55 dimen 500 500 \, rectangle 1;
#N canvas 719 172 211 267 controlMotionBlur 0;
#X floatatom 84 151 5 0 0 0 - - -;
#X obj 28 187 * 1;
#X floatatom 28 210 5 0 0 0 - - -;
#X floatatom 84 210 5 0 0 0 - - -;
#X obj 84 188 * 1.5;
#X floatatom 143 210 5 0 0 0 - - -;
#X obj 84 14 inlet;
#X obj 28 232 s amt.1;
#X obj 84 232 s amt.2;
#X obj 143 232 s amt.3;
#X obj 143 188 * 2;
#X obj 123 93 s amt;
#X obj 123 13 loadbang;
#X obj 84 94 + 0;
#X obj 123 35 t b b;
#X msg 123 62 0;
#X obj 84 118 clip 0 5;
#X connect 0 0 1 0;
#X connect 0 0 4 0;
#X connect 0 0 10 0;
#X connect 1 0 2 0;
#X connect 2 0 7 0;
#X connect 3 0 8 0;
#X connect 4 0 3 0;
#X connect 5 0 9 0;
#X connect 6 0 13 0;
#X connect 10 0 5 0;
#X connect 12 0 14 0;
#X connect 13 0 11 0;
#X connect 13 0 16 0;
#X connect 14 0 15 0;
#X connect 15 0 13 0;
#X connect 16 0 0 0;
#X restore 201 61 pd controlMotionBlur;
#N canvas 0 22 782 634 mblurPass.1 0;
#X obj 280 57 gemhead;
#X obj 280 353 pix_texture;
#X obj 280 382 square 4;
#X obj 280 146 gemframebuffer;
#X obj 280 171 translateXYZ 0 0 -4;
#X obj 173 112 inlet;
#X obj 468 269 outlet;
#X obj 422 210 inlet;
#X obj 299 88 loadbang;
#X obj 281 232 pix_shader vMotionBlur 1;
#X obj 316 275 t b a;
#X msg 316 303 quality 1;
#X msg 299 111 rectangle 1 \, dimen 500 500;
#X connect 0 0 3 0;
#X connect 1 0 2 0;
#X connect 3 0 4 0;
#X connect 3 1 6 0;
#X connect 4 0 9 0;
#X connect 5 0 10 0;
#X connect 7 0 9 1;
#X connect 8 0 12 0;
#X connect 9 0 1 0;
#X connect 10 0 11 0;
#X connect 10 1 1 1;
#X connect 11 0 1 0;
#X connect 12 0 3 0;
#X restore 150 186 pd mblurPass.1;
#N canvas 0 22 782 634 mblurPass.2 0;
#X obj 290 67 gemhead;
#X obj 290 363 pix_texture;
#X obj 290 392 square 4;
#X obj 290 156 gemframebuffer;
#X obj 290 181 translateXYZ 0 0 -4;
#X obj 183 122 inlet;
#X obj 478 279 outlet;
#X obj 432 220 inlet;
#X obj 309 98 loadbang;
#X obj 326 285 t b a;
#X msg 326 313 quality 1;
#X msg 309 121 rectangle 1 \, dimen 500 500;
#X obj 291 242 pix_shader vMotionBlur 2;
#X connect 0 0 3 0;
#X connect 1 0 2 0;
#X connect 3 0 4 0;
#X connect 3 1 6 0;
#X connect 4 0 12 0;
#X connect 5 0 9 0;
#X connect 7 0 12 1;
#X connect 8 0 11 0;
#X connect 9 0 10 0;
#X connect 9 1 1 1;
#X connect 10 0 1 0;
#X connect 11 0 3 0;
#X connect 12 0 1 0;
#X restore 150 232 pd mblurPass.2;
#N canvas 0 22 782 634 mblurPass.3 0;
#X obj 300 77 gemhead;
#X obj 300 373 pix_texture;
#X obj 300 402 square 4;
#X obj 300 166 gemframebuffer;
#X obj 300 191 translateXYZ 0 0 -4;
#X obj 193 132 inlet;
#X obj 488 289 outlet;
#X obj 442 230 inlet;
#X obj 319 108 loadbang;
#X obj 336 295 t b a;
#X msg 336 323 quality 1;
#X msg 319 131 rectangle 1 \, dimen 500 500;
#X obj 301 252 pix_shader vMotionBlur 3;
#X connect 0 0 3 0;
#X connect 1 0 2 0;
#X connect 3 0 4 0;
#X connect 3 1 6 0;
#X connect 4 0 12 0;
#X connect 5 0 9 0;
#X connect 7 0 12 1;
#X connect 8 0 11 0;
#X connect 9 0 10 0;
#X connect 9 1 1 1;
#X connect 10 0 1 0;
#X connect 11 0 3 0;
#X connect 12 0 1 0;
#X restore 150 277 pd mblurPass.3;
#N canvas 0 22 782 634 mblurPass.4 0;
#X obj 154 59 gemhead;
#X obj 154 355 pix_texture;
#X obj 154 384 square 4;
#X obj 154 148 gemframebuffer;
#X obj 154 173 translateXYZ 0 0 -4;
#X obj 47 114 inlet;
#X obj 342 271 outlet;
#X obj 296 212 inlet;
#X obj 173 90 loadbang;
#X obj 190 277 t b a;
#X msg 190 305 quality 1;
#X msg 173 113 rectangle 1 \, dimen 500 500;
#X obj 155 234 pix_shader vMotionBlur 4;
#X connect 0 0 3 0;
#X connect 1 0 2 0;
#X connect 3 0 4 0;
#X connect 3 1 6 0;
#X connect 4 0 12 0;
#X connect 5 0 9 0;
#X connect 7 0 12 1;
#X connect 8 0 11 0;
#X connect 9 0 10 0;
#X connect 9 1 1 1;
#X connect 10 0 1 0;
#X connect 11 0 3 0;
#X connect 12 0 1 0;
#X restore 150 321 pd mblurPass.4;
#X msg 282 186 amount \$1;
#X msg 282 232 amount \$1;
#X msg 283 275 amount \$1;
#X msg 282 319 amount \$1;
#X msg 303 426 amount \$1;
#X obj 282 209 r amt.2;
#X obj 282 298 r amt.3;
#X obj 231 298 r angle;
#X obj 231 254 r angle;
#X obj 231 208 r angle;
#X obj 231 163 r angle;
#X obj 290 380 r angle;
#X obj 149 426 pix_shader vMotionBlur 5;
#X obj 204 84 hsl 128 15 0 360 0 0 empty empty Angle 50 7 0 10 -257985
-1 -1 0 1;
#X obj 263 105 s angle;
#X msg 201 105 angle \$1;
#N canvas 300 126 401 278 credits 1;
#X text 23 122 Tested on Pd 0.42.5 with Gem 0.92.3;
#X text 24 142 MacOSX 10.5.8 nVidia GeForce 9400M;
#X text 23 205 This work is licensed by:;
#X text 23 224 Creative Commons Attribution-NonCommercial-ShareAlike
3;
#X text 23 243 http://creativecommons.org/licenses/by-nc-sa/3.0/;
#X text 23 66 Ported from Quartz Plug-in by Anton Marini;
#X text 23 86 http://v002.info/;
#X text 23 34 http://guidotamino.it/download/glslBlur.zip;
#X text 24 172 Version 0.0.1;
#X text 22 14 GLSL Motion Blur for PD and Gem by Guido;
#X restore 14 470 pd credits;
#X connect 0 0 24 0;
#X connect 1 0 41 0;
#X connect 2 0 3 0;
#X connect 4 0 31 0;
#X connect 5 0 29 0;
#X connect 6 0 33 0;
#X connect 7 0 8 0;
#X connect 8 0 9 0;
#X connect 8 1 25 0;
#X connect 9 0 14 0;
#X connect 10 0 14 2;
#X connect 13 0 2 1;
#X connect 14 0 19 0;
#X connect 18 0 23 0;
#X connect 19 0 11 0;
#X connect 20 0 14 1;
#X connect 22 0 21 0;
#X connect 23 0 8 0;
#X connect 25 0 26 0;
#X connect 26 0 27 0;
#X connect 27 0 28 0;
#X connect 28 0 12 0;
#X connect 29 0 25 1;
#X connect 30 0 26 1;
#X connect 31 0 27 1;
#X connect 32 0 28 1;
#X connect 33 0 41 1;
#X connect 34 0 30 0;
#X connect 35 0 32 0;
#X connect 36 0 28 1;
#X connect 37 0 27 1;
#X connect 38 0 26 1;
#X connect 39 0 25 1;
#X connect 40 0 41 1;
#X connect 41 0 2 0;
#X connect 42 0 44 0;
#X connect 44 0 43 0;
