#N canvas 480 63 889 729 10;
#X obj 136 350 pix_texture;
#X obj 136 377 square 4;
#X obj 146 190 gemframebuffer;
#X obj 146 210 translateXYZ 0 0 -4;
#X obj 234 276 openpanel;
#X msg 234 254 bang;
#X msg 234 299 open \$1;
#X obj 86 29 inlet;
#X obj 395 464 outlet;
#X msg 217 168 dim \$1 \$2;
#X text 284 166 default 256 256;
#X text 363 489 the glsl.* references frambuffer IDs!;
#X obj 86 51 route read open;
#X text 469 129 this is still far away from supporting all features
that I want \, but it has basic features and can be used for the examples.
;
#X text 469 179 I still have to figure out how to deal with aspect
ratio.;
#N canvas 180 150 1031 584 @argument_handler 0;
#X obj 69 141 list split 1;
#X text 431 88 the first zero is needed \, because the first argument
of [list] can't be a symbol.;
#X obj 69 90 list 0 \$1 \$2 \$3 \$4 \$5 \$6 \$7 \$8 \$9 \$10 \$11 \$12
\$13 \$14 \$15 \$16 \$17 \$18 \$19 \$20 \$21 \$22 \$23 \$24 \$25 \$26
\$27 \$28;
#X obj 78 228 route list;
#X obj 78 319 list split 1;
#X obj 78 371 del;
#X obj 78 392 list append;
#X obj 78 412 s \$0-list-loop;
#X obj 94 200 r \$0-list-loop;
#X obj 183 372 del;
#X obj 183 393 list append;
#X obj 183 350 t b a;
#X obj 183 413 s \$0-list-loop;
#X obj 293 372 del;
#X obj 293 393 list append;
#X obj 293 350 t b a;
#X obj 293 413 s \$0-list-loop;
#X obj 393 372 del;
#X obj 393 393 list append;
#X obj 393 350 t b a;
#X obj 393 413 s \$0-list-loop;
#X obj 88 432 s \$0-file;
#X obj 183 320 list split 2;
#X obj 193 433 s \$0-q;
#X obj 293 320 list split 1;
#X obj 303 433 s \$0-rect;
#X obj 393 320 list split 1;
#X obj 403 433 s \$0-txu;
#X text 428 217 @file = filename;
#X text 428 237 @q = quality/dim of gemframebuffer;
#X text 428 257 @rect = Sampler2DRect;
#X text 428 277 @txu = texunit 0-7;
#X obj 69 38 inlet;
#X obj 78 251 route @file @q @rect @txu @auto;
#X obj 503 372 del;
#X obj 503 393 list append;
#X obj 503 350 t b a;
#X obj 503 413 s \$0-list-loop;
#X obj 503 320 list split 1;
#X obj 513 433 s \$0-auto;
#X obj 633 372 del;
#X obj 633 393 list append;
#X obj 633 350 t b a;
#X obj 633 413 s \$0-list-loop;
#X obj 633 320 list split 1;
#X text 744 322 this will handle arguments;
#X obj 69 58 t b b;
#X obj 643 512 s \$0-arg1;
#X obj 713 512 s \$0-arg2;
#X obj 783 512 s \$0-arg3;
#X obj 643 490 spigot 1;
#X obj 713 490 spigot 1;
#X obj 783 490 spigot 1;
#X obj 78 349 t b a;
#X msg 113 455 0;
#X msg 244 456 0;
#X text 747 363 for later...;
#X connect 0 1 3 0;
#X connect 2 0 0 0;
#X connect 3 0 33 0;
#X connect 4 0 53 0;
#X connect 4 1 6 1;
#X connect 5 0 6 0;
#X connect 6 0 7 0;
#X connect 8 0 3 0;
#X connect 9 0 10 0;
#X connect 10 0 12 0;
#X connect 11 0 9 0;
#X connect 11 1 23 0;
#X connect 11 1 55 0;
#X connect 13 0 14 0;
#X connect 14 0 16 0;
#X connect 15 0 13 0;
#X connect 15 1 25 0;
#X connect 17 0 18 0;
#X connect 18 0 20 0;
#X connect 19 0 17 0;
#X connect 19 1 27 0;
#X connect 22 0 11 0;
#X connect 22 1 10 1;
#X connect 24 0 15 0;
#X connect 24 1 14 1;
#X connect 26 0 19 0;
#X connect 26 1 18 1;
#X connect 32 0 46 0;
#X connect 33 0 4 0;
#X connect 33 1 22 0;
#X connect 33 2 24 0;
#X connect 33 3 26 0;
#X connect 33 4 38 0;
#X connect 34 0 35 0;
#X connect 35 0 37 0;
#X connect 36 0 34 0;
#X connect 36 1 39 0;
#X connect 38 0 36 0;
#X connect 38 1 35 1;
#X connect 40 0 41 0;
#X connect 41 0 43 0;
#X connect 42 0 40 0;
#X connect 44 0 42 0;
#X connect 44 1 41 1;
#X connect 46 0 2 0;
#X connect 50 0 47 0;
#X connect 52 0 49 0;
#X connect 53 0 5 0;
#X connect 53 1 21 0;
#X connect 53 1 54 0;
#X connect 54 0 50 1;
#X connect 55 0 51 1;
#X connect 55 0 52 1;
#X restore 575 347 pd @argument_handler;
#X msg 155 282 open \$1;
#X obj 155 262 r \$0-file;
#X obj 575 267 loadbang;
#X obj 575 287 t b b;
#X msg 606 307 0;
#X obj 606 327 s \$0-rect;
#X obj 87 262 r \$0-auto;
#X msg 87 283 auto \$1;
#X text 406 52 ARGS: filename \, \$2 (\$3) dim of framebuffer;
#X text 414 37 broken..;
#X obj 136 313 pix_film;
#X obj 62 595 pix_texture;
#X msg 73 561 mode \$1;
#X msg 223 551 texunit \$1;
#X obj 183 501 r \$0-txu;
#X obj 73 541 r \$0-rect;
#X obj 62 513 gemhead;
#X obj 80 472 loadbang;
#X msg 80 492 0;
#X obj 62 451 spigot;
#X obj 183 521 t b a;
#X obj 183 543 1;
#X text 112 449 only active when texunit is used;
#X obj 216 108 loadbang;
#X msg 216 128 mode 1 \, type FLOAT;
#N canvas 387 247 735 360 framebuffersize 0;
#X obj 198 120 sel 0;
#X obj 118 120 sel 0;
#X obj 118 180 0;
#X obj 198 150 256;
#X obj 118 270 outlet;
#X text 342 122 if \$2 has a value \, then this will be used \, if
\$3 has a value \, then it will be used \, too. if only \$2 has a value
\, but \$3 not \, then \$2 is used for both!;
#X obj 118 230 0;
#X obj 118 210 t b f;
#X obj 118 250 pack 0 0;
#X obj 158 61 r \$0-q;
#X obj 158 81 unpack;
#X text 342 67 this can come as an @attribute or as an argument. any
of which will overwrite the default (256);
#X obj 78 90 r \$0-arg2;
#X obj 218 90 r \$0-arg3;
#X connect 0 0 3 0;
#X connect 0 1 3 0;
#X connect 1 0 2 0;
#X connect 1 1 2 0;
#X connect 2 0 7 0;
#X connect 3 0 2 1;
#X connect 3 0 6 1;
#X connect 6 0 8 0;
#X connect 7 0 6 0;
#X connect 7 1 8 1;
#X connect 8 0 4 0;
#X connect 9 0 10 0;
#X connect 10 0 1 0;
#X connect 10 1 0 0;
#X connect 12 0 1 0;
#X connect 13 0 0 0;
#X restore 217 148 pd framebuffersize;
#X obj 146 161 gemhead;
#X obj 146 112 loadbang;
#X msg 146 132 0;
#X obj 62 101 t b b;
#X obj 227 348 t b a a;
#X text 280 352 this rendering order is totally weird!!!;
#X floatatom 271 401 5 0 0 0 - - -;
#X connect 0 0 1 0;
#X connect 2 0 3 0;
#X connect 2 1 46 0;
#X connect 3 0 26 0;
#X connect 4 0 6 0;
#X connect 5 0 4 0;
#X connect 6 0 26 0;
#X connect 7 0 12 0;
#X connect 9 0 2 0;
#X connect 12 0 5 0;
#X connect 12 1 26 0;
#X connect 12 2 45 0;
#X connect 16 0 26 0;
#X connect 17 0 16 0;
#X connect 18 0 19 0;
#X connect 19 0 15 0;
#X connect 19 1 20 0;
#X connect 20 0 21 0;
#X connect 22 0 23 0;
#X connect 23 0 26 0;
#X connect 26 0 0 0;
#X connect 28 0 27 0;
#X connect 29 0 27 0;
#X connect 30 0 36 0;
#X connect 31 0 28 0;
#X connect 32 0 27 0;
#X connect 33 0 34 0;
#X connect 34 0 32 0;
#X connect 35 0 32 0;
#X connect 36 0 37 0;
#X connect 36 1 29 0;
#X connect 37 0 35 1;
#X connect 39 0 40 0;
#X connect 40 0 2 0;
#X connect 41 0 9 0;
#X connect 42 0 2 0;
#X connect 43 0 44 0;
#X connect 44 0 42 0;
#X connect 45 0 35 0;
#X connect 45 1 42 0;
#X connect 46 0 32 0;
#X connect 46 1 8 0;
#X connect 46 2 27 1;
#X connect 46 2 48 0;
