#N canvas 513 36 919 678 10;
#X declare -lib Gem;
#X obj 302 258 pix_video;
#X obj 302 281 pix_texture;
#X obj 216 425 rectangle 4 3;
#X msg 30 72 0 \, destroy;
#X msg 142 176 bang;
#X text 9 129 Gem Fenster;
#X obj 12 105 gemwin 12;
#X obj 447 286 pix_texture;
#X obj 216 540 pix_write;
#X obj 156 260 f;
#X obj 185 260 + 1;
#X obj 129 239 t b b;
#X msg 172 217 0;
#X obj 128 92 tgl 15 0 empty empty empty 17 7 0 10 -262144 -1 -1 0
1;
#X obj 528 225 f;
#X obj 554 226 + 1;
#X obj 528 93 tgl 15 0 empty empty empty 17 7 0 10 -262144 -1 -1 0
1;
#X floatatom 549 255 5 0 0 0 - - -;
#X obj 581 226 % 1;
#X obj 528 111 metro 200;
#X obj 229 491 makefilename /frames/frame%d-;
#X obj 382 367 pix_separator;
#X obj 216 369 pix_separator;
#X msg 128 69 1;
#X obj 447 315 square 4;
#X obj 382 426 rectangle 1 0.8;
#X obj 216 398 translateXYZ 0 -1 0;
#X obj 382 398 translateXYZ -2 3.3 1;
#X obj 18 555 text3d frame;
#X msg 27 476 text frames: \$1;
#X obj 144 492 loadbang;
#X msg 528 50 1;
#X obj 156 283 s \$0-frame;
#X obj 229 468 r \$0-frame;
#X obj 596 145 r \$0-frame;
#X obj 27 453 r \$0-frame;
#X msg 144 524 6;
#X obj 447 256 pix_multiimage;
#X msg 229 515 file \$1 60;
#X msg 30 524 justify left base;
#X msg 12 44 reset \, create \, 1;
#X text 198 217 start over;
#X text 196 105 set frequency here in which;
#X text 210 119 snapshots shall be taken;
#X text 594 109 set playback speed here;
#X obj 18 398 translateXYZ -0.5 2.1 1;
#X obj 302 223 gemhead 20;
#X text 15 200 frame # indicator;
#X text 276 202 live view and snapshot;
#X text 443 204 timelapse;
#X obj 18 220 gemhead 30;
#X obj 447 224 gemhead 40;
#X obj 128 44 delay 4000;
#X obj 128 121 metro 10000;
#X obj 596 170 change;
#X obj 596 193 t f f;
#X msg 623 226 open /frames/frame*-00000.jpg \$1;
#X obj 129 16 bng 15 250 50 0 empty empty empty 17 7 0 10 -262144 -1
-1;
#X obj 318 39 import Gem;
#X connect 0 0 1 0;
#X connect 1 0 22 0;
#X connect 1 0 21 0;
#X connect 2 0 8 0;
#X connect 3 0 6 0;
#X connect 4 0 11 0;
#X connect 7 0 24 0;
#X connect 9 0 10 0;
#X connect 9 0 32 0;
#X connect 10 0 9 1;
#X connect 11 0 8 0;
#X connect 11 1 9 0;
#X connect 12 0 9 1;
#X connect 13 0 53 0;
#X connect 14 0 15 0;
#X connect 14 0 17 0;
#X connect 14 0 37 1;
#X connect 15 0 18 0;
#X connect 16 0 19 0;
#X connect 18 0 14 1;
#X connect 19 0 14 0;
#X connect 20 0 38 0;
#X connect 21 0 27 0;
#X connect 22 0 26 0;
#X connect 23 0 13 0;
#X connect 26 0 2 0;
#X connect 27 0 25 0;
#X connect 29 0 28 0;
#X connect 30 0 36 0;
#X connect 30 0 39 0;
#X connect 31 0 16 0;
#X connect 33 0 20 0;
#X connect 34 0 54 0;
#X connect 35 0 29 0;
#X connect 36 0 28 1;
#X connect 37 0 7 0;
#X connect 38 0 8 0;
#X connect 39 0 28 0;
#X connect 40 0 6 0;
#X connect 45 0 28 0;
#X connect 46 0 0 0;
#X connect 50 0 45 0;
#X connect 51 0 37 0;
#X connect 52 0 23 0;
#X connect 53 0 11 0;
#X connect 54 0 55 0;
#X connect 55 0 18 1;
#X connect 55 1 56 0;
#X connect 56 0 37 0;
#X connect 57 0 52 0;
