#N canvas 438 25 879 641 10;
#X obj 636 121 gemwin 50;
#X msg 654 87 destroy;
#X obj 362 564 loadbang;
#X obj 251 124 gemhead;
#X obj 251 145 glsl_vertex;
#X obj 251 186 glsl_fragment;
#X obj 251 273 glsl_program;
#X obj 389 236 pack f f;
#X msg 389 257 link \$1 \$2;
#X obj 389 202 t b f;
#X obj 370 46 loadbang;
#X obj 370 67 t b b;
#X obj 251 486 pix_texture;
#X obj 251 354 rotateXYZ;
#X floatatom 268 336 5 0 0 0 - - -;
#X obj 251 375 pix_video;
#X msg 147 470 texunit 0;
#X obj 251 542 ortho;
#X obj 427 606 pix_texture;
#X msg 443 574 texunit 1;
#X obj 96 116 tgl 15 0 empty empty empty 17 7 0 10 -262144 -1 -1 0
1;
#X obj 427 479 pix_delay 300;
#X floatatom 502 461 5 0 0 0 - - -;
#X obj 427 518 pix_contrast;
#X floatatom 461 500 5 0 0 0 - - -;
#X msg 362 585 4;
#X floatatom 496 500 5 0 0 0 - - -;
#X obj 251 606 mesh_square 100 100;
#X obj 340 52 bng 15 250 50 0 empty empty empty 17 7 0 10 -262144 -1
-1;
#X obj 147 449 loadbang;
#X obj 443 553 loadbang;
#X msg 115 189 Tex1 1 \, Tex0 0;
#X msg 96 257 Tex1 0 \, Tex0 1;
#X msg 96 95 0;
#X obj 96 138 sel 0 1;
#X text 21 39 1 - le relief bouge avant la texture;
#X text 21 29 0 - la texture bouge avant le relief;
#X obj 502 419 loadbang;
#X msg 502 440 10;
#X obj 268 294 loadbang;
#X msg 268 315 -69;
#X obj 354 289 s loaded;
#X obj 96 74 r loaded;
#X obj 636 45 loadbang;
#X obj 148 300 r loaded;
#X msg 148 321 1.5;
#X floatatom 148 342 5 0 0 0 - - -;
#X msg 148 360 amplitude \$1;
#X msg 636 66 dimen 400 300 \, create \, 1;
#X msg 397 129 open MyGhost.vert;
#X msg 370 170 open MyGhost.frag;
#N canvas 673 101 369 230 infos 0;
#X text 24 68 Pour le Labomedia http://labomedia.net;
#X text 24 108 Dans le cadre des OpenAteliers http://openatelier.labomedia.net
;
#X text 24 14 Patch tisse par Olivier Baudu olivier-at-labomedia-dot-net
http://yamatierea.org/papaths;
#X text 24 150 Avec l'aide precieuse de Benjamin Cadon et Jack Boyer
;
#X text 24 180 2012 - Publie sous les termes de la licence GPL V3.0
;
#X restore 634 159 pd infos;
#X connect 1 0 0 0;
#X connect 2 0 25 0;
#X connect 3 0 4 0;
#X connect 4 0 5 0;
#X connect 4 1 7 0;
#X connect 5 0 6 0;
#X connect 5 1 9 0;
#X connect 6 0 13 0;
#X connect 6 1 41 0;
#X connect 7 0 8 0;
#X connect 8 0 6 0;
#X connect 9 0 7 0;
#X connect 9 1 7 1;
#X connect 10 0 11 0;
#X connect 11 0 50 0;
#X connect 11 1 49 0;
#X connect 12 0 17 0;
#X connect 13 0 15 0;
#X connect 14 0 13 1;
#X connect 15 0 12 0;
#X connect 15 0 21 0;
#X connect 16 0 12 0;
#X connect 17 0 27 0;
#X connect 19 0 18 0;
#X connect 20 0 34 0;
#X connect 21 0 23 0;
#X connect 22 0 21 1;
#X connect 23 0 18 0;
#X connect 24 0 23 1;
#X connect 25 0 27 1;
#X connect 26 0 23 2;
#X connect 28 0 11 0;
#X connect 29 0 16 0;
#X connect 30 0 19 0;
#X connect 31 0 6 0;
#X connect 32 0 6 0;
#X connect 33 0 20 0;
#X connect 34 0 32 0;
#X connect 34 1 31 0;
#X connect 37 0 38 0;
#X connect 38 0 22 0;
#X connect 39 0 40 0;
#X connect 40 0 14 0;
#X connect 42 0 33 0;
#X connect 43 0 48 0;
#X connect 44 0 45 0;
#X connect 45 0 46 0;
#X connect 46 0 47 0;
#X connect 47 0 6 0;
#X connect 48 0 0 0;
#X connect 49 0 4 0;
#X connect 50 0 5 0;
